<?xml version="1.0" encoding="UTF-8" standalone="no"?>
<!-- Created with Inkscape (http://www.inkscape.org/) -->

<svg
   xmlns:dc="http://purl.org/dc/elements/1.1/"
   xmlns:cc="http://creativecommons.org/ns#"
   xmlns:rdf="http://www.w3.org/1999/02/22-rdf-syntax-ns#"
   xmlns:svg="http://www.w3.org/2000/svg"
   xmlns="http://www.w3.org/2000/svg"
   xmlns:xlink="http://www.w3.org/1999/xlink"
   xmlns:sodipodi="http://sodipodi.sourceforge.net/DTD/sodipodi-0.dtd"
   xmlns:inkscape="http://www.inkscape.org/namespaces/inkscape"
   width="123.83459"
   height="81.133003"
   id="svg3263"
   version="1.1"
   inkscape:version="0.48.4 r9939"
   sodipodi:docname="cloud_3.svg">
  <title
     id="title3639">World Wide Web</title>
  <defs
     id="defs3265">
    <linearGradient
       y2="-436.83109"
       x2="288.89954"
       y1="-441.23294"
       x1="284.80219"
       gradientUnits="userSpaceOnUse"
       id="linearGradient6724"
       xlink:href="#linearGradient6538"
       inkscape:collect="always" />
    <linearGradient
       id="linearGradient6549"
       inkscape:collect="always">
      <stop
         id="stop6551"
         offset="0"
         style="stop-color:#ffffff;stop-opacity:1;" />
      <stop
         id="stop6553"
         offset="1"
         style="stop-color:#ffffff;stop-opacity:0;" />
    </linearGradient>
    <linearGradient
       y2="-436.70703"
       x2="289.76562"
       y1="-439.48358"
       x1="286.66589"
       gradientUnits="userSpaceOnUse"
       id="linearGradient6722"
       xlink:href="#linearGradient6549"
       inkscape:collect="always" />
    <linearGradient
       id="linearGradient6527"
       inkscape:collect="always">
      <stop
         id="stop6530"
         offset="0"
         style="stop-color:#ffffff;stop-opacity:1;" />
      <stop
         id="stop6532"
         offset="1"
         style="stop-color:#ffffff;stop-opacity:0;" />
    </linearGradient>
    <linearGradient
       y2="-431.91833"
       x2="279.97546"
       y1="-437.10501"
       x1="275.94193"
       gradientUnits="userSpaceOnUse"
       id="linearGradient6720"
       xlink:href="#linearGradient6527"
       inkscape:collect="always" />
    <linearGradient
       id="linearGradient6538"
       inkscape:collect="always">
      <stop
         id="stop6540"
         offset="0"
         style="stop-color:#ffffff;stop-opacity:1;" />
      <stop
         id="stop6542"
         offset="1"
         style="stop-color:#ffffff;stop-opacity:0;" />
    </linearGradient>
    <linearGradient
       y2="-436.4429"
       x2="289.39124"
       y1="-439.939"
       x1="285.94086"
       gradientUnits="userSpaceOnUse"
       id="linearGradient6718"
       xlink:href="#linearGradient6538"
       inkscape:collect="always" />
    <linearGradient
       id="linearGradient6513"
       inkscape:collect="always">
      <stop
         id="stop6515"
         offset="0"
         style="stop-color:#ffffff;stop-opacity:1;" />
      <stop
         id="stop6517"
         offset="1"
         style="stop-color:#ffffff;stop-opacity:0;" />
    </linearGradient>
    <linearGradient
       y2="-436.14453"
       x2="289.85379"
       y1="-441.29074"
       x1="286.51172"
       gradientUnits="userSpaceOnUse"
       id="linearGradient6716"
       xlink:href="#linearGradient6513"
       inkscape:collect="always" />
    <linearGradient
       id="linearGradient6497"
       inkscape:collect="always">
      <stop
         id="stop6499"
         offset="0"
         style="stop-color:#ffffff;stop-opacity:1;" />
      <stop
         id="stop6501"
         offset="1"
         style="stop-color:#ffffff;stop-opacity:0;" />
    </linearGradient>
    <linearGradient
       y2="-436.32199"
       x2="289.67633"
       y1="-439.75281"
       x1="287.5173"
       gradientUnits="userSpaceOnUse"
       id="linearGradient6714"
       xlink:href="#linearGradient6497"
       inkscape:collect="always" />
    <linearGradient
       id="linearGradient6470"
       inkscape:collect="always">
      <stop
         id="stop6472"
         offset="0"
         style="stop-color:#ffffff;stop-opacity:1;" />
      <stop
         id="stop6474"
         offset="1"
         style="stop-color:#ffffff;stop-opacity:0;" />
    </linearGradient>
    <linearGradient
       y2="-431.96991"
       x2="285.02859"
       y1="-441.05182"
       x1="271.0217"
       gradientUnits="userSpaceOnUse"
       id="linearGradient6712"
       xlink:href="#linearGradient6470"
       inkscape:collect="always" />
    <linearGradient
       y2="21.336346"
       x2="-21.962101"
       y1="15.649428"
       x1="-21.658581"
       gradientUnits="userSpaceOnUse"
       id="linearGradient6019"
       xlink:href="#linearGradient6001"
       inkscape:collect="always" />
    <linearGradient
       y2="22.661524"
       x2="-22.113543"
       y1="28.337734"
       x1="-22.822565"
       gradientUnits="userSpaceOnUse"
       id="linearGradient6015"
       xlink:href="#linearGradient6001"
       inkscape:collect="always" />
    <linearGradient
       y2="22.661524"
       x2="-22.113543"
       y1="30.057165"
       x1="-25.176178"
       gradientUnits="userSpaceOnUse"
       id="linearGradient6011"
       xlink:href="#linearGradient6001"
       inkscape:collect="always" />
    <linearGradient
       gradientUnits="userSpaceOnUse"
       y2="21.041553"
       x2="-22.252472"
       y1="30.057165"
       x1="-25.176178"
       id="linearGradient6007"
       xlink:href="#linearGradient6001"
       inkscape:collect="always" />
    <radialGradient
       r="6.7175145"
       fy="12.493138"
       fx="12.071323"
       cy="12.493138"
       cx="12.071323"
       gradientUnits="userSpaceOnUse"
       id="radialGradient5989"
       xlink:href="#linearGradient4825"
       inkscape:collect="always" />
    <radialGradient
       r="6.7175145"
       fy="12.493138"
       fx="12.071323"
       cy="12.493138"
       cx="12.071323"
       gradientUnits="userSpaceOnUse"
       id="radialGradient5987"
       xlink:href="#linearGradient4825"
       inkscape:collect="always" />
    <radialGradient
       r="6.7175145"
       fy="12.493138"
       fx="12.071323"
       cy="12.493138"
       cx="12.071323"
       gradientUnits="userSpaceOnUse"
       id="radialGradient5985"
       xlink:href="#linearGradient4825"
       inkscape:collect="always" />
    <radialGradient
       r="6.7175145"
       fy="12.493138"
       fx="12.071323"
       cy="12.493138"
       cx="12.071323"
       gradientUnits="userSpaceOnUse"
       id="radialGradient5983"
       xlink:href="#linearGradient4825"
       inkscape:collect="always" />
    <radialGradient
       gradientUnits="userSpaceOnUse"
       r="43.526714"
       fy="12.142302"
       fx="15.601279"
       cy="12.142302"
       cx="15.601279"
       gradientTransform="scale(0.999989,1.000011)"
       id="radialGradient4132"
       xlink:href="#linearGradient4126"
       inkscape:collect="always" />
    <radialGradient
       gradientUnits="userSpaceOnUse"
       r="12.289036"
       fy="63.965389"
       fx="15.115514"
       cy="63.965389"
       cx="15.115514"
       gradientTransform="scale(1.64399,0.608276)"
       id="radialGradient4120"
       xlink:href="#linearGradient4114"
       inkscape:collect="always" />
    <radialGradient
       gradientUnits="userSpaceOnUse"
       r="29.993349"
       fy="15.716079"
       fx="18.247644"
       cy="15.716079"
       cx="18.247644"
       gradientTransform="scale(0.999989,1.000011)"
       id="radialGradient3968"
       xlink:href="#linearGradient3962"
       inkscape:collect="always" />
    <linearGradient
       id="linearGradient3962">
      <stop
         id="stop3964"
         offset="0.0000000"
         style="stop-color:#d3e9ff;stop-opacity:1.0000000;" />
      <stop
         id="stop4134"
         offset="0.15517241"
         style="stop-color:#d3e9ff;stop-opacity:1.0000000;" />
      <stop
         id="stop4346"
         offset="0.75000000"
         style="stop-color:#4074ae;stop-opacity:1.0000000;" />
      <stop
         id="stop3966"
         offset="1.0000000"
         style="stop-color:#36486c;stop-opacity:1.0000000;" />
    </linearGradient>
    <linearGradient
       id="linearGradient4114"
       inkscape:collect="always">
      <stop
         id="stop4116"
         offset="0"
         style="stop-color:#000000;stop-opacity:1;" />
      <stop
         id="stop4118"
         offset="1"
         style="stop-color:#000000;stop-opacity:0;" />
    </linearGradient>
    <linearGradient
       id="linearGradient4126">
      <stop
         id="stop4128"
         offset="0.0000000"
         style="stop-color:#ffffff;stop-opacity:1.0000000;" />
      <stop
         id="stop4130"
         offset="1.0000000"
         style="stop-color:#ffffff;stop-opacity:0.16494845;" />
    </linearGradient>
    <linearGradient
       id="linearGradient4825"
       inkscape:collect="always">
      <stop
         id="stop4827"
         offset="0"
         style="stop-color:#ffffff;stop-opacity:1;" />
      <stop
         id="stop4829"
         offset="1"
         style="stop-color:#ffffff;stop-opacity:0;" />
    </linearGradient>
    <linearGradient
       id="linearGradient6001"
       inkscape:collect="always">
      <stop
         id="stop6003"
         offset="0"
         style="stop-color:#ffffff;stop-opacity:1;" />
      <stop
         id="stop6005"
         offset="1"
         style="stop-color:#ffffff;stop-opacity:0;" />
    </linearGradient>
    <inkscape:perspective
       id="perspective95"
       inkscape:persp3d-origin="24 : 16 : 1"
       inkscape:vp_z="48 : 24 : 1"
       inkscape:vp_y="0 : 1000 : 0"
       inkscape:vp_x="0 : 24 : 1"
       sodipodi:type="inkscape:persp3d" />
    <linearGradient
       id="SVGID_1_"
       gradientUnits="userSpaceOnUse"
       x1="306"
       y1="-333"
       x2="306"
       y2="-373"
       gradientTransform="matrix(1,0,0,-1,-285,-332)">
      <stop
         offset="0"
         style="stop-color:#5DF24F"
         id="stop7" />
      <stop
         offset="1"
         style="stop-color:#2A9C06"
         id="stop9" />
    </linearGradient>
  </defs>
  <sodipodi:namedview
     id="base"
     pagecolor="#ffffff"
     bordercolor="#666666"
     borderopacity="1.0"
     inkscape:pageopacity="0.0"
     inkscape:pageshadow="2"
     inkscape:zoom="3.959798"
     inkscape:cx="75.057121"
     inkscape:cy="36.973747"
     inkscape:document-units="px"
     inkscape:current-layer="layer1"
     showgrid="false"
     inkscape:showpageshadow="false"
     fit-margin-top="0"
     fit-margin-left="0"
     fit-margin-right="0"
     fit-margin-bottom="0"
     inkscape:window-width="1600"
     inkscape:window-height="838"
     inkscape:window-x="-8"
     inkscape:window-y="-8"
     inkscape:window-maximized="1" />
  <metadata
     id="metadata3268">
    <rdf:RDF>
      <cc:Work
         rdf:about="">
        <dc:format>image/svg+xml</dc:format>
        <dc:type
           rdf:resource="http://purl.org/dc/dcmitype/StillImage" />
        <cc:license
           rdf:resource="" />
        <dc:title>World Wide Web</dc:title>
        <dc:date>2013-06-30</dc:date>
        <dc:creator>
          <cc:Agent>
            <dc:title>Tango Desktop Project</dc:title>
          </cc:Agent>
        </dc:creator>
        <dc:rights>
          <cc:Agent>
            <dc:title>Public Domain</dc:title>
          </cc:Agent>
        </dc:rights>
        <dc:publisher>
          <cc:Agent>
            <dc:title>http://openclipart.org</dc:title>
          </cc:Agent>
        </dc:publisher>
        <dc:relation>http://openclipart.org/detail/35389/tango-applications-internet-by-warszawianka</dc:relation>
        <dc:language>en-gb</dc:language>
        <dc:subject>
          <rdf:Bag>
            <rdf:li>world</rdf:li>
            <rdf:li>wide</rdf:li>
            <rdf:li>web</rdf:li>
            <rdf:li>internet</rdf:li>
            <rdf:li>interweb</rdf:li>
            <rdf:li>globe</rdf:li>
            <rdf:li>earth</rdf:li>
            <rdf:li>network</rdf:li>
            <rdf:li>cloud</rdf:li>
            <rdf:li>computing</rdf:li>
            <rdf:li>sky</rdf:li>
            <rdf:li>weather</rdf:li>
            <rdf:li>grey</rdf:li>
          </rdf:Bag>
        </dc:subject>
        <dc:description>A stylized cloud and earth to represent the World Wide Web (Internet, cloud computing).</dc:description>
        <dc:contributor>
          <cc:Agent>
            <dc:title>Daniel Fowler</dc:title>
          </cc:Agent>
        </dc:contributor>
      </cc:Work>
    </rdf:RDF>
  </metadata>
  <g
     inkscape:label="Layer 1"
     inkscape:groupmode="layer"
     id="layer1"
     transform="translate(-342.14286,-526.08139)">
    <g
       id="g3554">
      <g
         inkscape:label="Layer 1"
         id="layer1-7"
         transform="matrix(0.82556391,0,0,0.82556391,222.02334,141.73446)">
        <g
           id="g6668"
           transform="matrix(5.1724138,0,0,5.1724138,-1230.3621,2772.4534)">
          <path
             inkscape:connector-curvature="0"
             sodipodi:nodetypes="ccsscsssscsscc"
             id="path6670"
             d="m 280.5,-445.5 c -2.27083,0 -4.10991,1.55028 -4.71875,3.625 -0.69323,-0.36383 -1.44451,-0.625 -2.28125,-0.625 -2.76,0 -5.00001,2.23999 -5,5 0,0.57893 0.16252,1.1077 0.34375,1.625 -1.37347,0.77074 -2.34375,2.189 -2.34375,3.875 0,2.484 2.016,4.50001 4.5,4.5 0.17713,0 18.82287,0 19,0 2.48399,0 4.5,-2.016 4.5,-4.5 0,-1.686 -0.97028,-3.10426 -2.34375,-3.875 0.18124,-0.51729 0.34375,-1.04608 0.34375,-1.625 0,-2.76 -2.24,-4.99999 -5,-5 -0.83674,0 -1.58802,0.26117 -2.28125,0.625 -0.60884,-2.07472 -2.44792,-3.625 -4.71875,-3.625 z"
             style="fill:#c4c5c2;fill-opacity:1;stroke:#888a85;stroke-width:1;stroke-linecap:butt;stroke-linejoin:miter;stroke-miterlimit:2;stroke-opacity:1;stroke-dasharray:none;stroke-dashoffset:0" />
          <path
             inkscape:connector-curvature="0"
             sodipodi:nodetypes="ccsscsssscsscc"
             id="path6672"
             d="m 280.5,-445 c -2.18972,0 -3.7236,1.33577 -4.39555,3.84352 -0.66846,-0.34362 -1.54759,-0.83335 -2.35445,-0.83335 -2.71651,0 -4.75514,1.93882 -4.75513,4.54554 0,0.54677 0.26721,1.33344 0.44196,1.82201 -1.32443,0.72795 -2.43683,1.8905 -2.43683,3.37255 0,2.34605 1.54617,4.25009 4.33928,4.25009 0.17081,0 18.15064,0 18.32144,0 2.77101,0 4.33928,-1.90404 4.33928,-4.25009 0,-1.59237 -1.1124,-2.66669 -2.43683,-3.39464 0.17476,-0.48856 0.46407,-1.25316 0.46407,-1.79992 0,-2.60671 -2.11581,-4.56763 -4.77723,-4.56764 -0.80687,0 -1.64181,0.48974 -2.31027,0.83336 C 284.29089,-443.60011 282.68973,-445 280.5,-445 z"
             style="fill:url(#linearGradient6712);fill-opacity:1;stroke:none" />
          <g
             id="g6674">
            <path
               sodipodi:type="arc"
               style="fill:#c4c5c2;fill-opacity:1;stroke:none"
               id="path6676"
               sodipodi:cx="288.375"
               sodipodi:cy="-437.59375"
               sodipodi:rx="3.3125"
               sodipodi:ry="3.3125"
               d="m 291.6875,-437.59375 c 0,1.82944 -1.48306,3.3125 -3.3125,3.3125 -1.82944,0 -3.3125,-1.48306 -3.3125,-3.3125 0,-1.82944 1.48306,-3.3125 3.3125,-3.3125 1.82944,0 3.3125,1.48306 3.3125,3.3125 z"
               transform="matrix(1.056604,0,0,1.056604,-24.19818,21.86331)" />
            <path
               sodipodi:type="arc"
               style="fill:url(#linearGradient6714);fill-opacity:1;stroke:none"
               id="path6678"
               sodipodi:cx="288.375"
               sodipodi:cy="-437.59375"
               sodipodi:rx="3.3125"
               sodipodi:ry="3.3125"
               d="m 291.6875,-437.59375 c 0,1.82944 -1.48306,3.3125 -3.3125,3.3125 -1.82944,0 -3.3125,-1.48306 -3.3125,-3.3125 0,-1.82944 1.48306,-3.3125 3.3125,-3.3125 1.82944,0 3.3125,1.48306 3.3125,3.3125 z"
               transform="matrix(1.056604,0,0,1.056604,-24.19818,21.86331)" />
          </g>
          <rect
             y="-438"
             x="271"
             height="9"
             width="20"
             id="rect6680"
             style="fill:#c4c5c2;fill-opacity:1;stroke:none" />
          <path
             transform="matrix(0.90566,0,0,0.90566,9.830195,-35.68869)"
             d="m 291.6875,-437.59375 c 0,1.82944 -1.48306,3.3125 -3.3125,3.3125 -1.82944,0 -3.3125,-1.48306 -3.3125,-3.3125 0,-1.82944 1.48306,-3.3125 3.3125,-3.3125 1.82944,0 3.3125,1.48306 3.3125,3.3125 z"
             sodipodi:ry="3.3125"
             sodipodi:rx="3.3125"
             sodipodi:cy="-437.59375"
             sodipodi:cx="288.375"
             id="path6682"
             style="fill:#c4c5c2;fill-opacity:1;stroke:none"
             sodipodi:type="arc" />
          <g
             id="g6684">
            <path
               sodipodi:type="arc"
               style="fill:#c4c5c2;fill-opacity:1;stroke:none"
               id="path6686"
               sodipodi:cx="288.375"
               sodipodi:cy="-437.59375"
               sodipodi:rx="3.3125"
               sodipodi:ry="3.3125"
               d="m 291.6875,-437.59375 c 0,1.82944 -1.48306,3.3125 -3.3125,3.3125 -1.82944,0 -3.3125,-1.48306 -3.3125,-3.3125 0,-1.82944 1.48306,-3.3125 3.3125,-3.3125 1.82944,0 3.3125,1.48306 3.3125,3.3125 z"
               transform="matrix(1.056604,0,0,1.056604,-17.19811,24.86321)" />
            <path
               sodipodi:type="arc"
               style="fill:url(#linearGradient6716);fill-opacity:1;stroke:none"
               id="path6688"
               sodipodi:cx="288.375"
               sodipodi:cy="-437.59375"
               sodipodi:rx="3.3125"
               sodipodi:ry="3.3125"
               d="m 291.6875,-437.59375 c 0,1.82944 -1.48306,3.3125 -3.3125,3.3125 -1.82944,0 -3.3125,-1.48306 -3.3125,-3.3125 0,-1.82944 1.48306,-3.3125 3.3125,-3.3125 1.82944,0 3.3125,1.48306 3.3125,3.3125 z"
               transform="matrix(1.056604,0,0,1.056604,-17.19818,24.86331)" />
          </g>
          <g
             id="g6690">
            <path
               sodipodi:type="arc"
               style="fill:#c4c5c2;fill-opacity:1;stroke:none"
               id="path6692"
               sodipodi:cx="288.375"
               sodipodi:cy="-437.59375"
               sodipodi:rx="3.3125"
               sodipodi:ry="3.3125"
               d="m 291.6875,-437.59375 c 0,1.82944 -1.48306,3.3125 -3.3125,3.3125 -1.82944,0 -3.3125,-1.48306 -3.3125,-3.3125 0,-1.82944 1.48306,-3.3125 3.3125,-3.3125 1.82944,0 3.3125,1.48306 3.3125,3.3125 z"
               transform="matrix(1.056604,0,0,1.056604,-31.19818,24.86331)" />
            <path
               sodipodi:type="arc"
               style="fill:url(#linearGradient6718);fill-opacity:1;stroke:none"
               id="path6694"
               sodipodi:cx="288.375"
               sodipodi:cy="-437.59375"
               sodipodi:rx="3.3125"
               sodipodi:ry="3.3125"
               d="m 291.6875,-437.59375 c 0,1.82944 -1.48306,3.3125 -3.3125,3.3125 -1.82944,0 -3.3125,-1.48306 -3.3125,-3.3125 0,-1.82944 1.48306,-3.3125 3.3125,-3.3125 1.82944,0 3.3125,1.48306 3.3125,3.3125 z"
               transform="matrix(1.056604,0,0,1.056604,-31.19818,24.86331)" />
          </g>
          <g
             transform="translate(-1,0)"
             id="g6696">
            <path
               inkscape:connector-curvature="0"
               style="fill:#c4c5c2;fill-opacity:1;stroke:none"
               d="m 280.46875,-440.96875 c -3.57938,0 -6.46875,2.92063 -6.46875,6.5 0,2.37068 1.34943,4.33779 3.25,5.46875 l 6.46875,0 c 1.90057,-1.13096 3.25,-3.12931 3.25,-5.5 0,-3.57938 -2.92063,-6.46875 -6.5,-6.46875 z"
               id="path6698" />
            <path
               inkscape:connector-curvature="0"
               style="fill:url(#linearGradient6720);fill-opacity:1;stroke:none"
               d="m 280.5,-441 c -3.588,0 -6.5,2.91201 -6.5,6.5 0,2.3764 1.34485,4.36632 3.25,5.5 l 6.5,0 c 1.90515,-1.13368 3.25,-3.1236 3.25,-5.5 0,-3.588 -2.912,-6.49999 -6.5,-6.5 z"
               id="path6700" />
          </g>
          <path
             transform="matrix(0.90566,0,0,0.90566,9.830296,-35.68884)"
             d="m 291.6875,-437.59375 c 0,1.82944 -1.48306,3.3125 -3.3125,3.3125 -1.82944,0 -3.3125,-1.48306 -3.3125,-3.3125 0,-1.82944 1.48306,-3.3125 3.3125,-3.3125 1.82944,0 3.3125,1.48306 3.3125,3.3125 z"
             sodipodi:ry="3.3125"
             sodipodi:rx="3.3125"
             sodipodi:cy="-437.59375"
             sodipodi:cx="288.375"
             id="path6702"
             style="fill:url(#linearGradient6722);fill-opacity:1;stroke:none"
             sodipodi:type="arc" />
          <path
             inkscape:connector-curvature="0"
             sodipodi:nodetypes="ccss"
             id="path6704"
             d="m 292.9564,-437.33396 c -0.002,2.68456 -3.26926,3.71395 -3.26926,3.71395 0,0 2.34874,-1.62595 2.33685,-3.70501 0,0 0.93241,-0.009 0.93241,-0.009 z"
             style="fill:#888a85;fill-opacity:1;fill-rule:evenodd;stroke:none" />
          <g
             transform="matrix(1.142857,0,0,1.142857,-28.57139,67.00008)"
             id="g6706">
            <path
               sodipodi:type="arc"
               style="fill:#c4c5c2;fill-opacity:1;stroke:none"
               id="path6708"
               sodipodi:cx="288.375"
               sodipodi:cy="-437.59375"
               sodipodi:rx="3.3125"
               sodipodi:ry="3.3125"
               d="m 291.6875,-437.59375 c 0,1.82944 -1.48306,3.3125 -3.3125,3.3125 -1.82944,0 -3.3125,-1.48306 -3.3125,-3.3125 0,-1.82944 1.48306,-3.3125 3.3125,-3.3125 1.82944,0 3.3125,1.48306 3.3125,3.3125 z"
               transform="matrix(1.056604,0,0,1.056604,-31.19818,24.86331)" />
            <path
               sodipodi:type="arc"
               style="fill:url(#linearGradient6724);fill-opacity:1;stroke:none"
               id="path6710"
               sodipodi:cx="288.375"
               sodipodi:cy="-437.59375"
               sodipodi:rx="3.3125"
               sodipodi:ry="3.3125"
               d="m 291.6875,-437.59375 c 0,1.82944 -1.48306,3.3125 -3.3125,3.3125 -1.82944,0 -3.3125,-1.48306 -3.3125,-3.3125 0,-1.82944 1.48306,-3.3125 3.3125,-3.3125 1.82944,0 3.3125,1.48306 3.3125,3.3125 z"
               transform="matrix(1.056604,0,0,1.056604,-31.19818,24.86331)" />
          </g>
        </g>
      </g>
      <g
         transform="matrix(1.3103235,0,0,1.3103235,373.03441,541.56124)"
         id="layer1-0"
         inkscape:label="Layer 1">
        <path
           inkscape:connector-curvature="0"
           style="fill:url(#radialGradient3968);fill-opacity:1;fill-rule:nonzero;stroke:#39396c;stroke-miterlimit:4;stroke-opacity:1"
           d="m 43.959853,23.485499 c 0,10.709718 -8.682103,19.391723 -19.390348,19.391723 -10.709226,0 -19.3908387,-8.682103 -19.3908387,-19.391723 0,-10.709227 8.6816127,-19.3903473 19.3908387,-19.3903473 10.708245,0 19.390348,8.6811203 19.390348,19.3903473 l 0,0 z"
           id="path3214" />
        <g
           id="g4136"
           style="fill:#204a87;fill-opacity:0.71345029;fill-rule:nonzero;stroke:none"
           transform="matrix(0.982371,0,0,0.982371,0.121079,0.232914)">
          <g
             id="g4138"
             style="fill:#204a87">
            <g
               id="g4142"
               style="fill:#204a87">
              <path
                 inkscape:connector-curvature="0"
                 d="m 44.0713,20.7144 c 0,0.2627 0,0 0,0 l -0.5449,0.6172 c -0.334,-0.3936 -0.709,-0.7246 -1.0898,-1.0703 l -0.8359,0.123 -0.7637,-0.8633 0,1.0684 0.6543,0.4951 0.4355,0.4932 0.582,-0.6582 c 0.1465,0.2744 0.291,0.5488 0.4365,0.8232 l 0,0.8223 -0.6553,0.7402 -1.1992,0.8232 -0.9082,0.9063 -0.582,-0.6602 0.291,-0.7402 -0.5811,-0.6582 -0.9814,-2.0977 -0.8359,-0.9453 -0.2188,0.2461 0.3281,1.1934 0.6172,0.6992 c 0.3525,1.0176 0.7012,1.9902 1.1641,2.9629 0.7178,0 1.3945,-0.0762 2.1074,-0.166 l 0,0.5762 -0.8721,2.1392 -0.7998,0.9043 -0.6543,1.4004 c 0,0.7676 0,1.5352 0,2.3027 l 0.2188,0.9063 -0.3633,0.4102 -0.8008,0.4941 -0.8359,0.6992 0.6914,0.7813 -0.9453,0.8242 0.1816,0.5332 -1.418,1.6055 -0.9443,0 -0.7998,0.4941 -0.5098,0 0,-0.6582 -0.2168,-1.3184 c -0.2813,-0.8262 -0.5742,-1.6465 -0.8721,-2.4668 0,-0.6055 0.0361,-1.2051 0.0723,-1.8105 l 0.3643,-0.8223 -0.5098,-0.9883 0.0371,-1.3574 -0.6914,-0.7813 0.3457,-1.1309 -0.5625,-0.6382 -0.9824,0 -0.3271,-0.3701 -0.9814,0.6177 -0.3994,-0.4536 -0.9092,0.7817 c -0.6172,-0.6997 -1.2354,-1.3989 -1.8535,-2.0981 l -0.7266,-1.7285 0.6543,-0.9863 -0.3633,-0.4111 0.7988,-1.8936 c 0.6563,-0.8164 1.3418,-1.5996 2.0352,-2.3857 l 1.2363,-0.3291 1.3809,-0.1641 0.9453,0.2471 1.3447,1.3564 0.4727,-0.5342 0.6533,-0.082 1.2363,0.4111 0.9453,0 0.6543,-0.5762 0.291,-0.4111 -0.6553,-0.4111 -1.0908,-0.082 c -0.3027,-0.4199 -0.584,-0.8613 -0.9434,-1.2344 l -0.3643,0.1641 -0.1455,1.0703 -0.6543,-0.7402 -0.1445,-0.8242 -0.7266,-0.5742 -0.292,0 0.7275,0.8223 -0.291,0.7402 -0.5811,0.1641 0.3633,-0.7402 -0.6553,-0.3281 -0.5801,-0.6582 -1.0918,0.2461 -0.1445,0.3281 -0.6543,0.4121 -0.3633,0.9053 -0.9082,0.4521 -0.4004,-0.4521 -0.4355,0 0,-1.4814 0.9453,-0.4941 0.7266,0 -0.1465,-0.5752 -0.5801,-0.5762 0.9805,-0.2061 0.5449,-0.6162 0.4355,-0.7412 0.8008,0 -0.2188,-0.5752 0.5098,-0.3291 0,0.6582 1.0898,0.2461 1.0898,-0.9043 0.0732,-0.4121 0.9443,-0.6577 c -0.3418,0.0425 -0.6836,0.0737 -1.0176,0.1646 l 0,-0.7411 0.3633,-0.8228 -0.3633,0 -0.7984,0.7402 -0.2188,0.4116 0.2188,0.5767 -0.3643,0.9863 -0.5811,-0.3291 -0.5078,-0.5752 -0.8008,0.5752 -0.291,-1.3159 1.3809,-0.9048 0,-0.4941 0.873,-0.5757 1.3809,-0.3296 0.9453,0.3296 1.7441,0.3291 -0.4355,0.4932 -0.9453,0 0.9453,0.9873 0.7266,-0.8223 0.2207,-0.3618 c 0,0 2.7871,2.498 4.3799,5.2305 1.5928,2.7334 2.3408,5.9551 2.3408,6.6094 z"
                 id="path4144"
                 style="fill:#204a87" />
            </g>
          </g>
          <g
             id="g4146"
             style="fill:#204a87">
            <g
               id="g4150"
               style="fill:#204a87">
              <path
                 inkscape:connector-curvature="0"
                 d="m 26.0703,9.2363 -0.0732,0.4932 0.5098,0.3291 0.8711,-0.5757 -0.4355,-0.4937 -0.582,0.3296 -0.29,-0.0825"
                 id="path4152"
                 style="fill:#204a87" />
            </g>
          </g>
          <g
             id="g4154"
             style="fill:#204a87">
            <g
               id="g4158"
               style="fill:#204a87">
              <path
                 inkscape:connector-curvature="0"
                 d="m 26.8701,5.8633 -1.8906,-0.7407 -2.1797,0.2466 -2.6904,0.7402 -0.5088,0.4941 1.6719,1.1514 0,0.6582 -0.6543,0.6582 0.873,1.729 0.5801,-0.3301 0.7285,-1.1514 c 1.123,-0.3472 2.1299,-0.7407 3.1973,-1.2344 l 0.873,-2.2212"
                 id="path4160"
                 style="fill:#204a87" />
            </g>
          </g>
          <g
             id="g4162"
             style="fill:#204a87">
            <g
               id="g4166"
               style="fill:#204a87">
              <path
                 inkscape:connector-curvature="0"
                 d="m 28.833,12.7749 -0.291,-0.7412 -0.5098,0.165 0.1465,0.9043 0.6543,-0.3281"
                 id="path4168"
                 style="fill:#204a87" />
            </g>
          </g>
          <g
             id="g4170"
             style="fill:#204a87">
            <g
               id="g4174"
               style="fill:#204a87">
              <path
                 inkscape:connector-curvature="0"
                 d="m 29.123,12.6089 -0.1455,0.9883 0.7998,-0.165 0.5811,-0.5752 -0.5088,-0.4941 C 29.6787,11.9078 29.4824,11.483 29.2685,11.0465 l -0.4355,0 0,0.4932 0.29,0.3291 0,0.7402"
                 id="path4176"
                 style="fill:#204a87" />
            </g>
          </g>
          <g
             id="g4178"
             style="fill:#204a87">
            <g
               id="g4182"
               style="fill:#204a87">
              <path
                 inkscape:connector-curvature="0"
                 d="m 18.3652,28.2422 -0.582,-1.1523 -1.0903,-0.2466 -0.5815,-1.5625 -1.4536,0.1641 -1.2354,-0.9043 -1.3091,1.1514 0,0.1816 c -0.396,-0.1143 -0.8828,-0.1299 -1.2354,-0.3467 l -0.291,-0.8223 0,-0.9053 -0.8721,0.082 c 0.0728,-0.5762 0.145,-1.1514 0.2183,-1.7275 l -0.5093,0 -0.5083,0.6582 -0.5093,0.2461 -0.7271,-0.4102 -0.0728,-0.9053 0.1455,-0.9873 1.0908,-0.8223 0.8721,0 0.145,-0.4941 1.0903,0.2461 0.7998,0.9883 0.1455,-1.6465 1.3813,-1.1514 0.5088,-1.2344 1.0176,-0.4111 0.5815,-0.8223 1.3081,-0.248 0.6548,-0.9863 c -0.6543,0 -1.3086,0 -1.9629,0 l 1.2358,-0.5762 0.8716,0 1.2363,-0.4121 0.1455,-0.4922 -0.4365,-0.4121 -0.5088,-0.165 0.1455,-0.4932 -0.3633,-0.7402 -0.8726,0.3281 0.1455,-0.6577 -1.0176,-0.5762 -0.7993,1.3979 0.0723,0.4941 -0.7993,0.3301 -0.5093,1.0693 -0.2178,-0.9873 -1.3813,-0.5762 -0.2183,-0.7402 1.8174,-1.0703 0.7998,-0.7402 0.0728,-0.9048 -0.436,-0.2471 -0.5815,-0.0825 -0.3633,0.9053 c 0,0 -0.6079,0.1191 -0.7642,0.1577 -1.9961,1.8394 -6.0293,5.8101 -6.9663,13.3062 0.0371,0.1738 0.6792,1.1816 0.6792,1.1816 l 1.5264,0.9043 1.5264,0.4121 0.6548,0.8232 1.0171,0.7402 0.5815,-0.082 0.436,0.1963 0,0.1328 -0.5811,1.563 -0.4365,0.6582 0.1455,0.3301 -0.3633,1.2324 1.3086,2.3867 1.3081,1.1523 0.582,0.8223 -0.0732,1.7285 0.4365,0.9863 -0.4365,1.8926 c 0,0 -0.0342,-0.0117 0.0215,0.1777 0.0562,0.1895 2.3291,1.4512 2.4736,1.3438 0.144,-0.1094 0.2671,-0.2051 0.2671,-0.2051 l -0.145,-0.4102 0.5811,-0.5762 0.2183,-0.5762 0.9453,-0.3301 0.7266,-1.8105 -0.2178,-0.4922 0.5078,-0.7402 1.0908,-0.248 0.582,-1.3164 -0.1455,-1.6445 0.8721,-1.2344 0.1455,-1.2344 C 20.7331,29.4607 19.5495,28.8513 18.365,28.242"
                 id="path4184"
                 style="fill:#204a87" />
            </g>
          </g>
          <g
             id="g4186"
             style="fill:#204a87">
            <g
               id="g4190"
               style="fill:#204a87">
              <path
                 inkscape:connector-curvature="0"
                 d="m 16.7656,9.5649 0.7266,0.4937 0.582,0 0,-0.5757 -0.7266,-0.3291 -0.582,0.4111"
                 id="path4192"
                 style="fill:#204a87" />
            </g>
          </g>
          <g
             id="g4194"
             style="fill:#204a87">
            <g
               id="g4198"
               style="fill:#204a87">
              <path
                 inkscape:connector-curvature="0"
                 d="m 14.876,8.9072 -0.3638,0.9048 0.7271,0 0.3638,-0.8228 C 15.9166,8.7675 16.2286,8.5444 16.5479,8.331 l 0.7271,0.2471 c 0.4844,0.3291 0.9688,0.6582 1.4536,0.9868 L 19.4561,8.9072 18.6558,8.5781 18.292,7.8374 16.9111,7.6728 16.8383,7.2612 16.184,7.4262 15.8936,8.002 15.5298,7.2613 l -0.145,0.3291 0.0728,0.8228 -0.5816,0.494"
                 id="path4200"
                 style="fill:#204a87" />
            </g>
          </g>
          <g
             id="g4202"
             style="fill:#204a87">
            <g
               style="opacity:0.75;fill:#204a87"
               id="g4204">
              <path
                 inkscape:connector-curvature="0"
                 id="path4206"
                 d=""
                 style="fill:#204a87" />
            </g>
            <g
               id="g4208"
               style="fill:#204a87">
              <path
                 inkscape:connector-curvature="0"
                 id="path4210"
                 d=""
                 style="fill:#204a87" />
            </g>
          </g>
          <g
             id="g4212"
             style="fill:#204a87">
            <g
               style="opacity:0.75;fill:#204a87"
               id="g4214">
              <path
                 inkscape:connector-curvature="0"
                 id="path4216"
                 d=""
                 style="fill:#204a87" />
            </g>
            <g
               id="g4218"
               style="fill:#204a87">
              <path
                 inkscape:connector-curvature="0"
                 id="path4220"
                 d=""
                 style="fill:#204a87" />
            </g>
          </g>
          <g
             id="g4222"
             style="fill:#204a87">
            <g
               id="g4226"
               style="fill:#204a87">
              <path
                 inkscape:connector-curvature="0"
                 d="M 17.4922,6.8496 17.856,6.521 18.5831,6.3564 c 0.498,-0.2422 0.998,-0.4053 1.5264,-0.5762 l -0.29,-0.4937 -0.9385,0.1348 -0.4434,0.4419 -0.731,0.106 -0.6499,0.3052 -0.3159,0.1528 -0.1929,0.2583 0.9443,0.1641"
                 id="path4228"
                 style="fill:#204a87" />
            </g>
          </g>
          <g
             id="g4230"
             style="fill:#204a87">
            <g
               id="g4234"
               style="fill:#204a87">
              <path
                 inkscape:connector-curvature="0"
                 d="m 18.7285,14.6665 0.4365,-0.6582 -0.6548,-0.4932 0.2183,1.1514"
                 id="path4236"
                 style="fill:#204a87" />
            </g>
          </g>
        </g>
        <path
           inkscape:connector-curvature="0"
           style="opacity:0.39560439;fill:none;stroke:url(#radialGradient4132);stroke-miterlimit:4;stroke-opacity:1"
           d="m 42.975093,23.485534 c 0,10.16582 -8.241178,18.406906 -18.4056,18.406906 -10.165354,0 -18.4060669,-8.241179 -18.4060669,-18.406906 0,-10.165354 8.2407129,-18.4056 18.4060669,-18.4056 10.164422,0 18.4056,8.240246 18.4056,18.4056 l 0,0 z"
           id="path4122" />
        <path
           sodipodi:type="arc"
           style="color:#000000;fill:none;stroke:url(#linearGradient6007);stroke-width:0.88164198;stroke-linecap:round;stroke-linejoin:round;stroke-miterlimit:4;stroke-opacity:1;stroke-dasharray:none;stroke-dashoffset:0;marker:none;visibility:visible;display:inline;overflow:visible"
           id="path5991"
           sodipodi:cx="-18.561554"
           sodipodi:cy="21.041553"
           sodipodi:rx="15.733126"
           sodipodi:ry="9.4575529"
           d="m -2.8284283,21.041553 c 0,5.223263 -7.0439603,9.457553 -15.7331257,9.457553 -8.689165,0 -15.733126,-4.23429 -15.733126,-9.457553 0,-5.223262 7.043961,-9.457552 15.733126,-9.457552 8.6891654,0 15.7331257,4.23429 15.7331257,9.457552 z"
           inkscape:r_cx="true"
           inkscape:r_cy="true"
           transform="matrix(1.131034,0.613097,-0.476556,0.879144,54.09058,16.04435)" />
        <path
           transform="matrix(0.939326,-0.879086,0.683307,0.730131,32.31406,-4.451561)"
           inkscape:r_cy="true"
           inkscape:r_cx="true"
           d="m -2.8284283,21.041553 c 0,5.223263 -7.0439603,9.457553 -15.7331257,9.457553 -8.689165,0 -15.733126,-4.23429 -15.733126,-9.457553 0,-5.223262 7.043961,-9.457552 15.733126,-9.457552 8.6891654,0 15.7331257,4.23429 15.7331257,9.457552 z"
           sodipodi:ry="9.4575529"
           sodipodi:rx="15.733126"
           sodipodi:cy="21.041553"
           sodipodi:cx="-18.561554"
           id="path6009"
           style="color:#000000;fill:none;stroke:url(#linearGradient6011);stroke-width:0.88164198;stroke-linecap:round;stroke-linejoin:round;stroke-miterlimit:4;stroke-opacity:1;stroke-dasharray:none;stroke-dashoffset:0;marker:none;visibility:visible;display:inline;overflow:visible"
           sodipodi:type="arc" />
        <g
           inkscape:r_cy="true"
           inkscape:r_cx="true"
           transform="matrix(-1.045772,0.767251,0.767251,1.045772,35.61651,-22.14396)"
           id="g4933">
          <path
             transform="translate(14.95026,22.93047)"
             inkscape:r_cy="true"
             inkscape:r_cx="true"
             d="m 18.788838,12.493138 c 0,3.709981 -3.007534,6.717515 -6.717515,6.717515 -3.7099804,0 -6.7175141,-3.007534 -6.7175141,-6.717515 0,-3.7099805 3.0075337,-6.7175142 6.7175141,-6.7175142 3.709981,0 6.717515,3.0075337 6.717515,6.7175142 z"
             sodipodi:ry="6.7175145"
             sodipodi:rx="6.7175145"
             sodipodi:cy="12.493138"
             sodipodi:cx="12.071323"
             id="path4935"
             style="color:#000000;fill:url(#radialGradient5987);fill-opacity:1;fill-rule:evenodd;stroke:none;stroke-width:1;marker:none;visibility:visible;display:inline;overflow:visible"
             sodipodi:type="arc" />
          <path
             sodipodi:type="arc"
             style="color:#000000;fill:#ffffff;fill-opacity:1;fill-rule:evenodd;stroke:none;stroke-width:1;marker:none;visibility:visible;display:inline;overflow:visible"
             id="path4937"
             sodipodi:cx="12.071323"
             sodipodi:cy="12.493138"
             sodipodi:rx="6.7175145"
             sodipodi:ry="6.7175145"
             d="m 18.788838,12.493138 c 0,3.709981 -3.007534,6.717515 -6.717515,6.717515 -3.7099804,0 -6.7175141,-3.007534 -6.7175141,-6.717515 0,-3.7099805 3.0075337,-6.7175142 6.7175141,-6.7175142 3.709981,0 6.717515,3.0075337 6.717515,6.7175142 z"
             inkscape:r_cx="true"
             inkscape:r_cy="true"
             transform="matrix(0.308271,0,0,0.308271,23.30035,31.57234)" />
        </g>
        <path
           sodipodi:type="arc"
           style="color:#000000;fill:none;stroke:url(#linearGradient6015);stroke-width:0.88164198;stroke-linecap:round;stroke-linejoin:round;stroke-miterlimit:4;stroke-opacity:1;stroke-dasharray:none;stroke-dashoffset:0;marker:none;visibility:visible;display:inline;overflow:visible"
           id="path6013"
           sodipodi:cx="-18.561554"
           sodipodi:cy="21.041553"
           sodipodi:rx="15.733126"
           sodipodi:ry="9.4575529"
           d="m -2.8284283,21.041553 c 0,5.223263 -7.0439603,9.457553 -15.7331257,9.457553 -8.689165,0 -15.733126,-4.23429 -15.733126,-9.457553 0,-5.223262 7.043961,-9.457552 15.733126,-9.457552 8.6891654,0 15.7331257,4.23429 15.7331257,9.457552 z"
           inkscape:r_cx="true"
           inkscape:r_cy="true"
           transform="matrix(-1.280316,-0.126159,0.09806226,-0.99518,-2.405125,40.52387)" />
        <path
           sodipodi:type="arc"
           style="color:#000000;fill:none;stroke:url(#linearGradient6019);stroke-width:0.90226138;stroke-linecap:round;stroke-linejoin:round;stroke-miterlimit:4;stroke-opacity:1;stroke-dasharray:none;stroke-dashoffset:0;marker:none;visibility:visible;display:inline;overflow:visible"
           id="path6017"
           sodipodi:cx="-18.561554"
           sodipodi:cy="21.041553"
           sodipodi:rx="15.733126"
           sodipodi:ry="9.4575529"
           d="m -2.8284283,21.041553 c 0,5.223263 -7.0439603,9.457553 -15.7331257,9.457553 -8.689165,0 -15.733126,-4.23429 -15.733126,-9.457553 0,-5.223262 7.043961,-9.457552 15.733126,-9.457552 8.6891654,0 15.7331257,4.23429 15.7331257,9.457552 z"
           inkscape:r_cx="true"
           inkscape:r_cy="true"
           transform="matrix(0.917874,-0.858983,0.667701,0.713433,27.63317,-6.909069)" />
        <g
           id="g5075"
           transform="matrix(-0.806276,0.59154,0.59154,0.806276,12.38564,-18.02921)"
           inkscape:r_cx="true"
           inkscape:r_cy="true">
          <path
             transform="translate(14.95026,22.93047)"
             inkscape:r_cy="true"
             inkscape:r_cx="true"
             d="m 18.788838,12.493138 c 0,3.709981 -3.007534,6.717515 -6.717515,6.717515 -3.7099804,0 -6.7175141,-3.007534 -6.7175141,-6.717515 0,-3.7099805 3.0075337,-6.7175142 6.7175141,-6.7175142 3.709981,0 6.717515,3.0075337 6.717515,6.7175142 z"
             sodipodi:ry="6.7175145"
             sodipodi:rx="6.7175145"
             sodipodi:cy="12.493138"
             sodipodi:cx="12.071323"
             id="path5077"
             style="color:#000000;fill:url(#radialGradient5983);fill-opacity:1;fill-rule:evenodd;stroke:none;stroke-width:1;marker:none;visibility:visible;display:inline;overflow:visible"
             sodipodi:type="arc" />
          <path
             sodipodi:type="arc"
             style="color:#000000;fill:#ffffff;fill-opacity:1;fill-rule:evenodd;stroke:none;stroke-width:1;marker:none;visibility:visible;display:inline;overflow:visible"
             id="path5079"
             sodipodi:cx="12.071323"
             sodipodi:cy="12.493138"
             sodipodi:rx="6.7175145"
             sodipodi:ry="6.7175145"
             d="m 18.788838,12.493138 c 0,3.709981 -3.007534,6.717515 -6.717515,6.717515 -3.7099804,0 -6.7175141,-3.007534 -6.7175141,-6.717515 0,-3.7099805 3.0075337,-6.7175142 6.7175141,-6.7175142 3.709981,0 6.717515,3.0075337 6.717515,6.7175142 z"
             inkscape:r_cx="true"
             inkscape:r_cy="true"
             transform="matrix(0.308271,0,0,0.308271,23.30035,31.57234)" />
        </g>
        <g
           inkscape:r_cy="true"
           inkscape:r_cx="true"
           transform="matrix(-0.806276,0.59154,0.59154,0.806276,13.4991,-31.50022)"
           id="g4945">
          <path
             sodipodi:type="arc"
             style="color:#000000;fill:url(#radialGradient5985);fill-opacity:1;fill-rule:evenodd;stroke:none;stroke-width:1;marker:none;visibility:visible;display:inline;overflow:visible"
             id="path4947"
             sodipodi:cx="12.071323"
             sodipodi:cy="12.493138"
             sodipodi:rx="6.7175145"
             sodipodi:ry="6.7175145"
             d="m 18.788838,12.493138 c 0,3.709981 -3.007534,6.717515 -6.717515,6.717515 -3.7099804,0 -6.7175141,-3.007534 -6.7175141,-6.717515 0,-3.7099805 3.0075337,-6.7175142 6.7175141,-6.7175142 3.709981,0 6.717515,3.0075337 6.717515,6.7175142 z"
             inkscape:r_cx="true"
             inkscape:r_cy="true"
             transform="translate(14.95026,22.93047)" />
          <path
             transform="matrix(0.308271,0,0,0.308271,23.30035,31.57234)"
             inkscape:r_cy="true"
             inkscape:r_cx="true"
             d="m 18.788838,12.493138 c 0,3.709981 -3.007534,6.717515 -6.717515,6.717515 -3.7099804,0 -6.7175141,-3.007534 -6.7175141,-6.717515 0,-3.7099805 3.0075337,-6.7175142 6.7175141,-6.7175142 3.709981,0 6.717515,3.0075337 6.717515,6.7175142 z"
             sodipodi:ry="6.7175145"
             sodipodi:rx="6.7175145"
             sodipodi:cy="12.493138"
             sodipodi:cx="12.071323"
             id="path4949"
             style="color:#000000;fill:#ffffff;fill-opacity:1;fill-rule:evenodd;stroke:none;stroke-width:1;marker:none;visibility:visible;display:inline;overflow:visible"
             sodipodi:type="arc" />
        </g>
        <g
           id="g4939"
           transform="matrix(-0.870227,0.638572,0.638458,0.870381,25.20503,-35.31278)"
           inkscape:r_cx="true"
           inkscape:r_cy="true">
          <path
             sodipodi:type="arc"
             style="color:#000000;fill:url(#radialGradient5989);fill-opacity:1;fill-rule:evenodd;stroke:none;stroke-width:1;marker:none;visibility:visible;display:inline;overflow:visible"
             id="path4941"
             sodipodi:cx="12.071323"
             sodipodi:cy="12.493138"
             sodipodi:rx="6.7175145"
             sodipodi:ry="6.7175145"
             d="m 18.788838,12.493138 c 0,3.709981 -3.007534,6.717515 -6.717515,6.717515 -3.7099804,0 -6.7175141,-3.007534 -6.7175141,-6.717515 0,-3.7099805 3.0075337,-6.7175142 6.7175141,-6.7175142 3.709981,0 6.717515,3.0075337 6.717515,6.7175142 z"
             inkscape:r_cx="true"
             inkscape:r_cy="true"
             transform="translate(14.95026,22.93047)" />
          <path
             transform="matrix(0.308271,0,0,0.308271,23.30035,31.57234)"
             inkscape:r_cy="true"
             inkscape:r_cx="true"
             d="m 18.788838,12.493138 c 0,3.709981 -3.007534,6.717515 -6.717515,6.717515 -3.7099804,0 -6.7175141,-3.007534 -6.7175141,-6.717515 0,-3.7099805 3.0075337,-6.7175142 6.7175141,-6.7175142 3.709981,0 6.717515,3.0075337 6.717515,6.7175142 z"
             sodipodi:ry="6.7175145"
             sodipodi:rx="6.7175145"
             sodipodi:cy="12.493138"
             sodipodi:cx="12.071323"
             id="path4943"
             style="color:#000000;fill:#ffffff;fill-opacity:1;fill-rule:evenodd;stroke:none;stroke-width:1;marker:none;visibility:visible;display:inline;overflow:visible"
             sodipodi:type="arc" />
        </g>
      </g>
    </g>
    <g
       transform="translate(417.86496,560.96058)"
       id="Layer_2">
      <circle
         d="M 41,21 C 41,32.045695 32.045695,41 21,41 9.954305,41 1,32.045695 1,21 1,9.954305 9.954305,1 21,1 32.045695,1 41,9.954305 41,21 z"
         style="fill:#ffffff"
         sodipodi:ry="20"
         sodipodi:rx="20"
         sodipodi:cy="21"
         sodipodi:cx="21"
         cx="21"
         cy="21"
         r="20"
         id="circle4" />
      <linearGradient
         id="linearGradient4412"
         gradientUnits="userSpaceOnUse"
         x1="306"
         y1="-333"
         x2="306"
         y2="-373"
         gradientTransform="matrix(1,0,0,-1,-285,-332)">
        <stop
           offset="0"
           style="stop-color:#5DF24F"
           id="stop4414" />
        <stop
           offset="1"
           style="stop-color:#2A9C06"
           id="stop4416" />
      </linearGradient>
      <path
         style="fill:url(#SVGID_1_)"
         inkscape:connector-curvature="0"
         d="m 21,5 c 9.378,0 16,6.633 16,16 0,9.366 -6.622,16 -16,16 C 11.623,37 5,30.366 5,21 5,11.633 11.623,5 21,5 M 21,1 C 9.954,1 1,9.954 1,21 1,32.045 9.954,41 21,41 32.045,41 41,32.045 41,21 41,9.954 32.045,1 21,1 l 0,0 z"
         id="path11" />
      <path
         style="fill:#018700"
         inkscape:connector-curvature="0"
         d="m 12.593,22.904 c 0,0 0.845,-0.904 2.032,-1.904 1.187,-1 2.875,-2.563 2.875,-2.563 l 4.688,7.063 c 0,0 2.83,-6.455 6.563,-11.25 3.733,-4.795 5.625,-6.688 5.625,-6.688 0,0 0.281,3.031 0.345,5.406 0.063,2.375 -0.345,5.365 -0.345,5.365 0,0 -3.088,1.191 -6.125,5.083 -3.897,4.994 -5.688,8.708 -5.688,8.708 0,0 -1.563,-1.499 -4.313,-4.374 -2.75,-2.875 -5.657,-4.846 -5.657,-4.846 z"
         id="path13" />
    </g>
  </g>
</svg>
