<?xml version="1.0" encoding="UTF-8" standalone="no"?>
<!-- Created with Inkscape (http://www.inkscape.org/) -->
<svg xmlns:dc="http://purl.org/dc/elements/1.1/" xmlns:cc="http://creativecommons.org/ns#" xmlns:rdf="http://www.w3.org/1999/02/22-rdf-syntax-ns#" xmlns:svg="http://www.w3.org/2000/svg" xmlns="http://www.w3.org/2000/svg" xmlns:xlink="http://www.w3.org/1999/xlink" xmlns:sodipodi="http://sodipodi.sourceforge.net/DTD/sodipodi-0.dtd" xmlns:inkscape="http://www.inkscape.org/namespaces/inkscape" width="705.06519" height="728.16925" id="svg2" inkscape:label="Pozadí" sodipodi:version="0.32" inkscape:version="0.45.1+0.46pre1+devel" sodipodi:docbase="J:\INKSCAPE\kliparty\svg\14.Vypocetni technika" sodipodi:docname="Machovka_floppy_diskette_ok.svg" version="1.0" inkscape:output_extension="org.inkscape.output.svg.inkscape">
  <defs id="defs1311">
    <inkscape:perspective sodipodi:type="inkscape:persp3d" inkscape:vp_x="-50 : 600 : 1" inkscape:vp_y="0 : 1000 : 0" inkscape:vp_z="700 : 600 : 1" inkscape:persp3d-origin="300 : 400 : 1" id="perspective81"/>
    <linearGradient inkscape:collect="always" id="linearGradient11440">
      <stop style="stop-color:#0055d4;stop-opacity:1;" offset="0" id="stop11442"/>
      <stop style="stop-color:#0055d4;stop-opacity:0;" offset="1" id="stop11444"/>
    </linearGradient>
    <marker inkscape:stockid="Arrow1Lstart" orient="auto" refY="0" refX="0" id="Arrow1Lstart" style="overflow:visible">
      <path id="path11362" d="M 0,0 L 5,-5 L -12.5,0 L 5,5 L 0,0 z " style="fill-rule:evenodd;stroke:black;stroke-width:1pt;marker-start:none" transform="matrix(0.8,0,0,0.8,10,0)"/>
    </marker>
    <linearGradient id="linearGradient6730">
      <stop style="stop-color:#b6242b;stop-opacity:1;" offset="0" id="stop6732"/>
      <stop style="stop-color:#b6242b;stop-opacity:0;" offset="1" id="stop6734"/>
    </linearGradient>
    <linearGradient inkscape:collect="always" xlink:href="#linearGradient11440" id="linearGradient11475" gradientUnits="userSpaceOnUse" x1="252.47406" y1="323.03128" x2="523.48993" y2="323.03128"/>
    <linearGradient inkscape:collect="always" xlink:href="#linearGradient11440" id="linearGradient12574" gradientUnits="userSpaceOnUse" x1="252.47406" y1="323.03128" x2="523.48993" y2="323.03128"/>
    <linearGradient inkscape:collect="always" xlink:href="#linearGradient11440" id="linearGradient2517" gradientUnits="userSpaceOnUse" x1="252.47406" y1="323.03128" x2="523.48993" y2="323.03128"/>
    <linearGradient inkscape:collect="always" xlink:href="#linearGradient11440" id="linearGradient2547" gradientUnits="userSpaceOnUse" x1="252.47406" y1="323.03128" x2="523.48993" y2="323.03128"/>
    <linearGradient inkscape:collect="always" xlink:href="#linearGradient11440" id="linearGradient2553" gradientUnits="userSpaceOnUse" x1="252.47406" y1="323.03128" x2="523.48993" y2="323.03128" gradientTransform="matrix(1.5396675,0,0,1.541134,-233.62217,-296.80454)"/>
  </defs>
  <sodipodi:namedview id="base" pagecolor="#ffffff" bordercolor="#666666" borderopacity="1.0" inkscape:pageopacity="0.0" inkscape:pageshadow="2" inkscape:zoom="0.48557427" inkscape:cx="372.04724" inkscape:cy="580.73299" inkscape:document-units="px" inkscape:current-layer="layer1" showguides="true" inkscape:guide-bbox="true" inkscape:window-width="1024" inkscape:window-height="710" inkscape:window-x="132" inkscape:window-y="56" showgrid="false">
    <sodipodi:guide orientation="horizontal" position="1080.8632" id="guide3141"/>
  </sodipodi:namedview>
  <g inkscape:label="Vrstva 1" inkscape:groupmode="layer" id="layer1" transform="translate(-18.86046,-102.7342)">
    <rect style="opacity:1;color:black;fill:#5f5022;fill-opacity:1;fill-rule:nonzero;stroke:#d6d63b;stroke-width:0;stroke-linecap:round;stroke-linejoin:round;marker:none;marker-start:none;marker-mid:none;marker-end:none;stroke-miterlimit:4;stroke-dasharray:none;stroke-dashoffset:0;stroke-opacity:1;visibility:visible;display:inline;overflow:visible" id="rect1347" width="0" height="8.0812206" x="234.35539" y="470.51431" rx="9" ry="8.0812206"/>
    <rect style="opacity:1;color:black;fill:#5f5022;fill-opacity:1;fill-rule:nonzero;stroke:#d6d63b;stroke-width:0;stroke-linecap:round;stroke-linejoin:round;marker:none;marker-start:none;marker-mid:none;marker-end:none;stroke-miterlimit:4;stroke-dasharray:none;stroke-dashoffset:0;stroke-opacity:1;visibility:visible;display:inline;overflow:visible" id="rect1359" width="12.121831" height="0" x="-591.9494" y="155.34673" rx="2.0203009"/>
    <rect style="opacity:1;color:black;fill:#5f5022;fill-opacity:1;fill-rule:nonzero;stroke:#d6d63b;stroke-width:0;stroke-linecap:round;stroke-linejoin:round;marker:none;marker-start:none;marker-mid:none;marker-end:none;stroke-miterlimit:4;stroke-dasharray:none;stroke-dashoffset:0;stroke-opacity:1;visibility:visible;display:inline;overflow:visible" id="rect1361" width="42.426407" height="0" x="-472.7514" y="187.6716" rx="2.0203009"/>
    <rect style="opacity:1;color:black;fill:#5f5022;fill-opacity:1;fill-rule:nonzero;stroke:#d6d63b;stroke-width:0;stroke-linecap:round;stroke-linejoin:round;marker:none;marker-start:none;marker-mid:none;marker-end:none;stroke-miterlimit:4;stroke-dasharray:none;stroke-dashoffset:0;stroke-opacity:1;visibility:visible;display:inline;overflow:visible" id="rect1363" width="14.142136" height="0" x="-432.34528" y="195.75282" rx="2.0203009"/>
    <g id="g11571" style="fill:#1a1a1a;fill-opacity:0.88082904" transform="matrix(1.261643,0,0,1.273795,-114.43612,-214.68326)">
      <path style="fill:#1a1a1a;fill-opacity:0.88082904;fill-rule:nonzero;stroke:#d6d63b;stroke-width:0;stroke-linecap:round;stroke-linejoin:round;marker:none;marker-start:none;marker-mid:none;marker-end:none;stroke-miterlimit:4;stroke-dasharray:none;stroke-dashoffset:0;stroke-opacity:1;visibility:visible;display:inline;overflow:visible" d="M 132.34375,259.25 C 121.9647,259.25 113.59375,267.48757 113.59375,277.71875 L 113.59375,802.40625 C 113.59375,812.63743 121.96469,820.84378 132.34375,820.84375 L 645.75,820.84375 C 656.12905,820.84375 664.50002,812.6374 664.5,802.40625 L 664.5,298.40625 L 633.65625,259.25 L 132.34375,259.25 z" id="path11573"/>
      <rect style="fill:#1a1a1a;fill-opacity:0.88082904;fill-rule:evenodd;stroke:#d6d63b;stroke-width:0;stroke-linecap:round;stroke-linejoin:round;marker:none;marker-start:none;marker-mid:none;marker-end:none;stroke-miterlimit:4;stroke-dasharray:none;stroke-dashoffset:0;stroke-opacity:1;visibility:visible;display:inline;overflow:visible" id="rect11575" width="435.76926" height="156.39479" x="170.09738" y="259.24982" ry="22.653589"/>
      <rect ry="45.000294" rx="25.05756" y="483.62302" x="160.67188" height="334.55798" width="460.86255" id="rect11577" style="fill:#1a1a1a;fill-opacity:0.88082904;fill-rule:nonzero;stroke:#d6d63b;stroke-width:0;stroke-linecap:round;stroke-linejoin:round;marker:none;marker-start:none;marker-mid:none;marker-end:none;stroke-miterlimit:4;stroke-dasharray:none;stroke-dashoffset:0;stroke-opacity:1;visibility:visible;display:inline;overflow:visible"/>
      <rect style="fill:#1a1a1a;fill-opacity:0.88082904;fill-rule:nonzero;stroke:#d6d63b;stroke-width:0;stroke-linecap:round;stroke-linejoin:round;marker:none;marker-start:none;marker-mid:none;marker-end:none;stroke-miterlimit:4;stroke-dasharray:none;stroke-dashoffset:0;stroke-opacity:1;visibility:visible;display:inline;overflow:visible" id="rect11579" width="444.38721" height="334.55798" x="168.90955" y="483.62302" rx="24.161777" ry="45.000294"/>
      <rect style="fill:#1a1a1a;fill-opacity:0.88082904;fill-rule:nonzero;stroke:#d6d63b;stroke-width:0;stroke-linecap:round;stroke-linejoin:round;marker:none;marker-start:none;marker-mid:none;marker-end:none;stroke-miterlimit:4;stroke-dasharray:none;stroke-dashoffset:0;stroke-opacity:1;visibility:visible;display:inline;overflow:visible" id="rect11581" width="444.38721" height="246.00302" x="168.90955" y="530.98962" rx="24.161777" ry="33.089062"/>
      <rect style="fill:#1a1a1a;fill-opacity:0.88082904;fill-rule:nonzero;stroke:#d6d63b;stroke-width:0;stroke-linecap:round;stroke-linejoin:round;marker:none;marker-start:none;marker-mid:none;marker-end:none;stroke-miterlimit:4;stroke-dasharray:none;stroke-dashoffset:0;stroke-opacity:1;visibility:visible;display:inline;overflow:visible" id="rect11583" width="374.11203" height="15.798359" x="206.11406" y="589.66925" rx="0.1928502" ry="15.798359"/>
      <rect style="fill:#1a1a1a;fill-opacity:0.88082904;fill-rule:nonzero;stroke:#d6d63b;stroke-width:0;stroke-linecap:round;stroke-linejoin:round;marker:none;marker-start:none;marker-mid:none;marker-end:none;stroke-miterlimit:4;stroke-dasharray:none;stroke-dashoffset:0;stroke-opacity:1;visibility:visible;display:inline;overflow:visible" id="rect11585" width="374.11203" height="15.798359" x="205.08061" y="651.73419" rx="0.1928502" ry="15.798359"/>
      <rect style="fill:#1a1a1a;fill-opacity:0.88082904;fill-rule:nonzero;stroke:#d6d63b;stroke-width:0;stroke-linecap:round;stroke-linejoin:round;marker:none;marker-start:none;marker-mid:none;marker-end:none;stroke-miterlimit:4;stroke-dasharray:none;stroke-dashoffset:0;stroke-opacity:1;visibility:visible;display:inline;overflow:visible" id="rect11587" width="374.11203" height="15.798359" x="205.08061" y="719.44147" rx="0.1928502" ry="15.798359"/>
      <g id="g11589" transform="matrix(1,0,0,0.445559,-4.237668,155.5985)" style="fill:#1a1a1a;fill-opacity:0.88082904">
        <path id="path11591" d="M 144.1592,282.14015 C 144.1592,380.99218 144.1592,380.99218 144.1592,380.99218" style="fill:#1a1a1a;fill-opacity:0.88082904;fill-rule:evenodd;stroke:#000000;stroke-width:3;stroke-linecap:butt;stroke-linejoin:miter;marker-start:url(#Arrow1Lstart);stroke-miterlimit:15.10000038;stroke-opacity:1"/>
        <rect y="314.08444" x="138.52673" height="70.558937" width="11.161866" id="rect11593" style="opacity:1;fill:#1a1a1a;fill-opacity:0.88082904;fill-rule:nonzero;stroke:none;stroke-width:3;stroke-linecap:round;stroke-miterlimit:15.10000038;stroke-dasharray:none;stroke-opacity:1"/>
      </g>
      <g id="g11595" transform="matrix(0.823183,0,0,0.7412,523.9861,208.3938)" style="fill:#1a1a1a;fill-opacity:0.88082904">
        <rect style="opacity:1;fill:#1a1a1a;fill-opacity:0.88082904;fill-rule:nonzero;stroke:none;stroke-width:3;stroke-linecap:round;stroke-miterlimit:15.10000038;stroke-dasharray:none;stroke-opacity:1" id="rect11597" width="34.941578" height="31.830288" x="124.00833" y="773.40179" ry="0.12458038"/>
        <rect ry="0.065239869" y="788.56329" x="124.00833" height="16.668785" width="34.941578" id="rect11599" style="opacity:1;fill:#1a1a1a;fill-opacity:0.88082904;fill-rule:nonzero;stroke:none;stroke-width:3;stroke-linecap:round;stroke-miterlimit:15.10000038;stroke-dasharray:none;stroke-opacity:1"/>
      </g>
      <g transform="matrix(0.823183,0,0,0.7412,19.74844,208.3938)" id="g11601" style="fill:#1a1a1a;fill-opacity:0.88082904">
        <rect ry="0.12458038" y="773.40179" x="124.00833" height="31.830288" width="34.941578" id="rect11603" style="opacity:1;fill:#1a1a1a;fill-opacity:0.88082904;fill-rule:nonzero;stroke:none;stroke-width:3;stroke-linecap:round;stroke-miterlimit:15.10000038;stroke-dasharray:none;stroke-opacity:1"/>
        <rect style="opacity:1;fill:#1a1a1a;fill-opacity:0.88082904;fill-rule:nonzero;stroke:none;stroke-width:3;stroke-linecap:round;stroke-miterlimit:15.10000038;stroke-dasharray:none;stroke-opacity:1" id="rect11605" width="34.941578" height="16.668785" x="124.00833" y="788.56329" ry="0.065239869"/>
      </g>
      <g id="g11607" transform="matrix(1.220367,0,0,1.209876,-86.52834,-54.41036)" style="fill:#1a1a1a;fill-opacity:0.88082904">
        <rect ry="32.28595" style="fill:#1a1a1a;fill-opacity:0.88082904;fill-rule:nonzero;stroke:#d6d63b;stroke-width:0;stroke-linecap:round;stroke-linejoin:round;marker:none;marker-start:none;marker-mid:none;marker-end:none;stroke-miterlimit:4;stroke-dasharray:none;stroke-dashoffset:0;stroke-opacity:1;visibility:visible;display:inline;overflow:visible" id="rect11609" width="271.01587" height="127.56295" x="252.47406" y="259.24982"/>
        <rect y="270.25253" x="428.48245" height="111.81571" width="49.984802" id="rect11611" style="opacity:1;fill:#1a1a1a;fill-opacity:0.88082904;fill-rule:nonzero;stroke:none;stroke-width:3;stroke-linecap:round;stroke-miterlimit:15.10000038;stroke-dasharray:none;stroke-opacity:1"/>
        <rect y="259.24982" x="252.47406" height="127.56295" width="271.01587" id="rect11613" style="opacity:0.34112148;fill:#1a1a1a;fill-opacity:0.88082904;fill-rule:nonzero;stroke:#d6d63b;stroke-width:0;stroke-linecap:round;stroke-linejoin:round;marker:none;marker-start:none;marker-mid:none;marker-end:none;stroke-miterlimit:4;stroke-dasharray:none;stroke-dashoffset:0;stroke-opacity:1;visibility:visible;display:inline;overflow:visible" ry="32.28595"/>
        <rect ry="16.475338" y="284.19958" x="290.37784" height="61.782516" width="94.733192" id="rect11615" style="opacity:1;fill:#1a1a1a;fill-opacity:0.88082904;fill-rule:evenodd;stroke:none;stroke-width:3;stroke-linecap:round;stroke-miterlimit:15.10000038;stroke-dasharray:none;stroke-opacity:1"/>
        <text sodipodi:linespacing="100%" id="text11617" y="320.35941" x="290.08331" style="font-size:20px;font-style:normal;font-variant:normal;font-weight:normal;font-stretch:normal;text-align:start;line-height:100%;writing-mode:lr-tb;text-anchor:start;fill:#1a1a1a;fill-opacity:0.88082904;stroke:none;stroke-width:1px;stroke-linecap:butt;stroke-linejoin:miter;stroke-opacity:1;font-family:Arial Black" xml:space="preserve">
          <tspan y="320.35941" x="290.08331" id="tspan11619" sodipodi:role="line">1, 44 MB</tspan>
        </text>
      </g>
      <g id="g11621" transform="matrix(0.57364,0,0,0.5,218.2208,165.7831)" style="fill:#1a1a1a;fill-opacity:0.88082904">
        <path id="path11623" d="M 735.89683,306.90358 L 735.89683,311.80983 C 744.40765,317.63646 749.75661,326.02879 749.74058,335.37233 C 749.72462,344.68694 744.38384,353.06348 735.89683,358.87233 L 735.89683,364.24733 C 746.44021,357.81408 753.31622,347.39471 753.33433,335.62233 C 753.35252,323.81277 746.47697,313.35478 735.89683,306.90358 z" style="fill:#1a1a1a;fill-opacity:0.88082904;fill-rule:evenodd;stroke:none;stroke-width:3;stroke-linecap:round;stroke-miterlimit:15.10000038;stroke-dasharray:none;stroke-opacity:1"/>
        <rect y="306.85315" x="700.20184" height="57.663681" width="37.069508" id="rect11625" style="fill:#1a1a1a;fill-opacity:0.88082904;fill-rule:evenodd;stroke:none;stroke-width:3;stroke-linecap:round;stroke-miterlimit:15.10000038;stroke-dasharray:none;stroke-opacity:1"/>
        <rect y="330.26846" x="702.34589" height="9.0275822" width="14.331286" id="rect11627" style="fill:#1a1a1a;fill-opacity:0.88082904;fill-rule:evenodd;stroke:none;stroke-width:3;stroke-linecap:round;stroke-miterlimit:15.10000038;stroke-dasharray:none;stroke-opacity:1"/>
      </g>
    </g>
    <path style="fill:#4d4d4d;fill-opacity:1;fill-rule:nonzero;stroke:#d6d63b;stroke-width:0;stroke-linecap:round;stroke-linejoin:round;marker:none;marker-start:none;marker-mid:none;marker-end:none;stroke-miterlimit:4;stroke-dasharray:none;stroke-dashoffset:0;stroke-opacity:1;visibility:visible;display:inline;overflow:visible" d="M 42.516266,102.73445 C 29.42161,102.73445 18.86046,113.22743 18.86046,126.25986 L 18.86046,794.60417 C 18.86046,807.6366 29.421597,818.0898 42.516266,818.08976 L 690.25167,818.08976 C 703.34632,818.08976 713.9075,807.63656 713.90747,794.60417 L 713.90747,152.61149 L 674.99367,102.73445 L 42.516266,102.73445 z" id="rect7676"/>
    <rect style="fill:#9f8d7c;fill-opacity:1;fill-rule:evenodd;stroke:#d6d63b;stroke-width:0;stroke-linecap:round;stroke-linejoin:round;marker:none;marker-start:none;marker-mid:none;marker-end:none;stroke-miterlimit:4;stroke-dasharray:none;stroke-dashoffset:0;stroke-opacity:1;visibility:visible;display:inline;overflow:visible" id="rect7678" width="549.78522" height="199.2149" x="90.147873" y="102.73422" ry="28.85603"/>
    <rect ry="57.321148" rx="31.613695" y="388.53967" x="78.256248" height="426.15829" width="581.44403" id="rect11401" style="fill:#9f8d7c;fill-opacity:1;fill-rule:nonzero;stroke:#d6d63b;stroke-width:0;stroke-linecap:round;stroke-linejoin:round;marker:none;marker-start:none;marker-mid:none;marker-end:none;stroke-miterlimit:4;stroke-dasharray:none;stroke-dashoffset:0;stroke-opacity:1;visibility:visible;display:inline;overflow:visible"/>
    <rect style="fill:#d4c7bb;fill-opacity:0.29015545;fill-rule:nonzero;stroke:#d6d63b;stroke-width:0;stroke-linecap:round;stroke-linejoin:round;marker:none;marker-start:none;marker-mid:none;marker-end:none;stroke-miterlimit:4;stroke-dasharray:none;stroke-dashoffset:0;stroke-opacity:1;visibility:visible;display:inline;overflow:visible" id="rect11403" width="560.65802" height="426.15829" x="88.649246" y="388.53967" rx="30.483538" ry="57.321148"/>
    <rect style="fill:#fffcfc;fill-opacity:1;fill-rule:nonzero;stroke:#d6d63b;stroke-width:0;stroke-linecap:round;stroke-linejoin:round;marker:none;marker-start:none;marker-mid:none;marker-end:none;stroke-miterlimit:4;stroke-dasharray:none;stroke-dashoffset:0;stroke-opacity:1;visibility:visible;display:inline;overflow:visible" id="rect7680" width="560.65802" height="313.35742" x="88.649246" y="448.87503" rx="30.483538" ry="42.148682"/>
    <rect style="fill:#030000;fill-opacity:1;fill-rule:nonzero;stroke:#d6d63b;stroke-width:0;stroke-linecap:round;stroke-linejoin:round;marker:none;marker-start:none;marker-mid:none;marker-end:none;stroke-miterlimit:4;stroke-dasharray:none;stroke-dashoffset:0;stroke-opacity:1;visibility:visible;display:inline;overflow:visible" id="rect7682" width="471.99582" height="20.123871" x="135.58806" y="523.62085" rx="0.24330811" ry="20.123871"/>
    <rect style="fill:#030000;fill-opacity:1;fill-rule:nonzero;stroke:#d6d63b;stroke-width:0;stroke-linecap:round;stroke-linejoin:round;marker:none;marker-start:none;marker-mid:none;marker-end:none;stroke-miterlimit:4;stroke-dasharray:none;stroke-dashoffset:0;stroke-opacity:1;visibility:visible;display:inline;overflow:visible" id="rect7684" width="471.99582" height="20.123871" x="134.28423" y="602.67883" rx="0.24330811" ry="20.123871"/>
    <rect style="fill:#030000;fill-opacity:1;fill-rule:nonzero;stroke:#d6d63b;stroke-width:0;stroke-linecap:round;stroke-linejoin:round;marker:none;marker-start:none;marker-mid:none;marker-end:none;stroke-miterlimit:4;stroke-dasharray:none;stroke-dashoffset:0;stroke-opacity:1;visibility:visible;display:inline;overflow:visible" id="rect7686" width="471.99582" height="20.123871" x="134.28423" y="688.92407" rx="0.24330811" ry="20.123871"/>
    <g id="g11373" transform="matrix(1.261643,0,0,0.5675508,-129.80072,-29.296309)">
      <path id="path10302" d="M 144.1592,282.14015 C 144.1592,380.99218 144.1592,380.99218 144.1592,380.99218" style="fill:none;fill-rule:evenodd;stroke:#000000;stroke-width:3;stroke-linecap:butt;stroke-linejoin:miter;marker-start:url(#Arrow1Lstart);stroke-miterlimit:15.10000038;stroke-opacity:1"/>
      <rect y="314.08444" x="138.52673" height="70.558937" width="11.161866" id="rect11371" style="opacity:1;fill:#000000;fill-opacity:1;fill-rule:nonzero;stroke:none;stroke-width:3;stroke-linecap:round;stroke-miterlimit:15.10000038;stroke-dasharray:none;stroke-opacity:1"/>
    </g>
    <g id="g11385" transform="matrix(1.0385631,0,0,0.9441369,536.6291,37.95408)">
      <rect style="opacity:1;fill:#000000;fill-opacity:1;fill-rule:nonzero;stroke:none;stroke-width:3;stroke-linecap:round;stroke-miterlimit:15.10000038;stroke-dasharray:none;stroke-opacity:1" id="rect11387" width="34.941578" height="31.830288" x="124.00833" y="773.40179" ry="0.12458038"/>
      <rect ry="0.065239869" y="788.56329" x="124.00833" height="16.668785" width="34.941578" id="rect11389" style="opacity:1;fill:#edd3d3;fill-opacity:1;fill-rule:nonzero;stroke:none;stroke-width:3;stroke-linecap:round;stroke-miterlimit:15.10000038;stroke-dasharray:none;stroke-opacity:1"/>
    </g>
    <g transform="matrix(1.0385631,0,0,0.9441369,-99.538819,37.95408)" id="g11451">
      <rect ry="0.12458038" y="773.40179" x="124.00833" height="31.830288" width="34.941578" id="rect11453" style="opacity:1;fill:#000000;fill-opacity:1;fill-rule:nonzero;stroke:none;stroke-width:3;stroke-linecap:round;stroke-miterlimit:15.10000038;stroke-dasharray:none;stroke-opacity:1"/>
      <rect style="opacity:1;fill:#edd3d3;fill-opacity:1;fill-rule:nonzero;stroke:none;stroke-width:3;stroke-linecap:round;stroke-miterlimit:15.10000038;stroke-dasharray:none;stroke-opacity:1" id="rect11455" width="34.941578" height="16.668785" x="124.00833" y="788.56329" ry="0.065239869"/>
    </g>
    <rect y="102.73417" x="155.10393" height="196.5916" width="417.27432" id="rect11422" style="fill:#b3b3b3;fill-opacity:1;fill-rule:nonzero;stroke:#d6d63b;stroke-width:0;stroke-linecap:round;stroke-linejoin:round;marker:none;marker-start:none;marker-mid:none;marker-end:none;stroke-miterlimit:4;stroke-dasharray:none;stroke-dashoffset:0;stroke-opacity:1;visibility:visible;display:inline;overflow:visible" ry="49.756973"/>
    <rect style="fill:#121212;fill-opacity:1;fill-rule:nonzero;stroke:none;stroke-width:3;stroke-linecap:round;stroke-miterlimit:15.10000038;stroke-dasharray:none;stroke-opacity:1" id="rect11424" width="76.959976" height="172.323" x="426.09833" y="119.69083"/>
    <rect ry="49.756973" style="opacity:0.34112148;fill:url(#linearGradient2553);fill-opacity:1;fill-rule:nonzero;stroke:#d6d63b;stroke-width:0;stroke-linecap:round;stroke-linejoin:round;marker:none;marker-start:none;marker-mid:none;marker-end:none;stroke-miterlimit:4;stroke-dasharray:none;stroke-dashoffset:0;stroke-opacity:1;visibility:visible;display:inline;overflow:visible" id="rect11426" width="417.27432" height="196.5916" x="155.10393" y="102.73417"/>
    <rect style="fill:#808080;fill-opacity:1;fill-rule:evenodd;stroke:none;stroke-width:3;stroke-linecap:round;stroke-miterlimit:15.10000038;stroke-dasharray:none;stroke-opacity:1" id="rect11457" width="145.85762" height="95.215134" x="213.46315" y="141.1851" ry="25.390703"/>
    <path transform="scale(0.9995241,1.0004761)" style="font-size:30.80801201px;font-style:normal;font-variant:normal;font-weight:normal;font-stretch:normal;text-align:start;line-height:100%;writing-mode:lr-tb;text-anchor:start;fill:#000000;fill-opacity:1;stroke:none;stroke-width:1px;stroke-linecap:butt;stroke-linejoin:miter;stroke-opacity:1;font-family:Arial Black" d="M 228.25937,174.38945 L 228.25937,196.81853 L 222.06167,196.81853 L 222.06167,182.12154 C 221.0588,182.88373 220.08853,183.50049 219.15085,183.97183 C 218.21317,184.44319 217.03731,184.89447 215.62328,185.32569 L 215.62328,180.30134 C 217.70923,179.62944 219.32886,178.82213 220.48216,177.87942 C 221.63544,176.93675 222.53802,175.77343 223.18989,174.38945 L 228.25937,174.38945 z M 235.55522,190.74117 L 242.09891,190.74117 L 242.09891,195.78056 C 242.0989,197.63586 241.7128,199.10004 240.9406,200.17311 C 240.16839,201.24617 238.84962,202.19388 236.9843,203.01623 L 235.55522,200.33858 C 236.71854,199.79703 237.51832,199.25799 237.95457,198.72146 C 238.39081,198.18493 238.63401,197.55062 238.68416,196.81853 L 235.55522,196.81853 L 235.55522,190.74117 z M 266.06237,192.69675 L 254.90048,192.69675 L 254.90048,187.65736 L 266.06237,174.38945 L 271.40262,174.38945 L 271.40262,187.94317 L 274.17053,187.94317 L 274.17053,192.69675 L 271.40262,192.69675 L 271.40262,196.81853 L 266.06237,196.81853 L 266.06237,192.69675 z M 266.06237,187.94317 L 266.06237,181.00836 L 260.16552,187.94317 L 266.06237,187.94317 z M 286.64116,192.69675 L 275.47927,192.69675 L 275.47927,187.65736 L 286.64116,174.38945 L 291.98141,174.38945 L 291.98141,187.94317 L 294.74932,187.94317 L 294.74932,192.69675 L 291.98141,192.69675 L 291.98141,196.81853 L 286.64116,196.81853 L 286.64116,192.69675 z M 286.64116,187.94317 L 286.64116,181.00836 L 280.74431,187.94317 L 286.64116,187.94317 z M 307.89688,174.76553 L 316.8625,174.76553 L 320.32238,188.18386 L 323.76722,174.76553 L 332.70275,174.76553 L 332.70275,196.81853 L 327.13685,196.81853 L 327.13685,180.00048 L 322.81951,196.81853 L 317.78012,196.81853 L 313.47783,180.00048 L 313.47783,196.81853 L 307.89688,196.81853 L 307.89688,174.76553 z M 337.05016,174.76553 L 349.8066,174.76553 C 351.93266,174.76555 353.56482,175.29205 354.70309,176.34504 C 355.84132,177.39807 356.41045,178.70179 356.41047,180.25621 C 356.41045,181.55995 356.00429,182.67815 355.19199,183.6108 C 354.65042,184.23258 353.85816,184.72399 352.8152,185.08501 C 354.3997,185.46611 355.56553,186.12048 356.31269,187.04812 C 357.0598,187.97577 357.43337,189.1416 357.43339,190.54561 C 357.43337,191.68888 357.16761,192.71681 356.63611,193.62942 C 356.10457,194.54203 355.3775,195.26409 354.45488,195.7956 C 353.88323,196.12655 353.02077,196.36724 351.86749,196.51767 C 350.33309,196.71824 349.31518,196.81853 348.81377,196.81853 L 337.05016,196.81853 L 337.05016,174.76553 z M 343.9248,183.41524 L 346.88827,183.41524 C 347.95129,183.41525 348.6909,183.23223 349.1071,182.86617 C 349.52328,182.50014 349.73137,181.97113 349.73139,181.27913 C 349.73137,180.63732 349.52328,180.13589 349.1071,179.77484 C 348.6909,179.41382 347.96633,179.23331 346.93339,179.23329 L 343.9248,179.23329 L 343.9248,183.41524 z M 343.9248,192.07999 L 347.39973,192.07999 C 348.57307,192.07999 349.40043,191.8719 349.88182,191.45571 C 350.36318,191.03952 350.60386,190.48043 350.60388,189.77842 C 350.60386,189.12656 350.36568,188.60256 349.88934,188.20642 C 349.41296,187.8103 348.57808,187.61224 347.38468,187.61223 L 343.9248,187.61223 L 343.9248,192.07999 z" id="text11459"/>
    <g id="g11536" transform="matrix(0.7237289,0,0,0.6368975,150.86244,-16.323216)">
      <path id="path11521" d="M 735.89683,306.90358 L 735.89683,311.80983 C 744.40765,317.63646 749.75661,326.02879 749.74058,335.37233 C 749.72462,344.68694 744.38384,353.06348 735.89683,358.87233 L 735.89683,364.24733 C 746.44021,357.81408 753.31622,347.39471 753.33433,335.62233 C 753.35252,323.81277 746.47697,313.35478 735.89683,306.90358 z" style="fill:#333333;fill-opacity:1;fill-rule:evenodd;stroke:none;stroke-width:3;stroke-linecap:round;stroke-miterlimit:15.10000038;stroke-dasharray:none;stroke-opacity:1"/>
      <rect y="306.85315" x="700.20184" height="57.663681" width="37.069508" id="rect11477" style="fill:#333333;fill-opacity:1;fill-rule:evenodd;stroke:none;stroke-width:3;stroke-linecap:round;stroke-miterlimit:15.10000038;stroke-dasharray:none;stroke-opacity:1"/>
      <rect y="330.26846" x="702.34589" height="9.0275822" width="14.331286" id="rect11479" style="fill:#666666;fill-opacity:1;fill-rule:evenodd;stroke:none;stroke-width:3;stroke-linecap:round;stroke-miterlimit:15.10000038;stroke-dasharray:none;stroke-opacity:1"/>
    </g>
  </g>
  <metadata>
    <rdf:RDF>
      <cc:Work>
        <dc:format>image/svg+xml</dc:format>
        <dc:type rdf:resource="http://purl.org/dc/dcmitype/StillImage"/>
        <cc:license rdf:resource="http://creativecommons.org/licenses/publicdomain/"/>
        <dc:publisher>
          <cc:Agent rdf:about="http://openclipart.org/">
            <dc:title>Open Clip Art Library</dc:title>
          </cc:Agent>
        </dc:publisher>
        <dc:title>floppy diskette</dc:title>
        <dc:date>2006-12-27T02:59:13</dc:date>
        <dc:description/>
        <dc:source>http://openclipart.org/detail/2297/floppy-diskette-by-machovka</dc:source>
        <dc:creator>
          <cc:Agent>
            <dc:title>Machovka</dc:title>
          </cc:Agent>
        </dc:creator>
        <dc:subject>
          <rdf:Bag>
            <rdf:li>clip art</rdf:li>
            <rdf:li>clipart</rdf:li>
            <rdf:li>colour</rdf:li>
            <rdf:li>computer</rdf:li>
            <rdf:li>data</rdf:li>
            <rdf:li>disc</rdf:li>
            <rdf:li>disk</rdf:li>
            <rdf:li>floppy</rdf:li>
            <rdf:li>image</rdf:li>
            <rdf:li>media</rdf:li>
            <rdf:li>no contour</rdf:li>
            <rdf:li>office</rdf:li>
            <rdf:li>png</rdf:li>
            <rdf:li>public domain</rdf:li>
            <rdf:li>school</rdf:li>
            <rdf:li>storage</rdf:li>
            <rdf:li>svg</rdf:li>
            <rdf:li>technology</rdf:li>
          </rdf:Bag>
        </dc:subject>
      </cc:Work>
      <cc:License rdf:about="http://creativecommons.org/licenses/publicdomain/">
        <cc:permits rdf:resource="http://creativecommons.org/ns#Reproduction"/>
        <cc:permits rdf:resource="http://creativecommons.org/ns#Distribution"/>
        <cc:permits rdf:resource="http://creativecommons.org/ns#DerivativeWorks"/>
      </cc:License>
    </rdf:RDF>
  </metadata>
</svg>
