<?xml version="1.0" encoding="UTF-8" standalone="no"?>
<svg
   xmlns:svg="http://www.w3.org/2000/svg"
   xmlns="http://www.w3.org/2000/svg"
   xmlns:xlink="http://www.w3.org/1999/xlink"
   version="1.1"
   width="283.104"
   height="72.449997"
   viewBox="0 0 283.104 72.45"
   id="DRBDlogo"
   style="overflow:visible">
  <path
     d="M 266.064,9.687 C 260.492,3.276 251.244,0.026 238.577,0.026 l -31.656,0 -0.543,3.867 c 0.099,0.108 0.208,0.21 0.304,0.32 l 0,0.001 0.001,0 c 1.8,2.072 3.049,4.504 3.713,7.231 0.628,2.577 0.729,5.43 0.3,8.48 -0.684,4.865 -3.067,9.602 -6.734,13.558 4.026,4.26 5.858,10.441 4.898,17.273 -1.214,8.645 -5.195,15.238 -11.823,19.607 l -0.226,1.607 31.501,0 c 25.211,0 39.753,-12.516 43.222,-37.199 1.509,-10.734 -0.332,-19.173 -5.47,-25.084 z m -20.343,25.91 c -1.657,11.793 -7.203,17.286 -17.453,17.286 l -3.077,0 4.746,-33.77 3.019,0 c 5.889,0 9.341,0.951 11.194,3.083 2.028,2.335 2.527,6.593 1.571,13.401 z M 204.405,50.13 c 0.143,-1.016 0.211,-2.006 0.21,-2.967 -0.008,-4.272 -1.413,-7.959 -3.946,-10.618 -0.043,-0.045 -0.087,-0.091 -0.131,-0.136 -1.038,-1.059 -2.258,-1.948 -3.644,-2.64 5.15,-3.765 8.579,-9.009 9.347,-14.471 0.148,-1.052 0.22,-2.064 0.218,-3.035 -0.01,-3.631 -1.072,-6.681 -3.172,-9.098 C 199.245,2.516 191.38,0.256 179.242,0.256 l -34.345,0 -2.439,17.356 c 2.57,2.273 4.202,5.585 4.202,9.278 0,4.931 -2.9,9.186 -7.077,11.182 l -0.946,6.73 c 4.681,1.775 8.023,6.292 8.023,11.587 0,6.496 -5.023,11.831 -11.388,12.349 l -0.486,3.461 35.439,0 c 20.913,0.002 32.094,-7.217 34.18,-22.069 z m -24.791,-2.274 c -0.534,3.618 -3.248,5.028 -9.677,5.028 l -8.254,0 1.368,-9.735 5.939,0 c 4.48,0 8.621,0.13 10.055,1.698 0.432,0.472 0.646,1.128 0.649,1.991 0.001,0.311 -0.026,0.651 -0.08,1.018 z m 1.21,-24.992 c -0.642,4.279 -5.557,4.741 -7.64,4.741 l -7.948,0 1.193,-8.491 6.941,0 c 2.64,0 5.925,0 7.013,1.17 0.34,0.367 0.513,0.918 0.516,1.646 0,0.284 -0.024,0.596 -0.075,0.934 z"
     id="path5" />
  <path
     d="m 40.984175,-63.12788 a 9,9 0 1 1 -18,0 9,9 0 1 1 18,0 z"
     transform="translate(102.27583,90.01888)"
     id="path2832" />
  <use
     transform="translate(0,29.5)"
     id="use2834"
     xlink:href="#path2832" />
  <path
     d="m 131.67,70.69 v 1.51 h -23.14 l -0.36,-0.97 c -0.76,-2.02 -1.25,-6.96 -1.25,-12.6 0,-8.35 -1.04,-10.47 -10.6,-10.47 H 90.9 V 72.2 H 65.23 V 63.9 C 71.19,56.88 74.22,47.11 74.22,34.79 74.22,28.72 73.29,23.21 71.46,18.4 69.97,14.5 67.88,11.05 65.23,8.09 V 0.25 h 34.16 c 19.25,0 28.88,4.37 31.43,14.74 -5.17,1.49 -8.96,6.26 -8.96,11.9 0,3.56 1.52,6.77 3.94,9.04 -0.99,0.89 -2.09,1.67 -3.32,2.31 3.28,1.46 5.75,3.23 7.28,6.61 -4.61,1.8 -7.9,6.29 -7.9,11.54 0,5.95 4.21,10.92 9.8,12.12 0.01,1.31 0.01,2.18 0.01,2.18 z M 98.33,30.03 c 8.14,0 9.26,-2.4 9.26,-5.01 0,-4.94 -4.78,-5.68 -7.62,-5.68 H 90.9 v 10.69 h 7.43 z"
     id="path10"
     style="fill:#ef842c" />
  <path
     d="M 69.72,34.79 C 69.72,59.61 56.87,72.2 31.53,72.2 H 0.25 V 0.25 H 32.1 c 24.26,0 37.62,12.27 37.62,34.54 z m -39.3,18.3 c 9.29,-0.43 13.63,-5.87 13.63,-17.05 0,-14.29 -4.72,-16.7 -15.31,-16.7 h -2.82 v 33.77 h 3.3 c 0.41,0 0.81,-0.01 1.2,-0.02 z"
     id="path17"
     style="fill:#ef842c" />
  <path
     d="m 276.574,3.588 c 1.014,0 1.789,0.179 2.322,0.537 0.533,0.358 0.801,0.879 0.801,1.565 0,0.457 -0.127,0.853 -0.379,1.187 -0.252,0.334 -0.605,0.581 -1.063,0.739 l 1.564,3.097 -2.453,0 -1.251,-2.719 -0.215,0 0,2.719 -2.25,0 0,-7.125 2.924,0 z m -0.338,1.391 -0.336,0 0,1.703 0.467,0 c 0.332,0 0.586,-0.074 0.758,-0.22 0.174,-0.147 0.26,-0.362 0.26,-0.645 0,-0.288 -0.092,-0.5 -0.275,-0.635 -0.186,-0.136 -0.475,-0.203 -0.874,-0.203 z"
     id="path23" />
  <path
     d="m 264.60506,-7.4771705 a 5.9214997,5.9214997 0 1 1 -11.843,0 5.9214997,5.9214997 0 1 1 11.843,0 z"
     transform="translate(17.816937,14.77517)"
     id="path2852"
     style="fill:none;stroke:#000000;stroke-width:1.35925" />
</svg>