<?xml version="1.0" encoding="UTF-8" standalone="no"?>
<!-- Created with Inkscape (http://www.inkscape.org/) -->

<svg
   xmlns:dc="http://purl.org/dc/elements/1.1/"
   xmlns:cc="http://creativecommons.org/ns#"
   xmlns:rdf="http://www.w3.org/1999/02/22-rdf-syntax-ns#"
   xmlns:svg="http://www.w3.org/2000/svg"
   xmlns="http://www.w3.org/2000/svg"
   xmlns:xlink="http://www.w3.org/1999/xlink"
   xmlns:sodipodi="http://sodipodi.sourceforge.net/DTD/sodipodi-0.dtd"
   xmlns:inkscape="http://www.inkscape.org/namespaces/inkscape"
   width="1052.3622"
   height="744.09448"
   id="svg3306"
   version="1.1"
   inkscape:version="0.48.4 r9939"
   sodipodi:docname="Novo documento 2">
  <defs
     id="defs3308">
    <clipPath
       id="SVGID_4_">
      <use
         height="1052.3622"
         width="744.09448"
         y="0"
         x="0"
         style="overflow:visible"
         xlink:href="#SVGID_3_"
         overflow="visible"
         id="use260" />
    </clipPath>
    <clipPath
       id="clipPath3267">
      <use
         height="1052.3622"
         width="744.09448"
         y="0"
         x="0"
         style="overflow:visible"
         xlink:href="#SVGID_3_"
         overflow="visible"
         id="use3269" />
    </clipPath>
    <clipPath
       id="SVGID_2_">
      <use
         height="1052.3622"
         width="744.09448"
         y="0"
         x="0"
         style="overflow:visible"
         xlink:href="#SVGID_1_"
         overflow="visible"
         id="use242" />
    </clipPath>
    <clipPath
       id="clipPath3273">
      <use
         height="1052.3622"
         width="744.09448"
         y="0"
         x="0"
         style="overflow:visible"
         xlink:href="#SVGID_1_"
         overflow="visible"
         id="use3275" />
    </clipPath>
  </defs>
  <sodipodi:namedview
     id="base"
     pagecolor="#ffffff"
     bordercolor="#666666"
     borderopacity="1.0"
     inkscape:pageopacity="0.0"
     inkscape:pageshadow="2"
     inkscape:zoom="0.35"
     inkscape:cx="350"
     inkscape:cy="520"
     inkscape:document-units="px"
     inkscape:current-layer="layer1"
     showgrid="false"
     inkscape:window-width="1600"
     inkscape:window-height="838"
     inkscape:window-x="-8"
     inkscape:window-y="-8"
     inkscape:window-maximized="1" />
  <metadata
     id="metadata3311">
    <rdf:RDF>
      <cc:Work
         rdf:about="">
        <dc:format>image/svg+xml</dc:format>
        <dc:type
           rdf:resource="http://purl.org/dc/dcmitype/StillImage" />
        <dc:title></dc:title>
      </cc:Work>
    </rdf:RDF>
  </metadata>
  <g
     inkscape:label="Camada 1"
     inkscape:groupmode="layer"
     id="layer1"
     transform="translate(0,-308.2677)">
    <g
       transform="matrix(1.5387059,0,0,1.5387059,44.282191,308.73607)"
       id="g236">
      <defs
         id="defs238">
        <rect
           y="0"
           x="0"
           id="SVGID_1_"
           width="611.43103"
           height="480.22299" />
      </defs>
      <clipPath
         id="clipPath3280">
        <use
           height="1052.3622"
           width="744.09448"
           y="0"
           x="0"
           style="overflow:visible"
           xlink:href="#SVGID_1_"
           overflow="visible"
           id="use3282" />
      </clipPath>
      <path
         style="fill-rule:evenodd"
         inkscape:connector-curvature="0"
         clip-path="url(#SVGID_2_)"
         clip-rule="evenodd"
         d="m 458.259,307.339 c 10.539,-6.415 17.958,-17.35 17.359,-27.096 l 56.323,-63.531 c 8.971,0.784 17.737,-2.74 22.012,-2.521 8.582,0.758 8.019,-1.382 17.543,1.358 9.553,2.916 8.01,4.494 13.262,5.251 5.464,0.784 13.456,-2.926 14.619,-6.415 3.11,-9.561 1.568,-6.449 -1.35,-11.693 7.385,0 14.61,-7.613 13.236,-15.597 -1.551,-8.203 -4.476,-11.886 -11.509,-15.402 3.137,-2.547 10.53,-10.53 4.115,-19.871 -7.604,-10.714 -13.455,-3.709 -24.364,-6.626 -11.314,-2.925 -11.314,0 -14.046,-9.182 -2.521,-9.146 5.058,-5.631 2.538,-16.944 -6.625,-29.616 -31.175,-24.171 -38.189,-18.513 -2.925,2.545 -1.568,5.842 0.379,8.96 3.516,6.441 7.799,30.4 6.636,40.93 -1.384,12.284 -5.473,10.151 -11.129,23.007 -5.631,13.041 -3.111,26.311 -3.904,34.673 l -46.771,60.826 c -1.947,-8.96 -17.323,-9.366 -30.4,-9.56 l 13.64,47.946"
         id="path244" />
      <path
         style="fill-rule:evenodd"
         inkscape:connector-curvature="0"
         clip-path="url(#SVGID_2_)"
         clip-rule="evenodd"
         d="m 182.483,233.868 c -19.87,-3.11 -26.879,1.551 -28.637,7.992 -13.076,-1.762 -54.385,10.909 -61.8,16.566 -7.389,5.656 -10.503,30.02 -11.693,36.436 -1.164,6.441 -2.925,-4.283 -9.935,2.731 -6.82,7.014 1.568,6.256 -2.736,9.931 -4.084,3.709 -3.111,-2.705 -10.31,2.926 -7.42,5.472 -2.926,4.309 -8.961,10.723 -6.252,6.627 -37.625,-7.393 -42.877,-6.414 -5.089,0.783 -9.178,17.351 -0.406,20.654 8.957,3.296 30.616,7.604 38.004,8.952 -6.036,5.278 -25.906,11.888 -30.02,16.972 -4.278,5.252 -8.363,12.864 -6.037,15.597 2.137,2.925 11.314,5.251 23.007,5.251 11.697,0 19.87,-18.327 28.263,-14.019 8.362,4.08 1.947,31.562 1.758,37.599 0,6.036 -1.379,11.878 8.367,11.878 9.93,0 9.552,-1.727 13.83,-12.663 4.115,-10.908 -1.542,-34.108 7.041,-40.338 8.362,-6.037 6.036,-7.411 13.64,-4.09 7.393,3.12 0.974,6.23 9.936,10.725 23.196,11.692 32.347,-6.635 32.726,-23.008 0,-7.991 -7.389,-8.582 -10.314,-8.582 -2.731,0 -5.062,4.301 -9.746,4.301 -4.868,0 -9.552,-3.71 -16.566,-10.337 -6.82,-6.635 -10.34,-8.961 -10.34,-12.478 0,-3.304 1.952,0.97 2.357,-7.013 0.378,-7.984 -5.657,-6.037 -5.089,-14.618 0.406,-8.583 7.794,-31.186 11.125,-37.405 6.631,-3.332 38.789,-15.598 46.587,-15.219 1.947,4.873 3.3,8.583 18.893,17.165 l 9.933,-30.215"
         id="path246" />
    </g>
    <path
       style="fill:#ffffff;fill-rule:evenodd"
       inkscape:connector-curvature="0"
       clip-rule="evenodd"
       d="m 557.48986,322.80908 c -52.19445,49.47401 -132.2487,153.56285 -163.14746,212.33834 -31.15879,58.76164 -76.4783,157.72505 -95.05355,224.92034 -18.28137,67.46764 -42.89759,157.72659 -44.39629,200.92268 -1.50485,43.19766 0,74.05786 30.9003,72.55146 31.1988,-1.4925 23.99304,-17.0703 98.04788,-53.35303 74.10407,-36.60889 113.9581,-46.8182 194.6386,-27.90289 80.68513,18.89993 100.46673,89.67422 130.74231,86.67992 30.31712,-3.0113 50.11257,-62.3976 49.8156,-166.1587 0,-103.75032 -75.60278,-268.40417 -92.95784,-311.88492 -17.1258,-43.18224 -77.68926,-179.35002 -108.58955,-238.1132"
       id="path248" />
    <path
       style="fill:none;stroke:#000000;stroke-width:1.90645659;stroke-miterlimit:2.61299992"
       inkscape:connector-curvature="0"
       stroke-miterlimit="2.613"
       d="m 557.48986,322.80908 c -52.19445,49.47401 -132.2487,153.56285 -163.14746,212.33834 -31.15879,58.76164 -76.4783,157.72505 -95.05355,224.92034 -18.28137,67.46764 -42.89759,157.72659 -44.39629,200.92268 -1.50485,43.19766 0,74.05786 30.9003,72.55146 31.1988,-1.4925 23.99304,-17.0703 98.04788,-53.35303 74.10407,-36.60889 113.9581,-46.8182 194.6386,-27.90289 80.68513,18.89993 100.46673,89.67422 130.74231,86.67992 30.31712,-3.0113 50.11257,-62.3976 49.8156,-166.1587 0,-103.75032 -75.60278,-268.40417 -92.95784,-311.88492 -17.1258,-43.18224 -77.68926,-179.35002 -108.58955,-238.1132 z"
       id="path250" />
    <path
       style="fill-rule:evenodd"
       inkscape:connector-curvature="0"
       clip-rule="evenodd"
       d="M 557.48986,329.42705 C 453.73338,415.18375 358.05664,581.62711 313.36954,713.29264 401.25581,661.39209 660.95398,678.801 733.22084,725.57613 719.43096,664.96958 596.17138,384.285 557.48986,329.42705"
       id="path252" />
    <g
       transform="matrix(1.5387059,0,0,1.5387059,44.282191,308.73607)"
       id="g254">
      <defs
         id="defs256">
        <path
           inkscape:connector-curvature="0"
           id="SVGID_3_"
           d="m 306.841,165.059 c -48.349,-0.969 -80.697,31.378 -80.507,74.255 0,42.878 34.705,67.453 76.014,65.294 41.334,-2.142 86.16,-29.237 83.992,-69.761 -2.327,-40.552 -31.176,-68.81 -79.499,-69.788" />
      </defs>
      <clipPath
         id="clipPath3292">
        <use
           height="1052.3622"
           width="744.09448"
           y="0"
           x="0"
           style="overflow:visible"
           xlink:href="#SVGID_3_"
           overflow="visible"
           id="use3294" />
      </clipPath>
      <path
         style="fill:#a90533"
         inkscape:connector-curvature="0"
         clip-path="url(#SVGID_4_)"
         d="m 306.841,165.059 c -48.349,-0.969 -80.697,31.378 -80.507,74.255 0,42.878 34.705,67.453 76.014,65.294 41.334,-2.142 86.16,-29.237 83.992,-69.761 -2.327,-40.552 -31.176,-68.81 -79.499,-69.788"
         id="path262" />
      <path
         style="fill:#ffffff"
         inkscape:connector-curvature="0"
         clip-path="url(#SVGID_4_)"
         d="m 274.855,206.896 h 22.69 c 0,-12.54 -10.161,-22.708 -22.69,-22.708 -12.525,0 -22.693,10.168 -22.693,22.708 0,12.521 10.168,22.689 22.693,22.689 12.53,0 22.69,-10.168 22.69,-22.689"
         id="path264" />
    </g>
    <path
       style="fill:none;stroke:#000000;stroke-width:2.6850419;stroke-linejoin:round;stroke-miterlimit:2.61299992"
       inkscape:connector-curvature="0"
       stroke-miterlimit="2.613"
       d="m 516.42026,562.71334 c -74.3949,-1.49101 -124.16896,48.28151 -123.8766,114.2566 0,65.97664 53.40079,103.79034 116.96319,100.46827 63.60087,-3.29591 132.5749,-44.98715 129.23899,-107.34166 -3.58057,-62.39761 -47.9707,-105.87836 -122.32558,-107.38321 z"
       id="path266" />
    <path
       style="fill:none;stroke:#808285;stroke-width:0.76627553;stroke-linecap:round;stroke-linejoin:round;stroke-miterlimit:2.61299992"
       inkscape:connector-curvature="0"
       stroke-miterlimit="2.613"
       d="m 959.34753,536.01525 c -15.59325,1.20634 -62.69304,2.12803 -50.69575,30.33097"
       id="path268" />
    <path
       style="fill:none;stroke:#808285;stroke-width:0.59855658;stroke-linecap:round;stroke-linejoin:round;stroke-miterlimit:2.61299992"
       inkscape:connector-curvature="0"
       stroke-miterlimit="2.613"
       d="m 964.75762,572.92265 c -48.60926,-3.91908 -69.271,9.00297 -52.48372,29.07077"
       id="path270" />
    <path
       style="fill:none;stroke:#808285;stroke-width:0.68318546;stroke-linecap:round;stroke-linejoin:round;stroke-miterlimit:2.61299992"
       inkscape:connector-curvature="0"
       stroke-miterlimit="2.613"
       d="m 961.46325,619.4008 c -16.48723,-7.1996 -60.60655,-17.69358 -55.18107,11.99883"
       id="path272" />
  </g>
</svg>
