<?xml version="1.0" encoding="UTF-8" standalone="no"?>
<!-- Created with Inkscape (http://www.inkscape.org/) -->
<svg xmlns:dc="http://purl.org/dc/elements/1.1/" xmlns:cc="http://creativecommons.org/ns#" xmlns:rdf="http://www.w3.org/1999/02/22-rdf-syntax-ns#" xmlns:svg="http://www.w3.org/2000/svg" xmlns="http://www.w3.org/2000/svg" xmlns:sodipodi="http://sodipodi.sourceforge.net/DTD/sodipodi-0.dtd" xmlns:inkscape="http://www.inkscape.org/namespaces/inkscape" width="631.1936" height="596.52277" id="svg2" inkscape:label="Pozadí" sodipodi:version="0.32" inkscape:version="0.45.1+0.46pre1+devel" sodipodi:docbase="J:\INKSCAPE\kliparty\svg\14.Vypocetni technika" sodipodi:docname="Machovka_DVD_ok.svg" version="1.0" inkscape:output_extension="org.inkscape.output.svg.inkscape">
  <defs id="defs3">
    <inkscape:perspective sodipodi:type="inkscape:persp3d" inkscape:vp_x="-50 : 600 : 1" inkscape:vp_y="0 : 1000 : 0" inkscape:vp_z="700 : 600 : 1" inkscape:persp3d-origin="300 : 400 : 1" id="perspective19"/>
  </defs>
  <sodipodi:namedview id="base" pagecolor="#ffffff" bordercolor="#666666" borderopacity="1.0" inkscape:pageopacity="0.0" inkscape:pageshadow="2" inkscape:zoom="0.49032549" inkscape:cx="372.04724" inkscape:cy="526.18109" inkscape:document-units="px" inkscape:current-layer="layer1" inkscape:window-width="1024" inkscape:window-height="712" inkscape:window-x="132" inkscape:window-y="54" showgrid="false"/>
  <g inkscape:label="Vrstva 1" inkscape:groupmode="layer" id="layer1" transform="translate(-70.88117,-236.0776)">
    <g id="g5478" transform="translate(6.118385,69.34169)">
      <path d="M 695.45639,464.99725 A 315.0968,297.76138 0 1 1 65.262787,464.99725 A 315.0968,297.76138 0 1 1 695.45639,464.99725 z" sodipodi:ry="297.76138" sodipodi:rx="315.0968" sodipodi:cy="464.99725" sodipodi:cx="380.35959" id="path4587" style="opacity:1;fill:#c3bdb1;fill-opacity:1;fill-rule:nonzero;stroke:#000000;stroke-width:1;stroke-miterlimit:4;stroke-dasharray:none;stroke-opacity:1" sodipodi:type="arc"/>
      <path transform="matrix(0.308543,0,0,0.305958,258.2921,320.4576)" sodipodi:type="arc" style="opacity:1;fill:#cccccc;fill-opacity:1;fill-rule:nonzero;stroke:#000000;stroke-width:1;stroke-miterlimit:4;stroke-dasharray:none;stroke-opacity:1" id="path4589" sodipodi:cx="380.35959" sodipodi:cy="464.99725" sodipodi:rx="315.0968" sodipodi:ry="297.76138" d="M 695.45639,464.99725 A 315.0968,297.76138 0 1 1 65.262787,464.99725 A 315.0968,297.76138 0 1 1 695.45639,464.99725 z"/>
      <path d="M 695.45639,464.99725 A 315.0968,297.76138 0 1 1 65.262787,464.99725 A 315.0968,297.76138 0 1 1 695.45639,464.99725 z" sodipodi:ry="297.76138" sodipodi:rx="315.0968" sodipodi:cy="464.99725" sodipodi:cx="380.35959" id="path4591" style="opacity:1;fill:#ffffff;fill-opacity:1;fill-rule:nonzero;stroke:#000000;stroke-width:1;stroke-miterlimit:4;stroke-dasharray:none;stroke-opacity:1" sodipodi:type="arc" transform="matrix(0.134046,0,0,0.152124,327.4007,394.3513)"/>
    </g>
    <path style="font-size:69px;font-style:normal;font-weight:normal;fill:#000000;fill-opacity:1;stroke:none;stroke-width:1px;stroke-linecap:butt;stroke-linejoin:miter;stroke-opacity:1;font-family:Trebuchet MS" d="M 537.09485,611.83844 L 527.15588,611.83844 L 527.15588,562.48053 C 533.48986,562.25597 537.54405,562.14367 539.31848,562.14362 C 546.21397,562.14367 551.67197,564.23815 555.6925,568.42706 C 559.71298,572.61607 561.72323,578.19199 561.72327,585.15485 C 561.72323,602.94392 553.51376,611.83844 537.09485,611.83844 L 537.09485,611.83844 z M 533.89417,568.54498 L 533.89417,605.43707 C 535.39903,605.66169 537.26329,605.77399 539.48694,605.77399 C 544.20371,605.77399 547.90976,604.0052 550.6051,600.46759 C 553.30038,596.93001 554.64804,592.01668 554.64807,585.7276 C 554.64804,574.04795 549.40342,568.20811 538.91418,568.20807 C 538.28526,568.20811 536.61192,568.32042 533.89417,568.54498 L 533.89417,568.54498 z M 586.65491,612.51227 L 583.25208,612.51227 L 564.85657,562.48053 L 572.33606,562.48053 L 585.03772,598.83356 L 597.2677,562.48053 L 604.51135,562.48053 L 586.65491,612.51227 z M 619.97571,611.83844 L 610.03674,611.83844 L 610.03674,562.48053 C 616.37072,562.25597 620.42491,562.14367 622.19934,562.14362 C 629.09482,562.14367 634.55283,564.23815 638.57336,568.42706 C 642.59383,572.61607 644.60409,578.19199 644.60413,585.15485 C 644.60409,602.94392 636.39462,611.83844 619.97571,611.83844 L 619.97571,611.83844 z M 616.77502,568.54498 L 616.77502,605.43707 C 618.27989,605.66169 620.14415,605.77399 622.3678,605.77399 C 627.08457,605.77399 630.79062,604.0052 633.48596,600.46759 C 636.18124,596.93001 637.5289,592.01668 637.52893,585.7276 C 637.5289,574.04795 632.28427,568.20811 621.79504,568.20807 C 621.16612,568.20811 619.49278,568.32042 616.77502,568.54498 L 616.77502,568.54498 z" id="text5483"/>
    <path transform="scale(0.9087213,1.1004474)" style="font-size:47.44831085px;font-style:normal;font-weight:normal;fill:#000000;fill-opacity:1;stroke:none;stroke-width:1px;stroke-linecap:butt;stroke-linejoin:miter;stroke-opacity:1;font-family:Bitstream Vera Sans" d="M 144.54716,384.3954 L 144.54716,411.29359 L 150.20018,411.29359 C 154.97279,411.29359 158.46731,410.21241 160.68375,408.05005 C 162.90014,405.8877 164.00835,402.47427 164.00838,397.80974 C 164.00835,393.17614 162.90014,389.78201 160.68375,387.62735 C 158.46731,385.47275 154.97279,384.39543 150.20018,384.3954 L 144.54716,384.3954 z M 139.8672,380.54949 L 149.48197,380.54949 C 156.18525,380.54953 161.10461,381.94347 164.24006,384.73134 C 167.37545,387.51926 168.94315,391.87873 168.94319,397.80974 C 168.94315,403.77168 167.36772,408.15045 164.21689,410.94607 C 161.066,413.74169 156.15436,415.1395 149.48197,415.1395 L 139.8672,415.1395 L 139.8672,380.54949 z M 185.29988,415.1395 L 172.09405,380.54949 L 176.98253,380.54949 L 187.94105,409.67182 L 198.92274,380.54949 L 203.78804,380.54949 L 190.60538,415.1395 L 185.29988,415.1395 z M 213.49548,384.3954 L 213.49548,411.29359 L 219.1485,411.29359 C 223.92112,411.29359 227.41564,410.21241 229.63208,408.05005 C 231.84847,405.8877 232.95667,402.47427 232.9567,397.80974 C 232.95667,393.17614 231.84847,389.78201 229.63208,387.62735 C 227.41564,385.47275 223.92112,384.39543 219.1485,384.3954 L 213.49548,384.3954 z M 208.81552,380.54949 L 218.43029,380.54949 C 225.13358,380.54953 230.05294,381.94347 233.18838,384.73134 C 236.32377,387.51926 237.89148,391.87873 237.89151,397.80974 C 237.89148,403.77168 236.31605,408.15045 233.16522,410.94607 C 230.01433,413.74169 225.10269,415.1395 218.43029,415.1395 L 208.81552,415.1395 L 208.81552,380.54949 z M 242.9885,400.24239 L 255.47612,400.24239 L 255.47612,404.04197 L 242.9885,404.04197 L 242.9885,400.24239 z M 278.87592,398.92181 C 279.87985,399.26163 280.85677,399.98756 281.80669,401.09961 C 282.75656,402.2117 283.71031,403.74079 284.66795,405.6869 L 289.41742,415.1395 L 284.38994,415.1395 L 279.96482,406.26611 C 278.82184,403.9493 277.71364,402.41249 276.6402,401.65565 C 275.56673,400.89884 274.10327,400.52043 272.24984,400.52041 L 267.15285,400.52041 L 267.15285,415.1395 L 262.47289,415.1395 L 262.47289,380.54949 L 273.03756,380.54949 C 276.99156,380.54953 279.94163,381.37586 281.88778,383.02848 C 283.83387,384.68117 284.80693,387.1756 284.80696,390.51178 C 284.80693,392.68961 284.3011,394.49672 283.28945,395.93312 C 282.27775,397.36957 280.80658,398.36579 278.87592,398.92181 L 278.87592,398.92181 z M 267.15285,384.3954 L 267.15285,396.6745 L 273.03756,396.6745 C 275.29257,396.67452 276.99542,396.15324 278.14613,395.11066 C 279.29679,394.06811 279.87213,392.53516 279.87215,390.51178 C 279.87213,388.48846 279.29679,386.96323 278.14613,385.93608 C 276.99542,384.90899 275.29257,384.39543 273.03756,384.3954 L 267.15285,384.3954 z" id="text5487"/>
    <path style="fill:none;fill-rule:evenodd;stroke:#000000;stroke-width:1px;stroke-linecap:butt;stroke-linejoin:miter;stroke-opacity:1" d="M 230.36759,780.28264 L 542.22542,781.36423" id="path5495"/>
    <path style="fill:none;fill-rule:evenodd;stroke:#000000;stroke-width:1px;stroke-linecap:butt;stroke-linejoin:miter;stroke-opacity:1" d="M 158.26174,721.02684 L 608.20228,720.30578" id="path5497"/>
    <path style="fill:none;fill-rule:evenodd;stroke:#000000;stroke-width:1px;stroke-linecap:butt;stroke-linejoin:miter;stroke-opacity:1" d="M 114.99823,663.43698 L 660.11851,659.83169" id="path5499"/>
  </g>
  <metadata>
    <rdf:RDF>
      <cc:Work>
        <dc:format>image/svg+xml</dc:format>
        <dc:type rdf:resource="http://purl.org/dc/dcmitype/StillImage"/>
        <cc:license rdf:resource="http://creativecommons.org/licenses/publicdomain/"/>
        <dc:publisher>
          <cc:Agent rdf:about="http://openclipart.org/">
            <dc:title>Open Clip Art Library</dc:title>
          </cc:Agent>
        </dc:publisher>
        <dc:title>DVD</dc:title>
        <dc:date>2006-12-27T03:02:23</dc:date>
        <dc:description/>
        <dc:source>http://openclipart.org/detail/2299/dvd-by-machovka</dc:source>
        <dc:creator>
          <cc:Agent>
            <dc:title>Machovka</dc:title>
          </cc:Agent>
        </dc:creator>
        <dc:subject>
          <rdf:Bag>
            <rdf:li>clip art</rdf:li>
            <rdf:li>clipart</rdf:li>
            <rdf:li>colour</rdf:li>
            <rdf:li>colour</rdf:li>
            <rdf:li>compact disc</rdf:li>
            <rdf:li>compact disc</rdf:li>
            <rdf:li>computer</rdf:li>
            <rdf:li>computer</rdf:li>
            <rdf:li>data</rdf:li>
            <rdf:li>data</rdf:li>
            <rdf:li>dvd</rdf:li>
            <rdf:li>dvd</rdf:li>
            <rdf:li>grey</rdf:li>
            <rdf:li>grey</rdf:li>
            <rdf:li>image</rdf:li>
            <rdf:li>media</rdf:li>
            <rdf:li>office</rdf:li>
            <rdf:li>office</rdf:li>
            <rdf:li>png</rdf:li>
            <rdf:li>public domain</rdf:li>
            <rdf:li>school</rdf:li>
            <rdf:li>school</rdf:li>
            <rdf:li>storage</rdf:li>
            <rdf:li>storage</rdf:li>
            <rdf:li>svg</rdf:li>
            <rdf:li>technology</rdf:li>
            <rdf:li>technology</rdf:li>
          </rdf:Bag>
        </dc:subject>
      </cc:Work>
      <cc:License rdf:about="http://creativecommons.org/licenses/publicdomain/">
        <cc:permits rdf:resource="http://creativecommons.org/ns#Reproduction"/>
        <cc:permits rdf:resource="http://creativecommons.org/ns#Distribution"/>
        <cc:permits rdf:resource="http://creativecommons.org/ns#DerivativeWorks"/>
      </cc:License>
    </rdf:RDF>
  </metadata>
</svg>
