<?xml version="1.0" encoding="UTF-8" standalone="no"?>
<!-- Created with Inkscape (http://www.inkscape.org/) -->

<svg
   xmlns:dc="http://purl.org/dc/elements/1.1/"
   xmlns:cc="http://creativecommons.org/ns#"
   xmlns:rdf="http://www.w3.org/1999/02/22-rdf-syntax-ns#"
   xmlns:svg="http://www.w3.org/2000/svg"
   xmlns="http://www.w3.org/2000/svg"
   xmlns:sodipodi="http://sodipodi.sourceforge.net/DTD/sodipodi-0.dtd"
   xmlns:inkscape="http://www.inkscape.org/namespaces/inkscape"
   width="101.70121"
   height="146.58519"
   id="svg4342"
   version="1.1"
   inkscape:version="0.48.4 r9939"
   sodipodi:docname="ebook-icon.svg"
   inkscape:export-filename="/home/chaunce/Documents/runeman.org/clipart/ebook-icon.png"
   inkscape:export-xdpi="56.636494"
   inkscape:export-ydpi="56.636494">
  <title
     id="title4491">Ebook Icon</title>
  <defs
     id="defs4344" />
  <sodipodi:namedview
     id="base"
     pagecolor="#ffffff"
     bordercolor="#666666"
     borderopacity="1.0"
     inkscape:pageopacity="0.0"
     inkscape:pageshadow="2"
     inkscape:zoom="1"
     inkscape:cx="5.02684"
     inkscape:cy="90.04461"
     inkscape:document-units="px"
     inkscape:current-layer="layer1"
     showgrid="false"
     inkscape:window-width="1366"
     inkscape:window-height="712"
     inkscape:window-x="-3"
     inkscape:window-y="33"
     inkscape:window-maximized="1"
     fit-margin-top="0"
     fit-margin-left="0"
     fit-margin-right="0"
     fit-margin-bottom="0" />
  <metadata
     id="metadata4347">
    <rdf:RDF>
      <cc:Work
         rdf:about="">
        <dc:format>image/svg+xml</dc:format>
        <dc:type
           rdf:resource="http://purl.org/dc/dcmitype/StillImage" />
        <dc:title>Ebook Icon</dc:title>
        <cc:license
           rdf:resource="http://creativecommons.org/licenses/publicdomain/" />
        <dc:date>2013-07-02</dc:date>
        <dc:creator>
          <cc:Agent>
            <dc:title>Algot Runeman</dc:title>
          </cc:Agent>
        </dc:creator>
        <dc:rights>
          <cc:Agent>
            <dc:title>Algot Runeman</dc:title>
          </cc:Agent>
        </dc:rights>
        <dc:publisher>
          <cc:Agent>
            <dc:title>runeman.org</dc:title>
          </cc:Agent>
        </dc:publisher>
        <dc:identifier>ebook-icon.svg</dc:identifier>
        <dc:source>ebook-icon.svg</dc:source>
      </cc:Work>
      <cc:License
         rdf:about="http://creativecommons.org/licenses/publicdomain/">
        <cc:permits
           rdf:resource="http://creativecommons.org/ns#Reproduction" />
        <cc:permits
           rdf:resource="http://creativecommons.org/ns#Distribution" />
        <cc:permits
           rdf:resource="http://creativecommons.org/ns#DerivativeWorks" />
      </cc:License>
    </rdf:RDF>
  </metadata>
  <g
     inkscape:label="Layer 1"
     inkscape:groupmode="layer"
     id="layer1"
     transform="translate(-192.47316,-476.82161)">
    <g
       id="g3140"
       transform="matrix(2.2508551,-0.00665647,0.00665647,2.2508551,-1217.2326,-503.16745)">
      <rect
         rx="1.5"
         ry="1.5"
         y="437.36218"
         x="625"
         height="65"
         width="45"
         id="rect3136"
         style="color:#000000;fill:#000000;fill-opacity:1;fill-rule:nonzero;stroke:none;stroke-width:3;marker:none;visibility:visible;display:inline;overflow:visible;enable-background:accumulate" />
      <rect
         ry="0.5"
         rx="0.5"
         style="color:#000000;fill:#ffffff;fill-opacity:1;fill-rule:nonzero;stroke:none;stroke-width:3;marker:none;visibility:visible;display:inline;overflow:visible;enable-background:accumulate"
         id="rect3138"
         width="35"
         height="50"
         x="630"
         y="442.36218" />
    </g>
    <path
       style="fill:none;stroke:#cccccc;stroke-width:1px;stroke-linecap:butt;stroke-linejoin:miter;stroke-opacity:1"
       d="m 213.91953,501.80735 59.64767,-0.1764"
       id="path3144"
       inkscape:connector-curvature="0" />
    <path
       inkscape:connector-curvature="0"
       id="path3146"
       d="m 213.93285,506.30905 59.64765,-0.17639"
       style="fill:none;stroke:#cccccc;stroke-width:1px;stroke-linecap:butt;stroke-linejoin:miter;stroke-opacity:1" />
    <path
       style="fill:none;stroke:#cccccc;stroke-width:1px;stroke-linecap:butt;stroke-linejoin:miter;stroke-opacity:1"
       d="m 213.94616,510.81076 59.64766,-0.17639"
       id="path3148"
       inkscape:connector-curvature="0" />
    <path
       inkscape:connector-curvature="0"
       id="path3150"
       d="m 213.95947,515.31247 59.64766,-0.1764"
       style="fill:none;stroke:#cccccc;stroke-width:1px;stroke-linecap:butt;stroke-linejoin:miter;stroke-opacity:1" />
    <path
       style="fill:none;stroke:#cccccc;stroke-width:1px;stroke-linecap:butt;stroke-linejoin:miter;stroke-opacity:1"
       d="m 213.97278,519.81419 59.64767,-0.1764"
       id="path3152"
       inkscape:connector-curvature="0" />
    <path
       inkscape:connector-curvature="0"
       id="path3154"
       d="m 213.9861,524.31589 59.64766,-0.17639"
       style="fill:none;stroke:#cccccc;stroke-width:1px;stroke-linecap:butt;stroke-linejoin:miter;stroke-opacity:1" />
    <path
       style="fill:none;stroke:#cccccc;stroke-width:1px;stroke-linecap:butt;stroke-linejoin:miter;stroke-opacity:1"
       d="m 213.99941,528.8176 59.64766,-0.17639"
       id="path3156"
       inkscape:connector-curvature="0" />
    <path
       inkscape:connector-curvature="0"
       id="path3158"
       d="m 214.01272,533.31931 59.64767,-0.1764"
       style="fill:none;stroke:#cccccc;stroke-width:1px;stroke-linecap:butt;stroke-linejoin:miter;stroke-opacity:1" />
    <path
       style="fill:none;stroke:#cccccc;stroke-width:1px;stroke-linecap:butt;stroke-linejoin:miter;stroke-opacity:1"
       d="m 214.02604,537.82103 59.64766,-0.1764"
       id="path3160"
       inkscape:connector-curvature="0" />
    <path
       inkscape:connector-curvature="0"
       id="path3162"
       d="m 214.03935,542.32273 59.64766,-0.17639"
       style="fill:none;stroke:#cccccc;stroke-width:1px;stroke-linecap:butt;stroke-linejoin:miter;stroke-opacity:1" />
    <path
       style="fill:none;stroke:#cccccc;stroke-width:1px;stroke-linecap:butt;stroke-linejoin:miter;stroke-opacity:1"
       d="m 214.05267,546.82444 59.64765,-0.17639"
       id="path3164"
       inkscape:connector-curvature="0" />
    <path
       inkscape:connector-curvature="0"
       id="path3166"
       d="m 214.06597,551.32615 59.64767,-0.1764"
       style="fill:none;stroke:#cccccc;stroke-width:1px;stroke-linecap:butt;stroke-linejoin:miter;stroke-opacity:1" />
    <path
       style="fill:none;stroke:#cccccc;stroke-width:1px;stroke-linecap:butt;stroke-linejoin:miter;stroke-opacity:1"
       d="m 214.06597,551.32615 59.64767,-0.1764"
       id="path3168"
       inkscape:connector-curvature="0" />
    <path
       inkscape:connector-curvature="0"
       id="path3170"
       d="m 214.07929,555.82787 59.64766,-0.1764"
       style="fill:none;stroke:#cccccc;stroke-width:1px;stroke-linecap:butt;stroke-linejoin:miter;stroke-opacity:1" />
    <path
       style="fill:none;stroke:#cccccc;stroke-width:1px;stroke-linecap:butt;stroke-linejoin:miter;stroke-opacity:1"
       d="m 214.0926,560.32957 59.64766,-0.17639"
       id="path3172"
       inkscape:connector-curvature="0" />
    <path
       inkscape:connector-curvature="0"
       id="path3174"
       d="m 214.10592,564.83128 59.64766,-0.17639"
       style="fill:none;stroke:#cccccc;stroke-width:1px;stroke-linecap:butt;stroke-linejoin:miter;stroke-opacity:1" />
    <path
       style="fill:none;stroke:#cccccc;stroke-width:1px;stroke-linecap:butt;stroke-linejoin:miter;stroke-opacity:1"
       d="m 214.11922,569.33299 59.64767,-0.1764"
       id="path3176"
       inkscape:connector-curvature="0" />
    <path
       inkscape:connector-curvature="0"
       id="path3178"
       d="m 214.13254,573.83471 59.64766,-0.1764"
       style="fill:none;stroke:#cccccc;stroke-width:1px;stroke-linecap:butt;stroke-linejoin:miter;stroke-opacity:1" />
    <path
       style="fill:none;stroke:#cccccc;stroke-width:1px;stroke-linecap:butt;stroke-linejoin:miter;stroke-opacity:1"
       d="m 214.14586,578.33642 59.64765,-0.1764"
       id="path3180"
       inkscape:connector-curvature="0" />
    <path
       inkscape:connector-curvature="0"
       id="path3182"
       d="m 214.15917,582.83812 59.64766,-0.17639"
       style="fill:none;stroke:#cccccc;stroke-width:1px;stroke-linecap:butt;stroke-linejoin:miter;stroke-opacity:1" />
    <path
       style="fill:none;stroke:#cccccc;stroke-width:1px;stroke-linecap:butt;stroke-linejoin:miter;stroke-opacity:1"
       d="m 214.17248,587.33984 59.64767,-0.1764"
       id="path3184"
       inkscape:connector-curvature="0" />
    <path
       inkscape:connector-curvature="0"
       id="path3186"
       d="m 214.18579,591.84155 59.64766,-0.1764"
       style="fill:none;stroke:#cccccc;stroke-width:1px;stroke-linecap:butt;stroke-linejoin:miter;stroke-opacity:1" />
    <rect
       style="color:#000000;fill:#ff0000;fill-opacity:1;fill-rule:nonzero;stroke:none;stroke-width:3;marker:none;visibility:visible;display:inline;overflow:visible;enable-background:accumulate"
       id="rect3188"
       width="19.132351"
       height="22.50865"
       x="213.0098"
       y="500.82169"
       rx="1.1254325"
       ry="1.1254325"
       transform="matrix(0.99999563,-0.0029573,0.0029573,0.99999563,0,0)" />
    <g
       transform="matrix(1.0004232,-0.00295856,0.00295856,1.0004232,-433.39259,343.67659)"
       style="font-size:26.99883460999999940px;font-style:normal;font-variant:normal;font-weight:bold;font-stretch:normal;text-align:center;line-height:125%;letter-spacing:0px;word-spacing:0px;text-anchor:middle;fill:#ffff00;fill-opacity:1;stroke:#ffffff;font-family:Crackdown R2 BRK;-inkscape-font-specification:Crackdown R2 BRK Bold;stroke-opacity:1;stroke-width:0.09995726"
       id="text3209">
      <path
         d="m 652.27439,172.26943 c 0,0.53998 0.39598,0.97196 1.18795,1.29594 0.80996,0.32399 1.88991,0.48598 3.23986,0.48598 1.74592,0 2.98786,-0.24298 3.72584,-0.72897 0.46797,-0.30598 0.70196,-0.65696 0.70197,-1.05295 -10e-6,-0.25199 0.20698,-0.45898 0.62098,-0.62097 0.43196,-0.17999 0.96294,-0.26999 1.59293,-0.26999 0.62995,0 1.15193,0.09 1.56593,0.26999 0.43196,0.16199 0.64795,0.36898 0.64797,0.62097 -2e-5,0.84597 -0.66599,1.61093 -1.99791,2.2949 -1.63795,0.82797 -3.92385,1.24195 -6.85771,1.24195 -2.98787,0 -5.27377,-0.40498 -6.8577,-1.21495 -1.33194,-0.68397 -1.99792,-1.45793 -1.99791,-2.3219 l 0,-5.31877 c -10e-6,-0.86395 0.65697,-1.62892 1.97091,-2.2949 1.63793,-0.82795 3.93282,-1.24194 6.8847,-1.24195 2.93386,10e-6 5.21976,0.414 6.85771,1.24195 1.33192,0.68398 1.99789,1.44895 1.99791,2.2949 -2e-5,0.86397 -0.66599,1.63794 -1.99791,2.3219 -1.60195,0.82797 -3.88785,1.24195 -6.85771,1.24195 l -4.42781,0 0,1.75492 m 0,-3.53685 4.42781,0 c 1.36793,10e-6 2.44789,-0.15298 3.23986,-0.45898 0.79196,-0.30598 1.18794,-0.73796 1.18795,-1.29594 -10e-6,-0.55797 -0.40499,-0.98995 -1.21495,-1.29595 -0.79197,-0.32397 -1.86293,-0.48596 -3.21286,-0.48597 -1.36795,1e-5 -2.4479,0.153 -3.23986,0.45898 -0.79197,0.30599 -1.18795,0.73797 -1.18795,1.29594 l 0,1.78192"
         id="path3728"
         inkscape:connector-curvature="0"
         style="fill:#ffff00;stroke:#ffffff;stroke-opacity:1;stroke-width:0.09995726" />
    </g>
  </g>
</svg>
