<?xml version="1.0" encoding="UTF-8" standalone="no"?>
<!-- Created with Inkscape (http://www.inkscape.org/) -->

<svg
   xmlns:dc="http://purl.org/dc/elements/1.1/"
   xmlns:cc="http://creativecommons.org/ns#"
   xmlns:rdf="http://www.w3.org/1999/02/22-rdf-syntax-ns#"
   xmlns:svg="http://www.w3.org/2000/svg"
   xmlns="http://www.w3.org/2000/svg"
   xmlns:xlink="http://www.w3.org/1999/xlink"
   xmlns:sodipodi="http://sodipodi.sourceforge.net/DTD/sodipodi-0.dtd"
   xmlns:inkscape="http://www.inkscape.org/namespaces/inkscape"
   width="161.46875"
   height="100.6875"
   id="svg6076"
   version="1.1"
   inkscape:version="0.48.4 r9939"
   sodipodi:docname="firewall_simbolo_alerta.svg">
  <defs
     id="defs6078">
    <linearGradient
       id="SVGID_1_"
       gradientUnits="userSpaceOnUse"
       x1="306"
       y1="-333"
       x2="306"
       y2="-373"
       gradientTransform="matrix(1,0,0,-1,-285,-332)">
      <stop
         offset="0"
         style="stop-color:#5DF24F"
         id="stop7" />
      <stop
         offset="1"
         style="stop-color:#2A9C06"
         id="stop9" />
    </linearGradient>
    <linearGradient
       inkscape:collect="always"
       xlink:href="#linearGradient2555"
       id="linearGradient2026"
       gradientUnits="userSpaceOnUse"
       gradientTransform="matrix(-0.657176,0,0,0.657176,-16.96567,114.6286)"
       x1="-344.15295"
       y1="274.711"
       x2="-395.84943"
       y2="425.39993" />
    <linearGradient
       inkscape:collect="always"
       id="linearGradient2555">
      <stop
         style="stop-color:#ffffff;stop-opacity:1;"
         offset="0"
         id="stop2557" />
      <stop
         style="stop-color:#ffffff;stop-opacity:0;"
         offset="1"
         id="stop2559" />
    </linearGradient>
    <linearGradient
       y2="425.39993"
       x2="-395.84943"
       y1="274.711"
       x1="-344.15295"
       gradientTransform="matrix(-0.657176,0,0,0.657176,-16.96567,114.6286)"
       gradientUnits="userSpaceOnUse"
       id="linearGradient4201"
       xlink:href="#linearGradient2555"
       inkscape:collect="always" />
  </defs>
  <sodipodi:namedview
     id="base"
     pagecolor="#ffffff"
     bordercolor="#666666"
     borderopacity="1.0"
     inkscape:pageopacity="0.0"
     inkscape:pageshadow="2"
     inkscape:zoom="1.4"
     inkscape:cx="38.238119"
     inkscape:cy="39.898358"
     inkscape:document-units="px"
     inkscape:current-layer="layer1"
     showgrid="false"
     fit-margin-top="0"
     fit-margin-left="0"
     fit-margin-right="0"
     fit-margin-bottom="0"
     inkscape:window-width="1600"
     inkscape:window-height="838"
     inkscape:window-x="-8"
     inkscape:window-y="-8"
     inkscape:window-maximized="1" />
  <g
     inkscape:label="Calque 1"
     inkscape:groupmode="layer"
     id="layer1"
     transform="translate(-630.34375,-504.875)">
    <path
       inkscape:connector-curvature="0"
       id="path1244"
       d="m 686.09925,506.23981 48.49122,0 c 1.38175,0 2.5,1.12305 2.5,2.5 l 0,19.3164 c 0,1.38183 -1.11825,2.5 -2.5,2.5 l -48.49122,0 c -1.38175,0 -2.5,-1.11817 -2.5,-2.5 l 0,-19.3164 c 0,-1.37695 1.11825,-2.5 2.5,-2.5"
       style="fill:#d94723;fill-opacity:1;fill-rule:evenodd;stroke:#e1e1e1;stroke-width:2.5;stroke-linecap:butt;stroke-linejoin:round;stroke-miterlimit:10;stroke-opacity:1" />
    <path
       inkscape:connector-curvature="0"
       id="path1246"
       d="m 739.5514,506.27886 48.49122,0 c 1.38175,0 2.5,1.11818 2.5,2.5 l 0,19.31643 c 0,1.37695 -1.11825,2.5 -2.5,2.5 l -48.49122,0 c -1.38175,0 -2.5,-1.12305 -2.5,-2.5 l 0,-19.31643 c 0,-1.38182 1.11825,-2.5 2.5,-2.5"
       style="fill:#d94723;fill-opacity:1;fill-rule:evenodd;stroke:#e1e1e1;stroke-width:2.5;stroke-linecap:butt;stroke-linejoin:round;stroke-miterlimit:10;stroke-opacity:1" />
    <path
       inkscape:connector-curvature="0"
       id="path1248"
       d="m 659.9811,530.52691 48.4912,0 c 1.38175,0 2.5,1.12305 2.5,2.5 l 0,19.3164 c 0,1.38185 -1.11825,2.5 -2.5,2.5 l -48.4912,0 c -1.38175,0 -2.5,-1.11815 -2.5,-2.5 l 0,-19.3164 c 0,-1.37695 1.11825,-2.5 2.5,-2.5"
       style="fill:#d94723;fill-opacity:1;fill-rule:evenodd;stroke:#e1e1e1;stroke-width:2.5;stroke-linecap:butt;stroke-linejoin:round;stroke-miterlimit:10;stroke-opacity:1" />
    <path
       inkscape:connector-curvature="0"
       id="path1250"
       d="m 713.43325,530.56599 48.4912,0 c 1.38175,0 2.5,1.11815 2.5,2.5 l 0,19.3164 c 0,1.37695 -1.11825,2.5 -2.5,2.5 l -48.4912,0 c -1.38175,0 -2.5,-1.12305 -2.5,-2.5 l 0,-19.3164 c 0,-1.38185 1.11825,-2.5 2.5,-2.5"
       style="fill:#d94723;fill-opacity:1;fill-rule:evenodd;stroke:#e1e1e1;stroke-width:2.5;stroke-linecap:butt;stroke-linejoin:round;stroke-miterlimit:10;stroke-opacity:1" />
    <path
       inkscape:connector-curvature="0"
       id="path1252"
       d="m 686.04555,554.83844 48.4912,0 c 1.38175,0 2.5,1.11817 2.5,2.5 l 0,19.31152 c 0,1.38183 -1.11825,2.5 -2.5,2.5 l -48.4912,0 c -1.38175,0 -2.5,-1.11817 -2.5,-2.5 l 0,-19.31152 c 0,-1.38183 1.11825,-2.5 2.5,-2.5"
       style="fill:#d94723;fill-opacity:1;fill-rule:evenodd;stroke:#e1e1e1;stroke-width:2.5;stroke-linecap:butt;stroke-linejoin:round;stroke-miterlimit:10;stroke-opacity:1" />
    <path
       inkscape:connector-curvature="0"
       id="path1254"
       d="m 739.4977,554.87261 48.4912,0 c 1.38175,0 2.5,1.11818 2.5,2.5 l 0,19.31643 c 0,1.38182 -1.11825,2.5 -2.5,2.5 l -48.4912,0 c -1.38175,0 -2.5,-1.11818 -2.5,-2.5 l 0,-19.31643 c 0,-1.38182 1.11825,-2.5 2.5,-2.5"
       style="fill:#d94723;fill-opacity:1;fill-rule:evenodd;stroke:#e1e1e1;stroke-width:2.5;stroke-linecap:butt;stroke-linejoin:round;stroke-miterlimit:10;stroke-opacity:1" />
    <path
       inkscape:connector-curvature="0"
       id="path1256"
       d="m 659.9811,579.15484 48.4912,0 c 1.377,0 2.5,1.12305 2.5,2.5 l 0,19.31642 c 0,1.38183 -1.123,2.5 -2.5,2.5 l -48.4912,0 c -1.38175,0 -2.5,-1.11817 -2.5,-2.5 l 0,-19.31642 c 0,-1.37695 1.11825,-2.5 2.5,-2.5"
       style="fill:#d94723;fill-opacity:1;fill-rule:evenodd;stroke:#e1e1e1;stroke-width:2.5;stroke-linecap:butt;stroke-linejoin:round;stroke-miterlimit:10;stroke-opacity:1" />
    <path
       inkscape:connector-curvature="0"
       id="path1258"
       d="m 713.43325,579.19391 48.4912,0 c 1.38175,0 2.5,1.11815 2.5,2.5 l 0,19.31153 c 0,1.38182 -1.11825,2.5 -2.5,2.5 l -48.4912,0 c -1.38175,0 -2.5,-1.11818 -2.5,-2.5 l 0,-19.31153 c 0,-1.38185 1.11825,-2.5 2.5,-2.5"
       style="fill:#d94723;fill-opacity:1;fill-rule:evenodd;stroke:#e1e1e1;stroke-width:2.5;stroke-linecap:butt;stroke-linejoin:round;stroke-miterlimit:10;stroke-opacity:1" />
    <path
       inkscape:connector-curvature="0"
       id="path1260"
       d="m 767.17835,530.60016 20.80077,0 c 1.38175,0 2.5,1.11815 2.5,2.5 l 0,19.31153 c 0,1.38182 -1.11825,2.5 -2.5,2.5 l -20.80077,0 c -1.38175,0 -2.5,-1.11818 -2.5,-2.5 l 0,-19.31153 c 0,-1.38185 1.11825,-2.5 2.5,-2.5"
       style="fill:#d94723;fill-opacity:1;fill-rule:evenodd;stroke:#e1e1e1;stroke-width:2.5;stroke-linecap:butt;stroke-linejoin:round;stroke-miterlimit:10;stroke-opacity:1" />
    <path
       inkscape:connector-curvature="0"
       id="path1262"
       d="m 766.91467,579.16461 21.10353,0 c 1.38175,0 2.5,1.11818 2.5,2.5 l 0,19.3164 c 0,1.37695 -1.11825,2.5 -2.5,2.5 l -21.10353,0 c -1.38175,0 -2.5,-1.12305 -2.5,-2.5 l 0,-19.3164 c 0,-1.38182 1.11825,-2.5 2.5,-2.5"
       style="fill:#d94723;fill-opacity:1;fill-rule:evenodd;stroke:#e1e1e1;stroke-width:2.5;stroke-linecap:butt;stroke-linejoin:round;stroke-miterlimit:10;stroke-opacity:1" />
    <path
       inkscape:connector-curvature="0"
       id="path1264"
       d="m 659.9225,554.80426 21.1035,0 c 1.38175,0 2.5,1.12305 2.5,2.5 l 0,19.3164 c 0,1.38185 -1.11825,2.5 -2.5,2.5 l -21.1035,0 c -1.377,0 -2.5,-1.11815 -2.5,-2.5 l 0,-19.3164 c 0,-1.37695 1.123,-2.5 2.5,-2.5"
       style="fill:#d94723;fill-opacity:1;fill-rule:evenodd;stroke:#e1e1e1;stroke-width:2.5;stroke-linecap:butt;stroke-linejoin:round;stroke-miterlimit:10;stroke-opacity:1" />
    <path
       inkscape:connector-curvature="0"
       id="path1266"
       d="m 657.46645,542.90484 0,42.09472"
       style="fill:none;stroke:#e1e1e1;stroke-width:2.5;stroke-linecap:butt;stroke-linejoin:round;stroke-miterlimit:10;stroke-opacity:1" />
    <path
       inkscape:connector-curvature="0"
       id="path1268"
       d="m 773.90687,603.44684 -85.53222,-0.01"
       style="fill:none;stroke:#e1e1e1;stroke-width:2.5;stroke-linecap:butt;stroke-linejoin:round;stroke-miterlimit:10;stroke-opacity:1" />
    <path
       inkscape:connector-curvature="0"
       id="path1270"
       d="m 757.00745,506.23004 -38.4668,-0.11725"
       style="fill:none;stroke:#e1e1e1;stroke-width:2.5;stroke-linecap:butt;stroke-linejoin:round;stroke-miterlimit:10;stroke-opacity:1" />
    <path
       inkscape:connector-curvature="0"
       id="path1272"
       d="m 790.4596,541.23981 0,42.08985"
       style="fill:none;stroke:#e1e1e1;stroke-width:2.5;stroke-linecap:butt;stroke-linejoin:round;stroke-miterlimit:10;stroke-opacity:1" />
    <path
       inkscape:connector-curvature="0"
       id="path1274"
       d="m 790.56702,514.06206 0,42.08985"
       style="fill:none;stroke:#e1e1e1;stroke-width:2.5;stroke-linecap:butt;stroke-linejoin:round;stroke-miterlimit:10;stroke-opacity:1" />
    <path
       inkscape:connector-curvature="0"
       id="path1276"
       d="m 644.10707,539.69684 6.7285,-10.9912 6.0498,-7.66603 3.99903,-5.02442 6.3916,-6.9873 -0.7665,6.13282 -0.17,4.7705 0.17,4.25783 0.51275,3.0664 0.7665,2.30467 1.1085,3.14943 1.787,3.4082 2.38275,3.75 2.47075,3.74512 2.6416,2.9834 3.0713,4.3457 2.9785,3.916 3.23732,5.96192 3.5791,-5.10742 -0.0875,4.34083 0.17,4.34569 0.9375,5.87891 -0.42475,6.2207 -0.8495,4.77052 -2.21675,7.3242 -2.72462,4.94143 -4.2627,4.5996 -3.5742,2.8125 -6.04983,2.8125 -4.5166,1.10353 -5.0244,0.088 -3.32492,-0.34193 -4.4287,-1.5332 -4.00393,-2.0459 -3.4912,-3.2373 -3.4082,-4.0039 -2.8125,-3.833 -3.0664,-6.64553 -1.704,-5.9619 -1.1035,-6.21582 0.0825,-5.5371 0.34175,-6.22073 0.50775,-5.2832 0,-7.91992 -0.76675,-3.9209 -1.36225,-3.916 -2.21675,-3.8379 3.06643,0.9375 4.94627,2.0459 z m 0,0"
       style="fill:#ee1e14;fill-opacity:1;fill-rule:evenodd;stroke:#ee1e14;stroke-width:1.25;stroke-linecap:butt;stroke-linejoin:miter;stroke-miterlimit:10;stroke-opacity:1" />
    <path
       inkscape:connector-curvature="0"
       id="path1278"
       d="m 641.60217,542.49469 3.42775,3.26172 3.09083,3.42285 2.49025,3.0957 2.53905,3.8672 1.04975,2.1533 0.82525,-1.1621 0.498,-2.53907 0.4005,-5.05858 -0.288,-7.53907 0.62025,-7.37793 2.85645,-6.7041 2.9834,-4.75097 2.0995,-3.31543 -1.1035,3.20313 0.44425,8.56445 0.8935,3.88672 1.42575,3.07128 9.66795,17.01172 1.59675,3.75978 0.669,3.70115 0.22,3.9209 0.2735,2.70507 0.38575,2.65138 0.55175,1.8213 1.71375,0.94237 2.15825,0 1.709,-0.66405 0.95225,-1.25 0.88375,-2.31935 0.55175,-3.42285 0.55175,3.09083 0.664,4.31152 -0.44425,7.0703 -1.32325,6.62598 -2.65138,5.9668 -3.0957,3.31542 -4.52637,3.09083 -4.30665,2.32422 -3.75975,1.21093 -3.31103,0.33205 -2.76367,0.11225 -3.09083,-0.33203 -3.0957,-1.10352 -2.9834,-1.87988 -2.8711,-1.9873 -2.6123,-3.16895 -3.36912,-5.85937 -1.753,-4.78028 -0.7325,-3.8916 -0.4835,-4.1748 -0.34675,-4.38477 0.1125,-3.9209 0.498,-3.36915 0.71775,-3.81347 0.9375,-3.26171 1.16225,-3.7549 0.44425,-3.0371 -0.17,-2.81737 -1.21575,-3.64748 z m 0,0"
       style="fill:#f38f19;fill-opacity:1;fill-rule:evenodd;stroke:#f38f19;stroke-width:1.25;stroke-linecap:butt;stroke-linejoin:miter;stroke-miterlimit:10;stroke-opacity:1" />
    <path
       inkscape:connector-curvature="0"
       id="path1280"
       d="m 658.526,537.69489 5.0342,8.08105 4.01367,8.2422 2.71973,6.01562 2.50975,6.3037 2.43175,7.23633 1.4355,6.30372 0.42975,4.7998 -0.215,3.72558 -0.6445,4.08202 -1.22075,2.79298 -1.499,3.51075 -1.9385,2.29002 -2.21675,1.57715 -2.93945,1.36233 -3.13478,0.74217 -2.59765,-0.23925 -2.93457,-1.2207 -3.0078,-1.86035 -2.1485,-3.36915 -1.00575,-3.36425 -0.57125,-2.29492 -0.1475,-3.65235 0.0725,-4.29688 0.791,-4.5166 2.07525,-5.15625 2.50977,-4.37012 3.0078,-6.01562 1.6455,-4.65821 0.57125,-3.51075 -0.28325,-4.43847 -0.71775,-6.37695 z m 0,0"
       style="fill:#f3b326;fill-opacity:1;fill-rule:evenodd;stroke:#f3b326;stroke-width:1.25;stroke-linecap:butt;stroke-linejoin:miter;stroke-miterlimit:10;stroke-opacity:1" />
    <path
       inkscape:connector-curvature="0"
       id="path1282"
       d="m 653.45277,586.57671 1.328,-4.91697 1.875,-4.29688 1.5625,-3.67187 1.875,-3.90625 2.10925,-3.51563 2.60253,-3.48145 -0.80575,3.6377 0,3.59375 0.46875,3.125 1.5625,2.1875 2.422,3.20313 2.34375,3.51562 1.25,2.96875 1.01075,3.58885 0.39075,2.65625 -0.1525,3.67188 -0.9375,2.73437 -1.95325,2.73438 -3.125,2.57812 -2.34375,1.17188 -1.79675,0.39062 -2.1875,-0.39062 -2.57813,-1.48438 -2.1095,-2.65625 -1.40625,-3.125 -1.32825,-4.14062 -0.54675,-2.96875 z m 0,0"
       style="fill:#facc7d;fill-opacity:1;fill-rule:evenodd;stroke:#facc7d;stroke-width:1.25;stroke-linecap:butt;stroke-linejoin:miter;stroke-miterlimit:10;stroke-opacity:1" />
    <g
       transform="matrix(0.4444619,0,0,0.4444619,643.57338,392.55543)"
       id="g2071">
      <rect
         inkscape:export-ydpi="7.7063322"
         inkscape:export-xdpi="7.7063322"
         inkscape:export-filename="C:\Documents and Settings\Molumen\Desktop\path3511111.png"
         transform="scale(-1,1)"
         ry="39.430557"
         rx="39.430557"
         y="318.34387"
         x="-318.76086"
         height="144.63728"
         width="145.8244"
         id="rect3417"
         style="fill:#f00a10;fill-opacity:1;fill-rule:evenodd;stroke:none" />
      <g
         inkscape:export-ydpi="7.7063322"
         inkscape:export-xdpi="7.7063322"
         inkscape:export-filename="C:\Documents and Settings\Molumen\Desktop\path3511111.png"
         transform="matrix(0.657176,0,0,0.657176,-102.644,-95.3871)"
         id="g3479">
        <path
           inkscape:connector-curvature="0"
           id="path3419"
           d="m 554.12665,739.60331 35.77776,-35.77776 c 3.74808,-3.74826 5.62215,-7.89395 5.62222,-12.43703 -0.22723,-4.08899 -2.10129,-7.89392 -5.62222,-11.41481 -3.18031,-3.18034 -6.92845,-4.99762 -11.24444,-5.45184 -4.42968,-0.34085 -8.63213,1.47644 -12.6074,5.45184 l -35.77776,35.77776 -35.77776,-35.77776 c -3.63453,-3.63467 -7.72341,-5.45195 -12.26667,-5.45184 -4.42957,0.34063 -8.29129,2.15791 -11.58517,5.45185 -2.83945,2.83938 -4.48636,6.53074 -4.94075,11.07406 -0.45425,4.77025 1.19267,9.0295 4.94075,12.77778 l 35.77775,35.77776 -35.77775,35.77775 c -3.18019,3.18005 -4.94067,7.32572 -5.28149,12.43705 0.34082,4.42939 2.1013,8.23433 5.28149,11.41479 2.95313,2.95287 6.70128,4.77014 11.24444,5.45186 4.42967,0.34051 8.63212,-1.47677 12.6074,-5.45186 l 35.77775,-35.77775 35.77777,35.77776 c 3.7481,3.74791 7.89378,5.39483 12.43703,4.94073 4.65673,-0.34096 8.46167,-1.98788 11.41481,-4.94073 2.72586,-2.72615 4.37277,-6.4175 4.94073,-11.07407 0.68142,-4.54342 -0.96549,-8.80267 -4.94073,-12.77778 l -35.77776,-35.77776"
           style="font-size:454.95709229px;font-style:normal;font-variant:normal;font-weight:normal;font-stretch:normal;line-height:100%;writing-mode:lr-tb;text-anchor:start;fill:#cb1e0e;fill-opacity:1;stroke:none;font-family:GOST type B" />
        <path
           inkscape:connector-curvature="0"
           style="font-size:454.95709229px;font-style:normal;font-variant:normal;font-weight:normal;font-stretch:normal;line-height:100%;writing-mode:lr-tb;text-anchor:start;fill:#ffffff;fill-opacity:1;stroke:none;font-family:GOST type B"
           d="m 552.27953,739.60331 32.98715,-32.98715 c 3.45573,-3.4559 5.18363,-7.27823 5.18369,-11.46696 -0.2095,-3.77006 -1.93739,-7.27821 -5.18369,-10.52447 -2.93225,-2.93228 -6.38804,-4.60782 -10.36739,-5.02661 -4.08417,-0.31426 -7.95884,1.36128 -11.62404,5.02661 l -32.98715,32.98715 -32.98715,-32.98715 c -3.35104,-3.35117 -7.121,-5.02671 -11.30989,-5.02661 -4.08407,0.31406 -7.64458,1.9896 -10.68154,5.02662 -2.61798,2.61791 -4.13643,6.02135 -4.55538,10.2103 -0.41882,4.39817 1.09964,8.32521 4.55538,11.78113 l 32.98714,32.98715 -32.98714,32.98714 c -2.93214,2.93201 -4.55531,6.75432 -4.86954,11.46697 0.31423,4.08391 1.9374,7.59207 4.86954,10.52446 2.72279,2.72255 6.17859,4.39807 10.36739,5.02662 4.08416,0.31395 7.95883,-1.36158 11.62404,-5.02662 l 32.98714,-32.98714 32.98716,32.98715 c 3.45575,3.45558 7.27807,4.97404 11.46696,4.55536 4.29351,-0.31437 7.80167,-1.83283 10.52447,-4.55536 2.51325,-2.51352 4.0317,-5.91695 4.55536,-10.21031 0.62827,-4.18904 -0.89018,-8.11608 -4.55536,-11.78113 l -32.98715,-32.98715"
           id="path3421" />
      </g>
      <path
         inkscape:connector-curvature="0"
         inkscape:export-ydpi="7.7063322"
         inkscape:export-xdpi="7.7063322"
         inkscape:export-filename="C:\Documents and Settings\Molumen\Desktop\path3511111.png"
         sodipodi:nodetypes="ccccsssc"
         id="path3423"
         d="m 280.23405,324.52719 -68.77064,0 c -18.20378,0 -32.8588,14.65502 -32.8588,32.85879 l 0,66.55294 c 0.58922,14.20959 2.85575,5.22659 7.16998,-10.50956 5.01405,-18.28861 21.34331,-34.27311 41.22946,-46.25257 15.17845,-9.14349 32.16783,-14.98217 63.09303,-15.53761 17.53858,-0.31499 15.99021,-22.57853 -9.86303,-27.11199 z"
         style="fill:url(#linearGradient4201);fill-opacity:1;fill-rule:evenodd;stroke:none" />
    </g>
  </g>
  <metadata
     id="metadata26">
    <rdf:RDF>
      <cc:Work>
        <dc:format>image/svg+xml</dc:format>
        <dc:type
           rdf:resource="http://purl.org/dc/dcmitype/StillImage" />
        <cc:license
           rdf:resource="http://creativecommons.org/licenses/publicdomain/" />
        <dc:publisher>
          <cc:Agent
             rdf:about="http://openclipart.org/">
            <dc:title>Open Clip Art Library</dc:title>
          </cc:Agent>
        </dc:publisher>
        <dc:title></dc:title>
        <dc:date>2012-08-02T14:30:23</dc:date>
        <dc:description />
        <dc:source>http://openclipart.org/detail/171429/firewall-by-cyberscooty-171429</dc:source>
        <dc:creator>
          <cc:Agent>
            <dc:title>cyberscooty</dc:title>
          </cc:Agent>
        </dc:creator>
        <dc:subject>
          <rdf:Bag>
            <rdf:li>clip art</rdf:li>
            <rdf:li>clipart</rdf:li>
            <rdf:li>computer</rdf:li>
            <rdf:li>firewall</rdf:li>
            <rdf:li>informatique</rdf:li>
            <rdf:li>it</rdf:li>
            <rdf:li>network</rdf:li>
            <rdf:li>ordinateur</rdf:li>
            <rdf:li>réseau</rdf:li>
            <rdf:li>server</rdf:li>
            <rdf:li>serveur</rdf:li>
          </rdf:Bag>
        </dc:subject>
      </cc:Work>
      <cc:License
         rdf:about="http://creativecommons.org/licenses/publicdomain/">
        <cc:permits
           rdf:resource="http://creativecommons.org/ns#Reproduction" />
        <cc:permits
           rdf:resource="http://creativecommons.org/ns#Distribution" />
        <cc:permits
           rdf:resource="http://creativecommons.org/ns#DerivativeWorks" />
      </cc:License>
    </rdf:RDF>
  </metadata>
</svg>
