<?xml version="1.0" encoding="UTF-8" standalone="no"?>
<!-- Created with Inkscape (http://www.inkscape.org/) -->

<svg
   xmlns:dc="http://purl.org/dc/elements/1.1/"
   xmlns:cc="http://creativecommons.org/ns#"
   xmlns:rdf="http://www.w3.org/1999/02/22-rdf-syntax-ns#"
   xmlns:svg="http://www.w3.org/2000/svg"
   xmlns="http://www.w3.org/2000/svg"
   xmlns:sodipodi="http://sodipodi.sourceforge.net/DTD/sodipodi-0.dtd"
   xmlns:inkscape="http://www.inkscape.org/namespaces/inkscape"
   version="1.0"
   width="900"
   height="899.815"
   id="svg2"
   inkscape:version="0.48.4 r9939"
   sodipodi:docname="Alternative-GNU-stamp.svg">
  <metadata
     id="metadata10">
    <rdf:RDF>
      <cc:Work
         rdf:about="">
        <dc:format>image/svg+xml</dc:format>
        <dc:type
           rdf:resource="http://purl.org/dc/dcmitype/StillImage" />
        <dc:title></dc:title>
      </cc:Work>
    </rdf:RDF>
  </metadata>
  <sodipodi:namedview
     pagecolor="#ffffff"
     bordercolor="#666666"
     borderopacity="1"
     objecttolerance="10"
     gridtolerance="10"
     guidetolerance="10"
     inkscape:pageopacity="0"
     inkscape:pageshadow="2"
     inkscape:window-width="1600"
     inkscape:window-height="838"
     id="namedview8"
     showgrid="false"
     inkscape:zoom="0.52455227"
     inkscape:cx="353.21729"
     inkscape:cy="296.78337"
     inkscape:window-x="-8"
     inkscape:window-y="-8"
     inkscape:window-maximized="1"
     inkscape:current-layer="svg2" />
  <defs
     id="defs5" />
  <path
     style="fill:#000000"
     d="m 418.10937,730.18995 c -11.2658,-9.89151 -12.39661,-15.17282 -5.91125,-27.60793 6.37759,-12.22848 5.61459,-14.39683 -8.47788,-24.0927 -14.1561,-9.73965 -17.48578,-16.29763 -14.70442,-28.961 2.93735,-13.37374 7.99604,-15.79129 19.8023,-9.46351 7.54214,4.04235 9.47769,6.49512 7.54063,9.55559 -4.63207,7.31857 -2.86659,17.55833 4.54614,26.36787 8.14565,9.68054 8.97315,17.80461 2.89632,28.43491 -5.36605,9.38691 -5.39557,17.77897 -0.0872,24.78915 3.85485,5.09064 3.93522,4.74163 0.85047,-3.6921 -3.04828,-8.33394 -2.69617,-10.07065 3.34554,-16.50174 8.81573,-9.38393 8.54393,-19.57633 -0.85047,-31.89305 -7.89474,-10.35053 -9.34794,-17.59459 -4.92968,-24.57397 2.11292,-3.33768 4.12282,-3.44537 11.01589,-0.59016 l 8.43139,3.49241 -1.0864,26.65695 c -0.67061,16.4544 -2.66342,29.07661 -5.20675,32.97889 -2.2662,3.47708 -4.42497,10.31962 -4.79725,15.20564 -0.37229,4.88604 -1.00601,8.88371 -1.40822,8.88371 -0.40221,0 -5.33836,-4.04505 -10.96917,-8.98896 z m 45.34725,0.10513 c -0.37229,-4.88602 -2.50301,-11.72855 -4.73494,-15.20563 -2.46847,-3.84558 -4.47599,-16.77685 -5.12508,-33.0127 l -1.06709,-26.6908 8.34977,-3.45858 c 6.80211,-2.81753 8.82877,-2.70188 10.93422,0.62398 3.50097,5.53036 3.34688,16.35773 -0.26444,18.58971 -4.91564,3.03806 -13.72857,22.8609 -12.22133,27.48938 0.77812,2.38945 4.12452,7.32144 7.43642,10.95996 5.28652,5.80786 5.60575,7.75264 2.61485,15.92971 -3.08474,8.43373 -3.00438,8.78274 0.85047,3.6921 5.30839,-7.01017 5.27887,-15.40223 -0.0872,-24.78914 -6.13824,-10.73773 -5.23357,-18.77312 3.24847,-28.85346 6.28367,-7.46767 7.29286,-10.90044 5.85261,-19.90733 -1.58243,-9.896 -0.93126,-11.36162 7.17582,-16.15058 7.74417,-4.57461 9.46227,-4.72085 13.07058,-1.11254 2.2849,2.28491 4.91733,8.85588 5.84982,14.60219 1.81112,11.16056 -1.86528,16.45252 -20.85248,30.01598 l -8.55219,6.10924 5.06854,10.64282 c 7.2459,15.21481 6.3861,20.27464 -5.16934,30.42044 -5.6308,4.94392 -10.56695,8.98896 -10.96917,8.98896 -0.40221,0 -1.03592,-3.99766 -1.40822,-8.88371 z m -30.2424,-93.88783 c -5.34202,-4.70177 -7.96486,-9.85527 -7.96486,-15.6496 0,-15.63527 -8.66438,-31.43766 -15.06733,-27.4804 -3.65205,2.25709 -2.70026,14.82097 1.96943,25.99711 l 4.27997,10.24339 -15.14114,-10.88118 c -8.32762,-5.98462 -15.57557,-11.17906 -16.10656,-11.54319 -0.531,-0.36413 1.87855,-3.50604 5.35456,-6.98205 9.43361,-9.43361 22.64078,-39.69585 27.90787,-63.9466 6.50309,-29.94152 6.52918,-107.01947 0.0451,-133.70782 -8.90062,-36.63584 -26.24672,-61.46997 -50.46604,-72.25149 -7.71473,-3.4343 -25.55627,-6.70533 -47.65743,-8.73741 l -35.32631,-3.24807 18.4911,-3.77186 c 10.1701,-2.07452 29.66094,-8.22495 43.31299,-13.66761 39.48662,-15.74217 45.85613,-17.2219 66.56658,-15.46416 10.49281,0.89056 21.35867,2.50457 24.14637,3.58668 4.75015,1.84388 5.06854,13.04623 5.06854,178.33257 0,97.00079 -0.32584,176.3239 -0.72408,176.27357 -0.39824,-0.0504 -4.30826,-3.24619 -8.68893,-7.10188 z m 18.10194,-170.87454 0,-175.17163 7.96485,-2.22741 c 4.38068,-1.22508 18.39158,-2.17817 31.13534,-2.11801 20.61053,0.0973 26.37042,1.46229 52.13359,12.35482 15.92972,6.73496 37.37556,13.95631 47.65744,16.04742 l 18.69435,3.80204 -35.3263,3.24807 c -39.59036,3.64014 -54.74387,8.88003 -69.66192,24.08824 -27.53908,28.0747 -39.37476,84.94709 -32.59027,156.60144 3.75486,39.65689 10.65845,64.04189 24.75786,87.4504 5.62078,9.33185 9.68539,17.83145 9.03241,18.888 -0.65297,1.05652 -7.11282,6.17638 -14.35519,11.37746 l -13.16794,9.45651 4.24076,-10.14954 c 5.02342,-12.02276 5.49453,-23.70043 1.06651,-26.43709 -5.71304,-3.53083 -11.41694,6.01344 -13.189,22.06896 -1.22852,11.13119 -3.54505,17.22347 -7.89342,20.75899 -3.38504,2.75228 -7.13212,5.03312 -8.32684,5.06854 -1.19472,0.0353 -2.17223,-78.76282 -2.17223,-175.10721 z m -49.00104,93.20702 c -0.54728,-25.49345 -8.90111,-32.29051 -89.95675,-73.19302 -43.89182,-22.14882 -59.80233,-31.75014 -71.68369,-43.25814 -16.7885,-16.26093 -18.86286,-23.92428 -8.97072,-33.14022 8.61778,-8.02867 21.79862,-9.97829 52.8023,-7.81017 33.10576,2.31514 62.08628,8.47678 78.55577,16.70204 27.41819,13.69332 50.46918,44.85137 55.23621,74.6629 1.92814,12.05772 -5.16876,52.93798 -11.82196,68.09821 l -3.92487,8.9434 -0.23634,-11.005 z m 83.01128,-4.92472 c -12.84038,-40.49497 -13.07864,-60.84338 -1.02564,-87.60526 14.77904,-32.81468 47.27889,-53.97272 94.45307,-61.49088 62.62331,-9.98025 95.81321,-1.89543 88.37875,21.52845 -4.23513,13.34366 -31.82865,32.44234 -86.47089,59.85021 -79.74598,39.99962 -85.4856,44.56973 -88.68373,70.61379 l -1.60047,13.03341 -5.05109,-15.92972 z m -72.3052,-91.91462 c -8.94914,-25.33835 -33.6209,-44.03881 -74.64211,-56.57648 -14.68345,-4.48786 -29.19675,-5.96686 -65.72059,-6.69737 -45.34366,-0.90692 -47.42597,-1.21793 -63.71884,-9.51644 -9.26382,-4.71837 -22.30779,-14.22942 -28.9866,-21.13562 -11.14445,-11.52396 -26.86096,-39.50672 -26.92862,-47.94562 -0.0174,-2.03469 7.17607,0.69291 16.98266,6.44041 38.34768,22.47494 78.71767,37.63782 111.87488,42.01989 23.26525,3.07471 71.42189,3.27276 92.68195,0.38115 8.62587,-1.17324 -6.59891,-2.00454 -37.65205,-2.05586 -44.76723,-0.0738 -55.54664,-1.00569 -76.28862,-6.59368 -24.51679,-6.60498 -79.41772,-30.05042 -87.35295,-37.30406 -3.73012,-3.40976 -2.70625,-3.7641 7.24078,-2.50583 28.94535,3.66155 45.46441,4.08598 72.40777,1.86042 l 28.96312,-2.39241 6.80128,8.45184 c 12.1063,15.04422 53.81703,31.26504 80.71384,31.38865 15.99726,0.0736 28.9636,8.34046 35.76018,22.79953 8.81714,18.75767 14.67111,50.13864 13.69448,73.41085 l -0.84318,20.09174 -4.98738,-14.12111 z m 61.61637,-5.44055 c -0.18131,-24.75676 3.48169,-45.99388 11.83108,-68.59281 7.62564,-20.63992 14.33813,-24.679 49.82695,-29.982 30.53864,-4.5633 57.28564,-15.85203 67.98374,-28.69291 l 7.78206,-9.34081 21.72234,2.22623 c 22.32653,2.28814 75.13245,1.15395 85.44117,-1.83513 11.1958,-3.24634 0.26645,4.19741 -23.17049,15.78078 -51.34322,25.37571 -95.23252,34.24154 -156.40079,31.59366 -22.8478,-0.98904 -29.79408,-0.69463 -20.27416,0.8593 20.17323,3.29287 65.34743,3.23208 91.23378,-0.1228 34.61821,-4.48651 74.94439,-19.39104 113.32303,-41.88414 9.84797,-5.77173 17.01,-8.48366 17.00867,-6.44038 -9e-4,1.9412 -3.75959,11.34946 -8.35183,20.90731 -10.35703,21.55597 -28.52255,39.36605 -50.27819,49.29438 -15.2816,6.97384 -20.2327,7.65662 -60.82253,8.38768 -35.50297,0.63942 -48.45568,2.05792 -65.90906,7.2179 -11.94728,3.53217 -23.3515,6.55776 -25.34271,6.72361 -1.99122,0.16567 -3.62039,1.22948 -3.62039,2.3637 0,1.1342 -3.73778,3.61043 -8.30616,5.50274 -13.91098,5.76211 -31.31699,24.86311 -37.63093,41.29539 l -5.89468,15.34121 -0.1509,-20.60293 z M 203.324,421.71651 c -20.15821,-14.91951 -37.70145,-39.06277 -44.59007,-61.36553 -6.31827,-20.45618 -5.72055,-27.56749 0.97099,-11.55237 8.56984,20.51049 37.47097,44.38895 60.73984,50.18395 7.88246,1.96309 7.96149,2.18291 3.3274,9.25544 -3.01961,4.6085 -4.13964,10.28066 -3.07812,15.58827 0.91782,4.58903 0.56291,8.34369 -0.78866,8.34369 -1.35159,0 -8.81321,-4.70405 -16.58138,-10.45345 z m 469.82402,3.19156 c 1.15565,-4.60441 0.0313,-9.99584 -3.07255,-14.73284 -2.69233,-4.10903 -4.46519,-7.79762 -3.93965,-8.19682 0.5255,-0.39922 6.6755,-2.95464 13.66665,-5.67867 25.93169,-10.10405 47.74261,-29.55636 55.23447,-49.26139 4.48665,-11.80082 6.33797,-8.00027 2.75022,5.64592 -4.42706,16.83867 -10.2192,28.35952 -22.06584,43.89006 -13.14229,17.22911 -14.13821,18.20699 -28.30407,27.79187 -14.28047,9.66238 -16.58022,9.74973 -14.26923,0.54187 z M 173.27031,316.67158 c -12.12522,-1.91354 -11.21709,-2.21481 13.0334,-4.32356 79.17532,-6.88485 125.21309,-22.56858 159.2971,-54.26791 10.90504,-10.14207 30.56431,-18.72726 48.79899,-21.31048 15.33741,-2.17278 40.25096,2.46707 45.18789,8.41572 1.86795,2.25073 2.32704,10.48406 1.19079,21.35525 -1.57017,15.02259 -2.55356,17.33158 -6.51693,15.30186 -18.26836,-9.35556 -55.66538,-4.46838 -86.53574,11.30875 -35.27183,18.02667 -60.89425,23.50907 -115.08113,24.62389 -25.48752,0.52435 -52.20599,0.029 -59.37437,-1.10352 z m 444.58372,-0.67019 c -24.58603,-3.54554 -55.46325,-13.29047 -72.40777,-22.85206 -7.96486,-4.49446 -20.26126,-9.70699 -27.32536,-11.58336 -15.9386,-4.23365 -49.80763,-4.45056 -57.43625,-0.36786 -5.30144,2.83723 -5.80258,1.82299 -7.38704,-14.95006 -1.93137,-20.4459 -0.0669,-23.18717 19.32097,-28.4078 24.93796,-6.7151 56.93269,3.83014 86.4251,28.48504 28.76811,24.0494 73.33202,38.84689 132.85688,44.11527 18.21435,1.61212 35.07198,3.11641 37.46144,3.34287 2.38946,0.2265 -2.17224,1.42678 -10.13709,2.66736 -19.11137,2.97671 -79.46866,2.70915 -101.37088,-0.4494 z M 135.61828,302.06875 C 84.178638,294.79365 47.261044,270.61053 34.004626,235.50611 11.638306,176.27771 71.540964,108.20551 146.33688,107.85396 c 32.1684,-0.15119 57.89065,8.19395 112.3746,36.45813 42.55724,22.07704 62.26067,26.89769 89.45685,21.8866 10.39544,-1.91544 25.14881,-6.06976 32.78529,-9.23184 l 13.88447,-5.74923 -8.68893,7.30988 c -17.99127,15.1358 -38.93594,23.04536 -63.71884,24.06284 -24.23528,0.995 -37.27499,-2.55507 -87.12306,-23.71925 -9.68639,-4.11259 -24.86227,-8.32959 -33.7242,-9.37113 -44.98878,-5.28757 -84.23303,24.19356 -78.99008,59.33901 2.86179,19.18359 8.5991,31.24587 19.13779,40.23592 21.635,18.45579 42.80339,24.55079 85.1213,24.50894 34.74287,-0.0344 57.64119,-4.19219 98.47457,-17.88076 l 26.0668,-8.73837 -11.58525,10.1949 c -13.26562,11.67361 -36.86807,24.37118 -57.92621,31.16297 -34.72605,11.20003 -112.55097,18.51421 -146.2637,13.74618 z m 550.29905,-0.051 c -60.0581,-5.45348 -104.79206,-20.76755 -131.78214,-45.11377 -6.37188,-5.7477 -9.63023,-9.80764 -7.24078,-9.02203 2.38946,0.78559 18.02953,5.96069 34.75574,11.50026 84.31355,27.92388 165.73848,15.44507 183.97238,-28.19478 11.22544,-26.86626 5.21229,-52.68531 -15.81823,-67.91973 -23.86699,-17.28915 -56.65694,-19.00229 -90.36478,-4.72121 -50.90961,21.56899 -63.61037,25.04204 -87.92646,24.04375 -24.7829,-1.01745 -45.72756,-8.92705 -63.71884,-24.06284 l -8.68893,-7.30986 13.70965,5.67428 c 21.66319,8.96617 45.18062,12.80954 63.98533,10.4569 12.68303,-1.58677 27.78521,-7.63833 60.82253,-24.372 24.17252,-12.24357 51.11844,-24.58084 59.87977,-27.41616 21.32299,-6.90043 55.86602,-9.3205 74.86823,-5.24525 48.51557,10.40471 88.59041,50.73341 92.28022,92.86477 3.72294,42.5095 -31.9205,81.86999 -86.22401,95.21581 -18.41776,4.52641 -63.22778,6.2808 -92.50968,3.62187 z"
     id="path3016"
     inkscape:connector-curvature="0" />
</svg>
