<?xml version="1.0" encoding="UTF-8" standalone="no"?>
<!-- Creator: CorelDRAW -->
<svg xmlns:dc="http://purl.org/dc/elements/1.1/" xmlns:cc="http://creativecommons.org/ns#" xmlns:rdf="http://www.w3.org/1999/02/22-rdf-syntax-ns#" xmlns:svg="http://www.w3.org/2000/svg" xmlns="http://www.w3.org/2000/svg" xmlns:xlink="http://www.w3.org/1999/xlink" xmlns:sodipodi="http://sodipodi.sourceforge.net/DTD/sodipodi-0.dtd" xmlns:inkscape="http://www.inkscape.org/namespaces/inkscape" xml:space="preserve" width="176.66289" height="170.16806" style="fill-rule:evenodd" viewBox="0 0 8500 11000" id="svg2" sodipodi:version="0.32" inkscape:version="0.46" sodipodi:docname="ivak_matrix_printer.svg" inkscape:output_extension="org.inkscape.output.svg.inkscape" sodipodi:docbase="C:\Documents and Settings\Ivaylo Kroumov\My Documents\toto-ui-project\icons" version="1.0"><sodipodi:namedview inkscape:window-height="932" inkscape:window-width="1279" inkscape:pageshadow="2" inkscape:pageopacity="0.0" guidetolerance="10.0" gridtolerance="10.0" objecttolerance="10.0" borderopacity="1.0" bordercolor="#666666" pagecolor="#ffffff" id="base" inkscape:zoom="1.4142136" inkscape:cx="130.17548" inkscape:cy="12.130691" inkscape:window-x="0" inkscape:window-y="0" inkscape:current-layer="svg2" width="1052.3622px" height="744.09449px" showguides="true" inkscape:guide-bbox="true" showgrid="false"/>
 <defs id="defs4"><inkscape:perspective sodipodi:type="inkscape:persp3d" inkscape:vp_x="0 : 65.047989 : 1" inkscape:vp_y="0 : 1000 : 0" inkscape:vp_z="136.45961 : 65.047989 : 1" inkscape:persp3d-origin="68.229805 : 43.365326 : 1" id="perspective52"/><linearGradient id="linearGradient24421"><stop offset="0" id="stop24423" style="stop-color:#002256;stop-opacity:1;"/><stop offset="1" id="stop24425" style="stop-color:#b1beff;stop-opacity:1;"/></linearGradient><linearGradient id="linearGradient3647"><stop offset="0" id="stop3649" style="stop-color:#5b5656;stop-opacity:1;"/><stop offset="0.2206087" id="stop3656" style="stop-color:#999595;stop-opacity:1;"/><stop offset="0.70075703" id="stop15852" style="stop-color:#e9e9e9;stop-opacity:1;"/><stop offset="1" id="stop3652" style="stop-color:#c8c3c3;stop-opacity:1;"/></linearGradient><linearGradient id="linearGradient3496"><stop offset="0" id="stop3498" style="stop-color:#ffffff;stop-opacity:1;"/><stop offset="1" id="stop3500" style="stop-color:#ffffff;stop-opacity:0.56122446;"/></linearGradient><linearGradient id="linearGradient3488"><stop offset="0" id="stop3490" style="stop-color:#ffffff;stop-opacity:1;"/><stop offset="1" id="stop3492" style="stop-color:#ffffff;stop-opacity:0.43877551;"/></linearGradient><linearGradient id="linearGradient3671"><stop offset="0" id="stop3673" style="stop-color:#532724;stop-opacity:1;"/><stop offset="1" id="stop3675" style="stop-color:#d55b3a;stop-opacity:0.61176473;"/></linearGradient><filter inkscape:collect="always" id="filter3687"><feGaussianBlur inkscape:collect="always" id="feGaussianBlur3689" stdDeviation="13.436031"/></filter><radialGradient inkscape:collect="always" id="radialGradient3725" r="240.257" gradientTransform="matrix(0.1979584,8.4749642e-2,-0.1003929,0.2278856,-2675.7699,3818.3)" cx="25393.113" cy="-6450.2979" gradientUnits="userSpaceOnUse" xlink:href="#linearGradient3496" fy="-6450.2979" fx="25393.113"/><radialGradient inkscape:collect="always" id="radialGradient3728" r="226.8625" gradientTransform="matrix(0.2974892,0.1320543,-0.1620592,0.3429526,-5534.8849,3383.9103)" cx="24825.053" cy="-6428.0479" gradientUnits="userSpaceOnUse" xlink:href="#linearGradient3488" fy="-6428.0479" fx="24825.053"/><linearGradient inkscape:collect="always" id="linearGradient3731" x1="24087.217" y1="4183.189" gradientTransform="matrix(0.1685452,7.1900446e-2,-7.1900446e-2,0.1685452,-992.49572,1954.5837)" x2="26090.01" gradientUnits="userSpaceOnUse" xlink:href="#linearGradient3671" y2="4195.4419"/><linearGradient inkscape:collect="always" id="linearGradient3737" x1="1952.5186" y1="200.5428" gradientTransform="matrix(4.1266043,0,0,4.1266043,-5094.0566,3401.4463)" x2="2004.0544" gradientUnits="userSpaceOnUse" xlink:href="#linearGradient3647" y2="37.294666"/><linearGradient inkscape:collect="always" id="linearGradient3740" x1="20909.689" y1="2532.3135" gradientTransform="matrix(0.2019013,0,0,0.2019013,-2222.0851,3590.1036)" x2="26416.416" gradientUnits="userSpaceOnUse" xlink:href="#linearGradient24421" y2="4796.1636"/><linearGradient inkscape:collect="always" id="linearGradient3743" x1="1115.8142" y1="2660.3669" gradientTransform="matrix(0.5212557,0,0,0.5212557,1563.8721,3168.5033)" x2="3261.074" gradientUnits="userSpaceOnUse" xlink:href="#linearGradient24421" y2="3120.3083"/><linearGradient inkscape:collect="always" id="linearGradient3747" x1="28638.059" y1="4378.2671" gradientTransform="matrix(0.2919416,3.5903969e-2,-3.8977816e-2,0.2689187,-4548.0047,2245.4815)" x2="28043.832" gradientUnits="userSpaceOnUse" xlink:href="#linearGradient24421" y2="4206.7568"/><linearGradient inkscape:collect="always" id="linearGradient3750" x1="28177.438" y1="5403.5034" gradientTransform="matrix(0.2853722,6.7134763e-2,-7.2882373e-2,0.2628673,-4299.8276,1235.916)" x2="28617.383" gradientUnits="userSpaceOnUse" xlink:href="#linearGradient24421" y2="4502.7651"/><linearGradient inkscape:collect="always" id="linearGradient3753" x1="26017.312" y1="2161.7573" gradientTransform="matrix(0.2019013,0,0,0.2019013,-2222.085,3590.1036)" x2="25612.873" gradientUnits="userSpaceOnUse" xlink:href="#linearGradient24421" y2="4191.8452"/><linearGradient inkscape:collect="always" id="linearGradient3756" x1="28243.635" y1="5094.9297" gradientTransform="matrix(0.2019013,0,0,0.2019013,-2222.0851,3590.1036)" x2="26223.207" gradientUnits="userSpaceOnUse" xlink:href="#linearGradient24421" y2="4163.9404"/></defs>
 




<g id="g3759" transform="matrix(7.1989357,0,0,7.1989357,-16415.917,-25197.023)"><path sodipodi:nodetypes="cccccccc" d="M 1715.5832,298.63385 L 1724.1464,324.20079 L 2048,467.84375 L 2048,468 L 2191.5938,354.65625 L 2221.3538,345.46163 L 2236.9383,306.26877 L 1715.5832,298.63385 z" style="fill:#1a1a1a;fill-opacity:0.98823529;fill-rule:evenodd;stroke:#000000;stroke-width:4;stroke-linecap:butt;stroke-linejoin:miter;stroke-miterlimit:4;stroke-dasharray:none;stroke-opacity:1;filter:url(#filter3687)" transform="matrix(2.8238895,0,0,2.8921964,-2674.7455,3653.4173)" id="path3658"/><path sodipodi:nodetypes="cccccc" style="fill:url(#linearGradient3756);fill-opacity:1;fill-rule:evenodd;stroke:none;stroke-width:0.38834509;stroke-linecap:butt;stroke-linejoin:miter;stroke-miterlimit:4;stroke-dasharray:none;stroke-opacity:1" id="path2459" d="M 3072.2554,4679.58 L 3076.3112,4942.8265 L 3578.1087,4548.5598 L 3578.1087,4195.7583 L 3178.2859,4436.3403 L 3072.2554,4679.58 z"/><path sodipodi:nodetypes="cccccc" style="fill:url(#linearGradient3753);fill-opacity:1;fill-rule:evenodd;stroke:none;stroke-width:1px;stroke-linecap:butt;stroke-linejoin:miter;stroke-opacity:1" d="M 3180.3305,4436.4427 L 3577.7826,4196.1019 L 2696.3029,3919.0826 C 2685.7848,3916.5061 2675.75,3915.8622 2666.5925,3918.7279 L 2213.7788,4062.7319 L 3180.3305,4436.4427 z" id="path2461"/><path sodipodi:nodetypes="csssc" style="fill:url(#linearGradient3750);fill-opacity:1;stroke:none;stroke-width:14.32291698;stroke-linecap:round;stroke-linejoin:round;stroke-miterlimit:4;stroke-opacity:1" id="path3557" d="M 3517.7428,4601.455 L 3416.5973,4567.3501 C 3383.7964,4556.2902 3366.7126,4484.2293 3388.4315,4416.3302 C 3410.8621,4346.2063 3469.8932,4323.0044 3500.9303,4330.4853 L 3594.7607,4353.1011"/><path sodipodi:nodetypes="csssc" style="fill:url(#linearGradient3747);fill-opacity:1;stroke:none;stroke-width:14.32291698;stroke-linecap:round;stroke-linejoin:round;stroke-miterlimit:4;stroke-opacity:1" d="M 3619.9839,4490.9966 C 3600.9681,4559.5803 3557.7233,4611.0147 3523.8798,4603.0531 C 3490.0365,4595.0913 3471.4317,4527.7705 3490.2612,4447.476 C 3506.7061,4377.3507 3559.0644,4345.1473 3592.9081,4353.1092 C 3626.4802,4361.0071 3638.4234,4422.868 3619.9839,4490.9966 z" id="path3560"/><path sodipodi:nodetypes="ccccccccc" style="fill:#1a1a1a;fill-opacity:0.77647059;stroke:none;stroke-width:1;stroke-linecap:round;stroke-linejoin:round;stroke-miterlimit:4;stroke-opacity:1" id="rect3506" d="M 2655.4143,3987.3732 L 3348.5708,4230.1718 C 3360.2336,4233.63 3357.2991,4246.5828 3345.6065,4251.4058 L 3231.2251,4315.3901 C 3214.4717,4325.6354 3207.616,4322.9784 3195.5919,4319.1587 L 2473.4356,4053.0821 C 2465.3876,4050.3469 2468.322,4044.2622 2480.0147,4039.439 L 2627.9605,3988.0746 C 2639.6532,3983.2514 2647.3664,3984.638 2655.4143,3987.3732 z"/><path sodipodi:nodetypes="cccccc" style="fill:url(#linearGradient3743);fill-opacity:1;fill-rule:evenodd;stroke:none;stroke-width:0.3873364px;stroke-linecap:butt;stroke-linejoin:miter;stroke-opacity:1" id="path2455" d="M 2094.2146,4249.0464 L 2108.4268,4475.1304 C 2111.2276,4499.4297 2120.6639,4501.6108 2128.9794,4507.5273 L 3077.9848,4943.1551 L 3072.567,4677.677 L 2094.2146,4249.0464 z"/><path sodipodi:nodetypes="ccccc" style="fill:url(#linearGradient3740);fill-opacity:1;fill-rule:evenodd;stroke:none;stroke-width:0.3873364px;stroke-linecap:butt;stroke-linejoin:miter;stroke-opacity:1" id="path2453" d="M 2093.5444,4249.1219 L 3072.7403,4679.1385 L 3180.2516,4436.1954 L 2213.7788,4062.4764 L 2093.5444,4249.1219 z"/><path sodipodi:nodetypes="cccccccsccssccsccssccsccssccssccssccsccssccsccssccsccssccsccssccsccssccsccssccsccssccsccssccsccssccsccssccsccssccsccssccsccssccsccssc" style="fill:url(#linearGradient3737);fill-opacity:1;stroke:none;stroke-width:1.00260413;stroke-linecap:butt;stroke-linejoin:miter;stroke-miterlimit:4;stroke-opacity:1" id="path3509" d="M 2822.4572,3515.5305 C 2734.4073,3584.0608 2616.5743,3863.4306 2588.0042,4096.5213 L 3175.4985,4311.3164 L 3189.3904,4223.174 C 3239.8909,4000.4188 3297.7866,3768.2057 3392.0738,3682.5195 C 3150.2519,3570.3627 3014.9353,3589.6479 2822.4572,3515.5305 z M 2824.768,3549.4883 C 2827.2601,3549.2384 2829.399,3549.7016 2830.958,3551.1647 C 2835.0689,3555.0348 2833.2293,3563.8512 2826.7022,3570.895 L 2826.4443,3571.024 C 2819.812,3578.0763 2811.1202,3580.7284 2806.9721,3576.827 C 2802.8204,3572.9254 2804.8531,3564.0199 2811.4853,3556.9677 C 2815.6305,3552.5602 2820.6056,3549.9047 2824.768,3549.4883 z M 2785.1783,3598.7496 C 2786.6964,3598.6695 2788.107,3599.0119 2789.3049,3599.7812 C 2794.0579,3602.8341 2793.6605,3611.7803 2788.5311,3619.8985 L 2788.5311,3620.1564 C 2783.2999,3628.3022 2775.1399,3632.3897 2770.3485,3629.3123 C 2765.5534,3626.2347 2765.8877,3617.0828 2771.1222,3608.9371 C 2775.0429,3602.8279 2780.6238,3598.99 2785.1783,3598.7496 z M 2749.0704,3659.3591 C 2750.5824,3659.1994 2752.0871,3659.4274 2753.3262,3660.1328 C 2758.2303,3662.9319 2758.409,3672.0026 2753.7129,3680.379 L 2753.5842,3680.508 C 2748.7845,3688.9172 2740.8635,3693.5172 2735.9169,3690.6955 C 2730.9705,3687.8737 2730.8623,3678.7296 2735.6589,3670.3204 C 2739.257,3664.0136 2744.5349,3659.8382 2749.0704,3659.3591 z M 2717.2184,3726.0296 C 2717.8655,3725.9318 2718.534,3725.9646 2719.1526,3726.0296 C 2719.8594,3726.1038 2720.5717,3726.2425 2721.2159,3726.5454 C 2726.3279,3728.9493 2727.1718,3737.9425 2723.1505,3746.6626 L 2723.1505,3746.7915 C 2719.0284,3755.5524 2711.4103,3760.821 2706.2569,3758.3976 C 2701.1032,3755.9742 2700.332,3746.7832 2704.4516,3738.0225 C 2707.6059,3731.315 2712.6755,3726.7142 2717.2184,3726.0296 z M 2693.3613,3792.4421 C 2694.0715,3792.4779 2694.7648,3792.5614 2695.4246,3792.8289 C 2700.6593,3794.9523 2702.0627,3803.8919 2698.5196,3812.8171 L 2698.3908,3812.9462 C 2694.7504,3821.9175 2687.5486,3827.4663 2682.271,3825.326 C 2676.9941,3823.1854 2675.6648,3814.1799 2679.3052,3805.2087 C 2682.4873,3797.3589 2688.3912,3792.1919 2693.3613,3792.4421 z M 2670.0204,3856.9203 C 2670.7293,3856.8949 2671.402,3856.9683 2672.0837,3857.1783 C 2677.48,3858.844 2679.6181,3867.583 2676.8549,3876.7796 L 2676.8549,3877.0375 C 2674.0001,3886.2881 2667.2086,3892.386 2661.7672,3890.7069 C 2656.3242,3889.0275 2654.2692,3880.2271 2657.1248,3870.9766 C 2659.6218,3862.8822 2665.0458,3857.098 2670.0204,3856.9203 z M 3318.476,3705.543 C 3320.0004,3705.4592 3321.3959,3705.8083 3322.6026,3706.5747 C 3327.3692,3709.6158 3327.1963,3718.561 3322.0868,3726.6919 L 3321.9576,3726.8208 C 3316.7527,3734.9794 3308.5738,3739.1715 3303.7749,3736.1057 C 3298.9818,3733.04 3299.3302,3723.8892 3304.5487,3715.7307 C 3308.4641,3709.6118 3313.9153,3705.7946 3318.476,3705.543 z M 2651.5795,3926.0409 C 2652.2905,3926.048 2652.973,3926.187 2653.6427,3926.4278 C 2658.9587,3928.3386 2660.6926,3937.2264 2657.5115,3946.2871 L 2657.3826,3946.416 C 2654.107,3955.5266 2647.138,3961.3668 2641.7788,3959.4406 C 2636.4196,3957.5143 2634.6365,3948.5629 2637.91,3939.4525 C 2640.7756,3931.4807 2646.6032,3925.9911 2651.5795,3926.0409 z M 3284.6894,3767.4421 C 3285.4041,3767.498 3286.0945,3767.6717 3286.7527,3767.958 C 3291.9307,3770.2295 3292.9987,3779.1254 3289.2027,3787.9461 L 3289.0739,3788.2041 C 3285.1871,3797.0679 3277.7811,3802.358 3272.5675,3800.0681 C 3267.3597,3797.7781 3266.3471,3788.8148 3270.2462,3779.9509 C 3273.6582,3772.195 3279.7223,3767.0505 3284.6894,3767.4421 z M 2633.5256,3988.1979 C 2634.2354,3988.1591 2634.9046,3988.1299 2635.5889,3988.3269 C 2641.017,3989.8897 2643.3353,3998.6806 2640.7471,4007.9281 L 2640.7471,4008.0572 C 2638.0694,4017.3605 2631.3897,4023.6887 2625.9173,4022.1134 C 2620.4442,4020.5379 2618.2097,4011.6863 2620.8877,4002.3831 C 2623.2314,3994.2427 2628.5567,3988.4701 2633.5256,3988.1979 z M 3255.0294,3832.694 C 3255.7454,3832.6706 3256.4074,3832.7402 3257.0928,3832.9519 C 3262.4912,3834.6322 3264.6523,3843.364 3261.8639,3852.5533 L 3261.7352,3852.8113 C 3258.8619,3862.0541 3252.213,3868.1745 3246.7762,3866.4807 C 3241.3448,3864.7868 3239.2485,3855.8642 3242.1338,3846.6213 C 3244.6593,3838.5339 3250.0499,3832.8583 3255.0294,3832.694 z M 2618.1799,4060.1555 C 2618.8806,4060.0364 2619.5409,4060.0375 2620.2432,4060.1555 C 2625.8138,4061.0924 2629.1155,4069.5017 2627.5936,4078.9832 L 2627.5936,4079.1122 C 2625.9879,4088.6593 2620.0555,4095.6602 2614.44,4094.7159 C 2608.8241,4093.7714 2605.6132,4085.3062 2607.2184,4075.7593 C 2608.6235,4067.4055 2613.2742,4060.9897 2618.1799,4060.1555 z M 3231.8173,3898.2039 C 3232.5291,3898.1261 3233.3156,3898.1738 3234.0094,3898.3328 C 3239.5204,3899.5949 3242.2749,3908.0424 3240.1992,3917.4183 L 3240.0706,3917.6763 C 3237.9128,3927.1126 3231.6939,3933.7785 3226.1432,3932.5063 C 3220.5975,3931.234 3217.7851,3922.4702 3219.9533,3913.0339 C 3221.8507,3904.7769 3226.8653,3898.7489 3231.8173,3898.2039 z M 3212.8605,3962.811 C 3213.5658,3962.6894 3214.2214,3962.6955 3214.9238,3962.811 C 3220.5026,3963.7278 3223.7626,3972.0228 3222.2745,3981.5097 L 3222.2745,3981.7677 C 3220.7085,3991.3204 3214.8689,3998.2956 3209.2497,3997.3713 C 3203.6355,3996.4471 3200.3231,3987.9675 3201.8994,3978.4148 C 3203.2789,3970.0561 3207.9577,3963.6629 3212.8605,3962.811 z M 3193.3883,4033.4792 C 3194.0931,4033.3574 3194.7443,4033.3635 3195.4516,4033.4792 C 3201.0299,4034.396 3204.4191,4042.6909 3202.9311,4052.1778 L 3202.802,4052.4357 C 3201.2354,4061.9883 3195.3967,4068.9636 3189.7775,4068.0395 C 3184.1625,4067.1153 3180.8558,4058.6356 3182.4268,4049.0829 C 3183.8059,4040.7242 3188.4806,4034.3309 3193.3883,4033.4792 z M 3175.4631,4104.921 C 3176.1676,4104.7993 3176.8241,4104.8055 3177.5264,4104.921 C 3183.1044,4105.8378 3186.3653,4114.2616 3184.8772,4123.7486 L 3184.8772,4123.8776 C 3183.3099,4133.4306 3177.4716,4140.5345 3171.8524,4139.6103 C 3166.2365,4138.6864 3162.9265,4130.0775 3164.5021,4120.5247 C 3165.8804,4112.1662 3170.5603,4105.7728 3175.4631,4104.921 z M 3158.0542,4178.813 C 3158.7582,4178.6917 3159.5439,4178.6974 3160.2462,4178.813 C 3165.8238,4179.7301 3169.085,4188.0247 3167.5971,4197.5117 L 3167.4679,4197.7695 C 3165.901,4207.3226 3160.0626,4214.2975 3154.4435,4213.3732 C 3148.828,4212.4495 3145.5217,4203.9694 3147.0928,4194.4167 C 3148.4714,4186.0585 3153.1473,4179.6648 3158.0542,4178.813 z M 3142.4882,4252.9179 C 3143.1655,4252.7363 3143.9341,4252.6718 3144.6311,4252.7219 C 3150.1658,4253.1199 3154.0957,4260.9373 3153.4893,4270.345 L 3153.3861,4270.6085 C 3152.7085,4280.0879 3147.6243,4287.4288 3142.0482,4287.0277 C 3136.4758,4286.6267 3132.4854,4278.632 3133.1671,4269.1526 C 3133.7677,4260.858 3137.7672,4254.1894 3142.4882,4252.9179 z"/><path style="fill:none;fill-rule:evenodd;stroke:#000000;stroke-width:0.20190132px;stroke-linecap:butt;stroke-linejoin:miter;stroke-opacity:1" id="path2457" d="M 3077.8245,4949.257 C 3079.7525,4949.257 3081.6802,4949.257 3077.8245,4949.257 z"/><path sodipodi:nodetypes="ccccccccc" style="fill:#000000;fill-opacity:0.8;stroke:none;stroke-width:1;stroke-linecap:round;stroke-linejoin:round;stroke-miterlimit:4;stroke-opacity:1" d="M 2872.2864,4346.2003 L 3109.3843,4437.6445 C 3119.3776,4442.0381 3123.9906,4453.8667 3119.7277,4464.166 L 3058.8127,4611.3337 C 3054.5497,4621.633 3043.0727,4626.3874 3033.0796,4621.9939 L 2787.3744,4513.9665 C 2777.3814,4509.5729 2772.7682,4497.7443 2777.0311,4487.445 L 2838.8854,4357.3756 C 2843.1481,4347.0763 2857.6925,4340.7763 2872.2864,4346.2003 z" id="path3504"/><path sodipodi:nodetypes="ccccccccc" style="fill:url(#linearGradient3731);fill-opacity:1;stroke:none;stroke-width:1;stroke-linecap:round;stroke-linejoin:round;stroke-miterlimit:4;stroke-opacity:1" id="rect3669" d="M 2869.5726,4352.0694 L 3109.2099,4441.9467 C 3119.0554,4446.1467 3123.6004,4457.4541 3119.4004,4467.2997 L 3059.3857,4607.9826 C 3055.1857,4617.8281 3043.8782,4622.373 3034.0329,4618.173 L 2791.9593,4514.9058 C 2782.114,4510.7057 2777.5689,4499.3983 2781.7689,4489.5528 L 2844.2199,4362.2598 C 2848.4195,4352.4144 2859.7271,4347.8694 2869.5726,4352.0694 z"/><path sodipodi:nodetypes="ccccccccc" style="fill:url(#radialGradient3728);fill-opacity:1;stroke:none;stroke-width:1;stroke-linecap:round;stroke-linejoin:round;stroke-miterlimit:4;stroke-opacity:1" id="rect2511" d="M 2879.5516,4406.4597 L 2938.5638,4429.0907 C 2946.3217,4432.5637 2949.7806,4441.4586 2946.319,4449.0342 L 2921.8589,4502.1548 C 2918.3973,4509.7304 2909.3647,4513.0332 2901.6068,4509.5601 L 2845.4866,4486.2062 C 2837.7285,4482.7331 2834.2695,4473.8382 2837.7312,4466.2625 L 2862.1911,4413.142 C 2865.6527,4405.5663 2871.7936,4402.9865 2879.5516,4406.4597 z"/><path sodipodi:nodetypes="ccccccccc" style="fill:url(#radialGradient3725);fill-opacity:1;stroke:none;stroke-width:1;stroke-linecap:round;stroke-linejoin:round;stroke-miterlimit:4;stroke-opacity:1" id="rect3484" d="M 2986.5487,4446.9451 L 3046.2838,4470.2991 C 3054.0419,4473.7722 3057.5008,4482.667 3054.0391,4490.2427 L 3030.3022,4547.7009 C 3026.8405,4555.2766 3017.808,4558.5794 3010.0499,4555.1063 L 2950.3148,4530.3063 C 2942.5566,4526.8333 2939.0976,4517.9384 2942.5593,4510.3628 L 2966.2963,4454.3504 C 2969.758,4446.7747 2978.7905,4443.472 2986.5487,4446.9451 z"/></g><metadata><rdf:RDF><cc:Work><dc:format>image/svg+xml</dc:format><dc:type rdf:resource="http://purl.org/dc/dcmitype/StillImage"/><cc:license rdf:resource="http://creativecommons.org/licenses/publicdomain/"/><dc:publisher><cc:Agent rdf:about="http://openclipart.org/"><dc:title>Open Clip Art Library</dc:title></cc:Agent></dc:publisher><dc:title>matrix printer</dc:title><dc:date>2008-05-18T09:06:22</dc:date><dc:description/><dc:source>http://openclipart.org/detail/16810/matrix-printer-by-ivak</dc:source><dc:creator><cc:Agent><dc:title>ivak</dc:title></cc:Agent></dc:creator><dc:subject><rdf:Bag><rdf:li>clip art</rdf:li><rdf:li>clipart</rdf:li><rdf:li>hardware</rdf:li><rdf:li>hardware</rdf:li><rdf:li>image</rdf:li><rdf:li>media</rdf:li><rdf:li>office</rdf:li><rdf:li>office</rdf:li><rdf:li>printer</rdf:li><rdf:li>printer</rdf:li><rdf:li>public domain</rdf:li><rdf:li>svg</rdf:li></rdf:Bag></dc:subject></cc:Work><cc:License rdf:about="http://creativecommons.org/licenses/publicdomain/"><cc:permits rdf:resource="http://creativecommons.org/ns#Reproduction"/><cc:permits rdf:resource="http://creativecommons.org/ns#Distribution"/><cc:permits rdf:resource="http://creativecommons.org/ns#DerivativeWorks"/></cc:License></rdf:RDF></metadata></svg>
