<?xml version="1.0" encoding="UTF-8" standalone="no"?>
<!-- Created with Inkscape (http://www.inkscape.org/) -->
<svg xmlns:dc="http://purl.org/dc/elements/1.1/" xmlns:cc="http://creativecommons.org/ns#" xmlns:rdf="http://www.w3.org/1999/02/22-rdf-syntax-ns#" xmlns:svg="http://www.w3.org/2000/svg" xmlns="http://www.w3.org/2000/svg" xmlns:xlink="http://www.w3.org/1999/xlink" xmlns:sodipodi="http://sodipodi.sourceforge.net/DTD/sodipodi-0.dtd" xmlns:inkscape="http://www.inkscape.org/namespaces/inkscape" id="svg2211" sodipodi:version="0.32" inkscape:version="0.46" width="201.39604" height="312.06711" version="1.0" sodipodi:docbase="/user/amburns/home/Documents/images" sodipodi:docname="speciwoman_Light_switch_on.svg" inkscape:output_extension="org.inkscape.output.svg.inkscape">
  <defs id="defs2214">
    <inkscape:perspective sodipodi:type="inkscape:persp3d" inkscape:vp_x="0 : 180 : 1" inkscape:vp_y="0 : 1000 : 0" inkscape:vp_z="224 : 180 : 1" inkscape:persp3d-origin="112 : 120 : 1" id="perspective45"/>
    <linearGradient inkscape:collect="always" id="linearGradient14426">
      <stop style="stop-color: rgb(69, 66, 66); stop-opacity: 1;" offset="0" id="stop14428"/>
      <stop style="stop-color: rgb(69, 66, 66); stop-opacity: 0;" offset="1" id="stop14430"/>
    </linearGradient>
    <filter inkscape:collect="always" x="-0.12249998" width="1.245" y="-0.15668607" height="1.3133721" id="filter13274">
      <feGaussianBlur inkscape:collect="always" stdDeviation="0.67997904" id="feGaussianBlur13276"/>
    </filter>
    <filter inkscape:collect="always" x="-0.83079505" width="2.6615901" y="-0.17841709" height="1.3568342" id="filter14414">
      <feGaussianBlur inkscape:collect="always" stdDeviation="1.6051881" id="feGaussianBlur14416"/>
    </filter>
    <filter inkscape:collect="always" x="-1.2000004" width="3.4000008" y="-0.39999995" height="1.8" id="filter16635">
      <feGaussianBlur inkscape:collect="always" stdDeviation="2.4221898" id="feGaussianBlur16637"/>
    </filter>
    <filter inkscape:collect="always" x="-0.6937499" width="2.3874998" y="-0.34687504" height="1.6937501" id="filter17798">
      <feGaussianBlur inkscape:collect="always" stdDeviation="2.6606239" id="feGaussianBlur17800"/>
    </filter>
    <radialGradient inkscape:collect="always" xlink:href="#linearGradient14426" id="radialGradient17805" gradientUnits="userSpaceOnUse" gradientTransform="matrix(2,6.14283,-5.70522,1.85752,1054.17,52.158)" cx="-31.004025" cy="159.76569" fx="-31.004025" fy="159.76569" r="1.695533"/>
    <filter inkscape:collect="always" x="-0.09582381" width="1.1916476" y="-0.11922205" height="1.2384441" id="filter17863">
      <feGaussianBlur inkscape:collect="always" stdDeviation="0.59132314" id="feGaussianBlur17865"/>
    </filter>
    <filter inkscape:collect="always" x="-0.075982198" width="1.1519644" y="-0.27165586" height="1.5433117" id="filter19861">
      <feGaussianBlur inkscape:collect="always" stdDeviation="0.4152022" id="feGaussianBlur19863"/>
    </filter>
    <radialGradient inkscape:collect="always" xlink:href="#linearGradient14426" id="radialGradient19918" gradientUnits="userSpaceOnUse" gradientTransform="matrix(2,6.14283,-5.70522,1.85752,1054.17,52.158)" cx="-31.004025" cy="159.76569" fx="-31.004025" fy="159.76569" r="1.695533"/>
  </defs>
  <sodipodi:namedview inkscape:window-height="949" inkscape:window-width="1280" inkscape:pageshadow="2" inkscape:pageopacity="0.0" guidetolerance="10.0" gridtolerance="10.0" objecttolerance="10.0" borderopacity="1.0" bordercolor="#666666" pagecolor="#ffffff" id="base" showguides="true" inkscape:guide-bbox="true" inkscape:zoom="2.0388889" inkscape:cx="112" inkscape:cy="180" inkscape:window-x="0" inkscape:window-y="25" inkscape:current-layer="svg2211" showgrid="false"/>
  <g id="g19895" transform="matrix(1.80323,0,0,1.76989,-39.944007,-161.90427)">
    <rect ry="3.3910651" y="92.105865" x="22.768579" height="174.63985" width="110.45184" id="rect2220" style="opacity:0.50520803;fill:#000000;fill-opacity:1;fill-rule:nonzero;stroke:#000000;stroke-width:1.24600005;stroke-linecap:butt;stroke-linejoin:round;stroke-miterlimit:4;stroke-dasharray:none;stroke-dashoffset:0;stroke-opacity:1"/>
    <rect ry="0" y="97.433327" x="27.853823" height="164.9538" width="98.343597" id="rect3194" style="opacity:0.50520803;fill:#000000;fill-opacity:1;fill-rule:nonzero;stroke:#000000;stroke-width:1.24328995;stroke-linecap:butt;stroke-linejoin:round;stroke-miterlimit:4;stroke-dasharray:none;stroke-dashoffset:0;stroke-opacity:1"/>
    <path id="path6249" d="M 33.54392,92.305348 L 33.41892,92.430348 L 24.29392,92.430348 L 27.60642,96.492848 L 28.79392,96.492848 L 28.76267,96.524098 L 126.57517,96.742848 L 131.32517,92.524098 L 123.73142,92.492848 L 123.57517,92.305348 L 65.98142,92.367848 L 33.54392,92.305348 z" style="opacity:0.59375;fill:#000000;fill-opacity:1;fill-rule:nonzero;stroke:#000000;stroke-width:1.04650998;stroke-linecap:butt;stroke-linejoin:round;stroke-miterlimit:4;stroke-dasharray:none;stroke-dashoffset:0;stroke-opacity:1"/>
    <path sodipodi:nodetypes="cccccccccccc" id="path7226" d="M 33.728871,267.26893 L 33.603871,267.14393 L 25.205528,265.93284 L 27.791371,263.08143 L 28.978871,263.08143 L 28.947621,263.05018 L 126.76012,262.83143 L 131.51012,267.05018 L 123.91637,267.08143 L 123.76012,267.26893 L 66.166371,267.20643 L 33.728871,267.26893 z" style="opacity:0.59375;fill:#000000;fill-opacity:1;fill-rule:nonzero;stroke:#000000;stroke-width:1.04650998;stroke-linecap:butt;stroke-linejoin:round;stroke-miterlimit:4;stroke-dasharray:none;stroke-dashoffset:0;stroke-opacity:1"/>
    <path transform="matrix(0.896992,0,0,0.776992,-0.806396,39.2396)" d="M 92.285416,119.4766 A 6.0554733,6.0554733 0 1 1 80.174469,119.4766 A 6.0554733,6.0554733 0 1 1 92.285416,119.4766 z" sodipodi:ry="6.0554733" sodipodi:rx="6.0554733" sodipodi:cy="119.4766" sodipodi:cx="86.229942" id="path7228" style="opacity:0.59375;fill:#000000;fill-opacity:1;fill-rule:nonzero;stroke:#000000;stroke-width:1.24600005;stroke-linecap:butt;stroke-linejoin:round;stroke-miterlimit:4;stroke-dasharray:none;stroke-dashoffset:0;stroke-opacity:1" sodipodi:type="arc"/>
    <path transform="matrix(0.896992,0,0,0.776992,-1.04861,132.736)" d="M 92.285416,119.4766 A 6.0554733,6.0554733 0 1 1 80.174469,119.4766 A 6.0554733,6.0554733 0 1 1 92.285416,119.4766 z" sodipodi:ry="6.0554733" sodipodi:rx="6.0554733" sodipodi:cy="119.4766" sodipodi:cx="86.229942" id="path7230" style="opacity:0.59375;fill:#000000;fill-opacity:1;fill-rule:nonzero;stroke:#000000;stroke-width:1.24600005;stroke-linecap:butt;stroke-linejoin:round;stroke-miterlimit:4;stroke-dasharray:none;stroke-dashoffset:0;stroke-opacity:1" sodipodi:type="arc"/>
    <g id="g19879">
      <rect style="opacity:1;fill:#0d0d0d;fill-opacity:1;fill-rule:nonzero;stroke:#0e0b0b;stroke-width:1.22872996;stroke-linecap:butt;stroke-linejoin:round;stroke-miterlimit:4;stroke-dasharray:none;stroke-dashoffset:0;stroke-opacity:1" id="rect9172" width="16.245935" height="39.256737" x="68.054893" y="158.70743"/>
      <g id="g19865">
        <path sodipodi:nodetypes="ccccc" id="rect16654" d="M 90.347662,164.04488 L 89.621006,178.09357 L 81.87,178.09358 L 81.14334,159.68494 L 90.347662,164.04488 z" style="opacity:0.53645803;fill:#030000;fill-opacity:1;fill-rule:nonzero;stroke:none;stroke-width:1.24600005;stroke-linecap:butt;stroke-linejoin:round;stroke-miterlimit:4;stroke-dashoffset:0;stroke-opacity:1;filter:url(#filter17798)"/>
        <rect ry="0.24221888" y="153.14503" x="69.032402" height="9.4465389" width="11.38429" id="rect10199" style="opacity:0.96354197;fill:#746a6a;fill-opacity:1;fill-rule:nonzero;stroke:#746a6a;stroke-width:1.24600005;stroke-linecap:butt;stroke-linejoin:round;stroke-miterlimit:4;stroke-dasharray:none;stroke-dashoffset:0;stroke-opacity:1"/>
        <path sodipodi:nodetypes="ccccc" id="rect12222" d="M 69.274613,185.8446 L 83.56553,185.8446 L 82.846935,189.48191 L 70.47563,189.72212 L 69.274613,185.8446 z" style="opacity:0.78645803;fill:#cccccc;fill-opacity:1;fill-rule:nonzero;stroke:none;stroke-width:1.24600005;stroke-linecap:butt;stroke-linejoin:round;stroke-miterlimit:4;stroke-dashoffset:0;stroke-opacity:1"/>
        <rect ry="0.24221888" y="174.70251" x="70.001274" height="10.657633" width="13.56426" id="rect11170" style="opacity:0.60416697;fill:#746a6a;fill-opacity:1;fill-rule:nonzero;stroke:#746a6a;stroke-width:1.24600005;stroke-linecap:butt;stroke-linejoin:round;stroke-miterlimit:4;stroke-dasharray:none;stroke-dashoffset:0;stroke-opacity:1;filter:url(#filter17863)"/>
        <path sodipodi:nodetypes="ccccc" id="rect13280" d="M 80.295579,163.43935 C 81.244897,167.22274 81.629928,172.96087 82.959987,174.09699 L 70.122384,173.85477 L 69.153508,163.68157 L 80.295579,163.43935 z" style="opacity:0.60416697;fill:#746a6a;fill-opacity:1;fill-rule:nonzero;stroke:#746a6a;stroke-width:1.24600005;stroke-linecap:butt;stroke-linejoin:round;stroke-miterlimit:4;stroke-dashoffset:0;stroke-opacity:1"/>
        <path sodipodi:nodetypes="ccccc" id="path11172" d="M 82.838876,173.49142 L 70.001274,173.73364 L 69.516836,163.31823 L 79.932249,163.56045 L 82.838876,173.49142 z" style="opacity:0.60416697;fill:#060000;fill-opacity:1;fill-rule:nonzero;stroke:none;stroke-width:1.24600005;stroke-linecap:butt;stroke-linejoin:round;stroke-miterlimit:4;stroke-dashoffset:0;stroke-opacity:1;filter:url(#filter13274)"/>
        <path sodipodi:nodetypes="ccccc" id="path11175" d="M 83.807755,173.49143 L 80.416689,163.80267 L 80.901127,153.14504 L 83.323317,162.10714 L 83.807755,173.49143 z" style="opacity:0.60416697;fill:#746a6a;fill-opacity:1;fill-rule:nonzero;stroke:#746a6a;stroke-width:1.24600005;stroke-linecap:butt;stroke-linejoin:round;stroke-miterlimit:4;stroke-dashoffset:0;stroke-opacity:1"/>
        <path transform="scale(0.779255,1.28328)" style="font-size:45.38999939px;font-style:normal;font-weight:normal;fill:#cccccc;fill-opacity:1;stroke:none;stroke-width:1px;stroke-linecap:butt;stroke-linejoin:miter;stroke-opacity:1;font-family:Bitstream Vera Sans" d="M 95.910498,138.97335 C 95.504173,138.97336 95.180962,139.1248 94.940863,139.4277 C 94.702609,139.73059 94.583483,140.14338 94.583484,140.66606 C 94.583483,141.18689 94.702609,141.59876 94.940863,141.90165 C 95.180962,142.20455 95.504173,142.35599 95.910498,142.35599 C 96.316819,142.35599 96.638183,142.20455 96.874593,141.90165 C 97.112842,141.59876 97.231969,141.18689 97.231972,140.66606 C 97.231969,140.14338 97.112842,139.73059 96.874593,139.4277 C 96.638183,139.1248 96.316819,138.97336 95.910498,138.97335 M 95.910498,138.51901 C 96.49043,138.51901 96.954007,138.71386 97.301232,139.10356 C 97.64845,139.49142 97.82206,140.01225 97.822064,140.66606 C 97.82206,141.31802 97.64845,141.83886 97.301232,142.22856 C 96.954007,142.61641 96.49043,142.81034 95.910498,142.81034 C 95.328716,142.81034 94.863291,142.61641 94.514224,142.22856 C 94.167002,141.8407 93.993391,141.31987 93.993391,140.66606 C 93.993391,140.01225 94.167002,139.49142 94.514224,139.10356 C 94.863291,138.71386 95.328716,138.51901 95.910498,138.51901 M 98.697506,138.59381 L 99.451051,138.59381 L 101.28505,142.05402 L 101.28505,138.59381 L 101.82804,138.59381 L 101.82804,142.73 L 101.0745,142.73 L 99.240502,139.26978 L 99.240502,142.73 L 98.697506,142.73 L 98.697506,138.59381" id="text12218"/>
        <path sodipodi:nodetypes="ccccc" id="path13283" d="M 84.049972,173.97586 L 80.658906,164.2871 L 81.143344,153.62947 L 83.565534,162.59157 L 84.049972,173.97586 z" style="opacity:1;fill:url(#radialGradient19918);fill-opacity:1;fill-rule:nonzero;stroke:none;stroke-width:1.24600005;stroke-linecap:butt;stroke-linejoin:round;stroke-miterlimit:4;stroke-dashoffset:0;stroke-opacity:1;filter:url(#filter14414)"/>
        <path sodipodi:nodetypes="ccccc" id="rect15406" d="M 82.594638,186.56922 L 82.352428,188.99141 L 70.968138,188.99141 L 70.725918,186.81144 L 82.594638,186.56922 z" style="opacity:0.86979197;fill:#746a6a;fill-opacity:1;fill-rule:nonzero;stroke:#746a6a;stroke-width:1.24600005;stroke-linecap:butt;stroke-linejoin:round;stroke-miterlimit:4;stroke-dashoffset:0;stroke-opacity:1;filter:url(#filter19861)"/>
        <path sodipodi:nodetypes="ccccc" id="path15411" d="M 87.198819,174.70251 L 82.354441,177.1247 L 82.354441,162.59156 L 87.198818,164.77154 L 87.198819,174.70251 z" style="opacity:0.53645803;fill:#030000;fill-opacity:1;fill-rule:nonzero;stroke:none;stroke-width:1.24600005;stroke-linecap:butt;stroke-linejoin:round;stroke-miterlimit:4;stroke-dashoffset:0;stroke-opacity:1;filter:url(#filter16635)"/>
      </g>
    </g>
  </g>
  <metadata>
    <rdf:RDF>
      <cc:Work>
        <dc:format>image/svg+xml</dc:format>
        <dc:type rdf:resource="http://purl.org/dc/dcmitype/StillImage"/>
        <cc:license rdf:resource="http://creativecommons.org/licenses/publicdomain/"/>
        <dc:publisher>
          <cc:Agent rdf:about="http://openclipart.org/">
            <dc:title>Open Clip Art Library</dc:title>
          </cc:Agent>
        </dc:publisher>
        <dc:title>Light switch on</dc:title>
        <dc:date>2008-07-22T08:39:18</dc:date>
        <dc:description>Light switch on</dc:description>
        <dc:source>http://openclipart.org/detail/17993/light-switch-on-by-speciwoman</dc:source>
        <dc:creator>
          <cc:Agent>
            <dc:title>speciwoman</dc:title>
          </cc:Agent>
        </dc:creator>
        <dc:subject>
          <rdf:Bag>
            <rdf:li>clip art</rdf:li>
            <rdf:li>clipart</rdf:li>
            <rdf:li>image</rdf:li>
            <rdf:li>media</rdf:li>
            <rdf:li>png</rdf:li>
            <rdf:li>public domain</rdf:li>
            <rdf:li>svg</rdf:li>
            <rdf:li>switch</rdf:li>
            <rdf:li>switch</rdf:li>
          </rdf:Bag>
        </dc:subject>
      </cc:Work>
      <cc:License rdf:about="http://creativecommons.org/licenses/publicdomain/">
        <cc:permits rdf:resource="http://creativecommons.org/ns#Reproduction"/>
        <cc:permits rdf:resource="http://creativecommons.org/ns#Distribution"/>
        <cc:permits rdf:resource="http://creativecommons.org/ns#DerivativeWorks"/>
      </cc:License>
    </rdf:RDF>
  </metadata>
</svg>
