<?xml version="1.0" encoding="utf-8"?>
<!-- Generator: Adobe Illustrator 14.0.0, SVG Export Plug-In . SVG Version: 6.00 Build 43363)  -->
<!DOCTYPE svg PUBLIC "-//W3C//DTD SVG 1.1//EN" "http://www.w3.org/Graphics/SVG/1.1/DTD/svg11.dtd">
<svg version="1.1" id="Layer_1" xmlns="http://www.w3.org/2000/svg" xmlns:xlink="http://www.w3.org/1999/xlink" x="0px" y="0px"
	 width="478.476px" height="212.989px" viewBox="0 0 478.476 212.989" enable-background="new 0 0 478.476 212.989"
	 xml:space="preserve">
<path d="M196.077,79.427c-4.872,0-8.221-3.812-8.221-8.691c0-4.727,3.501-8.539,8.373-8.539c5.024,0,8.222,3.812,8.222,8.539
	C204.451,76.073,200.949,79.427,196.077,79.427z M202.472,177.168h-12.638V94.065h12.638V177.168z"/>
<path d="M228.048,62.501c6.699-1.22,15.529-2.287,26.34-2.287c37.454,0,40.499,24.092,40.499,33.241
	c0,27.294-21.772,37.053-42.326,37.053c-4.415,0-8.374-0.152-11.876-1.067v47.727h-12.637V62.501z M240.685,118.92
	c3.197,0.915,7.309,1.22,12.181,1.22c18.271,0,29.385-9.148,29.385-25.77c0-16.62-11.876-23.939-27.71-23.939
	c-6.395,0-11.114,0.61-13.855,1.22V118.92z"/>
<path d="M368.729,157.346c0,6.861,0.152,14.028,1.218,19.822h-11.571l-1.218-10.674h-0.457
	c-4.263,6.557-12.789,12.504-24.513,12.504c-15.834,0-24.208-11.589-24.208-23.635c0-19.976,17.357-30.802,48.112-30.649
	c0-7.014,0-22.872-18.88-22.872c-7.155,0-14.616,1.982-20.249,5.947l-3.045-8.692c6.698-4.422,15.986-7.014,25.273-7.014
	c23.447,0,29.537,16.621,29.537,33.089V157.346z M356.245,134.016c-15.683,0-35.323,2.287-35.323,19.822
	c0,10.674,6.699,15.401,14.312,15.401c12.333,0,21.012-9.454,21.012-19.518V134.016z"/>
<path d="M460.081,156.583c0,6.709,0.305,14.943,0.609,20.585h-11.267l-0.609-14.181h-0.457
	c-4.263,8.691-13.702,16.011-27.101,16.011c-19.184,0-34.104-16.621-34.104-42.237c0-28.057,16.443-44.525,35.779-44.525
	c12.18,0,20.401,5.947,24.208,12.809h0.305V55.183h12.637V156.583z M447.444,127.307c0-16.621-11.724-24.854-22.381-24.854
	c-15.683,0-24.97,14.638-24.97,33.698c0,17.535,8.222,32.479,24.513,32.479c13.702,0,22.838-12.046,22.838-25.312V127.307z"/>
<g>
	<path d="M134.561,111.497c-0.215-19.824,16.145-29.369,16.882-29.831c-9.226-13.452-23.556-15.277-28.661-15.493
		c-12.201-1.219-23.791,7.215-29.975,7.223c-6.18,0.009-15.744-6.975-25.854-6.77c-13.3,0.209-25.54,7.76-32.38,19.668
		c-13.772,23.99-3.448,59.477,10.034,78.9c6.591,9.495,14.445,20.185,24.749,19.784c9.921-0.4,13.663-6.429,25.647-6.444
		c11.988-0.016,15.372,6.39,25.86,6.177c10.675-0.202,17.425-9.715,23.942-19.263c7.541-11.049,10.632-21.74,10.818-22.292
		C155.391,143.052,134.803,135.191,134.561,111.497"/>
	<path d="M114.868,53.354c5.473-6.625,9.152-15.832,8.145-25.008c-7.875,0.32-17.414,5.25-23.07,11.867
		c-5.066,5.863-9.504,15.234-8.305,24.227C100.418,65.12,109.395,59.972,114.868,53.354"/>
</g>
</svg>
