<?xml version="1.0" encoding="UTF-8" standalone="no"?>
<!-- Created with Inkscape (http://www.inkscape.org/) -->
<svg xmlns:dc="http://purl.org/dc/elements/1.1/" xmlns:cc="http://creativecommons.org/ns#" xmlns:rdf="http://www.w3.org/1999/02/22-rdf-syntax-ns#" xmlns:svg="http://www.w3.org/2000/svg" xmlns="http://www.w3.org/2000/svg" xmlns:sodipodi="http://sodipodi.sourceforge.net/DTD/sodipodi-0.dtd" xmlns:inkscape="http://www.inkscape.org/namespaces/inkscape" height="161.46454" id="svg943" inkscape:version="0.48.0 r9654" sodipodi:docname="Anonymous_linux_powered[1].svg" sodipodi:version="0.32" width="390.32602" version="1.1">
  <defs id="defs945"/>
  <sodipodi:namedview bordercolor="#666666" borderopacity="1.0" id="base" inkscape:cx="152.64329" inkscape:cy="36.066117" inkscape:pageopacity="0.0" inkscape:pageshadow="2" inkscape:window-height="1138" inkscape:window-width="1920" inkscape:window-x="-8" inkscape:window-y="-8" inkscape:zoom="1.6609954" pagecolor="#ffffff" showgrid="false" fit-margin-top="0" fit-margin-left="0" fit-margin-right="0" fit-margin-bottom="0" inkscape:window-maximized="1" inkscape:current-layer="svg943"/>
  <g id="g3479" transform="translate(-17.435455,50.988982)">
    <path class="fil0" d="m 335.06001,45.852046 32.89336,0 0,5.492998 -2.26182,0 c -1.35709,0 -2.52032,0.129247 -3.61892,0.452365 -0.64623,0.19387 -1.16322,0.516988 -1.61558,1.033976 -0.38775,0.452365 -0.58162,0.969353 -0.58162,1.357094 0,1.033976 0.84011,2.520317 2.4557,4.523645 l 9.30578,11.761479 10.92138,-11.761479 c 2.06795,-2.132575 3.0373,-3.812787 3.0373,-4.911386 0,-0.775482 -0.38774,-1.357094 -1.03397,-1.809459 -0.71086,-0.452364 -2.1972,-0.646235 -4.52365,-0.646235 l -2.45569,0 0,-5.492998 27.85273,0 0,5.492998 c -2.71419,0.129247 -5.10526,0.710859 -7.04396,1.680212 -2.00333,1.033976 -4.3944,2.908058 -7.04397,5.686868 l -14.99265,15.574266 18.67619,21.196512 0.71086,0.969352 c 1.80946,2.326447 3.87741,4.200526 6.13924,5.686866 1.22784,0.77549 3.23117,1.22785 5.88074,1.29247 l 0,5.493 -32.11789,0 0,-5.493 2.77881,0 c 2.06795,0 3.42505,-0.12924 4.00666,-0.38774 0.90473,-0.45236 1.42172,-1.16322 1.42172,-2.1972 0,-0.96935 -1.0986,-2.778808 -3.16656,-5.363748 l -11.89072,-14.54029 -13.24782,14.54029 -1.29247,1.615587 -0.71086,0.775483 c -1.0986,1.163223 -1.68021,2.197198 -1.68021,3.101928 0,0.84011 0.32312,1.48634 1.03398,1.87408 0.64623,0.38774 2.19719,0.58161 4.52364,0.58161 l 2.64956,0 0,5.493 -27.52961,0 0,-5.493 c 2.13258,-0.0646 3.81279,-0.25849 5.04063,-0.71086 1.16323,-0.38774 2.39107,-1.03397 3.48967,-1.87408 2.00333,-1.615585 3.36043,-2.843431 4.26515,-3.748161 L 364.4637,77.388319 348.17858,58.712124 c -2.00333,-2.326446 -3.61892,-3.942034 -4.84676,-4.846763 -1.16323,-0.904729 -2.39107,-1.615588 -3.48967,-1.938705 -1.16323,-0.387741 -2.71419,-0.581612 -4.78214,-0.581612 l 0,-5.492998 z m -92.08851,0 24.75081,-0.969353 0,42.069905 c 0,3.68354 0.51699,6.656222 1.55096,8.853421 0.96936,2.132576 2.58494,3.812787 4.6529,5.040631 2.13257,1.16323 4.58827,1.80946 7.4317,1.80946 3.48967,0 7.4317,-0.96935 11.89073,-2.843433 4.39439,-1.874082 8.78879,-4.652893 13.18319,-8.336433 l 0,-30.437673 c 0,-3.231176 -0.19387,-5.363751 -0.71086,-6.397728 -0.45236,-0.969352 -1.35709,-1.809458 -2.52031,-2.39107 -1.22785,-0.581611 -3.16656,-0.904729 -5.7515,-0.904729 l -4.78214,0 0,-5.492998 24.75081,-0.969353 0,48.726127 c 0,3.166552 0.25849,5.299128 0.77548,6.52697 0.58161,1.16323 1.35709,2.00333 2.32645,2.52032 1.03397,0.51699 3.10193,0.77548 6.20385,0.77548 l 2.00333,0 0,5.493 -21.64887,1.0986 0,-12.084595 c -6.00999,4.782135 -11.17987,8.013315 -15.63889,9.822775 -4.45902,1.80946 -8.98267,2.71419 -13.57094,2.71419 -3.36042,0 -6.3331,-0.45237 -8.85342,-1.3571 -2.45569,-0.90473 -4.71752,-2.32644 -6.5916,-4.1359 -1.87408,-1.80946 -3.36042,-4.00666 -4.32977,-6.5916 -1.03398,-2.584941 -1.48634,-5.299128 -1.48634,-8.207186 l 0,-29.791438 c 0,-2.649564 -0.2585,-4.459022 -0.71086,-5.557622 -0.51699,-1.033976 -1.29247,-1.938705 -2.39107,-2.584941 -1.0986,-0.581611 -2.64957,-0.904729 -4.58827,-0.904729 l -5.94537,0 0,-5.492998 z m -80.0039,9.435032 0,-5.492998 c 3.87741,-0.452364 6.78547,-0.969353 8.72417,-1.615588 1.87408,-0.581611 4.6529,-1.874081 8.27181,-3.87741 l 4.71752,0 0,12.407714 c 5.75149,-4.846764 10.66288,-8.142563 14.73416,-9.822774 4.07128,-1.744835 8.20718,-2.58494 12.34309,-2.58494 3.61892,0 6.78547,0.581611 9.49966,1.744835 2.77881,1.227846 5.04063,2.908057 6.72084,4.911386 1.68021,2.003329 2.84343,4.394399 3.42505,6.979339 0.32311,1.615588 0.51698,4.071281 0.51698,7.302457 l 0,28.757462 c 0,3.425046 0.2585,5.686869 0.77549,6.656219 0.45236,0.96936 1.29247,1.68021 2.39107,2.13258 1.03397,0.38774 3.74816,0.64623 8.01331,0.64623 l 0,5.493 -33.66885,0 0,-5.493 1.87408,0 c 3.10193,0 5.23451,-0.32311 6.39773,-0.8401 1.0986,-0.58161 1.93871,-1.42172 2.4557,-2.52032 0.45236,-1.033975 0.71085,-3.295798 0.71085,-6.656221 l 0,-24.039945 c 0,-4.976011 -0.38774,-8.401057 -1.22784,-10.339762 -0.77548,-1.874082 -2.13258,-3.48967 -4.07128,-4.652893 -1.93871,-1.163223 -4.3944,-1.809458 -7.36708,-1.809458 -3.5543,0 -7.30246,0.904729 -11.30912,2.714187 -4.00666,1.809459 -7.88407,4.459023 -11.63223,8.013316 l 0,30.114555 c 0,3.360423 0.25849,5.686869 0.71086,6.785471 0.51699,1.16322 1.42172,2.00333 2.45569,2.58494 0.77548,0.38774 2.90806,0.64623 6.33311,0.64623 l 1.87408,0 0,5.493 -33.66885,0 0,-5.493 1.61559,0 c 3.2958,0 5.493,-0.32311 6.65622,-0.8401 1.16322,-0.51699 2.00333,-1.55097 2.45569,-2.90806 0.2585,-0.646235 0.38774,-3.101929 0.38774,-7.17321 l 0,-37.223142 -11.11524,0 z M 17.435455,17.740819 l 35.34906,0 0,5.557622 -3.231176,0 c -2.520317,0 -4.329775,0.258494 -5.363751,0.710859 -1.033976,0.516988 -1.809458,1.163223 -2.261823,2.132575 -0.516988,0.90473 -0.710859,2.520317 -0.710859,4.911387 l 0,63.524911 c 0,2.908057 0.06462,4.652892 0.323118,5.234504 0.258494,0.775483 0.840106,1.357093 1.680211,1.744833 0.581612,0.2585 2.39107,0.38774 5.299128,0.38774 l 4.911387,0 c 5.622245,0 10.469008,-0.8401 14.604913,-2.455691 4.135905,-1.680211 7.754821,-4.006657 10.727503,-7.173209 2.972681,-3.101929 5.880739,-7.754822 8.65955,-13.894055 l 5.88074,1.938705 -10.210515,28.56359 -65.657486,0 0,-5.493 2.908058,0 c 2.778811,0 4.652892,-0.25849 5.622245,-0.71086 0.969353,-0.51698 1.680211,-1.29247 2.197199,-2.39107 0.516989,-1.098595 0.775483,-3.0373 0.775483,-5.751487 l 0,-61.973947 c 0,-3.166552 -0.193871,-5.234504 -0.710859,-6.333104 C 27.775216,25.237146 27.064358,24.461664 26.159629,24.0093 25.2549,23.556935 23.316194,23.298441 20.343513,23.298441 l -2.908058,0 0,-5.557622 z m 93.445595,89.051201 c -3.2958,1.35709 -7.30246,2.06795 -12.084596,2.13257 18.676196,-7.81944 -14.863407,-68.371672 38.838726,-95.384299 -4.32977,25.397039 12.86008,34.121213 11.37374,55.059231 -1.0986,15.703512 0.71086,26.818756 8.40106,39.743458 -15.50964,-6.26848 -28.88671,-6.5916 -46.52893,-1.55096 z m 4.78214,-2.64957 c 14.79878,-9.305783 26.1079,-8.918042 40.90668,3.42505 C 142.93431,94.513549 145.39,76.160472 145.58388,68.534898 146.29473,44.947317 128.13553,39.454319 137.31207,13.928032 113.98298,26.59424 139.44464,86.694104 115.66319,104.14245 z" id="path13" inkscape:connector-curvature="0" style="fill-rule:evenodd"/>
    <g id="g3406" transform="matrix(0.40930534,0,0,0.40930534,-195.76453,96.435937)">
      <path style="fill:#000000;fill-opacity:1;stroke:none" d="m 919.01497,-249.59771 c 0,61.07469 -55.52879,110.58552 -124.02701,110.58552 -34.06753,0 -64.92697,-12.2468 -87.34261,-32.07208 -22.65461,-20.03663 -36.68441,-47.81418 -36.68441,-78.51344 0,-61.0747 55.52879,-110.58552 124.02702,-110.58552 68.49822,0 124.02701,49.51082 124.02701,110.58552 z" id="path4205" inkscape:connector-curvature="0" sodipodi:nodetypes="ssssss"/>
      <g transform="matrix(7.5635306,0,0,7.5635306,611.38805,-442.22649)" id="g5056-2-7-6" inkscape:export-filename="/Users/mdespont/Desktop/recherche en cours/kong/path5090.png" inkscape:export-xdpi="1256.7957" inkscape:export-ydpi="1256.7957">
        <g id="g5058-1-5-0" transform="matrix(0.41061481,0,0,0.41061481,37.955384,10.947249)">
          <path transform="matrix(0.17771062,0,0,0.17771062,-42.905099,-80.331303)" d="m 177.14286,592.36218 c 0,31.55913 -25.58373,57.14286 -57.14286,57.14286 -31.559128,0 -57.142857,-25.58373 -57.142857,-57.14286 0,-31.55913 25.583729,-57.14285 57.142857,-57.14285 31.55913,0 57.14286,25.58372 57.14286,57.14285 z" sodipodi:ry="57.142857" sodipodi:rx="57.142857" sodipodi:cy="592.36218" sodipodi:cx="120" id="path5060-6-7-9" style="fill:#ffffff;fill-opacity:1;stroke:none" sodipodi:type="arc"/>
          <path sodipodi:type="arc" style="fill:#000000;fill-opacity:1;stroke:#000000;stroke-width:0.1;stroke-linejoin:miter;stroke-miterlimit:4;stroke-opacity:1;stroke-dasharray:none" id="path5062-8-8-5" sodipodi:cx="120" sodipodi:cy="592.36218" sodipodi:rx="57.142857" sodipodi:ry="57.142857" d="m 177.14286,592.36218 c 0,31.55913 -25.58373,57.14286 -57.14286,57.14286 -31.559128,0 -57.142857,-25.58373 -57.142857,-57.14286 0,-31.55913 25.583729,-57.14285 57.142857,-57.14285 31.55913,0 57.14286,25.58372 57.14286,57.14285 z" transform="matrix(0.11892134,0,0,0.13545904,-35.976303,-55.557543)"/>
          <path transform="matrix(0.04452845,0,0,0.04452845,-26.133566,-5.6169532)" d="m 177.14286,592.36218 c 0,31.55913 -25.58373,57.14286 -57.14286,57.14286 -31.559128,0 -57.142857,-25.58373 -57.142857,-57.14286 0,-31.55913 25.583729,-57.14285 57.142857,-57.14285 31.55913,0 57.14286,25.58372 57.14286,57.14285 z" sodipodi:ry="57.142857" sodipodi:rx="57.142857" sodipodi:cy="592.36218" sodipodi:cx="120" id="path5064-5-2-8" style="fill:#ffffff;fill-opacity:1;stroke:#000000;stroke-width:0.1;stroke-linejoin:miter;stroke-miterlimit:4;stroke-opacity:1;stroke-dasharray:none" sodipodi:type="arc"/>
        </g>
        <g transform="matrix(0.41061481,0,0,0.41061481,28.219551,10.947249)" id="g5066-7-7-9">
          <path sodipodi:type="arc" style="fill:#ffffff;fill-opacity:1;stroke:none" id="path5068-6-8-0" sodipodi:cx="120" sodipodi:cy="592.36218" sodipodi:rx="57.142857" sodipodi:ry="57.142857" d="m 177.14286,592.36218 c 0,31.55913 -25.58373,57.14286 -57.14286,57.14286 -31.559128,0 -57.142857,-25.58373 -57.142857,-57.14286 0,-31.55913 25.583729,-57.14285 57.142857,-57.14285 31.55913,0 57.14286,25.58372 57.14286,57.14285 z" transform="matrix(0.17771062,0,0,0.17771062,-42.905099,-80.331303)"/>
          <path transform="matrix(0.11892134,0,0,0.13545904,-35.976303,-55.557543)" d="m 177.14286,592.36218 c 0,31.55913 -25.58373,57.14286 -57.14286,57.14286 -31.559128,0 -57.142857,-25.58373 -57.142857,-57.14286 0,-31.55913 25.583729,-57.14285 57.142857,-57.14285 31.55913,0 57.14286,25.58372 57.14286,57.14285 z" sodipodi:ry="57.142857" sodipodi:rx="57.142857" sodipodi:cy="592.36218" sodipodi:cx="120" id="path5070-1-0-0" style="fill:#000000;fill-opacity:1;stroke:#000000;stroke-width:0.1;stroke-linejoin:miter;stroke-miterlimit:4;stroke-opacity:1;stroke-dasharray:none" sodipodi:type="arc"/>
          <path sodipodi:type="arc" style="fill:#ffffff;fill-opacity:1;stroke:#000000;stroke-width:0.1;stroke-linejoin:miter;stroke-miterlimit:4;stroke-opacity:1;stroke-dasharray:none" id="path5072-8-2-0" sodipodi:cx="120" sodipodi:cy="592.36218" sodipodi:rx="57.142857" sodipodi:ry="57.142857" d="m 177.14286,592.36218 c 0,31.55913 -25.58373,57.14286 -57.14286,57.14286 -31.559128,0 -57.142857,-25.58373 -57.142857,-57.14286 0,-31.55913 25.583729,-57.14285 57.142857,-57.14285 31.55913,0 57.14286,25.58372 57.14286,57.14285 z" transform="matrix(0.04452845,0,0,0.04452845,-26.133566,-5.6169532)"/>
        </g>
      </g>
      <g id="g4921" transform="matrix(1.49991,-0.13069951,0.13069951,1.49991,-144.60082,234.9424)">
        <path inkscape:connector-curvature="0" sodipodi:nodetypes="csssss" id="path3656" d="m 597.88212,-264.91731 c 4.03157,-4.3589 27.74905,-9.89642 54.34753,-5.75744 23.84372,3.71034 47.10537,13.84958 49.68448,24.43567 1.88653,7.74324 -18.57914,37.47635 -47.92901,37.52585 -35.56236,0.0599 -57.72043,-34.78682 -58.59499,-41.06869 -0.69673,-5.00491 -2.26255,-9.99476 2.49199,-15.13539 z" style="fill:#ecb63a;fill-opacity:1;stroke:#9e720b;stroke-width:1.71652818;stroke-linecap:butt;stroke-linejoin:miter;stroke-miterlimit:4;stroke-opacity:1;stroke-dasharray:none;display:inline"/>
        <path inkscape:connector-curvature="0" sodipodi:nodetypes="cscssc" id="path3658" d="m 602.84741,-252.32286 c 21.894,17.46754 21.14664,16.47059 29.99361,18.87556 13.07393,3.55394 29.29344,4.51074 44.11604,3.50329 0,0 -10.86491,6.96965 -22.17797,6.90738 -5.4482,-0.0296 -15.09887,-1.454 -20.85324,-4.15344 -15.01603,-7.04425 -27.61156,-19.86262 -31.07844,-25.13279 z" style="fill:#876108;fill-opacity:1;stroke:none;display:inline"/>
      </g>
    </g>
  </g>
  <metadata>
    <rdf:RDF>
      <cc:Work>
        <dc:format>image/svg+xml</dc:format>
        <dc:type rdf:resource="http://purl.org/dc/dcmitype/StillImage"/>
        <cc:license rdf:resource="http://creativecommons.org/licenses/publicdomain/"/>
        <dc:publisher>
          <cc:Agent rdf:about="http://openclipart.org/">
            <dc:title>Open Clip Art Library</dc:title>
          </cc:Agent>
        </dc:publisher>
        <dc:title>Linux text with funny tux face</dc:title>
        <dc:date>2010-10-04T21:36:24</dc:date>
        <dc:description>Linux text with funny Penguin face  - Drôle de museau de pinguin avec texte Linux - Lustige Pinguin Gesicht mit Linux Text - Musetto di pinguino divertente con testo Linux (partially remixed from "Anonymous", "Martouf" and "Maw")</dc:description>
        <dc:source>http://openclipart.org/detail/88693/linux-text-with-funny-tux-face-by-palomaironique</dc:source>
        <dc:creator>
          <cc:Agent>
            <dc:title>palomaironique</dc:title>
          </cc:Agent>
        </dc:creator>
        <dc:subject>
          <rdf:Bag>
            <rdf:li>Bild</rdf:li>
            <rdf:li>Bild</rdf:li>
            <rdf:li>Figur</rdf:li>
            <rdf:li>GNU</rdf:li>
            <rdf:li>GNU/Linux</rdf:li>
            <rdf:li>Grafik</rdf:li>
            <rdf:li>Ikone</rdf:li>
            <rdf:li>Linux</rdf:li>
            <rdf:li>Maskottchen</rdf:li>
            <rdf:li>Medien</rdf:li>
            <rdf:li>Pinguin</rdf:li>
            <rdf:li>Symbol</rdf:li>
            <rdf:li>Text</rdf:li>
            <rdf:li>Tier</rdf:li>
            <rdf:li>Unix</rdf:li>
            <rdf:li>Vektor</rdf:li>
            <rdf:li>Vogel</rdf:li>
            <rdf:li>Zeichen</rdf:li>
            <rdf:li>animal</rdf:li>
            <rdf:li>animale</rdf:li>
            <rdf:li>art</rdf:li>
            <rdf:li>bird</rdf:li>
            <rdf:li>cartoon</rdf:li>
            <rdf:li>clip art</rdf:li>
            <rdf:li>clipart</rdf:li>
            <rdf:li>domain</rdf:li>
            <rdf:li>domaine</rdf:li>
            <rdf:li>figure</rdf:li>
            <rdf:li>grafica</rdf:li>
            <rdf:li>graphic</rdf:li>
            <rdf:li>graphique</rdf:li>
            <rdf:li>icon</rdf:li>
            <rdf:li>icona</rdf:li>
            <rdf:li>icône</rdf:li>
            <rdf:li>image</rdf:li>
            <rdf:li>image</rdf:li>
            <rdf:li>immagine</rdf:li>
            <rdf:li>immagine</rdf:li>
            <rdf:li>line</rdf:li>
            <rdf:li>lineart</rdf:li>
            <rdf:li>logiciel</rdf:li>
            <rdf:li>logo</rdf:li>
            <rdf:li>manchot</rdf:li>
            <rdf:li>mascot</rdf:li>
            <rdf:li>mascotte</rdf:li>
            <rdf:li>media</rdf:li>
            <rdf:li>oiseau</rdf:li>
            <rdf:li>open</rdf:li>
            <rdf:li>ouvert</rdf:li>
            <rdf:li>penguin</rdf:li>
            <rdf:li>pinguin</rdf:li>
            <rdf:li>pinguino</rdf:li>
            <rdf:li>png</rdf:li>
            <rdf:li>portafortuna</rdf:li>
            <rdf:li>public</rdf:li>
            <rdf:li>segno</rdf:li>
            <rdf:li>sign</rdf:li>
            <rdf:li>signe</rdf:li>
            <rdf:li>simbolo</rdf:li>
            <rdf:li>software</rdf:li>
            <rdf:li>source</rdf:li>
            <rdf:li>svg</rdf:li>
            <rdf:li>symbol</rdf:li>
            <rdf:li>symbole</rdf:li>
            <rdf:li>talismano</rdf:li>
            <rdf:li>testo</rdf:li>
            <rdf:li>text</rdf:li>
            <rdf:li>texte</rdf:li>
            <rdf:li>tux</rdf:li>
            <rdf:li>uccello</rdf:li>
            <rdf:li>vecteur</rdf:li>
            <rdf:li>vector</rdf:li>
            <rdf:li>vettore</rdf:li>
            <rdf:li>vettoriale</rdf:li>
          </rdf:Bag>
        </dc:subject>
      </cc:Work>
      <cc:License rdf:about="http://creativecommons.org/licenses/publicdomain/">
        <cc:permits rdf:resource="http://creativecommons.org/ns#Reproduction"/>
        <cc:permits rdf:resource="http://creativecommons.org/ns#Distribution"/>
        <cc:permits rdf:resource="http://creativecommons.org/ns#DerivativeWorks"/>
      </cc:License>
    </rdf:RDF>
  </metadata>
</svg>
