<?xml version="1.0" encoding="UTF-8" standalone="no"?>
<!-- Created with Inkscape (http://www.inkscape.org/) -->
<svg xmlns:dc="http://purl.org/dc/elements/1.1/" xmlns:cc="http://creativecommons.org/ns#" xmlns:rdf="http://www.w3.org/1999/02/22-rdf-syntax-ns#" xmlns:svg="http://www.w3.org/2000/svg" xmlns="http://www.w3.org/2000/svg" xmlns:xlink="http://www.w3.org/1999/xlink" xmlns:sodipodi="http://sodipodi.sourceforge.net/DTD/sodipodi-0.dtd" xmlns:inkscape="http://www.inkscape.org/namespaces/inkscape" width="411.68546" height="413.12952" id="svg2" sodipodi:version="0.32" inkscape:version="0.46" sodipodi:docname="Ruffled_Map.svg" inkscape:output_extension="org.inkscape.output.svg.inkscape" sodipodi:modified="true" version="1.0" inkscape:export-filename="C:\Documents and Settings\Midkiff Aries\Desktop\Ruffled_Map.png" inkscape:export-xdpi="43.720001" inkscape:export-ydpi="43.720001">
  <defs id="defs4">
    <inkscape:perspective sodipodi:type="inkscape:persp3d" inkscape:vp_x="0 : 526.18109 : 1" inkscape:vp_y="0 : 1000 : 0" inkscape:vp_z="744.09448 : 526.18109 : 1" inkscape:persp3d-origin="372.04724 : 350.78739 : 1" id="perspective44"/>
    <linearGradient id="linearGradient12551">
      <stop style="stop-color: rgb(156, 0, 0); stop-opacity: 1;" offset="0" id="stop12553"/>
      <stop style="stop-color: rgb(49, 0, 0); stop-opacity: 1;" offset="1" id="stop12555"/>
    </linearGradient>
    <linearGradient id="linearGradient5541">
      <stop style="stop-color: rgb(254, 255, 229); stop-opacity: 1;" offset="0" id="stop5543"/>
      <stop id="stop5551" offset="0.34513274" style="stop-color: rgb(255, 249, 140); stop-opacity: 1;"/>
      <stop style="stop-color: rgb(255, 244, 26); stop-opacity: 1;" offset="1" id="stop5545"/>
    </linearGradient>
    <linearGradient id="linearGradient7210">
      <stop style="stop-color: rgb(41, 221, 27); stop-opacity: 1;" offset="0" id="stop7212"/>
      <stop style="stop-color: rgb(150, 242, 143); stop-opacity: 1;" offset="1.0000000" id="stop7214"/>
    </linearGradient>
    <linearGradient id="linearGradient2764">
      <stop style="stop-color: rgb(55, 146, 179); stop-opacity: 1;" offset="0" id="stop2766"/>
      <stop style="stop-color: rgb(255, 255, 255); stop-opacity: 1;" offset="1.0000000" id="stop2768"/>
    </linearGradient>
    <linearGradient inkscape:collect="always" xlink:href="#linearGradient2764" id="linearGradient2770" x1="105.13282" y1="511.3616" x2="652.40576" y2="511.3616" gradientUnits="userSpaceOnUse" gradientTransform="matrix(0.753726,0,0,0.753726,-78.8597,-176.009)"/>
    <linearGradient inkscape:collect="always" xlink:href="#linearGradient7210" id="linearGradient7244" x1="113.0311" y1="452.11893" x2="524.59644" y2="452.11893" gradientUnits="userSpaceOnUse" gradientTransform="matrix(0.753726,0,0,0.753726,-78.8597,-176.009)"/>
    <radialGradient inkscape:collect="always" xlink:href="#linearGradient5541" id="radialGradient5549" cx="194.89299" cy="249.75902" fx="194.89299" fy="249.75902" r="129.88857" gradientTransform="matrix(1,0,0,0.957744,0,10.5537)" gradientUnits="userSpaceOnUse"/>
    <filter inkscape:collect="always" id="filter8535">
      <feGaussianBlur inkscape:collect="always" stdDeviation="4.4057946" id="feGaussianBlur8537"/>
    </filter>
    <filter inkscape:collect="always" id="filter11578">
      <feGaussianBlur inkscape:collect="always" stdDeviation="5.0331718" id="feGaussianBlur11580"/>
    </filter>
  </defs>
  <sodipodi:namedview id="base" pagecolor="#ffffff" bordercolor="#666666" borderopacity="1.0" inkscape:pageopacity="0.0" inkscape:pageshadow="2" inkscape:zoom="0.79622887" inkscape:cx="140.28823" inkscape:cy="277.3089" inkscape:document-units="px" inkscape:current-layer="layer1" inkscape:window-width="1024" inkscape:window-height="718" inkscape:window-x="22" inkscape:window-y="29" showgrid="false"/>
  <g inkscape:label="Layer 1" inkscape:groupmode="layer" id="layer1" transform="translate(-0.5075435,-2.8531244)">
    <path style="fill:url(#linearGradient2770);fill-opacity:1;fill-rule:evenodd;stroke:#000000;stroke-width:2.26117992;stroke-linecap:round;stroke-linejoin:round;stroke-miterlimit:4;stroke-dasharray:none;stroke-opacity:1" d="M 1.8967271,135.87617 C 23.346867,149.61387 44.831467,187.42493 67.578577,210.17204 C 97.310767,239.90423 134.76271,291.55374 145.10472,332.92175 C 150.82755,355.8131 172.07764,396.73041 187.09803,414.75488 C 187.5208,416.44595 214.86272,395.5465 219.40059,392.14309 C 233.21944,381.77896 243.02429,369.21561 257.0869,359.84054 C 279.13792,345.13986 274.39035,333.0092 296.92671,318.92398 C 311.56005,309.77814 329.48259,286.41556 356.14807,282.31441 C 361.86823,281.43466 369.46732,277.60916 380.91335,273.70039 C 389.09302,270.90708 395.9894,269.39187 402.44839,262.93288 C 406.00504,258.81652 408.3526,260.16626 411.06241,251.08861 C 410.40645,237.37661 375.30963,191.64729 369.06909,185.40675 C 343.96124,160.2989 341.86389,142.05028 316.30825,116.49464 C 314.51366,114.70005 294.4143,84.909921 292.61971,83.115331 C 282.28804,72.783661 260.12046,75.446931 247.39613,66.964051 C 236.62686,59.784541 227.9856,41.035011 223.70759,28.200991 C 220.56436,18.771281 204.85156,6.7973306 195.71204,4.5124506 C 183.39671,1.4336106 175.63437,12.454391 168.79325,20.663731 C 151.62537,41.265191 117.70789,56.230341 96.650877,71.271061 C 82.896507,81.095611 60.920777,74.567081 44.966797,79.885081 C 34.729057,83.297651 22.055417,102.79645 15.894497,108.95737 C 12.086387,112.76548 12.513277,111.02091 10.096597,117.06259 C 7.3541471,123.91871 0.19405708,127.36283 1.8967271,135.87617 z" id="path1308" sodipodi:nodetypes="csscsssssccsssssssssssc"/>
    <path style="fill:url(#linearGradient7244);fill-opacity:1;fill-rule:evenodd;stroke:#000000;stroke-width:0.75372601;stroke-linecap:butt;stroke-linejoin:miter;stroke-miterlimit:4;stroke-dasharray:none;stroke-opacity:1" d="M 210.85989,23.106141 C 212.43376,27.389561 218.1523,29.333391 217.34896,32.932171 C 215.33495,41.954571 213.5998,39.431611 214.18422,42.735411 C 215.18624,48.399851 212.63116,51.381521 214.11781,56.702861 C 216.33744,64.647761 224.28391,69.427601 230.59306,74.198661 C 231.76107,75.081921 232.8571,76.035121 233.98911,76.953361 C 240.0807,81.894531 245.7244,87.734271 252.53645,91.911891 C 255.90593,93.978291 258.59825,99.784271 259.61412,103.42045 C 260.99222,108.3532 263.83865,112.97152 266.70122,117.17483 C 270.23273,122.36036 274.50693,127.0705 279.25648,131.14662 C 284.05477,135.26457 289.64801,142.75279 290.78749,149.1943 C 292.19952,157.17668 287.86394,149.57525 286.12408,154.62246 C 283.82555,161.29031 282.51992,157.52858 272.01432,157.11086 C 270.71238,157.05909 262.40359,146.49706 261.10165,146.44528 C 253.5803,146.14622 251.57289,141.49737 245.96136,138.05599 C 244.22124,136.98882 242.48113,135.92168 240.74101,134.85451 C 236.52406,132.26839 235.84981,126.19957 229.24774,125.79004 C 220.40011,125.24122 219.2301,133.143 219.12563,133.24657 C 217.18063,135.1746 215.81988,137.89511 214.46694,139.79761 C 212.23853,142.9312 211.39198,147.10874 208.00756,151.5164 C 204.8099,155.68081 202.03255,159.39711 198.68547,163.4956 C 195.3301,167.60423 187.90145,171.10216 186.87625,174.9535 C 186.77265,175.34269 186.8794,175.7021 186.88097,176.0764 C 186.90465,181.71305 189.52648,187.22087 189.95808,193.08763 C 190.28875,197.58277 189.38082,199.01347 194.15888,201.48791 C 199.1438,204.06947 202.81854,207.54797 207.73368,210.2609 C 211.0451,212.08865 213.49134,213.86871 216.08812,215.83243 C 219.27567,218.24289 226.33279,218.14168 230.15853,218.63732 C 233.69994,219.09613 237.07846,217.66235 240.57093,218.30286 C 245.07593,219.12907 258.47846,208.82184 263.19139,209.00923 C 269.86478,209.27458 293.29603,198.96929 298.1035,218.51556 C 300.81995,229.56016 331.13911,238.26082 321.08093,249.3254 C 311.12073,260.2822 293.68931,252.9565 277.38263,269.17037 C 247.89711,298.48807 250.68898,324.14728 233.27781,330.61701 C 216.03276,337.02502 200.46405,295.92522 189.64383,289.28952 C 183.31724,285.40963 185.93979,266.33594 179.31427,262.27272 C 170.67516,256.97463 158.91627,253.89474 149.57808,248.74049 C 145.43311,246.45265 140.74279,247.64071 134.99319,247.41209 C 133.29566,247.3446 131.52239,247.52358 129.78699,247.57932 C 116.01963,248.02155 103.19365,240.45453 93.544247,234.53686 C 91.804127,233.4697 90.064007,232.40254 88.323897,231.33538 C 83.525477,228.39267 81.950007,223.60301 78.121567,219.70258 C 61.364137,202.63004 58.240667,197.31667 53.082477,191.24023 C 47.982037,185.23185 25.082727,156.10631 20.682517,151.83318 C 9.1675771,140.65079 -0.12941292,137.70057 4.1400071,127.73401 C 11.042637,111.6205 31.185407,91.246141 41.697097,82.932821 C 49.802347,76.522661 70.912287,78.449441 78.731687,77.046101 C 85.030897,75.915581 93.090797,74.523651 97.929327,72.393331 C 164.23501,28.596581 134.85846,50.269101 169.7669,22.336591 C 171.51081,17.214711 173.25473,13.605241 176.88916,11.130091 C 181.8519,7.7503106 184.74747,6.0815006 190.65986,4.1890106 C 194.65142,2.9113606 205.44934,10.256081 209.69612,13.225631 C 212.61447,17.690951 213.58281,22.002801 210.85989,23.106141 z" id="path3544" sodipodi:nodetypes="cssssssssssssssssssssssssssssssssssssssssssssssccsscc"/>
    <path style="fill:none;fill-opacity:0.75;fill-rule:evenodd;stroke:#000000;stroke-width:1.50744998;stroke-linecap:butt;stroke-linejoin:miter;stroke-miterlimit:4;stroke-dasharray:none;stroke-opacity:1" d="M 225.86109,385.68259 C 226.6354,388.77979 214.41289,364.12697 204.32606,337.22875 C 198.23006,320.97276 186.1042,308.65357 177.40727,294.15868 C 175.07322,290.26859 170.48437,287.23579 166.63975,283.39116 C 161.33543,278.08684 156.40398,264.52814 153.71873,256.47237 C 153.3095,255.24468 152.28306,254.31887 151.56523,253.24211 C 142.25187,239.27208 137.6297,221.57131 127.87668,206.94179 C 119.50078,194.37793 98.799377,186.4785 88.036867,175.71599 C 76.627637,164.30676 70.307097,148.29545 58.964567,136.95292 C 39.546207,117.53456 44.530877,120.53487 29.892267,97.113101" id="path2810" sodipodi:nodetypes="csssssssss"/>
    <path style="opacity:1;fill:none;fill-opacity:0.75;fill-rule:evenodd;stroke:#000000;stroke-width:1.50744998;stroke-linecap:butt;stroke-linejoin:miter;stroke-miterlimit:4;stroke-dasharray:none;stroke-opacity:1" d="M 267.66247,349.28035 C 268.43678,352.37755 256.21427,327.72473 246.12744,300.82652 C 240.03144,284.57053 227.90558,272.25133 219.20865,257.75644 C 216.8746,253.86636 212.28575,250.83356 208.44113,246.98893 C 203.13681,241.6846 198.20536,228.12591 195.52011,220.07013 C 195.11088,218.84245 194.08444,217.91663 193.36661,216.83988 C 184.05325,202.86984 179.43107,185.16907 169.67806,170.53955 C 161.30216,157.97569 140.60076,150.07626 129.83825,139.31375 C 118.42902,127.90453 112.10848,111.89321 100.76595,100.55069 C 81.347587,81.132331 96.241427,100.64793 81.602827,77.226161" id="path3538" sodipodi:nodetypes="csssssssss"/>
    <path style="fill:none;fill-opacity:0.75;fill-rule:evenodd;stroke:#000000;stroke-width:1.50744998;stroke-linecap:butt;stroke-linejoin:miter;stroke-miterlimit:4;stroke-dasharray:none;stroke-opacity:1" d="M 297.59868,315.77179 C 298.37298,318.86898 288.4191,297.9972 278.33228,271.09899 C 272.23627,254.843 260.11041,242.5238 251.41348,228.02892 C 249.07943,224.13883 244.49058,221.10603 240.64596,217.2614 C 235.34164,211.95708 230.41019,198.39838 227.72494,190.3426 C 227.31571,189.11492 226.28927,188.1891 225.57144,187.11235 C 216.25808,173.14231 211.63591,155.44154 201.88289,140.81202 C 193.50699,128.24816 172.80559,120.34873 162.04308,109.58622 C 150.63385,98.177001 146.7906,92.900641 135.44807,81.558111 C 129.24196,75.351981 135.05238,80.829581 120.41377,57.407811" id="path3540" sodipodi:nodetypes="csssssssss"/>
    <path style="fill:none;fill-opacity:0.75;fill-rule:evenodd;stroke:#000000;stroke-width:1.50744998;stroke-linecap:butt;stroke-linejoin:miter;stroke-miterlimit:4;stroke-dasharray:none;stroke-opacity:1" d="M 342.80708,284.87069 C 343.58139,287.96789 331.35888,263.31507 321.27205,236.41686 C 315.17605,220.16087 303.05019,207.84167 294.35325,193.34678 C 292.01921,189.4567 287.43036,186.4239 283.58574,182.57927 C 278.28141,177.27494 273.34997,163.71624 270.66472,155.66047 C 270.25549,154.43279 269.22905,153.50697 268.51121,152.43022 C 259.19786,138.46018 254.57568,120.75941 244.82267,106.12989 C 236.44677,93.566031 223.17725,93.924251 212.41474,83.161741 C 201.00552,71.752521 202.94262,78.862621 191.60009,67.520091 C 172.18174,48.101731 177.1664,51.102041 162.52779,27.680271" id="path5006" sodipodi:nodetypes="csssssssss"/>
    <path style="fill:none;fill-opacity:0.75;fill-rule:evenodd;stroke:#000000;stroke-width:1.50744998;stroke-linecap:butt;stroke-linejoin:miter;stroke-miterlimit:4;stroke-dasharray:none;stroke-opacity:1" d="M 390.01479,267.7383 C 390.78909,270.83549 380.079,248.4513 369.99218,221.55309 C 363.89618,205.2971 351.77031,192.9779 343.07338,178.48301 C 340.73933,174.59293 336.15049,171.56013 332.30587,167.7155 C 327.00154,162.41117 322.0701,148.85247 319.38484,140.7967 C 318.97561,139.56902 317.94918,138.6432 317.23134,137.56645 C 307.91798,123.59641 273.56827,88.554581 263.81526,73.925061" id="path5008" sodipodi:nodetypes="cssssss"/>
    <path style="fill:none;fill-opacity:0.75;fill-rule:evenodd;stroke:#000000;stroke-width:0.75372601;stroke-linecap:butt;stroke-linejoin:miter;stroke-miterlimit:4;stroke-dasharray:none;stroke-opacity:1" d="M 26.838237,158.05895 C 35.152197,138.4732 58.028087,121.33247 76.384137,106.03576 C 82.556557,100.89207 89.359977,97.761461 97.028257,94.475051 C 107.88498,89.822171 119.14169,83.740111 131.71038,83.740111 C 143.43317,83.740111 155.41027,81.620501 166.39251,77.959761 C 179.29596,73.658601 192.46892,63.444051 201.9004,54.012571 C 206.76364,49.149331 212.25309,46.660931 216.76417,43.277631 C 218.89632,41.678521 220.31637,34.054221 221.71876,31.716931 C 222.66261,30.143821 223.44308,29.417831 224.19605,28.413861" id="path5010"/>
    <path style="fill:none;fill-opacity:0.75;fill-rule:evenodd;stroke:#000000;stroke-width:0.75372601px;stroke-linecap:butt;stroke-linejoin:miter;stroke-opacity:1" d="M 49.959657,191.08955 C 52.024947,187.64739 67.324047,180.8454 73.906837,179.52883 C 79.490607,178.41208 82.040397,175.5241 85.467547,172.09695 C 91.049937,166.51456 95.766827,161.44981 102.80861,155.58165 C 111.298,148.50716 119.47807,140.80871 128.40733,134.11177 C 140.69489,124.89609 158.36383,111.34599 172.99862,107.68729 C 181.96445,105.44583 189.88638,98.304321 198.59734,96.126581 C 205.68933,94.353581 211.98439,93.812021 219.24146,91.997761 C 227.90475,89.831941 236.74664,82.848701 244.84017,79.611281 C 247.80485,78.425411 251.93653,74.166461 253.92359,72.179401 C 256.66231,69.440681 253.14505,72.568671 255.57512,71.353631" id="path5012"/>
    <path style="fill:none;fill-opacity:0.75;fill-rule:evenodd;stroke:#000000;stroke-width:0.75372601px;stroke-linecap:butt;stroke-linejoin:miter;stroke-opacity:1" d="M 90.900107,233.41222 C 92.537827,231.77451 94.854637,230.42258 97.854017,227.4232 C 107.31443,217.9628 121.42527,211.92163 133.36192,205.95331 C 135.56395,204.85229 137.76599,203.75127 139.96803,202.65025 C 145.54237,199.86308 150.79058,195.13077 154.8318,191.08955 C 158.46319,187.45815 159.36116,186.56018 163.08945,182.83189 C 169.57726,176.34407 174.74595,168.25361 182.08204,163.01354 C 189.31723,157.84554 195.42204,148.84777 201.9004,142.36942 C 206.85067,137.41914 212.4127,133.50864 217.58993,128.33141 C 223.19584,122.7255 228.05628,118.83012 234.10523,114.29341 C 238.66543,110.87326 247.31935,106.4477 253.09782,103.55846 C 256.73648,101.73913 260.35145,99.680651 264.65853,98.603871 C 271.29678,96.944311 279.40856,94.119041 285.30265,91.171991 C 289.07507,89.285781 291.59768,88.772471 295.21183,87.868941" id="path5014" sodipodi:nodetypes="cssssssssssssc"/>
    <path style="fill:none;fill-opacity:0.75;fill-rule:evenodd;stroke:#000000;stroke-width:0.75372601px;stroke-linecap:butt;stroke-linejoin:miter;stroke-opacity:1" d="M 120.76677,275.52623 C 124.21611,273.80156 126.1007,271.01807 129.23309,267.88567 C 134.38214,262.73663 140.045,258.6005 145.74839,253.84767 C 153.89955,247.05504 164.82303,243.85644 172.17286,236.50661 C 178.22399,230.45548 191.34859,226.81786 198.59734,222.46861 C 203.56627,219.48725 209.72544,216.90456 215.11263,214.21096 C 216.76417,213.3852 218.4157,212.55943 220.06722,211.73366 C 226.00622,208.76417 231.69136,203.41259 236.58253,198.52143 C 244.95404,190.14991 256.61151,183.15331 266.31006,176.22578 C 268.23684,174.8495 270.16363,173.47323 272.09041,172.09695 C 279.31449,166.9369 286.75024,163.46621 294.38606,158.88471 C 301.41765,154.66576 310.31668,152.86328 315.85595,147.324 C 321.27066,141.90929 323.96726,143.48786 326.5909,138.24059 C 327.73731,135.94776 330.40974,135.24751 331.54548,134.11177" id="path5016" sodipodi:nodetypes="cssssssssssssc"/>
    <path sodipodi:type="star" style="opacity:0.48731001;fill:#000000;fill-opacity:1;fill-rule:evenodd;stroke:none;stroke-width:6.38560009;stroke-linecap:round;stroke-linejoin:round;stroke-miterlimit:4;stroke-dasharray:none;stroke-dashoffset:0;stroke-opacity:1;filter:url(#filter11578)" id="path8539" sodipodi:sides="5" sodipodi:cx="195.64207" sodipodi:cy="261.76758" sodipodi:r1="133.23787" sodipodi:r2="66.618935" sodipodi:arg1="0.92428318" sodipodi:arg2="1.5526017" inkscape:flatsided="false" inkscape:rounded="0" inkscape:randomized="0" d="M 275.90549,368.1166 L 196.85411,328.37549 L 119.3009,370.96627 L 132.66873,283.50327 L 68.197223,222.90706 L 155.51037,208.59307 L 193.218,128.55176 L 233.81266,207.16823 L 321.58876,218.29619 L 259.3645,281.19784 L 275.90549,368.1166 z" transform="matrix(0.280196,0,0,0.282364,49.5344,83.8618)"/>
    <path style="fill:none;fill-opacity:0.75;fill-rule:evenodd;stroke:#000000;stroke-width:0.75372601px;stroke-linecap:butt;stroke-linejoin:miter;stroke-opacity:1" d="M 144.78351,330.02671 C 147.40117,324.7914 153.69216,325.17733 158.96062,319.90886 C 164.32503,314.54446 176.82422,309.70939 183.73357,305.87086 C 189.98036,302.40043 195.13564,296.12033 200.24887,291.00709 C 206.85251,284.40346 213.23613,280.49713 220.06722,273.66603 C 224.01498,269.71828 228.93895,267.01224 233.27946,263.75685 C 238.85729,259.57349 244.5854,256.13464 251.44629,253.84767 C 258.98827,251.33368 268.53249,242.27473 275.39347,238.15814 C 281.74234,234.34882 287.07093,225.65491 291.083,221.64284 C 296.96305,215.7628 302.21361,209.85852 306.77254,203.47602 C 309.60028,199.51718 312.62804,195.59368 316.68172,193.56684 C 324.35588,189.72976 332.59096,178.53829 338.97737,173.74848 C 344.52469,169.58799 345.62079,168.36235 351.36384,165.49083" id="path5018" sodipodi:nodetypes="csssssssssssc"/>
    <path style="fill:none;fill-opacity:0.75;fill-rule:evenodd;stroke:#000000;stroke-width:0.75372601px;stroke-linecap:butt;stroke-linejoin:miter;stroke-opacity:1" d="M 164.53231,378.29918 C 167.99265,376.56901 174.89764,371.68457 179.60475,366.97746 C 184.07373,362.50848 188.55824,358.84974 193.64275,353.76522 C 197.12319,350.28478 200.33945,347.71049 204.3777,344.68181 C 215.90583,336.03571 225.46649,321.94149 235.75676,311.65122 C 243.35842,304.04955 253.00794,300.12047 263.007,296.78745 C 272.11926,293.75002 280.31613,291.84882 288.60571,287.70403 C 292.87542,285.56918 298.58822,280.19882 301.81795,276.96909 C 306.10336,272.68368 310.3603,269.25251 315.03019,264.58262 C 317.23222,262.38058 319.43426,260.17854 321.63631,257.9765 C 326.82977,252.78303 331.19886,245.11089 336.50007,239.80967 C 340.11019,236.19956 343.36418,231.03604 345.58349,226.59743 C 348.056,221.65241 353.66319,217.44637 357.1442,213.3852 C 361.69851,208.07182 368.61469,206.04352 374.48525,200.17296 C 375.99981,198.65841 377.60901,197.87497 378.61408,196.86989" id="path5020" sodipodi:nodetypes="csssssssssssssc"/>
    <path sodipodi:type="star" style="opacity:1;fill:url(#radialGradient5549);fill-opacity:1;fill-rule:evenodd;stroke:#000000;stroke-width:6.38560009;stroke-linecap:round;stroke-linejoin:round;stroke-miterlimit:4;stroke-dasharray:none;stroke-dashoffset:0;stroke-opacity:1" id="path7974" sodipodi:sides="5" sodipodi:cx="195.64207" sodipodi:cy="261.76758" sodipodi:r1="133.23787" sodipodi:r2="66.618935" sodipodi:arg1="0.92428318" sodipodi:arg2="1.5526017" inkscape:flatsided="false" inkscape:rounded="0" inkscape:randomized="0" d="M 275.90549,368.1166 L 196.85411,328.37549 L 119.3009,370.96627 L 132.66873,283.50327 L 68.197223,222.90706 L 155.51037,208.59307 L 193.218,128.55176 L 233.81266,207.16823 L 321.58876,218.29619 L 259.3645,281.19784 L 275.90549,368.1166 z" transform="matrix(0.280196,0,0,0.282364,50.8414,79.2878)"/>
    <path style="opacity:0.48223297;fill:#000000;fill-opacity:1;fill-rule:evenodd;stroke:none;stroke-width:3;stroke-linecap:round;stroke-linejoin:round;stroke-miterlimit:4;stroke-dasharray:none;stroke-opacity:1;filter:url(#filter8535)" d="M 379.88991,445.07902 C 382.18569,445.89271 360.7216,411.96758 363.40057,415.96438 C 363.54996,416.18728 529.42531,293.9111 528.27687,292.95 C 526.06268,291.09702 500.87896,255.45965 499.2418,253.01712 C 498.81244,252.37655 333.89257,375.74627 334.15771,373.46461 C 334.23262,372.81986 316.88479,348.82311 316.3613,348.0421 C 315.81548,347.22778 288.90717,435.05501 286.48884,436.62974 C 283.13048,438.81658 367.11319,440.5505 379.88991,445.07902 z" id="path6523" sodipodi:nodetypes="csssssss" transform="matrix(0.753726,0,0,0.753726,-78.8597,-176.009)"/>
    <path style="fill:#f00000;fill-opacity:0.89940796;fill-rule:evenodd;stroke:#000000;stroke-width:2.26117992;stroke-linecap:round;stroke-linejoin:round;stroke-miterlimit:4;stroke-dasharray:none;stroke-opacity:1" d="M 200.60572,149.33428 C 202.33611,149.94758 186.15807,124.37732 188.17728,127.38981 C 188.28988,127.55782 313.31448,35.395051 312.44887,34.670641 C 310.77998,33.274001 291.79835,6.4131806 290.56438,4.5721806 C 290.24076,4.0893706 165.93632,97.076371 166.13616,95.356621 C 166.19263,94.870651 153.11711,76.783671 152.72254,76.195001 C 152.31114,75.581231 132.02964,141.77892 130.20689,142.96584 C 127.6756,144.61411 190.97558,145.92101 200.60572,149.33428 z" id="path3547" sodipodi:nodetypes="csssssss"/>
  </g>
  <metadata>
    <rdf:RDF>
      <cc:Work>
        <dc:format>image/svg+xml</dc:format>
        <dc:type rdf:resource="http://purl.org/dc/dcmitype/StillImage"/>
        <cc:license rdf:resource="http://creativecommons.org/licenses/publicdomain/"/>
        <dc:publisher>
          <cc:Agent rdf:about="http://openclipart.org/">
            <dc:title>Open Clip Art Library</dc:title>
          </cc:Agent>
        </dc:publisher>
        <dc:title>Ruffled Map</dc:title>
        <dc:date>2007-02-26T16:13:45</dc:date>
        <dc:description>This is a simple generic map with a ruffled look to it, and an arrow pointing to a location.</dc:description>
        <dc:source>http://openclipart.org/detail/3325/ruffled-map-by-midkiffaries</dc:source>
        <dc:creator>
          <cc:Agent>
            <dc:title>midkiffaries</dc:title>
          </cc:Agent>
        </dc:creator>
        <dc:subject>
          <rdf:Bag>
            <rdf:li>arrow</rdf:li>
            <rdf:li>clip art</rdf:li>
            <rdf:li>clipart</rdf:li>
            <rdf:li>how i did it</rdf:li>
            <rdf:li>icon</rdf:li>
            <rdf:li>map</rdf:li>
            <rdf:li>target</rdf:li>
          </rdf:Bag>
        </dc:subject>
      </cc:Work>
      <cc:License rdf:about="http://creativecommons.org/licenses/publicdomain/">
        <cc:permits rdf:resource="http://creativecommons.org/ns#Reproduction"/>
        <cc:permits rdf:resource="http://creativecommons.org/ns#Distribution"/>
        <cc:permits rdf:resource="http://creativecommons.org/ns#DerivativeWorks"/>
      </cc:License>
    </rdf:RDF>
  </metadata>
</svg>
