<?xml version="1.0" encoding="UTF-8" standalone="no"?>
<!-- Created with Inkscape (http://www.inkscape.org/) -->

<svg
   xmlns:dc="http://purl.org/dc/elements/1.1/"
   xmlns:cc="http://creativecommons.org/ns#"
   xmlns:rdf="http://www.w3.org/1999/02/22-rdf-syntax-ns#"
   xmlns:svg="http://www.w3.org/2000/svg"
   xmlns="http://www.w3.org/2000/svg"
   xmlns:sodipodi="http://sodipodi.sourceforge.net/DTD/sodipodi-0.dtd"
   xmlns:inkscape="http://www.inkscape.org/namespaces/inkscape"
   width="1052.3622"
   height="744.09448"
   id="svg5289"
   version="1.1"
   inkscape:version="0.48.4 r9939"
   sodipodi:docname="nagios_simbolo.svg">
  <defs
     id="defs5291" />
  <sodipodi:namedview
     id="base"
     pagecolor="#ffffff"
     bordercolor="#666666"
     borderopacity="1.0"
     inkscape:pageopacity="0.0"
     inkscape:pageshadow="2"
     inkscape:zoom="0.7"
     inkscape:cx="286.77273"
     inkscape:cy="421.48856"
     inkscape:document-units="px"
     inkscape:current-layer="layer1"
     showgrid="false"
     inkscape:window-width="1600"
     inkscape:window-height="838"
     inkscape:window-x="-8"
     inkscape:window-y="-8"
     inkscape:window-maximized="1" />
  <metadata
     id="metadata5294">
    <rdf:RDF>
      <cc:Work
         rdf:about="">
        <dc:format>image/svg+xml</dc:format>
        <dc:type
           rdf:resource="http://purl.org/dc/dcmitype/StillImage" />
        <dc:title></dc:title>
      </cc:Work>
    </rdf:RDF>
  </metadata>
  <g
     inkscape:label="Camada 1"
     inkscape:groupmode="layer"
     id="layer1"
     transform="translate(0,-308.2677)">
    <path
       style="fill:#000000"
       d="m 444.1973,743.31234 c -5.53028,-3.11672 -12.55524,-10.5016 -15.61099,-16.41079 -6.82928,-13.20642 -6.83064,-12.98254 0.12011,-19.93319 4.91027,-4.91022 7.51166,-5.01663 19.28417,-0.78866 44.90351,16.12645 56.47647,17.04096 64.82447,5.12254 7.13,-10.17951 7.44486,-28.13602 0.5398,-30.78573 -2.84803,-1.09288 -10.20411,0.61191 -16.34688,3.78847 -23.58238,12.19491 -48.2656,4.15837 -55.6139,-18.10718 -2.22564,-6.74376 -6.44149,-14.24894 -9.3685,-16.67815 -3.69852,-3.06939 -5.32202,-12.08542 -5.32202,-29.55464 0,-32.89516 7.47462,-48.88324 26.39224,-56.4526 18.75505,-7.50426 25.68835,-7.16834 47.72704,2.31246 17.0749,7.34538 18.81974,7.49117 21.98421,1.83658 5.0245,-8.97827 30.38888,-8.21087 39.804,1.20425 8.55281,8.55281 8.69897,9.71632 3.20184,25.48549 -3.1128,8.92934 -3.00018,23.11275 0.45235,56.97477 5.35468,52.51767 3.0905,63.83483 -16.58693,82.90692 -10.58954,10.26376 -15.16683,12.22529 -26.56135,11.38239 -18.39692,-1.3609 -24.87643,-1.19157 -48.66212,1.27171 -14.58631,1.51058 -22.99773,0.51685 -30.25754,-3.57464 z m 65.31966,-95.30639 c 11.36417,-11.36417 11.97186,-30.3136 1.40303,-43.74971 -15.97449,-20.3083 -40.13833,-7.33869 -40.13833,21.54368 0,28.54833 20.58955,40.35179 38.7353,22.20603 z M 24.734524,742.36088 c -3.550604,-3.55061 -2.286879,-14.98739 1.945022,-17.60285 5.488861,-3.39229 120.248864,-4.98065 152.084644,-2.10491 24.35826,2.20024 25.71224,2.80613 25.71224,11.50549 l 0,9.18294 -88.83081,0.54984 c -48.856904,0.30229 -89.766905,-0.38635 -90.911096,-1.53051 z M 267.56538,695.73759 c -7.72623,-2.73864 -14.50742,-5.54505 -15.06927,-6.2365 -5.56256,-6.84558 -7.41607,-16.79151 -6.35335,-34.09206 1.4246,-23.19211 8.03334,-29.67835 28.86341,-28.32848 6.46739,0.4191 18.01343,-2.59022 25.65783,-6.68736 7.6444,-4.09716 18.35085,-7.44938 23.79215,-7.44938 17.02855,0 27.43484,-16.16219 16.33671,-25.37287 -6.38876,-5.30214 -32.92165,0.0393 -42.28428,8.51218 -12.7082,11.50075 -51.79065,5.10635 -51.79065,-8.47365 0,-4.89901 16.19296,-18.12481 27.54883,-22.50076 14.42207,-5.55756 80.8626,-4.7362 90.43675,1.11795 13.27489,8.117 22.65383,27.452 20.54003,42.34405 -1.05828,7.45581 -0.79624,27.44354 0.58226,44.41714 1.92086,23.65111 1.34942,32.01812 -2.44593,35.81346 -5.80276,5.80278 -34.3137,6.65558 -39.77942,1.18986 -3.44776,-3.44775 -10.9151,-2.2142 -56.47757,9.32979 -3.03037,0.76776 -11.83123,-0.84472 -19.5575,-3.58337 z m 61.17994,-31.47389 c 20.72453,-9.16748 23.35503,-13.04679 15.06111,-22.21147 -5.45279,-6.02527 -9.44046,-6.78458 -25.15379,-4.78957 -21.77014,2.76403 -27.85658,6.61774 -27.85658,17.63778 0,17.74658 12.19519,20.7555 37.94926,9.36326 z M 38.164237,691.70883 c -7.073206,-4.95428 -8.163668,-9.04969 -8.163668,-30.65998 0,-19.66966 1.552873,-26.73241 7.34636,-33.41234 8.897745,-10.25918 8.896573,-8.29939 0.01465,-22.86857 -5.98401,-9.81487 -7.33501,-18.53007 -7.346208,-47.39029 -0.01055,-23.87729 1.477605,-36.56928 4.577734,-39.07534 2.525302,-2.0414 13.160181,-4.86329 23.633019,-6.27085 l 19.041567,-2.55921 9.471645,15.00405 c 5.209374,8.25218 11.025774,15.00399 12.925287,15.00399 1.899544,0 13.036064,14.04976 24.747874,31.22171 11.71177,17.17194 23.36033,31.22185 25.88563,31.22199 3.39093,2.2e-4 4.59148,-10.41548 4.59148,-39.83533 0,-46.22839 3.20811,-52.21718 26.40062,-49.28369 25.96381,3.284 26.86043,6.46569 26.86043,95.31486 0,74.5986 -0.39884,79.17953 -7.34635,84.38148 -7.98446,5.97834 -30.713,4.73553 -46.36522,-2.53526 -4.80283,-2.23106 -14.44781,-13.44879 -21.43328,-24.92834 -19.58151,-32.17916 -44.837423,-63.98372 -48.143459,-60.62657 -1.637324,1.66258 -3.43963,21.03318 -4.005159,43.04575 -0.70889,27.59224 -2.572945,41.56757 -6.001786,44.99641 -6.700088,6.70005 -26.639155,6.29549 -36.690107,-0.74447 z m 582.782863,3.27914 c -3.26952,-0.87271 -8.9484,-7.16452 -12.61975,-13.98183 -5.88438,-10.92663 -6.10878,-14.11138 -1.89402,-26.88221 3.77099,-11.42622 3.91362,-20.93339 0.67513,-44.99728 -5.13544,-38.15938 -0.94107,-47.60729 21.13516,-47.60729 23.49973,0 25.36324,4.94452 25.5876,67.89277 0.23692,66.46126 -3.28147,73.47732 -32.88412,65.57584 z m 123.48436,-0.84875 c -32.16314,-3.94565 -49.81124,-20.98354 -56.36202,-54.41318 -3.74804,-19.12681 -3.59219,-24.90402 0.96608,-35.81347 2.98926,-7.15431 7.58551,-13.00774 10.21389,-13.00767 2.62841,1.2e-4 9.77028,-5.94491 15.87079,-13.21112 l 11.0919,-13.21131 35.50579,-0.12049 c 42.18438,-0.14325 55.08865,5.45882 68.54051,29.75489 20.837,37.63462 1.77561,92.10268 -32.33842,92.40729 -7.19499,0.0643 -16.29035,2.54365 -20.21191,5.50977 -3.92155,2.96614 -8.88034,5.16022 -11.01952,4.87577 -2.13919,-0.2843 -12.15487,-1.53116 -22.25709,-2.77045 z m 34.89697,-37.1173 c 11.37816,-11.37818 10.39398,-45.03757 -1.66966,-57.10118 -11.74394,-11.74398 -18.57785,-11.37265 -31.67148,1.721 -8.64436,8.64434 -10.73698,13.917 -10.73698,27.05346 0,30.38054 25.58327,46.82157 44.07812,28.32672 z m 108.40728,34.86779 c -30.89513,-11.00159 -31.31824,-30.43555 -0.73765,-33.88246 13.38494,-1.50864 18.73984,-0.32177 26.66189,5.90977 5.45216,4.28869 14.53086,7.79761 20.17485,7.79761 10.80757,0 23.28032,-9.33564 19.8621,-14.86642 -4.87082,-7.8812 -40.0245,-21.86534 -54.96554,-21.86534 -13.24658,0 -17.48844,-1.88659 -25.41045,-11.30134 -15.72648,-18.68993 -11.42611,-39.1418 11.5402,-54.88312 24.12664,-16.53661 90.21464,-11.17898 100.56047,8.15221 7.97846,14.90795 -17.76135,25.80516 -37.20425,15.75079 -14.29468,-7.39204 -32.58716,-7.09804 -35.53007,0.57111 -3.22763,8.41098 7.46003,15.26226 27.83859,17.84587 9.32337,1.18206 25.54326,6.14842 36.04421,11.03638 16.21435,7.54742 19.4432,10.75599 21.4181,21.28337 3.26354,17.39598 -5.63165,37.04068 -18.93809,41.824 -27.45345,9.86879 -38.24822,12.15288 -56.72858,12.00349 -10.96793,-0.0885 -26.53154,-2.50785 -34.58578,-5.37592 z M 1004.1268,549.76519 c -2.4244,-2.42429 -4.40785,-8.70543 -4.40785,-13.95808 0,-12.13895 6.22695,-18.36587 18.36575,-18.36587 12.1391,0 18.366,6.22692 18.366,18.36587 0,5.25265 -1.9835,11.53379 -4.4078,13.95808 -5.6821,5.68211 -22.234,5.68211 -27.9161,0 z m 26.8142,-13.95808 c 0,-12.2439 -0.6123,-12.85611 -12.8563,-12.85611 -10.6557,0 -13.0628,1.4602 -14.0647,8.5318 -2.0801,14.68131 1.9244,19.58941 14.9578,18.33333 11.0037,-1.06044 11.9632,-2.18388 11.9632,-14.00902 z m -20.1463,0.66284 c -0.049,-10.55682 1.053,-12.03575 8.2085,-11.01953 6.1896,0.87906 8.3068,3.66641 8.4329,11.10227 0.1355,8.00544 -0.8079,9.11841 -4.8715,5.74596 -3.837,-3.18447 -5.8359,-2.9241 -8.3767,1.09101 -2.3931,3.78197 -3.3528,1.8248 -3.3932,-6.91971 z m 14.6365,-4.336 c 0,-2.02025 -2.4795,-3.67318 -5.5098,-3.67318 -3.0303,0 -5.5097,1.65293 -5.5097,3.67318 0,2.02023 2.4794,3.67316 5.5097,3.67316 3.0303,0 5.5098,-1.65293 5.5098,-3.67316 z m -412.31398,7.05213 c -7.75286,-4.51562 -8.445,-19.17141 -1.18974,-25.1927 2.88105,-2.3911 12.3854,-3.83319 21.12076,-3.20467 14.3522,1.03269 15.9965,2.13739 17.06616,11.46612 0.65103,5.67785 -0.79106,12.70279 -3.20466,15.61099 -5.04418,6.0779 -24.33046,6.8314 -33.79252,1.32026 z"
       id="path5308"
       inkscape:connector-curvature="0" />
  </g>
</svg>
