<?xml version="1.0" encoding="UTF-8"?>
<!DOCTYPE svg PUBLIC "-//W3C//DTD SVG 1.1//EN" "http://www.w3.org/Graphics/SVG/1.1/DTD/svg11.dtd">
<svg xmlns="http://www.w3.org/2000/svg" xml:space="preserve" width="1920px" height="350px" version="1.1" style="shape-rendering:geometricPrecision; text-rendering:geometricPrecision; image-rendering:optimizeQuality; fill-rule:evenodd; clip-rule:evenodd"
viewBox="0 0 2024 369"
 xmlns:xlink="http://www.w3.org/1999/xlink">
 <defs>
  <style type="text/css">
   <![CDATA[
    .fil0 {fill:#1A3867}
    .fil1 {fill:#ED7F22}
   ]]>
  </style>
 </defs>
 <g id="Laag_x0020_1">
  <path id="_10_M" class="fil0" d="M1965 7l0 56c0,4 1,3 7,3 5,0 3,-3 3,-7l0 -34 20 30c2,-2 7,-11 10,-15 2,-3 8,-13 10,-15l0 41c7,1 10,1 10,-3l0 -56c0,-4 -2,-4 -10,-3 -3,5 -19,29 -20,31l-20 -31c-7,0 -10,-1 -10,3z"/>
  <path id="_9_T" class="fil0" d="M1910 7c0,10 -1,10 5,9 3,0 6,0 9,0 1,9 0,35 0,46 0,4 1,3 7,3 6,0 4,-4 4,-9 0,-9 -1,-35 0,-40l14 0c1,-10 1,-13 -4,-13l-33 0c-3,0 -3,0 -3,3z"/>
  <path id="_8_N" class="fil0" d="M1636 9l0 305c0,4 2,5 5,5l44 0c3,0 4,-1 5,-2l0 -209 134 211c9,1 37,0 48,0 4,0 6,-1 6,-5l0 -307c-2,-1 -3,-3 -7,-3l-42 0c-8,0 -6,10 -6,21l0 191 -134 -211c-11,-1 -32,0 -45,0 -5,0 -10,0 -10,5z"/>
  <path id="_7_P" class="fil0" d="M1464 60c6,-1 34,0 44,0 7,0 6,0 11,3 23,14 29,55 0,77 -4,3 -6,3 -11,3 -10,0 -37,1 -44,0l0 -83zm-56 -51l0 305c0,4 2,5 5,5l45 0c6,0 5,-5 5,-10 0,-15 -1,-107 0,-113 5,-1 48,0 57,0 12,0 31,-10 40,-17 16,-14 28,-29 35,-50 6,-20 6,-44 -2,-63 -7,-18 -14,-28 -30,-42 -6,-5 -21,-14 -28,-17 -13,-4 -10,-3 -24,-3l-90 0c-6,0 -13,-1 -13,5z"/>
  <polygon id="_6_V" class="fil0" points="1230,319 1268,320 1378,4 1320,4 1249,207 1178,4 1120,4 "/>
  <path id="_5_N" class="fil1" d="M886 319c6,0 38,1 41,0 5,-3 3,-16 3,-22l0 -174c2,2 26,45 28,49l28 49c5,8 9,16 14,25l28 49c5,8 9,17 14,25 7,1 26,1 33,0 6,-1 5,-6 5,-12l0 -252c0,-5 1,-11 -3,-13 -3,-1 -28,-1 -33,-1 -7,0 -9,1 -9,8 1,55 0,113 0,168 -2,-3 -4,-7 -6,-11 -2,-4 -4,-7 -6,-11l-37 -66c-13,-22 -24,-44 -37,-66 -4,-7 -8,-15 -13,-22l-50 0c-1,8 0,231 0,263 0,8 -1,10 3,15z"/>
  <path id="_4_E" class="fil1" d="M644 46l0 269c0,3 1,5 5,5l177 0c4,0 6,-3 6,-7 0,-46 3,-42 -12,-42l-105 0c-6,0 -13,2 -13,-5 0,-9 -1,-62 1,-66 4,-1 58,-1 70,-1 7,0 18,2 18,-5l0 -40c-3,-2 -4,-3 -9,-3l-73 0c-5,0 -7,1 -7,-5l0 -53c0,-3 1,-4 5,-4 3,0 6,0 9,0l105 0c7,0 11,1 11,-7l0 -38c-2,-1 -3,-3 -7,-3l-176 0c-3,0 -5,1 -5,5z"/>
  <path id="_3_P" class="fil1" d="M482 86c7,-1 22,0 30,0 13,0 16,-1 25,5 13,7 22,20 22,38 0,11 -3,16 -7,23 -3,6 -9,12 -15,15 -10,5 -12,5 -26,5 -8,0 -22,1 -30,0l0 -85zm-59 -42l0 271c0,6 5,5 11,5l48 0 0 -1c0,-2 1,-2 1,-9 0,-13 -1,-90 0,-95 5,-1 57,0 68,0 7,0 7,0 12,-2 14,-7 30,-17 38,-30 2,-3 4,-6 6,-8 18,-32 15,-70 -6,-100 -5,-7 -10,-12 -17,-18 -4,-3 -7,-4 -11,-7 -2,-1 -4,-2 -6,-3 -11,-7 -25,-4 -40,-4l-87 0c-7,0 -11,-1 -16,2z"/>
  <path id="_2_O" class="fil1" d="M0 179c0,18 -1,28 4,47 3,14 8,32 15,45 1,2 1,3 2,5 1,2 2,3 3,5l12 19c8,11 19,23 29,31 3,2 5,5 8,7l18 12c0,-9 7,-49 9,-62 3,-30 5,-11 -9,-34 -7,-12 -11,-19 -15,-33 -7,-29 -4,-54 10,-80l7 -12c5,-7 19,-21 26,-26 9,-6 4,-4 16,-10 22,-11 34,-11 56,-11 10,0 28,5 38,9 8,3 15,8 21,12 5,3 17,14 21,20 4,6 6,7 11,16 11,19 16,44 13,66 -2,17 -7,32 -16,47l-10 14c-5,5 -3,3 -1,19l9 65c7,-3 28,-20 34,-26 21,-21 37,-44 47,-73 13,-40 14,-72 4,-114 -2,-8 -8,-26 -12,-33l-12 -21c-2,-3 -3,-4 -5,-7 -3,-5 -16,-19 -21,-24 -13,-12 -24,-20 -39,-29 -2,-1 -5,-3 -7,-4 -6,-3 -18,-8 -24,-10 -16,-6 -40,-10 -58,-10 -20,0 -39,4 -57,10 -6,2 -10,4 -16,7 -5,2 -10,5 -15,8 -14,8 -14,8 -27,19 -7,6 -11,10 -17,16 -10,10 -28,36 -33,47l-7 15c-6,15 -12,40 -12,57z"/>
  <path id="_1_Sleutelgat" class="fil0" d="M126 185c0,11 0,17 4,28 3,7 3,7 8,14 7,9 14,13 25,18l-23 124 88 0 -23 -125c3,-2 9,-4 15,-8 18,-14 26,-34 22,-58 -1,-4 -2,-6 -4,-10 -7,-18 -29,-34 -51,-34 -18,0 -28,2 -43,14 -3,3 -11,12 -12,16 -3,6 -7,13 -7,22z"/>
 </g>
</svg>
