<?xml version="1.0" encoding="UTF-8"?>
 <!DOCTYPE svg PUBLIC "-//W3C//DTD SVG 1.1//EN"
   "http://www.w3.org/Graphics/SVG/1.1/DTD/svg11.dtd">
 <svg xmlns="http://www.w3.org/2000/svg" version="1.1"
   xmlns:xlink="http://www.w3.org/1999/xlink" width="800" height="104.049">
  <path
     d="m 345.337,67.687 52.858,0 -27.92,-45.004 -51.265,81.349 -23.364,0.019 L 358.052,6.36 C 360.699,2.387 365.267,0 370.239,0 c 4.91,0 9.416,2.318 12.076,6.187 l 62.616,97.863 -23.376,-0.019 -10.966,-18.182 -53.565,0 -11.687,-18.162 z m 242.529,18.181 0,-84.851 -19.824,0 0,93.146 c 0,2.579 1.047,5.04 2.889,6.881 1.94,1.922 4.5,2.988 7.259,2.988 l 90.337,0 11.654,-18.163 -92.315,0 0,-0.001 z M 260.126,70.681 c 19.229,0 34.826,-15.603 34.826,-34.832 0,-19.235 -15.596,-34.832 -34.826,-34.832 l -86.692,0 0,103.014 19.8,0 0,-84.858 65.529,0 c 9.23,0 16.669,7.458 16.669,16.675 0,9.206 -7.438,16.681 -16.669,16.681 l -55.828,-0.019 59.12,51.52 28.782,0 -39.779,-33.369 9.068,0.02 z M 51.513,104.031 C 23.072,104.031 0,80.983 0,52.53 0,24.077 23.072,1.017 51.513,1.017 l 59.875,0 c 28.447,0 51.507,23.06 51.507,51.513 0,28.459 -23.06,51.52 -51.507,51.52 L 51.513,104.031 z M 110.056,85.88 c 18.423,0 33.344,-14.927 33.344,-33.351 0,-18.423 -14.921,-33.35 -33.344,-33.35 L 52.84,19.173 c -18.417,0 -33.351,14.934 -33.351,33.356 0,18.423 14.934,33.351 33.351,33.351 l 57.216,0 z m 376.202,18.151 c -28.435,0 -51.514,-23.047 -51.514,-51.501 0,-28.453 23.079,-51.513 51.514,-51.513 l 71.158,0 -11.66,18.163 -58.159,-0.006 c -18.43,0 -33.362,14.934 -33.362,33.356 0,18.423 14.933,33.351 33.362,33.351 l 71.425,0 -11.636,18.15 -61.128,0 z M 728.588,85.88 c -15.244,0 -28.138,-10.253 -32.074,-24.238 l 84.678,0 11.667,-18.163 -96.369,-0.006 c 3.942,-14.022 16.817,-24.3 32.099,-24.3 l 58.121,0.006 11.679,-18.163 -71.159,0 c -28.428,0 -51.507,23.06 -51.507,51.513 0,28.454 23.079,51.501 51.507,51.501 l 61.128,0 11.642,-18.15 -71.412,0 z"
     style="fill:#ff0000" />
 </svg>