<?xml version="1.0" encoding="UTF-8" standalone="no"?>
<!-- Created with Inkscape (http://www.inkscape.org/) -->

<svg
   xmlns:dc="http://purl.org/dc/elements/1.1/"
   xmlns:cc="http://creativecommons.org/ns#"
   xmlns:rdf="http://www.w3.org/1999/02/22-rdf-syntax-ns#"
   xmlns:svg="http://www.w3.org/2000/svg"
   xmlns="http://www.w3.org/2000/svg"
   xmlns:xlink="http://www.w3.org/1999/xlink"
   xmlns:sodipodi="http://sodipodi.sourceforge.net/DTD/sodipodi-0.dtd"
   xmlns:inkscape="http://www.inkscape.org/namespaces/inkscape"
   width="159.28pt"
   height="159.89pt"
   id="svg13653"
   sodipodi:version="0.32"
   inkscape:version="0.48.4 r9939"
   sodipodi:docname="roteador_simbolo_indisponivel.svg"
   version="1.0">
  <defs
     id="defs13655">
    <linearGradient
       id="linearGradient12828">
      <stop
         id="stop12830"
         offset="0"
         style="stop-color:#484849;stop-opacity:1;" />
      <stop
         style="stop-color:#434344;stop-opacity:1;"
         offset="0"
         id="stop12862" />
      <stop
         id="stop12832"
         offset="1.0000000"
         style="stop-color:#8f8f90;stop-opacity:0.0000000;" />
    </linearGradient>
    <radialGradient
       inkscape:collect="always"
       xlink:href="#linearGradient12828"
       id="radialGradient13651"
       cx="328.57144"
       cy="602.7193"
       fx="328.57144"
       fy="602.7193"
       r="147.14285"
       gradientTransform="matrix(1,0,0,0.177184,-1.31839e-15,495.9268)"
       gradientUnits="userSpaceOnUse" />
    <linearGradient
       id="linearGradient12001">
      <stop
         style="stop-color:#1b4a78;stop-opacity:1;"
         offset="0"
         id="stop12003" />
      <stop
         style="stop-color:#5dacd1;stop-opacity:1;"
         offset="1"
         id="stop12005" />
    </linearGradient>
    <linearGradient
       inkscape:collect="always"
       xlink:href="#linearGradient12001"
       id="linearGradient13633"
       gradientUnits="userSpaceOnUse"
       gradientTransform="matrix(0.471308,0,0,0.471308,118.8781,123.5182)"
       x1="175.71875"
       y1="737.01562"
       x2="470.00089"
       y2="737.01562" />
    <radialGradient
       inkscape:collect="always"
       xlink:href="#linearGradient12828"
       id="radialGradient13688"
       gradientUnits="userSpaceOnUse"
       gradientTransform="matrix(1,0,0,0.177184,0,495.9268)"
       cx="328.57144"
       cy="602.7193"
       fx="328.57144"
       fy="602.7193"
       r="147.14285" />
    <linearGradient
       inkscape:collect="always"
       xlink:href="#linearGradient12001"
       id="linearGradient13690"
       gradientUnits="userSpaceOnUse"
       gradientTransform="matrix(0.471308,0,0,0.471308,118.8781,123.5182)"
       x1="175.71875"
       y1="737.01562"
       x2="470.00089"
       y2="737.01562" />
    <linearGradient
       id="SVGID_1_"
       gradientUnits="userSpaceOnUse"
       x1="306"
       y1="-333"
       x2="306"
       y2="-373"
       gradientTransform="matrix(1,0,0,-1,-285,-332)">
      <stop
         offset="0"
         style="stop-color:#5DF24F"
         id="stop7" />
      <stop
         offset="1"
         style="stop-color:#2A9C06"
         id="stop9" />
    </linearGradient>
    <linearGradient
       inkscape:collect="always"
       xlink:href="#linearGradient2555"
       id="linearGradient2026"
       gradientUnits="userSpaceOnUse"
       gradientTransform="matrix(-0.657176,0,0,0.657176,-16.96567,114.6286)"
       x1="-344.15295"
       y1="274.711"
       x2="-395.84943"
       y2="425.39993" />
    <linearGradient
       inkscape:collect="always"
       id="linearGradient2555">
      <stop
         style="stop-color:#ffffff;stop-opacity:1;"
         offset="0"
         id="stop2557" />
      <stop
         style="stop-color:#ffffff;stop-opacity:0;"
         offset="1"
         id="stop2559" />
    </linearGradient>
    <linearGradient
       y2="425.39993"
       x2="-395.84943"
       y1="274.711"
       x1="-344.15295"
       gradientTransform="matrix(-0.657176,0,0,0.657176,-16.96567,114.6286)"
       gradientUnits="userSpaceOnUse"
       id="linearGradient3013"
       xlink:href="#linearGradient2555"
       inkscape:collect="always" />
  </defs>
  <sodipodi:namedview
     id="base"
     pagecolor="#ffffff"
     bordercolor="#666666"
     borderopacity="1.0"
     inkscape:pageopacity="0.0"
     inkscape:pageshadow="2"
     inkscape:zoom="1.4"
     inkscape:cx="111.38863"
     inkscape:cy="154.9881"
     inkscape:document-units="px"
     inkscape:current-layer="layer1"
     inkscape:window-width="1600"
     inkscape:window-height="838"
     inkscape:window-x="-8"
     inkscape:window-y="-8"
     showgrid="false"
     inkscape:window-maximized="1" />
  <g
     inkscape:label="Capa 1"
     inkscape:groupmode="layer"
     id="layer1">
    <g
       id="g13678"
       transform="matrix(1.3077083,0,0,1.3077083,-252.7133,-488.0689)">
      <path
         transform="matrix(0.592567,0,0,1.045917,75.12109,-130.213)"
         d="m 475.71429,602.7193 c 0,14.39885 -65.87809,26.07143 -147.14285,26.07143 -81.26475,0 -147.14285,-11.67258 -147.14285,-26.07143 0,-14.39885 65.8781,-26.07143 147.14285,-26.07143 81.26476,0 147.14285,11.67258 147.14285,26.07143 z"
         sodipodi:ry="26.071428"
         sodipodi:rx="147.14285"
         sodipodi:cy="602.7193"
         sodipodi:cx="328.57144"
         id="path13641"
         style="fill:url(#radialGradient13688);fill-opacity:1;stroke:none"
         sodipodi:type="arc" />
      <path
         id="path13626"
         d="m 201.71286,435.70728 0,0.29457 c 0.006,-0.0975 0.0206,-0.19729 0.0295,-0.29457 l -0.0295,0 z m 138.62351,0 c 0.0302,0.33044 0.0589,0.66821 0.0589,1.00153 l 0,-1.00153 -0.0589,0 z m 0.0589,1.00153 c -10e-6,15.05224 -31.07495,27.26223 -69.35594,27.26223 -37.68286,10e-6 -68.3765,-11.82771 -69.32649,-26.55527 l 0,40.67979 c -0.0151,0.23376 -0.0147,0.45704 -0.0147,0.69223 0,0.22546 8.7e-4,0.45335 0.0147,0.67751 0.91151,14.74102 31.61889,26.59945 69.32649,26.59945 37.7076,0 68.41498,-11.85843 69.32648,-26.59945 l 0.0295,0 0,-0.50077 c 9.5e-4,-0.0587 0,-0.11794 0,-0.17674 0,-0.0588 9.4e-4,-0.11803 0,-0.17674 l 0,-41.90224 z"
         style="fill:url(#linearGradient13690);fill-opacity:1;stroke:none"
         inkscape:connector-curvature="0" />
      <path
         transform="matrix(0.471308,0,0,1.045917,116.1877,-191.5659)"
         d="m 475.71429,602.7193 c 0,14.39885 -65.87809,26.07143 -147.14285,26.07143 -81.26475,0 -147.14285,-11.67258 -147.14285,-26.07143 0,-14.39885 65.8781,-26.07143 147.14285,-26.07143 81.26476,0 147.14285,11.67258 147.14285,26.07143 z"
         sodipodi:ry="26.071428"
         sodipodi:rx="147.14285"
         sodipodi:cy="602.7193"
         sodipodi:cx="328.57144"
         id="path11090"
         style="fill:#3a78a0;fill-opacity:1;stroke:none"
         sodipodi:type="arc" />
      <g
         transform="matrix(0.84958,0.276715,-0.703617,0.334119,443.2028,133.2284)"
         style="fill:#f2fdff;fill-opacity:0.71171169"
         id="g13565">
        <path
           style="fill:#f2fdff;fill-opacity:0.71171169;stroke:none"
           d="m 328.66945,592.8253 -5.97867,10.35298 -5.97867,10.35297 6.18436,0 0,21.24074 11.53226,0 0,-21.24074 6.18435,0 -5.97867,-10.35297 -5.96496,-10.35298 z"
           id="path13507"
           inkscape:connector-curvature="0" />
        <path
           style="fill:#f2fdff;fill-opacity:0.71171169;stroke:none"
           d="m 328.66945,687.10951 -5.97867,-10.35298 -5.97867,-10.35297 6.18436,0 0,-21.24074 11.53226,0 0,21.24074 6.18435,0 -5.97867,10.35297 -5.96496,10.35298 z"
           id="path13509"
           inkscape:connector-curvature="0" />
        <path
           style="fill:#f2fdff;fill-opacity:0.71171169;stroke:none"
           d="m 333.74751,639.82449 10.35297,-5.97867 10.35297,-5.97867 0,6.18436 21.24074,0 0,11.53225 -21.24074,0 0,6.18436 -10.35297,-5.97867 -10.35297,-5.96496 z"
           id="path13511"
           inkscape:connector-curvature="0" />
        <path
           style="fill:#f2fdff;fill-opacity:0.71171169;stroke:none"
           d="m 323.35667,639.82449 -10.35297,-5.97867 -10.35298,-5.97867 0,6.18436 -21.24073,0 0,11.53225 21.24073,0 0,6.18436 10.35298,-5.97867 10.35297,-5.96496 z"
           id="path13513"
           inkscape:connector-curvature="0" />
      </g>
    </g>
    <g
       transform="matrix(0.64319998,0,0,0.64319998,-15.834576,-118.55448)"
       id="g2071">
      <rect
         inkscape:export-ydpi="7.7063322"
         inkscape:export-xdpi="7.7063322"
         inkscape:export-filename="C:\Documents and Settings\Molumen\Desktop\path3511111.png"
         transform="scale(-1,1)"
         ry="39.430557"
         rx="39.430557"
         y="318.34387"
         x="-318.76086"
         height="144.63728"
         width="145.8244"
         id="rect3417"
         style="fill:#f00a10;fill-opacity:1;fill-rule:evenodd;stroke:none" />
      <g
         inkscape:export-ydpi="7.7063322"
         inkscape:export-xdpi="7.7063322"
         inkscape:export-filename="C:\Documents and Settings\Molumen\Desktop\path3511111.png"
         transform="matrix(0.657176,0,0,0.657176,-102.644,-95.3871)"
         id="g3479">
        <path
           inkscape:connector-curvature="0"
           id="path3419"
           d="m 554.12665,739.60331 35.77776,-35.77776 c 3.74808,-3.74826 5.62215,-7.89395 5.62222,-12.43703 -0.22723,-4.08899 -2.10129,-7.89392 -5.62222,-11.41481 -3.18031,-3.18034 -6.92845,-4.99762 -11.24444,-5.45184 -4.42968,-0.34085 -8.63213,1.47644 -12.6074,5.45184 l -35.77776,35.77776 -35.77776,-35.77776 c -3.63453,-3.63467 -7.72341,-5.45195 -12.26667,-5.45184 -4.42957,0.34063 -8.29129,2.15791 -11.58517,5.45185 -2.83945,2.83938 -4.48636,6.53074 -4.94075,11.07406 -0.45425,4.77025 1.19267,9.0295 4.94075,12.77778 l 35.77775,35.77776 -35.77775,35.77775 c -3.18019,3.18005 -4.94067,7.32572 -5.28149,12.43705 0.34082,4.42939 2.1013,8.23433 5.28149,11.41479 2.95313,2.95287 6.70128,4.77014 11.24444,5.45186 4.42967,0.34051 8.63212,-1.47677 12.6074,-5.45186 l 35.77775,-35.77775 35.77777,35.77776 c 3.7481,3.74791 7.89378,5.39483 12.43703,4.94073 4.65673,-0.34096 8.46167,-1.98788 11.41481,-4.94073 2.72586,-2.72615 4.37277,-6.4175 4.94073,-11.07407 0.68142,-4.54342 -0.96549,-8.80267 -4.94073,-12.77778 l -35.77776,-35.77776"
           style="font-size:454.95709229px;font-style:normal;font-variant:normal;font-weight:normal;font-stretch:normal;line-height:100%;writing-mode:lr-tb;text-anchor:start;fill:#cb1e0e;fill-opacity:1;stroke:none;font-family:GOST type B" />
        <path
           inkscape:connector-curvature="0"
           style="font-size:454.95709229px;font-style:normal;font-variant:normal;font-weight:normal;font-stretch:normal;line-height:100%;writing-mode:lr-tb;text-anchor:start;fill:#ffffff;fill-opacity:1;stroke:none;font-family:GOST type B"
           d="m 552.27953,739.60331 32.98715,-32.98715 c 3.45573,-3.4559 5.18363,-7.27823 5.18369,-11.46696 -0.2095,-3.77006 -1.93739,-7.27821 -5.18369,-10.52447 -2.93225,-2.93228 -6.38804,-4.60782 -10.36739,-5.02661 -4.08417,-0.31426 -7.95884,1.36128 -11.62404,5.02661 l -32.98715,32.98715 -32.98715,-32.98715 c -3.35104,-3.35117 -7.121,-5.02671 -11.30989,-5.02661 -4.08407,0.31406 -7.64458,1.9896 -10.68154,5.02662 -2.61798,2.61791 -4.13643,6.02135 -4.55538,10.2103 -0.41882,4.39817 1.09964,8.32521 4.55538,11.78113 l 32.98714,32.98715 -32.98714,32.98714 c -2.93214,2.93201 -4.55531,6.75432 -4.86954,11.46697 0.31423,4.08391 1.9374,7.59207 4.86954,10.52446 2.72279,2.72255 6.17859,4.39807 10.36739,5.02662 4.08416,0.31395 7.95883,-1.36158 11.62404,-5.02662 l 32.98714,-32.98714 32.98716,32.98715 c 3.45575,3.45558 7.27807,4.97404 11.46696,4.55536 4.29351,-0.31437 7.80167,-1.83283 10.52447,-4.55536 2.51325,-2.51352 4.0317,-5.91695 4.55536,-10.21031 0.62827,-4.18904 -0.89018,-8.11608 -4.55536,-11.78113 l -32.98715,-32.98715"
           id="path3421" />
      </g>
      <path
         inkscape:connector-curvature="0"
         inkscape:export-ydpi="7.7063322"
         inkscape:export-xdpi="7.7063322"
         inkscape:export-filename="C:\Documents and Settings\Molumen\Desktop\path3511111.png"
         sodipodi:nodetypes="ccccsssc"
         id="path3423"
         d="m 280.23405,324.52719 -68.77064,0 c -18.20378,0 -32.8588,14.65502 -32.8588,32.85879 l 0,66.55294 c 0.58922,14.20959 2.85575,5.22659 7.16998,-10.50956 5.01405,-18.28861 21.34331,-34.27311 41.22946,-46.25257 15.17845,-9.14349 32.16783,-14.98217 63.09303,-15.53761 17.53858,-0.31499 15.99021,-22.57853 -9.86303,-27.11199 z"
         style="fill:url(#linearGradient3013);fill-opacity:1;fill-rule:evenodd;stroke:none" />
    </g>
  </g>
  <metadata
     id="metadata26">
    <rdf:RDF>
      <cc:Work>
        <dc:format>image/svg+xml</dc:format>
        <dc:type
           rdf:resource="http://purl.org/dc/dcmitype/StillImage" />
        <cc:license
           rdf:resource="http://creativecommons.org/licenses/publicdomain/" />
        <dc:publisher>
          <cc:Agent
             rdf:about="http://openclipart.org/">
            <dc:title>Open Clip Art Library</dc:title>
          </cc:Agent>
        </dc:publisher>
        <dc:title></dc:title>
        <dc:date>2006-12-07T10:59:07</dc:date>
        <dc:description>A simple router for network diagrams</dc:description>
        <dc:source>http://openclipart.org/detail/1918/router-by-juanjo</dc:source>
        <dc:creator>
          <cc:Agent>
            <dc:title>juanjo</dc:title>
          </cc:Agent>
        </dc:creator>
        <dc:subject>
          <rdf:Bag>
            <rdf:li>clip art</rdf:li>
            <rdf:li>clipart</rdf:li>
            <rdf:li>computer</rdf:li>
            <rdf:li>computer</rdf:li>
            <rdf:li>diagram</rdf:li>
            <rdf:li>diagram</rdf:li>
            <rdf:li>image</rdf:li>
            <rdf:li>media</rdf:li>
            <rdf:li>network</rdf:li>
            <rdf:li>network</rdf:li>
            <rdf:li>png</rdf:li>
            <rdf:li>public domain</rdf:li>
            <rdf:li>router</rdf:li>
            <rdf:li>router</rdf:li>
            <rdf:li>svg</rdf:li>
          </rdf:Bag>
        </dc:subject>
      </cc:Work>
      <cc:License
         rdf:about="http://creativecommons.org/licenses/publicdomain/">
        <cc:permits
           rdf:resource="http://creativecommons.org/ns#Reproduction" />
        <cc:permits
           rdf:resource="http://creativecommons.org/ns#Distribution" />
        <cc:permits
           rdf:resource="http://creativecommons.org/ns#DerivativeWorks" />
      </cc:License>
    </rdf:RDF>
  </metadata>
</svg>
