<?xml version="1.0" encoding="UTF-8" standalone="no"?>
<!-- Created with Inkscape (http://www.inkscape.org/) -->

<svg
   xmlns:dc="http://purl.org/dc/elements/1.1/"
   xmlns:cc="http://creativecommons.org/ns#"
   xmlns:rdf="http://www.w3.org/1999/02/22-rdf-syntax-ns#"
   xmlns:svg="http://www.w3.org/2000/svg"
   xmlns="http://www.w3.org/2000/svg"
   xmlns:xlink="http://www.w3.org/1999/xlink"
   xmlns:sodipodi="http://sodipodi.sourceforge.net/DTD/sodipodi-0.dtd"
   xmlns:inkscape="http://www.inkscape.org/namespaces/inkscape"
   width="159.28pt"
   height="159.89pt"
   id="svg13653"
   sodipodi:version="0.32"
   inkscape:version="0.48.4 r9939"
   sodipodi:docname="roteador_simbolo.svg"
   version="1.0">
  <defs
     id="defs13655">
    <linearGradient
       id="linearGradient12828">
      <stop
         id="stop12830"
         offset="0"
         style="stop-color:#484849;stop-opacity:1;" />
      <stop
         style="stop-color:#434344;stop-opacity:1;"
         offset="0"
         id="stop12862" />
      <stop
         id="stop12832"
         offset="1.0000000"
         style="stop-color:#8f8f90;stop-opacity:0.0000000;" />
    </linearGradient>
    <radialGradient
       inkscape:collect="always"
       xlink:href="#linearGradient12828"
       id="radialGradient13651"
       cx="328.57144"
       cy="602.7193"
       fx="328.57144"
       fy="602.7193"
       r="147.14285"
       gradientTransform="matrix(1,0,0,0.177184,-1.31839e-15,495.9268)"
       gradientUnits="userSpaceOnUse" />
    <linearGradient
       id="linearGradient12001">
      <stop
         style="stop-color:#1b4a78;stop-opacity:1;"
         offset="0"
         id="stop12003" />
      <stop
         style="stop-color:#5dacd1;stop-opacity:1;"
         offset="1"
         id="stop12005" />
    </linearGradient>
    <linearGradient
       inkscape:collect="always"
       xlink:href="#linearGradient12001"
       id="linearGradient13633"
       gradientUnits="userSpaceOnUse"
       gradientTransform="matrix(0.471308,0,0,0.471308,118.8781,123.5182)"
       x1="175.71875"
       y1="737.01562"
       x2="470.00089"
       y2="737.01562" />
    <radialGradient
       inkscape:collect="always"
       xlink:href="#linearGradient12828"
       id="radialGradient13688"
       gradientUnits="userSpaceOnUse"
       gradientTransform="matrix(1,0,0,0.177184,0,495.9268)"
       cx="328.57144"
       cy="602.7193"
       fx="328.57144"
       fy="602.7193"
       r="147.14285" />
    <linearGradient
       inkscape:collect="always"
       xlink:href="#linearGradient12001"
       id="linearGradient13690"
       gradientUnits="userSpaceOnUse"
       gradientTransform="matrix(0.471308,0,0,0.471308,118.8781,123.5182)"
       x1="175.71875"
       y1="737.01562"
       x2="470.00089"
       y2="737.01562" />
  </defs>
  <sodipodi:namedview
     id="base"
     pagecolor="#ffffff"
     bordercolor="#666666"
     borderopacity="1.0"
     inkscape:pageopacity="0.0"
     inkscape:pageshadow="2"
     inkscape:zoom="1.4"
     inkscape:cx="111.38863"
     inkscape:cy="160.76294"
     inkscape:document-units="px"
     inkscape:current-layer="layer1"
     inkscape:window-width="1600"
     inkscape:window-height="838"
     inkscape:window-x="-8"
     inkscape:window-y="-8"
     showgrid="false"
     inkscape:window-maximized="1" />
  <g
     inkscape:label="Capa 1"
     inkscape:groupmode="layer"
     id="layer1">
    <g
       id="g13678"
       transform="matrix(1.3077083,0,0,1.3077083,-252.7133,-488.0689)">
      <path
         transform="matrix(0.592567,0,0,1.045917,75.12109,-130.213)"
         d="m 475.71429,602.7193 c 0,14.39885 -65.87809,26.07143 -147.14285,26.07143 -81.26475,0 -147.14285,-11.67258 -147.14285,-26.07143 0,-14.39885 65.8781,-26.07143 147.14285,-26.07143 81.26476,0 147.14285,11.67258 147.14285,26.07143 z"
         sodipodi:ry="26.071428"
         sodipodi:rx="147.14285"
         sodipodi:cy="602.7193"
         sodipodi:cx="328.57144"
         id="path13641"
         style="fill:url(#radialGradient13688);fill-opacity:1;stroke:none"
         sodipodi:type="arc" />
      <path
         id="path13626"
         d="m 201.71286,435.70728 0,0.29457 c 0.006,-0.0975 0.0206,-0.19729 0.0295,-0.29457 l -0.0295,0 z m 138.62351,0 c 0.0302,0.33044 0.0589,0.66821 0.0589,1.00153 l 0,-1.00153 -0.0589,0 z m 0.0589,1.00153 c -10e-6,15.05224 -31.07495,27.26223 -69.35594,27.26223 -37.68286,10e-6 -68.3765,-11.82771 -69.32649,-26.55527 l 0,40.67979 c -0.0151,0.23376 -0.0147,0.45704 -0.0147,0.69223 0,0.22546 8.7e-4,0.45335 0.0147,0.67751 0.91151,14.74102 31.61889,26.59945 69.32649,26.59945 37.7076,0 68.41498,-11.85843 69.32648,-26.59945 l 0.0295,0 0,-0.50077 c 9.5e-4,-0.0587 0,-0.11794 0,-0.17674 0,-0.0588 9.4e-4,-0.11803 0,-0.17674 l 0,-41.90224 z"
         style="fill:url(#linearGradient13690);fill-opacity:1;stroke:none"
         inkscape:connector-curvature="0" />
      <path
         transform="matrix(0.471308,0,0,1.045917,116.1877,-191.5659)"
         d="m 475.71429,602.7193 c 0,14.39885 -65.87809,26.07143 -147.14285,26.07143 -81.26475,0 -147.14285,-11.67258 -147.14285,-26.07143 0,-14.39885 65.8781,-26.07143 147.14285,-26.07143 81.26476,0 147.14285,11.67258 147.14285,26.07143 z"
         sodipodi:ry="26.071428"
         sodipodi:rx="147.14285"
         sodipodi:cy="602.7193"
         sodipodi:cx="328.57144"
         id="path11090"
         style="fill:#3a78a0;fill-opacity:1;stroke:none"
         sodipodi:type="arc" />
      <g
         transform="matrix(0.84958,0.276715,-0.703617,0.334119,443.2028,133.2284)"
         style="fill:#f2fdff;fill-opacity:0.71171169"
         id="g13565">
        <path
           style="fill:#f2fdff;fill-opacity:0.71171169;stroke:none"
           d="m 328.66945,592.8253 -5.97867,10.35298 -5.97867,10.35297 6.18436,0 0,21.24074 11.53226,0 0,-21.24074 6.18435,0 -5.97867,-10.35297 -5.96496,-10.35298 z"
           id="path13507"
           inkscape:connector-curvature="0" />
        <path
           style="fill:#f2fdff;fill-opacity:0.71171169;stroke:none"
           d="m 328.66945,687.10951 -5.97867,-10.35298 -5.97867,-10.35297 6.18436,0 0,-21.24074 11.53226,0 0,21.24074 6.18435,0 -5.97867,10.35297 -5.96496,10.35298 z"
           id="path13509"
           inkscape:connector-curvature="0" />
        <path
           style="fill:#f2fdff;fill-opacity:0.71171169;stroke:none"
           d="m 333.74751,639.82449 10.35297,-5.97867 10.35297,-5.97867 0,6.18436 21.24074,0 0,11.53225 -21.24074,0 0,6.18436 -10.35297,-5.97867 -10.35297,-5.96496 z"
           id="path13511"
           inkscape:connector-curvature="0" />
        <path
           style="fill:#f2fdff;fill-opacity:0.71171169;stroke:none"
           d="m 323.35667,639.82449 -10.35297,-5.97867 -10.35298,-5.97867 0,6.18436 -21.24073,0 0,11.53225 21.24073,0 0,6.18436 10.35298,-5.97867 10.35297,-5.96496 z"
           id="path13513"
           inkscape:connector-curvature="0" />
      </g>
    </g>
    <g
       transform="matrix(0.49378744,0,0,0.49378744,115.82473,97.423689)"
       style="fill:#ffd42a;fill-opacity:1"
       id="g2387"
       inkscape:export-filename="/home/mgsmith/Desktop/warning.png"
       inkscape:export-xdpi="90"
       inkscape:export-ydpi="90">
      <path
         inkscape:connector-curvature="0"
         style="fill:#ffd42a;fill-opacity:1;stroke:#000000;stroke-width:6.83137941;stroke-miterlimit:4;stroke-dasharray:none"
         sodipodi:nodetypes="ccccccccccc"
         id="path2389"
         d="m 12.473,121.082 c -0.913967,1.76129 -1.9912,3.408 -1.9913,5.341 l 0.009,0.80788 c 0,4.172 3.265872,6.69412 7.020572,6.69412 l 121.319698,0 c 3.755,0 6.98886,-3.12652 6.98886,-7.29852 L 145.78,125.815 c 0,-1.933 -0.95029,-3.61152 -1.991,-5.341 L 83.7056,12.6938 C 81.051,9.74423 76.7473,9.74423 74.0923,12.6942 L 12.473,121.082 z" />
    </g>
    <path
       transform="matrix(0.58780598,0,0,0.58780598,141.06122,108.11896)"
       d="m 31.962924,74.47538 a 8.0416269,8.0416269 0 1 1 -16.083254,0 8.0416269,8.0416269 0 1 1 16.083254,0 z"
       sodipodi:ry="8.0416269"
       sodipodi:rx="8.0416269"
       sodipodi:cy="74.47538"
       sodipodi:cx="23.921297"
       id="path2393"
       style="fill:#000000;fill-opacity:1;fill-rule:nonzero;stroke:none;stroke-width:2;marker:none;visibility:visible;display:inline;overflow:visible;enable-background:accumulate"
       sodipodi:type="arc"
       inkscape:export-filename="/home/mgsmith/Desktop/warning.png"
       inkscape:export-xdpi="90"
       inkscape:export-ydpi="90" />
    <path
       inkscape:connector-curvature="0"
       sodipodi:nodetypes="cccsccc"
       id="path2395"
       d="m 155.09152,119.05439 c 1.85703,0 4.73907,1.47957 4.73907,3.31742 l -1.38704,19.10031 c 0,1.83786 -1.495,3.31742 -3.35203,3.31742 -1.85702,0 -3.35202,-1.47956 -3.35202,-3.31742 l -1.61822,-19.10031 c 0,-1.83785 3.11322,-3.31742 4.97024,-3.31742 z"
       style="fill:#000000;fill-opacity:1;fill-rule:nonzero;stroke:none;stroke-width:2;marker:none;visibility:visible;display:inline;overflow:visible;enable-background:accumulate"
       inkscape:export-filename="/home/mgsmith/Desktop/warning.png"
       inkscape:export-xdpi="90"
       inkscape:export-ydpi="90" />
  </g>
  <metadata
     id="metadata26">
    <rdf:RDF>
      <cc:Work>
        <dc:format>image/svg+xml</dc:format>
        <dc:type
           rdf:resource="http://purl.org/dc/dcmitype/StillImage" />
        <cc:license
           rdf:resource="http://creativecommons.org/licenses/publicdomain/" />
        <dc:publisher>
          <cc:Agent
             rdf:about="http://openclipart.org/">
            <dc:title>Open Clip Art Library</dc:title>
          </cc:Agent>
        </dc:publisher>
        <dc:title></dc:title>
        <dc:date>2006-12-07T10:59:07</dc:date>
        <dc:description>A simple router for network diagrams</dc:description>
        <dc:source>http://openclipart.org/detail/1918/router-by-juanjo</dc:source>
        <dc:creator>
          <cc:Agent>
            <dc:title>juanjo</dc:title>
          </cc:Agent>
        </dc:creator>
        <dc:subject>
          <rdf:Bag>
            <rdf:li>clip art</rdf:li>
            <rdf:li>clipart</rdf:li>
            <rdf:li>computer</rdf:li>
            <rdf:li>computer</rdf:li>
            <rdf:li>diagram</rdf:li>
            <rdf:li>diagram</rdf:li>
            <rdf:li>image</rdf:li>
            <rdf:li>media</rdf:li>
            <rdf:li>network</rdf:li>
            <rdf:li>network</rdf:li>
            <rdf:li>png</rdf:li>
            <rdf:li>public domain</rdf:li>
            <rdf:li>router</rdf:li>
            <rdf:li>router</rdf:li>
            <rdf:li>svg</rdf:li>
          </rdf:Bag>
        </dc:subject>
      </cc:Work>
      <cc:License
         rdf:about="http://creativecommons.org/licenses/publicdomain/">
        <cc:permits
           rdf:resource="http://creativecommons.org/ns#Reproduction" />
        <cc:permits
           rdf:resource="http://creativecommons.org/ns#Distribution" />
        <cc:permits
           rdf:resource="http://creativecommons.org/ns#DerivativeWorks" />
      </cc:License>
    </rdf:RDF>
  </metadata>
</svg>
