<?xml version="1.0" encoding="UTF-8" standalone="no"?>
<!-- Created with Inkscape (http://www.inkscape.org/) -->

<svg
   xmlns:dc="http://purl.org/dc/elements/1.1/"
   xmlns:cc="http://creativecommons.org/ns#"
   xmlns:rdf="http://www.w3.org/1999/02/22-rdf-syntax-ns#"
   xmlns:svg="http://www.w3.org/2000/svg"
   xmlns="http://www.w3.org/2000/svg"
   xmlns:xlink="http://www.w3.org/1999/xlink"
   xmlns:sodipodi="http://sodipodi.sourceforge.net/DTD/sodipodi-0.dtd"
   xmlns:inkscape="http://www.inkscape.org/namespaces/inkscape"
   width="159.28pt"
   height="159.89pt"
   id="svg13653"
   sodipodi:version="0.32"
   inkscape:version="0.48.4 r9939"
   sodipodi:docname="roteador_simbolo_2_indisponivel.svg"
   version="1.0"
   inkscape:output_extension="org.inkscape.output.svg.inkscape"
   inkscape:export-filename="E:\Documents\Downloads\green_Router.png"
   inkscape:export-xdpi="90"
   inkscape:export-ydpi="90">
  <defs
     id="defs13655">
    <linearGradient
       id="linearGradient3172">
      <stop
         id="stop3174"
         offset="0"
         style="stop-color:#1b784d;stop-opacity:1;" />
      <stop
         id="stop3176"
         offset="1"
         style="stop-color:#5dd177;stop-opacity:1;" />
    </linearGradient>
    <linearGradient
       id="linearGradient12828">
      <stop
         id="stop12830"
         offset="0"
         style="stop-color:#484849;stop-opacity:1;" />
      <stop
         style="stop-color:#434344;stop-opacity:1;"
         offset="0"
         id="stop12862" />
      <stop
         id="stop12832"
         offset="1.0000000"
         style="stop-color:#8f8f90;stop-opacity:0.0000000;" />
    </linearGradient>
    <radialGradient
       inkscape:collect="always"
       xlink:href="#linearGradient12828"
       id="radialGradient13651"
       cx="328.57144"
       cy="602.7193"
       fx="328.57144"
       fy="602.7193"
       r="147.14285"
       gradientTransform="matrix(1,0,0,0.177184,-1.31839e-15,495.9268)"
       gradientUnits="userSpaceOnUse" />
    <linearGradient
       id="linearGradient12001">
      <stop
         style="stop-color:#1b4a78;stop-opacity:1;"
         offset="0"
         id="stop12003" />
      <stop
         style="stop-color:#5dacd1;stop-opacity:1;"
         offset="1"
         id="stop12005" />
    </linearGradient>
    <linearGradient
       inkscape:collect="always"
       xlink:href="#linearGradient12001"
       id="linearGradient13633"
       gradientUnits="userSpaceOnUse"
       gradientTransform="matrix(0.471308,0,0,0.471308,118.8781,123.5182)"
       x1="175.71875"
       y1="737.01562"
       x2="470.00089"
       y2="737.01562" />
    <radialGradient
       inkscape:collect="always"
       xlink:href="#linearGradient12828"
       id="radialGradient13688"
       gradientUnits="userSpaceOnUse"
       gradientTransform="matrix(1,0,0,0.177184,0,495.9268)"
       cx="328.57144"
       cy="602.7193"
       fx="328.57144"
       fy="602.7193"
       r="147.14285" />
    <linearGradient
       inkscape:collect="always"
       xlink:href="#linearGradient3172"
       id="linearGradient2184"
       gradientUnits="userSpaceOnUse"
       gradientTransform="matrix(0.60118477,0,0,0.60118477,-93.691139,-317.28499)"
       x1="175.71875"
       y1="737.01563"
       x2="470.00089"
       y2="737.01563" />
    <linearGradient
       inkscape:collect="always"
       xlink:href="#linearGradient3172"
       id="linearGradient3170"
       x1="196.78905"
       y1="117.51517"
       x2="304.61481"
       y2="117.23363"
       gradientUnits="userSpaceOnUse" />
    <linearGradient
       inkscape:collect="always"
       xlink:href="#linearGradient3172"
       id="linearGradient4149"
       gradientUnits="userSpaceOnUse"
       x1="279.27539"
       y1="60.087051"
       x2="277.80676"
       y2="155.81082"
       gradientTransform="matrix(0.1899712,0,0,1,411.0355,329.18409)" />
    <linearGradient
       inkscape:collect="always"
       xlink:href="#linearGradient3172"
       id="linearGradient4153"
       gradientUnits="userSpaceOnUse"
       gradientTransform="matrix(0.1921501,0,0,1,4.0053779,193.49781)"
       x1="196.78905"
       y1="117.51517"
       x2="281.96432"
       y2="55.728371" />
    <linearGradient
       id="SVGID_1_"
       gradientUnits="userSpaceOnUse"
       x1="306"
       y1="-333"
       x2="306"
       y2="-373"
       gradientTransform="matrix(1,0,0,-1,-285,-332)">
      <stop
         offset="0"
         style="stop-color:#5DF24F"
         id="stop7" />
      <stop
         offset="1"
         style="stop-color:#2A9C06"
         id="stop9" />
    </linearGradient>
    <linearGradient
       inkscape:collect="always"
       xlink:href="#linearGradient2555"
       id="linearGradient2026"
       gradientUnits="userSpaceOnUse"
       gradientTransform="matrix(-0.657176,0,0,0.657176,-16.96567,114.6286)"
       x1="-344.15295"
       y1="274.711"
       x2="-395.84943"
       y2="425.39993" />
    <linearGradient
       inkscape:collect="always"
       id="linearGradient2555">
      <stop
         style="stop-color:#ffffff;stop-opacity:1;"
         offset="0"
         id="stop2557" />
      <stop
         style="stop-color:#ffffff;stop-opacity:0;"
         offset="1"
         id="stop2559" />
    </linearGradient>
    <linearGradient
       y2="425.39993"
       x2="-395.84943"
       y1="274.711"
       x1="-344.15295"
       gradientTransform="matrix(-0.657176,0,0,0.657176,-16.96567,114.6286)"
       gradientUnits="userSpaceOnUse"
       id="linearGradient3057"
       xlink:href="#linearGradient2555"
       inkscape:collect="always" />
  </defs>
  <sodipodi:namedview
     id="base"
     pagecolor="#ffffff"
     bordercolor="#666666"
     borderopacity="1.0"
     inkscape:pageopacity="0.0"
     inkscape:pageshadow="2"
     inkscape:zoom="1.8787917"
     inkscape:cx="117.19905"
     inkscape:cy="87.753015"
     inkscape:document-units="px"
     inkscape:current-layer="layer1"
     inkscape:window-width="1600"
     inkscape:window-height="838"
     inkscape:window-x="-8"
     inkscape:window-y="-8"
     showgrid="false"
     inkscape:window-maximized="1" />
  <g
     inkscape:label="Capa 1"
     inkscape:groupmode="layer"
     id="layer1">
    <path
       sodipodi:type="arc"
       style="fill:url(#radialGradient13688);fill-opacity:1;stroke:none"
       id="path13641"
       sodipodi:cx="328.57144"
       sodipodi:cy="602.7193"
       sodipodi:rx="147.14285"
       sodipodi:ry="26.071428"
       d="m 475.71429,602.7193 a 147.14285,26.071428 0 1 1 -294.2857,0 147.14285,26.071428 0 1 1 294.2857,0 z"
       transform="matrix(0.75585871,0,0,1.3341368,-149.50612,-640.93604)" />
    <path
       style="fill:url(#linearGradient2184);fill-opacity:1;stroke:none"
       d="m 11.970119,80.93299 0,0.375745 c 0.008,-0.12442 0.02623,-0.251657 0.03758,-0.375745 l -0.03758,0 z m 176.823531,0 c 0.0385,0.421499 0.0751,0.852347 0.0751,1.277519 l 0,-1.277519 -0.0751,0 z m 0.0751,1.277519 c -1e-5,19.200131 -39.63817,34.774791 -88.46813,34.774791 -48.066997,1e-5 -87.218781,-15.08703 -88.430557,-33.873016 l 0,51.889776 c -0.01924,0.29818 -0.01879,0.58299 -0.01879,0.88299 0,0.28759 0.0011,0.57828 0.01879,0.86421 1.162691,18.80316 40.332002,33.92937 88.430557,33.92937 48.09855,0 87.26787,-15.12621 88.43054,-33.92937 l 0.0375,0 0,-0.63876 c 0.001,-0.0749 0,-0.15044 0,-0.22545 0,-0.075 0.001,-0.15055 0,-0.22544 l 0,-53.449101 z"
       id="path13626"
       inkscape:connector-curvature="0" />
    <path
       sodipodi:type="arc"
       style="fill:#1b784d;fill-opacity:1;stroke:none"
       id="path11090"
       sodipodi:cx="328.57144"
       sodipodi:cy="602.7193"
       sodipodi:rx="147.14285"
       sodipodi:ry="26.071428"
       d="m 475.71429,602.7193 a 147.14285,26.071428 0 1 1 -294.2857,0 147.14285,26.071428 0 1 1 294.2857,0 z"
       transform="matrix(0.60118477,0,0,1.3341368,-97.122924,-719.19576)" />
    <path
       style="fill:#f2fdff;fill-opacity:0.71171169;stroke:none"
       d="m 144.11751,63.767797 -15.77097,2.302065 -15.77095,2.302062 6.70197,2.182883 -19.06379,9.052613 12.49747,4.070525 19.06378,-9.052614 6.70195,2.18288 2.81284,-6.522626 2.8277,-6.517788 z"
       id="path13507"
       inkscape:connector-curvature="0" />
    <path
       style="fill:#f2fdff;fill-opacity:0.71171169;stroke:none"
       d="m 59.496455,103.95088 2.812848,-6.522627 2.812837,-6.522623 6.701965,2.182883 19.063786,-9.052613 12.497459,4.070523 -19.06378,9.052613 6.701954,2.18288 -15.770958,2.302064 -15.756111,2.3069 z"
       id="path13509"
       inkscape:connector-curvature="0" />
    <path
       style="fill:#f2fdff;fill-opacity:0.71171169;stroke:none"
       d="m 107.43832,85.590826 16.58539,1.106216 16.5854,1.106216 -5.55053,2.635719 23.0185,7.497309 -10.35032,4.914944 -23.0185,-7.497311 -5.55053,2.635718 -5.85355,-6.202326 -5.86586,-6.196485 z"
       id="path13511"
       inkscape:connector-curvature="0" />
    <path
       style="fill:#f2fdff;fill-opacity:0.71171169;stroke:none"
       d="m 96.177815,81.923188 -5.853554,-6.202328 -5.853564,-6.202332 -5.550528,2.63572 -23.018492,-7.497307 -10.350314,4.914942 23.018492,7.497307 -5.550527,2.635719 16.585401,1.10622 16.573086,1.112059 z"
       id="path13513"
       inkscape:connector-curvature="0" />
    <g
       transform="matrix(0.65180097,0,0,0.65180097,-19.728548,-119.55974)"
       id="g2071">
      <rect
         inkscape:export-ydpi="7.7063322"
         inkscape:export-xdpi="7.7063322"
         inkscape:export-filename="C:\Documents and Settings\Molumen\Desktop\path3511111.png"
         transform="scale(-1,1)"
         ry="39.430557"
         rx="39.430557"
         y="318.34387"
         x="-318.76086"
         height="144.63728"
         width="145.8244"
         id="rect3417"
         style="fill:#f00a10;fill-opacity:1;fill-rule:evenodd;stroke:none" />
      <g
         inkscape:export-ydpi="7.7063322"
         inkscape:export-xdpi="7.7063322"
         inkscape:export-filename="C:\Documents and Settings\Molumen\Desktop\path3511111.png"
         transform="matrix(0.657176,0,0,0.657176,-102.644,-95.3871)"
         id="g3479">
        <path
           inkscape:connector-curvature="0"
           id="path3419"
           d="m 554.12665,739.60331 35.77776,-35.77776 c 3.74808,-3.74826 5.62215,-7.89395 5.62222,-12.43703 -0.22723,-4.08899 -2.10129,-7.89392 -5.62222,-11.41481 -3.18031,-3.18034 -6.92845,-4.99762 -11.24444,-5.45184 -4.42968,-0.34085 -8.63213,1.47644 -12.6074,5.45184 l -35.77776,35.77776 -35.77776,-35.77776 c -3.63453,-3.63467 -7.72341,-5.45195 -12.26667,-5.45184 -4.42957,0.34063 -8.29129,2.15791 -11.58517,5.45185 -2.83945,2.83938 -4.48636,6.53074 -4.94075,11.07406 -0.45425,4.77025 1.19267,9.0295 4.94075,12.77778 l 35.77775,35.77776 -35.77775,35.77775 c -3.18019,3.18005 -4.94067,7.32572 -5.28149,12.43705 0.34082,4.42939 2.1013,8.23433 5.28149,11.41479 2.95313,2.95287 6.70128,4.77014 11.24444,5.45186 4.42967,0.34051 8.63212,-1.47677 12.6074,-5.45186 l 35.77775,-35.77775 35.77777,35.77776 c 3.7481,3.74791 7.89378,5.39483 12.43703,4.94073 4.65673,-0.34096 8.46167,-1.98788 11.41481,-4.94073 2.72586,-2.72615 4.37277,-6.4175 4.94073,-11.07407 0.68142,-4.54342 -0.96549,-8.80267 -4.94073,-12.77778 l -35.77776,-35.77776"
           style="font-size:454.95709229px;font-style:normal;font-variant:normal;font-weight:normal;font-stretch:normal;line-height:100%;writing-mode:lr-tb;text-anchor:start;fill:#cb1e0e;fill-opacity:1;stroke:none;font-family:GOST type B" />
        <path
           inkscape:connector-curvature="0"
           style="font-size:454.95709229px;font-style:normal;font-variant:normal;font-weight:normal;font-stretch:normal;line-height:100%;writing-mode:lr-tb;text-anchor:start;fill:#ffffff;fill-opacity:1;stroke:none;font-family:GOST type B"
           d="m 552.27953,739.60331 32.98715,-32.98715 c 3.45573,-3.4559 5.18363,-7.27823 5.18369,-11.46696 -0.2095,-3.77006 -1.93739,-7.27821 -5.18369,-10.52447 -2.93225,-2.93228 -6.38804,-4.60782 -10.36739,-5.02661 -4.08417,-0.31426 -7.95884,1.36128 -11.62404,5.02661 l -32.98715,32.98715 -32.98715,-32.98715 c -3.35104,-3.35117 -7.121,-5.02671 -11.30989,-5.02661 -4.08407,0.31406 -7.64458,1.9896 -10.68154,5.02662 -2.61798,2.61791 -4.13643,6.02135 -4.55538,10.2103 -0.41882,4.39817 1.09964,8.32521 4.55538,11.78113 l 32.98714,32.98715 -32.98714,32.98714 c -2.93214,2.93201 -4.55531,6.75432 -4.86954,11.46697 0.31423,4.08391 1.9374,7.59207 4.86954,10.52446 2.72279,2.72255 6.17859,4.39807 10.36739,5.02662 4.08416,0.31395 7.95883,-1.36158 11.62404,-5.02662 l 32.98714,-32.98714 32.98716,32.98715 c 3.45575,3.45558 7.27807,4.97404 11.46696,4.55536 4.29351,-0.31437 7.80167,-1.83283 10.52447,-4.55536 2.51325,-2.51352 4.0317,-5.91695 4.55536,-10.21031 0.62827,-4.18904 -0.89018,-8.11608 -4.55536,-11.78113 l -32.98715,-32.98715"
           id="path3421" />
      </g>
      <path
         inkscape:connector-curvature="0"
         inkscape:export-ydpi="7.7063322"
         inkscape:export-xdpi="7.7063322"
         inkscape:export-filename="C:\Documents and Settings\Molumen\Desktop\path3511111.png"
         sodipodi:nodetypes="ccccsssc"
         id="path3423"
         d="m 280.23405,324.52719 -68.77064,0 c -18.20378,0 -32.8588,14.65502 -32.8588,32.85879 l 0,66.55294 c 0.58922,14.20959 2.85575,5.22659 7.16998,-10.50956 5.01405,-18.28861 21.34331,-34.27311 41.22946,-46.25257 15.17845,-9.14349 32.16783,-14.98217 63.09303,-15.53761 17.53858,-0.31499 15.99021,-22.57853 -9.86303,-27.11199 z"
         style="fill:url(#linearGradient3057);fill-opacity:1;fill-rule:evenodd;stroke:none" />
    </g>
  </g>
  <metadata
     id="metadata30">
    <rdf:RDF>
      <cc:Work>
        <dc:format>image/svg+xml</dc:format>
        <dc:type
           rdf:resource="http://purl.org/dc/dcmitype/StillImage" />
        <cc:license
           rdf:resource="http://creativecommons.org/licenses/publicdomain/" />
        <dc:publisher>
          <cc:Agent
             rdf:about="http://openclipart.org/">
            <dc:title>Open Clip Art Library</dc:title>
          </cc:Agent>
        </dc:publisher>
        <dc:title></dc:title>
        <dc:date>2008-03-19T15:35:09</dc:date>
        <dc:description>Needed a green set of router and switch icons, so i remixed this</dc:description>
        <dc:source>http://openclipart.org/detail/15865/green_router-by-tombigel</dc:source>
        <dc:creator>
          <cc:Agent>
            <dc:title>Tombigel</dc:title>
          </cc:Agent>
        </dc:creator>
        <dc:subject>
          <rdf:Bag>
            <rdf:li>clip art</rdf:li>
            <rdf:li>clipart</rdf:li>
            <rdf:li>computer</rdf:li>
            <rdf:li>computer</rdf:li>
            <rdf:li>image</rdf:li>
            <rdf:li>media</rdf:li>
            <rdf:li>network</rdf:li>
            <rdf:li>network</rdf:li>
            <rdf:li>public domain</rdf:li>
            <rdf:li>remix</rdf:li>
            <rdf:li>router</rdf:li>
            <rdf:li>router</rdf:li>
            <rdf:li>svg</rdf:li>
          </rdf:Bag>
        </dc:subject>
      </cc:Work>
      <cc:License
         rdf:about="http://creativecommons.org/licenses/publicdomain/">
        <cc:permits
           rdf:resource="http://creativecommons.org/ns#Reproduction" />
        <cc:permits
           rdf:resource="http://creativecommons.org/ns#Distribution" />
        <cc:permits
           rdf:resource="http://creativecommons.org/ns#DerivativeWorks" />
      </cc:License>
    </rdf:RDF>
  </metadata>
</svg>
