<?xml version="1.0" encoding="UTF-8" standalone="no"?>
<!-- Created with Inkscape (http://www.inkscape.org/) -->

<svg
   xmlns:dc="http://purl.org/dc/elements/1.1/"
   xmlns:cc="http://creativecommons.org/ns#"
   xmlns:rdf="http://www.w3.org/1999/02/22-rdf-syntax-ns#"
   xmlns:svg="http://www.w3.org/2000/svg"
   xmlns="http://www.w3.org/2000/svg"
   xmlns:sodipodi="http://sodipodi.sourceforge.net/DTD/sodipodi-0.dtd"
   xmlns:inkscape="http://www.inkscape.org/namespaces/inkscape"
   width="546"
   height="482.67157"
   id="svg2"
   sodipodi:version="0.32"
   inkscape:version="0.48.4 r9939"
   sodipodi:docname="router.svg"
   inkscape:output_extension="org.inkscape.output.svg.inkscape"
   version="1.0"
   inkscape:export-filename="C:\Documents and Settings\Dan\Skrivbord\Clipart egna (InkScape)\Original\Kanske Upload\Wireless Router.png"
   inkscape:export-xdpi="310"
   inkscape:export-ydpi="310">
  <defs
     id="defs4">
    <inkscape:perspective
       sodipodi:type="inkscape:persp3d"
       inkscape:vp_x="-50 : 600 : 1"
       inkscape:vp_y="0 : 1000 : 0"
       inkscape:vp_z="700 : 600 : 1"
       inkscape:persp3d-origin="300 : 400 : 1"
       id="perspective148" />
    <inkscape:perspective
       sodipodi:type="inkscape:persp3d"
       inkscape:vp_x="-50 : 600 : 1"
       inkscape:vp_y="0 : 1000 : 0"
       inkscape:vp_z="700 : 600 : 1"
       inkscape:persp3d-origin="300 : 400 : 1"
       id="perspective138" />
    <inkscape:perspective
       sodipodi:type="inkscape:persp3d"
       inkscape:vp_x="-50 : 600 : 1"
       inkscape:vp_y="0 : 1000 : 0"
       inkscape:vp_z="700 : 600 : 1"
       inkscape:persp3d-origin="300 : 400 : 1"
       id="perspective10" />
    <inkscape:perspective
       id="perspective2395"
       inkscape:persp3d-origin="300 : 400 : 1"
       inkscape:vp_z="700 : 600 : 1"
       inkscape:vp_y="0 : 1000 : 0"
       inkscape:vp_x="-50 : 600 : 1"
       sodipodi:type="inkscape:persp3d" />
    <filter
       inkscape:collect="always"
       id="filter3304">
      <feGaussianBlur
         inkscape:collect="always"
         stdDeviation="0.27999283"
         id="feGaussianBlur3306" />
    </filter>
    <filter
       inkscape:collect="always"
       id="filter3336">
      <feGaussianBlur
         inkscape:collect="always"
         stdDeviation="0.5315371"
         id="feGaussianBlur3338" />
    </filter>
    <filter
       inkscape:collect="always"
       id="filter3368">
      <feGaussianBlur
         inkscape:collect="always"
         stdDeviation="0.26473573"
         id="feGaussianBlur3370" />
    </filter>
    <filter
       inkscape:collect="always"
       id="filter3564"
       x="-0.37202433"
       width="1.7440487"
       y="-0.43252525"
       height="1.8650506">
      <feGaussianBlur
         inkscape:collect="always"
         stdDeviation="1.1017616"
         id="feGaussianBlur3566" />
    </filter>
    <filter
       inkscape:collect="always"
       id="filter3748"
       x="-0.41952851"
       width="1.839057"
       y="-0.39121628"
       height="1.7824326">
      <feGaussianBlur
         inkscape:collect="always"
         stdDeviation="1.1235829"
         id="feGaussianBlur3750" />
    </filter>
    <filter
       inkscape:collect="always"
       id="filter3862"
       x="-0.33298156"
       width="1.6659631"
       y="-1.6699424"
       height="4.3398848">
      <feGaussianBlur
         inkscape:collect="always"
         stdDeviation="0.82006695"
         id="feGaussianBlur3864" />
    </filter>
    <filter
       inkscape:collect="always"
       id="filter3866"
       x="-0.33298156"
       width="1.6659631"
       y="-0.20756502"
       height="1.4151301">
      <feGaussianBlur
         inkscape:collect="always"
         stdDeviation="0.82006695"
         id="feGaussianBlur3868" />
    </filter>
    <filter
       inkscape:collect="always"
       id="filter3870"
       x="-0.33298156"
       width="1.6659631"
       y="-1.6699424"
       height="4.3398848">
      <feGaussianBlur
         inkscape:collect="always"
         stdDeviation="0.82006695"
         id="feGaussianBlur3872" />
    </filter>
    <filter
       inkscape:collect="always"
       id="filter3874"
       x="-0.3380883"
       width="1.6761765"
       y="-0.21154897"
       height="1.4230978">
      <feGaussianBlur
         inkscape:collect="always"
         stdDeviation="0.82006695"
         id="feGaussianBlur3876" />
    </filter>
    <filter
       inkscape:collect="always"
       id="filter3878"
       x="-0.33298156"
       width="1.6659631"
       y="-1.6699424"
       height="4.3398848">
      <feGaussianBlur
         inkscape:collect="always"
         stdDeviation="0.82006695"
         id="feGaussianBlur3880" />
    </filter>
    <filter
       inkscape:collect="always"
       id="filter3882"
       x="-0.36018598"
       width="1.720372"
       y="-0.20953795"
       height="1.4190758">
      <feGaussianBlur
         inkscape:collect="always"
         stdDeviation="0.82006695"
         id="feGaussianBlur3884" />
    </filter>
    <filter
       inkscape:collect="always"
       id="filter3886"
       x="-0.33298156"
       width="1.6659631"
       y="-1.6699424"
       height="4.3398848">
      <feGaussianBlur
         inkscape:collect="always"
         stdDeviation="0.82006695"
         id="feGaussianBlur3888" />
    </filter>
    <filter
       inkscape:collect="always"
       id="filter3890"
       x="-0.35439494"
       width="1.7087899"
       y="-0.20953795"
       height="1.4190758">
      <feGaussianBlur
         inkscape:collect="always"
         stdDeviation="0.82006695"
         id="feGaussianBlur3892" />
    </filter>
    <filter
       inkscape:collect="always"
       id="filter3894"
       x="-0.33298156"
       width="1.6659631"
       y="-1.6699424"
       height="4.3398848">
      <feGaussianBlur
         inkscape:collect="always"
         stdDeviation="0.82006695"
         id="feGaussianBlur3896" />
    </filter>
    <filter
       inkscape:collect="always"
       id="filter3898"
       x="-0.38537359"
       width="1.7707472"
       y="-0.20562869"
       height="1.4112574">
      <feGaussianBlur
         inkscape:collect="always"
         stdDeviation="0.82006695"
         id="feGaussianBlur3900" />
    </filter>
    <filter
       inkscape:collect="always"
       id="filter3902"
       x="-0.33298156"
       width="1.6659631"
       y="-1.6699424"
       height="4.3398848">
      <feGaussianBlur
         inkscape:collect="always"
         stdDeviation="0.82006695"
         id="feGaussianBlur3904" />
    </filter>
    <filter
       inkscape:collect="always"
       id="filter3906"
       x="-0.38537359"
       width="1.7707472"
       y="-0.21359873"
       height="1.4271975">
      <feGaussianBlur
         inkscape:collect="always"
         stdDeviation="0.82006695"
         id="feGaussianBlur3908" />
    </filter>
    <filter
       inkscape:collect="always"
       id="filter3910"
       x="-0.33298156"
       width="1.6659631"
       y="-1.6699424"
       height="4.3398848">
      <feGaussianBlur
         inkscape:collect="always"
         stdDeviation="0.82006695"
         id="feGaussianBlur3912" />
    </filter>
    <filter
       inkscape:collect="always"
       id="filter3914"
       x="-0.36018598"
       width="1.720372"
       y="-0.20562869"
       height="1.4112574">
      <feGaussianBlur
         inkscape:collect="always"
         stdDeviation="0.82006695"
         id="feGaussianBlur3916" />
    </filter>
    <filter
       inkscape:collect="always"
       id="filter3918"
       x="-0.33298156"
       width="1.6659631"
       y="-1.6699424"
       height="4.3398848">
      <feGaussianBlur
         inkscape:collect="always"
         stdDeviation="0.82006695"
         id="feGaussianBlur3920" />
    </filter>
    <filter
       inkscape:collect="always"
       id="filter3922"
       x="-0.36616942"
       width="1.7323389"
       y="-0.20953795"
       height="1.4190758">
      <feGaussianBlur
         inkscape:collect="always"
         stdDeviation="0.82006695"
         id="feGaussianBlur3924" />
    </filter>
    <filter
       inkscape:collect="always"
       id="filter3926"
       x="-0.33298156"
       width="1.6659631"
       y="-1.6699424"
       height="4.3398848">
      <feGaussianBlur
         inkscape:collect="always"
         stdDeviation="0.82006695"
         id="feGaussianBlur3928" />
    </filter>
    <filter
       inkscape:collect="always"
       id="filter3930"
       x="-0.34878778"
       width="1.6975756"
       y="-0.20186263"
       height="1.4037253">
      <feGaussianBlur
         inkscape:collect="always"
         stdDeviation="0.82006695"
         id="feGaussianBlur3932" />
    </filter>
    <filter
       inkscape:collect="always"
       id="filter3934"
       x="-0.33298156"
       width="1.6659631"
       y="-1.6699424"
       height="4.3398848">
      <feGaussianBlur
         inkscape:collect="always"
         stdDeviation="0.82006695"
         id="feGaussianBlur3936" />
    </filter>
    <filter
       inkscape:collect="always"
       id="filter3938"
       x="-0.32802677"
       width="1.6560535"
       y="-0.21568884"
       height="1.4313776">
      <feGaussianBlur
         inkscape:collect="always"
         stdDeviation="0.82006695"
         id="feGaussianBlur3940" />
    </filter>
    <filter
       inkscape:collect="always"
       id="filter3942"
       x="-0.33298156"
       width="1.6659631"
       y="-1.6699424"
       height="4.3398848">
      <feGaussianBlur
         inkscape:collect="always"
         stdDeviation="0.82006695"
         id="feGaussianBlur3944" />
    </filter>
    <filter
       inkscape:collect="always"
       id="filter3946"
       x="-0.32321677"
       width="1.6464336"
       y="-0.21568884"
       height="1.4313776">
      <feGaussianBlur
         inkscape:collect="always"
         stdDeviation="0.82006695"
         id="feGaussianBlur3948" />
    </filter>
    <filter
       inkscape:collect="always"
       id="filter3950"
       x="-0.33298156"
       width="1.6659631"
       y="-1.6699424"
       height="4.3398848">
      <feGaussianBlur
         inkscape:collect="always"
         stdDeviation="0.82006695"
         id="feGaussianBlur3952" />
    </filter>
    <filter
       inkscape:collect="always"
       id="filter3954"
       x="-0.3185463"
       width="1.6370926"
       y="-0.21359873"
       height="1.4271975">
      <feGaussianBlur
         inkscape:collect="always"
         stdDeviation="0.82006695"
         id="feGaussianBlur3956" />
    </filter>
    <filter
       inkscape:collect="always"
       id="filter3958"
       x="-0.33298156"
       width="1.6659631"
       y="-1.6699424"
       height="4.3398848">
      <feGaussianBlur
         inkscape:collect="always"
         stdDeviation="0.82006695"
         id="feGaussianBlur3960" />
    </filter>
    <filter
       inkscape:collect="always"
       id="filter3962"
       x="-0.28553614"
       width="1.5710723"
       y="-0.21568884"
       height="1.4313776">
      <feGaussianBlur
         inkscape:collect="always"
         stdDeviation="0.82006695"
         id="feGaussianBlur3964" />
    </filter>
    <filter
       inkscape:collect="always"
       id="filter3982"
       x="-0.0048889387"
       width="1.0097779"
       y="-0.26385465"
       height="1.5277092">
      <feGaussianBlur
         inkscape:collect="always"
         stdDeviation="1.0547249"
         id="feGaussianBlur3984" />
    </filter>
    <filter
       inkscape:collect="always"
       id="filter3996">
      <feGaussianBlur
         inkscape:collect="always"
         stdDeviation="0.8032234"
         id="feGaussianBlur3998" />
    </filter>
    <filter
       inkscape:collect="always"
       id="filter3517"
       x="-0.25713229"
       width="1.5142646"
       y="-0.087099633"
       height="1.1741993">
      <feGaussianBlur
         inkscape:collect="always"
         stdDeviation="0.33984317"
         id="feGaussianBlur3519" />
    </filter>
    <filter
       inkscape:collect="always"
       id="filter3329"
       x="-0.18025071"
       width="1.3605014"
       y="-1.1780664"
       height="3.3561328">
      <feGaussianBlur
         inkscape:collect="always"
         stdDeviation="0.49086099"
         id="feGaussianBlur3331" />
    </filter>
    <filter
       inkscape:collect="always"
       id="filter3333"
       x="-0.15131117"
       width="1.3026223"
       y="-0.1853139"
       height="1.3706278">
      <feGaussianBlur
         inkscape:collect="always"
         stdDeviation="0.49086099"
         id="feGaussianBlur3335" />
    </filter>
    <filter
       inkscape:collect="always"
       id="filter3337"
       x="-0.14412392"
       width="1.2882478"
       y="-0.18013415"
       height="1.3602683">
      <feGaussianBlur
         inkscape:collect="always"
         stdDeviation="0.49086099"
         id="feGaussianBlur3339" />
    </filter>
    <filter
       inkscape:collect="always"
       id="filter3341"
       x="-1.1780664"
       width="3.3561328"
       y="-0.23067047"
       height="1.4613409">
      <feGaussianBlur
         inkscape:collect="always"
         stdDeviation="0.49086099"
         id="feGaussianBlur3343" />
    </filter>
  </defs>
  <sodipodi:namedview
     id="base"
     pagecolor="#ffffff"
     bordercolor="#666666"
     borderopacity="1.0"
     gridtolerance="10000"
     guidetolerance="10"
     objecttolerance="10"
     inkscape:pageopacity="0.0"
     inkscape:pageshadow="2"
     inkscape:zoom="0.98994949"
     inkscape:cx="250.23707"
     inkscape:cy="212.93841"
     inkscape:document-units="px"
     inkscape:current-layer="layer2"
     showgrid="false"
     inkscape:window-width="1152"
     inkscape:window-height="838"
     inkscape:window-x="0"
     inkscape:window-y="0"
     inkscape:window-maximized="0" />
  <g
     inkscape:groupmode="layer"
     id="layer2"
     transform="translate(-45.788597,-496.6196)">
    <path
       style="fill:#606060;fill-opacity:1;fill-rule:evenodd;stroke:none;stroke-width:1px;stroke-linecap:butt;stroke-linejoin:miter;stroke-opacity:1"
       d="M 75.574315,977.86259 L 535.56828,979.20564 L 564.86002,979.29116 C 564.86002,979.29116 573.43146,977.86259 573.43146,973.57687 C 573.43146,969.29116 574.14573,959.29117 574.14573,959.29117 L 566.03832,959.7296 L 72.464255,956.66717 L 58.640665,955.63307 C 58.640665,955.63307 59.860025,973.57688 65.574315,975.71973 C 71.288595,977.86259 75.574315,977.14831 75.574315,977.86259 z"
       id="path2402"
       sodipodi:nodetypes="cccsccccsc" />
    <path
       style="fill:#dddddd;fill-opacity:1;fill-rule:evenodd;stroke:#b2b2b2;stroke-width:1px;stroke-linecap:butt;stroke-linejoin:miter;stroke-opacity:1"
       d="M 67.002885,957.14831 L 566.28859,960.00545 C 566.28859,960.00545 577.71717,959.29116 583.43146,955.71973 C 589.14574,952.14831 588.43146,942.86259 588.43146,942.86259 C 588.43146,942.86259 591.28859,907.14831 591.28859,902.14831 C 591.28859,897.14831 574.86002,839.29116 572.00288,827.86259 C 569.14574,816.43402 557.00288,757.1483 557.00288,757.1483 C 557.00288,757.1483 555.57431,749.29116 552.71717,748.57688 C 549.86002,747.86259 548.43146,748.57688 548.43146,748.57688 L 558.43146,797.86259 L 577.71717,880.00545 L 578.07431,881.34473 L 579.05004,882.28742 L 584.86002,897.14831 C 584.86002,897.14831 584.93925,904.12528 581.70701,906.43402 C 576.70701,910.00545 557.71717,910.71973 557.71717,910.71973 L 68.431455,907.86259 C 68.431455,907.86259 57.002885,906.43402 54.145745,903.57688 C 51.288595,900.71973 52.298745,895.51053 52.298745,895.51053 L 94.860025,745.00545 C 94.860025,745.00545 86.288605,747.86259 84.145745,752.1483 C 82.002885,756.43402 71.288595,811.43402 68.431455,820.00545 C 65.574315,828.57688 47.002885,893.57688 47.002885,893.57688 C 47.002885,893.57688 46.288597,900.00545 46.288597,903.57688 C 46.288597,907.14831 48.431455,946.43402 48.431455,946.43402 C 48.431455,946.43402 52.002885,953.57688 55.574315,955.00545 C 59.145745,956.43402 68.431455,957.14831 67.002885,957.14831 z"
       id="path2404"
       sodipodi:nodetypes="ccscsscsccccccsccsccsscscsc" />
    <path
       style="fill:#ececec;fill-opacity:1;fill-rule:evenodd;stroke:none;stroke-width:1px;stroke-linecap:butt;stroke-linejoin:miter;stroke-opacity:1;filter:url(#filter3336)"
       d="M 562.71717,958.57688 C 562.71717,958.57688 572.00288,957.86259 572.00288,951.43402 C 572.00288,945.00545 575.57431,922.14831 572.00288,918.57688 C 568.43146,915.00545 564.86002,912.86259 564.86002,912.86259 C 564.86002,912.86259 586.28859,903.57688 585.57431,907.86259 C 584.86002,912.14831 581.28859,914.29116 581.28859,920.00545 C 581.28859,925.71973 580.57431,948.57688 580.57431,948.57688 C 580.57431,948.57688 578.43146,952.86259 581.28859,953.57688 C 584.14574,954.29116 582.71717,955.71973 582.71717,955.71973 L 576.28859,957.86259 L 570.57431,958.57688 L 562.71717,958.57688 z"
       id="path2406" />
    <path
       style="fill:#ededed;fill-opacity:1;fill-rule:evenodd;stroke:#000000;stroke-width:1px;stroke-linecap:butt;stroke-linejoin:miter;stroke-opacity:1"
       d="M 75.574315,913.57688 L 560.57431,915.71973 L 557.71717,955.71973 L 77.002885,954.29116 L 75.574315,913.57688 z"
       id="path2408" />
    <path
       style="fill:#020202;fill-opacity:1;fill-rule:evenodd;stroke:#000000;stroke-width:1px;stroke-linecap:butt;stroke-linejoin:miter;stroke-opacity:1"
       d="M 100.57432,925.00545 L 541.28859,927.86259 C 541.28859,927.86259 548.43146,932.14831 548.43146,936.43402 C 548.43146,940.71973 540.57431,945.71973 540.57431,945.71973 L 98.431455,942.86259 C 98.431455,942.86259 89.145745,938.57688 89.860025,932.86259 C 90.574315,927.14831 101.2886,924.29116 100.57432,925.00545 z"
       id="path2410" />
    <path
       style="fill:#121212;fill-opacity:1;fill-rule:evenodd;stroke:none;stroke-width:1px;stroke-linecap:butt;stroke-linejoin:miter;stroke-opacity:1"
       d="M 71.497795,907.90591 L 557.85419,910.32545 L 573.61002,909.11259 C 573.61002,909.11259 581.28967,908.48718 583.43146,904.46973 C 584.17421,903.07651 585.22722,901.79095 585.2275,899.8245 C 585.22862,892.20247 577.89573,880.63045 577.89573,880.63045 C 577.89573,880.63045 578.20783,882.29016 577.30114,882.74322 C 575.50038,883.64304 573.664,884.53037 571.28859,885.00545 C 567.71717,885.71973 66.036055,879.91879 66.036055,879.91879 L 59.860025,880.00545 L 56.288605,877.68402 L 52.002885,896.43402 C 52.002885,896.43402 51.828665,903.29437 57.673845,905.51053 C 62.003235,907.15199 72.212085,908.6202 71.497795,907.90591 z"
       id="path2412"
       sodipodi:nodetypes="cccsscssccccsc" />
    <path
       style="fill:#2c2c2c;fill-opacity:1;fill-rule:evenodd;stroke:#252525;stroke-width:1px;stroke-linecap:butt;stroke-linejoin:miter;stroke-opacity:1"
       d="M 93.431455,743.57688 L 59.145745,868.57688 C 59.145745,868.57688 57.538605,871.96973 60.574315,873.57688 C 65.381975,876.12212 74.681455,875.18402 74.681455,875.18402 C 74.681455,875.18402 567.00288,879.29116 569.86002,878.57688 C 572.71717,877.86259 575.03859,876.96974 575.03859,876.96974 L 575.21717,868.75545 C 575.21717,868.75545 579.61685,882.27622 576.28859,883.75545 C 573.07431,885.18402 566.28859,885.00545 566.28859,885.00545 L 64.860025,880.71973 L 58.431455,879.29116 L 56.645745,876.79116 L 57.861935,870.85997 L 93.431455,743.57688 z"
       id="path2414"
       sodipodi:nodetypes="ccscsccscccccc" />
    <path
       style="fill:#d5d5d5;fill-opacity:1;fill-rule:evenodd;stroke:#d1d1d1;stroke-width:1px;stroke-linecap:butt;stroke-linejoin:miter;stroke-opacity:1;filter:url(#filter3748)"
       d="M 62.002885,879.82688 L 62.181455,874.29116 L 60.217165,873.93402 L 57.360025,874.82688 L 56.824315,876.25545 C 56.824315,876.25545 56.467165,877.86259 57.360025,878.21973 C 58.252885,878.57688 59.860025,879.11259 59.860025,879.11259 L 62.002885,879.82688 z"
       id="path2416" />
    <path
       style="fill:#d5d5d5;fill-opacity:1;fill-rule:evenodd;stroke:#dadada;stroke-width:1px;stroke-linecap:butt;stroke-linejoin:miter;stroke-opacity:1;filter:url(#filter3564)"
       d="M 571.82431,883.04116 C 571.82431,882.32688 570.57431,879.82688 572.18146,878.93402 C 573.78859,878.04116 575.03859,878.57688 575.03859,878.57688 C 575.03859,878.57688 578.07431,881.25545 577.36002,881.43402 C 576.64574,881.61259 576.46717,882.50545 574.68146,883.21973 C 572.89574,883.93402 572.36002,883.21973 571.82431,883.04116 z"
       id="path2418" />
    <path
       style="fill:none;fill-opacity:1;fill-rule:evenodd;stroke:#2aea00;stroke-width:1px;stroke-linecap:butt;stroke-linejoin:miter;stroke-opacity:1;filter:url(#filter3341)"
       d="M 194.42891,930.61513 L 194.68145,934.46973"
       id="path2420"
       sodipodi:nodetypes="cc" />
    <path
       style="fill:none;fill-opacity:1;fill-rule:evenodd;stroke:#2aea00;stroke-width:1px;stroke-linecap:butt;stroke-linejoin:miter;stroke-opacity:1;filter:url(#filter3337)"
       d="M 192.18145,932.32688 C 192.18145,932.32688 189.18906,937.68402 194.50288,937.86259 C 200.57352,938.06659 197.36003,932.50545 197.36003,932.50545"
       id="path2422"
       sodipodi:nodetypes="csc" />
    <path
       sodipodi:type="arc"
       style="fill:#ffffff;fill-opacity:1;fill-rule:nonzero;stroke:#444444;stroke-width:0.92299998;stroke-linecap:butt;stroke-linejoin:round;stroke-miterlimit:4;stroke-dasharray:none;stroke-opacity:1"
       id="path2424"
       sodipodi:cx="289.82144"
       sodipodi:cy="742.89789"
       sodipodi:rx="4.2857141"
       sodipodi:ry="4.2857141"
       d="m 294.10716,742.89789 c 0,2.36693 -1.91878,4.28571 -4.28572,4.28571 -2.36693,0 -4.28571,-1.91878 -4.28571,-4.28571 0,-2.36694 1.91878,-4.28572 4.28571,-4.28572 2.36694,0 4.28572,1.91878 4.28572,4.28572 z"
       transform="translate(-57.282828,191.92898)" />
    <path
       sodipodi:type="arc"
       style="fill:#101010;fill-opacity:1;fill-rule:nonzero;stroke:#000000;stroke-width:1.92626119;stroke-linecap:butt;stroke-linejoin:round;stroke-miterlimit:4;stroke-dasharray:none;stroke-opacity:1"
       id="path2439"
       sodipodi:cx="289.82144"
       sodipodi:cy="742.89789"
       sodipodi:rx="4.2857141"
       sodipodi:ry="4.2857141"
       d="m 294.10716,742.89789 c 0,2.36693 -1.91878,4.28571 -4.28572,4.28571 -2.36693,0 -4.28571,-1.91878 -4.28571,-4.28571 0,-2.36694 1.91878,-4.28572 4.28571,-4.28572 2.36694,0 4.28572,1.91878 4.28572,4.28572 z"
       transform="matrix(0.4791666,0,0,0.4791666,93.755115,578.94427)" />
    <path
       sodipodi:type="arc"
       style="fill:#ffffff;fill-opacity:1;fill-rule:nonzero;stroke:#7b7b7b;stroke-width:1.70648665;stroke-linecap:butt;stroke-linejoin:round;stroke-miterlimit:4;stroke-dasharray:none;stroke-opacity:1"
       id="path3211"
       sodipodi:cx="289.82144"
       sodipodi:cy="742.89789"
       sodipodi:rx="4.2857141"
       sodipodi:ry="4.2857141"
       d="m 294.10716,742.89789 c 0,2.36693 -1.91878,4.28571 -4.28572,4.28571 -2.36693,0 -4.28571,-1.91878 -4.28571,-4.28571 0,-2.36694 1.91878,-4.28572 4.28571,-4.28572 2.36694,0 4.28572,1.91878 4.28572,4.28572 z"
       transform="matrix(0.5109914,0,0,0.5109914,116.22806,556.99816)" />
    <path
       sodipodi:type="arc"
       style="fill:#ffffff;fill-opacity:1;fill-rule:nonzero;stroke:#7b7b7b;stroke-width:1.70648665;stroke-linecap:butt;stroke-linejoin:round;stroke-miterlimit:4;stroke-dasharray:none;stroke-opacity:1"
       id="path3213"
       sodipodi:cx="289.82144"
       sodipodi:cy="742.89789"
       sodipodi:rx="4.2857141"
       sodipodi:ry="4.2857141"
       d="m 294.10716,742.89789 c 0,2.36693 -1.91878,4.28571 -4.28572,4.28571 -2.36693,0 -4.28571,-1.91878 -4.28571,-4.28571 0,-2.36694 1.91878,-4.28572 4.28571,-4.28572 2.36694,0 4.28572,1.91878 4.28572,4.28572 z"
       transform="matrix(0.5109914,0,0,0.5109914,122.47805,556.99816)" />
    <path
       sodipodi:type="arc"
       style="fill:#ffffff;fill-opacity:1;fill-rule:nonzero;stroke:#7b7b7b;stroke-width:1.70648665;stroke-linecap:butt;stroke-linejoin:round;stroke-miterlimit:4;stroke-dasharray:none;stroke-opacity:1"
       id="path3215"
       sodipodi:cx="289.82144"
       sodipodi:cy="742.89789"
       sodipodi:rx="4.2857141"
       sodipodi:ry="4.2857141"
       d="m 294.10716,742.89789 c 0,2.36693 -1.91878,4.28571 -4.28572,4.28571 -2.36693,0 -4.28571,-1.91878 -4.28571,-4.28571 0,-2.36694 1.91878,-4.28572 4.28571,-4.28572 2.36694,0 4.28572,1.91878 4.28572,4.28572 z"
       transform="matrix(0.5109914,0,0,0.5109914,119.44234,552.71244)" />
    <path
       style="fill:none;fill-rule:evenodd;stroke:#606060;stroke-width:1px;stroke-linecap:butt;stroke-linejoin:miter;stroke-opacity:1"
       d="M 308.07431,934.29116 C 308.07431,934.29116 307.00288,935.71973 306.28859,936.61259 C 305.57431,937.50544 305.57431,939.11259 304.32431,938.57688 C 303.07431,938.04116 301.11002,936.07688 301.28859,934.64831 C 301.46717,933.21974 304.32431,931.07688 304.32431,931.07688 C 304.32431,931.07688 305.03859,932.1483 306.11002,932.86259 C 307.18145,933.57688 307.89574,934.11259 308.07431,934.29116 z"
       id="path3217"
       sodipodi:nodetypes="cssscsc" />
    <path
       style="fill:none;fill-rule:evenodd;stroke:#28cc03;stroke-width:1px;stroke-linecap:butt;stroke-linejoin:miter;stroke-opacity:1;filter:url(#filter3333)"
       d="M 336.28859,931.43402 L 340.57431,931.43402 L 341.82431,932.68402 L 341.82431,935.00545 L 340.93145,936.79116 L 336.46717,936.79116 L 335.03859,935.71973 L 335.03859,932.50545 L 336.28859,931.43402 z"
       id="path3221"
       sodipodi:nodetypes="ccccccccc" />
    <path
       style="fill:none;fill-rule:evenodd;stroke:#28cc03;stroke-width:1px;stroke-linecap:butt;stroke-linejoin:miter;stroke-opacity:1;filter:url(#filter3329)"
       d="M 335.75288,938.57688 L 341.28859,938.57688"
       id="path3223" />
    <path
       style="fill:none;fill-rule:evenodd;stroke:#4d4d4d;stroke-width:1px;stroke-linecap:butt;stroke-linejoin:miter;stroke-opacity:1"
       d="M 369.86002,931.43402 L 374.14574,931.43402 L 375.39574,932.68402 L 375.39574,935.00545 L 374.50288,936.79116 L 370.0386,936.79116 L 368.61002,935.71973 L 368.61002,932.50545 L 369.86002,931.43402 z"
       id="path3225"
       sodipodi:nodetypes="ccccccccc" />
    <path
       style="fill:none;fill-rule:evenodd;stroke:#4d4d4d;stroke-width:1px;stroke-linecap:butt;stroke-linejoin:miter;stroke-opacity:1"
       d="M 369.32431,938.57688 L 374.86002,938.57688"
       id="path3227" />
    <path
       style="fill:none;fill-rule:evenodd;stroke:#4d4d4d;stroke-width:1px;stroke-linecap:butt;stroke-linejoin:miter;stroke-opacity:1"
       d="M 407.00288,931.79116 L 411.2886,931.79116 L 412.5386,933.04116 L 412.5386,935.36259 L 411.64574,937.1483 L 407.18147,937.1483 L 405.75288,936.07687 L 405.75288,932.86259 L 407.00288,931.79116 z"
       id="path3229"
       sodipodi:nodetypes="ccccccccc" />
    <path
       style="fill:none;fill-rule:evenodd;stroke:#4d4d4d;stroke-width:1px;stroke-linecap:butt;stroke-linejoin:miter;stroke-opacity:1"
       d="M 406.46717,938.93402 L 412.00288,938.93402"
       id="path3231" />
    <path
       style="fill:none;fill-rule:evenodd;stroke:#4d4d4d;stroke-width:1px;stroke-linecap:butt;stroke-linejoin:miter;stroke-opacity:1"
       d="M 444.14574,931.96973 L 448.43145,931.96973 L 449.68145,933.21973 L 449.68145,935.54116 L 448.78859,937.32687 L 444.32431,937.32687 L 442.89574,936.25544 L 442.89574,933.04116 L 444.14574,931.96973 z"
       id="path3233"
       sodipodi:nodetypes="ccccccccc" />
    <path
       style="fill:none;fill-rule:evenodd;stroke:#4d4d4d;stroke-width:1px;stroke-linecap:butt;stroke-linejoin:miter;stroke-opacity:1"
       d="M 443.61002,939.11259 L 449.14574,939.11259"
       id="path3235" />
    <path
       style="font-size:12px;font-style:normal;font-variant:normal;font-weight:normal;font-stretch:normal;text-align:start;line-height:125%;writing-mode:lr-tb;text-anchor:start;fill:#000000;fill-opacity:1;stroke:#28cc03;stroke-width:1px;stroke-linecap:butt;stroke-linejoin:miter;stroke-opacity:1;font-family:Dominican;-inkscape-font-specification:Dominican;filter:url(#filter3517)"
       d="M 329.05831,937.86898 L 329.10629,932.30075 L 328.72213,932.54098 C 328.65816,932.59689 328.60226,932.62485 328.55441,932.62484 C 328.52242,932.62485 328.47243,932.59085 328.40444,932.52285 C 328.33646,932.45487 328.30245,932.38486 328.30245,932.31283 C 328.30245,932.22495 328.34841,932.12497 328.44034,932.0129 C 328.53225,931.90085 328.62618,931.78879 328.72213,931.67672 L 329.68234,930.33273 L 330.47445,930.78903 L 330.46236,938.5527 C 330.46236,938.64889 330.38631,938.69699 330.23421,938.69699 C 330.1783,938.69699 330.13437,938.69296 330.10238,938.6849 C 329.86239,938.62094 329.6224,938.56088 329.38241,938.50472 C 329.16634,938.40072 329.05831,938.18881 329.05831,937.86898 L 329.05831,937.86898 z"
       id="text3237" />
    <path
       style="font-size:12px;font-style:normal;font-variant:normal;font-weight:normal;font-stretch:normal;text-align:start;line-height:125%;writing-mode:lr-tb;text-anchor:start;fill:#000000;fill-opacity:1;stroke:#939393;stroke-width:1px;stroke-linecap:butt;stroke-linejoin:miter;stroke-opacity:1;font-family:Dominican;-inkscape-font-specification:Dominican"
       d="M 364.94248,932.84854 C 364.94246,933.5126 364.7065,934.32059 364.23458,935.27249 C 363.84249,936.05667 363.33443,936.86868 362.71041,937.70852 L 362.50643,937.97256 L 363.8984,937.94876 C 364.14644,937.94876 364.37044,937.97476 364.5704,938.02676 C 364.77034,938.07876 364.91036,938.16067 364.99044,938.27249 C 365.16646,938.51248 365.25447,938.70449 365.25448,938.84854 C 365.25447,938.98452 365.19448,939.06851 365.07449,939.10049 C 364.95449,939.13247 364.85042,939.14846 364.76229,939.14846 L 360.97054,939.34072 L 360.5743,937.93667 C 360.83846,937.62466 361.10653,937.31265 361.3785,937.00064 C 361.96248,936.20865 362.44246,935.46463 362.81844,934.76858 C 363.3304,933.83255 363.58638,933.12857 363.58639,932.65664 C 363.58638,932.55264 363.5784,932.46866 363.5624,932.40469 C 363.54641,932.34073 363.51046,932.30875 363.45455,932.30874 C 363.30245,932.30875 362.99044,932.50064 362.51852,932.88442 C 362.21456,933.13248 361.81051,933.50052 361.30636,933.98855 C 360.90646,934.38065 360.70248,934.58462 360.69442,934.60049 L 360.02242,933.65273 C 360.02242,933.58853 360.19845,933.3605 360.5505,932.96865 C 360.95846,932.51261 361.36642,932.1326 361.77438,931.82864 C 362.32638,931.42069 362.79439,931.21671 363.17843,931.2167 C 363.40255,931.21671 363.59053,931.27664 363.74239,931.39651 C 364.29439,931.80448 364.60237,932.04849 364.66634,932.12856 C 364.85042,932.35269 364.94246,932.59268 364.94248,932.84854 L 364.94248,932.84854 z"
       id="text3241" />
    <path
       style="font-size:12px;font-style:normal;font-variant:normal;font-weight:normal;font-stretch:normal;text-align:start;line-height:125%;writing-mode:lr-tb;text-anchor:start;fill:#000000;fill-opacity:1;stroke:#939393;stroke-width:1px;stroke-linecap:butt;stroke-linejoin:miter;stroke-opacity:1;font-family:Dominican;-inkscape-font-specification:Dominican"
       d="M 398.55154,939.8793 L 397.90371,938.83523 L 398.62368,938.71511 C 399.16762,938.61917 399.70754,938.33914 400.24343,937.87502 C 400.73952,937.44314 400.98757,937.09915 400.98757,936.84304 C 400.98757,936.69119 400.84755,936.55526 400.56753,936.43527 C 400.2875,936.31527 399.97951,936.25528 399.64358,936.25527 C 399.42751,936.25528 399.23348,936.28128 399.06149,936.33328 C 398.88949,936.38528 398.74355,936.47525 398.62368,936.60317 L 398.17947,936.27908 L 398.17947,935.23501 L 398.50356,935.079 C 399.04751,934.83902 399.59548,934.46304 400.14748,933.95107 C 400.69948,933.43912 400.97548,933.05521 400.97549,932.79934 C 400.97548,932.7432 400.95547,932.6951 400.91544,932.65505 C 400.81948,932.55911 400.65957,932.51114 400.43569,932.51113 C 400.10756,932.51114 399.69155,932.61112 399.18765,932.81106 C 398.7797,932.97122 398.5436,933.08328 398.47939,933.14724 L 397.97549,932.00723 C 398.06363,931.91129 398.32363,931.77127 398.75552,931.58718 C 399.29165,931.36307 399.75564,931.25101 400.14748,931.251 C 400.25955,931.25101 400.3716,931.26309 400.48367,931.28726 C 400.85965,931.37516 401.16762,931.52713 401.40762,931.74319 C 401.59169,931.90311 401.78371,932.15506 401.98367,932.49905 C 402.03151,932.57913 402.06149,932.6572 402.07357,932.73324 C 402.08565,932.8093 402.09169,932.88333 402.0917,932.95535 C 402.09169,933.25125 401.98366,933.5712 401.76761,933.91519 C 401.55154,934.25919 401.28347,934.56717 400.9634,934.83914 L 400.50747,935.21121 C 400.8915,935.21121 401.28951,935.43722 401.7015,935.88925 C 402.11348,936.34128 402.31948,936.8273 402.31948,937.34731 C 402.31948,937.65127 402.24947,937.91726 402.10947,938.14529 C 401.96944,938.37332 401.76748,938.6033 401.50356,938.83523 C 401.16762,939.13113 400.79567,939.37112 400.38772,939.5552 C 399.88357,939.78713 399.3915,939.9031 398.91152,939.9031 C 398.84756,939.9031 398.78158,939.89913 398.71359,939.8912 C 398.64559,939.88326 398.59157,939.8793 398.55154,939.8793 L 398.55154,939.8793 z"
       id="text3245" />
    <path
       style="font-size:12px;font-style:normal;font-variant:normal;font-weight:normal;font-stretch:normal;text-align:start;line-height:125%;writing-mode:lr-tb;text-anchor:start;fill:#000000;fill-opacity:1;stroke:#939393;stroke-width:1px;stroke-linecap:butt;stroke-linejoin:miter;stroke-opacity:1;font-family:Dominican;-inkscape-font-specification:Dominican"
       d="M 433.97515,936.58822 L 436.87884,931.5964 L 438.17486,932.11239 L 438.01885,936.03634 L 438.42718,936.13229 C 438.62712,936.1882 438.73503,936.22018 438.75091,936.22824 C 438.799,936.26022 438.83904,936.31222 438.87103,936.38424 C 438.93499,936.52829 438.98094,936.63431 439.0089,936.7023 C 439.03686,936.77029 439.05083,936.84823 439.05083,936.93612 C 439.05083,937.00033 439.03887,937.06442 439.01495,937.12838 L 437.92291,937.20016 L 437.93499,939.73214 C 437.93499,939.94015 437.86296,940.03219 437.71893,940.00826 C 437.31902,939.95236 437.08709,939.91232 437.02312,939.88815 C 436.78313,939.78414 436.66314,939.57223 436.66314,939.25241 L 436.66314,937.28439 L 434.71893,937.28439 L 433.97515,936.58822 z M 435.48687,936.08431 L 436.80706,936.10812 L 437.01104,933.13229 L 435.48687,936.08431 z"
       id="text3249" />
    <path
       style="fill:#ececec;fill-opacity:1;fill-rule:evenodd;stroke:none;stroke-width:1px;stroke-linecap:butt;stroke-linejoin:miter;stroke-opacity:1;filter:url(#filter3304)"
       d="M 62.895745,955.18402 C 62.360025,954.46973 57.538595,951.43402 57.181455,948.04116 C 56.824315,944.6483 57.895745,913.75545 57.895745,913.75545 C 57.895745,913.75545 60.217165,909.11259 62.181455,908.57688 C 64.145745,908.04116 65.217165,907.50545 65.217165,907.50545 L 53.610025,904.82688 L 50.931455,901.43402 L 51.467165,913.93402 L 52.360025,944.6483 C 52.360025,944.6483 51.645745,947.68402 50.395745,948.04116 C 49.145745,948.3983 53.074315,953.57688 53.967165,953.93402 C 54.860025,954.29116 62.895745,955.54116 62.895745,955.18402 z"
       id="path3282" />
    <path
       style="fill:none;fill-rule:evenodd;stroke:#fdfdfd;stroke-width:2;stroke-linecap:butt;stroke-linejoin:miter;stroke-miterlimit:4;stroke-dasharray:none;stroke-opacity:1;filter:url(#filter3368)"
       d="M 47.895745,901.79116 C 47.895745,901.79116 51.288595,907.68402 54.502885,908.04116 C 57.717165,908.3983 64.681455,909.6483 68.967165,909.6483 C 73.252885,909.6483 73.252885,909.6483 73.252885,909.6483"
       id="path3284" />
    <path
       style="fill:none;fill-rule:evenodd;stroke:#fdfdfd;stroke-width:1px;stroke-linecap:butt;stroke-linejoin:miter;stroke-opacity:1"
       d="M 76.467165,910.00545 L 264.32431,909.29116"
       id="path3286" />
    <path
       style="fill:#2c2c2c;fill-opacity:1;fill-rule:evenodd;stroke:none;stroke-width:1px;stroke-linecap:butt;stroke-linejoin:miter;stroke-opacity:1"
       d="M 59.598995,868.26188 L 91.671345,744.01311 C 91.671345,744.01311 93.439105,737.19458 100.76272,733.65905 C 108.08633,730.12352 119.45054,729.61844 119.45054,729.61844 C 119.45054,729.61844 522.5014,731.13367 523.51155,731.13367 C 524.5217,731.13367 538.91638,733.91159 542.19938,737.19458 C 545.48237,740.47758 548.51283,747.54865 548.51283,747.54865 L 575.02933,869.52457 C 575.02933,869.52457 576.03949,876.3431 573.76664,877.35325 C 571.4938,878.3634 564.92782,878.3634 564.92782,878.3634 L 65.407375,874.82786 C 65.407375,874.82786 60.609145,873.56518 59.851535,872.30249 C 59.093915,871.0398 59.851535,868.51442 59.598995,868.26188 z"
       id="path3752"
       sodipodi:nodetypes="ccscssccsccsc" />
    <path
       style="fill:none;fill-rule:evenodd;stroke:#868686;stroke-width:1.5;stroke-linecap:butt;stroke-linejoin:miter;stroke-miterlimit:4;stroke-dasharray:none;stroke-opacity:1;filter:url(#filter3982)"
       d="M 59.346455,869.77711 C 59.346455,869.77711 59.598995,872.30249 61.366765,873.0601 C 63.134535,873.81772 67.175145,873.81772 67.175145,873.81772 L 570.23111,877.85833 C 570.23111,877.85833 573.00902,878.11086 574.52425,876.3431 C 576.03949,874.57533 575.53441,870.02964 575.53441,870.02964"
       id="path3754" />
    <path
       style="fill:#000000;fill-opacity:1;fill-rule:evenodd;stroke:#000000;stroke-width:1px;stroke-linecap:butt;stroke-linejoin:miter;stroke-opacity:1;filter:url(#filter3962)"
       d="M 163.96716,740.00545 L 162.18145,748.13045 L 166.02075,748.13045 L 168.07432,740.18402 L 163.96716,740.00545 z"
       id="path3810" />
    <path
       style="fill:none;fill-rule:evenodd;stroke:#494949;stroke-width:1px;stroke-linecap:butt;stroke-linejoin:miter;stroke-opacity:1;filter:url(#filter3958)"
       d="M 168.69932,739.20188 C 168.25288,739.20188 163.7886,739.0233 163.7886,739.0233"
       id="path3812" />
    <path
       style="fill:#000000;fill-opacity:1;fill-rule:evenodd;stroke:#000000;stroke-width:1px;stroke-linecap:butt;stroke-linejoin:miter;stroke-opacity:1;filter:url(#filter3954)"
       d="M 189.36894,739.91617 L 188.29753,748.13046 L 192.13682,748.13046 L 193.4761,740.09474 L 189.36894,739.91617 z"
       id="path3814"
       sodipodi:nodetypes="ccccc" />
    <path
       style="fill:none;fill-rule:evenodd;stroke:#494949;stroke-width:1px;stroke-linecap:butt;stroke-linejoin:miter;stroke-opacity:1;filter:url(#filter3950)"
       d="M 193.92253,739.1126 C 193.4761,739.1126 189.01181,738.93402 189.01181,738.93402"
       id="path3816" />
    <path
       style="fill:#000000;fill-opacity:1;fill-rule:evenodd;stroke:#000000;stroke-width:1px;stroke-linecap:butt;stroke-linejoin:miter;stroke-opacity:1;filter:url(#filter3946)"
       d="M 215.44037,739.46974 L 214.45824,747.59474 L 218.29752,747.59474 L 219.54752,739.64831 L 215.44037,739.46974 z"
       id="path3818"
       sodipodi:nodetypes="ccccc" />
    <path
       style="fill:none;fill-rule:evenodd;stroke:#494949;stroke-width:1px;stroke-linecap:butt;stroke-linejoin:miter;stroke-opacity:1;filter:url(#filter3942)"
       d="M 220.17252,738.66617 C 219.7261,738.66617 215.26181,738.48759 215.26181,738.48759"
       id="path3820" />
    <path
       style="fill:#000000;fill-opacity:1;fill-rule:evenodd;stroke:#000000;stroke-width:1px;stroke-linecap:butt;stroke-linejoin:miter;stroke-opacity:1;filter:url(#filter3938)"
       d="M 241.06539,740.00545 L 240.17254,748.13045 L 244.01183,748.13045 L 245.17254,740.18402 L 241.06539,740.00545 z"
       id="path3822"
       sodipodi:nodetypes="ccccc" />
    <path
       style="fill:none;fill-rule:evenodd;stroke:#494949;stroke-width:1px;stroke-linecap:butt;stroke-linejoin:miter;stroke-opacity:1;filter:url(#filter3934)"
       d="M 245.79754,739.20188 C 245.3511,739.20188 240.88681,739.0233 240.88681,739.0233"
       id="path3824" />
    <path
       style="fill:#000000;fill-opacity:1;fill-rule:evenodd;stroke:#000000;stroke-width:1px;stroke-linecap:butt;stroke-linejoin:miter;stroke-opacity:1;filter:url(#filter3930)"
       d="M 266.33324,739.64831 L 265.79752,748.39831 L 269.63681,748.39831 L 270.44038,739.82688 L 266.33324,739.64831 z"
       id="path3826"
       sodipodi:nodetypes="ccccc" />
    <path
       style="fill:none;fill-rule:evenodd;stroke:#494949;stroke-width:1px;stroke-linecap:butt;stroke-linejoin:miter;stroke-opacity:1;filter:url(#filter3926)"
       d="M 271.06538,738.84474 C 270.61895,738.84474 266.15466,738.66616 266.15466,738.66616"
       id="path3828" />
    <path
       style="fill:#000000;fill-opacity:1;fill-rule:evenodd;stroke:#000000;stroke-width:1px;stroke-linecap:butt;stroke-linejoin:miter;stroke-opacity:1;filter:url(#filter3922)"
       d="M 291.95824,740.36259 L 291.69039,748.75545 L 295.52968,748.75545 L 296.06539,740.54116 L 291.95824,740.36259 z"
       id="path3830"
       sodipodi:nodetypes="ccccc" />
    <path
       style="fill:none;fill-rule:evenodd;stroke:#494949;stroke-width:1px;stroke-linecap:butt;stroke-linejoin:miter;stroke-opacity:1;filter:url(#filter3918)"
       d="M 296.69039,739.55902 C 296.24397,739.55902 291.77967,739.38044 291.77967,739.38044"
       id="path3832" />
    <path
       style="fill:#000000;fill-opacity:1;fill-rule:evenodd;stroke:#000000;stroke-width:1px;stroke-linecap:butt;stroke-linejoin:miter;stroke-opacity:1;filter:url(#filter3914)"
       d="M 318.11895,740.63045 L 317.76181,749.20188 L 321.6011,749.20188 L 322.2261,740.80902 L 318.11895,740.63045 z"
       id="path3834"
       sodipodi:nodetypes="ccccc" />
    <path
       style="fill:none;fill-rule:evenodd;stroke:#494949;stroke-width:1px;stroke-linecap:butt;stroke-linejoin:miter;stroke-opacity:1;filter:url(#filter3910)"
       d="M 322.8511,739.82688 C 322.40467,739.82688 317.94038,739.6483 317.94038,739.6483"
       id="path3836" />
    <path
       style="fill:#000000;fill-opacity:1;fill-rule:evenodd;stroke:#000000;stroke-width:1px;stroke-linecap:butt;stroke-linejoin:miter;stroke-opacity:1;filter:url(#filter3906)"
       d="M 343.56537,740.63045 L 343.65466,748.84474 L 347.49395,748.84474 L 347.67252,740.80902 L 343.56537,740.63045 z"
       id="path3838"
       sodipodi:nodetypes="ccccc" />
    <path
       style="fill:none;fill-rule:evenodd;stroke:#494949;stroke-width:1px;stroke-linecap:butt;stroke-linejoin:miter;stroke-opacity:1;filter:url(#filter3902)"
       d="M 348.29752,739.82688 C 347.85109,739.82688 343.3868,739.6483 343.3868,739.6483"
       id="path3840" />
    <path
       style="fill:#000000;fill-opacity:1;fill-rule:evenodd;stroke:#000000;stroke-width:1px;stroke-linecap:butt;stroke-linejoin:miter;stroke-opacity:1;filter:url(#filter3898)"
       d="M 369.81537,740.36259 L 369.81537,748.93402 L 373.65466,748.93402 L 373.92252,740.54116 L 369.81537,740.36259 z"
       id="path3842"
       sodipodi:nodetypes="ccccc" />
    <path
       style="fill:none;fill-rule:evenodd;stroke:#494949;stroke-width:1px;stroke-linecap:butt;stroke-linejoin:miter;stroke-opacity:1;filter:url(#filter3894)"
       d="M 374.54752,739.55902 C 374.10109,739.55902 369.6368,739.38044 369.6368,739.38044"
       id="path3844" />
    <path
       style="fill:#000000;fill-opacity:1;fill-rule:evenodd;stroke:#000000;stroke-width:1px;stroke-linecap:butt;stroke-linejoin:miter;stroke-opacity:1;filter:url(#filter3890)"
       d="M 394.27966,740.98759 L 394.99395,749.38045 L 398.83324,749.38045 L 398.38681,741.16616 L 394.27966,740.98759 z"
       id="path3846"
       sodipodi:nodetypes="ccccc" />
    <path
       style="fill:none;fill-rule:evenodd;stroke:#494949;stroke-width:1px;stroke-linecap:butt;stroke-linejoin:miter;stroke-opacity:1;filter:url(#filter3886)"
       d="M 399.01181,740.18402 C 398.56538,740.18402 394.10109,740.00544 394.10109,740.00544"
       id="path3848" />
    <path
       style="fill:#000000;fill-opacity:1;fill-rule:evenodd;stroke:#000000;stroke-width:1px;stroke-linecap:butt;stroke-linejoin:miter;stroke-opacity:1;filter:url(#filter3882)"
       d="M 420.61895,740.63045 L 421.24395,749.02331 L 425.08324,749.02331 L 424.7261,740.80902 L 420.61895,740.63045 z"
       id="path3850"
       sodipodi:nodetypes="ccccc" />
    <path
       style="fill:none;fill-rule:evenodd;stroke:#494949;stroke-width:1px;stroke-linecap:butt;stroke-linejoin:miter;stroke-opacity:1;filter:url(#filter3878)"
       d="M 425.3511,739.82688 C 424.90467,739.82688 420.44038,739.6483 420.44038,739.6483"
       id="path3852" />
    <path
       style="fill:#000000;fill-opacity:1;fill-rule:evenodd;stroke:#000000;stroke-width:1px;stroke-linecap:butt;stroke-linejoin:miter;stroke-opacity:1;filter:url(#filter3874)"
       d="M 446.15466,741.34473 L 447.13681,749.6483 L 450.9761,749.6483 L 450.26181,741.5233 L 446.15466,741.34473 z"
       id="path3854"
       sodipodi:nodetypes="ccccc" />
    <path
       style="fill:none;fill-rule:evenodd;stroke:#494949;stroke-width:1px;stroke-linecap:butt;stroke-linejoin:miter;stroke-opacity:1;filter:url(#filter3870)"
       d="M 450.88681,740.54116 C 450.44038,740.54116 445.97609,740.36258 445.97609,740.36258"
       id="path3856" />
    <path
       style="fill:#000000;fill-opacity:1;fill-rule:evenodd;stroke:#000000;stroke-width:1px;stroke-linecap:butt;stroke-linejoin:miter;stroke-opacity:1;filter:url(#filter3866)"
       d="M 472.1368,741.07688 L 473.20823,749.55902 L 477.04752,749.55902 L 476.24396,741.25545 L 472.1368,741.07688 z"
       id="path3858"
       sodipodi:nodetypes="ccccc" />
    <path
       style="fill:none;fill-rule:evenodd;stroke:#494949;stroke-width:1px;stroke-linecap:butt;stroke-linejoin:miter;stroke-opacity:1;filter:url(#filter3862)"
       d="M 476.86896,740.27331 C 476.42252,740.27331 471.95823,740.09473 471.95823,740.09473"
       id="path3860" />
    <text
       xml:space="preserve"
       style="font-size:9px;font-style:normal;font-weight:normal;line-height:125%;letter-spacing:0px;word-spacing:0px;fill:#000000;fill-opacity:1;stroke:none;font-family:Sans"
       x="112.96375"
       y="936.86475"
       id="text3125"
       sodipodi:linespacing="125%"><tspan
         sodipodi:role="line"
         id="tspan3127"
         x="112.96375"
         y="936.86475"
         style="fill:#ffffff">Roteador</tspan></text>
  </g>
  <metadata
     id="metadata148">
    <rdf:RDF>
      <cc:Work>
        <dc:format>image/svg+xml</dc:format>
        <dc:type
           rdf:resource="http://purl.org/dc/dcmitype/StillImage" />
        <cc:license
           rdf:resource="http://creativecommons.org/licenses/publicdomain/" />
        <dc:publisher>
          <cc:Agent
             rdf:about="http://openclipart.org/">
            <dc:title>Open Clip Art Library</dc:title>
          </cc:Agent>
        </dc:publisher>
        <dc:title>Wireless Router</dc:title>
        <dc:date>2008-04-20T22:31:46</dc:date>
        <dc:description>A wireless router... enjoy!    :-)</dc:description>
        <dc:source>http://openclipart.org/detail/16490/wireless-router-by-mystica-16490</dc:source>
        <dc:creator>
          <cc:Agent>
            <dc:title>mystica</dc:title>
          </cc:Agent>
        </dc:creator>
        <dc:subject>
          <rdf:Bag>
            <rdf:li>clip art</rdf:li>
            <rdf:li>clipart</rdf:li>
            <rdf:li>computer</rdf:li>
            <rdf:li>computer</rdf:li>
            <rdf:li>image</rdf:li>
            <rdf:li>media</rdf:li>
            <rdf:li>png</rdf:li>
            <rdf:li>public domain</rdf:li>
            <rdf:li>router</rdf:li>
            <rdf:li>router</rdf:li>
            <rdf:li>svg</rdf:li>
            <rdf:li>wireless</rdf:li>
            <rdf:li>wireless</rdf:li>
          </rdf:Bag>
        </dc:subject>
      </cc:Work>
      <cc:License
         rdf:about="http://creativecommons.org/licenses/publicdomain/">
        <cc:permits
           rdf:resource="http://creativecommons.org/ns#Reproduction" />
        <cc:permits
           rdf:resource="http://creativecommons.org/ns#Distribution" />
        <cc:permits
           rdf:resource="http://creativecommons.org/ns#DerivativeWorks" />
      </cc:License>
    </rdf:RDF>
  </metadata>
</svg>
