<?xml version="1.0" encoding="UTF-8" standalone="no"?>
<!-- Created with Inkscape (http://www.inkscape.org/) -->

<svg
   xmlns:dc="http://purl.org/dc/elements/1.1/"
   xmlns:cc="http://creativecommons.org/ns#"
   xmlns:rdf="http://www.w3.org/1999/02/22-rdf-syntax-ns#"
   xmlns:svg="http://www.w3.org/2000/svg"
   xmlns="http://www.w3.org/2000/svg"
   xmlns:xlink="http://www.w3.org/1999/xlink"
   xmlns:sodipodi="http://sodipodi.sourceforge.net/DTD/sodipodi-0.dtd"
   xmlns:inkscape="http://www.inkscape.org/namespaces/inkscape"
   version="1.0"
   width="128"
   height="128"
   id="svg2"
   inkscape:version="0.48.4 r9939"
   sodipodi:docname="roteador_wireless_linksys_indisponivel.svg">
  <metadata
     id="metadata57">
    <rdf:RDF>
      <cc:Work
         rdf:about="">
        <dc:format>image/svg+xml</dc:format>
        <dc:type
           rdf:resource="http://purl.org/dc/dcmitype/StillImage" />
        <dc:title></dc:title>
      </cc:Work>
    </rdf:RDF>
  </metadata>
  <sodipodi:namedview
     pagecolor="#ffffff"
     bordercolor="#666666"
     borderopacity="1"
     objecttolerance="10"
     gridtolerance="10"
     guidetolerance="10"
     inkscape:pageopacity="0"
     inkscape:pageshadow="2"
     inkscape:window-width="1600"
     inkscape:window-height="838"
     id="namedview55"
     showgrid="false"
     inkscape:zoom="1.84375"
     inkscape:cx="64"
     inkscape:cy="64"
     inkscape:window-x="-8"
     inkscape:window-y="-8"
     inkscape:window-maximized="1"
     inkscape:current-layer="svg2" />
  <defs
     id="defs3">
    <linearGradient
       id="linearGradient4469">
      <stop
         id="stop4471"
         style="stop-color:#7a7d77;stop-opacity:1"
         offset="0" />
      <stop
         id="stop4473"
         style="stop-color:#3c3d3a;stop-opacity:1"
         offset="1" />
    </linearGradient>
    <linearGradient
       id="linearGradient4460">
      <stop
         id="stop4462"
         style="stop-color:#204a87;stop-opacity:1"
         offset="0" />
      <stop
         id="stop4464"
         style="stop-color:#204a87;stop-opacity:0"
         offset="1" />
    </linearGradient>
    <linearGradient
       id="linearGradient4454">
      <stop
         id="stop4456"
         style="stop-color:#6996d0;stop-opacity:1"
         offset="0" />
      <stop
         id="stop4458"
         style="stop-color:#3465a4;stop-opacity:1"
         offset="1" />
    </linearGradient>
    <linearGradient
       id="linearGradient4902">
      <stop
         id="stop3552"
         style="stop-color:#eeeeec;stop-opacity:1"
         offset="0" />
      <stop
         id="stop4906"
         style="stop-color:#eeeeec;stop-opacity:0"
         offset="1" />
    </linearGradient>
    <filter
       id="filter4504"
       height="2.3422015"
       y="-0.67110074"
       width="1.0835891"
       x="-0.041794527">
      <feGaussianBlur
         id="feGaussianBlur4506"
         stdDeviation="0.77455975"
         inkscape:collect="always" />
    </filter>
    <linearGradient
       x1="3"
       y1="17.724426"
       x2="4"
       y2="17.724426"
       id="linearGradient3879"
       xlink:href="#linearGradient4902"
       gradientUnits="userSpaceOnUse"
       gradientTransform="matrix(0.6574831,0,0,0.851912,8.3873631,-3.158236)" />
    <linearGradient
       x1="3"
       y1="17.724426"
       x2="4"
       y2="17.724426"
       id="linearGradient3903"
       xlink:href="#linearGradient4902"
       gradientUnits="userSpaceOnUse"
       gradientTransform="matrix(0.6574831,0,0,0.851912,8.3873631,-3.158236)" />
    <linearGradient
       x1="28.65053"
       y1="35.367668"
       x2="0.38944796"
       y2="35.288528"
       id="linearGradient3915"
       xlink:href="#linearGradient4460"
       gradientUnits="userSpaceOnUse"
       gradientTransform="matrix(2.3656096,0,0,2.8821753,7.7677085,-15.046422)" />
    <linearGradient
       x1="8.1590052"
       y1="33.292744"
       x2="26.293488"
       y2="33.055317"
       id="linearGradient3937"
       xlink:href="#linearGradient4454"
       gradientUnits="userSpaceOnUse"
       gradientTransform="matrix(2.3656096,0,0,2.8821753,7.7677085,-15.046422)" />
    <linearGradient
       x1="-10.597795"
       y1="21.876375"
       x2="26.735254"
       y2="28.761784"
       id="linearGradient3952"
       xlink:href="#linearGradient4469"
       gradientUnits="userSpaceOnUse"
       gradientTransform="matrix(2.3656096,0,0,2.8821753,7.7677085,-9.2913203)" />
    <linearGradient
       id="SVGID_1_"
       gradientUnits="userSpaceOnUse"
       x1="306"
       y1="-333"
       x2="306"
       y2="-373"
       gradientTransform="matrix(1,0,0,-1,-285,-332)">
      <stop
         offset="0"
         style="stop-color:#5DF24F"
         id="stop7" />
      <stop
         offset="1"
         style="stop-color:#2A9C06"
         id="stop9" />
    </linearGradient>
    <linearGradient
       inkscape:collect="always"
       xlink:href="#linearGradient2555"
       id="linearGradient2026"
       gradientUnits="userSpaceOnUse"
       gradientTransform="matrix(-0.657176,0,0,0.657176,-16.96567,114.6286)"
       x1="-344.15295"
       y1="274.711"
       x2="-395.84943"
       y2="425.39993" />
    <linearGradient
       inkscape:collect="always"
       id="linearGradient2555">
      <stop
         style="stop-color:#ffffff;stop-opacity:1;"
         offset="0"
         id="stop2557" />
      <stop
         style="stop-color:#ffffff;stop-opacity:0;"
         offset="1"
         id="stop2559" />
    </linearGradient>
    <linearGradient
       y2="425.39993"
       x2="-395.84943"
       y1="274.711"
       x1="-344.15295"
       gradientTransform="matrix(-0.657176,0,0,0.657176,-16.96567,114.6286)"
       gradientUnits="userSpaceOnUse"
       id="linearGradient3013"
       xlink:href="#linearGradient2555"
       inkscape:collect="always" />
  </defs>
  <g
     id="layer1"
     transform="matrix(1.1549921,0,0,1.1549921,-10.216284,-5.6587468)">
    <path
       d=""
       transform="translate(-277.8571,-33.07897)"
       id="path5473"
       style="fill:#d3d3d3;fill-opacity:1;fill-rule:evenodd;stroke:#bababa;stroke-width:0.99999994;stroke-linecap:butt;stroke-linejoin:miter;stroke-miterlimit:4;stroke-opacity:1;stroke-dasharray:none;stroke-dashoffset:0;marker:none;visibility:visible;display:inline;overflow:visible"
       inkscape:connector-curvature="0" />
    <path
       d=""
       transform="translate(-329.95425,-39.836361)"
       id="path5589"
       style="fill:#d3d3d3;fill-opacity:1;fill-rule:evenodd;stroke:#bababa;stroke-width:0.99999994;stroke-linecap:butt;stroke-linejoin:miter;stroke-miterlimit:4;stroke-opacity:1;stroke-dasharray:none;stroke-dashoffset:0;marker:none;visibility:visible;display:inline;overflow:visible"
       inkscape:connector-curvature="0" />
    <path
       d=""
       transform="translate(-340.63515,-91.683607)"
       id="path4122"
       style="fill:#d3d3d3;fill-opacity:1;fill-rule:evenodd;stroke:#bababa;stroke-width:0.99999994;stroke-linecap:butt;stroke-linejoin:miter;stroke-miterlimit:4;stroke-opacity:1;stroke-dasharray:none;stroke-dashoffset:0;marker:none;visibility:visible;display:inline;overflow:visible"
       inkscape:connector-curvature="0" />
    <path
       d=""
       transform="translate(-395.17037,-103.70455)"
       id="path3626"
       style="fill:#d3d3d3;fill-opacity:1;fill-rule:evenodd;stroke:#bababa;stroke-width:0.99999994;stroke-linecap:butt;stroke-linejoin:miter;stroke-miterlimit:4;stroke-opacity:1;stroke-dasharray:none;stroke-dashoffset:0;marker:none;visibility:visible;display:inline;overflow:visible"
       inkscape:connector-curvature="0" />
    <path
       d=""
       transform="translate(-284.31835,25.920937)"
       id="path4009"
       style="fill:#d3d3d3;fill-opacity:1;fill-rule:evenodd;stroke:#bababa;stroke-width:0.99999994;stroke-linecap:butt;stroke-linejoin:miter;stroke-miterlimit:4;stroke-opacity:1;stroke-dasharray:none;stroke-dashoffset:0;marker:none;visibility:visible;display:inline;overflow:visible"
       inkscape:connector-curvature="0" />
    <path
       d=""
       transform="translate(-284.68315,3.602368)"
       id="path5764"
       style="fill:#d3d3d3;fill-opacity:1;fill-rule:evenodd;stroke:#bababa;stroke-width:0.99999994;stroke-linecap:butt;stroke-linejoin:miter;stroke-miterlimit:4;stroke-opacity:1;stroke-dasharray:none;stroke-dashoffset:0;marker:none;visibility:visible;display:inline;overflow:visible"
       inkscape:connector-curvature="0" />
    <path
       d=""
       transform="translate(-336.7803,-3.155023)"
       id="path5774"
       style="fill:#d3d3d3;fill-opacity:1;fill-rule:evenodd;stroke:#bababa;stroke-width:0.99999994;stroke-linecap:butt;stroke-linejoin:miter;stroke-miterlimit:4;stroke-opacity:1;stroke-dasharray:none;stroke-dashoffset:0;marker:none;visibility:visible;display:inline;overflow:visible"
       inkscape:connector-curvature="0" />
    <path
       d=""
       transform="translate(-347.4612,-55.002269)"
       id="path5776"
       style="fill:#d3d3d3;fill-opacity:1;fill-rule:evenodd;stroke:#bababa;stroke-width:0.99999994;stroke-linecap:butt;stroke-linejoin:miter;stroke-miterlimit:4;stroke-opacity:1;stroke-dasharray:none;stroke-dashoffset:0;marker:none;visibility:visible;display:inline;overflow:visible"
       inkscape:connector-curvature="0" />
    <path
       d=""
       transform="translate(-401.99642,-67.023212)"
       id="path5778"
       style="fill:#d3d3d3;fill-opacity:1;fill-rule:evenodd;stroke:#bababa;stroke-width:0.99999994;stroke-linecap:butt;stroke-linejoin:miter;stroke-miterlimit:4;stroke-opacity:1;stroke-dasharray:none;stroke-dashoffset:0;marker:none;visibility:visible;display:inline;overflow:visible"
       inkscape:connector-curvature="0" />
    <path
       d=""
       transform="translate(-291.1444,62.602275)"
       id="path5780"
       style="fill:#d3d3d3;fill-opacity:1;fill-rule:evenodd;stroke:#bababa;stroke-width:0.99999994;stroke-linecap:butt;stroke-linejoin:miter;stroke-miterlimit:4;stroke-opacity:1;stroke-dasharray:none;stroke-dashoffset:0;marker:none;visibility:visible;display:inline;overflow:visible"
       inkscape:connector-curvature="0" />
    <g
       id="g3963">
      <path
         d="m 46.456718,40.283596 c 0.0029,0.765038 -9.954756,1.385318 -22.239076,1.385318 -12.284321,0 -22.2419303,-0.62028 -22.2390768,-1.385318 -0.00285,-0.765038 9.9547558,-1.385318 22.2390768,-1.385318 12.28432,0 22.24193,0.62028 22.239076,1.385318 z"
         transform="matrix(2.3413186,0,0,6.2429955,7.8157706,-151.24971)"
         id="path4470"
         style="opacity:0.38934422;fill:#000000;fill-opacity:1;fill-rule:evenodd;stroke:none;filter:url(#filter4504)"
         inkscape:connector-curvature="0" />
      <rect
         width="18.975233"
         height="7.5253592"
         x="91.662361"
         y="94.373306"
         id="rect4468"
         style="fill:#3465a4;fill-opacity:1;fill-rule:evenodd;stroke:#173663;stroke-width:2.42463875px;stroke-linecap:butt;stroke-linejoin:round;stroke-opacity:1" />
      <rect
         width="18.975233"
         height="7.5253592"
         x="18.328466"
         y="94.259247"
         id="rect3522"
         style="fill:#3465a4;fill-opacity:1;fill-rule:evenodd;stroke:#173663;stroke-width:2.42463875px;stroke-linecap:butt;stroke-linejoin:round;stroke-opacity:1" />
      <g
         transform="matrix(2.4056388,0,0,2.8453665,68.913295,3.2774312)"
         id="g3512">
        <path
           d="m 10.46044,3.9658009 0,9.0482531 -0.9604289,3.079142 0,9.897917 c 0,0 -0.00826,1.491356 0.426789,1.491356 0.5621789,0.0057 1.4601319,0.01139 2.0223099,0.01708 0.37605,0.02024 0.496292,-0.644645 0.480605,-1.519802 l 0.0037,-9.926123 -0.960429,-3 c 0,-5.680553 0,-12.20388775 0,-9.0482528 -0.289165,-0.627672 -0.738019,-0.625604 -1.012572,-0.039571 z"
           id="path3514"
           style="fill:#000000;fill-opacity:1;fill-rule:evenodd;stroke:#000000;stroke-width:1px;stroke-linecap:butt;stroke-linejoin:round;stroke-opacity:1"
           inkscape:connector-curvature="0" />
        <path
           d="m 10.467992,4.2168945 c -0.0357,-0.580676 0.519386,-0.889925 0.549304,0 0.0067,6.8327945 -0.05596,22.7224685 -0.05596,22.7224685 -0.268427,0 -0.430784,0 -0.699211,0 -0.4692949,-0.208099 -0.3029289,-0.445101 -0.3163969,-1.229824 -0.035429,-2.064166 0,-9.625611 0,-9.625611 l 0.5502469,-2.176999 c 0,0 -0.09316,-5.5733055 -0.02798,-9.6900345 z"
           id="path3516"
           style="opacity:0.5;fill:url(#linearGradient3879);fill-opacity:1;fill-rule:evenodd;stroke:none;stroke-width:0.99900001;marker:none;visibility:visible;display:inline;overflow:visible;enable-background:accumulate"
           inkscape:connector-curvature="0" />
      </g>
      <g
         transform="matrix(2.4056388,0,0,2.8453665,7.4074475,3.2774312)"
         id="g3508">
        <path
           d="m 10.46044,3.9658009 0,9.0482531 -0.9604289,3.079142 0,9.897917 c 0,0 -0.00826,1.491356 0.426789,1.491356 0.5621789,0.0057 1.4601319,0.01139 2.0223099,0.01708 0.37605,0.02024 0.496292,-0.644645 0.480605,-1.519802 l 0.0037,-9.926123 -0.960429,-3 c 0,-5.680553 0,-12.20388775 0,-9.0482528 -0.289165,-0.627672 -0.738019,-0.625604 -1.012572,-0.039571 z"
           id="path3484"
           style="fill:#000000;fill-opacity:1;fill-rule:evenodd;stroke:#000000;stroke-width:1px;stroke-linecap:butt;stroke-linejoin:round;stroke-opacity:1"
           inkscape:connector-curvature="0" />
        <path
           d="m 10.467992,4.2168945 c -0.0357,-0.580676 0.519386,-0.889925 0.549304,0 0.0067,6.8327945 -0.05596,22.7224685 -0.05596,22.7224685 -0.268427,0 -0.430784,0 -0.699211,0 -0.4692949,-0.208099 -0.3029289,-0.445101 -0.3163969,-1.229824 -0.035429,-2.064166 0,-9.625611 0,-9.625611 l 0.5502469,-2.176999 c 0,0 -0.09316,-5.5733055 -0.02798,-9.6900345 z"
           id="path3486"
           style="opacity:0.5;fill:url(#linearGradient3903);fill-opacity:1;fill-rule:evenodd;stroke:none;stroke-width:0.99900001;marker:none;visibility:visible;display:inline;overflow:visible;enable-background:accumulate"
           inkscape:connector-curvature="0" />
      </g>
      <path
         d="m 64.589143,52.584231 c 11.430944,0.16471 28.685188,1.959888 41.741687,5.441019 l 8.80662,14.849795 0,20.182908 c 0,1.486989 -1.03049,2.684095 -2.31052,2.684095 0,0 -24.076374,3.306512 -48.269991,3.225866 -24.193616,-0.08065 -48.504478,-3.548451 -48.504478,-3.548451 -1.280026,0 -2.310517,-1.197106 -2.310517,-2.684095 l 0,-19.860323 9.141688,-14.39359 c 13.30263,-4.033529 30.180956,-6.061932 41.705511,-5.897224 z"
         id="rect2919"
         style="fill:url(#linearGradient3952);fill-opacity:1;fill-rule:nonzero;stroke:#2e3436;stroke-width:2.61114955;stroke-linecap:round;stroke-linejoin:miter;stroke-miterlimit:4;stroke-opacity:1;stroke-dasharray:none;stroke-dashoffset:0;marker:none;visibility:visible;display:inline;overflow:visible"
         inkscape:connector-curvature="0" />
      <path
         d="m 64.589143,55.435518 c 11.430944,0.16471 27.468254,1.731784 40.431137,5.212915 l 8.15135,13.367126 -97.27665,0.11405 8.299195,-13.139021 c 13.30263,-4.03353 28.870413,-5.719781 40.394968,-5.55507 z"
         id="path4444"
         style="opacity:0.16803278;fill:none;stroke:#eeeeec;stroke-width:2.61114955;stroke-linecap:round;stroke-linejoin:miter;stroke-miterlimit:4;stroke-opacity:1;stroke-dasharray:none;stroke-dashoffset:0;marker:none;visibility:visible;display:inline;overflow:visible"
         inkscape:connector-curvature="0" />
      <path
         d="m 64.722279,61.482036 c 3.674253,0.0045 20.24462,0.842074 28.352174,1.461618 0.707235,0.05405 1.60781,4.10237 2.325416,4.161832 9.849761,0.8162 16.568191,1.692384 17.648011,2.325993 l 2.35359,3.444315 0,20.180939 c 0,1.486846 -1.03315,2.683836 -2.3165,2.683836 0,0 -24.138714,3.306189 -48.394979,3.225552 -24.256263,-0.08064 -48.630076,-3.548105 -48.630076,-3.548105 -1.283341,0 -2.316499,-1.19699 -2.316499,-2.683835 l 0,-19.858387 2.408212,-3.672419 c 1.484654,-0.420601 7.177843,-1.123985 17.537605,-1.927501 0.782865,-0.06072 1.744848,-4.45186 2.509051,-4.505978 7.069766,-0.500646 25.217318,-1.291938 28.523995,-1.28786 z"
         id="path3463"
         style="fill:url(#linearGradient3937);fill-opacity:1;fill-rule:nonzero;stroke:#204a87;stroke-width:2.61440039;stroke-linecap:round;stroke-linejoin:miter;stroke-miterlimit:4;stroke-opacity:1;stroke-dasharray:none;stroke-dashoffset:0;marker:none;visibility:visible;display:inline;overflow:visible"
         inkscape:connector-curvature="0" />
      <path
         d="m 15.973419,75.7421 c 0,0 24.208622,-2.851287 48.489913,-2.851287 24.281289,0 48.635238,2.851287 48.635238,2.851287 l 0,17.35797 c 0,0 -24.260339,2.769658 -48.541628,2.769658 -24.281291,0 -48.583523,-2.769658 -48.583523,-2.769658 l 0,-17.35797 z"
         id="rect3513"
         style="fill:url(#linearGradient3915);fill-opacity:1;fill-rule:evenodd;stroke:#3b72ad;stroke-width:2.61114931;stroke-linecap:round;stroke-linejoin:round;stroke-miterlimit:4;stroke-opacity:1;stroke-dashoffset:0;marker:none;visibility:visible;display:inline;overflow:visible;enable-background:accumulate"
         inkscape:connector-curvature="0" />
      <path
         d="M 17.228595,81.671106 111.70299,81.348925"
         id="path4636"
         style="opacity:0.16393445;fill:none;stroke:#000000;stroke-width:2.60854435;stroke-linecap:butt;stroke-linejoin:miter;stroke-miterlimit:4;stroke-opacity:1;stroke-dasharray:none"
         inkscape:connector-curvature="0" />
      <path
         d="m 17.230147,80.096251 57.035354,0 0,14.120996 c 0,0 -16.474846,0.492544 -30.733686,-0.163252 C 29.272978,93.398199 17.230147,91.594064 17.230147,91.594064 l 0,-11.497813 z"
         id="rect4439"
         style="fill:#2e3436;fill-opacity:1;fill-rule:evenodd;stroke:none"
         inkscape:connector-curvature="0" />
      <path
         d="m 55.142308,80.096251 19.123193,0 0,14.120996 c 0,0 -5.52284,0.264434 -11.075529,0.178903 -5.553082,-0.08554 -7.954055,0.0492 -7.954055,0.0492 l -0.09361,-14.3491 z"
         id="path4442"
         style="opacity:0.63114756;fill:#555753;fill-opacity:1;fill-rule:evenodd;stroke:none"
         inkscape:connector-curvature="0" />
      <rect
         width="7.6137128"
         height="3.5119324"
         x="22.885729"
         y="84.073746"
         id="rect4508"
         style="opacity:0.14344261;fill:#ffffff;fill-opacity:1;fill-rule:evenodd;stroke:#ffffff;stroke-width:2.04061651px;stroke-linecap:butt;stroke-linejoin:round;stroke-opacity:1" />
      <rect
         width="1.6962268"
         height="2.0666254"
         x="41.220936"
         y="86.23748"
         id="rect4510"
         style="opacity:0.53688528;fill:#8ae234;fill-opacity:1;fill-rule:evenodd;stroke:#73d216;stroke-width:0.73886138px;stroke-linecap:butt;stroke-linejoin:round;stroke-opacity:1" />
      <rect
         width="1.6962268"
         height="2.0666254"
         x="45.952152"
         y="86.23748"
         id="rect4584"
         style="opacity:0.53688528;fill:#8ae234;fill-opacity:1;fill-rule:evenodd;stroke:#73d216;stroke-width:0.73886138px;stroke-linecap:butt;stroke-linejoin:round;stroke-opacity:1" />
      <rect
         width="1.6962268"
         height="2.0666254"
         x="50.683376"
         y="86.23748"
         id="rect4586"
         style="opacity:0.53688528;fill:#8ae234;fill-opacity:1;fill-rule:evenodd;stroke:#73d216;stroke-width:0.73886138px;stroke-linecap:butt;stroke-linejoin:round;stroke-opacity:1" />
    </g>
  </g>
  <g
     transform="matrix(0.40160628,0,0,0.40160628,-7.0733483,-68.732281)"
     id="g2071">
    <rect
       inkscape:export-ydpi="7.7063322"
       inkscape:export-xdpi="7.7063322"
       inkscape:export-filename="C:\Documents and Settings\Molumen\Desktop\path3511111.png"
       transform="scale(-1,1)"
       ry="39.430557"
       rx="39.430557"
       y="318.34387"
       x="-318.76086"
       height="144.63728"
       width="145.8244"
       id="rect3417"
       style="fill:#f00a10;fill-opacity:1;fill-rule:evenodd;stroke:none" />
    <g
       inkscape:export-ydpi="7.7063322"
       inkscape:export-xdpi="7.7063322"
       inkscape:export-filename="C:\Documents and Settings\Molumen\Desktop\path3511111.png"
       transform="matrix(0.657176,0,0,0.657176,-102.644,-95.3871)"
       id="g3479">
      <path
         inkscape:connector-curvature="0"
         id="path3419"
         d="m 554.12665,739.60331 35.77776,-35.77776 c 3.74808,-3.74826 5.62215,-7.89395 5.62222,-12.43703 -0.22723,-4.08899 -2.10129,-7.89392 -5.62222,-11.41481 -3.18031,-3.18034 -6.92845,-4.99762 -11.24444,-5.45184 -4.42968,-0.34085 -8.63213,1.47644 -12.6074,5.45184 l -35.77776,35.77776 -35.77776,-35.77776 c -3.63453,-3.63467 -7.72341,-5.45195 -12.26667,-5.45184 -4.42957,0.34063 -8.29129,2.15791 -11.58517,5.45185 -2.83945,2.83938 -4.48636,6.53074 -4.94075,11.07406 -0.45425,4.77025 1.19267,9.0295 4.94075,12.77778 l 35.77775,35.77776 -35.77775,35.77775 c -3.18019,3.18005 -4.94067,7.32572 -5.28149,12.43705 0.34082,4.42939 2.1013,8.23433 5.28149,11.41479 2.95313,2.95287 6.70128,4.77014 11.24444,5.45186 4.42967,0.34051 8.63212,-1.47677 12.6074,-5.45186 l 35.77775,-35.77775 35.77777,35.77776 c 3.7481,3.74791 7.89378,5.39483 12.43703,4.94073 4.65673,-0.34096 8.46167,-1.98788 11.41481,-4.94073 2.72586,-2.72615 4.37277,-6.4175 4.94073,-11.07407 0.68142,-4.54342 -0.96549,-8.80267 -4.94073,-12.77778 l -35.77776,-35.77776"
         style="font-size:454.95709229px;font-style:normal;font-variant:normal;font-weight:normal;font-stretch:normal;line-height:100%;writing-mode:lr-tb;text-anchor:start;fill:#cb1e0e;fill-opacity:1;stroke:none;font-family:GOST type B" />
      <path
         inkscape:connector-curvature="0"
         style="font-size:454.95709229px;font-style:normal;font-variant:normal;font-weight:normal;font-stretch:normal;line-height:100%;writing-mode:lr-tb;text-anchor:start;fill:#ffffff;fill-opacity:1;stroke:none;font-family:GOST type B"
         d="m 552.27953,739.60331 32.98715,-32.98715 c 3.45573,-3.4559 5.18363,-7.27823 5.18369,-11.46696 -0.2095,-3.77006 -1.93739,-7.27821 -5.18369,-10.52447 -2.93225,-2.93228 -6.38804,-4.60782 -10.36739,-5.02661 -4.08417,-0.31426 -7.95884,1.36128 -11.62404,5.02661 l -32.98715,32.98715 -32.98715,-32.98715 c -3.35104,-3.35117 -7.121,-5.02671 -11.30989,-5.02661 -4.08407,0.31406 -7.64458,1.9896 -10.68154,5.02662 -2.61798,2.61791 -4.13643,6.02135 -4.55538,10.2103 -0.41882,4.39817 1.09964,8.32521 4.55538,11.78113 l 32.98714,32.98715 -32.98714,32.98714 c -2.93214,2.93201 -4.55531,6.75432 -4.86954,11.46697 0.31423,4.08391 1.9374,7.59207 4.86954,10.52446 2.72279,2.72255 6.17859,4.39807 10.36739,5.02662 4.08416,0.31395 7.95883,-1.36158 11.62404,-5.02662 l 32.98714,-32.98714 32.98716,32.98715 c 3.45575,3.45558 7.27807,4.97404 11.46696,4.55536 4.29351,-0.31437 7.80167,-1.83283 10.52447,-4.55536 2.51325,-2.51352 4.0317,-5.91695 4.55536,-10.21031 0.62827,-4.18904 -0.89018,-8.11608 -4.55536,-11.78113 l -32.98715,-32.98715"
         id="path3421" />
    </g>
    <path
       inkscape:connector-curvature="0"
       inkscape:export-ydpi="7.7063322"
       inkscape:export-xdpi="7.7063322"
       inkscape:export-filename="C:\Documents and Settings\Molumen\Desktop\path3511111.png"
       sodipodi:nodetypes="ccccsssc"
       id="path3423"
       d="m 280.23405,324.52719 -68.77064,0 c -18.20378,0 -32.8588,14.65502 -32.8588,32.85879 l 0,66.55294 c 0.58922,14.20959 2.85575,5.22659 7.16998,-10.50956 5.01405,-18.28861 21.34331,-34.27311 41.22946,-46.25257 15.17845,-9.14349 32.16783,-14.98217 63.09303,-15.53761 17.53858,-0.31499 15.99021,-22.57853 -9.86303,-27.11199 z"
       style="fill:url(#linearGradient3013);fill-opacity:1;fill-rule:evenodd;stroke:none" />
  </g>
</svg>
