<?xml version="1.0" encoding="UTF-8" standalone="no"?>
<!-- Created with Inkscape (http://www.inkscape.org/) -->
<svg xmlns:dc="http://purl.org/dc/elements/1.1/" xmlns:cc="http://creativecommons.org/ns#" xmlns:rdf="http://www.w3.org/1999/02/22-rdf-syntax-ns#" xmlns:svg="http://www.w3.org/2000/svg" xmlns="http://www.w3.org/2000/svg" xmlns:sodipodi="http://sodipodi.sourceforge.net/DTD/sodipodi-0.dtd" xmlns:inkscape="http://www.inkscape.org/namespaces/inkscape" width="1583.8673" height="313.78506" id="svg2" sodipodi:version="0.32" inkscape:version="0.46" sodipodi:docname="vhpop_Router_adsl-500b.svg" inkscape:output_extension="org.inkscape.output.svg.inkscape" version="1.0">
  <defs id="defs4">
    <linearGradient id="linearGradient3183">
      <stop style="stop-color:#00be8f;stop-opacity:0.91228068;" offset="0" id="stop3185"/>
      <stop style="stop-color:#2818d3;stop-opacity:0.41228071;" offset="1" id="stop3187"/>
    </linearGradient>
    <inkscape:perspective sodipodi:type="inkscape:persp3d" inkscape:vp_x="0 : 526.18109 : 1" inkscape:vp_y="0 : 1000 : 0" inkscape:vp_z="744.09448 : 526.18109 : 1" inkscape:persp3d-origin="372.04724 : 350.78739 : 1" id="perspective10"/>
  </defs>
  <sodipodi:namedview id="base" pagecolor="#ffffff" bordercolor="#666666" borderopacity="1.0" gridtolerance="10000" guidetolerance="10" objecttolerance="10" inkscape:pageopacity="0.0" inkscape:pageshadow="2" inkscape:zoom="0.43248572" inkscape:cx="524.12123" inkscape:cy="879.93234" inkscape:document-units="px" inkscape:current-layer="layer1" showgrid="false" showguides="true" inkscape:guide-bbox="true" inkscape:window-width="1152" inkscape:window-height="837" inkscape:window-x="0" inkscape:window-y="0">
    <sodipodi:guide orientation="0,1" position="164.16727,672.85459" id="guide3279"/>
  </sodipodi:namedview>
  <g inkscape:label="Layer 1" inkscape:groupmode="layer" id="layer1" transform="translate(-11.881509,-200.51451)">
    <g id="g3303">
      <rect y="383.20889" x="11.881509" height="34.92416" width="1583.8673" id="rect3281" style="fill:#000000;fill-opacity:1;stroke:none;stroke-width:8.69999981;stroke-miterlimit:4;stroke-dasharray:none;stroke-opacity:1" ry="0"/>
      <rect rx="19.79899" ry="32.526913" y="200.51451" x="11.881509" height="313.78506" width="1583.8673" id="rect3193" style="fill:#000000;fill-opacity:0.13698629;stroke:none;stroke-width:8.69999981;stroke-miterlimit:4;stroke-dasharray:none;stroke-opacity:1"/>
      <rect ry="26.870058" style="fill:#000000;fill-opacity:1;stroke:none;stroke-width:8.69999981;stroke-miterlimit:4;stroke-dasharray:none;stroke-opacity:1" id="rect3202" width="1583.8673" height="131.09068" x="11.881509" y="383.20889"/>
      <rect ry="132.12039" style="fill:#cccccc;fill-opacity:1;stroke:none;stroke-width:8.69999981;stroke-miterlimit:4;stroke-dasharray:none;stroke-opacity:1" id="rect3200" width="1478.5859" height="264.24078" x="64.522247" y="225.28662"/>
      <path id="path3206" d="M 179.57155,487.89686 C 147.40466,483.42185 114.47677,464.88321 94.868796,440.20866 C 83.439677,425.82635 77.30223,414.39192 70.951407,395.64922 C 65.692136,380.12793 65.582882,379.35989 65.512162,357.40702 C 65.450705,338.33389 65.927496,333.28566 68.72013,323.44146 C 79.279271,286.21988 104.911,255.37037 138.98329,238.87513 C 165.68409,225.94864 177.12441,224.55387 257.02286,224.48415 L 312.79401,224.43546 L 313.75092,292.7279 C 314.27717,330.28877 314.70853,389.80075 314.70945,424.97679 L 314.7111,488.93323 L 249.30934,488.71665 C 213.33837,488.59755 181.95636,488.22864 179.57155,487.89688 L 179.57155,487.89686 z" style="fill:#007b9b;fill-opacity:1;stroke:none;stroke-width:8.69999981;stroke-miterlimit:4;stroke-dasharray:none;stroke-opacity:1"/>
      <rect y="317.78854" x="342.48578" height="79.2369" width="1010.6905" id="rect3208" style="fill:#666666;fill-opacity:1;stroke:none;stroke-width:8.69999981;stroke-miterlimit:4;stroke-dasharray:none;stroke-opacity:1" ry="39.61845"/>
      <rect ry="0" y="343.19138" x="421.41849" height="33.305389" width="33.305389" id="rect3210" style="fill:#00ff00;fill-opacity:1;stroke:none;stroke-width:8.69999981;stroke-miterlimit:4;stroke-dasharray:none;stroke-opacity:1"/>
      <rect style="fill:#00ff00;fill-opacity:1;stroke:none;stroke-width:8.69999981;stroke-miterlimit:4;stroke-dasharray:none;stroke-opacity:1" id="rect3212" width="33.305389" height="33.305389" x="535.73895" y="343.19138" ry="0"/>
      <rect ry="0" y="343.19138" x="627.16357" height="33.305389" width="33.305389" id="rect3232" style="fill:#00ff00;fill-opacity:1;stroke:none;stroke-width:8.69999981;stroke-miterlimit:4;stroke-dasharray:none;stroke-opacity:1"/>
      <rect style="fill:#00ff00;fill-opacity:1;stroke:none;stroke-width:8.69999981;stroke-miterlimit:4;stroke-dasharray:none;stroke-opacity:1" id="rect3238" width="33.305389" height="33.305389" x="710.09351" y="343.19138" ry="0"/>
      <path style="font-size:88.03175354px;font-style:normal;font-weight:normal;fill:#000000;fill-opacity:1;stroke:none;stroke-width:1px;stroke-linecap:butt;stroke-linejoin:miter;stroke-opacity:1;font-family:Bitstream Vera Sans" d="M 411.07008,304.65987 L 411.07008,310.08556 L 413.52663,310.08556 C 414.43574,310.08557 415.13853,309.85023 415.63501,309.37954 C 416.13147,308.90887 416.3797,308.23832 416.37971,307.36788 C 416.3797,306.50391 416.13147,305.83658 415.63501,305.36589 C 415.13853,304.89522 414.43574,304.65988 413.52663,304.65987 L 411.07008,304.65987 M 409.11645,303.05441 L 413.52663,303.05441 C 415.14498,303.05442 416.36681,303.42194 417.19212,304.15696 C 418.02385,304.88555 418.43972,305.95586 418.43973,307.36788 C 418.43972,308.79282 418.02385,309.86957 417.19212,310.59815 C 416.36681,311.32674 415.14498,311.69103 413.52663,311.69102 L 411.07008,311.69102 L 411.07008,317.4939 L 409.11645,317.4939 L 409.11645,303.05441 M 424.49407,307.90948 C 423.53981,307.90949 422.78544,308.28345 422.23095,309.03137 C 421.67645,309.77286 421.3992,310.79158 421.3992,312.08755 C 421.3992,313.38353 421.67322,314.40548 422.22127,315.1534 C 422.77577,315.89488 423.53336,316.26562 424.49407,316.26562 C 425.44186,316.26562 426.19301,315.89166 426.74752,315.14373 C 427.302,314.39581 427.57925,313.37708 427.57926,312.08755 C 427.57925,310.80448 427.302,309.78898 426.74752,309.04104 C 426.19301,308.28668 425.44186,307.90949 424.49407,307.90948 M 424.49407,306.40073 C 426.04149,306.40075 427.25687,306.90366 428.14021,307.90948 C 429.02352,308.91532 429.46518,310.30801 429.4652,312.08755 C 429.46518,313.86066 429.02352,315.25334 428.14021,316.26562 C 427.25687,317.27145 426.04149,317.77437 424.49407,317.77437 C 422.94018,317.77437 421.72158,317.27145 420.83826,316.26562 C 419.96137,315.25334 419.52294,313.86066 419.52294,312.08755 C 419.52294,310.30801 419.96137,308.91532 420.83826,307.90948 C 421.72158,306.90366 422.94018,306.40075 424.49407,306.40073 M 431.37047,306.66186 L 433.15002,306.66186 L 435.37446,315.11472 L 437.58922,306.66186 L 439.68793,306.66186 L 441.91236,315.11472 L 444.12713,306.66186 L 445.90667,306.66186 L 443.07294,317.4939 L 440.97423,317.4939 L 438.64341,308.6155 L 436.30292,317.4939 L 434.20421,317.4939 L 431.37047,306.66186 M 457.87994,311.63299 L 457.87994,312.50342 L 449.69789,312.50342 C 449.77526,313.72848 450.14277,314.66339 450.80043,315.30815 C 451.46454,315.94646 452.38655,316.26562 453.56647,316.26562 C 454.24991,316.26562 454.9108,316.1818 455.54912,316.01416 C 456.19387,315.84653 456.83219,315.59507 457.46407,315.25979 L 457.46407,316.94262 C 456.82574,317.21342 456.17131,317.41975 455.50076,317.5616 C 454.8302,317.70344 454.14997,317.77437 453.46008,317.77437 C 451.73211,317.77437 450.36199,317.27145 449.34971,316.26562 C 448.34388,315.25979 447.84097,313.89934 447.84097,312.18427 C 447.84097,310.41117 448.31809,309.00559 449.27234,307.96751 C 450.23304,306.923 451.52579,306.40075 453.1506,306.40073 C 454.60776,306.40075 455.75866,306.87142 456.60331,307.81277 C 457.45439,308.74768 457.87993,310.02109 457.87994,311.63299 M 456.10039,311.11073 C 456.08749,310.13715 455.81346,309.36021 455.27832,308.77991 C 454.7496,308.19963 454.04681,307.90949 453.16994,307.90948 C 452.177,307.90949 451.38072,308.18996 450.78109,308.7509 C 450.1879,309.31185 449.84618,310.10169 449.75592,311.12041 L 456.10039,311.11073 M 467.03881,308.32535 C 466.83893,308.20931 466.61971,308.12549 466.38115,308.0739 C 466.14903,308.01588 465.89112,307.98686 465.60743,307.98685 C 464.6016,307.98686 463.82788,308.31569 463.28628,308.97334 C 462.75113,309.62456 462.48355,310.56269 462.48355,311.78774 L 462.48355,317.4939 L 460.69433,317.4939 L 460.69433,306.66186 L 462.48355,306.66186 L 462.48355,308.3447 C 462.85751,307.68705 463.34431,307.20025 463.94394,306.88431 C 464.54357,306.56194 465.27215,306.40075 466.12969,306.40073 C 466.25219,306.40075 466.38759,306.41042 466.53589,306.42975 C 466.68418,306.44265 466.8486,306.46522 467.02914,306.49745 L 467.03881,308.32535" id="text3240"/>
      <path style="font-size:88.03175354px;font-style:normal;font-weight:normal;fill:#000000;fill-opacity:1;stroke:none;stroke-width:1px;stroke-linecap:butt;stroke-linejoin:miter;stroke-opacity:1;font-family:Bitstream Vera Sans" d="M 532.94238,304.96206 L 530.2924,312.14796 L 535.60203,312.14796 L 532.94238,304.96206 M 531.83984,303.03744 L 534.0546,303.03744 L 539.55766,317.47693 L 537.52666,317.47693 L 536.21134,313.77276 L 529.70245,313.77276 L 528.38713,317.47693 L 526.32711,317.47693 L 531.83984,303.03744 M 543.61,304.6429 L 543.61,315.87147 L 545.96984,315.87147 C 547.96215,315.87147 549.41931,315.42013 550.34134,314.51746 C 551.26979,313.6148 551.73401,312.18987 551.73403,310.24268 C 551.73401,308.3084 551.26979,306.89314 550.34134,305.99691 C 549.41931,305.09425 547.96215,304.64292 545.96984,304.6429 L 543.61,304.6429 M 541.65637,303.03744 L 545.67002,303.03744 C 548.46829,303.03746 550.52186,303.62097 551.83074,304.78798 C 553.1396,305.94856 553.79403,307.76679 553.79405,310.24268 C 553.79403,312.73147 553.13637,314.55938 551.82107,315.72639 C 550.50574,316.89342 548.45539,317.47693 545.67002,317.47693 L 541.65637,317.47693 L 541.65637,303.03744 M 565.55454,303.51134 L 565.55454,305.41662 C 564.81305,305.06201 564.11348,304.79766 563.45583,304.62356 C 562.79817,304.44949 562.16308,304.36244 561.55056,304.36243 C 560.48669,304.36244 559.66462,304.56877 559.08433,304.9814 C 558.51049,305.39407 558.22357,305.9808 558.22358,306.74161 C 558.22357,307.37994 558.41378,307.86351 558.79419,308.19233 C 559.18105,308.51472 559.90963,308.77585 560.97994,308.97572 L 562.15986,309.2175 C 563.61702,309.49476 564.69055,309.98478 565.38045,310.68757 C 566.07679,311.38392 566.42496,312.31882 566.42497,313.49229 C 566.42496,314.89143 565.95428,315.95206 565.01294,316.6742 C 564.07802,317.39633 562.70468,317.7574 560.8929,317.7574 C 560.20944,317.7574 559.48086,317.68003 558.70715,317.52529 C 557.93988,317.37054 557.14359,317.14165 556.3183,316.83861 L 556.3183,314.82695 C 557.11136,315.27184 557.88829,315.60712 558.64912,315.83278 C 559.40994,316.05845 560.15786,316.17128 560.8929,316.17128 C 562.00833,316.17128 562.86909,315.95206 563.47518,315.51362 C 564.08125,315.07519 564.38428,314.44977 564.38429,313.63736 C 564.38428,312.92812 564.16506,312.37363 563.72663,311.97387 C 563.29463,311.57412 562.58217,311.27431 561.58924,311.07442 L 560.39965,310.84231 C 558.94248,310.55217 557.88829,310.09761 557.23709,309.47863 C 556.58587,308.85967 556.26027,307.99891 556.26027,306.89635 C 556.26027,305.61973 556.70838,304.6139 557.6046,303.87886 C 558.50727,303.14384 559.74844,302.77633 561.32811,302.77631 C 562.00511,302.77633 562.695,302.83758 563.39781,302.96007 C 564.10059,303.08259 564.8195,303.26635 565.55454,303.51134 M 569.51017,303.03744 L 571.4638,303.03744 L 571.4638,315.83278 L 578.49495,315.83278 L 578.49495,317.47693 L 569.51017,317.47693 L 569.51017,303.03744" id="text3244"/>
      <path style="font-size:88.03175354px;font-style:normal;font-weight:normal;fill:#000000;fill-opacity:1;stroke:none;stroke-width:1px;stroke-linecap:butt;stroke-linejoin:miter;stroke-opacity:1;font-family:Bitstream Vera Sans" d="M 621.32527,304.93099 L 621.32527,316.15955 L 623.68511,316.15955 C 625.67742,316.15955 627.13458,315.70822 628.05661,314.80555 C 628.98505,313.90288 629.44928,312.47796 629.4493,310.53076 C 629.44928,308.59648 628.98505,307.18123 628.05661,306.28499 C 627.13458,305.38234 625.67742,304.931 623.68511,304.93099 L 621.32527,304.93099 M 619.37164,303.32553 L 623.38529,303.32553 C 626.18356,303.32554 628.23713,303.90905 629.54601,305.07606 C 630.85487,306.23665 631.5093,308.05488 631.50932,310.53076 C 631.5093,313.01956 630.85164,314.84746 629.53634,316.01448 C 628.22101,317.1815 626.17066,317.76501 623.38529,317.76501 L 619.37164,317.76501 L 619.37164,303.32553 M 639.09174,305.25015 L 636.44176,312.43604 L 641.75139,312.43604 L 639.09174,305.25015 M 637.98919,303.32553 L 640.20396,303.32553 L 645.70702,317.76501 L 643.67601,317.76501 L 642.36069,314.06085 L 635.8518,314.06085 L 634.53648,317.76501 L 632.47646,317.76501 L 637.98919,303.32553 M 644.2563,303.32553 L 656.47135,303.32553 L 656.47135,304.96968 L 651.34548,304.96968 L 651.34548,317.76501 L 649.38217,317.76501 L 649.38217,304.96968 L 644.2563,304.96968 L 644.2563,303.32553 M 661.68427,305.25015 L 659.03429,312.43604 L 664.34392,312.43604 L 661.68427,305.25015 M 660.58172,303.32553 L 662.79648,303.32553 L 668.29954,317.76501 L 666.26854,317.76501 L 664.95322,314.06085 L 658.44433,314.06085 L 657.12901,317.76501 L 655.06899,317.76501 L 660.58172,303.32553" id="text3248"/>
      <path style="font-size:88.03175354px;font-style:normal;font-weight:normal;fill:#000000;fill-opacity:1;stroke:none;stroke-width:1px;stroke-linecap:butt;stroke-linejoin:miter;stroke-opacity:1;font-family:Bitstream Vera Sans" d="M 709.75207,303.06118 L 718.88192,303.06118 L 718.88192,304.70533 L 711.7057,304.70533 L 711.7057,308.98012 L 718.58211,308.98012 L 718.58211,310.62426 L 711.7057,310.62426 L 711.7057,315.85652 L 719.05601,315.85652 L 719.05601,317.50067 L 709.75207,317.50067 L 709.75207,303.06118 M 723.93043,303.59311 L 723.93043,306.66864 L 727.59591,306.66864 L 727.59591,308.05166 L 723.93043,308.05166 L 723.93043,313.9319 C 723.93042,314.81523 724.0497,315.38262 724.28827,315.63408 C 724.53328,315.88554 725.02652,316.01127 725.768,316.01127 L 727.59591,316.01127 L 727.59591,317.50067 L 725.768,317.50067 C 724.39465,317.50067 723.44685,317.24599 722.92459,316.73663 C 722.40233,316.22082 722.1412,315.28591 722.14121,313.9319 L 722.14121,308.05166 L 720.83556,308.05166 L 720.83556,306.66864 L 722.14121,306.66864 L 722.14121,303.59311 L 723.93043,303.59311 M 738.9502,310.96277 L 738.9502,317.50067 L 737.17065,317.50067 L 737.17065,311.02079 C 737.17064,309.99563 736.97077,309.22836 736.57102,308.71899 C 736.17126,308.20963 735.57163,307.95495 734.77213,307.95494 C 733.81143,307.95495 733.05383,308.26121 732.49934,308.87373 C 731.94484,309.48626 731.66759,310.32123 731.66759,311.37864 L 731.66759,317.50067 L 729.87837,317.50067 L 729.87837,302.45188 L 731.66759,302.45188 L 731.66759,308.35147 C 732.09313,307.70027 732.59282,307.21347 733.16667,306.89108 C 733.74695,306.56871 734.41428,306.40752 735.16866,306.40751 C 736.41305,306.40752 737.3544,306.79438 737.99273,307.56808 C 738.63103,308.33536 738.95019,309.46692 738.9502,310.96277 M 751.78422,311.63977 L 751.78422,312.5102 L 743.60217,312.5102 C 743.67954,313.73525 744.04705,314.67016 744.70472,315.31492 C 745.36882,315.95324 746.29083,316.2724 747.47075,316.2724 C 748.15419,316.2724 748.81508,316.18858 749.4534,316.02094 C 750.09816,315.8533 750.73647,315.60184 751.36835,315.26656 L 751.36835,316.9494 C 750.73002,317.2202 750.07559,317.42652 749.40504,317.56837 C 748.73448,317.71022 748.05426,317.78114 747.36437,317.78114 C 745.63639,317.78114 744.26627,317.27823 743.254,316.2724 C 742.24816,315.26657 741.74525,313.90612 741.74525,312.19104 C 741.74525,310.41795 742.22237,309.01236 743.17662,307.97429 C 744.13732,306.92978 745.43007,306.40752 747.05488,306.40751 C 748.51204,306.40752 749.66294,306.8782 750.50759,307.81954 C 751.35867,308.75446 751.78421,310.02787 751.78422,311.63977 M 750.00467,311.11751 C 749.99177,310.14392 749.71775,309.36698 749.1826,308.78669 C 748.65389,308.20641 747.95109,307.91627 747.07422,307.91626 C 746.08128,307.91627 745.285,308.19674 744.68537,308.75767 C 744.09219,309.31863 743.75046,310.10846 743.6602,311.12718 L 750.00467,311.11751 M 760.9431,308.33213 C 760.74321,308.21608 760.52399,308.13226 760.28544,308.08067 C 760.05331,308.02265 759.79541,307.99364 759.51172,307.99363 C 758.50588,307.99364 757.73217,308.32247 757.19057,308.98012 C 756.65541,309.63134 756.38784,310.56947 756.38784,311.79451 L 756.38784,317.50067 L 754.59862,317.50067 L 754.59862,306.66864 L 756.38784,306.66864 L 756.38784,308.35147 C 756.7618,307.69382 757.24859,307.20703 757.84823,306.89108 C 758.44785,306.56871 759.17644,306.40752 760.03398,306.40751 C 760.15648,306.40752 760.29188,306.41719 760.44018,306.43652 C 760.58847,306.44943 760.75288,306.472 760.93342,306.50422 L 760.9431,308.33213 M 771.48498,310.96277 L 771.48498,317.50067 L 769.70544,317.50067 L 769.70544,311.02079 C 769.70543,309.99563 769.50555,309.22836 769.10581,308.71899 C 768.70604,308.20963 768.10641,307.95495 767.30691,307.95494 C 766.34621,307.95495 765.58861,308.26121 765.03412,308.87373 C 764.47962,309.48626 764.20237,310.32123 764.20238,311.37864 L 764.20238,317.50067 L 762.41316,317.50067 L 762.41316,306.66864 L 764.20238,306.66864 L 764.20238,308.35147 C 764.62792,307.70027 765.12761,307.21347 765.70145,306.89108 C 766.28173,306.56871 766.94906,306.40752 767.70344,306.40751 C 768.94783,306.40752 769.88918,306.79438 770.52751,307.56808 C 771.16582,308.33536 771.48497,309.46692 771.48498,310.96277 M 784.31901,311.63977 L 784.31901,312.5102 L 776.13696,312.5102 C 776.21433,313.73525 776.58184,314.67016 777.23951,315.31492 C 777.90361,315.95324 778.82562,316.2724 780.00554,316.2724 C 780.68898,316.2724 781.34987,316.18858 781.98819,316.02094 C 782.63295,315.8533 783.27126,315.60184 783.90314,315.26656 L 783.90314,316.9494 C 783.26481,317.2202 782.61038,317.42652 781.93983,317.56837 C 781.26927,317.71022 780.58905,317.78114 779.89916,317.78114 C 778.17118,317.78114 776.80106,317.27823 775.78879,316.2724 C 774.78295,315.26657 774.28004,313.90612 774.28004,312.19104 C 774.28004,310.41795 774.75716,309.01236 775.71141,307.97429 C 776.67211,306.92978 777.96486,306.40752 779.58967,306.40751 C 781.04683,306.40752 782.19773,306.8782 783.04238,307.81954 C 783.89346,308.75446 784.319,310.02787 784.31901,311.63977 M 782.53946,311.11751 C 782.52656,310.14392 782.25254,309.36698 781.71739,308.78669 C 781.18868,308.20641 780.48588,307.91627 779.60901,307.91626 C 778.61607,307.91627 777.81979,308.19674 777.22016,308.75767 C 776.62698,309.31863 776.28525,310.10846 776.19499,311.12718 L 782.53946,311.11751 M 788.96131,303.59311 L 788.96131,306.66864 L 792.62679,306.66864 L 792.62679,308.05166 L 788.96131,308.05166 L 788.96131,313.9319 C 788.9613,314.81523 789.08059,315.38262 789.31915,315.63408 C 789.56416,315.88554 790.0574,316.01127 790.79888,316.01127 L 792.62679,316.01127 L 792.62679,317.50067 L 790.79888,317.50067 C 789.42553,317.50067 788.47773,317.24599 787.95548,316.73663 C 787.43322,316.22082 787.17209,315.28591 787.17209,313.9319 L 787.17209,308.05166 L 785.86644,308.05166 L 785.86644,306.66864 L 787.17209,306.66864 L 787.17209,303.59311 L 788.96131,303.59311" id="text3252"/>
      <path style="font-size:88.03175354px;font-style:normal;font-weight:normal;fill:#000000;fill-opacity:1;stroke:none;stroke-width:1px;stroke-linecap:butt;stroke-linejoin:miter;stroke-opacity:1;font-family:Bitstream Vera Sans" d="M 1393.3037,349.40195 L 1393.3037,363.57431 L 1396.2822,363.57431 C 1398.7969,363.57431 1400.6361,363.00465 1401.7998,361.86533 C 1402.9717,360.72601 1403.5576,358.92751 1403.5576,356.46982 C 1403.5576,354.02842 1402.9717,352.24213 1401.7998,351.11093 C 1400.6361,349.97162 1398.7969,349.40196 1396.2822,349.40195 L 1393.3037,349.40195 M 1390.8379,347.37558 L 1395.9038,347.37558 C 1399.4357,347.3756 1402.0277,348.11209 1403.6797,349.58505 C 1405.3317,351.04991 1406.1577,353.34483 1406.1577,356.46982 C 1406.1577,359.6111 1405.3276,361.91823 1403.6675,363.3912 C 1402.0073,364.86419 1399.4194,365.60068 1395.9038,365.60068 L 1390.8379,365.60068 L 1390.8379,347.37558 M 1421.0015,347.97372 L 1421.0015,350.37851 C 1420.0656,349.93093 1419.1826,349.59728 1418.3525,349.37753 C 1417.5225,349.15782 1416.7209,349.04796 1415.9478,349.04794 C 1414.605,349.04796 1413.5674,349.30838 1412.835,349.82919 C 1412.1107,350.35004 1411.7485,351.0906 1411.7485,352.05087 C 1411.7485,352.85655 1411.9886,353.4669 1412.4688,353.88193 C 1412.957,354.28884 1413.8766,354.61843 1415.2275,354.8707 L 1416.7168,355.17587 C 1418.556,355.52582 1419.911,356.14431 1420.7817,357.03134 C 1421.6606,357.91026 1422.1001,359.09027 1422.1001,360.57138 C 1422.1001,362.33733 1421.506,363.67604 1420.3179,364.58749 C 1419.1378,365.49895 1417.4044,365.95468 1415.1177,365.95468 C 1414.255,365.95468 1413.3354,365.85702 1412.3589,365.66171 C 1411.3905,365.4664 1410.3854,365.1775 1409.3438,364.79501 L 1409.3438,362.25595 C 1410.3447,362.81748 1411.3254,363.24065 1412.2856,363.52548 C 1413.2459,363.81031 1414.1899,363.95273 1415.1177,363.95273 C 1416.5255,363.95273 1417.612,363.67604 1418.377,363.12265 C 1419.1419,362.56927 1419.5244,361.77988 1419.5244,360.75449 C 1419.5244,359.85931 1419.2477,359.15944 1418.6943,358.65488 C 1418.1491,358.15033 1417.2498,357.77191 1415.9966,357.51962 L 1414.4951,357.22665 C 1412.6559,356.86045 1411.3254,356.28672 1410.5034,355.50546 C 1409.6815,354.72422 1409.2705,353.6378 1409.2705,352.24619 C 1409.2705,350.63487 1409.8361,349.36534 1410.9673,348.43759 C 1412.1066,347.50988 1413.6732,347.04601 1415.667,347.04599 C 1416.5215,347.04601 1417.3922,347.12332 1418.2793,347.27792 C 1419.1663,347.43256 1420.0737,347.6645 1421.0015,347.97372 M 1425.9941,347.37558 L 1428.46,347.37558 L 1428.46,363.52548 L 1437.3345,363.52548 L 1437.3345,365.60068 L 1425.9941,365.60068 L 1425.9941,347.37558 M 1438.2378,357.75156 L 1444.8174,357.75156 L 1444.8174,359.75351 L 1438.2378,359.75351 L 1438.2378,357.75156 M 1448.748,347.37558 L 1458.4282,347.37558 L 1458.4282,349.45078 L 1451.0063,349.45078 L 1451.0063,353.91855 C 1451.3644,353.79649 1451.7225,353.70697 1452.0806,353.64999 C 1452.4386,353.5849 1452.7967,353.55235 1453.1548,353.55234 C 1455.1893,353.55235 1456.8006,354.1098 1457.9888,355.2247 C 1459.1769,356.33962 1459.771,357.84922 1459.771,359.75351 C 1459.771,361.71478 1459.1606,363.24065 1457.9399,364.33115 C 1456.7192,365.4135 1454.998,365.95468 1452.7764,365.95468 C 1452.0114,365.95468 1451.2301,365.88958 1450.4326,365.75937 C 1449.6432,365.62916 1448.8254,365.43385 1447.979,365.17343 L 1447.979,362.6954 C 1448.7114,363.09417 1449.4683,363.39121 1450.2495,363.58652 C 1451.0308,363.78183 1451.8568,363.87949 1452.7275,363.87949 C 1454.1354,363.87949 1455.2503,363.50921 1456.0723,362.76865 C 1456.8942,362.02809 1457.3052,361.02305 1457.3052,359.75351 C 1457.3052,358.48399 1456.8942,357.47894 1456.0723,356.73837 C 1455.2503,355.99782 1454.1354,355.62754 1452.7275,355.62753 C 1452.0684,355.62754 1451.4092,355.70079 1450.75,355.84726 C 1450.099,355.99375 1449.4316,356.22162 1448.748,356.53085 L 1448.748,347.37558 M 1469.915,348.99911 C 1468.6455,348.99913 1467.6893,349.62576 1467.0464,350.879 C 1466.4116,352.12413 1466.0942,353.99994 1466.0942,356.50644 C 1466.0942,359.00482 1466.4116,360.88063 1467.0464,362.13388 C 1467.6893,363.379 1468.6455,364.00156 1469.915,364.00156 C 1471.1927,364.00156 1472.1489,363.379 1472.7837,362.13388 C 1473.4266,360.88063 1473.748,359.00482 1473.748,356.50644 C 1473.748,353.99994 1473.4266,352.12413 1472.7837,350.879 C 1472.1489,349.62576 1471.1927,348.99913 1469.915,348.99911 M 1469.915,347.04599 C 1471.9577,347.04601 1473.5161,347.85574 1474.5903,349.47519 C 1475.6727,351.08653 1476.2139,353.43028 1476.2139,356.50644 C 1476.2139,359.57448 1475.6727,361.91823 1474.5903,363.53769 C 1473.5161,365.14902 1471.9577,365.95468 1469.915,365.95468 C 1467.8724,365.95468 1466.3099,365.14902 1465.2275,363.53769 C 1464.1533,361.91823 1463.6162,359.57448 1463.6162,356.50644 C 1463.6162,353.43028 1464.1533,351.08653 1465.2275,349.47519 C 1466.3099,347.85574 1467.8724,347.04601 1469.915,347.04599 M 1485.833,348.99911 C 1484.5635,348.99913 1483.6073,349.62576 1482.9644,350.879 C 1482.3296,352.12413 1482.0122,353.99994 1482.0122,356.50644 C 1482.0122,359.00482 1482.3296,360.88063 1482.9644,362.13388 C 1483.6073,363.379 1484.5635,364.00156 1485.833,364.00156 C 1487.1107,364.00156 1488.0669,363.379 1488.7017,362.13388 C 1489.3446,360.88063 1489.666,359.00482 1489.666,356.50644 C 1489.666,353.99994 1489.3446,352.12413 1488.7017,350.879 C 1488.0669,349.62576 1487.1107,348.99913 1485.833,348.99911 M 1485.833,347.04599 C 1487.8756,347.04601 1489.4341,347.85574 1490.5083,349.47519 C 1491.5906,351.08653 1492.1318,353.43028 1492.1318,356.50644 C 1492.1318,359.57448 1491.5906,361.91823 1490.5083,363.53769 C 1489.4341,365.14902 1487.8756,365.95468 1485.833,365.95468 C 1483.7904,365.95468 1482.2279,365.14902 1481.1455,363.53769 C 1480.0713,361.91823 1479.5342,359.57448 1479.5342,356.50644 C 1479.5342,353.43028 1480.0713,351.08653 1481.1455,349.47519 C 1482.2279,347.85574 1483.7904,347.04601 1485.833,347.04599 M 1498.7236,356.89706 L 1498.7236,363.57431 L 1502.6787,363.57431 C 1504.0052,363.57431 1504.9858,363.30169 1505.6206,362.75644 C 1506.2635,362.20306 1506.5849,361.36077 1506.585,360.22958 C 1506.5849,359.09027 1506.2635,358.25205 1505.6206,357.71494 C 1504.9858,357.1697 1504.0052,356.89707 1502.6787,356.89706 L 1498.7236,356.89706 M 1498.7236,349.40195 L 1498.7236,354.89511 L 1502.3735,354.89511 C 1503.578,354.89512 1504.4731,354.67133 1505.0591,354.22372 C 1505.6531,353.76801 1505.9502,353.07628 1505.9502,352.14853 C 1505.9502,351.22895 1505.6531,350.54128 1505.0591,350.08554 C 1504.4731,349.62983 1503.578,349.40196 1502.3735,349.40195 L 1498.7236,349.40195 M 1496.2578,347.37558 L 1502.5566,347.37558 C 1504.4365,347.3756 1505.8851,347.76622 1506.9023,348.54745 C 1507.9196,349.32872 1508.4282,350.43956 1508.4282,351.87997 C 1508.4282,352.9949 1508.1678,353.88194 1507.647,354.54111 C 1507.1261,355.2003 1506.3612,355.61127 1505.3521,355.77402 C 1506.5646,356.03444 1507.5045,356.57969 1508.1719,357.40976 C 1508.8473,358.23171 1509.185,359.26117 1509.1851,360.49814 C 1509.185,362.12575 1508.6317,363.38307 1507.5249,364.27011 C 1506.4181,365.15716 1504.8434,365.60068 1502.8008,365.60068 L 1496.2578,365.60068 L 1496.2578,347.37558" id="text3256"/>
      <g transform="translate(0,-2)" id="g3268">
        <path style="font-size:40px;font-style:normal;font-weight:normal;fill:#000000;fill-opacity:1;stroke:none;stroke-width:1px;stroke-linecap:butt;stroke-linejoin:miter;stroke-opacity:1;font-family:Bitstream Vera Sans" d="M 222.79704,325.97147 L 217.44548,340.48318 L 228.16814,340.48318 L 222.79704,325.97147 M 220.57048,322.08475 L 225.04314,322.08475 L 236.15642,351.2449 L 232.05486,351.2449 L 229.39861,343.76443 L 216.25407,343.76443 L 213.59782,351.2449 L 209.43767,351.2449 L 220.57048,322.08475 M 244.34001,325.32693 L 244.34001,348.00272 L 249.10564,348.00272 C 253.12906,348.00272 256.07176,347.09126 257.93376,345.26834 C 259.80874,343.44543 260.74624,340.56783 260.74626,336.63553 C 260.74624,332.7293 259.80874,329.87123 257.93376,328.06131 C 256.07176,326.23842 253.12906,325.32696 249.10564,325.32693 L 244.34001,325.32693 M 240.3947,322.08475 L 248.50017,322.08475 C 254.15119,322.08478 258.29832,323.26316 260.94157,325.6199 C 263.58478,327.96368 264.90639,331.63555 264.90642,336.63553 C 264.90639,341.66158 263.57827,345.35298 260.92204,347.70975 C 258.26577,350.06652 254.12515,351.2449 248.50017,351.2449 L 240.3947,351.2449 L 240.3947,322.08475 M 288.65642,323.04178 L 288.65642,326.88943 C 287.159,326.17331 285.74624,325.63946 284.41814,325.28787 C 283.09,324.93634 281.80744,324.76056 280.57048,324.76053 C 278.42203,324.76056 276.76188,325.17722 275.59001,326.01053 C 274.43115,326.84389 273.85172,328.02878 273.85173,329.56522 C 273.85172,330.8543 274.23584,331.83086 275.00407,332.4949 C 275.78532,333.14596 277.25667,333.67331 279.41814,334.07693 L 281.80095,334.56522 C 284.74364,335.12513 286.91161,336.11471 288.30486,337.53397 C 289.71108,338.94023 290.41421,340.82825 290.41423,343.19803 C 290.41421,346.02355 289.46369,348.16548 287.56267,349.62381 C 285.67463,351.08214 282.90119,351.81131 279.24236,351.81131 C 277.86214,351.81131 276.39078,351.65506 274.82829,351.34256 C 273.27881,351.03006 271.67074,350.56782 270.00407,349.95584 L 270.00407,345.89334 C 271.60563,346.79178 273.17464,347.46887 274.71111,347.92459 C 276.24755,348.38032 277.75797,348.60819 279.24236,348.60818 C 281.49495,348.60819 283.23322,348.16548 284.4572,347.28006 C 285.68114,346.39465 286.29312,345.13163 286.29314,343.491 C 286.29312,342.05871 285.85041,340.93892 284.96501,340.13162 C 284.0926,339.32434 282.6538,338.71887 280.64861,338.31522 L 278.24626,337.84647 C 275.30355,337.26054 273.17464,336.34257 271.85954,335.09256 C 270.54444,333.84258 269.88688,332.1043 269.88689,329.87772 C 269.88688,327.29962 270.79183,325.26837 272.60173,323.78397 C 274.42464,322.29962 276.93115,321.55743 280.12126,321.5574 C 281.48843,321.55743 282.88166,321.68113 284.30095,321.9285 C 285.7202,322.17592 287.17202,322.54702 288.65642,323.04178 M 296.6447,322.08475 L 300.59001,322.08475 L 300.59001,347.92459 L 314.78923,347.92459 L 314.78923,351.2449 L 296.6447,351.2449 L 296.6447,322.08475" id="text3260"/>
        <path style="font-size:40px;font-style:normal;font-weight:normal;fill:#000000;fill-opacity:1;stroke:none;stroke-width:1px;stroke-linecap:butt;stroke-linejoin:miter;stroke-opacity:1;font-family:Bitstream Vera Sans" d="M 167.46501,375.57303 C 168.31135,375.8595 169.13166,376.47148 169.92595,377.40897 C 170.73322,378.34648 171.54051,379.63554 172.34782,381.27615 L 176.35173,389.2449 L 172.11345,389.2449 L 168.38298,381.76443 C 167.41942,379.81132 166.48192,378.51575 165.57048,377.87772 C 164.67203,377.23971 163.44156,376.9207 161.87907,376.92068 L 157.5822,376.92068 L 157.5822,389.2449 L 153.63689,389.2449 L 153.63689,360.08475 L 162.54314,360.08475 C 165.87645,360.08478 168.36343,360.78139 170.00407,362.17459 C 171.64468,363.56785 172.46499,365.67071 172.46501,368.48318 C 172.46499,370.31914 172.0353,371.84258 171.17595,373.0535 C 170.32957,374.26445 169.0926,375.10429 167.46501,375.57303 M 157.5822,363.32693 L 157.5822,373.6785 L 162.54314,373.6785 C 164.44416,373.67851 165.87645,373.24232 166.84001,372.3699 C 167.81656,371.4845 168.30484,370.18893 168.30486,368.48318 C 168.30484,366.77748 167.81656,365.49493 166.84001,364.63553 C 165.87645,363.76316 164.44416,363.32696 162.54314,363.32693 L 157.5822,363.32693 M 193.28532,362.76053 C 190.42073,362.76056 188.14208,363.82826 186.44939,365.96365 C 184.76969,368.09909 183.92985,371.00924 183.92986,374.69412 C 183.92985,378.36601 184.76969,381.26965 186.44939,383.40506 C 188.14208,385.54048 190.42073,386.60819 193.28532,386.60818 C 196.14989,386.60819 198.41551,385.54048 200.0822,383.40506 C 201.76186,381.26965 202.60171,378.36601 202.60173,374.69412 C 202.60171,371.00924 201.76186,368.09909 200.0822,365.96365 C 198.41551,363.82826 196.14989,362.76056 193.28532,362.76053 M 193.28532,359.5574 C 197.37385,359.55743 200.64207,360.93113 203.09001,363.6785 C 205.5379,366.4129 206.76186,370.08477 206.76189,374.69412 C 206.76186,379.29049 205.5379,382.96236 203.09001,385.70975 C 200.64207,388.44412 197.37385,389.81131 193.28532,389.81131 C 189.18375,389.81131 185.9025,388.44412 183.44157,385.70975 C 180.99365,382.97538 179.7697,379.30351 179.7697,374.69412 C 179.7697,370.08477 180.99365,366.4129 183.44157,363.6785 C 185.9025,360.93113 189.18375,359.55743 193.28532,359.5574 M 212.48454,360.08475 L 216.44939,360.08475 L 216.44939,377.79959 C 216.44938,380.9246 217.01578,383.1772 218.14861,384.5574 C 219.28141,385.92459 221.11734,386.60819 223.65642,386.60818 C 226.18244,386.60819 228.01187,385.92459 229.1447,384.5574 C 230.27749,383.1772 230.8439,380.9246 230.84392,377.79959 L 230.84392,360.08475 L 234.80876,360.08475 L 234.80876,378.28787 C 234.80874,382.08996 233.86473,384.96105 231.97673,386.90115 C 230.10171,388.84126 227.32827,389.81131 223.65642,389.81131 C 219.97151,389.81131 217.18506,388.84126 215.29704,386.90115 C 213.42204,384.96105 212.48454,382.08996 212.48454,378.28787 L 212.48454,360.08475 M 238.18767,360.08475 L 262.85564,360.08475 L 262.85564,363.40506 L 252.50407,363.40506 L 252.50407,389.2449 L 248.53923,389.2449 L 248.53923,363.40506 L 238.18767,363.40506 L 238.18767,360.08475 M 266.76189,360.08475 L 285.19939,360.08475 L 285.19939,363.40506 L 270.7072,363.40506 L 270.7072,372.03787 L 284.59392,372.03787 L 284.59392,375.35818 L 270.7072,375.35818 L 270.7072,385.92459 L 285.55095,385.92459 L 285.55095,389.2449 L 266.76189,389.2449 L 266.76189,360.08475 M 305.82439,375.57303 C 306.67072,375.8595 307.49103,376.47148 308.28532,377.40897 C 309.09259,378.34648 309.89989,379.63554 310.7072,381.27615 L 314.71111,389.2449 L 310.47282,389.2449 L 306.74236,381.76443 C 305.7788,379.81132 304.8413,378.51575 303.92986,377.87772 C 303.0314,377.23971 301.80094,376.9207 300.23845,376.92068 L 295.94157,376.92068 L 295.94157,389.2449 L 291.99626,389.2449 L 291.99626,360.08475 L 300.90251,360.08475 C 304.23583,360.08478 306.72281,360.78139 308.36345,362.17459 C 310.00405,363.56785 310.82436,365.67071 310.82439,368.48318 C 310.82436,370.31914 310.39468,371.84258 309.53532,373.0535 C 308.68895,374.26445 307.45197,375.10429 305.82439,375.57303 M 295.94157,363.32693 L 295.94157,373.6785 L 300.90251,373.6785 C 302.80354,373.67851 304.23583,373.24232 305.19939,372.3699 C 306.17593,371.4845 306.66421,370.18893 306.66423,368.48318 C 306.66421,366.77748 306.17593,365.49493 305.19939,364.63553 C 304.23583,363.76316 302.80354,363.32696 300.90251,363.32693 L 295.94157,363.32693" id="text3264"/>
      </g>
    </g>
  </g>
  <metadata>
    <rdf:RDF>
      <cc:Work>
        <dc:format>image/svg+xml</dc:format>
        <dc:type rdf:resource="http://purl.org/dc/dcmitype/StillImage"/>
        <cc:license rdf:resource="http://creativecommons.org/licenses/publicdomain/"/>
        <dc:publisher>
          <cc:Agent rdf:about="http://openclipart.org/">
            <dc:title>Open Clip Art Library</dc:title>
          </cc:Agent>
        </dc:publisher>
        <dc:title>Router adsl-500b</dc:title>
        <dc:date>2008-05-09T19:32:29</dc:date>
        <dc:description>The simple router d-link 500b</dc:description>
        <dc:source>http://openclipart.org/detail/16701/router-adsl-500b-by-vhpop</dc:source>
        <dc:creator>
          <cc:Agent>
            <dc:title>vhpop</dc:title>
          </cc:Agent>
        </dc:creator>
        <dc:subject>
          <rdf:Bag>
            <rdf:li>adsl</rdf:li>
            <rdf:li>adsl</rdf:li>
            <rdf:li>clip art</rdf:li>
            <rdf:li>clipart</rdf:li>
            <rdf:li>colour</rdf:li>
            <rdf:li>colour</rdf:li>
            <rdf:li>computer</rdf:li>
            <rdf:li>computer</rdf:li>
            <rdf:li>dsl</rdf:li>
            <rdf:li>dsl</rdf:li>
            <rdf:li>image</rdf:li>
            <rdf:li>internet</rdf:li>
            <rdf:li>internet</rdf:li>
            <rdf:li>link</rdf:li>
            <rdf:li>link</rdf:li>
            <rdf:li>media</rdf:li>
            <rdf:li>modem</rdf:li>
            <rdf:li>modem</rdf:li>
            <rdf:li>net</rdf:li>
            <rdf:li>net</rdf:li>
            <rdf:li>public domain</rdf:li>
            <rdf:li>svg</rdf:li>
          </rdf:Bag>
        </dc:subject>
      </cc:Work>
      <cc:License rdf:about="http://creativecommons.org/licenses/publicdomain/">
        <cc:permits rdf:resource="http://creativecommons.org/ns#Reproduction"/>
        <cc:permits rdf:resource="http://creativecommons.org/ns#Distribution"/>
        <cc:permits rdf:resource="http://creativecommons.org/ns#DerivativeWorks"/>
      </cc:License>
    </rdf:RDF>
  </metadata>
</svg>
