<?xml version="1.0" encoding="UTF-8" standalone="no"?>
<!-- Generator: Adobe Illustrator 14.0.0, SVG Export Plug-In . SVG Version: 6.00 Build 43363)  -->

<svg
   xmlns:dc="http://purl.org/dc/elements/1.1/"
   xmlns:cc="http://creativecommons.org/ns#"
   xmlns:rdf="http://www.w3.org/1999/02/22-rdf-syntax-ns#"
   xmlns:svg="http://www.w3.org/2000/svg"
   xmlns="http://www.w3.org/2000/svg"
   xmlns:sodipodi="http://sodipodi.sourceforge.net/DTD/sodipodi-0.dtd"
   xmlns:inkscape="http://www.inkscape.org/namespaces/inkscape"
   version="1.1"
   id="Layer_1"
   x="0px"
   y="0px"
   width="792"
   height="612"
   viewBox="0 0 792 612"
   enable-background="new 0 0 612 792"
   xml:space="preserve"
   inkscape:version="0.48.4 r9939"
   sodipodi:docname="samba-3.svg"><metadata
   id="metadata117"><rdf:RDF><cc:Work
       rdf:about=""><dc:format>image/svg+xml</dc:format><dc:type
         rdf:resource="http://purl.org/dc/dcmitype/StillImage" /></cc:Work></rdf:RDF></metadata><defs
   id="defs115" /><sodipodi:namedview
   pagecolor="#ffffff"
   bordercolor="#666666"
   borderopacity="1"
   objecttolerance="10"
   gridtolerance="10"
   guidetolerance="10"
   inkscape:pageopacity="0"
   inkscape:pageshadow="2"
   inkscape:window-width="1600"
   inkscape:window-height="838"
   id="namedview113"
   showgrid="false"
   inkscape:zoom="0.5959596"
   inkscape:cx="511.40162"
   inkscape:cy="398.84"
   inkscape:window-x="-8"
   inkscape:window-y="-8"
   inkscape:window-maximized="1"
   inkscape:current-layer="g3" />
<g
   id="g3"
   transform="translate(0,-180)">
	
	
	
	
		
	
		
	
	
	
	
	
	
	
	
	
	<path
   stroke-miterlimit="2.6131"
   d="m 117.19236,445.67859 c -7.55776,-4.80949 -16.6369,-7.2265 -27.225134,-7.2265 -2.809633,0 -5.472022,0.34353 -7.987192,1.0306 -3.594848,0.98153 -5.287988,2.5397 -5.054873,4.66226 0.220848,1.96305 3.251316,4.40461 9.103672,7.33693 8.980987,4.50276 14.391657,7.34918 16.219767,8.55155 5.95051,3.91385 9.16502,8.07308 9.61897,12.44088 0.7975,7.48416 -4.57638,13.54509 -16.146138,18.146 -10.35513,4.14695 -22.869604,6.22044 -37.518913,6.22044 -10.195631,0 -19.360651,-0.8343 -27.482795,-2.5029 -10.367396,-2.13483 -15.679919,-4.55183 -15.97437,-7.25104 -0.06134,-0.40488 0,-0.80976 0.171766,-1.21464 m 0,0.0127 5.153024,-16.15841 m 0,0 c 8.477943,6.25724 17.090863,9.39812 25.851003,9.39812 4.232831,0 6.208155,-1.41094 5.925972,-4.23283 -0.404881,-3.50896 -2.834168,-6.78481 -7.300114,-9.83983 -2.343404,-1.49683 -6.502632,-4.25738 -12.453138,-8.28164 -4.981258,-3.45988 -7.459626,-7.59457 -7.459626,-12.4286 0,-8.68653 6.944314,-15.07873 20.857478,-19.16434 9.680331,-2.80962 20.918826,-4.23283 33.740031,-4.23283 13.680061,0 25.66697,1.93851 35.98529,5.81555 m 0,0 1.97532,18.91896 m 94.22671,2.09801 c -2.56424,6.78481 -5.7174,12.67398 -9.4472,17.66751 -5.20211,6.94431 -10.5637,10.42874 -16.06026,10.42874 -4.01199,0 -6.01186,-2.76055 -6.01186,-8.26937 0,-4.47823 1.39867,-9.56991 4.20831,-15.26278 4.29418,-8.68652 10.441,-13.02978 18.45272,-13.02978 m 0.0246,0.0127 h 12.10961 l -3.26359,8.45341 m -22.50153,-26.62395 c -15.16461,0 -28.53793,3.52123 -40.09542,10.55143 -13.7414,8.36753 -20.6121,19.69192 -20.6121,33.99768 0,1.55818 0.0859,3.16544 0.25765,4.84631 0.90791,8.82147 4.91991,15.48361 12.01146,19.9741 6.13455,3.92611 13.85181,5.87689 23.1886,5.87689 17.05405,0 30.66049,-6.67439 40.7825,-20.02317 m 0.0127,0.0246 -5.92597,18.94349 h 48.76969 l 22.41565,-72.24047 m 0,0 c -19.40973,-1.30053 -46.34041,-1.95079 -80.80432,-1.95079 m 532.02511,26.62395 c -2.57651,6.78481 -5.71739,12.67398 -9.4472,17.66751 -5.21438,6.94431 -10.5637,10.42874 -16.06026,10.42874 -4.01199,0 -6.01186,-2.76055 -6.01186,-8.26937 0,-4.47823 1.39868,-9.5699 4.20831,-15.26277 4.29418,-8.68653 10.44099,-13.02979 18.46499,-13.02979 m 0.0127,0.0127 h 12.10961 l -3.26358,8.45341 m -22.50154,-26.62395 c -15.16461,0 -28.53794,3.52123 -40.09543,10.55143 -13.7414,8.36752 -20.6121,19.69191 -20.6121,33.99768 0,1.55817 0.0859,3.16543 0.25765,4.8463 0.90791,8.82148 4.91991,15.48361 12.02372,19.9741 6.12229,3.92612 13.85182,5.87689 23.17634,5.87689 17.06633,0 30.66049,-6.67438 40.79477,-20.02317 m 0,0.0246 -5.92598,18.94349 h 48.78195 l 22.40339,-72.24047 m 0,0 c -19.40972,-1.30053 -46.3404,-1.95079 -80.80431,-1.95079 m -101.62499,-54.02086 -34.03448,-77.08677 -65.77467,79.04983 23.22542,-0.45395 -36.15705,126.70301 h 49.97206 l 2.66239,-6.83388 m 0,0 c 5.77875,5.70514 15.65537,8.56384 29.62988,8.56384 15.10328,0 28.39071,-3.68073 39.83779,-11.0422 13.22608,-8.52702 19.83913,-19.98636 19.83913,-34.37802 0,-1.60726 -0.0859,-3.25132 -0.25765,-4.91991 -1.77902,-17.04178 -16.14614,-25.55655 -43.11363,-25.55655 -7.20197,0 -15.87622,1.22691 -26.01049,3.68073 m 0,-0.0246 14.19535,-56.56057 25.98595,-1.15329 m -23.60575,90.15336 c -5.49655,14.5757 -12.48995,21.85128 -20.95563,21.85128 -3.04273,0 -5.61925,-0.42942 -7.72953,-1.28825 -1.26372,-0.62573 -2.52743,-1.25146 -3.77889,-1.88944 m 0,0 1.87717,-5.22664 m 0.0127,0 c 4.12241,-11.54523 8.07306,-19.22569 11.85194,-23.05365 3.20224,-3.26358 7.79088,-4.88311 13.7414,-4.88311 m -0.0127,0 h 10.39194 l -5.41068,14.48981 m -94.6684,-16.84547 c -1.37413,-12.99298 -11.16488,-19.48333 -29.37223,-19.48333 -22.84507,0 -39.89913,2.30659 -51.17444,6.91977 -6.4658,-4.61318 -16.8332,-6.91977 -31.07763,-6.91977 -23.42171,0 -49.02733,0.66253 -76.85366,1.98759 m 0.0127,0 -22.48927,72.41224 h 49.97206 l 2.66239,-7.17742 m -0.0127,0 c 8.41661,-22.48927 15.87622,-36.19385 22.41566,-41.10149 3.77888,-2.88324 8.87055,-4.331 15.2873,-4.331 -2.1839,5.36159 -3.81569,9.86436 -4.89537,13.49602 m -0.0127,0 -12.28137,39.11389 h 50.6714 l 2.74827,-7.17742 m 0,0 c 5.2021,-13.3856 8.84602,-22.24389 10.90724,-26.56261 3.49669,-7.20197 6.89523,-12.04826 10.22016,-14.53888 3.77889,-2.88324 8.88283,-4.331 15.2873,-4.331 -2.18389,5.36159 -3.80342,9.86436 -4.89538,13.49602 m -0.0127,0 -33.49465,105.80874 -25.60562,-0.3558 34.03449,77.08677 62.27797,-75.76171 -20.26856,-0.26992 33.88726,-106.5449 m 0,0 c 1.82811,-5.82782 2.51517,-11.07899 2.06121,-15.76579"
   id="path33"
   inkscape:connector-curvature="0"
   style="fill:none;stroke:#f15f42;stroke-width:6.92100143;stroke-miterlimit:2.61310005" />
	<path
   clip-rule="evenodd"
   stroke-miterlimit="2.6131"
   d="m 114.39501,440.93045 c -7.55777,-4.8095 -16.624639,-7.2265 -27.21287,-7.2265 -2.809633,0 -5.472022,0.34353 -7.987192,1.03059 -3.607115,0.98153 -5.300255,2.53971 -5.06714,4.66226 0.233114,1.96306 3.263583,4.40461 9.103671,7.33693 8.980987,4.50276 14.391661,7.34919 16.219753,8.55156 5.950518,3.91385 9.165018,8.06081 9.618988,12.44087 0.79749,7.48416 -4.57638,13.5451 -16.146142,18.14601 -10.367396,4.14695 -22.869616,6.22044 -37.531193,6.22044 -10.18335,0 -19.348371,-0.8343 -27.470514,-2.50291 -10.367397,-2.13482 -15.692186,-4.55183 -15.97437,-7.26331 -0.06134,-0.3926 0,-0.79748 0.171766,-1.21463 l 5.153024,-16.14615 c 8.465676,6.25725 17.078583,9.39814 25.838723,9.39814 4.232844,0 6.195901,-1.42322 5.913704,-4.23285 -0.404868,-3.50895 -2.834155,-6.79708 -7.300114,-9.83982 -2.343391,-1.49682 -6.490352,-4.25737 -12.453138,-8.28164 -4.981258,-3.44762 -7.459613,-7.59458 -7.459613,-12.4286 0,-8.68653 6.956582,-15.07873 20.869745,-19.16434 9.680319,-2.82189 20.918827,-4.23284 33.740031,-4.23284 13.680049,0 25.679241,1.95079 35.985291,5.82783 l 1.98759,18.91896 0,0 z"
   id="path35"
   inkscape:connector-curvature="0"
   style="fill-rule:evenodd;stroke:#e8e742;stroke-width:6.92100143;stroke-miterlimit:2.61310005" />
	
		<path
   clip-rule="evenodd"
   stroke-miterlimit="2.6131"
   d="m 208.63399,443.01619 c -2.57651,6.78481 -5.72968,12.67398 -9.44721,17.66751 -5.21437,6.94431 -10.5637,10.42873 -16.06025,10.42873 -4.012,0 -6.01187,-2.76054 -6.01187,-8.28164 0,-4.47822 1.39868,-9.5699 4.20831,-15.26276 4.29418,-8.67426 10.441,-13.01752 18.45273,-13.01752 h 12.1096 l -3.25131,8.46568 0,0 z M 186.13245,416.4045 c -15.16461,0 -28.53793,3.52124 -40.09542,10.55143 -13.7414,8.36753 -20.6121,19.69192 -20.6121,33.99768 0,1.55818 0.0859,3.16544 0.25765,4.84631 0.92018,8.82148 4.91991,15.48361 12.02373,19.98637 6.12228,3.91384 13.85181,5.8769 23.1886,5.8769 17.06631,0 30.64821,-6.6744 40.79476,-20.02318 l -5.92597,18.94349 h 48.76969 l 22.41565,-72.24047 c -19.40973,-1.30053 -46.34041,-1.93853 -80.81659,-1.93853 l 0,0 z"
   id="path37"
   inkscape:connector-curvature="0"
   style="fill:#8d3d97;fill-rule:evenodd;stroke:#e8e742;stroke-width:6.92100143;stroke-miterlimit:2.61310005" />
	
		<path
   clip-rule="evenodd"
   stroke-miterlimit="2.6131"
   d="m 718.16983,443.01619 c -2.5765,6.78481 -5.72967,12.67398 -9.45947,17.66751 -5.20211,6.94431 -10.55143,10.42873 -16.04799,10.42873 -4.01199,0 -6.01186,-2.76054 -6.01186,-8.28164 0,-4.47822 1.39868,-9.5699 4.20831,-15.26276 4.29418,-8.67426 10.441,-13.01752 18.46499,-13.01752 h 12.1096 l -3.26358,8.46568 0,0 z M 695.66831,416.4045 c -15.16462,0 -28.53794,3.52124 -40.09543,10.55143 -13.7414,8.36753 -20.6121,19.69192 -20.6121,33.99768 0,1.55818 0.0859,3.16544 0.25765,4.84631 0.92018,8.82148 4.91991,15.48361 12.02372,19.98637 6.13455,3.91384 13.85182,5.8769 23.1886,5.8769 17.06633,0 30.6605,-6.6744 40.7825,-20.02318 l -5.92597,18.94349 h 48.78195 l 22.41566,-72.24047 C 757.0629,417.0425 730.13222,416.4045 695.66831,416.4045 l 0,0 z"
   id="path39"
   inkscape:connector-curvature="0"
   style="fill:#8d3d97;fill-rule:evenodd;stroke:#e8e742;stroke-width:6.92100143;stroke-miterlimit:2.61310005" />
	<path
   clip-rule="evenodd"
   stroke-miterlimit="2.6131"
   d="m 594.05559,362.37137 -34.04677,-77.08677 -65.76238,79.04983 23.22541,-0.45395 -36.15705,126.71529 h 49.97206 l 2.66239,-6.83389 c 5.77876,5.70514 15.65538,8.56384 29.61762,8.56384 15.11554,0 28.39071,-3.68073 39.85005,-11.05446 13.22609,-8.51476 19.83914,-19.9741 19.83914,-34.37803 0,-1.60726 -0.0859,-3.25131 -0.25765,-4.91991 -1.77903,-17.04179 -16.14614,-25.55655 -43.10137,-25.55655 -7.21423,0 -15.90075,1.22691 -26.02277,3.66846 l 14.19536,-56.56056 25.98596,-1.1533 0,0 z m -23.61802,90.1411 c -5.49656,14.5757 -12.48995,21.85128 -20.95563,21.85128 -3.04273,0 -5.61925,-0.42942 -7.74181,-1.28826 -1.26371,-0.62572 -2.51516,-1.26372 -3.76661,-1.88944 l 1.88944,-5.22663 c 4.11016,-11.53296 8.07307,-19.21342 11.85195,-23.05365 3.20224,-3.25132 7.79088,-4.88311 13.7414,-4.88311 h 10.39193 l -5.41067,14.48981 0,0 z"
   id="path41"
   inkscape:connector-curvature="0"
   style="fill-rule:evenodd;stroke:#e8e742;stroke-width:6.92100143;stroke-miterlimit:2.61310005" />
	<path
   clip-rule="evenodd"
   stroke-miterlimit="2.6131"
   d="m 475.76916,435.67927 c -1.37413,-12.99298 -11.17714,-19.49561 -29.37222,-19.49561 -22.84507,0 -39.88686,2.3066 -51.17444,6.91978 -6.46582,-4.61318 -16.8332,-6.91978 -31.07763,-6.91978 -23.42171,0 -49.0396,0.67481 -76.85366,1.99987 l -22.48927,72.41224 H 314.774 l 2.66239,-7.17742 c 8.41661,-22.48927 15.87622,-36.19385 22.40339,-41.1015 3.77888,-2.87096 8.87055,-4.33099 15.2873,-4.33099 -2.1839,5.37386 -3.80343,9.86435 -4.8831,13.49602 l -12.28138,39.11389 h 50.65913 l 2.74827,-7.17742 c 5.20211,-13.37333 8.84603,-22.23162 10.90725,-26.56262 3.49668,-7.20196 6.9075,-12.04825 10.22015,-14.53888 3.76663,-2.87096 8.87057,-4.33099 15.2873,-4.33099 -2.18389,5.37386 -3.81568,9.86435 -4.89537,13.49602 l -33.49465,105.80873 -25.60562,-0.34353 34.03449,77.08678 62.27797,-75.76172 -20.26856,-0.28218 33.88726,-106.5449 c 1.81584,-5.84009 2.50291,-11.10353 2.04894,-15.76579 l 0,0 z"
   id="path43"
   inkscape:connector-curvature="0"
   style="fill-rule:evenodd;stroke:#e8e742;stroke-width:6.92100143;stroke-miterlimit:2.61310005" />
	
	
	
	
	
	
	
	
	
	
		
	
		
	
	
	
	
	
	
	
	
	
		
	
		
	
	
	
	
	
	
	
	
	
	
	
	
	
</g>
</svg>