<?xml version="1.0" encoding="UTF-8" standalone="no"?>
<!-- Created with Inkscape (http://www.inkscape.org/) -->

<svg
   xmlns:dc="http://purl.org/dc/elements/1.1/"
   xmlns:cc="http://creativecommons.org/ns#"
   xmlns:rdf="http://www.w3.org/1999/02/22-rdf-syntax-ns#"
   xmlns:svg="http://www.w3.org/2000/svg"
   xmlns="http://www.w3.org/2000/svg"
   xmlns:xlink="http://www.w3.org/1999/xlink"
   xmlns:sodipodi="http://sodipodi.sourceforge.net/DTD/sodipodi-0.dtd"
   xmlns:inkscape="http://www.inkscape.org/namespaces/inkscape"
   width="426.26596"
   height="575.00964"
   id="svg2"
   sodipodi:version="0.32"
   inkscape:version="0.48.2 r9819"
   version="1.0"
   sodipodi:docname="server.svg"
   inkscape:output_extension="org.inkscape.output.svg.inkscape">
  <defs
     id="defs4">
    <linearGradient
       inkscape:collect="always"
       id="linearGradient3778">
      <stop
         style="stop-color:#4d4d4d;stop-opacity:1;"
         offset="0"
         id="stop3780" />
      <stop
         style="stop-color:#b4b4b4;stop-opacity:1"
         offset="1"
         id="stop3782" />
    </linearGradient>
    <linearGradient
       id="linearGradient3290">
      <stop
         style="stop-color:#585858;stop-opacity:1;"
         offset="0"
         id="stop3292" />
      <stop
         style="stop-color:#a1a1a1;stop-opacity:1;"
         offset="1"
         id="stop3294" />
    </linearGradient>
    <linearGradient
       id="linearGradient3279">
      <stop
         style="stop-color:#3b3b3b;stop-opacity:1;"
         offset="0"
         id="stop3281" />
      <stop
         style="stop-color:#2e2e2e;stop-opacity:1;"
         offset="1"
         id="stop3283" />
    </linearGradient>
    <inkscape:perspective
       sodipodi:type="inkscape:persp3d"
       inkscape:vp_x="0 : 526.18109 : 1"
       inkscape:vp_y="0 : 1000 : 0"
       inkscape:vp_z="744.09448 : 526.18109 : 1"
       inkscape:persp3d-origin="372.04724 : 350.78739 : 1"
       id="perspective10" />
    <inkscape:perspective
       id="perspective2447"
       inkscape:persp3d-origin="372.04724 : 350.78739 : 1"
       inkscape:vp_z="744.09448 : 526.18109 : 1"
       inkscape:vp_y="0 : 1000 : 0"
       inkscape:vp_x="0 : 526.18109 : 1"
       sodipodi:type="inkscape:persp3d" />
    <linearGradient
       inkscape:collect="always"
       xlink:href="#linearGradient3290"
       id="linearGradient3296"
       x1="368.20758"
       y1="472.90024"
       x2="485.96826"
       y2="473.40533"
       gradientUnits="userSpaceOnUse" />
    <inkscape:perspective
       id="perspective3346"
       inkscape:persp3d-origin="372.04724 : 350.78739 : 1"
       inkscape:vp_z="744.09448 : 526.18109 : 1"
       inkscape:vp_y="0 : 1000 : 0"
       inkscape:vp_x="0 : 526.18109 : 1"
       sodipodi:type="inkscape:persp3d" />
    <linearGradient
       inkscape:collect="always"
       xlink:href="#linearGradient3778"
       id="linearGradient3784"
       x1="322.57504"
       y1="363.72778"
       x2="482.15076"
       y2="372.65134"
       gradientUnits="userSpaceOnUse" />
    <linearGradient
       inkscape:collect="always"
       xlink:href="#linearGradient3290"
       id="linearGradient3792"
       x1="366.81842"
       y1="572.69196"
       x2="487.83414"
       y2="572.69196"
       gradientUnits="userSpaceOnUse" />
  </defs>
  <sodipodi:namedview
     id="base"
     pagecolor="#ffffff"
     bordercolor="#666666"
     borderopacity="1.0"
     gridtolerance="10000"
     guidetolerance="10"
     objecttolerance="10"
     inkscape:pageopacity="0.0"
     inkscape:pageshadow="2"
     inkscape:zoom="0.74499066"
     inkscape:cx="372.04725"
     inkscape:cy="526.18109"
     inkscape:document-units="px"
     inkscape:current-layer="layer2"
     showgrid="false"
     inkscape:window-width="1680"
     inkscape:window-height="1002"
     inkscape:window-x="0"
     inkscape:window-y="0"
     showguides="true"
     inkscape:guide-bbox="true"
     inkscape:object-paths="true"
     inkscape:object-nodes="true"
     inkscape:window-maximized="1"
     fit-margin-top="0"
     fit-margin-left="0"
     fit-margin-right="0"
     fit-margin-bottom="0" />
  <metadata
     id="metadata7">
    <rdf:RDF>
      <cc:Work
         rdf:about="">
        <dc:format>image/svg+xml</dc:format>
        <dc:type
           rdf:resource="http://purl.org/dc/dcmitype/StillImage" />
      </cc:Work>
    </rdf:RDF>
  </metadata>
  <g
     inkscape:groupmode="layer"
     id="layer2"
     style="display:inline"
     transform="translate(-320.63183,-12.372261)">
    <g
       id="g3352"
       transform="matrix(2.5494023,0,0,2.5494023,-496.78772,-910.0909)">
      <path
         sodipodi:nodetypes="cccscsc"
         id="path3298"
         d="m 323.13115,543.37234 c -3.83583,0.0251 -2.37952,0.88272 -1.34657,1.78273 l 41.01422,36.19781 c 7.17183,5.88224 9.87418,6.48044 30.6145,5.8122 22.51059,-0.72528 90.45236,-7.26525 90.45236,-7.26525 0,0 3.63263,1.08979 1.45305,-3.26936 -2.17957,-4.35915 -162.18756,-33.25813 -162.18756,-33.25813 z"
         style="fill:#6c6c6c;fill-opacity:1;fill-rule:evenodd;stroke:none;display:inline"
         inkscape:connector-curvature="0" />
      <path
         sodipodi:nodetypes="ccccc"
         id="path3277"
         d="m 324.17803,385.17258 0,81.82461 44.44643,23.01716 0.14352,-91.88643 -44.58995,-12.95534 z"
         style="fill:#595959;fill-opacity:1;fill-rule:evenodd;stroke:none"
         inkscape:connector-curvature="0" />
      <path
         style="fill:#101010;fill-opacity:1;fill-rule:evenodd;stroke:none"
         d="m 445.17897,399.7917 c 1.01579,0 22.6859,-1.18189 34.05523,-1.20663 5.80513,-0.0126 6.61895,0.58468 6.71476,1.94789 0.12349,1.75708 0.0217,3.51988 -6.76535,3.86372 -5.23971,0.26545 -14.3873,0.77034 -33.32496,1.7383 l -0.67968,-6.34328 z"
         id="path3275"
         sodipodi:nodetypes="cssscc"
         inkscape:connector-curvature="0" />
      <path
         sodipodi:nodetypes="cssscc"
         id="path3273"
         d="m 444.82454,427.79171 c 1.01579,0 22.6859,-1.18189 34.05523,-1.20663 5.80513,-0.0126 6.61895,0.58468 6.71476,1.94789 0.12349,1.75708 0.0217,3.51988 -6.76535,3.86372 -5.23971,0.26545 -14.3873,0.77034 -33.32496,1.7383 l -0.67968,-6.34328 z"
         style="fill:#101010;fill-opacity:1;fill-rule:evenodd;stroke:none"
         inkscape:connector-curvature="0" />
      <path
         style="fill:#101010;fill-opacity:1;fill-rule:evenodd;stroke:none"
         d="m 444.82454,455.61451 c 1.01579,0 22.6859,-1.18189 34.05523,-1.20663 5.80513,-0.0126 6.61895,0.58468 6.71476,1.94789 0.12349,1.75708 0.0217,3.51988 -6.76535,3.86372 -5.23971,0.26545 -14.3873,0.77034 -33.32496,1.7383 l -0.67968,-6.34328 z"
         id="path3271"
         sodipodi:nodetypes="cssscc"
         inkscape:connector-curvature="0" />
      <path
         sodipodi:nodetypes="cssscc"
         id="path3269"
         d="m 445.88783,484.90983 c 1.01579,0 21.62261,-1.59288 32.99194,-1.61587 5.80513,-0.0117 6.61895,0.54351 6.71476,1.81072 0.12349,1.63336 0.0217,3.27203 -6.76535,3.59166 -5.23971,0.24676 -14.3873,0.71609 -33.32496,1.61589 l 0.38361,-5.4024 z"
         style="fill:#101010;fill-opacity:1;fill-rule:evenodd;stroke:none"
         inkscape:connector-curvature="0" />
      <path
         sodipodi:nodetypes="cccsscsc"
         id="path3267"
         d="m 368.62943,564.65867 c 7.63204,-3.09033 9.14129,-1.32466 4.34072,5.44536 l 112.42997,-8.86576 c 0,0 -1.10822,2.58585 1.10822,2.58585 2.21644,0 1.84703,13.66804 -2.58585,13.66804 -4.43287,0 -100.64508,6.61598 -100.64508,6.61598 -6.16556,0.37935 -14.88342,-2.24092 -14.8834,-2.30214 9.4e-4,-2.89935 -3.69765,-15.6697 0.23542,-17.14733 z"
         style="fill:url(#linearGradient3792);fill-opacity:1;fill-rule:evenodd;stroke:none"
         inkscape:connector-curvature="0" />
      <path
         sodipodi:nodetypes="ccccc"
         id="rect2494"
         d="m 445.88308,396.69675 0,104.59375 -22.91433,-2.2905 0,-104.59375 22.91433,2.2905 z"
         style="fill:#88ff2c;fill-opacity:1;stroke:none"
         inkscape:connector-curvature="0" />
      <rect
         y="394.4111"
         x="372.97015"
         height="104.59961"
         width="50.009304"
         id="rect2492"
         style="opacity:0.76315792;fill:#000000;fill-opacity:1;stroke:none" />
      <path
         sodipodi:nodetypes="csccc"
         id="path2476"
         d="m 322.57505,363.72777 c 0,16.79702 -0.7635,21.37803 0.7635,22.14153 1.527,0.7635 45.42852,12.83599 45.42852,12.83599 l -0.28984,-25.91154 -45.90218,-9.06598 z"
         style="fill:#464646;fill-opacity:1;fill-rule:evenodd;stroke:none"
         inkscape:connector-curvature="0" />
      <path
         id="path2474"
         d="m 329.4506,365.39808 36.26629,6.8715 c 0,0 7.63501,2.29051 41.6108,2.29051 33.97578,0 77.11358,-1.90876 77.11358,-1.90876 0,0 8.39851,-0.7635 -11.07076,-3.43575 -19.46927,-2.67225 -41.22905,-7.25326 -56.49906,-7.25326 -15.27002,0 -124.45064,-1.14525 -87.42085,3.43576 z"
         style="fill:url(#linearGradient3784);fill-opacity:1;fill-rule:evenodd;stroke:none"
         inkscape:connector-curvature="0" />
      <path
         sodipodi:nodetypes="cscscccccccccccccccccccccccccccccc"
         id="path2478"
         d="m 368.38258,372.63819 c 0,0 13.82385,1.66357 33.29312,1.66357 19.46928,0 80.47507,-1.65043 80.47507,-1.65043 0,0 4.19925,-0.38175 4.581,5.72626 0.38175,6.10801 0,20.61452 0,20.61452 l -103.45436,2.89608 c -4.19925,-0.15373 -7.25326,-0.59746 -10.30726,-2.13258 l 0,4.58101 c 2.41775,1.73266 5.98076,2.31945 9.92551,2.2905 l 103.07261,-3.054 0,23.66852 -102.3091,3.054 c -3.84187,0.11173 -8.48478,-1.24606 -10.68902,-2.2905 l 0,5.72626 c 2.12414,0.88752 5.45419,1.36559 10.30727,1.14525 l 102.3091,-3.054 0,22.52327 -101.92736,4.19926 c -3.84922,0.63588 -7.44958,-0.10545 -9.92551,-1.90876 l 0,4.96276 c 1.24363,1.47781 3.84831,2.84772 9.16201,2.2905 l 103.07261,-4.19925 0,23.28677 -103.07261,5.34451 c -6.2038,0.65769 -6.63753,-1.00432 -9.92551,-2.2905 l 0.38175,5.72625 c 2.71436,1.44232 3.54732,1.72572 10.30726,1.14525 l 101.92736,-4.581 0,72.91433 -103.07261,8.39851 -9.54376,1.14525 0,-3.81751 c -2.66533,-0.0924 -4.88439,1.26585 -4.75738,6.2 l 0.16981,-200.5241 z"
         style="fill:url(#linearGradient3296);fill-opacity:1;fill-rule:evenodd;stroke:none"
         inkscape:connector-curvature="0" />
      <path
         style="fill:#464646;fill-opacity:1;fill-rule:evenodd;stroke:none"
         d="m 322.5791,390.5936 c 0,16.79702 -0.7635,19.37803 0.7635,20.14153 1.527,0.7635 44.99405,16.12524 44.99405,16.12524 l 0.0525,-22.90551 -45.81005,-13.36126 z"
         id="path2480"
         sodipodi:nodetypes="csccc"
         inkscape:connector-curvature="0" />
      <path
         sodipodi:nodetypes="csccc"
         id="path2482"
         d="m 322.12074,416.60214 c 0,16.79702 -0.7635,19.37803 0.7635,20.14153 1.527,0.7635 45.4283,18.59776 45.4283,18.59776 l 0.0191,-22.61814 -46.21095,-16.12115 z"
         style="fill:#464646;fill-opacity:1;fill-rule:evenodd;stroke:none"
         inkscape:connector-curvature="0" />
      <path
         style="fill:#464646;fill-opacity:1;fill-rule:evenodd;stroke:none"
         d="m 322.09715,440.45971 c 0,16.79702 -0.7635,19.37803 0.7635,20.14153 1.527,0.7635 45.4283,22.59776 45.4283,22.59776 l 0.0193,-22.76154 -46.21107,-19.97775 z"
         id="path2484"
         sodipodi:nodetypes="csccc"
         inkscape:connector-curvature="0" />
      <path
         sodipodi:nodetypes="csccc"
         id="path2486"
         d="m 322.42644,465.5602 c 0,16.79702 -0.7635,77.41155 0.7635,78.17505 1.527,0.7635 45.20407,38.07075 45.20407,38.07075 l 0.23045,-91.79165 -46.19802,-24.45415 z"
         style="fill:#464646;fill-opacity:1;fill-rule:evenodd;stroke:none"
         inkscape:connector-curvature="0" />
      <path
         sodipodi:nodetypes="ccccc"
         id="path3288"
         d="m 372.97015,568.37578 c 38.56259,-1.86659 78.02588,-2.60731 113.35105,-8.52067 l 0.16077,3.69765 c -41.33853,5.70165 -76.54653,5.83009 -113.51182,7.55606 l 0,-2.73304 z"
         style="fill:#6f6f6f;fill-opacity:1;fill-rule:evenodd;stroke:none;display:inline"
         inkscape:connector-curvature="0" />
    </g>
  </g>
</svg>
