<?xml version="1.0" encoding="UTF-8"?>
<!DOCTYPE svg PUBLIC "-//W3C//DTD SVG 1.1//EN" "http://www.w3.org/Graphics/SVG/1.1/DTD/svg11.dtd">
<!-- Creator: CorelDRAW -->
<svg xmlns="http://www.w3.org/2000/svg" xmlns:xlink="http://www.w3.org/1999/xlink" xmlns:svg="http://www.w3.org/2000/svg" xmlns:dc="http://purl.org/dc/elements/1.1/" xmlns:cc="http://web.resource.org/cc/" xmlns:rdf="http://www.w3.org/1999/02/22-rdf-syntax-ns#" xml:space="preserve" width="5.90868in" height="1.16543in" style="shape-rendering:geometricPrecision; text-rendering:geometricPrecision; image-rendering:optimizeQuality; fill-rule:evenodd; clip-rule:evenodd" viewBox="0 0 6.0428 1.19189">
 <defs>
  <style type="text/css">
   <![CDATA[
    .str0 {stroke:#1F1A17;stroke-width:0.00710253}
    .str1 {stroke:#DEDEDD;stroke-width:0.0426112}
    .fil2 {fill:none}
    .fil5 {fill:#00923F}
    .fil0 {fill:#1F1A17}
    .fil3 {fill:#00923F;fill-rule:nonzero}
    .fil4 {fill:#2AAD78;fill-rule:nonzero}
    .fil1 {fill:white;fill-rule:nonzero}
   ]]>
  </style>
 </defs>
 <g id="Layer_x0020_1">
  <metadata id="CorelCorpID_0Corel-Layer"/>
  <rect class="fil0 str0" x="0.00355127" y="0.00355127" width="6.0357" height="1.07301" rx="0.214602" ry="0.214602"/>
  <path class="fil1" d="M1.0996 0.628663l0.0235221 0 0 -0.119145 -0.0190891 0c-0.000539535,0.00514168 -0.00198903,0.00926067 -0.0043203,0.0123288 -0.00235543,0.0030681 -0.0057094,0.00528663 -0.0100861,0.00664755 -0.00440083,0.00136494 -0.00994113,0.00201722 -0.0166169,0.00198903l-0.00187629 0 0 0.0167054 0.0284665 0 0 0.0814738z"/>
  <path id="1" class="fil1" d="M1.56971 0.628663l0.0835192 0 0 -0.0202849 -0.054034 0c0.000881777,-0.00227088 0.00255675,-0.0044572 0.00502895,-0.00655897 0.0024722,-0.00207358 0.00559667,-0.0043203 0.00937341,-0.00670795 0.00378077,-0.00238362 0.00806886,-0.00516987 0.0128723,-0.00837889 0.00451357,-0.00303992 0.00851982,-0.00599528 0.0119865,-0.00889024 0.00346671,-0.00287081 0.00638986,-0.00585435 0.0087775,-0.00897882 0.00235946,-0.00309628 0.00414717,-0.00647442 0.00537119,-0.0101706 0.00119181,-0.00369219 0.0018159,-0.00786754 0.0018159,-0.0125261 -2.81846e-005,-0.00548393 -0.000966331,-0.0104565 -0.00281041,-0.0149419 -0.00184811,-0.00446123 -0.00454578,-0.00832655 -0.00804068,-0.0115638 -0.00352308,-0.00323721 -0.0077548,-0.00573759 -0.0127274,-0.00750114 -0.00497258,-0.00173134 -0.0105692,-0.00261312 -0.0168182,-0.0026413 -0.00900298,2.81846e-005 -0.016645,0.001679 -0.0229262,0.00494439 -0.00627712,0.00329358 -0.0110766,0.00809705 -0.0143742,0.0144305 -0.00329358,0.00633349 -0.00494037,0.0140641 -0.00496855,0.0232362l0.021988 0 0 -0.0010227c5.63693e-005,-0.0070985 0.00170316,-0.0124697 0.00496855,-0.0161337 0.00326942,-0.003664 0.00784338,-0.00551211 0.0137783,-0.00551211 0.0037244,0 0.00687705,0.000712669 0.00951836,0.00210177 0.0026413,0.00139313 0.00465852,0.00335397 0.00607983,0.00591072 0.00141728,0.00252857 0.00212995,0.0055403 0.00212995,0.00903117 -2.81846e-005,0.00386532 -0.000769038,0.00724748 -0.00224672,0.0100579 -0.00147365,0.00284262 -0.00354724,0.00542756 -0.00622075,0.0077548 -0.00269767,0.00233127 -0.00585033,0.00463033 -0.00951433,0.00696161 -0.00363582,0.00232725 -0.00764207,0.00491218 -0.0120187,0.00778299 -0.0051135,0.00341034 -0.00954252,0.00684484 -0.0133515,0.0102834 -0.00377674,0.00343853 -0.0069294,0.00710253 -0.00942978,0.0109397 -0.00252857,0.00383311 -0.00440486,0.00809302 -0.00568122,0.0127234 -0.00128039,0.00463033 -0.00196085,0.0098606 -0.0020454,0.0156546z"/>
  <path id="12" class="fil1" d="M2.07868 0.592357l0 0.00051135c2.81846e-005,0.00837889 0.00165081,0.0154814 0.00488802,0.0213076 0.00323721,0.00582214 0.0079521,0.0102552 0.0141487,0.0132951 0.00622075,0.00303992 0.0137742,0.00457397 0.0227249,0.00460215 0.00911975,-5.63693e-005 0.0169591,-0.00165081 0.0234939,-0.00480347 0.00650663,-0.00318084 0.0115315,-0.00767025 0.0150264,-0.0134642 0.0034949,-0.00579396 0.00525442,-0.012671 0.00528261,-0.0205949 0,-0.00650663 -0.00156223,-0.0120751 -0.0046867,-0.0167618 -0.00312447,-0.0046867 -0.0077548,-0.00835071 -0.013891,-0.0110242 0.00477528,-0.00255675 0.00835473,-0.00582214 0.0107383,-0.00977202 0.00238764,-0.00394585 0.00357945,-0.008548 0.00357945,-0.0137461 -2.81846e-005,-0.00650663 -0.00159042,-0.0121878 -0.0046867,-0.0169913 -0.00309628,-0.00479944 -0.00755751,-0.008548 -0.0133515,-0.0111933 -0.00576577,-0.0026413 -0.0127274,-0.00400222 -0.0208244,-0.0040304 -0.00843526,0 -0.0155942,0.00147365 -0.0214767,0.00440083 -0.0059067,0.00289899 -0.0104243,0.0071589 -0.0135769,0.0127837 -0.00315265,0.00562485 -0.00480347,0.0125019 -0.00500076,0.0206513l0.0224994 0 0 -0.0010227c2.81846e-005,-0.00582214 0.00150587,-0.0102552 0.00437265,-0.0132911 0.00287081,-0.00303992 0.00693342,-0.00457397 0.0121597,-0.00460215 0.00321305,0 0.00596709,0.000595904 0.00832655,0.00178771 0.00232725,0.00119181 0.00414717,0.00292718 0.00542353,0.00514168 0.00128039,0.00224269 0.00193266,0.00491621 0.00193266,0.00806886 2.81846e-005,0.0055403 -0.00164679,0.0096311 -0.00497258,0.0123288 -0.00332176,0.00269767 -0.00843526,0.00403443 -0.0153123,0.00403443l-0.00255675 0 0 0.0165323c0.000595904,0 0.00119583,-2.81846e-005 0.00179174,-8.45539e-005 0.000595904,-5.63693e-005 0.00119181,-8.45539e-005 0.00178771,-8.45539e-005 0.00750114,0 0.0131542,0.00153405 0.0169591,0.00454578 0.00380895,0.00301173 0.00571343,0.00746893 0.00571343,0.0133515 -3.2211e-005,0.0059067 -0.001679,0.0104243 -0.00488802,0.0135206 -0.00323721,0.00312447 -0.00786754,0.0046867 -0.0138628,0.00471489 -0.00622075,0 -0.0109075,-0.00167497 -0.0140641,-0.00499673 -0.00315265,-0.00335397 -0.00477126,-0.00838292 -0.00485581,-0.015115l-0.0228416 0z"/>
  <path id="123" class="fil1" d="M2.63623 0.628663l0.0231799 0 0 -0.0257366 0.0138064 0 0 -0.0189199 -0.0138064 0 0 -0.0710776 -0.0294852 0 -0.0439761 0.0690322 0 0.0209653 0.0502814 0 0 0.0257366zm0.00051135 -0.0441452l-0.0323842 0 0.0323842 -0.0509659 0 0.0509659z"/>
  <path id="1234" class="fil1" d="M3.09441 0.596617c0.000370427,0.00736022 0.00224672,0.0136937 0.00562485,0.0189763 0.00335397,0.00525845 0.00804068,0.00932106 0.014036,0.0121597 0.00601943,0.00284262 0.0131501,0.00429212 0.0214203,0.0043203 0.00908753,-5.63693e-005 0.0169309,-0.00179174 0.0235785,-0.00523026 0.00664755,-0.0034345 0.011761,-0.00832252 0.0153969,-0.0145996 0.00363582,-0.00627712 0.00545172,-0.0136937 0.00550808,-0.0222739 -2.81846e-005,-0.00585033 -0.000962304,-0.0111893 -0.0028386,-0.0159646 -0.00187629,-0.00479944 -0.00457397,-0.00891843 -0.00806886,-0.0123851 -0.0034949,-0.00346671 -0.00767025,-0.0061362 -0.0125261,-0.00801249 -0.00485984,-0.00187227 -0.0102834,-0.00281041 -0.0162786,-0.0028386 -0.00434849,0 -0.0081816,0.000539535 -0.0115356,0.00159042 -0.00337813,0.00105088 -0.00627712,0.00258493 -0.00874932,0.00454578l0.0030681 -0.0238643 0.0516463 0 0 -0.0201118 -0.0685209 0 -0.00767025 0.0639187 0.0214767 0.00119181c0.00179174,-0.00272586 0.00400625,-0.00477126 0.00661937,-0.0061362 0.0026413,-0.00136494 0.00565303,-0.0020454 0.00906338,-0.0020454 0.00417535,2.81846e-005 0.00772662,0.000881777 0.0106538,0.00261312 0.00295133,0.00170718 0.00519805,0.00414717 0.00676029,0.00733203 0.00156223,0.00318084 0.00235946,0.00695758 0.00235946,0.0113624 -3.2211e-005,0.00710253 -0.00176355,0.0124979 -0.0051739,0.0162182 -0.0034345,0.00369621 -0.00835071,0.00556848 -0.0147688,0.00559667 -0.00523026,-2.81846e-005 -0.00937743,-0.00144547 -0.0124455,-0.00428809 -0.0030681,-0.00281444 -0.00482763,-0.00684484 -0.00528261,-0.0120751l-0.023353 0z"/>
  <path id="12345" class="fil1" d="M3.62861 0.55963c0.000426796,-0.0103961 0.00224672,-0.0182073 0.00548393,-0.0234094 0.00320902,-0.00519805 0.00781117,-0.00778299 0.0137783,-0.00778299 0.00443304,0 0.00783936,0.000966331 0.0102834,0.00292718 0.00241583,0.00193266 0.00386532,0.00482763 0.00437667,0.00866476l0.0242026 0c-0.000426796,-0.00627712 -0.00215814,-0.0117047 -0.00519805,-0.0162505 -0.00303992,-0.00454578 -0.00718708,-0.00806886 -0.0124455,-0.0105088 -0.00525442,-0.0024722 -0.0114188,-0.0037244 -0.0184932,-0.00375258 -0.010082,2.81846e-005 -0.0186059,0.0024722 -0.0255675,0.00733203 -0.00695758,0.00485581 -0.0122442,0.0120429 -0.0158518,0.0215331 -0.00360763,0.00948615 -0.00542353,0.0211626 -0.00545172,0.0350536 2.81846e-005,0.0192904 0.00380493,0.0339182 0.0113061,0.0438352 0.00746893,0.00994113 0.0184932,0.0149137 0.0330082,0.0149701 0.00628115,-2.81846e-005 0.0119906,-0.0010227 0.0171041,-0.00303992 0.0051135,-0.00198903 0.00948615,-0.00482763 0.0131783,-0.00852384 0.00366803,-0.00369219 0.00650663,-0.0081212 0.00846747,-0.0132347 0.00198903,-0.00514571 0.00298355,-0.0108551 0.00301173,-0.0171322 -2.81846e-005,-0.0079521 -0.00164679,-0.0148291 -0.00480347,-0.0206513 -0.00315265,-0.00582617 -0.00760985,-0.0103397 -0.0133515,-0.0135246 -0.00573759,-0.00320902 -0.0125261,-0.00482763 -0.0203654,-0.00485581 -0.00477528,0 -0.00906338,0.000708642 -0.0128723,0.00212995 -0.00380493,0.00142131 -0.00707032,0.0034949 -0.0098002,0.00622075zm0.000342242 0.0311923c0,-0.00423172 0.000736827,-0.00783936 0.00218632,-0.0108229 0.0014495,-0.00298355 0.00352308,-0.00528261 0.00624894,-0.00687705 0.0027017,-0.00159042 0.00599528,-0.0024118 0.00980423,-0.0024118 0.00585033,2.81846e-005 0.0103679,0.00178771 0.0135488,0.00528261 0.00320902,0.0034949 0.00482763,0.00849566 0.00485984,0.0149983 0,0.00466255 -0.000712669,0.00863658 -0.00213398,0.011906 -0.0013891,0.00326539 -0.00340632,0.00576577 -0.00601943,0.00749712 -0.00261312,0.00170718 -0.00574161,0.00258493 -0.00940562,0.00258493 -0.00388948,-2.81846e-005 -0.00724345,-0.000905935 -0.0101143,-0.00266949 -0.0028386,-0.00175953 -0.00502492,-0.00431628 -0.00658715,-0.00761388 -0.00156223,-0.00329358 -0.00235946,-0.00724345 -0.00238764,-0.0118738z"/>
  <path id="123456" class="fil1" d="M4.15378 0.628663c0.000849566,-0.0124133 0.00295133,-0.0242871 0.00636168,-0.035565 0.00338216,-0.0112819 0.00806886,-0.0220766 0.0140923,-0.0324164 0.00601943,-0.0103116 0.0134078,-0.0202809 0.0221572,-0.0298556l0 -0.0178972 -0.0845419 0 0 0.0202849 0.0586321 0c-0.0129529,0.0154251 -0.0229262,0.031132 -0.0298556,0.0470684 -0.00696161,0.0159686 -0.0108793,0.0320741 -0.0117329,0.048381l0.024887 0z"/>
  <path id="1234567" class="fil1" d="M4.63753 0.566109c-0.00602346,0.00301173 -0.0104525,0.00687303 -0.0133233,0.0115315 -0.00284262,0.00465852 -0.00425991,0.0104283 -0.00423172,0.0172732 2.81846e-005,0.0077548 0.00170316,0.0144024 0.00502492,0.0199426 0.00332579,0.0055403 0.0081816,0.00977202 0.0145473,0.0127274 0.00636168,0.00295536 0.0140883,0.00446123 0.023208,0.00448941 0.00900701,-2.81846e-005 0.0167054,-0.00153405 0.0230953,-0.0045176 0.00642207,-0.00298355 0.0113061,-0.00724345 0.0147164,-0.0127837 0.00338216,-0.0055403 0.0051135,-0.0121597 0.00514168,-0.0198581 -2.81846e-005,-0.00707435 -0.00150587,-0.012981 -0.00448941,-0.0177281 -0.00297952,-0.00477126 -0.00732801,-0.00846345 -0.0130656,-0.0110766 0.00954654,-0.00494439 0.0143178,-0.0129569 0.0143178,-0.0240334 -2.81846e-005,-0.00678847 -0.00159042,-0.0126146 -0.00471489,-0.0174986 -0.00312447,-0.00488802 -0.00764207,-0.00863658 -0.0135528,-0.0112497 -0.00593488,-0.00261312 -0.0130656,-0.00394988 -0.0214485,-0.00397806 -0.00832252,2.81846e-005 -0.0153969,0.00136494 -0.0212754,0.00400625 -0.00585435,0.0026413 -0.0103116,0.00641805 -0.0134119,0.0113061 -0.00309628,0.00485581 -0.00465852,0.010682 -0.0046867,0.0174141 0,0.00377674 0.000454981,0.00713072 0.00139313,0.0100539 0.000938146,0.00292718 0.0024722,0.00551211 0.00454578,0.00778701 0.00207358,0.00227088 0.00482763,0.00434446 0.00820978,0.00619257zm0.00852384 -0.0231799c0,-0.00287081 0.000680458,-0.00537119 0.00201722,-0.00750114 0.00133273,-0.00212995 0.00323721,-0.00380895 0.00573759,-0.00500076 0.00250038,-0.00119181 0.0054799,-0.0018159 0.00894661,-0.0018159 0.00355127,0 0.006563,0.000595904 0.00906338,0.00178771 0.00252857,0.00116362 0.00446123,0.00281444 0.00579396,0.00494439 0.00133676,0.00212995 0.00201722,0.00465852 0.00201722,0.0075857 -2.81846e-005,0.00454175 -0.00147768,0.00806483 -0.00434446,0.010537 -0.00287081,0.00250038 -0.00704616,0.00374856 -0.0125301,0.00377674 -0.00545172,-2.81846e-005 -0.00960291,-0.00127636 -0.0124415,-0.00377674 -0.00284262,-0.0024722 -0.00425991,-0.00599528 -0.00425991,-0.010537zm-0.00187629 0.051131c2.81846e-005,-0.00360763 0.000793196,-0.00676029 0.00235946,-0.00951433 0.00156223,-0.00272988 0.00372037,-0.00485984 0.00653078,-0.00639389 0.00281444,-0.00153405 0.00607983,-0.00229906 0.0098606,-0.00232725 0.00377674,2.81846e-005 0.00704213,0.000793196 0.00982839,0.00229906 0.00275404,0.00150587 0.00491218,0.00363582 0.00644623,0.0063657 0.00150587,0.00272586 0.0022749,0.0059067 0.00230309,0.0095707 0,0.00380895 -0.000769038,0.00710253 -0.00224672,0.00980423 -0.00147365,0.00272586 -0.00360763,0.00479944 -0.00636168,0.00624894 -0.00275404,0.0014495 -0.00607983,0.00218632 -0.00996931,0.00218632 -0.00599528,-2.81846e-005 -0.0106256,-0.00159042 -0.0138668,-0.00471489 -0.00320902,-0.00309628 -0.00485581,-0.00761388 -0.004884,-0.0135246z"/>
  <path class="fil1" d="M5.18991 0.541137l0.0156787 0 0 -0.0794284 -0.0127274 0c-0.000358348,0.00342645 -0.00132468,0.00617244 -0.00287886,0.00821784 -0.00157029,0.0020454 -0.00380493,0.00352308 -0.00672002,0.00443304 -0.00293523,0.000909961 -0.00663144,0.00134481 -0.0110806,0.00132468l-0.00124818 0 0 0.011137 0.0189763 0 0 0.0543158z"/>
  <path id="1" class="fil1" d="M5.22991 0.502504c0,0.0136333 0.00236751,0.0238402 0.00711864,0.0306206 0.00475515,0.00678042 0.0119141,0.0101706 0.021517,0.0101706 0.00965928,0 0.0168544,-0.00337008 0.0216257,-0.0101143 0.00475515,-0.00676029 0.00714279,-0.016947 0.00712266,-0.0305642 0,-0.0136373 -0.00238764,-0.0238643 -0.00717903,-0.030681 -0.00477126,-0.00682068 -0.0119664,-0.010227 -0.0215693,-0.010227 -0.00960291,0 -0.0167618,0.00339021 -0.021517,0.0101706 -0.00475113,0.00678042 -0.00711864,0.0169873 -0.00711864,0.0306246zm0.0164759 0c-2.01319e-005,-0.0062127 0.000398611,-0.0113463 0.00121194,-0.015417 0.000813328,-0.00407469 0.0021219,-0.00710253 0.00390156,-0.00909156 0.00179979,-0.00200916 0.00414717,-0.0029916 0.00704616,-0.0029916 0.0029151,0 0.00526248,0.000982436 0.00706227,0.0029916 0.00181992,0.00198903 0.0031446,0.00501687 0.00397806,0.00909156 0.00083346,0.00407067 0.0012522,0.0092043 0.00123207,0.015417 2.01319e-005,0.00620867 -0.000398611,0.0113624 -0.00123207,0.0154331 -0.00083346,0.0040908 -0.00215814,0.00713877 -0.00397806,0.00916806 -0.00179979,0.00200514 -0.00414717,0.0030077 -0.00706227,0.0030077 -0.00289899,0 -0.00524637,-0.00100257 -0.00704616,-0.0030077 -0.00177966,-0.00202929 -0.00308823,-0.00507726 -0.00390156,-0.00916806 -0.000813328,-0.00407067 -0.00123207,-0.00922443 -0.00121194,-0.0154331z"/>
  <path id="12" class="fil1" d="M5.29434 0.502504c0,0.0136333 0.00236751,0.0238402 0.00711864,0.0306206 0.00475515,0.00678042 0.0119141,0.0101706 0.021517,0.0101706 0.00965928,0 0.0168544,-0.00337008 0.0216257,-0.0101143 0.00475515,-0.00676029 0.00714279,-0.016947 0.00712266,-0.0305642 0,-0.0136373 -0.00238764,-0.0238643 -0.00717903,-0.030681 -0.00477126,-0.00682068 -0.0119664,-0.010227 -0.0215693,-0.010227 -0.00960291,0 -0.0167618,0.00339021 -0.021517,0.0101706 -0.00475113,0.00678042 -0.00711864,0.0169873 -0.00711864,0.0306246zm0.0164759 0c-2.01319e-005,-0.0062127 0.000398611,-0.0113463 0.00121194,-0.015417 0.000813328,-0.00407469 0.0021219,-0.00710253 0.00390156,-0.00909156 0.00179979,-0.00200916 0.00414717,-0.0029916 0.00704616,-0.0029916 0.0029151,0 0.00526248,0.000982436 0.00706227,0.0029916 0.00181992,0.00198903 0.0031446,0.00501687 0.00397806,0.00909156 0.00083346,0.00407067 0.0012522,0.0092043 0.00123207,0.015417 2.01319e-005,0.00620867 -0.000398611,0.0113624 -0.00123207,0.0154331 -0.00083346,0.0040908 -0.00215814,0.00713877 -0.00397806,0.00916806 -0.00179979,0.00200514 -0.00414717,0.0030077 -0.00706227,0.0030077 -0.00289899,0 -0.00524637,-0.00100257 -0.00704616,-0.0030077 -0.00177966,-0.00202929 -0.00308823,-0.00507726 -0.00390156,-0.00916806 -0.000813328,-0.00407067 -0.00123207,-0.00922443 -0.00121194,-0.0154331z"/>
  <path id="123" class="fil1" d="M5.25434 0.67772l0.0156787 0 0 -0.0794284 -0.0127274 0c-0.000358348,0.00342645 -0.00132468,0.00617244 -0.00287886,0.00821784 -0.00157029,0.0020454 -0.00380493,0.00352308 -0.00672002,0.00443304 -0.00293523,0.000909961 -0.00663144,0.00134481 -0.0110806,0.00132468l-0.00124818 0 0 0.011137 0.0189763 0 0 0.0543158z"/>
  <path id="1234" class="fil1" d="M5.29434 0.639087c0,0.0136333 0.00236751,0.0238402 0.00711864,0.0306206 0.00475515,0.00678042 0.0119141,0.0101706 0.021517,0.0101706 0.00965928,0 0.0168544,-0.00337008 0.0216257,-0.0101143 0.00475515,-0.00676029 0.00714279,-0.016947 0.00712266,-0.0305642 0,-0.0136373 -0.00238764,-0.0238643 -0.00717903,-0.030681 -0.00477126,-0.00682068 -0.0119664,-0.010227 -0.0215693,-0.010227 -0.00960291,0 -0.0167618,0.00339021 -0.021517,0.0101706 -0.00475113,0.00678042 -0.00711864,0.0169873 -0.00711864,0.0306246zm0.0164759 0c-2.01319e-005,-0.0062127 0.000398611,-0.0113463 0.00121194,-0.015417 0.000813328,-0.00407469 0.0021219,-0.00710253 0.00390156,-0.00909156 0.00179979,-0.00200916 0.00414717,-0.0029916 0.00704616,-0.0029916 0.0029151,0 0.00526248,0.000982436 0.00706227,0.0029916 0.00181992,0.00198903 0.0031446,0.00501687 0.00397806,0.00909156 0.00083346,0.00407067 0.0012522,0.0092043 0.00123207,0.015417 2.01319e-005,0.00620867 -0.000398611,0.0113624 -0.00123207,0.0154331 -0.00083346,0.0040908 -0.00215814,0.00713877 -0.00397806,0.00916806 -0.00179979,0.00200514 -0.00414717,0.0030077 -0.00706227,0.0030077 -0.00289899,0 -0.00524637,-0.00100257 -0.00704616,-0.0030077 -0.00177966,-0.00202929 -0.00308823,-0.00507726 -0.00390156,-0.00916806 -0.000813328,-0.00407067 -0.00123207,-0.00922443 -0.00121194,-0.0154331z"/>
  <line class="fil2 str1" x1="0.00355127" y1="0.260627" x2="6.03925" y2="0.260627"/>
  <line class="fil2 str1" x1="0.00355127" y1="0.880959" x2="6.03925" y2="0.880959"/>
  <g id="_75458768">
   <path id="_75455216" class="fil2" d="M0.706597 0.489676c0.0180341,0.0104162 0.0330485,0.0254346 0.0434647,0.0434768 0.0327908,0.0567921 0.0133233,0.12944 -0.0434647,0.162227 -0.0567921,0.0327908 -0.129436,0.0133233 -0.162227,-0.0434688 -0.0327868,-0.0567921 -0.0133233,-0.129436 0.0434688,-0.162227"/>
   <path id="_75462344" class="fil3" d="M0.717251 0.471283c0.0105773,0.00611204 0.0203171,0.0136092 0.0289577,0.0222498l4.02638e-005 -4.02638e-005c0.00844331,0.00844331 0.0159163,0.0182073 0.0221692,0.0290302l3.62374e-005 -2.01319e-005c0.0193467,0.0335075 0.0232845,0.0716695 0.0140239,0.106256 -0.00927275,0.0346027 -0.031752,0.0656863 -0.0652233,0.0850129l-8.05276e-006 4.02638e-006c-0.0335115,0.0193427 -0.0716695,0.0232845 -0.106256,0.0140158 -0.0345705,-0.00925664 -0.0656501,-0.0317681 -0.0850129,-0.0653119 -0.0193347,-0.0334954 -0.0232765,-0.0716212 -0.0140198,-0.106176 0.00927275,-0.0346067 0.031756,-0.0656863 0.0652273,-0.0850129l0.0213076 0.036785c-0.0233127,0.0134602 -0.0389673,0.03511 -0.0454256,0.0592119 -0.00647442,0.0241623 -0.00375258,0.0507605 0.00969552,0.0740531 0.0134199,0.0232443 0.0350738,0.0388747 0.0592119,0.045341 0.024122,0.00646234 0.0506921,0.00374453 0.0739686,-0.00969552l8.05276e-006 -4.02638e-006c0.0233006,-0.0134602 0.0389592,-0.035106 0.0454175,-0.0592079 0.00645831,-0.024118 0.00373648,-0.0506921 -0.00969954,-0.0739646l-4.83165e-005 -0.000169108c-0.00413509,-0.00715085 -0.00936133,-0.013887 -0.0154975,-0.0200232l0 -8.05276e-005c-0.00595099,-0.00595501 -0.0127435,-0.0111732 -0.0201802,-0.0154693l0.0213076 -0.036785z"/>
   <polygon id="_75457160" class="fil4" points="0.668524,0.430311 0.668524,0.59253 0.625908,0.59253 0.625908,0.430311 "/>
  </g>
  <path class="fil3" d="M1.18415 0.674418c-0.00784338,0 -0.0142051,-0.00636168 -0.0142051,-0.0142051 0,-0.00784338 0.00636168,-0.0142051 0.0142051,-0.0142051l0.20119 0c0.00784338,0 0.0142051,0.00636168 0.0142051,0.0142051 0,0.00784338 -0.00636168,0.0142051 -0.0142051,0.0142051l-0.20119 0zm0.0217948 -0.232394l0.1576 0c0.0079521,0 0.0151955,0.00326539 0.02045,0.00851176l5.23429e-005 5.23429e-005c0.00524637,0.00525442 0.00851176,0.0124939 0.00851176,0.02045l0 0.11848c0,0.0079521 -0.00326539,0.0151955 -0.00851176,0.02045l-5.23429e-005 5.23429e-005c-0.00525442,0.00524637 -0.0124979,0.00851176 -0.02045,0.00851176l-0.1576 0c-0.00795612,0 -0.0151955,-0.00326539 -0.02045,-0.00851176l-5.23429e-005 -5.23429e-005c-0.00524637,-0.00525442 -0.00851176,-0.0124979 -0.00851176,-0.02045l0 -0.11848c0,-0.00795612 0.00326539,-0.0151955 0.00851176,-0.02045l5.23429e-005 -5.23429e-005c0.00525442,-0.00524637 0.0124939,-0.00851176 0.02045,-0.00851176zm0.1576 0.0284101l-0.1576 0c-0.000173134,0 -0.000330163,6.03957e-005 -0.000442902,0.000161055 -0.000100659,0.000112739 -0.000161055,0.000269767 -0.000161055,0.000442902l0 0.11848c0,0.000173134 6.4422e-005,0.000326137 0.000161055,0.000438875 0.000112739,9.66331e-005 0.000269767,0.000165081 0.000442902,0.000165081l0.1576 0c0.000173134,0 0.000330163,-6.03957e-005 0.000442902,-0.000161055 0.000100659,-0.000112739 0.000161055,-0.000269767 0.000161055,-0.000442902l0 -0.11848c0,-0.000173134 -6.84484e-005,-0.000330163 -0.000165081,-0.000442902 -0.000112739,-9.66331e-005 -0.000265741,-0.000161055 -0.000438875,-0.000161055z"/>
  <g id="_161636880">
   <path id="_75453920" class="fil5" d="M1.70009 0.674418c-0.00784338,0 -0.0142051,-0.00636168 -0.0142051,-0.0142051 0,-0.00784338 0.00636168,-0.0142051 0.0142051,-0.0142051 0.0670633,0 0.134127,0 0.20119,0 0.00784338,0 0.0142051,0.00636168 0.0142051,0.0142051 0,0.00784338 -0.00636168,0.0142051 -0.0142051,0.0142051 -0.0670633,0 -0.134127,0 -0.20119,0zm0.0217948 -0.232394c0.0525362,0 0.105068,0 0.1576,0 0.0079521,0 0.0151955,0.00326539 0.02045,0.00851176 2.01319e-005,2.01319e-005 3.62374e-005,3.62374e-005 5.23429e-005,5.23429e-005 0.00524637,0.00525442 0.00851176,0.0124939 0.00851176,0.02045 0,0.0394947 0,0.0789895 0,0.11848 0,0.0079521 -0.00326539,0.0151955 -0.00851176,0.02045 -1.61055e-005,2.01319e-005 -3.2211e-005,3.62374e-005 -5.23429e-005,5.23429e-005 -0.00525442,0.00524637 -0.0124979,0.00851176 -0.02045,0.00851176 -0.0525322,0 -0.105064,0 -0.1576,0 -0.00795612,0 -0.0151955,-0.00326539 -0.02045,-0.00851176 -1.61055e-005,-1.61055e-005 -3.2211e-005,-3.2211e-005 -5.23429e-005,-5.23429e-005 -0.00524637,-0.00525442 -0.00851176,-0.0124979 -0.00851176,-0.02045 0,-0.0394907 0,-0.0789855 0,-0.11848 0,-0.00795612 0.00326539,-0.0151955 0.00851176,-0.02045 2.01319e-005,-1.61055e-005 3.62374e-005,-3.2211e-005 5.23429e-005,-5.23429e-005 0.00525442,-0.00524637 0.0124939,-0.00851176 0.02045,-0.00851176zm0.1576 0.0284101c-0.0525322,0 -0.105064,0 -0.1576,0 -0.000173134,0 -0.000330163,6.03957e-005 -0.000442902,0.000161055 -0.000100659,0.000112739 -0.000161055,0.000269767 -0.000161055,0.000442902 0,0.0394947 0,0.0789895 0,0.11848 0,0.000173134 6.4422e-005,0.000326137 0.000161055,0.000438875 0.000112739,9.66331e-005 0.000269767,0.000165081 0.000442902,0.000165081 0.0525362,0 0.105068,0 0.1576,0 0.000173134,0 0.000330163,-6.03957e-005 0.000442902,-0.000161055 0.000100659,-0.000112739 0.000161055,-0.000269767 0.000161055,-0.000442902 0,-0.0394907 0,-0.0789855 0,-0.11848 0,-0.000173134 -6.84484e-005,-0.000330163 -0.000165081,-0.000442902 -0.000112739,-9.66331e-005 -0.000265741,-0.000161055 -0.000438875,-0.000161055z"/>
   <path id="_75454952" class="fil5" d="M2.21604 0.674418c-0.00784338,0 -0.0142051,-0.00636168 -0.0142051,-0.0142051 0,-0.00784338 0.00636168,-0.0142051 0.0142051,-0.0142051 0.0670633,0 0.134127,0 0.20119,0 0.00784338,0 0.0142051,0.00636168 0.0142051,0.0142051 0,0.00784338 -0.00636168,0.0142051 -0.0142051,0.0142051 -0.0670633,0 -0.134127,0 -0.20119,0zm0.0217948 -0.232394c0.0525362,0 0.105068,0 0.1576,0 0.0079521,0 0.0151955,0.00326539 0.02045,0.00851176 2.01319e-005,2.01319e-005 3.62374e-005,3.62374e-005 5.23429e-005,5.23429e-005 0.00524637,0.00525442 0.00851176,0.0124939 0.00851176,0.02045 0,0.0394947 0,0.0789895 0,0.11848 0,0.0079521 -0.00326539,0.0151955 -0.00851176,0.02045 -1.61055e-005,2.01319e-005 -3.2211e-005,3.62374e-005 -5.23429e-005,5.23429e-005 -0.00525442,0.00524637 -0.0124979,0.00851176 -0.02045,0.00851176 -0.0525322,0 -0.105064,0 -0.1576,0 -0.00795612,0 -0.0151955,-0.00326539 -0.02045,-0.00851176 -1.61055e-005,-1.61055e-005 -3.2211e-005,-3.2211e-005 -5.23429e-005,-5.23429e-005 -0.00524637,-0.00525442 -0.00851176,-0.0124979 -0.00851176,-0.02045 0,-0.0394907 0,-0.0789855 0,-0.11848 0,-0.00795612 0.00326539,-0.0151955 0.00851176,-0.02045 2.01319e-005,-1.61055e-005 3.62374e-005,-3.2211e-005 5.23429e-005,-5.23429e-005 0.00525442,-0.00524637 0.0124939,-0.00851176 0.02045,-0.00851176zm0.1576 0.0284101c-0.0525322,0 -0.105064,0 -0.1576,0 -0.000173134,0 -0.000330163,6.03957e-005 -0.000442902,0.000161055 -0.000100659,0.000112739 -0.000161055,0.000269767 -0.000161055,0.000442902 0,0.0394947 0,0.0789895 0,0.11848 0,0.000173134 6.4422e-005,0.000326137 0.000161055,0.000438875 0.000112739,9.66331e-005 0.000269767,0.000165081 0.000442902,0.000165081 0.0525362,0 0.105068,0 0.1576,0 0.000173134,0 0.000330163,-6.03957e-005 0.000442902,-0.000161055 0.000100659,-0.000112739 0.000161055,-0.000269767 0.000161055,-0.000442902 0,-0.0394907 0,-0.0789855 0,-0.11848 0,-0.000173134 -6.84484e-005,-0.000330163 -0.000165081,-0.000442902 -0.000112739,-9.66331e-005 -0.000265741,-0.000161055 -0.000438875,-0.000161055z"/>
   <path id="_75454208" class="fil5" d="M2.73198 0.674418c-0.00784338,0 -0.0142051,-0.00636168 -0.0142051,-0.0142051 0,-0.00784338 0.00636168,-0.0142051 0.0142051,-0.0142051 0.0670633,0 0.134127,0 0.20119,0 0.00784338,0 0.0142051,0.00636168 0.0142051,0.0142051 0,0.00784338 -0.00636168,0.0142051 -0.0142051,0.0142051 -0.0670633,0 -0.134127,0 -0.20119,0zm0.0217948 -0.232394c0.0525362,0 0.105068,0 0.1576,0 0.0079521,0 0.0151955,0.00326539 0.02045,0.00851176 2.01319e-005,2.01319e-005 3.62374e-005,3.62374e-005 5.23429e-005,5.23429e-005 0.00524637,0.00525442 0.00851176,0.0124939 0.00851176,0.02045 0,0.0394947 0,0.0789895 0,0.11848 0,0.0079521 -0.00326539,0.0151955 -0.00851176,0.02045 -1.61055e-005,2.01319e-005 -3.2211e-005,3.62374e-005 -5.23429e-005,5.23429e-005 -0.00525442,0.00524637 -0.0124979,0.00851176 -0.02045,0.00851176 -0.0525322,0 -0.105064,0 -0.1576,0 -0.00795612,0 -0.0151955,-0.00326539 -0.02045,-0.00851176 -1.61055e-005,-1.61055e-005 -3.2211e-005,-3.2211e-005 -5.23429e-005,-5.23429e-005 -0.00524637,-0.00525442 -0.00851176,-0.0124979 -0.00851176,-0.02045 0,-0.0394907 0,-0.0789855 0,-0.11848 0,-0.00795612 0.00326539,-0.0151955 0.00851176,-0.02045 2.01319e-005,-1.61055e-005 3.62374e-005,-3.2211e-005 5.23429e-005,-5.23429e-005 0.00525442,-0.00524637 0.0124939,-0.00851176 0.02045,-0.00851176zm0.1576 0.0284101c-0.0525322,0 -0.105064,0 -0.1576,0 -0.000173134,0 -0.000330163,6.03957e-005 -0.000442902,0.000161055 -0.000100659,0.000112739 -0.000161055,0.000269767 -0.000161055,0.000442902 0,0.0394947 0,0.0789895 0,0.11848 0,0.000173134 6.4422e-005,0.000326137 0.000161055,0.000438875 0.000112739,9.66331e-005 0.000269767,0.000165081 0.000442902,0.000165081 0.0525362,0 0.105068,0 0.1576,0 0.000173134,0 0.000330163,-6.03957e-005 0.000442902,-0.000161055 0.000100659,-0.000112739 0.000161055,-0.000269767 0.000161055,-0.000442902 0,-0.0394907 0,-0.0789855 0,-0.11848 0,-0.000173134 -6.84484e-005,-0.000330163 -0.000165081,-0.000442902 -0.000112739,-9.66331e-005 -0.000265741,-0.000161055 -0.000438875,-0.000161055z"/>
   <path id="_161627112" class="fil5" d="M3.24792 0.674418c-0.00784338,0 -0.0142051,-0.00636168 -0.0142051,-0.0142051 0,-0.00784338 0.00636168,-0.0142051 0.0142051,-0.0142051 0.0670633,0 0.134127,0 0.20119,0 0.00784338,0 0.0142051,0.00636168 0.0142051,0.0142051 0,0.00784338 -0.00636168,0.0142051 -0.0142051,0.0142051 -0.0670633,0 -0.134127,0 -0.20119,0zm0.0217948 -0.232394c0.0525322,0 0.105064,0 0.1576,0 0.0079521,0 0.0151955,0.00326539 0.02045,0.00851176 1.61055e-005,2.01319e-005 3.2211e-005,3.62374e-005 5.23429e-005,5.23429e-005 0.00524637,0.00525442 0.00851176,0.0124939 0.00851176,0.02045 0,0.0394947 0,0.0789895 0,0.11848 0,0.0079521 -0.00326539,0.0151955 -0.00851176,0.02045 -2.01319e-005,2.01319e-005 -3.62374e-005,3.62374e-005 -5.23429e-005,5.23429e-005 -0.00525442,0.00524637 -0.0124979,0.00851176 -0.02045,0.00851176 -0.0525362,0 -0.105068,0 -0.1576,0 -0.00795612,0 -0.0151955,-0.00326539 -0.02045,-0.00851176 -2.01319e-005,-1.61055e-005 -3.62374e-005,-3.2211e-005 -5.23429e-005,-5.23429e-005 -0.00524637,-0.00525442 -0.00851176,-0.0124979 -0.00851176,-0.02045 0,-0.0394907 0,-0.0789855 0,-0.11848 0,-0.00795612 0.00326539,-0.0151955 0.00851176,-0.02045 1.61055e-005,-1.61055e-005 3.2211e-005,-3.2211e-005 5.23429e-005,-5.23429e-005 0.00525442,-0.00524637 0.0124939,-0.00851176 0.02045,-0.00851176zm0.1576 0.0284101c-0.0525362,0 -0.105068,0 -0.1576,0 -0.000173134,0 -0.000330163,6.03957e-005 -0.000442902,0.000161055 -0.000100659,0.000112739 -0.000161055,0.000269767 -0.000161055,0.000442902 0,0.0394947 0,0.0789895 0,0.11848 0,0.000173134 6.4422e-005,0.000326137 0.000161055,0.000438875 0.000112739,9.66331e-005 0.000269767,0.000165081 0.000442902,0.000165081 0.0525322,0 0.105064,0 0.1576,0 0.000173134,0 0.000330163,-6.03957e-005 0.000442902,-0.000161055 0.000100659,-0.000112739 0.000161055,-0.000269767 0.000161055,-0.000442902 0,-0.0394907 0,-0.0789855 0,-0.11848 0,-0.000173134 -6.84484e-005,-0.000330163 -0.000165081,-0.000442902 -0.000112739,-9.66331e-005 -0.000265741,-0.000161055 -0.000438875,-0.000161055z"/>
   <path id="_161630856" class="fil5" d="M3.76387 0.674418c-0.00784338,0 -0.0142051,-0.00636168 -0.0142051,-0.0142051 0,-0.00784338 0.00636168,-0.0142051 0.0142051,-0.0142051 0.0670633,0 0.134127,0 0.20119,0 0.00784338,0 0.0142051,0.00636168 0.0142051,0.0142051 0,0.00784338 -0.00636168,0.0142051 -0.0142051,0.0142051 -0.0670633,0 -0.134127,0 -0.20119,0zm0.0217948 -0.232394c0.0525322,0 0.105064,0 0.1576,0 0.0079521,0 0.0151955,0.00326539 0.02045,0.00851176 1.61055e-005,2.01319e-005 3.2211e-005,3.62374e-005 5.23429e-005,5.23429e-005 0.00524637,0.00525442 0.00851176,0.0124939 0.00851176,0.02045 0,0.0394947 0,0.0789895 0,0.11848 0,0.0079521 -0.00326539,0.0151955 -0.00851176,0.02045 -2.01319e-005,2.01319e-005 -3.62374e-005,3.62374e-005 -5.23429e-005,5.23429e-005 -0.00525442,0.00524637 -0.0124979,0.00851176 -0.02045,0.00851176 -0.0525362,0 -0.105068,0 -0.1576,0 -0.00795612,0 -0.0151955,-0.00326539 -0.02045,-0.00851176 -2.01319e-005,-1.61055e-005 -3.62374e-005,-3.2211e-005 -5.23429e-005,-5.23429e-005 -0.00524637,-0.00525442 -0.00851176,-0.0124979 -0.00851176,-0.02045 0,-0.0394907 0,-0.0789855 0,-0.11848 0,-0.00795612 0.00326539,-0.0151955 0.00851176,-0.02045 1.61055e-005,-1.61055e-005 3.2211e-005,-3.2211e-005 5.23429e-005,-5.23429e-005 0.00525442,-0.00524637 0.0124939,-0.00851176 0.02045,-0.00851176zm0.1576 0.0284101c-0.0525362,0 -0.105068,0 -0.1576,0 -0.000173134,0 -0.000330163,6.03957e-005 -0.000442902,0.000161055 -0.000100659,0.000112739 -0.000161055,0.000269767 -0.000161055,0.000442902 0,0.0394947 0,0.0789895 0,0.11848 0,0.000173134 6.4422e-005,0.000326137 0.000161055,0.000438875 0.000112739,9.66331e-005 0.000269767,0.000165081 0.000442902,0.000165081 0.0525322,0 0.105064,0 0.1576,0 0.000173134,0 0.000330163,-6.03957e-005 0.000442902,-0.000161055 0.000100659,-0.000112739 0.000161055,-0.000269767 0.000161055,-0.000442902 0,-0.0394907 0,-0.0789855 0,-0.11848 0,-0.000173134 -6.84484e-005,-0.000330163 -0.000165081,-0.000442902 -0.000112739,-9.66331e-005 -0.000265741,-0.000161055 -0.000438875,-0.000161055z"/>
   <path id="_161630736" class="fil5" d="M4.27981 0.674418c-0.00784338,0 -0.0142051,-0.00636168 -0.0142051,-0.0142051 0,-0.00784338 0.00636168,-0.0142051 0.0142051,-0.0142051 0.0670633,0 0.134127,0 0.20119,0 0.00784338,0 0.0142051,0.00636168 0.0142051,0.0142051 0,0.00784338 -0.00636168,0.0142051 -0.0142051,0.0142051 -0.0670633,0 -0.134127,0 -0.20119,0zm0.0217948 -0.232394c0.0525322,0 0.105064,0 0.1576,0 0.0079521,0 0.0151955,0.00326539 0.02045,0.00851176 1.61055e-005,2.01319e-005 3.2211e-005,3.62374e-005 5.23429e-005,5.23429e-005 0.00524637,0.00525442 0.00851176,0.0124939 0.00851176,0.02045 0,0.0394947 0,0.0789895 0,0.11848 0,0.0079521 -0.00326539,0.0151955 -0.00851176,0.02045 -2.01319e-005,2.01319e-005 -3.62374e-005,3.62374e-005 -5.23429e-005,5.23429e-005 -0.00525442,0.00524637 -0.0124979,0.00851176 -0.02045,0.00851176 -0.0525362,0 -0.105068,0 -0.1576,0 -0.00795612,0 -0.0151955,-0.00326539 -0.02045,-0.00851176 -2.01319e-005,-1.61055e-005 -3.62374e-005,-3.2211e-005 -5.23429e-005,-5.23429e-005 -0.00524637,-0.00525442 -0.00851176,-0.0124979 -0.00851176,-0.02045 0,-0.0394907 0,-0.0789855 0,-0.11848 0,-0.00795612 0.00326539,-0.0151955 0.00851176,-0.02045 1.61055e-005,-1.61055e-005 3.2211e-005,-3.2211e-005 5.23429e-005,-5.23429e-005 0.00525442,-0.00524637 0.0124939,-0.00851176 0.02045,-0.00851176zm0.1576 0.0284101c-0.0525362,0 -0.105068,0 -0.1576,0 -0.000173134,0 -0.000330163,6.03957e-005 -0.000442902,0.000161055 -0.000100659,0.000112739 -0.000161055,0.000269767 -0.000161055,0.000442902 0,0.0394947 0,0.0789895 0,0.11848 0,0.000173134 6.4422e-005,0.000326137 0.000161055,0.000438875 0.000112739,9.66331e-005 0.000269767,0.000165081 0.000442902,0.000165081 0.0525322,0 0.105064,0 0.1576,0 0.000173134,0 0.000330163,-6.03957e-005 0.000442902,-0.000161055 0.000100659,-0.000112739 0.000161055,-0.000269767 0.000161055,-0.000442902 0,-0.0394907 0,-0.0789855 0,-0.11848 0,-0.000173134 -6.84484e-005,-0.000330163 -0.000165081,-0.000442902 -0.000112739,-9.66331e-005 -0.000265741,-0.000161055 -0.000438875,-0.000161055z"/>
  </g>
  <path class="fil3" d="M4.79575 0.674418c-0.00784338,0 -0.0142051,-0.00636168 -0.0142051,-0.0142051 0,-0.00784338 0.00636168,-0.0142051 0.0142051,-0.0142051l0.20119 0c0.00784338,0 0.0142051,0.00636168 0.0142051,0.0142051 0,0.00784338 -0.00636168,0.0142051 -0.0142051,0.0142051l-0.20119 0zm0.0217948 -0.232394l0.1576 0c0.0079521,0 0.0151955,0.00326539 0.02045,0.00851176l5.23429e-005 5.23429e-005c0.00524637,0.00525442 0.00851176,0.0124939 0.00851176,0.02045l0 0.11848c0,0.0079521 -0.00326539,0.0151955 -0.00851176,0.02045l-5.23429e-005 5.23429e-005c-0.00525442,0.00524637 -0.0124979,0.00851176 -0.02045,0.00851176l-0.1576 0c-0.00795612,0 -0.0151955,-0.00326539 -0.02045,-0.00851176l-5.23429e-005 -5.23429e-005c-0.00524637,-0.00525442 -0.00851176,-0.0124979 -0.00851176,-0.02045l0 -0.11848c0,-0.00795612 0.00326539,-0.0151955 0.00851176,-0.02045l5.23429e-005 -5.23429e-005c0.00525442,-0.00524637 0.0124939,-0.00851176 0.02045,-0.00851176zm0.1576 0.0284101l-0.1576 0c-0.000173134,0 -0.000330163,6.03957e-005 -0.000442902,0.000161055 -0.000100659,0.000112739 -0.000161055,0.000269767 -0.000161055,0.000442902l0 0.11848c0,0.000173134 6.4422e-005,0.000326137 0.000161055,0.000438875 0.000112739,9.66331e-005 0.000269767,0.000165081 0.000442902,0.000165081l0.1576 0c0.000173134,0 0.000330163,-6.03957e-005 0.000442902,-0.000161055 0.000100659,-0.000112739 0.000161055,-0.000269767 0.000161055,-0.000442902l0 -0.11848c0,-0.000173134 -6.84484e-005,-0.000330163 -0.000165081,-0.000442902 -0.000112739,-9.66331e-005 -0.000265741,-0.000161055 -0.000438875,-0.000161055z"/>
  <rect class="fil0 str0" x="0.450982" y="1.07656" width="0.335317" height="0.111772"/>
  <rect class="fil0 str0" x="5.2565" y="1.07656" width="0.335317" height="0.111772"/>
 </g>
<metadata><rdf:RDF><cc:Work><dc:format>image/svg+xml</dc:format><dc:type rdf:resource="http://purl.org/dc/dcmitype/StillImage"/><cc:license rdf:resource="http://creativecommons.org/licenses/publicdomain/"/><dc:publisher><cc:Agent rdf:about="http://openclipart.org/"><dc:title>Open Clip Art Library</dc:title></cc:Agent></dc:publisher><dc:title>8 Port Switch Hub</dc:title><dc:date>2011-04-19T14:30:21</dc:date><dc:description>8 Port switch hub</dc:description><dc:source>http://openclipart.org/detail/133075/8-port-switch-hub-by-thebyteman</dc:source><dc:creator><cc:Agent><dc:title>TheByteMan</dc:title></cc:Agent></dc:creator><dc:subject><rdf:Bag><rdf:li>8 Port</rdf:li><rdf:li>Ethernet</rdf:li><rdf:li>Hub</rdf:li><rdf:li>Network</rdf:li><rdf:li>Router</rdf:li><rdf:li>Switch</rdf:li><rdf:li>Wired</rdf:li><rdf:li>clip art</rdf:li><rdf:li>clipart</rdf:li></rdf:Bag></dc:subject></cc:Work><cc:License rdf:about="http://creativecommons.org/licenses/publicdomain/"><cc:permits rdf:resource="http://creativecommons.org/ns#Reproduction"/><cc:permits rdf:resource="http://creativecommons.org/ns#Distribution"/><cc:permits rdf:resource="http://creativecommons.org/ns#DerivativeWorks"/></cc:License></rdf:RDF></metadata></svg>
