<?xml version="1.0" encoding="UTF-8" standalone="no"?>
<!-- Created with Inkscape (http://www.inkscape.org/) -->
<svg xmlns:dc="http://purl.org/dc/elements/1.1/" xmlns:cc="http://creativecommons.org/ns#" xmlns:rdf="http://www.w3.org/1999/02/22-rdf-syntax-ns#" xmlns:svg="http://www.w3.org/2000/svg" xmlns="http://www.w3.org/2000/svg" xmlns:xlink="http://www.w3.org/1999/xlink" xmlns:sodipodi="http://sodipodi.sourceforge.net/DTD/sodipodi-0.dtd" xmlns:inkscape="http://www.inkscape.org/namespaces/inkscape" width="282.79007" height="354.01712" id="svg4561" version="1.1" inkscape:version="0.48.1 r9760" sodipodi:docname="tablet.svg">
  <defs id="defs4563">
    <linearGradient inkscape:collect="always" id="linearGradient5195">
      <stop style="stop-color:#cccccc;stop-opacity:1;" offset="0" id="stop5197"/>
      <stop style="stop-color:#cccccc;stop-opacity:0;" offset="1" id="stop5199"/>
    </linearGradient>
    <linearGradient inkscape:collect="always" id="linearGradient5113">
      <stop style="stop-color:#e6e6e6;stop-opacity:1;" offset="0" id="stop5115"/>
      <stop style="stop-color:#e6e6e6;stop-opacity:0;" offset="1" id="stop5117"/>
    </linearGradient>
    <linearGradient inkscape:collect="always" id="linearGradient4573">
      <stop style="stop-color:#ffffff;stop-opacity:1;" offset="0" id="stop4575"/>
      <stop style="stop-color:#ffffff;stop-opacity:0;" offset="1" id="stop4577"/>
    </linearGradient>
    <linearGradient inkscape:collect="always" xlink:href="#linearGradient4573" id="linearGradient5104" gradientUnits="userSpaceOnUse" x1="28.571428" y1="-39.066387" x2="345.71429" y2="432.36218" gradientTransform="matrix(1.2107335,0,0,1,-34.183962,9.5897502)"/>
    <linearGradient inkscape:collect="always" xlink:href="#linearGradient5113" id="linearGradient5119" x1="414.28571" y1="-4.7806745" x2="417.14285" y2="209.50504" gradientUnits="userSpaceOnUse" gradientTransform="translate(-8,10)"/>
    <filter inkscape:collect="always" id="filter5165" x="-0.23668832" width="1.4733766" y="-1.1525692" height="3.3051383" color-interpolation-filters="sRGB">
      <feGaussianBlur inkscape:collect="always" stdDeviation="13.413638" id="feGaussianBlur5167"/>
    </filter>
    <linearGradient inkscape:collect="always" xlink:href="#linearGradient5195" id="linearGradient5201" x1="363.1066" y1="85.697083" x2="360.6778" y2="499.80862" gradientUnits="userSpaceOnUse" gradientTransform="matrix(1,0,0,1.0736706,-3.6432117,-8.9092533)"/>
    <linearGradient y2="209.49089" x2="224.85995" y1="-8.2979889" x1="217.08179" gradientTransform="matrix(0.50971696,0,0,0.50971696,251.98397,-15.938793)" gradientUnits="userSpaceOnUse" id="linearGradient3973" xlink:href="#linearGradient3831" inkscape:collect="always"/>
    <linearGradient y2="209.49089" x2="224.85995" y1="-8.2979889" x1="217.08179" gradientTransform="translate(0.35213882,-4)" gradientUnits="userSpaceOnUse" id="linearGradient3970" xlink:href="#linearGradient3831" inkscape:collect="always"/>
    <linearGradient y2="209.49089" x2="224.85995" y1="-8.2979889" x1="217.08179" gradientTransform="translate(260.56744,-2.5857864)" gradientUnits="userSpaceOnUse" id="linearGradient3893" xlink:href="#linearGradient3831" inkscape:collect="always"/>
    <linearGradient y2="209.49089" x2="224.85995" y1="-8.2979889" x1="217.08179" gradientTransform="translate(0.35213882,-4)" gradientUnits="userSpaceOnUse" id="linearGradient3890" xlink:href="#linearGradient3831" inkscape:collect="always"/>
    <linearGradient gradientTransform="translate(0.35213882,-4)" gradientUnits="userSpaceOnUse" y2="209.49089" x2="224.85995" y1="-8.2979889" x1="217.08179" id="linearGradient3837" xlink:href="#linearGradient3831" inkscape:collect="always"/>
    <filter color-interpolation-filters="sRGB" id="filter3824" inkscape:collect="always">
      <feGaussianBlur id="feGaussianBlur3826" stdDeviation="1.678799" inkscape:collect="always"/>
    </filter>
    <filter color-interpolation-filters="sRGB" id="filter3804" inkscape:collect="always">
      <feGaussianBlur id="feGaussianBlur3806" stdDeviation="3.9955417" inkscape:collect="always"/>
    </filter>
    <linearGradient id="linearGradient3831" inkscape:collect="always">
      <stop id="stop3833" offset="0" style="stop-color:#ffffff;stop-opacity:1;"/>
      <stop id="stop3835" offset="1" style="stop-color:#ffffff;stop-opacity:0;"/>
    </linearGradient>
    <linearGradient gradientTransform="matrix(0.34903298,0,0,0.34903298,295.89487,-10.355019)" y2="124.71517" x2="-302.18805" y1="54.438881" x1="-302.18805" gradientUnits="userSpaceOnUse" id="linearGradient3219" xlink:href="#linearGradient3862" inkscape:collect="always"/>
    <linearGradient y2="124.71517" x2="-302.18805" y1="54.438881" x1="-302.18805" gradientUnits="userSpaceOnUse" id="linearGradient3961" xlink:href="#linearGradient3862" inkscape:collect="always"/>
    <linearGradient gradientUnits="userSpaceOnUse" y2="124.71517" x2="-302.18805" y1="54.438881" x1="-302.18805" id="linearGradient3868" xlink:href="#linearGradient3862" inkscape:collect="always"/>
    <linearGradient id="linearGradient3862" inkscape:collect="always">
      <stop id="stop3864" offset="0" style="stop-color:#ffffff;stop-opacity:1;"/>
      <stop id="stop3866" offset="1" style="stop-color:#ffffff;stop-opacity:0;"/>
    </linearGradient>
    <linearGradient inkscape:collect="always" xlink:href="#linearGradient4573" id="linearGradient5678" gradientUnits="userSpaceOnUse" gradientTransform="matrix(1.2107335,0,0,1,-782.19629,-748.59981)" x1="108.81392" y1="25.296993" x2="271.48999" y2="272.06094"/>
    <linearGradient inkscape:collect="always" xlink:href="#linearGradient5113" id="linearGradient3105" gradientUnits="userSpaceOnUse" gradientTransform="translate(-8,10)" x1="414.28571" y1="-4.7806745" x2="417.14285" y2="209.50504"/>
    <linearGradient inkscape:collect="always" xlink:href="#linearGradient4573" id="linearGradient3107" gradientUnits="userSpaceOnUse" gradientTransform="matrix(1.2107335,0,0,1,-782.19629,-748.59981)" x1="108.81392" y1="25.296993" x2="271.48999" y2="272.06094"/>
    <linearGradient inkscape:collect="always" xlink:href="#linearGradient4573" id="linearGradient3109" gradientUnits="userSpaceOnUse" gradientTransform="matrix(1.2107335,0,0,1,-34.183962,9.5897502)" x1="28.571428" y1="-39.066387" x2="345.71429" y2="432.36218"/>
    <linearGradient inkscape:collect="always" xlink:href="#linearGradient5195" id="linearGradient3111" gradientUnits="userSpaceOnUse" gradientTransform="matrix(1,0,0,1.0736706,-3.6432117,-8.9092533)" x1="363.1066" y1="85.697083" x2="360.6778" y2="499.80862"/>
  </defs>
  <sodipodi:namedview id="base" pagecolor="#ffffff" bordercolor="#666666" borderopacity="1.0" inkscape:pageopacity="0.0" inkscape:pageshadow="2" inkscape:zoom="0.5822668" inkscape:cx="369.83394" inkscape:cy="-17.003346" inkscape:document-units="px" inkscape:current-layer="layer1" showgrid="false" inkscape:window-width="1230" inkscape:window-height="776" inkscape:window-x="50" inkscape:window-y="24" inkscape:window-maximized="1" fit-margin-top="0" fit-margin-left="0" fit-margin-right="0" fit-margin-bottom="0"/>
  <g inkscape:label="Layer 1" inkscape:groupmode="layer" id="layer1" transform="translate(-10.093103,-10.398061)">
    <g id="g3060" transform="matrix(0.59592569,0,0,0.59592569,-75.087025,-38.505091)">
      <path style="fill:#1a1a1a;fill-opacity:1;stroke:none" d="m 206.57143,83.219322 365.19091,0 c 25.32571,0 45.71428,20.388568 45.71428,45.714288 l 0,497.14284 c 0,25.32571 -20.38857,45.71428 -45.71428,45.71428 l -365.19091,0 c -25.32571,0 -45.71428,-20.38857 -45.71428,-45.71428 l 0,-497.14284 c 0,-25.32572 20.38857,-45.714288 45.71428,-45.714288 z" id="rect5107"/>
      <path style="fill:url(#linearGradient3105);fill-opacity:1;stroke:none" d="m 204.57143,83.219322 365.19091,0 c 25.32571,0 45.71428,20.388568 45.71428,45.714288 l 0,497.14284 c 0,25.32571 -20.38857,45.71428 -45.71428,45.71428 l -365.19091,0 c -25.32571,0 -45.71428,-20.38857 -45.71428,-45.71428 l 0,-497.14284 c 0,-25.32572 20.38857,-45.714288 45.71428,-45.714288 z" id="rect5111"/>
      <path style="fill:#000000;stroke:#000000;stroke-width:5.50166702;stroke-linecap:round;stroke-miterlimit:4;stroke-opacity:1" d="m 191.41071,84.809074 365.19091,0 c 25.32571,0 45.71428,20.388576 45.71428,45.714286 l 0,497.14284 c 0,25.32571 -20.38857,45.71429 -45.71428,45.71429 l -365.19091,0 c -25.32571,0 -45.71428,-20.38858 -45.71428,-45.71429 l 0,-497.14284 c 0,-25.32571 20.38857,-45.714286 45.71428,-45.714286 z" id="rect4569"/>
      <path transform="scale(-1,-1)" style="opacity:0.18055558;fill:url(#linearGradient3107);fill-opacity:1;stroke:none" d="m -556.60163,-673.38049 365.1909,0 c 25.32572,0 45.71429,20.38857 45.71429,45.71428 l 0,497.14284 c 0,25.32572 -20.38857,45.714288 -45.71429,45.714288 l -365.1909,0 c -25.32572,0 -45.71429,-20.388568 -45.71429,-45.714288 l 0,-497.14284 c 0,-25.32571 20.38857,-45.71428 45.71429,-45.71428 z" id="rect5676"/>
      <path style="fill:url(#linearGradient3109);fill-opacity:1;stroke:none" d="m 191.41071,84.809074 365.19091,0 c 25.32571,0 45.71428,20.388576 45.71428,45.714286 l 0,497.14284 c 0,25.32571 -20.38857,45.71429 -45.71428,45.71429 l -365.19091,0 c -25.32571,0 -45.71428,-20.38858 -45.71428,-45.71429 l 0,-497.14284 c 0,-25.32571 20.38857,-45.714286 45.71428,-45.714286 z" id="rect4571"/>
      <path style="fill:#000000;fill-opacity:1;stroke:#cccccc" d="m 181.47273,120.93362 391.34028,0 c 0.81588,0 1.47271,0.65683 1.47271,1.47271 l 0,458.61301 c 0,0.81589 -0.65683,1.47272 -1.47271,1.47272 l -391.34028,0 c -0.81588,0 -1.47271,-0.65683 -1.47271,-1.47272 l 0,-458.61301 c 0,-0.81588 0.65683,-1.47271 1.47271,-1.47271 z" id="rect4581"/>
      <path style="opacity:0.41203703;fill:#1a1a1a;fill-opacity:1;stroke:#999999;stroke-width:0.58575481" d="m 282.6348,268.66464 196.12676,0 c 7.40957,0 13.37467,5.96511 13.37467,13.37467 l 0,174.80384 c 0,7.40957 -5.9651,13.37467 -13.37467,13.37467 l -196.12676,0 c -7.40957,0 -13.37467,-5.9651 -13.37467,-13.37467 l 0,-174.80384 c 0,-7.40956 5.9651,-13.37467 13.37467,-13.37467 z" id="rect5674"/>
      <g transform="translate(3.5553131,18.196404)" id="g5436">
        <g style="font-size:40px;font-style:normal;font-weight:normal;line-height:125%;letter-spacing:0px;word-spacing:0px;fill:#ffffff;fill-opacity:1;stroke:none;font-family:Sans" id="text5169">
          <path d="m 304.35067,411.71003 0,9.192 5.16,0 0,-2.208 c -2e-5,-0.52799 0.072,-0.89599 0.216,-1.104 0.23998,-0.33599 0.56798,-0.50399 0.984,-0.504 0.43198,1e-5 0.77598,0.19201 1.032,0.576 0.11198,0.17601 0.16798,0.52001 0.168,1.032 l 0,4.608 -11.328,0 c -0.54401,0 -0.90401,-0.08 -1.08,-0.24 -0.33601,-0.24 -0.50401,-0.56 -0.504,-0.96 -1e-5,-0.464 0.19199,-0.808 0.576,-1.032 0.17599,-0.112 0.51199,-0.168 1.008,-0.168 l 1.368,0 0,-9.192 -1.368,0 c -0.52801,10e-6 -0.88801,-0.072 -1.08,-0.216 -0.33601,-0.25599 -0.50401,-0.58399 -0.504,-0.984 -1e-5,-0.46398 0.19199,-0.80798 0.576,-1.032 0.17599,-0.11198 0.51199,-0.16798 1.008,-0.168 l 5.136,0 c 0.51199,2e-5 0.87199,0.072 1.08,0.216 0.33599,0.25602 0.50399,0.58402 0.504,0.984 -10e-6,0.46401 -0.19201,0.80801 -0.576,1.032 -0.17601,0.11201 -0.51201,0.16801 -1.008,0.168 l -1.368,0" style="font-size:24px;font-variant:normal;font-weight:bold;font-stretch:normal;font-family:TlwgTypewriter;-inkscape-font-specification:TlwgTypewriter Bold" id="path3071"/>
          <path d="m 320.99729,412.81403 0,8.088 2.928,0 c 0.51199,0 0.87199,0.072 1.08,0.216 0.33599,0.256 0.50399,0.584 0.504,0.984 -1e-5,0.432 -0.19201,0.776 -0.576,1.032 -0.19201,0.112 -0.52801,0.168 -1.008,0.168 l -8.256,0 c -0.544,0 -0.904,-0.08 -1.08,-0.24 -0.336,-0.24 -0.504,-0.56 -0.504,-0.96 0,-0.464 0.192,-0.808 0.576,-1.032 0.16,-0.112 0.496,-0.168 1.008,-0.168 l 2.928,0 0,-5.688 -1.872,0 c -0.56,1e-5 -0.928,-0.08 -1.104,-0.24 -0.336,-0.23999 -0.504,-0.55999 -0.504,-0.96 0,-0.46399 0.192,-0.80799 0.576,-1.032 0.176,-0.11199 0.52,-0.16799 1.032,-0.168 l 4.272,0 m -0.336,-4.464 0,2.52 -2.832,0 0,-2.52 2.832,0" style="font-size:24px;font-variant:normal;font-weight:bold;font-stretch:normal;font-family:TlwgTypewriter;-inkscape-font-specification:TlwgTypewriter Bold" id="path3073"/>
          <path d="m 327.80392,414.01403 c -1e-5,-0.79999 0.53599,-1.19999 1.608,-1.2 l 2.256,0 0,1.152 c 0.57599,-0.54399 1.10399,-0.91999 1.584,-1.128 0.47999,-0.22399 1.04799,-0.33599 1.704,-0.336 1.24799,1e-5 2.27198,0.35201 3.072,1.056 0.79998,0.70401 1.19998,1.69601 1.2,2.976 l 0,4.368 c 0.97598,0 1.46398,0.4 1.464,1.2 -2e-5,0.464 -0.19202,0.808 -0.576,1.032 -0.17602,0.112 -0.51202,0.168 -1.008,0.168 l -2.136,0 c -1.07201,0 -1.60801,-0.4 -1.608,-1.2 -1e-5,-0.8 0.48799,-1.2 1.464,-1.2 l 0,-4.272 c -1e-5,-1.15199 -0.72001,-1.72799 -2.16,-1.728 -0.56001,10e-6 -1.06401,0.12001 -1.512,0.36 -0.43201,0.24001 -0.92801,0.66401 -1.488,1.272 l 0,4.368 0.144,0 c 0.51199,0 0.87199,0.072 1.08,0.216 0.33599,0.256 0.50399,0.584 0.504,0.984 -10e-6,0.432 -0.19201,0.776 -0.576,1.032 -0.17601,0.112 -0.51201,0.168 -1.008,0.168 l -2.688,0 c -0.51201,0 -0.88001,-0.08 -1.104,-0.24 -0.32001,-0.24 -0.48001,-0.56 -0.48,-0.96 -10e-6,-0.464 0.19199,-0.808 0.576,-1.032 0.20799,-0.112 0.54399,-0.168 1.008,-0.168 l 0.144,0 0,-5.688 c -0.97601,-0.032 -1.46401,-0.43199 -1.464,-1.2" style="font-size:24px;font-variant:normal;font-weight:bold;font-stretch:normal;font-family:TlwgTypewriter;-inkscape-font-specification:TlwgTypewriter Bold" id="path3075"/>
          <path d="m 347.93054,423.61403 c -1.26401,0 -2.296,-0.352 -3.096,-1.056 -0.784,-0.72 -1.176,-1.72 -1.176,-3 l 0,-4.344 -0.648,0 c -0.4,1e-5 -0.72,-0.11199 -0.96,-0.336 -0.24,-0.22399 -0.36,-0.51199 -0.36,-0.864 0,-0.46399 0.192,-0.80799 0.576,-1.032 0.176,-0.11199 0.512,-0.16799 1.008,-0.168 l 2.784,0 0,6.672 c 0,1.15201 0.70399,1.728 2.112,1.728 0.60799,0 1.11199,-0.104 1.512,-0.312 0.39999,-0.22399 0.91199,-0.66399 1.536,-1.32 l 0,-4.368 -0.84,0 c -0.48001,1e-5 -0.79201,-0.048 -0.936,-0.144 -0.048,-0.032 -0.096,-0.064 -0.144,-0.096 -0.33601,-0.27199 -0.50401,-0.59199 -0.504,-0.96 -10e-6,-0.46399 0.19199,-0.80799 0.576,-1.032 0.17599,-0.11199 0.51199,-0.16799 1.008,-0.168 l 3.24,0 0,8.088 c 0.97599,0 1.46399,0.4 1.464,1.2 -10e-6,0.432 -0.19201,0.776 -0.576,1.032 -0.17601,0.112 -0.51201,0.168 -1.008,0.168 l -2.28,0 0,-1.152 c -0.59201,0.56 -1.12801,0.944 -1.608,1.152 -0.46401,0.208 -1.02401,0.312 -1.68,0.312" style="font-size:24px;font-variant:normal;font-weight:bold;font-stretch:normal;font-family:TlwgTypewriter;-inkscape-font-specification:TlwgTypewriter Bold" id="path3077"/>
          <path d="m 363.78517,414.03803 c -10e-6,-0.81599 0.52799,-1.22399 1.584,-1.224 l 2.184,0 c 0.52798,10e-6 0.89598,0.072 1.104,0.216 0.33598,0.25601 0.50398,0.58401 0.504,0.984 -2e-5,0.72001 -0.42402,1.12001 -1.272,1.2 l -3.168,2.64 3.648,3.048 c 0.86398,0.048 1.29598,0.448 1.296,1.2 -2e-5,0.448 -0.19202,0.792 -0.576,1.032 -0.17602,0.112 -0.51202,0.168 -1.008,0.168 l -2.688,0 c -0.52801,0 -0.90401,-0.08 -1.128,-0.24 -0.32001,-0.24 -0.48001,-0.568 -0.48,-0.984 -10e-6,-0.608 0.31999,-1 0.96,-1.176 l -1.8,-1.464 -1.752,1.464 c 0.60799,0.256 0.91199,0.648 0.912,1.176 -10e-6,0.816 -0.52801,1.224 -1.584,1.224 l -2.664,0 c -1.05601,0 -1.58401,-0.4 -1.584,-1.2 -10e-6,-0.752 0.43199,-1.152 1.296,-1.2 l 3.48,-3.072 -3.072,-2.616 c -0.83201,-0.08 -1.24801,-0.47999 -1.248,-1.2 -1e-5,-0.79999 0.52799,-1.19999 1.584,-1.2 l 2.208,0 c 0.54399,10e-6 0.91199,0.08 1.104,0.24 0.31999,0.24001 0.47999,0.55201 0.48,0.936 -10e-6,0.46401 -0.20801,0.83201 -0.624,1.104 l 1.464,1.176 1.464,-1.2 c -0.41601,-0.28799 -0.62401,-0.63199 -0.624,-1.032" style="font-size:24px;font-variant:normal;font-weight:bold;font-stretch:normal;font-family:TlwgTypewriter;-inkscape-font-specification:TlwgTypewriter Bold" id="path3079"/>
          <path d="m 392.95042,411.71003 0,9.192 2.424,0 c 0.51198,0 0.87198,0.072 1.08,0.216 0.33598,0.24 0.50398,0.568 0.504,0.984 -2e-5,0.8 -0.52802,1.2 -1.584,1.2 l -7.248,0 c -0.51201,0 -0.87201,-0.08 -1.08,-0.24 -0.33601,-0.24 -0.50401,-0.56 -0.504,-0.96 -10e-6,-0.464 0.19199,-0.808 0.576,-1.032 0.17599,-0.112 0.51199,-0.168 1.008,-0.168 l 2.424,0 0,-9.192 -2.424,0 c -0.52801,10e-6 -0.88801,-0.072 -1.08,-0.216 -0.33601,-0.25599 -0.50401,-0.58399 -0.504,-0.984 -10e-6,-0.46398 0.19199,-0.80798 0.576,-1.032 0.17599,-0.11198 0.51199,-0.16798 1.008,-0.168 l 7.248,0 c 0.51198,2e-5 0.87198,0.072 1.08,0.216 0.33598,0.24002 0.50398,0.56802 0.504,0.984 -2e-5,0.46401 -0.19202,0.80801 -0.576,1.032 -0.17602,0.11201 -0.51202,0.16801 -1.008,0.168 l -2.424,0" style="font-size:24px;font-variant:normal;font-weight:bold;font-stretch:normal;font-family:TlwgTypewriter;-inkscape-font-specification:TlwgTypewriter Bold" id="path3081"/>
          <path d="m 399.75704,414.01403 c 0,-0.79999 0.536,-1.19999 1.608,-1.2 l 2.256,0 0,1.152 c 0.57599,-0.54399 1.10399,-0.91999 1.584,-1.128 0.47999,-0.22399 1.04799,-0.33599 1.704,-0.336 1.24799,1e-5 2.27199,0.35201 3.072,1.056 0.79999,0.70401 1.19999,1.69601 1.2,2.976 l 0,4.368 c 0.97599,0 1.46399,0.4 1.464,1.2 -10e-6,0.464 -0.19201,0.808 -0.576,1.032 -0.17601,0.112 -0.51201,0.168 -1.008,0.168 l -2.136,0 c -1.07201,0 -1.60801,-0.4 -1.608,-1.2 -1e-5,-0.8 0.48799,-1.2 1.464,-1.2 l 0,-4.272 c -1e-5,-1.15199 -0.72001,-1.72799 -2.16,-1.728 -0.56001,10e-6 -1.06401,0.12001 -1.512,0.36 -0.43201,0.24001 -0.92801,0.66401 -1.488,1.272 l 0,4.368 0.144,0 c 0.51199,0 0.87199,0.072 1.08,0.216 0.33599,0.256 0.50399,0.584 0.504,0.984 -10e-6,0.432 -0.19201,0.776 -0.576,1.032 -0.17601,0.112 -0.51201,0.168 -1.008,0.168 l -2.688,0 c -0.512,0 -0.88,-0.08 -1.104,-0.24 -0.32,-0.24 -0.48,-0.56 -0.48,-0.96 0,-0.464 0.192,-0.808 0.576,-1.032 0.208,-0.112 0.544,-0.168 1.008,-0.168 l 0.144,0 0,-5.688 c -0.976,-0.032 -1.464,-0.43199 -1.464,-1.2" style="font-size:24px;font-variant:normal;font-weight:bold;font-stretch:normal;font-family:TlwgTypewriter;-inkscape-font-specification:TlwgTypewriter Bold" id="path3083"/>
          <path d="m 424.27567,416.55803 c -0.46402,1e-5 -0.88002,-0.31999 -1.248,-0.96 -0.65601,-0.46399 -1.48001,-0.69599 -2.472,-0.696 -0.60801,10e-6 -1.16001,0.088 -1.656,0.264 -0.48001,0.16001 -0.72001,0.35201 -0.72,0.576 -10e-6,0.22401 0.20799,0.41601 0.624,0.576 0.23999,0.08 0.91199,0.20001 2.016,0.36 1.63199,0.22401 2.79198,0.52801 3.48,0.912 0.52798,0.28801 0.93598,0.67201 1.224,1.152 0.30398,0.48001 0.45598,1.00001 0.456,1.56 -2e-5,0.976 -0.50402,1.784 -1.512,2.424 -1.00802,0.64 -2.28801,0.96 -3.84,0.96 -1.39201,0 -2.57601,-0.232 -3.552,-0.696 -0.24001,0.192 -0.49601,0.288 -0.768,0.288 -0.46401,0 -0.81601,-0.192 -1.056,-0.576 -0.11201,-0.208 -0.16801,-0.544 -0.168,-1.008 l 0,-0.792 c -10e-6,-0.54399 0.08,-0.91199 0.24,-1.104 0.23999,-0.33599 0.56799,-0.50399 0.984,-0.504 0.60799,10e-6 1.01599,0.35201 1.224,1.056 0.68799,0.624 1.68799,0.936 3,0.936 0.76799,0 1.42399,-0.104 1.968,-0.312 0.55999,-0.20799 0.83999,-0.44799 0.84,-0.72 -1e-5,-0.35199 -0.27201,-0.63199 -0.816,-0.84 -0.36801,-0.14399 -1.10401,-0.27999 -2.208,-0.408 -1.68001,-0.17599 -2.89601,-0.51999 -3.648,-1.032 -0.75201,-0.51199 -1.12801,-1.23999 -1.128,-2.184 -10e-6,-0.95999 0.46399,-1.74399 1.392,-2.352 0.92799,-0.62399 2.11199,-0.93599 3.552,-0.936 1.16799,1e-5 2.19999,0.20801 3.096,0.624 0.17598,-0.41599 0.43198,-0.62399 0.768,-0.624 0.75198,1e-5 1.12798,0.52801 1.128,1.584 l 0,0.888 c -2e-5,0.52801 -0.072,0.89601 -0.216,1.104 -0.27202,0.32001 -0.60002,0.48001 -0.984,0.48" style="font-size:24px;font-variant:normal;font-weight:bold;font-stretch:normal;font-family:TlwgTypewriter;-inkscape-font-specification:TlwgTypewriter Bold" id="path3085"/>
          <path d="m 436.12229,412.81403 0,8.088 2.928,0 c 0.51199,0 0.87199,0.072 1.08,0.216 0.33599,0.256 0.50399,0.584 0.504,0.984 -1e-5,0.432 -0.19201,0.776 -0.576,1.032 -0.19201,0.112 -0.52801,0.168 -1.008,0.168 l -8.256,0 c -0.544,0 -0.904,-0.08 -1.08,-0.24 -0.336,-0.24 -0.504,-0.56 -0.504,-0.96 0,-0.464 0.192,-0.808 0.576,-1.032 0.16,-0.112 0.496,-0.168 1.008,-0.168 l 2.928,0 0,-5.688 -1.872,0 c -0.56,1e-5 -0.928,-0.08 -1.104,-0.24 -0.336,-0.23999 -0.504,-0.55999 -0.504,-0.96 0,-0.46399 0.192,-0.80799 0.576,-1.032 0.176,-0.11199 0.52,-0.16799 1.032,-0.168 l 4.272,0 m -0.336,-4.464 0,2.52 -2.832,0 0,-2.52 2.832,0" style="font-size:24px;font-variant:normal;font-weight:bold;font-stretch:normal;font-family:TlwgTypewriter;-inkscape-font-specification:TlwgTypewriter Bold" id="path3087"/>
          <path d="m 454.85692,408.32603 0,12.576 0.384,0 c 0.52798,0 0.89598,0.072 1.104,0.216 0.31998,0.272 0.47998,0.6 0.48,0.984 -2e-5,0.464 -0.19202,0.808 -0.576,1.032 -0.17602,0.112 -0.51202,0.168 -1.008,0.168 l -2.784,0 0,-0.84 c -1.15201,0.784 -2.36001,1.176 -3.624,1.176 -1.74401,0 -3.16001,-0.52 -4.248,-1.56 -1.12001,-1.088 -1.68001,-2.43199 -1.68,-4.032 -1e-5,-1.59999 0.55999,-2.93599 1.68,-4.008 1.08799,-1.03999 2.51199,-1.55999 4.272,-1.56 1.39199,1e-5 2.59199,0.40001 3.6,1.2 l 0,-2.976 -0.384,0 c -0.52801,2e-5 -0.89601,-0.072 -1.104,-0.216 -0.32001,-0.27198 -0.48001,-0.59998 -0.48,-0.984 -1e-5,-0.44798 0.19199,-0.78398 0.576,-1.008 0.17599,-0.11198 0.51199,-0.16798 1.008,-0.168 l 2.784,0 m -6,6.552 c -1.10401,10e-6 -1.97601,0.32001 -2.616,0.96 -0.62401,0.62401 -0.93601,1.36001 -0.936,2.208 -10e-6,0.91201 0.32799,1.67201 0.984,2.28 0.67199,0.608 1.53599,0.912 2.592,0.912 1.10399,0 1.98399,-0.32 2.64,-0.96 0.62399,-0.62399 0.93598,-1.35199 0.936,-2.184 -2e-5,-0.87999 -0.31201,-1.63199 -0.936,-2.256 -0.65601,-0.63999 -1.54401,-0.95999 -2.664,-0.96" style="font-size:24px;font-variant:normal;font-weight:bold;font-stretch:normal;font-family:TlwgTypewriter;-inkscape-font-specification:TlwgTypewriter Bold" id="path3089"/>
          <path d="m 469.70354,419.17403 -9.792,0 c 0.544,1.40801 1.85599,2.112 3.936,2.112 0.89599,0 2.19999,-0.224 3.912,-0.672 0.31999,-0.08 0.58399,-0.11999 0.792,-0.12 0.31999,10e-6 0.59199,0.12001 0.816,0.36 0.22399,0.224 0.33599,0.504 0.336,0.84 -10e-6,0.464 -0.28001,0.824 -0.84,1.08 -0.54401,0.24 -1.34401,0.448 -2.4,0.624 -1.04001,0.192 -1.98401,0.288 -2.832,0.288 -1.85601,0 -3.376,-0.52 -4.56,-1.56 -1.184,-1.04 -1.776,-2.37599 -1.776,-4.008 0,-1.58399 0.592,-2.91199 1.776,-3.984 1.2,-1.08799 2.67199,-1.63199 4.416,-1.632 1.79199,1e-5 3.27199,0.54401 4.44,1.632 1.18399,1.08801 1.77599,2.45601 1.776,4.104 l 0,0.936 m -9.72,-2.112 7.056,0 c -0.19201,-0.65599 -0.60801,-1.17599 -1.248,-1.56 -0.64001,-0.39999 -1.40001,-0.59999 -2.28,-0.6 -0.88001,10e-6 -1.64801,0.20001 -2.304,0.6 -0.64,0.40001 -1.048,0.92001 -1.224,1.56" style="font-size:24px;font-variant:normal;font-weight:bold;font-stretch:normal;font-family:TlwgTypewriter;-inkscape-font-specification:TlwgTypewriter Bold" id="path3091"/>
        </g>
        <path transform="translate(-7.8230133,-57.076158)" style="opacity:0.52777782;fill:#e6e6e6;fill-opacity:1;stroke:none;filter:url(#filter5165)" d="m 452.97247,440.91006 c 0,7.71301 -30.44759,13.96564 -68.00659,13.96564 -37.559,0 -68.00659,-6.25263 -68.00659,-13.96564 0,-7.713 30.44759,-13.96563 68.00659,-13.96563 37.559,0 68.00659,6.25263 68.00659,13.96563 z" id="path5159"/>
        <g transform="matrix(0.59349611,0,0,0.59349611,-119.81425,78.926062)" id="layer1-6" inkscape:label="Layer 1" style="opacity:0.69444442">
          <path style="fill:#000000;fill-opacity:1;stroke:none" d="m 878.37199,396.19722 c -8.51392,5.5867 -9.50124,23.05968 -2.21372,39.17705 12.95673,28.76065 35.51015,52.83349 41.91596,48.63009 6.40581,-4.20341 4.16966,-34.85127 -11.17979,-68.79875 -7.28751,-16.11737 -20.00853,-24.59511 -28.52245,-19.00839 z" id="path5345" inkscape:connector-curvature="0" sodipodi:nodetypes="sczcs"/>
          <path sodipodi:nodetypes="sczcs" inkscape:connector-curvature="0" id="rect5342" d="m 807.3423,396.19722 c 8.51392,5.5867 9.50124,23.05968 2.21372,39.17705 -12.95673,28.76065 -35.51015,52.83349 -41.91596,48.63009 -6.40581,-4.20341 -4.16966,-34.85127 11.17979,-68.79875 7.28751,-16.11737 20.00853,-24.59511 28.52245,-19.00839 z" style="fill:#000000;fill-opacity:1;stroke:none"/>
          <path sodipodi:nodetypes="scsscccsss" inkscape:connector-curvature="0" id="rect5259" d="m 842.49113,326.15431 c -26.50277,0 -43.9552,20.11565 -44.875,45.4375 0,0 -0.0303,-0.0104 -0.0312,0 -1.37359,15.90267 -7.79032,26.78287 -10.40625,42.0625 -13.55695,79.18596 -0.1875,79.07307 10.8125,102 29.33333,-5.36618 58.66667,-6.1266 88,0 0,0 37.19752,-27.46913 11,-101.5 -5.78568,-10.92301 -6.49267,-28.35802 -9.62495,-42.5625 -5.22029,-23.67334 -18.37223,-45.4375 -44.875,-45.4375 z" style="fill:#000000;stroke:none"/>
          <path sodipodi:nodetypes="sssssss" inkscape:connector-curvature="0" id="rect5265" d="m 890.60826,451.64149 c 0,30.47 -10.927,39 -24.5,39 l -46,0 c -13.573,0 -24.5,-8.53 -24.5,-39 0,-30.47 10.927,-55 24.5,-55 l 46,0 c 13.573,0 24.5,24.53 24.5,55 z" style="fill:#ffffff;stroke:none"/>
          <g id="g5267" transform="matrix(0.9930942,0,0,0.95723115,458.16356,1158.3619)">
            <path style="fill:#ffffff;fill-opacity:1;stroke:none" d="m 402,-841.63782 c 5.54,0 10,8.028 10,18 0,9.972 -4.46,18 -10,18 -5.54,0 -10,-8.028 -10,-18 0,-9.972 4.46,-18 10,-18 z" id="rect5269"/>
            <path style="fill:#ffffff;fill-opacity:1;stroke:none" d="m 372,-841.63782 c 5.54,0 10,8.028 10,18 0,9.972 -4.46,18 -10,18 -5.54,0 -10,-8.028 -10,-18 0,-9.972 4.46,-18 10,-18 z" id="rect5271"/>
          </g>
          <path style="fill:#ecb63a;fill-opacity:1;stroke:none" d="m 875.26311,386.70169 c 0,8.72297 -14.67258,19.62325 -32.77211,19.62325 -18.09954,0 -32.77211,-10.90028 -32.77211,-19.62325 0,-8.72294 14.67257,-11.96538 32.77211,-11.96538 18.09953,0 32.77211,3.24244 32.77211,11.96538 z" id="path5273" inkscape:connector-curvature="0" sodipodi:nodetypes="sssss"/>
          <path style="fill:#876108;fill-opacity:1;stroke:none" d="m 815.73952,387.29458 c 3.55834,6.16026 13.97047,12.15028 26.25493,12.15028 12.28447,0 22.69659,-5.99002 26.25493,-12.15028 -5.30447,4.86543 -15.07294,8.93032 -26.25493,8.93032 -11.18199,0 -20.95046,-4.06489 -26.25493,-8.93032 z" id="path5275" inkscape:connector-curvature="0"/>
          <path style="fill:#000000;fill-opacity:1;stroke:none" d="m 857.38747,363.24945 c 3.66783,0 6.62063,3.4154 6.62063,7.65785 0,4.24245 -2.9528,7.65785 -6.62063,7.65785 -3.66782,0 -6.62062,-3.4154 -6.62062,-7.65785 0,-4.24245 2.9528,-7.65785 6.62062,-7.65785 z" id="rect5277"/>
          <path style="fill:#000000;fill-opacity:1;stroke:none" d="m 827.59456,363.24945 c 3.66783,0 6.62063,3.4154 6.62063,7.65785 0,4.24245 -2.9528,7.65785 -6.62063,7.65785 -3.66782,0 -6.62062,-3.4154 -6.62062,-7.65785 0,-4.24245 2.9528,-7.65785 6.62062,-7.65785 z" id="rect5279"/>
          <g id="g5416" transform="translate(272.99113,1153.7793)">
            <path style="fill:#ecb63a;fill-opacity:1;stroke:none" d="m 574.38561,-641.24281 c 0,-7.86496 -14.72344,-17.69305 -32.88574,-17.69305 -18.1623,0 -32.88574,9.82809 -32.88574,17.69305 0,7.86493 14.72344,10.78844 32.88574,10.78844 18.1623,0 32.88574,-2.92351 32.88574,-10.78844 z" id="path5347" inkscape:connector-curvature="0" sodipodi:nodetypes="sssss"/>
            <path style="fill:#926a0d;fill-opacity:1;stroke:none" d="m 569.27488,-644.625 c -1.1416,2.94429 -4.54665,6.17319 -8.9783,7.10756 -3.55015,0.7485 -6.90438,-0.17246 -9.09833,-1.73425 -1.9547,1.77298 -4.93095,3.12732 -8.25813,3.12732 -3.02043,0 -5.74243,-1.11375 -7.68196,-2.644 -2.08835,1.8756 -5.59239,3.13505 -9.38641,2.58714 -4.5417,-0.65587 -8.1424,-3.72491 -9.3624,-6.62423 -0.22081,0.36638 -0.38332,0.77713 -0.43211,1.25092 -0.34341,3.33524 3.95102,8.16851 9.79451,9.01239 3.79402,0.5479 7.29806,-0.71155 9.38641,-2.58715 1.93953,1.53025 4.66153,2.644 7.68196,2.644 3.32718,0 6.30343,-1.35434 8.25813,-3.12732 2.19395,1.56181 5.54818,2.48275 9.09833,1.73425 5.79562,-1.22195 9.85967,-6.35837 9.36239,-9.66628 -0.0604,-0.40239 -0.20095,-0.76671 -0.38409,-1.08035 z" id="path5352" inkscape:connector-curvature="0"/>
            <path sodipodi:nodetypes="sssss" inkscape:connector-curvature="0" id="path5408" d="m 632.38561,-641.24281 c 0,-7.86496 -14.72344,-17.69305 -32.88574,-17.69305 -18.1623,0 -32.88574,9.82809 -32.88574,17.69305 0,7.86493 14.72344,10.78844 32.88574,10.78844 18.1623,0 32.88574,-2.92351 32.88574,-10.78844 z" style="fill:#ecb63a;fill-opacity:1;stroke:none"/>
            <path inkscape:connector-curvature="0" id="path5410" d="m 627.27488,-644.625 c -1.1416,2.94429 -4.54665,6.17319 -8.9783,7.10756 -3.55015,0.7485 -6.90438,-0.17246 -9.09833,-1.73425 -1.9547,1.77298 -4.93095,3.12732 -8.25813,3.12732 -3.02043,0 -5.74243,-1.11375 -7.68196,-2.644 -2.08835,1.8756 -5.59239,3.13505 -9.38641,2.58714 -4.5417,-0.65587 -8.1424,-3.72491 -9.3624,-6.62423 -0.22081,0.36638 -0.38332,0.77713 -0.43211,1.25092 -0.34341,3.33524 3.95102,8.16851 9.79451,9.01239 3.79402,0.5479 7.29806,-0.71155 9.38641,-2.58715 1.93953,1.53025 4.66153,2.644 7.68196,2.644 3.32718,0 6.30343,-1.35434 8.25813,-3.12732 2.19395,1.56181 5.54818,2.48275 9.09833,1.73425 5.79562,-1.22195 9.85967,-6.35837 9.36239,-9.66628 -0.0604,-0.40239 -0.20095,-0.76671 -0.38409,-1.08035 z" style="fill:#926a0d;fill-opacity:1;stroke:none"/>
          </g>
        </g>
      </g>
      <g transform="translate(0,4)" id="g5399">
        <g id="g3839" transform="matrix(0.19648617,0,0,0.19648617,333.52543,590.80234)">
          <g style="stroke:#5599ff;filter:url(#filter3804)" id="g3794" transform="translate(-4.3927256,1.5643104)">
            <path transform="matrix(0.55367414,-0.83273342,0.83273342,0.55367414,-168.39544,531.42867)" style="fill:none;stroke:#5599ff;stroke-width:25;stroke-linecap:round;stroke-miterlimit:4;stroke-opacity:1" d="m 587.60574,118.27412 c 0,41.78609 -33.87433,75.66042 -75.66043,75.66042 -41.7861,0 -75.66042,-33.87433 -75.66042,-75.66042 0,-41.786101 33.87432,-75.660427 75.66042,-75.660427 9.56917,0 19.05149,1.815251 27.94409,5.349487" id="path3796"/>
            <path style="fill:none;stroke:#5599ff;stroke-width:25;stroke-linecap:round;stroke-linejoin:miter;stroke-miterlimit:4;stroke-opacity:1;stroke-dasharray:none" d="m 214.29865,77.962332 c -0.0906,108.326408 -0.0906,108.326408 -0.0906,108.326408" id="path3798" inkscape:connector-curvature="0"/>
          </g>
          <g transform="translate(-4.3927256,1.5643104)" style="stroke:#5599ff" id="g3765">
            <path transform="matrix(0.55367414,-0.83273342,0.83273342,0.55367414,-168.39544,531.42867)" style="fill:none;stroke:#5599ff;stroke-width:25;stroke-linecap:round;stroke-miterlimit:4;stroke-opacity:1" d="m 587.60574,118.27412 c 0,41.78609 -33.87433,75.66042 -75.66043,75.66042 -41.7861,0 -75.66042,-33.87433 -75.66042,-75.66042 0,-41.786101 33.87432,-75.660427 75.66042,-75.660427 9.56917,0 19.05149,1.815251 27.94409,5.349487" id="path3761"/>
            <path style="fill:none;stroke:#5599ff;stroke-width:25;stroke-linecap:round;stroke-linejoin:miter;stroke-miterlimit:4;stroke-opacity:1;stroke-dasharray:none" d="m 214.29865,77.962332 c -0.0906,108.326408 -0.0906,108.326408 -0.0906,108.326408" id="path3763" inkscape:connector-curvature="0"/>
          </g>
          <g transform="translate(-4.3927256,1.5643104)" id="g3788" style="opacity:0.83333333;stroke:#ffffff;stroke-width:10;stroke-miterlimit:4;stroke-dasharray:none;filter:url(#filter3824)">
            <path transform="matrix(0.55367414,-0.83273342,0.83273342,0.55367414,-168.39544,531.42867)" style="fill:none;stroke:#ffffff;stroke-linecap:round;stroke-opacity:1" d="m 587.60574,118.27412 c 0,41.78609 -33.87433,75.66042 -75.66043,75.66042 -41.7861,0 -75.66042,-33.87433 -75.66042,-75.66042 0,-41.786101 33.87432,-75.660427 75.66042,-75.660427 9.56917,0 19.05149,1.815251 27.94409,5.349487" id="path3790"/>
            <path inkscape:connector-curvature="0" id="path3792" d="m 214.29865,77.962332 c -0.0906,108.326408 -0.0906,108.326408 -0.0906,108.326408" style="fill:none;stroke:#ffffff;stroke-width:10;stroke-linecap:round;stroke-linejoin:miter;stroke-miterlimit:4;stroke-opacity:1;stroke-dasharray:none"/>
          </g>
        </g>
        <path transform="matrix(0.87299802,0,0,0.87299802,49.247835,79.738403)" style="opacity:0.19444442;fill:none;stroke:#ffffff;stroke-width:5;stroke-linecap:round;stroke-miterlimit:4;stroke-opacity:1" d="m 404.39633,623.6778 c 0,16.76741 -13.86452,30.36008 -30.96728,30.36008 -17.10276,0 -30.96729,-13.59267 -30.96729,-30.36008 0,-16.76742 13.86453,-30.36009 30.96729,-30.36009 17.10276,0 30.96728,13.59267 30.96728,30.36009 z" id="path5397"/>
      </g>
      <path style="fill:#000000;stroke:none" d="m 611.45209,143.98845 c 1.68194,0 3.036,1.35406 3.036,3.03601 l 0,27.93128 c 0,1.68195 -1.35406,3.036 -3.036,3.036 -1.68195,0 -3.03601,-1.35405 -3.03601,-3.036 l 0,-27.93128 c 0,-1.68195 1.35406,-3.03601 3.03601,-3.03601 z" id="rect5412"/>
      <path transform="matrix(1,0,0,0.64285715,0,68.773066)" style="fill:#000000;fill-opacity:1;stroke:none" d="m 614.4881,201.06541 c 0,4.69488 -1.35927,8.50083 -3.03601,8.50083 -1.67674,0 -3.03601,-3.80595 -3.03601,-8.50083 0,-4.69487 1.35927,-8.50082 3.03601,-8.50082 1.67674,0 3.03601,3.80595 3.03601,8.50082 z" id="path5414"/>
      <path sodipodi:nodetypes="ccccc" inkscape:connector-curvature="0" id="rect4591" d="m 176.3568,120.93362 394.28571,0 -160,495.56173 -234.28571,0 z" style="opacity:0.19444442;fill:url(#linearGradient3111);fill-opacity:1;stroke:none"/>
    </g>
  </g>
  <metadata>
    <rdf:RDF>
      <cc:Work>
        <dc:format>image/svg+xml</dc:format>
        <dc:type rdf:resource="http://purl.org/dc/dcmitype/StillImage"/>
        <cc:license rdf:resource="http://creativecommons.org/licenses/publicdomain/"/>
        <dc:publisher>
          <cc:Agent rdf:about="http://openclipart.org/">
            <dc:title>Open Clip Art Library</dc:title>
          </cc:Agent>
        </dc:publisher>
        <dc:title>Tablet PC</dc:title>
        <dc:date>2011-05-16T02:01:31</dc:date>
        <dc:description>Tablet PC clip art (Tux art by mairin)</dc:description>
        <dc:source>http://openclipart.org/detail/138943/tablet-pc-by-gsagri04</dc:source>
        <dc:creator>
          <cc:Agent>
            <dc:title>gsagri04</dc:title>
          </cc:Agent>
        </dc:creator>
        <dc:subject>
          <rdf:Bag>
            <rdf:li>Tablet</rdf:li>
            <rdf:li>clip art</rdf:li>
            <rdf:li>clipart</rdf:li>
            <rdf:li>computer</rdf:li>
            <rdf:li>linux</rdf:li>
            <rdf:li>png</rdf:li>
            <rdf:li>portable</rdf:li>
            <rdf:li>svg</rdf:li>
          </rdf:Bag>
        </dc:subject>
      </cc:Work>
      <cc:License rdf:about="http://creativecommons.org/licenses/publicdomain/">
        <cc:permits rdf:resource="http://creativecommons.org/ns#Reproduction"/>
        <cc:permits rdf:resource="http://creativecommons.org/ns#Distribution"/>
        <cc:permits rdf:resource="http://creativecommons.org/ns#DerivativeWorks"/>
      </cc:License>
    </rdf:RDF>
  </metadata>
</svg>
