<?xml version="1.0" encoding="UTF-8" ?>
<!DOCTYPE svg PUBLIC "-//W3C//DTD SVG 1.1//EN" "http://www.w3.org/Graphics/SVG/1.1/DTD/svg11.dtd">
<svg width="1318pt" height="892pt" viewBox="0 0 1318 892" version="1.1" xmlns="http://www.w3.org/2000/svg">
<g id="#adaeafe5">
<path fill="#adaeaf" opacity="0.90" d=" M 26.78 36.87 C 31.22 21.30 44.92 8.58 60.90 5.61 C 65.59 5.26 70.28 4.74 74.98 4.55 C 456.66 4.59 838.33 4.54 1220.01 4.57 C 1234.52 4.99 1249.23 3.38 1263.59 6.28 C 1272.85 8.06 1280.93 13.80 1286.87 20.97 C 1290.42 25.46 1294.06 30.22 1295.18 35.97 C 1298.33 44.25 1297.69 53.25 1297.87 61.94 C 1297.85 315.97 1297.84 570.00 1297.85 824.02 C 1297.94 831.59 1298.60 839.76 1294.65 846.58 C 1290.83 852.89 1286.47 858.99 1280.92 863.91 C 1272.46 871.34 1261.14 874.90 1249.99 874.97 C 858.31 874.92 466.62 874.96 74.94 874.95 C 69.67 874.87 64.36 875.26 59.13 874.41 C 50.17 873.09 41.58 869.16 34.82 863.12 C 32.33 860.89 29.85 858.66 27.16 856.69 C 26.21 854.15 24.42 851.80 24.50 849.00 C 24.19 793.33 24.46 737.65 24.38 681.98 C 24.39 473.63 24.32 265.28 24.45 56.93 C 24.91 50.23 24.14 43.21 26.78 36.87 M 59.53 10.67 C 41.71 14.57 27.51 31.57 27.49 49.92 C 27.49 306.27 27.51 562.63 27.48 818.98 C 26.90 827.92 27.27 837.15 30.46 845.62 C 32.52 849.78 36.95 851.84 40.32 854.77 C 48.00 861.25 57.86 865.31 67.98 865.26 C 462.32 865.28 856.65 865.22 1250.98 865.24 C 1265.41 865.40 1279.42 857.02 1286.55 844.55 C 1290.94 836.85 1292.52 827.89 1292.71 819.12 C 1292.71 563.41 1292.72 307.70 1292.72 51.99 C 1292.78 42.17 1289.64 32.21 1283.22 24.70 C 1275.42 15.24 1263.28 9.57 1251.02 9.74 C 857.35 9.72 463.67 9.75 70.00 9.73 C 66.49 9.75 62.96 9.91 59.53 10.67 Z" />
<path fill="#adaeaf" opacity="0.90" d=" M 608.66 833.07 C 608.27 826.23 608.63 819.38 608.49 812.54 C 610.05 812.61 611.63 812.68 613.22 812.76 C 614.33 816.41 615.56 820.02 616.76 823.65 L 618.06 823.47 C 619.10 819.85 620.44 816.32 621.56 812.72 C 623.16 812.67 624.77 812.63 626.38 812.60 C 626.34 814.41 626.36 816.25 625.72 818.00 C 626.98 822.76 625.88 827.80 626.39 832.68 C 625.46 832.72 624.54 832.72 623.62 832.68 C 623.85 827.51 623.77 822.34 623.48 817.18 C 623.08 817.25 622.27 817.40 621.86 817.48 C 621.52 821.44 620.04 825.18 618.39 828.77 C 617.83 828.78 616.70 828.81 616.14 828.82 C 614.31 824.30 613.42 819.40 610.82 815.22 C 610.69 821.31 610.80 827.41 610.75 833.52 C 610.23 833.40 609.18 833.18 608.66 833.07 Z" />
<path fill="#adaeaf" opacity="0.90" d=" M 679.76 814.17 C 681.32 812.22 683.81 812.62 686.00 812.59 C 689.58 812.63 693.16 812.64 696.75 812.57 C 696.79 813.11 696.88 814.18 696.92 814.72 C 694.49 814.81 692.09 815.10 689.70 815.45 C 689.55 821.66 690.35 827.97 689.22 834.12 C 687.98 833.01 687.44 831.65 687.60 830.04 C 687.59 824.93 687.69 819.82 687.56 814.72 C 684.94 814.78 682.28 814.95 679.76 814.17 Z" />
<path fill="#adaeaf" opacity="0.90" d=" M 712.83 813.72 C 713.09 813.25 713.61 812.29 713.87 811.82 C 714.19 812.32 714.83 813.33 715.15 813.83 C 714.81 815.91 714.71 818.02 714.70 820.14 C 717.17 819.29 719.82 817.52 722.50 818.67 C 727.52 821.45 727.54 829.65 722.65 832.59 C 720.30 833.13 717.80 832.82 715.81 831.42 C 714.91 832.30 713.82 832.78 712.60 832.96 C 712.83 826.55 712.31 820.11 712.83 813.72 M 714.45 824.96 C 715.31 826.96 715.71 829.54 717.92 830.59 C 720.48 831.30 723.68 829.72 723.68 826.84 C 724.16 824.41 722.71 822.37 721.31 820.59 C 720.39 820.58 718.54 820.55 717.62 820.54 C 716.41 821.89 715.42 823.41 714.45 824.96 Z" />
<path fill="#adaeaf" opacity="0.90" d=" M 634.58 818.72 C 637.24 817.71 640.69 818.05 642.51 820.48 C 645.84 824.00 644.78 831.17 639.89 832.65 C 637.49 832.81 634.44 833.41 632.72 831.28 C 629.43 827.72 630.00 820.93 634.58 818.72 M 633.50 822.68 C 633.42 824.93 632.68 827.70 634.52 829.49 C 636.49 831.85 641.03 830.65 641.60 827.62 C 641.83 826.02 641.53 824.43 641.40 822.86 C 640.63 822.11 639.87 821.37 639.13 820.62 C 638.31 820.62 636.66 820.63 635.84 820.63 C 635.05 821.31 634.27 821.99 633.50 822.68 Z" />
<path fill="#adaeaf" opacity="0.90" d=" M 652.28 818.40 C 654.58 817.85 657.22 818.30 658.81 820.19 C 663.05 824.14 660.82 834.03 653.97 832.82 C 645.91 833.81 645.00 820.05 652.28 818.40 M 649.63 823.70 C 649.67 824.57 649.74 826.33 649.77 827.21 C 650.47 828.30 651.17 829.40 651.87 830.53 C 653.67 830.37 656.03 831.13 657.32 829.43 C 660.42 826.33 657.50 819.28 652.76 820.62 C 651.52 821.42 650.61 822.61 649.63 823.70 Z" />
<path fill="#adaeaf" opacity="0.90" d=" M 665.39 817.93 C 666.29 818.59 667.07 819.50 668.18 819.88 C 670.70 818.89 674.22 817.02 676.35 819.79 C 678.51 823.71 677.28 828.48 677.63 832.76 C 677.01 832.80 675.79 832.86 675.18 832.90 C 675.10 829.35 675.84 825.60 674.68 822.20 C 673.70 819.51 670.65 820.87 668.75 821.62 C 668.51 822.21 668.02 823.40 667.78 823.99 C 667.75 826.96 667.74 829.93 667.82 832.91 C 667.22 832.87 666.01 832.79 665.40 832.74 C 665.48 827.80 665.53 822.86 665.39 817.93 Z" />
<path fill="#adaeaf" opacity="0.90" d=" M 695.12 821.48 C 697.25 817.16 704.36 816.98 706.28 821.52 C 707.01 825.45 706.61 829.49 706.80 833.48 C 705.93 832.74 705.04 832.05 704.13 831.41 C 701.68 832.30 699.01 833.48 696.41 832.43 C 693.95 830.65 693.94 826.23 696.67 824.69 C 699.41 823.82 702.32 823.63 705.17 823.27 C 704.16 822.36 703.15 821.47 702.14 820.58 C 699.78 820.81 697.45 821.16 695.12 821.48 M 697.44 826.64 C 697.44 827.60 697.45 829.52 697.46 830.49 C 699.10 830.53 700.76 830.58 702.42 830.61 C 703.38 829.20 704.24 827.71 705.04 826.22 C 702.50 826.26 699.96 826.42 697.44 826.64 Z" />
</g>
<g id="#000000ff">
<path fill="#000000" opacity="1.00" d=" M 59.53 10.67 C 62.96 9.91 66.49 9.75 70.00 9.73 C 463.67 9.75 857.35 9.72 1251.02 9.74 C 1263.28 9.57 1275.42 15.24 1283.22 24.70 C 1289.64 32.21 1292.78 42.17 1292.72 51.99 C 1292.72 307.70 1292.71 563.41 1292.71 819.12 C 1292.52 827.89 1290.94 836.85 1286.55 844.55 C 1279.42 857.02 1265.41 865.40 1250.98 865.24 C 856.65 865.22 462.32 865.28 67.98 865.26 C 57.86 865.31 48.00 861.25 40.32 854.77 C 36.95 851.84 32.52 849.78 30.46 845.62 C 27.27 837.15 26.90 827.92 27.48 818.98 C 27.51 562.63 27.49 306.27 27.49 49.92 C 27.51 31.57 41.71 14.57 59.53 10.67 M 1252.36 37.48 C 1247.09 38.84 1244.70 45.75 1248.02 50.07 C 1251.38 55.34 1260.26 54.22 1262.31 48.34 C 1264.93 42.37 1258.53 35.36 1252.36 37.48 M 90.32 73.96 C 90.22 312.69 90.38 551.42 90.22 790.14 C 101.81 790.43 113.41 790.19 125.00 790.27 C 437.99 790.28 750.97 790.24 1063.95 789.95 C 1117.25 790.02 1170.55 789.69 1223.85 790.06 C 1224.30 766.02 1224.05 741.98 1224.07 717.95 C 1224.30 555.29 1223.84 392.63 1224.88 229.98 C 1225.03 176.93 1224.90 123.88 1224.99 70.83 C 1127.66 70.71 1030.33 71.00 932.99 71.04 C 656.33 70.82 379.66 70.83 103.00 70.85 C 99.35 70.92 95.69 70.60 92.06 71.02 C 90.44 70.97 90.36 72.81 90.32 73.96 M 608.66 833.07 C 609.18 833.18 610.23 833.40 610.75 833.52 C 610.80 827.41 610.69 821.31 610.82 815.22 C 613.42 819.40 614.31 824.30 616.14 828.82 C 616.70 828.81 617.83 828.78 618.39 828.77 C 620.04 825.18 621.52 821.44 621.86 817.48 C 622.27 817.40 623.08 817.25 623.48 817.18 C 623.77 822.34 623.85 827.51 623.62 832.68 C 624.54 832.72 625.46 832.72 626.39 832.68 C 625.88 827.80 626.98 822.76 625.72 818.00 C 626.36 816.25 626.34 814.41 626.38 812.60 C 624.77 812.63 623.16 812.67 621.56 812.72 C 620.44 816.32 619.10 819.85 618.06 823.47 L 616.76 823.65 C 615.56 820.02 614.33 816.41 613.22 812.76 C 611.63 812.68 610.05 812.61 608.49 812.54 C 608.63 819.38 608.27 826.23 608.66 833.07 M 679.76 814.17 C 682.28 814.95 684.94 814.78 687.56 814.72 C 687.69 819.82 687.59 824.93 687.60 830.04 C 687.44 831.65 687.98 833.01 689.22 834.12 C 690.35 827.97 689.55 821.66 689.70 815.45 C 692.09 815.10 694.49 814.81 696.92 814.72 C 696.88 814.18 696.79 813.11 696.75 812.57 C 693.16 812.64 689.58 812.63 686.00 812.59 C 683.81 812.62 681.32 812.22 679.76 814.17 M 712.83 813.72 C 712.31 820.11 712.83 826.55 712.60 832.96 C 713.82 832.78 714.91 832.30 715.81 831.42 C 717.80 832.82 720.30 833.13 722.65 832.59 C 727.54 829.65 727.52 821.45 722.50 818.67 C 719.82 817.52 717.17 819.29 714.70 820.14 C 714.71 818.02 714.81 815.91 715.15 813.83 C 714.83 813.33 714.19 812.32 713.87 811.82 C 713.61 812.29 713.09 813.25 712.83 813.72 M 634.58 818.72 C 630.00 820.93 629.43 827.72 632.72 831.28 C 634.44 833.41 637.49 832.81 639.89 832.65 C 644.78 831.17 645.84 824.00 642.51 820.48 C 640.69 818.05 637.24 817.71 634.58 818.72 M 652.28 818.40 C 645.00 820.05 645.91 833.81 653.97 832.82 C 660.82 834.03 663.05 824.14 658.81 820.19 C 657.22 818.30 654.58 817.85 652.28 818.40 M 665.39 817.93 C 665.53 822.86 665.48 827.80 665.40 832.74 C 666.01 832.79 667.22 832.87 667.82 832.91 C 667.74 829.93 667.75 826.96 667.78 823.99 C 668.02 823.40 668.51 822.21 668.75 821.62 C 670.65 820.87 673.70 819.51 674.68 822.20 C 675.84 825.60 675.10 829.35 675.18 832.90 C 675.79 832.86 677.01 832.80 677.63 832.76 C 677.28 828.48 678.51 823.71 676.35 819.79 C 674.22 817.02 670.70 818.89 668.18 819.88 C 667.07 819.50 666.29 818.59 665.39 817.93 M 695.12 821.48 C 697.45 821.16 699.78 820.81 702.14 820.58 C 703.15 821.47 704.16 822.36 705.17 823.27 C 702.32 823.63 699.41 823.82 696.67 824.69 C 693.94 826.23 693.95 830.65 696.41 832.43 C 699.01 833.48 701.68 832.30 704.13 831.41 C 705.04 832.05 705.93 832.74 706.80 833.48 C 706.61 829.49 707.01 825.45 706.28 821.52 C 704.36 816.98 697.25 817.16 695.12 821.48 Z" />
<path fill="#000000" opacity="1.00" d=" M 633.50 822.68 C 634.27 821.99 635.05 821.31 635.84 820.63 C 636.66 820.63 638.31 820.62 639.13 820.62 C 639.87 821.37 640.63 822.11 641.40 822.86 C 641.53 824.43 641.83 826.02 641.60 827.62 C 641.03 830.65 636.49 831.85 634.52 829.49 C 632.68 827.70 633.42 824.93 633.50 822.68 Z" />
<path fill="#000000" opacity="1.00" d=" M 649.63 823.70 C 650.61 822.61 651.52 821.42 652.76 820.62 C 657.50 819.28 660.42 826.33 657.32 829.43 C 656.03 831.13 653.67 830.37 651.87 830.53 C 651.17 829.40 650.47 828.30 649.77 827.21 C 649.74 826.33 649.67 824.57 649.63 823.70 Z" />
<path fill="#000000" opacity="1.00" d=" M 714.45 824.96 C 715.42 823.41 716.41 821.89 717.62 820.54 C 718.54 820.55 720.39 820.58 721.31 820.59 C 722.71 822.37 724.16 824.41 723.68 826.84 C 723.68 829.72 720.48 831.30 717.92 830.59 C 715.71 829.54 715.31 826.96 714.45 824.96 Z" />
<path fill="#000000" opacity="1.00" d=" M 697.44 826.64 C 699.96 826.42 702.50 826.26 705.04 826.22 C 704.24 827.71 703.38 829.20 702.42 830.61 C 700.76 830.58 699.10 830.53 697.46 830.49 C 697.45 829.52 697.44 827.60 697.44 826.64 Z" />
</g>
<g id="#242324fe">
<path fill="#242324" opacity="1.00" d=" M 1252.36 37.48 C 1258.53 35.36 1264.93 42.37 1262.31 48.34 C 1260.26 54.22 1251.38 55.34 1248.02 50.07 C 1244.70 45.75 1247.09 38.84 1252.36 37.48 Z" />
</g>
<g id="#6e4373ff">
<path fill="#6e4373" opacity="1.00" d=" M 90.32 73.96 C 90.36 72.81 90.44 70.97 92.06 71.02 C 95.69 70.60 99.35 70.92 103.00 70.85 C 379.66 70.83 656.33 70.82 932.99 71.04 C 1030.33 71.00 1127.66 70.71 1224.99 70.83 C 1224.90 123.88 1225.03 176.93 1224.88 229.98 C 1223.84 392.63 1224.30 555.29 1224.07 717.95 C 1224.05 741.98 1224.30 766.02 1223.85 790.06 C 1170.55 789.69 1117.25 790.02 1063.95 789.95 C 750.97 790.24 437.99 790.28 125.00 790.27 C 113.41 790.19 101.81 790.43 90.22 790.14 C 90.38 551.42 90.22 312.69 90.32 73.96 Z" />
</g>
</svg>
