<?xml version="1.0" encoding="UTF-8" standalone="no"?>
<!-- Created with Inkscape (http://www.inkscape.org/) -->

<svg
   xmlns:dc="http://purl.org/dc/elements/1.1/"
   xmlns:cc="http://creativecommons.org/ns#"
   xmlns:rdf="http://www.w3.org/1999/02/22-rdf-syntax-ns#"
   xmlns:svg="http://www.w3.org/2000/svg"
   xmlns="http://www.w3.org/2000/svg"
   xmlns:xlink="http://www.w3.org/1999/xlink"
   xmlns:sodipodi="http://sodipodi.sourceforge.net/DTD/sodipodi-0.dtd"
   xmlns:inkscape="http://www.inkscape.org/namespaces/inkscape"
   version="1.1"
   width="146.90613"
   height="177.64207"
   viewBox="0 0 146.90613 177.64208"
   id="svg11525"
   xml:space="preserve"
   inkscape:version="0.48.4 r9939"
   sodipodi:docname="terminal_simbolo.svg"><sodipodi:namedview
   pagecolor="#ffffff"
   bordercolor="#666666"
   borderopacity="1"
   objecttolerance="10"
   gridtolerance="10"
   guidetolerance="10"
   inkscape:pageopacity="0"
   inkscape:pageshadow="2"
   inkscape:window-width="1600"
   inkscape:window-height="838"
   id="namedview32793"
   showgrid="false"
   units="mm"
   fit-margin-top="0"
   fit-margin-left="0"
   fit-margin-right="0"
   fit-margin-bottom="0"
   inkscape:zoom="2.3289875"
   inkscape:cx="132.87922"
   inkscape:cy="75.727685"
   inkscape:window-x="-8"
   inkscape:window-y="-8"
   inkscape:window-maximized="1"
   inkscape:current-layer="g35833" /><defs
   id="defs182"><radialGradient
     cx="16.537001"
     cy="31.563999"
     r="16.336"
     id="radialGradient3743"
     xlink:href="#linearGradient10691"
     gradientUnits="userSpaceOnUse" /><linearGradient
     id="linearGradient10691"><stop
       id="stop10693"
       style="stop-color:#000000;stop-opacity:1"
       offset="0" /><stop
       id="stop10695"
       style="stop-color:#000000;stop-opacity:0"
       offset="1" /></linearGradient><filter
     color-interpolation-filters="sRGB"
     id="filter14190"><feGaussianBlur
       stdDeviation="0.78891781"
       id="feGaussianBlur14192" /></filter><radialGradient
     cx="62.200001"
     cy="-8.7256002"
     r="9.7552996"
     id="radialGradient3294"
     gradientUnits="userSpaceOnUse"
     gradientTransform="matrix(1.9403,0,0,1.9403,-91.185,26.415)"><stop
       id="stop8649"
       style="stop-color:#8fb1dc;stop-opacity:1"
       offset="0" /><stop
       id="stop8651"
       style="stop-color:#3465a4;stop-opacity:1"
       offset="1" /></radialGradient><radialGradient
     cx="6.7027001"
     cy="73.615997"
     r="7.2284002"
     id="radialGradient3291"
     xlink:href="#linearGradient10691"
     gradientUnits="userSpaceOnUse"
     gradientTransform="matrix(1.1098,0,0,0.27877,10.562,23.463)" /><linearGradient
     id="linearGradient3591"><stop
       id="stop3593"
       style="stop-color:#000000;stop-opacity:1"
       offset="0" /><stop
       id="stop3595"
       style="stop-color:#000000;stop-opacity:0"
       offset="1" /></linearGradient><radialGradient
     cx="26.443001"
     cy="11.03"
     r="15.5"
     id="radialGradient4496"
     gradientUnits="userSpaceOnUse"
     gradientTransform="matrix(1.0416,-0.012649,0.010503,0.84763,-0.93296,3.4556)"><stop
       id="stop8920"
       style="stop-color:#abe14b;stop-opacity:1"
       offset="0" /><stop
       id="stop8922"
       style="stop-color:#8cb029;stop-opacity:1"
       offset="1" /></radialGradient><linearGradient
     x1="29.5"
     y1="-1.773"
     x2="29.5"
     y2="31.525"
     id="linearGradient3286"
     xlink:href="#linearGradient6602"
     gradientUnits="userSpaceOnUse" /><linearGradient
     id="linearGradient6602"><stop
       id="stop6604"
       style="stop-color:#ffffff;stop-opacity:1"
       offset="0" /><stop
       id="stop6606"
       style="stop-color:#ffffff;stop-opacity:0"
       offset="1" /></linearGradient><linearGradient
     x1="139.81"
     y1="26.582001"
     x2="137.03999"
     y2="26.142"
     id="linearGradient3280"
     xlink:href="#linearGradient8090"
     gradientUnits="userSpaceOnUse"
     gradientTransform="matrix(1.1354,0.3827,-0.38149,1.1318,-110.42,-58.018)" /><linearGradient
     id="linearGradient8090"><stop
       id="stop8092"
       style="stop-color:#214e90;stop-opacity:1"
       offset="0" /><stop
       id="stop8094"
       style="stop-color:#0d1f3a;stop-opacity:1"
       offset="1" /></linearGradient><linearGradient
     x1="135.06"
     y1="25.485001"
     x2="151.50999"
     y2="24.782"
     id="linearGradient3283"
     xlink:href="#linearGradient8090"
     gradientUnits="userSpaceOnUse"
     gradientTransform="matrix(1.1354,0.3827,-0.38149,1.1318,-110.42,-58.018)" /><linearGradient
     id="linearGradient3609"><stop
       id="stop3611"
       style="stop-color:#214e90;stop-opacity:1"
       offset="0" /><stop
       id="stop3613"
       style="stop-color:#0d1f3a;stop-opacity:1"
       offset="1" /></linearGradient><linearGradient
     x1="136.31"
     y1="29.457001"
     x2="147.19"
     y2="29.457001"
     id="linearGradient3276"
     gradientUnits="userSpaceOnUse"
     gradientTransform="matrix(1.0335,0,0,1.003,-105.13,-0.54601)"><stop
       id="stop3857"
       style="stop-color:#f5f5f5;stop-opacity:1"
       offset="0" /><stop
       id="stop3859"
       style="stop-color:#dcdcdc;stop-opacity:1"
       offset="0.55555999" /><stop
       id="stop3861"
       style="stop-color:#a0a0a0;stop-opacity:1"
       offset="0.55555999" /><stop
       id="stop3863"
       style="stop-color:#bebebe;stop-opacity:1"
       offset="1" /></linearGradient><linearGradient
     x1="46.223999"
     y1="41.507999"
     x2="46.164001"
     y2="29.438999"
     id="linearGradient3273"
     gradientUnits="userSpaceOnUse"><stop
       id="stop3698"
       style="stop-color:#969696;stop-opacity:1"
       offset="0" /><stop
       id="stop3700"
       style="stop-color:#505050;stop-opacity:1"
       offset="1" /></linearGradient><linearGradient
     x1="43.773998"
     y1="27.865"
     x2="39.727001"
     y2="25.091999"
     id="linearGradient3268"
     gradientUnits="userSpaceOnUse"
     gradientTransform="matrix(0.97259,0,0,0.82332,0.047032,3.963)"><stop
       id="stop13132"
       style="stop-color:#616161;stop-opacity:1"
       offset="0" /><stop
       id="stop13134"
       style="stop-color:#000000;stop-opacity:0"
       offset="1" /></linearGradient><linearGradient
     x1="43.223"
     y1="26.509001"
     x2="39.48"
     y2="24.549999"
     id="linearGradient3264"
     xlink:href="#linearGradient6602"
     gradientUnits="userSpaceOnUse"
     gradientTransform="matrix(1.0116,0,0,1.003,-0.68797,-0.16737)" /><linearGradient
     id="linearGradient3627"><stop
       id="stop3629"
       style="stop-color:#ffffff;stop-opacity:1"
       offset="0" /><stop
       id="stop3631"
       style="stop-color:#ffffff;stop-opacity:0"
       offset="1" /></linearGradient><linearGradient
     x1="321.57999"
     y1="86.050003"
     x2="321.57999"
     y2="95.149002"
     id="linearGradient3259"
     gradientUnits="userSpaceOnUse"
     gradientTransform="matrix(0.64503,0,0,0.76934,-188.43,-28.202)"><stop
       id="stop4924"
       style="stop-color:#787878;stop-opacity:1"
       offset="0" /><stop
       id="stop4926"
       style="stop-color:#bebebe;stop-opacity:1"
       offset="0.33634001" /><stop
       id="stop4928"
       style="stop-color:#c8c8c8;stop-opacity:1"
       offset="0.39214" /><stop
       id="stop4930"
       style="stop-color:#e6e6e6;stop-opacity:1"
       offset="0.50537997" /><stop
       id="stop4932"
       style="stop-color:#8c8c8c;stop-opacity:1"
       offset="1" /></linearGradient><linearGradient
     x1="22.452"
     y1="30.049999"
     x2="22.452"
     y2="39.150002"
     id="linearGradient3261"
     gradientUnits="userSpaceOnUse"
     gradientTransform="matrix(0.64735,0,0,0.76923,2.4657,14.885)"><stop
       id="stop4912"
       style="stop-color:#3c3c3c;stop-opacity:1"
       offset="0" /><stop
       id="stop4914"
       style="stop-color:#8c8c8c;stop-opacity:1"
       offset="0.30636999" /><stop
       id="stop4916"
       style="stop-color:#969696;stop-opacity:1"
       offset="0.37094" /><stop
       id="stop4918"
       style="stop-color:#bebebe;stop-opacity:1"
       offset="0.49882999" /><stop
       id="stop4920"
       style="stop-color:#5a5a5a;stop-opacity:1"
       offset="1" /></linearGradient><radialGradient
     cx="24"
     cy="38.640999"
     r="8"
     id="radialGradient3256"
     xlink:href="#linearGradient6602"
     gradientUnits="userSpaceOnUse"
     gradientTransform="matrix(1.1429,-3.144e-8,0,0.43815,-9.4296,27.069)" /><linearGradient
     id="linearGradient3646"><stop
       id="stop3648"
       style="stop-color:#ffffff;stop-opacity:1"
       offset="0" /><stop
       id="stop3650"
       style="stop-color:#ffffff;stop-opacity:0"
       offset="1" /></linearGradient><linearGradient
     x1="20.146999"
     y1="-0.0004971"
     x2="20.104"
     y2="31.983"
     id="linearGradient3253"
     gradientUnits="userSpaceOnUse"
     gradientTransform="matrix(0.66065,0,0,0.67813,2.1442,17.15)"><stop
       id="stop6546"
       style="stop-color:#f0f0f0;stop-opacity:1"
       offset="0" /><stop
       id="stop6548"
       style="stop-color:#d2d2d2;stop-opacity:1"
       offset="1" /></linearGradient><radialGradient
     cx="26.617001"
     cy="-2.0645001"
     r="23"
     id="radialGradient3213"
     gradientUnits="userSpaceOnUse"
     gradientTransform="matrix(-1.0871e-8,-0.48402,0.8348,0,25.16,42.885)"><stop
       id="stop2749"
       style="stop-color:#d78ec1;stop-opacity:1"
       offset="0" /><stop
       id="stop2751"
       style="stop-color:#c564be;stop-opacity:1"
       offset="0.26238" /><stop
       id="stop2753"
       style="stop-color:#9d3ea4;stop-opacity:1"
       offset="0.66093999" /><stop
       id="stop2755"
       style="stop-color:#5e2c73;stop-opacity:1"
       offset="1" /></radialGradient><linearGradient
     x1="10.014"
     y1="44.959999"
     x2="10.014"
     y2="2.8764999"
     id="linearGradient3215"
     gradientUnits="userSpaceOnUse"
     gradientTransform="matrix(0.57226,0,0,0.41036,4.2741,18.244)"><stop
       id="stop2759"
       style="stop-color:#650d5c;stop-opacity:1"
       offset="0" /><stop
       id="stop2761"
       style="stop-color:#ad53a5;stop-opacity:1"
       offset="1" /></linearGradient><radialGradient
     cx="5.9688001"
     cy="-0.64647001"
     r="20"
     id="radialGradient3245"
     xlink:href="#linearGradient6602"
     gradientUnits="userSpaceOnUse"
     gradientTransform="matrix(1.015,-0.0052669,0.0017594,0.35095,0.38453,21.744)" /><linearGradient
     id="linearGradient3664"><stop
       id="stop3666"
       style="stop-color:#ffffff;stop-opacity:1"
       offset="0" /><stop
       id="stop3668"
       style="stop-color:#ffffff;stop-opacity:0"
       offset="1" /></linearGradient><linearGradient
     x1="12.938"
     y1="8.4375"
     x2="15.25"
     y2="19.812"
     id="linearGradient3237"
     gradientUnits="userSpaceOnUse"
     gradientTransform="matrix(0.66667,0,0,0.73333,2,16.8)"><stop
       id="stop6594"
       style="stop-color:#ffffff;stop-opacity:0.27451"
       offset="0" /><stop
       id="stop6596"
       style="stop-color:#ffffff;stop-opacity:0"
       offset="1" /></linearGradient><linearGradient
     x1="12.938"
     y1="8.4375"
     x2="15.25"
     y2="19.812"
     id="linearGradient3700"
     xlink:href="#linearGradient3237"
     gradientUnits="userSpaceOnUse"
     gradientTransform="matrix(0.66667,0,0,0.73333,2,16.8)" /><radialGradient
     inkscape:collect="always"
     xlink:href="#linearGradient10691"
     id="radialGradient32884"
     gradientUnits="userSpaceOnUse"
     cx="16.537001"
     cy="31.563999"
     r="16.336" /><radialGradient
     inkscape:collect="always"
     xlink:href="#radialGradient3294"
     id="radialGradient32886"
     gradientUnits="userSpaceOnUse"
     gradientTransform="matrix(1.9403,0,0,1.9403,-91.185,26.415)"
     cx="62.200001"
     cy="-8.7256002"
     r="9.7552996" /><radialGradient
     inkscape:collect="always"
     xlink:href="#linearGradient10691"
     id="radialGradient32888"
     gradientUnits="userSpaceOnUse"
     gradientTransform="matrix(1.1098,0,0,0.27877,10.562,23.463)"
     cx="6.7027001"
     cy="73.615997"
     r="7.2284002" /><radialGradient
     inkscape:collect="always"
     xlink:href="#radialGradient4496"
     id="radialGradient32890"
     gradientUnits="userSpaceOnUse"
     gradientTransform="matrix(1.0416,-0.012649,0.010503,0.84763,-0.93296,3.4556)"
     cx="26.443001"
     cy="11.03"
     r="15.5" /><linearGradient
     inkscape:collect="always"
     xlink:href="#linearGradient6602"
     id="linearGradient32892"
     gradientUnits="userSpaceOnUse"
     x1="29.5"
     y1="-1.773"
     x2="29.5"
     y2="31.525" /><linearGradient
     inkscape:collect="always"
     xlink:href="#linearGradient8090"
     id="linearGradient32894"
     gradientUnits="userSpaceOnUse"
     gradientTransform="matrix(1.1354,0.3827,-0.38149,1.1318,-110.42,-58.018)"
     x1="139.81"
     y1="26.582001"
     x2="137.03999"
     y2="26.142" /><linearGradient
     inkscape:collect="always"
     xlink:href="#linearGradient8090"
     id="linearGradient32896"
     gradientUnits="userSpaceOnUse"
     gradientTransform="matrix(1.1354,0.3827,-0.38149,1.1318,-110.42,-58.018)"
     x1="135.06"
     y1="25.485001"
     x2="151.50999"
     y2="24.782" /><linearGradient
     inkscape:collect="always"
     xlink:href="#linearGradient3276"
     id="linearGradient32898"
     gradientUnits="userSpaceOnUse"
     gradientTransform="matrix(1.0335,0,0,1.003,-105.13,-0.54601)"
     x1="136.31"
     y1="29.457001"
     x2="147.19"
     y2="29.457001" /><linearGradient
     inkscape:collect="always"
     xlink:href="#linearGradient3273"
     id="linearGradient32900"
     gradientUnits="userSpaceOnUse"
     x1="46.223999"
     y1="41.507999"
     x2="46.164001"
     y2="29.438999" /><linearGradient
     inkscape:collect="always"
     xlink:href="#linearGradient3268"
     id="linearGradient32902"
     gradientUnits="userSpaceOnUse"
     gradientTransform="matrix(0.97259,0,0,0.82332,0.047032,3.963)"
     x1="43.773998"
     y1="27.865"
     x2="39.727001"
     y2="25.091999" /><linearGradient
     inkscape:collect="always"
     xlink:href="#linearGradient6602"
     id="linearGradient32904"
     gradientUnits="userSpaceOnUse"
     gradientTransform="matrix(1.0116,0,0,1.003,-0.68797,-0.16737)"
     x1="43.223"
     y1="26.509001"
     x2="39.48"
     y2="24.549999" /><linearGradient
     inkscape:collect="always"
     xlink:href="#linearGradient3259"
     id="linearGradient32906"
     gradientUnits="userSpaceOnUse"
     gradientTransform="matrix(0.64503,0,0,0.76934,-188.43,-28.202)"
     x1="321.57999"
     y1="86.050003"
     x2="321.57999"
     y2="95.149002" /><linearGradient
     inkscape:collect="always"
     xlink:href="#linearGradient3261"
     id="linearGradient32908"
     gradientUnits="userSpaceOnUse"
     gradientTransform="matrix(0.64735,0,0,0.76923,2.4657,14.885)"
     x1="22.452"
     y1="30.049999"
     x2="22.452"
     y2="39.150002" /><radialGradient
     inkscape:collect="always"
     xlink:href="#linearGradient6602"
     id="radialGradient32910"
     gradientUnits="userSpaceOnUse"
     gradientTransform="matrix(1.1429,-3.144e-8,0,0.43815,-9.4296,27.069)"
     cx="24"
     cy="38.640999"
     r="8" /><linearGradient
     inkscape:collect="always"
     xlink:href="#linearGradient3253"
     id="linearGradient32912"
     gradientUnits="userSpaceOnUse"
     gradientTransform="matrix(0.66065,0,0,0.67813,2.1442,17.15)"
     x1="20.146999"
     y1="-0.0004971"
     x2="20.104"
     y2="31.983" /><radialGradient
     inkscape:collect="always"
     xlink:href="#radialGradient3213"
     id="radialGradient32914"
     gradientUnits="userSpaceOnUse"
     gradientTransform="matrix(-1.0871e-8,-0.48402,0.8348,0,25.16,42.885)"
     cx="26.617001"
     cy="-2.0645001"
     r="23" /><linearGradient
     inkscape:collect="always"
     xlink:href="#linearGradient3215"
     id="linearGradient32916"
     gradientUnits="userSpaceOnUse"
     gradientTransform="matrix(0.57226,0,0,0.41036,4.2741,18.244)"
     x1="10.014"
     y1="44.959999"
     x2="10.014"
     y2="2.8764999" /><radialGradient
     inkscape:collect="always"
     xlink:href="#linearGradient6602"
     id="radialGradient32918"
     gradientUnits="userSpaceOnUse"
     gradientTransform="matrix(1.015,-0.0052669,0.0017594,0.35095,0.38453,21.744)"
     cx="5.9688001"
     cy="-0.64647001"
     r="20" /><linearGradient
     inkscape:collect="always"
     xlink:href="#linearGradient3237"
     id="linearGradient32920"
     gradientUnits="userSpaceOnUse"
     gradientTransform="matrix(0.66667,0,0,0.73333,2,16.8)"
     x1="12.938"
     y1="8.4375"
     x2="15.25"
     y2="19.812" /><radialGradient
     inkscape:collect="always"
     xlink:href="#linearGradient10691"
     id="radialGradient35696"
     gradientUnits="userSpaceOnUse"
     cx="16.537001"
     cy="31.563999"
     r="16.336" /><radialGradient
     inkscape:collect="always"
     xlink:href="#radialGradient3294"
     id="radialGradient35698"
     gradientUnits="userSpaceOnUse"
     gradientTransform="matrix(1.9403,0,0,1.9403,-91.185,26.415)"
     cx="62.200001"
     cy="-8.7256002"
     r="9.7552996" /><radialGradient
     inkscape:collect="always"
     xlink:href="#linearGradient10691"
     id="radialGradient35700"
     gradientUnits="userSpaceOnUse"
     gradientTransform="matrix(1.1098,0,0,0.27877,10.562,23.463)"
     cx="6.7027001"
     cy="73.615997"
     r="7.2284002" /><radialGradient
     inkscape:collect="always"
     xlink:href="#radialGradient4496"
     id="radialGradient35702"
     gradientUnits="userSpaceOnUse"
     gradientTransform="matrix(1.0416,-0.012649,0.010503,0.84763,-0.93296,3.4556)"
     cx="26.443001"
     cy="11.03"
     r="15.5" /><linearGradient
     inkscape:collect="always"
     xlink:href="#linearGradient6602"
     id="linearGradient35704"
     gradientUnits="userSpaceOnUse"
     x1="29.5"
     y1="-1.773"
     x2="29.5"
     y2="31.525" /><linearGradient
     inkscape:collect="always"
     xlink:href="#linearGradient8090"
     id="linearGradient35706"
     gradientUnits="userSpaceOnUse"
     gradientTransform="matrix(1.1354,0.3827,-0.38149,1.1318,-110.42,-58.018)"
     x1="139.81"
     y1="26.582001"
     x2="137.03999"
     y2="26.142" /><linearGradient
     inkscape:collect="always"
     xlink:href="#linearGradient8090"
     id="linearGradient35708"
     gradientUnits="userSpaceOnUse"
     gradientTransform="matrix(1.1354,0.3827,-0.38149,1.1318,-110.42,-58.018)"
     x1="135.06"
     y1="25.485001"
     x2="151.50999"
     y2="24.782" /><linearGradient
     inkscape:collect="always"
     xlink:href="#linearGradient3276"
     id="linearGradient35710"
     gradientUnits="userSpaceOnUse"
     gradientTransform="matrix(1.0335,0,0,1.003,-105.13,-0.54601)"
     x1="136.31"
     y1="29.457001"
     x2="147.19"
     y2="29.457001" /><linearGradient
     inkscape:collect="always"
     xlink:href="#linearGradient3273"
     id="linearGradient35712"
     gradientUnits="userSpaceOnUse"
     x1="46.223999"
     y1="41.507999"
     x2="46.164001"
     y2="29.438999" /><linearGradient
     inkscape:collect="always"
     xlink:href="#linearGradient3268"
     id="linearGradient35714"
     gradientUnits="userSpaceOnUse"
     gradientTransform="matrix(0.97259,0,0,0.82332,0.047032,3.963)"
     x1="43.773998"
     y1="27.865"
     x2="39.727001"
     y2="25.091999" /><linearGradient
     inkscape:collect="always"
     xlink:href="#linearGradient6602"
     id="linearGradient35716"
     gradientUnits="userSpaceOnUse"
     gradientTransform="matrix(1.0116,0,0,1.003,-0.68797,-0.16737)"
     x1="43.223"
     y1="26.509001"
     x2="39.48"
     y2="24.549999" /><linearGradient
     inkscape:collect="always"
     xlink:href="#linearGradient3259"
     id="linearGradient35718"
     gradientUnits="userSpaceOnUse"
     gradientTransform="matrix(0.64503,0,0,0.76934,-188.43,-28.202)"
     x1="321.57999"
     y1="86.050003"
     x2="321.57999"
     y2="95.149002" /><linearGradient
     inkscape:collect="always"
     xlink:href="#linearGradient3261"
     id="linearGradient35720"
     gradientUnits="userSpaceOnUse"
     gradientTransform="matrix(0.64735,0,0,0.76923,2.4657,14.885)"
     x1="22.452"
     y1="30.049999"
     x2="22.452"
     y2="39.150002" /><radialGradient
     inkscape:collect="always"
     xlink:href="#linearGradient6602"
     id="radialGradient35722"
     gradientUnits="userSpaceOnUse"
     gradientTransform="matrix(1.1429,-3.144e-8,0,0.43815,-9.4296,27.069)"
     cx="24"
     cy="38.640999"
     r="8" /><linearGradient
     inkscape:collect="always"
     xlink:href="#linearGradient3253"
     id="linearGradient35724"
     gradientUnits="userSpaceOnUse"
     gradientTransform="matrix(0.66065,0,0,0.67813,2.1442,17.15)"
     x1="20.146999"
     y1="-0.0004971"
     x2="20.104"
     y2="31.983" /><radialGradient
     inkscape:collect="always"
     xlink:href="#radialGradient3213"
     id="radialGradient35726"
     gradientUnits="userSpaceOnUse"
     gradientTransform="matrix(-1.0871e-8,-0.48402,0.8348,0,25.16,42.885)"
     cx="26.617001"
     cy="-2.0645001"
     r="23" /><linearGradient
     inkscape:collect="always"
     xlink:href="#linearGradient3215"
     id="linearGradient35728"
     gradientUnits="userSpaceOnUse"
     gradientTransform="matrix(0.57226,0,0,0.41036,4.2741,18.244)"
     x1="10.014"
     y1="44.959999"
     x2="10.014"
     y2="2.8764999" /><radialGradient
     inkscape:collect="always"
     xlink:href="#linearGradient6602"
     id="radialGradient35730"
     gradientUnits="userSpaceOnUse"
     gradientTransform="matrix(1.015,-0.0052669,0.0017594,0.35095,0.38453,21.744)"
     cx="5.9688001"
     cy="-0.64647001"
     r="20" /><linearGradient
     inkscape:collect="always"
     xlink:href="#linearGradient3237"
     id="linearGradient35732"
     gradientUnits="userSpaceOnUse"
     gradientTransform="matrix(0.66667,0,0,0.73333,2,16.8)"
     x1="12.938"
     y1="8.4375"
     x2="15.25"
     y2="19.812" /><linearGradient
     inkscape:collect="always"
     xlink:href="#linearGradient3237"
     id="linearGradient35735"
     gradientUnits="userSpaceOnUse"
     gradientTransform="matrix(1.3295342,0,0,1.4624736,57.162754,119.40876)"
     x1="12.938"
     y1="8.4375"
     x2="15.25"
     y2="19.812" /><radialGradient
     inkscape:collect="always"
     xlink:href="#linearGradient6602"
     id="radialGradient35743"
     gradientUnits="userSpaceOnUse"
     gradientTransform="matrix(2.0242057,-0.01050373,0.00350876,0.69989653,53.941036,129.26854)"
     cx="5.9688001"
     cy="-0.64647001"
     r="20" /><radialGradient
     inkscape:collect="always"
     xlink:href="#radialGradient3213"
     id="radialGradient35746"
     gradientUnits="userSpaceOnUse"
     gradientTransform="matrix(-2.1679941e-8,-0.96527688,1.6648344,0,103.35054,171.42985)"
     cx="26.617001"
     cy="-2.0645001"
     r="23" /><linearGradient
     inkscape:collect="always"
     xlink:href="#linearGradient3215"
     id="linearGradient35748"
     gradientUnits="userSpaceOnUse"
     gradientTransform="matrix(1.1412531,0,0,0.81837738,61.697971,122.28852)"
     x1="10.014"
     y1="44.959999"
     x2="10.014"
     y2="2.8764999" /><linearGradient
     inkscape:collect="always"
     xlink:href="#linearGradient3253"
     id="linearGradient35751"
     gradientUnits="userSpaceOnUse"
     gradientTransform="matrix(1.3175285,0,0,1.3523888,57.45033,120.10677)"
     x1="20.146999"
     y1="-0.0004971"
     x2="20.104"
     y2="31.983" /><radialGradient
     inkscape:collect="always"
     xlink:href="#linearGradient6602"
     id="radialGradient35754"
     gradientUnits="userSpaceOnUse"
     gradientTransform="matrix(2.2792755,-6.2700518e-8,0,0.87379873,34.368802,139.88814)"
     cx="24"
     cy="38.640999"
     r="8" /><linearGradient
     inkscape:collect="always"
     xlink:href="#linearGradient3259"
     id="linearGradient35757"
     gradientUnits="userSpaceOnUse"
     gradientTransform="matrix(1.2863777,0,0,1.5342881,-322.61014,29.661667)"
     x1="321.57999"
     y1="86.050003"
     x2="321.57999"
     y2="95.149002" /><linearGradient
     inkscape:collect="always"
     xlink:href="#linearGradient3261"
     id="linearGradient35759"
     gradientUnits="userSpaceOnUse"
     gradientTransform="matrix(1.2910045,0,0,1.5340687,58.091495,115.5897)"
     x1="22.452"
     y1="30.049999"
     x2="22.452"
     y2="39.150002" /><linearGradient
     inkscape:collect="always"
     xlink:href="#linearGradient6602"
     id="linearGradient35762"
     gradientUnits="userSpaceOnUse"
     gradientTransform="matrix(2.0174251,0,0,2.0002742,51.802158,85.570885)"
     x1="43.223"
     y1="26.509001"
     x2="39.48"
     y2="24.549999" /><linearGradient
     inkscape:collect="always"
     xlink:href="#linearGradient3268"
     id="linearGradient35766"
     gradientUnits="userSpaceOnUse"
     gradientTransform="matrix(1.9396278,0,0,1.6419399,53.267967,93.808046)"
     x1="43.773998"
     y1="27.865"
     x2="39.727001"
     y2="25.091999" /><linearGradient
     inkscape:collect="always"
     xlink:href="#linearGradient3273"
     id="linearGradient35771"
     gradientUnits="userSpaceOnUse"
     x1="46.223999"
     y1="41.507999"
     x2="46.164001"
     y2="29.438999"
     gradientTransform="matrix(1.9942913,0,0,1.9942913,53.174171,85.90467)" /><linearGradient
     inkscape:collect="always"
     xlink:href="#linearGradient3276"
     id="linearGradient35774"
     gradientUnits="userSpaceOnUse"
     gradientTransform="matrix(2.0611001,0,0,2.0002742,-156.48567,84.815767)"
     x1="136.31"
     y1="29.457001"
     x2="147.19"
     y2="29.457001" /><linearGradient
     inkscape:collect="always"
     xlink:href="#linearGradient8090"
     id="linearGradient35778"
     gradientUnits="userSpaceOnUse"
     gradientTransform="matrix(2.2643183,0.76321528,-0.76080219,2.2571389,-167.03547,-29.800123)"
     x1="139.81"
     y1="26.582001"
     x2="137.03999"
     y2="26.142" /><linearGradient
     inkscape:collect="always"
     xlink:href="#linearGradient8090"
     id="linearGradient35780"
     gradientUnits="userSpaceOnUse"
     gradientTransform="matrix(2.2643183,0.76321528,-0.76080219,2.2571389,-167.03547,-29.800123)"
     x1="135.06"
     y1="25.485001"
     x2="151.50999"
     y2="24.782" /><linearGradient
     inkscape:collect="always"
     xlink:href="#linearGradient6602"
     id="linearGradient35783"
     gradientUnits="userSpaceOnUse"
     x1="29.5"
     y1="-1.773"
     x2="29.5"
     y2="31.525"
     gradientTransform="matrix(1.9942913,0,0,1.9942913,53.174171,85.90467)" /><radialGradient
     inkscape:collect="always"
     xlink:href="#linearGradient10691"
     id="radialGradient35788"
     gradientUnits="userSpaceOnUse"
     gradientTransform="matrix(2.2132645,0,0,0.55594859,74.237876,132.69673)"
     cx="6.7027001"
     cy="73.615997"
     r="7.2284002" /><radialGradient
     inkscape:collect="always"
     xlink:href="#radialGradient3294"
     id="radialGradient35791"
     gradientUnits="userSpaceOnUse"
     gradientTransform="matrix(3.8695234,0,0,3.8695234,-128.67528,138.58387)"
     cx="62.200001"
     cy="-8.7256002"
     r="9.7552996" /></defs>



<metadata
   id="metadata180"><rdf:RDF><cc:Work><dc:format>image/svg+xml</dc:format><dc:type
         rdf:resource="http://purl.org/dc/dcmitype/StillImage" /><cc:license
         rdf:resource="http://creativecommons.org/licenses/publicdomain/" /><dc:publisher><cc:Agent
           rdf:about="http://openclipart.org/"><dc:title>Open Clip Art Library</dc:title></cc:Agent></dc:publisher><dc:title /><dc:date>2013-02-14T03:47:47</dc:date><dc:description>A server offering tools. </dc:description><dc:source>http://openclipart.org/detail/175114/tools-server-by-tomz-175114</dc:source><dc:creator><cc:Agent><dc:title>TomZ</dc:title></cc:Agent></dc:creator><dc:subject><rdf:Bag><rdf:li>tools</rdf:li><rdf:li>server</rdf:li></rdf:Bag></dc:subject></cc:Work><cc:License
       rdf:about="http://creativecommons.org/licenses/publicdomain/"><cc:permits
         rdf:resource="http://creativecommons.org/ns#Reproduction" /><cc:permits
         rdf:resource="http://creativecommons.org/ns#Distribution" /><cc:permits
         rdf:resource="http://creativecommons.org/ns#DerivativeWorks" /></cc:License></rdf:RDF></metadata><g
   id="g35833"><g
     id="g35805"
     transform="matrix(1.5333571,0,0,1.5333571,-82.748486,-120.0327)"><path
       style="opacity:0.5;fill:url(#radialGradient35696);filter:url(#filter14190)"
       id="path7005"
       transform="matrix(1.9145396,0,0,0.65642098,80.34639,127.00901)"
       d="M 32.872,31.564 C 32.874,40.587 25.56,47.903 16.537,47.903 7.5135,47.903 0.199,40.587 0.201,31.564 0.1993,22.541 7.5135,15.225 16.537,15.225 c 9.023,0 16.337,7.316 16.335,16.339 z"
       inkscape:connector-curvature="0" /><path
       style="fill:url(#radialGradient35791);stroke:#24549a;stroke-width:1.99429131"
       id="path6495"
       d="m 143.91443,122.79706 c 0,17.62356 -14.28711,31.91066 -31.90867,31.91066 -17.621554,0 -31.908656,-14.2871 -31.908656,-31.91066 0,-17.62155 14.287102,-31.906662 31.908656,-31.906662 17.62156,0 31.90867,14.285112 31.90867,31.906662 z"
       inkscape:connector-curvature="0" /><path
       style="opacity:0.5;fill:url(#radialGradient35788)"
       id="path2589"
       d="m 105.06962,173.62357 c 0,2.21965 -7.163495,4.0185 -15.998206,4.0185 -8.83471,0 -15.998005,-1.79885 -15.998005,-4.0185 0,-2.21964 7.163295,-4.01849 15.998005,-4.01849 8.834711,0 15.998206,1.79885 15.998206,4.01849 z"
       inkscape:connector-curvature="0" /><g
       id="g7013"
       transform="matrix(2.1656009,0,0,2.1875381,47.770838,82.067255)"><path
         style="fill:url(#radialGradient35702)"
         id="path7015"
         d="m 29.661,4.4893 c -1.277,0.2544 -3.131,0.1759 -3.941,1.1664 0.4,0.6544 1.819,1.1789 0.735,1.9898 -0.253,1.0675 1.291,1.8685 1.509,0.4933 1.201,-0.8301 3.163,-0.8856 3.348,-2.7175 0.123,-0.8154 -1.144,-0.7695 -1.651,-0.932 z m 0.892,2.4216 c -0.376,1.3403 1.863,0.0039 0.538,-0.0935 -0.154,0.1007 -0.361,0.2582 -0.538,0.0935 z m -6.59,-1.3105 c -0.26,0.3936 -1.084,0.2868 -1.006,0.2695 0.101,0.5225 -1.324,2.0212 -0.273,1.62 C 23.275,6.1488 24.756,6.5912 25.533,7.3678 26.624,6.9633 25.442,6.6145 25.244,6.1315 24.842,5.8904 24.139,6.1862 23.963,5.6004 z m 12.604,1.339 c -1.135,-0.0648 -3.313,1.2826 -2.545,2.3493 0.853,0.5154 1.375,0.2324 1.571,-0.6722 0.129,-0.5218 0.879,-0.8819 0.655,-0.0312 1.069,0.9058 -1.224,1.9847 -1.91,1.4307 -0.989,0.642 -1.662,1.515 -2.248,2.461 -1.172,0.544 -0.146,2.268 0.728,1.119 0.604,-0.98 2.046,-1.681 2.499,-0.219 0.857,0.178 0.069,-1.471 0.58,-0.346 0.152,0.444 0.993,1.159 0.958,0.233 0.6,0.405 2.901,1.248 1.196,1.765 -1.36,0.317 -2.723,-0.26 -3.885,-0.926 -2.154,-0.184 -3.747,1.907 -4.065,3.85 -0.274,1.385 0.584,3.702 2.311,3.274 1.302,-0.664 2.55,0.2 2.603,1.592 0.209,0.833 1.144,0.66 1.764,0.947 1.158,0.345 2.315,0.691 3.472,1.037 -0.645,-1.655 0.999,-2.918 1.51,-4.344 0.298,-1.148 -1.616,-0.592 -1.851,-1.726 -0.348,-0.618 -1.158,-2.168 -0.769,-2.395 1.373,0.433 0.736,3.478 2.498,2.749 1.207,-0.365 1.797,-2.054 0.324,-2.393 -0.896,-0.749 -0.004,-1.088 0.568,-0.353 0.74,0.631 1.809,0.07 1.134,-0.882 C 43.1,12.932 41.71,10.631 39.994,8.721 39.444,7.825 38.45,8.1997 37.746,8.1219 37.222,7.4497 38.804,7.6528 37.87,7.2974 37.479,7.0624 37.024,6.9336 36.567,6.9394 z M 21.258,7.2813 c -1.123,1.018 -2.41,1.8839 -3.207,3.2117 -1.515,2.095 -2.454,4.593 -2.75,7.159 1.389,-1.088 2.884,-2.16 4.656,-2.479 1.058,-0.738 1.453,-2.225 2.794,-2.611 1.07,-0.205 0.94,-0.946 -0.016,-0.939 0.637,-0.259 2.802,-0.428 1.59,-1.531 C 24.385,9.3 23.348,9.5285 23.168,8.8681 21.94,8.6197 22.105,11.408 20.984,10.522 20.295,10.221 19.729,8.9568 20.939,8.9131 21.521,8.6996 22.564,7.2445 21.258,7.2813 z m 10.791,1.1111 c 0.315,0.641 0.096,1.5303 0.276,2.0666 0.939,-0.082 1.032,-0.7831 0.4,-1.3552 C 32.619,8.7999 32.493,8.2799 32.049,8.3924 z m -0.546,0.7977 c -1.078,0.0918 0.279,1.4849 0.128,0.3185 L 31.571,9.3622 31.503,9.1901 z"
         inkscape:connector-curvature="0" /></g><path
       style="opacity:0.6;fill:none;stroke:url(#linearGradient35783);stroke-width:1.99429131"
       id="path6495-2"
       d="m 141.92013,122.79706 c 0,16.52271 -13.39366,29.91637 -29.91437,29.91637 -16.520705,0 -29.914365,-13.39366 -29.914365,-29.91637 0,-16.5207 13.39366,-29.91237 29.914365,-29.91237 16.52071,0 29.91437,13.39167 29.91437,29.91237 z"
       inkscape:connector-curvature="0" /><path
       style="fill:url(#linearGradient35778);fill-rule:evenodd;stroke:url(#linearGradient35780);stroke-width:1.99429131px"
       id="path7111"
       d="m 135.24325,138.0873 c -3.55184,3.01138 -9.42502,4.66265 -12.78142,5.96293 l -1.56751,-10.15693 c 5.98088,-1.50369 9.42103,-3.0034 13.8344,-5.69968 l 0.51453,9.89368 z"
       inkscape:connector-curvature="0" /><path
       style="fill:#0d1f3a;fill-rule:evenodd"
       id="path8098"
       d="m 134.29197,137.97163 -8.92047,-4.26579 c 2.99742,-1.06495 5.9749,-2.30341 8.50167,-3.85497 l 0.4188,8.12076 z"
       inkscape:connector-curvature="0" /><path
       style="fill:url(#linearGradient35774);fill-rule:evenodd;stroke:#464646;stroke-width:0.5982874"
       id="path8110"
       d="m 132.76434,134.0668 -7.49654,2.8299 v 5.84527 l 11.66661,6.68088 7.67802,-3.68944 v -5.99683 l -11.84809,-5.66978 z"
       inkscape:connector-curvature="0" /><path
       style="fill:none;stroke:url(#linearGradient35771);stroke-width:2.59257865;stroke-linecap:round"
       id="path7035"
       d="m 141.59108,145.9109 c 3.32049,3.81109 4.06436,19.77739 -2.66238,23.754 -9.25152,5.46835 -21.93721,-11.96574 -41.88012,3.98859"
       inkscape:connector-curvature="0" /><path
       style="fill:#ffffff;fill-rule:evenodd"
       id="path8108"
       d="m 144.21357,139.94996 -11.66661,-5.58401 -6.98001,2.79201 11.36746,6.1823 7.27916,-3.3903 z"
       inkscape:connector-curvature="0" /><path
       transform="matrix(0.9386504,-0.34487015,0.89567568,0.44470786,0,0)"
       style="fill:#f57900"
       d="m -86.514076,235.04416 1.352348,0 0,4.85273 -1.352348,0 z"
       id="rect13100"
       inkscape:connector-curvature="0" /><path
       style="fill:url(#linearGradient35766);fill-rule:evenodd"
       id="path13098"
       d="m 131.5558,135.00811 -2.59856,0.73191 7.58429,4.01052 2.38717,-0.99516 -7.3729,-3.74727 z"
       inkscape:connector-curvature="0" /><path
       transform="matrix(0.9386504,-0.34487015,0.89567568,0.44470786,0,0)"
       style="fill:#73d216"
       d="m -88.041702,235.01225 1.387807,0 0,4.80826 -1.387807,0 z"
       id="rect13120"
       inkscape:connector-curvature="0" /><path
       style="fill:url(#linearGradient35762);fill-rule:evenodd"
       id="path9151"
       d="m 132.21192,134.29615 -3.51992,1.16267 10.1649,4.10625 3.1789,-1.45584 -9.82388,-3.81308 z"
       inkscape:connector-curvature="0" /><path
       style="fill:url(#linearGradient35757);stroke:url(#linearGradient35759);stroke-width:1.99084115;stroke-linecap:round;stroke-linejoin:round;stroke-dashoffset:0.5;enable-background:new"
       id="path4675"
       d="m 82.091395,156.24133 v 10.73926 c -0.02792,2.76409 -2.542722,4.60282 -2.542722,4.60282 -0.967231,0.13561 -1.447855,0.68404 -1.447855,1.53561 0,0.84957 0.650139,1.53361 1.447855,1.53361 h 19.055454 c 0.795722,0 1.445863,-0.68404 1.445863,-1.53361 0,-0.85157 -0.480626,-1.4 -1.445863,-1.53561 0,0 -2.524773,-1.83873 -2.552693,-4.60282 V 156.24133 H 82.091395 z"
       inkscape:connector-curvature="0" /><path
       style="opacity:0.8;fill:url(#radialGradient35754);enable-background:new"
       d="m 79.986303,171.65919 18.170228,0 c 0.491033,0 0.886342,0.44473 0.886342,0.99715 0,0.55242 -0.395309,0.99715 -0.886342,0.99715 l -18.170228,0 c -0.491034,0 -0.886343,-0.44473 -0.886343,-0.99715 0,-0.55242 0.395309,-0.99715 0.886343,-0.99715 z"
       id="rect4703"
       inkscape:connector-curvature="0" /><path
       style="fill:url(#linearGradient35751);stroke:#969696;stroke-width:1.99429131;stroke-linecap:round;stroke-linejoin:round;stroke-dashoffset:0.5"
       d="m 59.157046,120.80477 59.828734,0 c 0.55242,0 0.99715,0.44473 0.99715,0.99715 l 0,39.88582 c 0,0.55242 -0.44473,0.99715 -0.99715,0.99715 l -59.828734,0 c -0.552418,0 -0.997145,-0.44473 -0.997145,-0.99715 l 0,-39.88582 c 0,-0.55242 0.444727,-0.99715 0.997145,-0.99715 z"
       id="rect2722"
       inkscape:connector-curvature="0" /><path
       style="color:#000000;fill:url(#radialGradient35746);fill-rule:evenodd;stroke:url(#linearGradient35748);stroke-width:1.99847925;stroke-linecap:round;stroke-linejoin:round"
       d="m 62.148483,124.79335 53.845867,0 0,33.90295 -53.845867,0 z"
       id="rect2716"
       inkscape:connector-curvature="0" /><path
       style="opacity:0.3;fill:none;stroke:url(#radialGradient35743);stroke-width:1.99429131;stroke-linecap:square"
       d="m 64.142776,126.78764 49.857284,0 0,29.91437 -49.857284,0 z"
       id="rect6600"
       inkscape:connector-curvature="0" /><path
       style="opacity:0.8;fill:#ffffff"
       d="m 63.145626,125.7905 51.851574,0 0,1.99429 -51.851574,0 z"
       id="rect4934"
       inkscape:connector-curvature="0" /><path
       style="opacity:0.9;fill:#ffffff"
       d="m 70.125648,141.74483 11.965747,0 c 0.552419,0 0.997146,0.44472 0.997146,0.99714 l 0,9.97146 c 0,0.55242 -0.444727,0.99715 -0.997146,0.99715 l -11.965747,0 c -0.552419,0 -0.997146,-0.44473 -0.997146,-0.99715 l 0,-9.97146 c 0,-0.55242 0.444727,-0.99714 0.997146,-0.99714 z"
       id="rect4936"
       inkscape:connector-curvature="0" /><path
       style="opacity:0.9;fill:#ffffff"
       d="m 90.068557,131.77338 17.948623,0 c 0.55242,0 0.99714,0.44472 0.99714,0.99714 l 0,15.95433 c 0,0.55242 -0.44472,0.99715 -0.99714,0.99715 l -17.948623,0 c -0.552419,0 -0.997146,-0.44473 -0.997146,-0.99715 l 0,-15.95433 c 0,-0.55242 0.444727,-0.99714 0.997146,-0.99714 z"
       id="rect4936-2"
       inkscape:connector-curvature="0" /><path
       style="opacity:0.4"
       d="m 71.122795,143.73912 9.971457,0 0,1.99429 -9.971457,0 z"
       id="rect4960"
       inkscape:connector-curvature="0" /><path
       style="opacity:0.4"
       d="m 91.065704,133.76765 15.954326,0 0,1.9943 -15.954326,0 z"
       id="rect4960-1"
       inkscape:connector-curvature="0" /><path
       style="fill:url(#linearGradient35735)"
       id="rect6588"
       d="m 61.151336,123.7962 h 55.840154 v 11.70051 l -55.840154,10.2367 V 123.7962 z"
       inkscape:connector-curvature="0" /></g></g></svg>