<?xml version="1.0" encoding="UTF-8" standalone="no"?>
<!-- Created with Inkscape (http://www.inkscape.org/) -->
<svg xmlns:dc="http://purl.org/dc/elements/1.1/" xmlns:cc="http://creativecommons.org/ns#" xmlns:rdf="http://www.w3.org/1999/02/22-rdf-syntax-ns#" xmlns:svg="http://www.w3.org/2000/svg" xmlns="http://www.w3.org/2000/svg" xmlns:sodipodi="http://sodipodi.sourceforge.net/DTD/sodipodi-0.dtd" xmlns:inkscape="http://www.inkscape.org/namespaces/inkscape" width="91.25" height="122.65625" id="svg7021" version="1.1" inkscape:version="0.48.3.1 r9886" sodipodi:docname="Nouveau document 46">
  <defs id="defs7023"/>
  <sodipodi:namedview id="base" pagecolor="#ffffff" bordercolor="#666666" borderopacity="1.0" inkscape:pageopacity="0.0" inkscape:pageshadow="2" inkscape:zoom="0.35" inkscape:cx="237.78125" inkscape:cy="-138.67468" inkscape:document-units="px" inkscape:current-layer="layer1" showgrid="false" fit-margin-top="0" fit-margin-left="0" fit-margin-right="0" fit-margin-bottom="0" inkscape:window-width="486" inkscape:window-height="415" inkscape:window-x="49" inkscape:window-y="24" inkscape:window-maximized="0"/>
  <g inkscape:label="Calque 1" inkscape:groupmode="layer" id="layer1" transform="translate(-137.21875,-271.03125)">
    <path inkscape:connector-curvature="0" id="path1224" d="m 139.10714,380.41393 0,-97.5 87.5,0 0,97.5 -2.5,2.5 -5,2.5 -4.45802,1.84075 -3.44725,0.80575 -4.25293,1.21575 -5.3418,1.13775 -3.67677,0.586 -5.06348,0.6055 -9.21875,0.205 -11.34765,-0.40525 -9.21875,-1.01075 -9.42382,-2.53422 -7.05078,-2.44628 -2.67577,-1.30372 -2.32423,-1.19628 z m 0,0" style="fill:#bdbdbd;fill-opacity:1;fill-rule:evenodd;stroke:#9c9c9c;stroke-width:3.75;stroke-linecap:butt;stroke-linejoin:miter;stroke-miterlimit:10;stroke-opacity:1"/>
    <path inkscape:connector-curvature="0" id="path1226" d="m 226.60714,281.66393 c 0,4.8291 -19.58985,8.75 -43.75,8.75 -24.16505,0 -43.75,-3.9209 -43.75,-8.75 0,-4.834 19.58495,-8.75 43.75,-8.75 24.16015,0 43.75,3.916 43.75,8.75" style="fill:#bdbdbd;fill-opacity:1;fill-rule:evenodd;stroke:#9c9c9c;stroke-width:3.75;stroke-linecap:butt;stroke-linejoin:miter;stroke-miterlimit:10;stroke-opacity:1"/>
    <path inkscape:connector-curvature="0" id="path1228" d="m 201.60714,279.16393 c 0,2.07025 -8.39845,3.75 -18.75,3.75 -10.35645,0 -18.75,-1.67975 -18.75,-3.75 0,-2.07025 8.39355,-3.75 18.75,-3.75 10.35155,0 18.75,1.67975 18.75,3.75" style="fill:#bdbdbd;fill-opacity:1;fill-rule:evenodd;stroke:#9c9c9c;stroke-width:2.5;stroke-linecap:butt;stroke-linejoin:miter;stroke-miterlimit:10;stroke-opacity:1"/>
    <path inkscape:connector-curvature="0" id="path1230" d="m 164.10714,279.16393 0,5" style="fill:none;stroke:#9c9c9c;stroke-width:2.5;stroke-linecap:butt;stroke-linejoin:miter;stroke-miterlimit:10;stroke-opacity:1"/>
    <path inkscape:connector-curvature="0" id="path1232" d="m 201.60714,279.16393 0,5" style="fill:none;stroke:#9c9c9c;stroke-width:2.5;stroke-linecap:butt;stroke-linejoin:miter;stroke-miterlimit:10;stroke-opacity:1"/>
    <path inkscape:connector-curvature="0" id="path1234" d="m 177.85714,335.41393 10,0 c 7.59278,0 13.75,6.15235 13.75,13.75 0,7.59278 -6.15722,13.75 -13.75,13.75 l -10,0 c -7.59765,0 -13.75,-6.15722 -13.75,-13.75 0,-7.59765 6.15235,-13.75 13.75,-13.75" style="fill:#ffffff;fill-opacity:1;fill-rule:evenodd;stroke:#9c9c9c;stroke-width:2.5;stroke-linecap:butt;stroke-linejoin:round;stroke-miterlimit:10;stroke-opacity:1"/>
    <path inkscape:connector-curvature="0" id="path1236" d="m 174.10714,307.91393 0,17.5" style="fill:none;stroke:#9c9c9c;stroke-width:5;stroke-linecap:butt;stroke-linejoin:round;stroke-miterlimit:10;stroke-opacity:1"/>
    <path inkscape:connector-curvature="0" id="path1238" d="m 191.60714,307.91393 0,17.5" style="fill:none;stroke:#9c9c9c;stroke-width:5;stroke-linecap:butt;stroke-linejoin:round;stroke-miterlimit:10;stroke-opacity:1"/>
    <path inkscape:connector-curvature="0" id="path1240" d="m 182.60812,362.91393 0,17.5" style="fill:none;stroke:#9c9c9c;stroke-width:10;stroke-linecap:butt;stroke-linejoin:round;stroke-miterlimit:10;stroke-opacity:1"/>
    <path inkscape:connector-curvature="0" id="path1242" d="m 166.60714,325.41393 32.5,0 c 1.37695,0 2.5,1.11825 2.5,2.5 l 0,22.5 c 0,1.377 -1.12305,2.5 -2.5,2.5 l -32.5,0 c -1.38185,0 -2.5,-1.123 -2.5,-2.5 l 0,-22.5 c 0,-1.38175 1.11815,-2.5 2.5,-2.5" style="fill:#ffffff;fill-opacity:1;fill-rule:evenodd;stroke:#9c9c9c;stroke-width:2.5;stroke-linecap:butt;stroke-linejoin:round;stroke-miterlimit:10;stroke-opacity:1"/>
  </g>
  <metadata>
    <rdf:RDF>
      <cc:Work>
        <dc:format>image/svg+xml</dc:format>
        <dc:type rdf:resource="http://purl.org/dc/dcmitype/StillImage"/>
        <cc:license rdf:resource="http://creativecommons.org/licenses/publicdomain/"/>
        <dc:publisher>
          <cc:Agent rdf:about="http://openclipart.org/">
            <dc:title>Open Clip Art Library</dc:title>
          </cc:Agent>
        </dc:publisher>
        <dc:title>UPS</dc:title>
        <dc:date>2012-08-02T14:26:17</dc:date>
        <dc:description/>
        <dc:source>http://openclipart.org/detail/171419/ups-by-cyberscooty-171419</dc:source>
        <dc:creator>
          <cc:Agent>
            <dc:title>cyberscooty</dc:title>
          </cc:Agent>
        </dc:creator>
        <dc:subject>
          <rdf:Bag>
            <rdf:li>UPS</rdf:li>
            <rdf:li>clip art</rdf:li>
            <rdf:li>clipart</rdf:li>
            <rdf:li>computer</rdf:li>
            <rdf:li>informatique</rdf:li>
            <rdf:li>inverter</rdf:li>
            <rdf:li>it</rdf:li>
            <rdf:li>onduleur</rdf:li>
            <rdf:li>ordinateur</rdf:li>
            <rdf:li>server</rdf:li>
            <rdf:li>serveur</rdf:li>
          </rdf:Bag>
        </dc:subject>
      </cc:Work>
      <cc:License rdf:about="http://creativecommons.org/licenses/publicdomain/">
        <cc:permits rdf:resource="http://creativecommons.org/ns#Reproduction"/>
        <cc:permits rdf:resource="http://creativecommons.org/ns#Distribution"/>
        <cc:permits rdf:resource="http://creativecommons.org/ns#DerivativeWorks"/>
      </cc:License>
    </rdf:RDF>
  </metadata>
</svg>
