<?xml version="1.0" encoding="UTF-8" standalone="no"?>
<!-- Created with Inkscape (http://www.inkscape.org/) -->
<svg xmlns:dc="http://purl.org/dc/elements/1.1/" xmlns:cc="http://creativecommons.org/ns#" xmlns:rdf="http://www.w3.org/1999/02/22-rdf-syntax-ns#" xmlns:svg="http://www.w3.org/2000/svg" xmlns="http://www.w3.org/2000/svg" xmlns:sodipodi="http://sodipodi.sourceforge.net/DTD/sodipodi-0.dtd" xmlns:inkscape="http://www.inkscape.org/namespaces/inkscape" width="136.51451" height="135" id="svg5875" version="1.1" inkscape:version="0.48.3.1 r9886" sodipodi:docname="Nouveau document 9">
  <defs id="defs5877"/>
  <sodipodi:namedview id="base" pagecolor="#ffffff" bordercolor="#666666" borderopacity="1.0" inkscape:pageopacity="0.0" inkscape:pageshadow="2" inkscape:zoom="0.35" inkscape:cx="-105.31419" inkscape:cy="44.637817" inkscape:document-units="px" inkscape:current-layer="layer1" showgrid="false" fit-margin-top="0" fit-margin-left="0" fit-margin-right="0" fit-margin-bottom="0" inkscape:window-width="486" inkscape:window-height="415" inkscape:window-x="49" inkscape:window-y="24" inkscape:window-maximized="0"/>
  <g inkscape:label="Calque 1" inkscape:groupmode="layer" id="layer1" transform="translate(-480.31419,-442)">
    <path inkscape:connector-curvature="0" id="path324" d="m 566.1858,493.25504 c 34.99999,0 44.99999,10 48.32519,30.1123 3.3252,20.10742 1.6748,39.8877 -48.32519,39.8877 -50,0 -50,-20 -45,-40 5,-20 10,-30 45,-30" style="fill:#2e993a;fill-opacity:1;fill-rule:evenodd;stroke:#1e8523;stroke-width:2.5;stroke-linecap:butt;stroke-linejoin:miter;stroke-miterlimit:10;stroke-opacity:1"/>
    <path inkscape:connector-curvature="0" id="path326" d="m 556.1858,493.25504 24.99999,0 -14.99999,55 z m 0,0" style="fill:#ffffff;fill-opacity:1;fill-rule:evenodd;stroke:#1e8523;stroke-width:2.5;stroke-linecap:butt;stroke-linejoin:miter;stroke-miterlimit:10;stroke-opacity:1"/>
    <path inkscape:connector-curvature="0" id="path328" d="m 551.1858,488.25504 10,10 -5,5 z m 0,0" style="fill:#2e993a;fill-opacity:1;fill-rule:evenodd;stroke:#1e8523;stroke-width:2.5;stroke-linecap:butt;stroke-linejoin:miter;stroke-miterlimit:10;stroke-opacity:1"/>
    <path inkscape:connector-curvature="0" id="path330" d="m 576.1858,498.25504 9.99999,-10 -5,15 z m 0,0" style="fill:#2e993a;fill-opacity:1;fill-rule:evenodd;stroke:#1e8523;stroke-width:2.5;stroke-linecap:butt;stroke-linejoin:miter;stroke-miterlimit:10;stroke-opacity:1"/>
    <path inkscape:connector-curvature="0" id="path332" d="m 541.1858,523.25504 0,0 c -5.3369,9.06737 -7.94433,19.4873 -7.5,30" style="fill:none;stroke:#1e8523;stroke-width:1.25;stroke-linecap:butt;stroke-linejoin:miter;stroke-miterlimit:10;stroke-opacity:1"/>
    <path inkscape:connector-curvature="0" id="path334" d="m 598.68579,553.25504 0,0 c 0.94238,-10.26368 -0.78125,-20.5957 -5,-30" style="fill:none;stroke:#1e8523;stroke-width:1.25;stroke-linecap:butt;stroke-linejoin:miter;stroke-miterlimit:10;stroke-opacity:1"/>
    <path inkscape:connector-curvature="0" id="path336" d="m 596.18579,470.75504 c 0,15.19042 -12.30957,27.5 -27.49999,27.5 -15.18555,0 -27.5,-12.30958 -27.5,-27.5 0,-15.18555 12.31445,-27.5 27.5,-27.5 15.19042,0 27.49999,12.31445 27.49999,27.5" style="fill:#ffd9b5;fill-opacity:1;fill-rule:evenodd;stroke:#ffb068;stroke-width:2.5;stroke-linecap:butt;stroke-linejoin:miter;stroke-miterlimit:10;stroke-opacity:1"/>
    <path inkscape:connector-curvature="0" id="path338" d="m 528.6858,505.75504 c 35,0 45,10 48.3252,30.1123 3.32519,20.10742 1.6748,39.8877 -48.3252,39.8877 -50,0 -50,-20 -45,-40 5,-20 10,-30 45,-30" style="fill:#2e5e99;fill-opacity:1;fill-rule:evenodd;stroke:#1e4a85;stroke-width:2.5;stroke-linecap:butt;stroke-linejoin:miter;stroke-miterlimit:10;stroke-opacity:1"/>
    <path inkscape:connector-curvature="0" id="path340" d="m 518.6858,505.75504 25,0 -15,55 z m 0,0" style="fill:#ffffff;fill-opacity:1;fill-rule:evenodd;stroke:#1e4a85;stroke-width:2.5;stroke-linecap:butt;stroke-linejoin:miter;stroke-miterlimit:10;stroke-opacity:1"/>
    <path inkscape:connector-curvature="0" id="path342" d="m 513.6858,500.75504 10,10 -5,5 z m 0,0" style="fill:#6161ff;fill-opacity:1;fill-rule:evenodd;stroke:#1e4a85;stroke-width:2.5;stroke-linecap:butt;stroke-linejoin:miter;stroke-miterlimit:10;stroke-opacity:1"/>
    <path inkscape:connector-curvature="0" id="path344" d="m 538.6858,510.75504 10,-10 -5,15 z m 0,0" style="fill:#6161ff;fill-opacity:1;fill-rule:evenodd;stroke:#1e4a85;stroke-width:2.5;stroke-linecap:butt;stroke-linejoin:miter;stroke-miterlimit:10;stroke-opacity:1"/>
    <path inkscape:connector-curvature="0" id="path346" d="m 503.6858,535.75504 0,0 c -5.3369,9.06737 -7.94433,19.4873 -7.5,30" style="fill:none;stroke:#1e4a85;stroke-width:1.25;stroke-linecap:butt;stroke-linejoin:miter;stroke-miterlimit:10;stroke-opacity:1"/>
    <path inkscape:connector-curvature="0" id="path348" d="m 561.1858,565.75504 0,0 c 0.94237,-10.26368 -0.78125,-20.5957 -5,-30" style="fill:none;stroke:#1e4a85;stroke-width:1.25;stroke-linecap:butt;stroke-linejoin:miter;stroke-miterlimit:10;stroke-opacity:1"/>
    <path inkscape:connector-curvature="0" id="path350" d="m 558.6858,483.25504 c 0,15.19042 -12.30958,27.5 -27.5,27.5 -15.18554,0 -27.5,-12.30958 -27.5,-27.5 0,-15.18555 12.31446,-27.5 27.5,-27.5 15.19042,0 27.5,12.31445 27.5,27.5" style="fill:#ffd9b5;fill-opacity:1;fill-rule:evenodd;stroke:#ffb068;stroke-width:2.5;stroke-linecap:butt;stroke-linejoin:miter;stroke-miterlimit:10;stroke-opacity:1"/>
  </g>
  <metadata>
    <rdf:RDF>
      <cc:Work>
        <dc:format>image/svg+xml</dc:format>
        <dc:type rdf:resource="http://purl.org/dc/dcmitype/StillImage"/>
        <cc:license rdf:resource="http://creativecommons.org/licenses/publicdomain/"/>
        <dc:publisher>
          <cc:Agent rdf:about="http://openclipart.org/">
            <dc:title>Open Clip Art Library</dc:title>
          </cc:Agent>
        </dc:publisher>
        <dc:title>Group</dc:title>
        <dc:date>2012-08-02T14:31:17</dc:date>
        <dc:description/>
        <dc:source>http://openclipart.org/detail/171431/group-by-cyberscooty-171431</dc:source>
        <dc:creator>
          <cc:Agent>
            <dc:title>cyberscooty</dc:title>
          </cc:Agent>
        </dc:creator>
        <dc:subject>
          <rdf:Bag>
            <rdf:li>clip art</rdf:li>
            <rdf:li>clipart</rdf:li>
            <rdf:li>computer</rdf:li>
            <rdf:li>group</rdf:li>
            <rdf:li>informatique</rdf:li>
            <rdf:li>it</rdf:li>
            <rdf:li>ordinateur</rdf:li>
            <rdf:li>server</rdf:li>
            <rdf:li>serveur</rdf:li>
            <rdf:li>user</rdf:li>
            <rdf:li>users</rdf:li>
          </rdf:Bag>
        </dc:subject>
      </cc:Work>
      <cc:License rdf:about="http://creativecommons.org/licenses/publicdomain/">
        <cc:permits rdf:resource="http://creativecommons.org/ns#Reproduction"/>
        <cc:permits rdf:resource="http://creativecommons.org/ns#Distribution"/>
        <cc:permits rdf:resource="http://creativecommons.org/ns#DerivativeWorks"/>
      </cc:License>
    </rdf:RDF>
  </metadata>
</svg>
