<?xml version="1.0" encoding="UTF-8" standalone="no"?>
<!-- Generator: Adobe Illustrator 15.0.0, SVG Export Plug-In . SVG Version: 6.00 Build 0)  -->

<svg
   xmlns:dc="http://purl.org/dc/elements/1.1/"
   xmlns:cc="http://creativecommons.org/ns#"
   xmlns:rdf="http://www.w3.org/1999/02/22-rdf-syntax-ns#"
   xmlns:svg="http://www.w3.org/2000/svg"
   xmlns="http://www.w3.org/2000/svg"
   xmlns:sodipodi="http://sodipodi.sourceforge.net/DTD/sodipodi-0.dtd"
   xmlns:inkscape="http://www.inkscape.org/namespaces/inkscape"
   version="1.1"
   id="Layer_1"
   x="0px"
   y="0px"
   width="151.396px"
   height="150.559px"
   viewBox="2.836 2.404 151.396 150.559"
   enable-background="new 2.836 2.404 151.396 150.559"
   xml:space="preserve"
   inkscape:version="0.48.4 r9939"
   sodipodi:docname="windows7_simbolo.svg"><metadata
   id="metadata781"><rdf:RDF><cc:Work
       rdf:about=""><dc:format>image/svg+xml</dc:format><dc:type
         rdf:resource="http://purl.org/dc/dcmitype/StillImage" /></cc:Work></rdf:RDF></metadata><defs
   id="defs779" /><sodipodi:namedview
   pagecolor="#ffffff"
   bordercolor="#666666"
   borderopacity="1"
   objecttolerance="10"
   gridtolerance="10"
   guidetolerance="10"
   inkscape:pageopacity="0"
   inkscape:pageshadow="2"
   inkscape:window-width="1600"
   inkscape:window-height="838"
   id="namedview777"
   showgrid="false"
   inkscape:zoom="3.1349835"
   inkscape:cx="136.94367"
   inkscape:cy="73.313834"
   inkscape:window-x="-8"
   inkscape:window-y="-8"
   inkscape:window-maximized="1"
   inkscape:current-layer="Livello_1_1_" />
<g
   id="Griglia"
   display="none">
</g>
<g
   id="Livello_1">
</g>
<g
   id="Desktop">
</g>
<g
   id="Guida">
</g>
<g
   id="Page_1">
	<g
   id="Livello_1_1_">
		
		<path
   fill="#FFFFFF"
   d="M12.637,113.911h2.879l3.963,16.024c0.039,0.168,0.088,0.463,0.149,0.877    c0.058,0.414,0.129,0.948,0.202,1.607c0.039-0.5,0.082-0.95,0.135-1.347c0.054-0.4,0.111-0.742,0.178-1.026l4.103-16.135h3.641    l4.107,16.15c0.067,0.285,0.125,0.625,0.183,1.03c0.058,0.404,0.106,0.847,0.154,1.328c0.048-0.511,0.102-0.973,0.155-1.392    c0.058-0.42,0.104-0.713,0.143-0.881l4.132-16.236h2.654l-5.403,20.044h-3.53l-4.218-16.362c-0.052-0.234-0.105-0.552-0.154-0.947    c-0.048-0.396-0.086-0.834-0.125-1.311c-0.087,0.8-0.15,1.357-0.192,1.682c-0.043,0.318-0.077,0.516-0.106,0.592l-4.189,16.348    h-3.582L12.637,113.911L12.637,113.911z M40.205,119.454h2.683v14.501h-2.683V119.454L40.205,119.454z M40.205,112.809h2.683    v2.682h-2.683V112.809L40.205,112.809z M58.389,125.191v8.764h-2.683v-8.156c0-1.484-0.264-2.585-0.789-3.309    c-0.529-0.717-1.343-1.078-2.445-1.078c-1.205,0-2.158,0.451-2.846,1.361c-0.694,0.908-1.041,2.174-1.041,3.789v7.392h-2.682    v-14.501h2.455v2.675c0.535-1.001,1.229-1.762,2.075-2.267c0.848-0.506,1.839-0.762,2.976-0.762c1.638,0,2.875,0.516,3.717,1.551    C57.969,121.688,58.389,123.198,58.389,125.191L58.389,125.191z M66.796,121.189c-1.156,0-2.085,0.492-2.773,1.475    c-0.693,0.984-1.04,2.313-1.04,3.988c0,1.654,0.351,2.966,1.054,3.929c0.698,0.962,1.637,1.442,2.816,1.442    c1.224,0,2.21-0.489,2.962-1.467c0.747-0.977,1.122-2.276,1.122-3.904c0-1.704-0.371-3.039-1.108-4.008    C69.087,121.678,68.077,121.189,66.796,121.189L66.796,121.189z M70.937,112.375h2.682v21.58h-2.441v-2.947    c-0.568,1.055-1.275,1.846-2.129,2.381c-0.852,0.527-1.843,0.793-2.97,0.793c-1.724,0-3.144-0.717-4.257-2.158    c-1.116-1.439-1.675-3.289-1.675-5.547c0-2.229,0.549-4.015,1.647-5.357c1.097-1.346,2.542-2.02,4.342-2.02    c1.046,0,1.97,0.223,2.783,0.67c0.81,0.446,1.483,1.111,2.018,1.998V112.375L70.937,112.375z M82.846,121.162    c-1.285,0-2.33,0.505-3.13,1.518c-0.799,1.01-1.199,2.346-1.199,3.996c0,1.639,0.4,2.963,1.199,3.973    c0.8,1.011,1.845,1.518,3.13,1.518c1.305,0,2.355-0.5,3.146-1.499c0.79-0.997,1.185-2.325,1.185-3.991    c0-1.67-0.395-3.009-1.185-4.012C85.201,121.663,84.15,121.162,82.846,121.162L82.846,121.162z M82.818,119.102    c2.228,0,3.986,0.678,5.267,2.037c1.285,1.362,1.927,3.217,1.927,5.564c0,2.331-0.646,4.186-1.941,5.554    c-1.291,1.367-3.043,2.052-5.252,2.052c-2.211,0-3.958-0.685-5.24-2.047c-1.285-1.363-1.926-3.216-1.926-5.558    c0-2.349,0.641-4.202,1.926-5.563C78.859,119.779,80.606,119.102,82.818,119.102L82.818,119.102z M90.107,119.454h2.896    l3.058,11.015c0.01,0.049,0.049,0.284,0.106,0.713c0.062,0.43,0.12,0.822,0.177,1.18c0.092-0.67,0.159-1.123,0.198-1.362    c0.039-0.242,0.071-0.392,0.097-0.458l3.258-11.088h3.332l3.231,11.002c0.024,0.075,0.073,0.287,0.13,0.635    c0.063,0.352,0.121,0.77,0.18,1.271c0.047-0.463,0.096-0.838,0.139-1.135c0.048-0.295,0.101-0.535,0.16-0.713l3.226-11.06h2.64    l-4.738,14.501h-3.063l-3.413-11.499c-0.048-0.14-0.092-0.354-0.136-0.64c-0.039-0.289-0.082-0.649-0.12-1.077    c-0.042,0.366-0.096,0.708-0.145,1.028c-0.053,0.319-0.102,0.569-0.149,0.748l-3.413,11.44h-3.063L90.107,119.454L90.107,119.454z     M121.859,119.833l-0.11,2.192c-0.587-0.274-1.185-0.481-1.8-0.62c-0.616-0.142-1.237-0.214-1.868-0.214    c-0.731,0-1.324,0.149-1.763,0.453c-0.443,0.297-0.664,0.697-0.664,1.2c0,0.443,0.183,0.839,0.543,1.183    c0.361,0.35,1.117,0.793,2.264,1.326c1.521,0.709,2.571,1.391,3.145,2.061c0.572,0.665,0.861,1.469,0.861,2.412    c0,1.314-0.529,2.361-1.589,3.135c-1.054,0.775-2.489,1.166-4.294,1.166c-0.661,0-1.311-0.063-1.956-0.182    c-0.646-0.122-1.267-0.303-1.868-0.535l0.088-2.258c0.653,0.326,1.313,0.576,1.963,0.74c0.656,0.164,1.281,0.246,1.883,0.246    c0.886,0,1.59-0.193,2.109-0.574c0.524-0.379,0.784-0.896,0.784-1.539c0-0.481-0.153-0.896-0.466-1.242    c-0.309-0.346-1.031-0.801-2.172-1.354c-1.521-0.748-2.566-1.436-3.131-2.076c-0.563-0.641-0.848-1.392-0.848-2.258    c0-1.138,0.481-2.058,1.439-2.761c0.959-0.696,2.238-1.048,3.838-1.048c0.582,0,1.179,0.043,1.786,0.135    C120.643,119.505,121.249,119.645,121.859,119.833L121.859,119.833z M131.795,113.911h12.712v2.455l-7.69,17.589h-3.09    l7.916-17.829h-9.848V113.911L131.795,113.911z"
   id="path17"
   style="fill:#000000" />
		<path
   fill="#FFFFFF"
   d="M126.688,120.887h-0.604v1.297h0.625c0.353,0,0.604-0.05,0.758-0.147c0.154-0.099,0.231-0.257,0.231-0.476    c0-0.236-0.08-0.408-0.239-0.514C127.297,120.941,127.042,120.887,126.688,120.887L126.688,120.887z M126.818,120.408    c0.543,0,0.953,0.09,1.227,0.27s0.411,0.447,0.411,0.805c0,0.277-0.078,0.507-0.233,0.69c-0.156,0.185-0.375,0.306-0.66,0.361    l0.875,1.786h-0.83l-0.797-1.668h-0.727v1.668h-0.74v-3.912H126.818L126.818,120.408z M129.738,122.466    c0-0.419-0.074-0.809-0.219-1.174c-0.146-0.364-0.356-0.685-0.635-0.964c-0.289-0.289-0.615-0.51-0.979-0.661    s-0.752-0.228-1.165-0.228c-0.405,0-0.789,0.076-1.149,0.221c-0.359,0.146-0.674,0.357-0.943,0.631    c-0.293,0.297-0.521,0.631-0.678,1.001c-0.158,0.37-0.236,0.752-0.236,1.146c0,0.39,0.076,0.764,0.228,1.123    c0.151,0.361,0.37,0.685,0.654,0.972c0.28,0.286,0.604,0.507,0.97,0.663c0.365,0.154,0.739,0.23,1.128,0.23    c0.405,0,0.791-0.074,1.156-0.227c0.364-0.147,0.696-0.365,0.997-0.652c0.281-0.273,0.496-0.59,0.646-0.947    C129.662,123.242,129.738,122.865,129.738,122.466L129.738,122.466z M126.727,118.982c0.473,0,0.918,0.086,1.34,0.261    c0.42,0.178,0.795,0.43,1.125,0.763c0.32,0.325,0.566,0.698,0.738,1.117c0.172,0.417,0.256,0.854,0.256,1.309    c0,0.474-0.084,0.916-0.256,1.33c-0.172,0.413-0.421,0.779-0.75,1.098c-0.34,0.328-0.722,0.584-1.146,0.759    c-0.423,0.177-0.858,0.265-1.308,0.265c-0.459,0-0.897-0.088-1.315-0.265c-0.417-0.175-0.79-0.433-1.121-0.771    c-0.328-0.328-0.576-0.701-0.75-1.115c-0.17-0.414-0.257-0.848-0.257-1.301c0-0.455,0.09-0.896,0.27-1.32    c0.18-0.426,0.438-0.81,0.774-1.148c0.315-0.322,0.677-0.566,1.083-0.73C125.818,119.064,126.258,118.982,126.727,118.982    L126.727,118.982z"
   id="path19"
   style="fill:#000000" />
		<path
   fill="#FFFFFF"
   d="M115.516,99.162h-0.604v1.296h0.625c0.353,0,0.604-0.049,0.758-0.147c0.154-0.099,0.231-0.256,0.231-0.476    c0-0.237-0.082-0.408-0.24-0.513C116.124,99.215,115.868,99.162,115.516,99.162L115.516,99.162z M115.646,98.684    c0.543,0,0.953,0.09,1.225,0.269c0.273,0.18,0.411,0.446,0.411,0.804c0,0.278-0.078,0.508-0.234,0.691    c-0.155,0.184-0.375,0.306-0.659,0.361l0.875,1.785h-0.83l-0.795-1.668h-0.728v1.668h-0.74v-3.91H115.646L115.646,98.684z     M118.564,100.74c0-0.42-0.073-0.809-0.219-1.174c-0.146-0.363-0.355-0.685-0.634-0.965c-0.29-0.289-0.614-0.509-0.979-0.66    c-0.363-0.152-0.752-0.228-1.166-0.228c-0.404,0-0.789,0.075-1.147,0.22c-0.36,0.146-0.675,0.357-0.942,0.631    c-0.293,0.297-0.521,0.631-0.68,1c-0.156,0.371-0.234,0.754-0.234,1.146c0,0.389,0.074,0.764,0.227,1.123    c0.15,0.361,0.37,0.684,0.654,0.971c0.281,0.287,0.604,0.508,0.971,0.663c0.363,0.154,0.738,0.231,1.128,0.231    c0.405,0,0.791-0.075,1.155-0.227c0.363-0.147,0.697-0.367,0.998-0.652c0.281-0.274,0.496-0.59,0.646-0.947    C118.488,101.516,118.564,101.141,118.564,100.74L118.564,100.74z M115.555,97.256c0.471,0,0.916,0.088,1.338,0.262    c0.42,0.176,0.795,0.43,1.125,0.763c0.32,0.325,0.565,0.696,0.738,1.116c0.171,0.416,0.258,0.854,0.258,1.309    c0,0.473-0.087,0.915-0.258,1.33c-0.172,0.413-0.421,0.777-0.75,1.097c-0.34,0.329-0.722,0.583-1.145,0.759    c-0.424,0.178-0.859,0.267-1.309,0.267c-0.46,0-0.896-0.089-1.314-0.267c-0.418-0.175-0.79-0.432-1.121-0.77    c-0.328-0.329-0.577-0.702-0.75-1.116c-0.17-0.413-0.258-0.847-0.258-1.3c0-0.456,0.091-0.896,0.271-1.322    c0.181-0.425,0.438-0.809,0.774-1.148c0.314-0.322,0.676-0.566,1.082-0.73C114.646,97.339,115.084,97.256,115.555,97.256    L115.555,97.256z"
   id="path21"
   style="fill:#000000" />
		
			<radialGradient
   id="SVGID_3_"
   cx="410.8594"
   cy="1191.9775"
   r="44.6505"
   gradientTransform="matrix(0.9732 0 0 0.9795 -318.0362 -1099.9161)"
   gradientUnits="userSpaceOnUse">
			<stop
   offset="0.25"
   style="stop-color:#FFFFFF"
   id="stop24" />
			<stop
   offset="1"
   style="stop-color:#010101"
   id="stop26" />
		</radialGradient>
		<path
   opacity="0.2"
   fill="url(#SVGID_3_)"
   enable-background="new    "
   d="M60.373,58.379c-1.58,0.039-3.247,0.205-4.955,0.486    c-1.792,0.298-3.693,0.737-5.646,1.304c-2.037,0.59-4.203,1.348-6.43,2.244l-0.017,0.002c-0.075,0.031-0.128,0.093-0.155,0.177    l-8.879,30.083c-0.048,0.158,0.04,0.325,0.141,0.407l0.595,0.443c0,0,0.01,0.006,0.019,0.018c0.143,0.091,0.288,0.09,0.346,0.081    c0.003,0,0.018-0.005,0.018-0.005c3.326-1.249,6.29-2.145,9.064-2.743c2.704-0.58,5.139-0.856,7.444-0.845    c1.928,0.014,3.741,0.211,5.545,0.603c1.627,0.357,3.21,0.866,4.836,1.56c2.279,0.994,4.37,2.242,5.937,3.218l0.015,0.008v0.003    c0.049,0.027,0.193,0.092,0.333,0.031c0,0,0.392-0.223,0.509-0.294l0,0l0.041-0.029c0.08-0.053,0.188-0.126,0.22-0.262    l0.006-0.031c0,0,0.003,0.004,0.004,0.007C69.38,94.787,78.2,65.547,78.2,65.547l0.303-1.004c0.004-0.025,0.009-0.054,0.009-0.082    c0-0.115-0.051-0.222-0.137-0.283c-0.002,0-0.009-0.002-0.009-0.002v-0.001c-3.763-2.468-8.014-4.851-13.619-5.574    C63.338,58.415,61.868,58.347,60.373,58.379z"
   id="path28" />
		
			<radialGradient
   id="SVGID_4_"
   cx="410.8604"
   cy="1191.9795"
   r="44.6527"
   gradientTransform="matrix(0.9732 0 0 0.9795 -318.0362 -1099.9161)"
   gradientUnits="userSpaceOnUse">
			<stop
   offset="0.25"
   style="stop-color:#FFFFFF"
   id="stop31" />
			<stop
   offset="1"
   style="stop-color:#010101"
   id="stop33" />
		</radialGradient>
		<path
   opacity="0.2"
   fill="url(#SVGID_4_)"
   enable-background="new    "
   d="M82.448,67.291L82.448,67.291    c-0.103,0.006-0.21,0.044-0.367,0.142c0,0.002-0.001,0.003-0.001,0.003h-0.004l-0.001,0.004c-0.041,0.029-0.144,0.096-0.261,0.188    c-0.237,0.181-0.385,0.328-0.424,0.427h-0.004l0,0c0,0.008-0.008,0.027-0.008,0.027l0.003-0.007l-0.003,0.009v0.003l-8.889,29.81    c-0.153,0.445,0.256,0.689,0.303,0.713c2.28,1.48,4.456,2.65,6.648,3.563c1.285,0.54,2.599,0.995,3.909,1.358    c1.42,0.396,2.877,0.705,4.34,0.91c1.568,0.217,3.187,0.328,4.808,0.326c1.724-0.01,3.511-0.146,5.308-0.401    c1.896-0.273,3.859-0.695,5.838-1.253c2.08-0.583,4.233-1.338,6.405-2.236c0.002,0,0.013-0.007,0.013-0.007    c0.062-0.038,0.205-0.126,0.277-0.272c0-0.003,8.682-29.324,8.684-29.333l-0.002-0.007v-0.002    c0.012-0.042,0.013-0.087,0.013-0.127c0-0.241-0.156-0.387-0.156-0.39c0,0.003-0.729-0.56-0.729-0.56l0,0v-0.006    c-0.047-0.051-0.176-0.129-0.485-0.087c-2.229,0.731-4.379,1.336-6.401,1.81c-1.951,0.454-3.838,0.795-5.619,1.012    c-3.357,0.411-6.396,0.411-9.283,0c-2.545-0.361-4.953-1.047-7.354-2.087c-1.942-0.842-3.922-1.934-6.229-3.438l-0.004-0.004    h0.002C82.625,67.316,82.536,67.291,82.448,67.291z"
   id="path35" />
		
			<radialGradient
   id="SVGID_5_"
   cx="410.8623"
   cy="1191.9785"
   r="44.6521"
   gradientTransform="matrix(0.9732 0 0 0.9795 -318.0362 -1099.9161)"
   gradientUnits="userSpaceOnUse">
			<stop
   offset="0.25"
   style="stop-color:#FFFFFF"
   id="stop38" />
			<stop
   offset="1"
   style="stop-color:#010101"
   id="stop40" />
		</radialGradient>
		<path
   opacity="0.2"
   fill="url(#SVGID_5_)"
   enable-background="new    "
   d="M92.605,30.987c-0.002,0-0.153,0.105-0.153,0.105    c-0.306,0.222-0.487,0.393-0.538,0.509l-0.001,0.004c0,0,0,0.001-0.001,0.001c0,0.004-0.03,0.101-0.03,0.101    c0,0.006-8.92,29.877-8.92,29.877c-0.024,0.073-0.032,0.142-0.032,0.198c0,0.328,0.301,0.495,0.307,0.498l0,0l0,0    c0.709,0.456,1.438,0.897,2.171,1.305c3.423,2.068,6.805,3.441,10.339,4.194c2.048,0.444,4.179,0.677,6.332,0.694    c2.324,0.025,4.763-0.205,7.232-0.672c3.668-0.562,7.395-1.67,11.069-3.281c0-0.002,0.013-0.005,0.013-0.005    c0.068-0.034,0.221-0.133,0.297-0.275c0-0.007,9.068-30.15,9.068-30.15c0.018-0.055,0.025-0.104,0.025-0.155    c0-0.259-0.227-0.476-0.446-0.664c-0.122-0.113-0.29-0.256-0.407-0.305c-0.246-0.113-0.496-0.077-0.572-0.032    c-0.002,0-0.006,0.005-0.006,0.005v0.001c-2.222,0.887-4.379,1.63-6.414,2.214c-1.946,0.558-3.846,0.983-5.64,1.265    c-1.707,0.269-3.376,0.415-4.964,0.438c-1.495,0.02-2.971-0.066-4.382-0.265c-2.533-0.356-4.961-1.062-7.413-2.16    c-2.434-1.089-4.617-2.447-6.249-3.509C93.014,30.802,92.889,30.811,92.605,30.987z"
   id="path42" />
		
			<radialGradient
   id="SVGID_6_"
   cx="410.8594"
   cy="1191.9795"
   r="44.6573"
   gradientTransform="matrix(0.9732 0 0 0.9795 -318.0362 -1099.9161)"
   gradientUnits="userSpaceOnUse">
			<stop
   offset="0.25"
   style="stop-color:#FFFFFF"
   id="stop45" />
			<stop
   offset="1"
   style="stop-color:#010101"
   id="stop47" />
		</radialGradient>
		<path
   opacity="0.2"
   fill="url(#SVGID_6_)"
   enable-background="new    "
   d="M63.74,22.629c-3.077,0.645-6.438,1.695-9.99,3.117l0,0    c-0.032,0.014-0.132,0.051-0.166,0.179l-0.461,1.538l-8.551,28.642c-0.01,0.031-0.013,0.066-0.013,0.102    c0,0.138,0.062,0.311,0.131,0.362c0.014,0.009,0.03,0.017,0.041,0.022l0.001,0.004l0.06,0.042l0.526,0.398l0.017,0.01    c0.017,0.012,0.036,0.025,0.047,0.032c0.109,0.042,0.137,0.042,0.164,0.04h0.01l0,0c0-0.003,0.004-0.003,0.004-0.003l0,0v-0.001    l0.017-0.004c0.078-0.005,0.259-0.084,0.261-0.087c7.789-2.991,14.018-4.081,19.603-3.417c2.382,0.283,4.687,0.893,7.047,1.862    c1.879,0.774,3.82,1.784,6.1,3.184l0.032,0.014h0.007l0.027,0.015h0.001h0.003l0.008,0.004l0.008,0.006h-0.003    c0.001,0,0.181,0.087,0.33,0.048c0-0.001,0.561-0.246,0.561-0.246l0,0l0,0l0.026-0.017c0.074-0.053,0.19-0.132,0.223-0.275l0,0    l0,0l0,0l5.625-18.807l3.021-10.105l0.202-0.667c0-0.001,0.002-0.014,0.002-0.014l0.146-0.49c0.006-0.015,0.006-0.032,0.01-0.051    c0-0.013,0-0.026,0-0.041c0-0.114-0.047-0.211-0.131-0.268c-1.787-1.172-3.205-2.018-4.597-2.738l-0.095-0.048    c-4.021-2.075-7.89-3.082-12.177-3.168C69.308,21.754,66.588,22.029,63.74,22.629z"
   id="path49" />
		<g
   id="g51">
			<g
   id="g53">
				
					<radialGradient
   id="SVGID_7_"
   cx="370.3379"
   cy="1150.1865"
   r="47.8222"
   gradientTransform="matrix(1 0 0 1 -291.9199 -1089.6748)"
   gradientUnits="userSpaceOnUse">
					<stop
   offset="0.0011"
   style="stop-color:#D2E7EE"
   id="stop56" />
					<stop
   offset="0.0979"
   style="stop-color:#CEE4EC"
   id="stop58" />
					<stop
   offset="0.203"
   style="stop-color:#C1DDE8"
   id="stop60" />
					<stop
   offset="0.2985"
   style="stop-color:#ADD0E0"
   id="stop62" />
					<stop
   offset="0.6504"
   style="stop-color:#3B82B1"
   id="stop64" />
					<stop
   offset="0.7203"
   style="stop-color:#3674AA"
   id="stop66" />
					<stop
   offset="0.899"
   style="stop-color:#29579A"
   id="stop68" />
					<stop
   offset="1"
   style="stop-color:#244C93"
   id="stop70" />
				</radialGradient>
				<path
   fill="url(#SVGID_7_)"
   d="M41.251,59.279c18.129-7.467,26.904-3.483,34.762,1.851l-9.077,31.193      C59.05,87.02,50.475,82.65,32.274,90.18l8.871-30.854L41.251,59.279z"
   id="path72" />
			</g>
		</g>
		
			<radialGradient
   id="SVGID_8_"
   cx="370.3184"
   cy="1149.8145"
   r="48.1386"
   gradientTransform="matrix(1 0 0 1 -291.9199 -1089.6748)"
   gradientUnits="userSpaceOnUse">
			<stop
   offset="0.0036"
   style="stop-color:#D8EFED"
   id="stop75" />
			<stop
   offset="0.1733"
   style="stop-color:#99D7D6"
   id="stop77" />
			<stop
   offset="0.2237"
   style="stop-color:#8ED3D3"
   id="stop79" />
			<stop
   offset="0.3088"
   style="stop-color:#75C6CA"
   id="stop81" />
			<stop
   offset="0.4176"
   style="stop-color:#4AB1BA"
   id="stop83" />
			<stop
   offset="0.4477"
   style="stop-color:#3DAAB5"
   id="stop85" />
			<stop
   offset="0.56"
   style="stop-color:#2F82A5"
   id="stop87" />
			<stop
   offset="0.6836"
   style="stop-color:#235C94"
   id="stop89" />
			<stop
   offset="0.783"
   style="stop-color:#1B468A"
   id="stop91" />
			<stop
   offset="0.8448"
   style="stop-color:#233F84"
   id="stop93" />
			<stop
   offset="1"
   style="stop-color:#253979"
   id="stop95" />
		</radialGradient>
		<path
   fill="url(#SVGID_8_)"
   d="M32.942,91.093c0.059,0.011,0.164-0.046,0.164-0.046c0.13,0.092,0.234,0.151,0.234,0.151    S33.135,91.244,32.942,91.093z"
   id="path97" />
		<path
   fill="#262C66"
   d="M66.621,92.675c0,0,0.119,0.114,0.261,0.081L66.34,93.08c-0.173,0.079-0.357-0.047-0.357-0.047    L66.621,92.675z"
   id="path99" />
		
			<radialGradient
   id="SVGID_9_"
   cx="370.3291"
   cy="1149.9951"
   r="48.0599"
   gradientTransform="matrix(1 0 0 1 -291.9199 -1089.6748)"
   gradientUnits="userSpaceOnUse">
			<stop
   offset="0.0036"
   style="stop-color:#D8EFED"
   id="stop102" />
			<stop
   offset="0.1733"
   style="stop-color:#99D7D6"
   id="stop104" />
			<stop
   offset="0.2237"
   style="stop-color:#8ED3D3"
   id="stop106" />
			<stop
   offset="0.3088"
   style="stop-color:#75C6CA"
   id="stop108" />
			<stop
   offset="0.4176"
   style="stop-color:#4AB1BA"
   id="stop110" />
			<stop
   offset="0.4477"
   style="stop-color:#3DAAB5"
   id="stop112" />
			<stop
   offset="0.56"
   style="stop-color:#2F82A5"
   id="stop114" />
			<stop
   offset="0.6836"
   style="stop-color:#235C94"
   id="stop116" />
			<stop
   offset="0.783"
   style="stop-color:#1B468A"
   id="stop118" />
			<stop
   offset="0.8448"
   style="stop-color:#233F84"
   id="stop120" />
			<stop
   offset="1"
   style="stop-color:#262C66"
   id="stop122" />
		</radialGradient>
		<path
   fill="url(#SVGID_9_)"
   d="M33.117,91.05c0,0-0.108,0.062-0.167,0.054l-0.599-0.461l-0.01-0.012    c0.086,0.024,0.183,0.012,0.219,0.006L33.117,91.05z"
   id="path124" />
		<path
   fill="#262C66"
   d="M66.929,92.241c0.061,0.036,0.125,0.092,0.184,0.214c-0.031,0.165-0.162,0.245-0.247,0.302    c-0.11,0.023-0.265-0.075-0.265-0.075C66.691,92.609,66.835,92.504,66.929,92.241z"
   id="path126" />
		<path
   fill="#223164"
   d="M32.351,90.643c-0.116-0.098-0.194-0.272-0.146-0.427l0.106-0.047c-0.042,0.233,0.119,0.396,0.244,0.474    C32.556,90.643,32.469,90.68,32.351,90.643z"
   id="path128" />
		
			<radialGradient
   id="SVGID_10_"
   cx="370.3428"
   cy="1150.0625"
   r="48.0084"
   gradientTransform="matrix(1 0 0 1 -291.9199 -1089.6748)"
   gradientUnits="userSpaceOnUse">
			<stop
   offset="0.0036"
   style="stop-color:#D8EFED"
   id="stop131" />
			<stop
   offset="0.1733"
   style="stop-color:#99D7D6"
   id="stop133" />
			<stop
   offset="0.2237"
   style="stop-color:#8ED3D3"
   id="stop135" />
			<stop
   offset="0.3088"
   style="stop-color:#75C6CA"
   id="stop137" />
			<stop
   offset="0.4176"
   style="stop-color:#4AB1BA"
   id="stop139" />
			<stop
   offset="0.4477"
   style="stop-color:#3DAAB5"
   id="stop141" />
			<stop
   offset="0.56"
   style="stop-color:#2F82A5"
   id="stop143" />
			<stop
   offset="0.6836"
   style="stop-color:#235C94"
   id="stop145" />
			<stop
   offset="0.783"
   style="stop-color:#1B468A"
   id="stop147" />
			<stop
   offset="0.8448"
   style="stop-color:#233F84"
   id="stop149" />
			<stop
   offset="1"
   style="stop-color:#253979"
   id="stop151" />
		</radialGradient>
		<path
   fill="url(#SVGID_10_)"
   d="M33.08,91.021c17.316-6.764,25.069-3.076,32.959,1.992c-4.725-3.043-9.579-5.459-16.284-5.511    c-4.491-0.022-9.793,1.112-16.432,3.69C33.323,91.197,33.191,91.141,33.08,91.021z"
   id="path153" />
		<path
   fill="#0F4C8E"
   d="M66.617,92.7c-7.889-5.31-16.06-9.359-34.048-2.048c-0.12-0.076-0.312-0.26-0.264-0.483    c18.259-7.771,26.747-3.231,34.633,2.074C66.856,92.527,66.707,92.63,66.617,92.7z"
   id="path155" />
		<path
   fill="#0F4C8E"
   d="M66.629,92.7l-0.641,0.331c-7.883-5.069-15.863-8.581-32.871-1.979l-0.564-0.407    C50.546,83.333,58.736,87.391,66.629,92.7z"
   id="path157" />
		
			<linearGradient
   id="SVGID_11_"
   gradientUnits="userSpaceOnUse"
   x1="367.6895"
   y1="1151.6846"
   x2="360.2094"
   y2="1177.9956"
   gradientTransform="matrix(1 0 0 1 -291.9199 -1089.6748)">
			<stop
   offset="0"
   style="stop-color:#99D7D6"
   id="stop160" />
			<stop
   offset="1"
   style="stop-color:#262C66"
   id="stop162" />
		</linearGradient>
		<path
   fill="url(#SVGID_11_)"
   d="M66.925,92.25l9.087-31.123c0.1,0.065,0.154,0.119,0.205,0.175l-9.105,31.169    C67.061,92.332,66.925,92.25,66.925,92.25z"
   id="path164" />
		
			<radialGradient
   id="SVGID_12_"
   cx="370.3496"
   cy="1150.04"
   r="48.1065"
   gradientTransform="matrix(1 0 0 1 -291.9199 -1089.6748)"
   gradientUnits="userSpaceOnUse">
			<stop
   offset="0.0036"
   style="stop-color:#D8EFED"
   id="stop167" />
			<stop
   offset="0.1733"
   style="stop-color:#99D7D6"
   id="stop169" />
			<stop
   offset="0.2237"
   style="stop-color:#8ED3D3"
   id="stop171" />
			<stop
   offset="0.3088"
   style="stop-color:#75C6CA"
   id="stop173" />
			<stop
   offset="0.4176"
   style="stop-color:#4AB1BA"
   id="stop175" />
			<stop
   offset="0.4477"
   style="stop-color:#3DAAB5"
   id="stop177" />
			<stop
   offset="0.56"
   style="stop-color:#2F82A5"
   id="stop179" />
			<stop
   offset="0.6836"
   style="stop-color:#235C94"
   id="stop181" />
			<stop
   offset="0.783"
   style="stop-color:#1B468A"
   id="stop183" />
			<stop
   offset="0.8448"
   style="stop-color:#233F84"
   id="stop185" />
			<stop
   offset="1"
   style="stop-color:#262C66"
   id="stop187" />
		</radialGradient>
		<path
   fill="url(#SVGID_12_)"
   d="M76.071,60.916l0.014,0.003c0.116,0.084,0.162,0.241,0.133,0.386l-0.006,0.021    c-0.051-0.054-0.104-0.112-0.202-0.178L76.071,60.916z"
   id="path189" />
		<polygon
   opacity="0.66"
   fill="#1D3666"
   enable-background="new    "
   points="41.04,59.295 41.146,59.319 32.311,90.169     32.205,90.217   "
   id="polygon191" />
		
			<linearGradient
   id="SVGID_13_"
   gradientUnits="userSpaceOnUse"
   x1="324.1113"
   y1="1164.9189"
   x2="334.04"
   y2="1164.9189"
   gradientTransform="matrix(1 0 0 1 -291.9199 -1089.6748)">
			<stop
   offset="0"
   style="stop-color:#DFF1F0"
   id="stop194" />
			<stop
   offset="1"
   style="stop-color:#5286BC"
   id="stop196" />
		</linearGradient>
		<path
   opacity="0.42"
   fill="url(#SVGID_13_)"
   enable-background="new    "
   d="M41.04,59.295l-0.419,1.479l-8.416,29.443    c-0.047,0.153,0.03,0.331,0.146,0.428l0.599,0.459c0,0,0.001-0.002,0.001,0c0.078,0.053,0.152,0.073,0.215,0.09l8.954-31.032    l-0.02-0.025l-0.954-0.813L41.04,59.295z M32.326,90.162v-0.006c0.043-0.014,0.085-0.03,0.125-0.043    C32.407,90.126,32.369,90.145,32.326,90.162z M32.555,90.643c-0.059-0.039-0.129-0.098-0.179-0.168    c0.051,0.07,0.121,0.129,0.179,0.162C32.556,90.637,32.556,90.637,32.555,90.643z"
   id="path198" />
		
			<linearGradient
   id="SVGID_14_"
   gradientUnits="userSpaceOnUse"
   x1="358.0352"
   y1="1166.75"
   x2="368.1406"
   y2="1166.75"
   gradientTransform="matrix(1 0 0 1 -291.9199 -1089.6748)">
			<stop
   offset="0"
   style="stop-color:#DFF1F0"
   id="stop201" />
			<stop
   offset="1"
   style="stop-color:#5286BC"
   id="stop203" />
		</linearGradient>
		<path
   opacity="0.42"
   fill="url(#SVGID_14_)"
   enable-background="new    "
   d="M76.182,61.049l-0.171,0.104l-0.754,0.742    c0.003,0,0.003,0,0.003,0.007c-1.226,4.186-8.103,27.668-9.145,31.184c0.065,0.02,0.145,0.025,0.222-0.006l0.542-0.326    c-0.001,0-0.005,0-0.006,0c0.081-0.061,0.203-0.137,0.239-0.292c0,0.009,0,0.009,0,0.011l8.804-30.132l0.301-1.035    c0.009-0.056,0-0.106-0.008-0.159C76.204,61.111,76.194,61.085,76.182,61.049z"
   id="path205" />
		
			<linearGradient
   id="SVGID_15_"
   gradientUnits="userSpaceOnUse"
   x1="333.0645"
   y1="1148.1016"
   x2="368.0029"
   y2="1148.1016"
   gradientTransform="matrix(1 0 0 1 -291.9199 -1089.6748)">
			<stop
   offset="0"
   style="stop-color:#134B91"
   id="stop208" />
			<stop
   offset="0.6685"
   style="stop-color:#8CCDE2"
   id="stop210" />
			<stop
   offset="1"
   style="stop-color:#E7F5F8"
   id="stop212" />
		</linearGradient>
		<path
   fill="url(#SVGID_15_)"
   d="M76.01,61.144l-0.754,0.754c-2.615-1.737-9.821-6.211-17.958-5.546    c-6.605,0.535-12.42,2.661-15.179,3.809l-0.975-0.836l0.069-0.216c18.205-7.531,26.983-3.528,34.862,1.81l-0.005,0.002h0.013    L76.01,61.144z"
   id="path214" />
		
			<linearGradient
   id="SVGID_16_"
   gradientUnits="userSpaceOnUse"
   x1="333.1348"
   y1="1148.7793"
   x2="333.1348"
   y2="1148.7793"
   gradientTransform="matrix(1 0 0 1 -291.9199 -1089.6748)">
			<stop
   offset="0"
   style="stop-color:#7F9EC4"
   id="stop217" />
			<stop
   offset="1"
   style="stop-color:#2C3180"
   id="stop219" />
		</linearGradient>
		<path
   fill="url(#SVGID_16_)"
   d="M41.215,59.104"
   id="path221" />
		
			<linearGradient
   id="SVGID_17_"
   gradientUnits="userSpaceOnUse"
   x1="333.9121"
   y1="1148.6992"
   x2="367.3164"
   y2="1148.6992"
   gradientTransform="matrix(1 0 0 1 -291.9199 -1089.6748)">
			<stop
   offset="0.0056"
   style="stop-color:#BCC7E1"
   id="stop224" />
			<stop
   offset="0.2247"
   style="stop-color:#7191C3"
   id="stop226" />
			<stop
   offset="0.5449"
   style="stop-color:#C9E9EE"
   id="stop228" />
			<stop
   offset="1"
   style="stop-color:#FFFFFF"
   id="stop230" />
		</linearGradient>
		<path
   opacity="0.33"
   fill="url(#SVGID_17_)"
   enable-background="new    "
   d="M41.992,60.045    c18.208-7.53,26.339-2.555,33.404,1.713l-0.138,0.14c-7.274-4.506-15.008-9.131-33.134-1.732L41.992,60.045z"
   id="path232" />
		
			<linearGradient
   id="SVGID_18_"
   gradientUnits="userSpaceOnUse"
   x1="333.1445"
   y1="1147.6855"
   x2="368.0039"
   y2="1147.6855"
   gradientTransform="matrix(1 0 0 1 -291.9199 -1089.6748)">
			<stop
   offset="0.0056"
   style="stop-color:#7191C3"
   id="stop235" />
			<stop
   offset="0.5449"
   style="stop-color:#C3E7ED"
   id="stop237" />
			<stop
   offset="1"
   style="stop-color:#FFFFFF"
   id="stop239" />
		</linearGradient>
		<path
   opacity="0.33"
   fill="url(#SVGID_18_)"
   enable-background="new    "
   d="M41.225,59.079c18.205-7.529,26.618-3.66,34.859,1.84    l-0.07,0.212c-8.657-5.603-16.532-9.328-34.657-1.933L41.225,59.079z"
   id="path241" />
		
			<radialGradient
   id="SVGID_19_"
   cx="333.0381"
   cy="1148.875"
   r="0.1184"
   gradientTransform="matrix(1 0 0 1 -291.9199 -1089.6748)"
   gradientUnits="userSpaceOnUse">
			<stop
   offset="0"
   style="stop-color:#7F9EC4"
   id="stop244" />
			<stop
   offset="1"
   style="stop-color:#0F52A0"
   id="stop246" />
		</radialGradient>
		<path
   fill="url(#SVGID_19_)"
   d="M41.146,59.319l-0.106-0.025c0.039-0.127,0.133-0.178,0.163-0.185l0.013-0.004    C41.215,59.104,41.198,59.168,41.146,59.319z"
   id="path248" />
		
			<radialGradient
   id="SVGID_20_"
   cx="310.0342"
   cy="1178.6318"
   r="58.9849"
   gradientTransform="matrix(1 0 0 1 -291.9199 -1089.6748)"
   gradientUnits="userSpaceOnUse">
			<stop
   offset="0.0036"
   style="stop-color:#D8EFED"
   id="stop251" />
			<stop
   offset="0.1733"
   style="stop-color:#99D7D6"
   id="stop253" />
			<stop
   offset="0.2237"
   style="stop-color:#8ED3D3"
   id="stop255" />
			<stop
   offset="0.3088"
   style="stop-color:#75C6CA"
   id="stop257" />
			<stop
   offset="0.4176"
   style="stop-color:#4AB1BA"
   id="stop259" />
			<stop
   offset="0.4477"
   style="stop-color:#3DAAB5"
   id="stop261" />
			<stop
   offset="0.4987"
   style="stop-color:#37A0B6"
   id="stop263" />
			<stop
   offset="0.6306"
   style="stop-color:#2C88B4"
   id="stop265" />
			<stop
   offset="0.7129"
   style="stop-color:#2980B5"
   id="stop267" />
			<stop
   offset="1"
   style="stop-color:#4362AB"
   id="stop269" />
		</radialGradient>
		<path
   opacity="0.5"
   fill="url(#SVGID_20_)"
   enable-background="new    "
   d="M66.639,92.693c-7.887-5.303-16.06-9.354-34.047-2.049    c-0.12-0.071-0.314-0.252-0.267-0.479c18.262-7.771,26.748-3.229,34.634,2.07C66.879,92.525,66.73,92.621,66.639,92.693z"
   id="path271" />
		
			<radialGradient
   id="SVGID_21_"
   cx="370.2979"
   cy="1151.2354"
   r="44.5235"
   gradientTransform="matrix(1 0 0 1 -291.9199 -1089.6748)"
   gradientUnits="userSpaceOnUse">
			<stop
   offset="0"
   style="stop-color:#FBF6B2"
   id="stop274" />
			<stop
   offset="0.1657"
   style="stop-color:#F6EC9F"
   id="stop276" />
			<stop
   offset="0.2849"
   style="stop-color:#F2E591"
   id="stop278" />
			<stop
   offset="0.65"
   style="stop-color:#FBD11A"
   id="stop280" />
			<stop
   offset="0.8024"
   style="stop-color:#F6A61C"
   id="stop282" />
			<stop
   offset="0.9288"
   style="stop-color:#F18621"
   id="stop284" />
			<stop
   offset="1"
   style="stop-color:#F07C22"
   id="stop286" />
		</radialGradient>
		<path
   fill="url(#SVGID_21_)"
   d="M80.768,64.145c7.88,5.303,15.94,9.193,34.464,2.859l-8.646,30.076    c-18.18,7.52-26.909,3.261-34.782-2.077L80.768,64.145z"
   id="path288" />
		
			<linearGradient
   id="SVGID_22_"
   gradientUnits="userSpaceOnUse"
   x1="399.8691"
   y1="1187.4414"
   x2="399.6845"
   y2="1188.1302"
   gradientTransform="matrix(1 0 0 1 -291.9199 -1089.6748)">
			<stop
   offset="0"
   style="stop-color:#DD9927"
   id="stop291" />
			<stop
   offset="1"
   style="stop-color:#A85F27"
   id="stop293" />
		</linearGradient>
		<path
   fill="url(#SVGID_22_)"
   d="M108.121,98.145c-0.081,0.168-0.243,0.265-0.296,0.293c-0.015,0-0.025,0.006-0.025,0.006    s-0.149,0.018-0.282-0.088c0.356-0.195,0.459-0.584,0.459-0.584S108.184,97.95,108.121,98.145z"
   id="path295" />
		
			<linearGradient
   id="SVGID_23_"
   gradientUnits="userSpaceOnUse"
   x1="399.8809"
   y1="1172.6348"
   x2="408.6836"
   y2="1172.6348"
   gradientTransform="matrix(1 0 0 1 -291.9199 -1089.6748)">
			<stop
   offset="0"
   style="stop-color:#DFB251"
   id="stop298" />
			<stop
   offset="1"
   style="stop-color:#FEF7B5"
   id="stop300" />
		</linearGradient>
		<path
   fill="url(#SVGID_23_)"
   d="M108.121,98.145c0.031-0.168-0.16-0.328-0.16-0.328l8.62-30.041c0,0,0.14,0.124,0.183,0.219    L108.121,98.145z"
   id="path302" />
		
			<linearGradient
   id="SVGID_24_"
   gradientUnits="userSpaceOnUse"
   x1="408.5977"
   y1="1157.1152"
   x2="408.5977"
   y2="1157.6875"
   gradientTransform="matrix(1 0 0 1 -291.9199 -1089.6748)">
			<stop
   offset="0.0056"
   style="stop-color:#C57E2A"
   id="stop305" />
			<stop
   offset="1"
   style="stop-color:#DD9927"
   id="stop307" />
		</linearGradient>
		<path
   fill="url(#SVGID_24_)"
   d="M116.76,68.011c0,0-0.027-0.092-0.181-0.215c0.067-0.289,0.017-0.355,0.017-0.355l0.021,0.016    C116.617,67.453,116.839,67.662,116.76,68.011z"
   id="path309" />
		
			<linearGradient
   id="SVGID_25_"
   gradientUnits="userSpaceOnUse"
   x1="407.332"
   y1="1156.4404"
   x2="407.6912"
   y2="1157.0381"
   gradientTransform="matrix(1 0 0 1 -291.9199 -1089.6748)">
			<stop
   offset="0.0056"
   style="stop-color:#FDD40F"
   id="stop312" />
			<stop
   offset="1"
   style="stop-color:#A85F27"
   id="stop314" />
		</linearGradient>
		<path
   fill="url(#SVGID_25_)"
   d="M115.898,67.284c0,0-0.235-0.286-0.723-0.204c0.024-0.107,0.065-0.24,0.221-0.302    c0.293-0.045,0.433,0.03,0.496,0.095c0.035,0.032,0.045,0.061,0.045,0.061C115.979,67.103,115.898,67.284,115.898,67.284z"
   id="path316" />
		
			<linearGradient
   id="SVGID_26_"
   gradientUnits="userSpaceOnUse"
   x1="408.2676"
   y1="1156.9004"
   x2="408.0463"
   y2="1157.1639"
   gradientTransform="matrix(1 0 0 1 -291.9199 -1089.6748)">
			<stop
   offset="0.0056"
   style="stop-color:#FDD40F"
   id="stop319" />
			<stop
   offset="1"
   style="stop-color:#A85F27"
   id="stop321" />
		</linearGradient>
		<path
   fill="url(#SVGID_26_)"
   d="M115.893,66.875l0.725,0.575c0.035,0.192-0.038,0.39-0.038,0.39l-0.714-0.573    C115.863,67.27,115.934,67.048,115.893,66.875z"
   id="path323" />
		<polygon
   opacity="0.66"
   fill="#B2802C"
   enable-background="new    "
   points="107.189,97.271 115.857,67.215 116.587,67.802     107.98,97.848 107.941,97.923   "
   id="polygon325" />
		
			<linearGradient
   id="SVGID_27_"
   gradientUnits="userSpaceOnUse"
   x1="372.6016"
   y1="1156.8574"
   x2="407.3203"
   y2="1156.8574"
   gradientTransform="matrix(1 0 0 1 -291.9199 -1089.6748)">
			<stop
   offset="0"
   style="stop-color:#FEF8FB"
   id="stop328" />
			<stop
   offset="1"
   style="stop-color:#FDC237"
   id="stop330" />
		</linearGradient>
		<path
   fill="url(#SVGID_27_)"
   d="M115.206,67.113c-18.257,6.226-26.615,2.525-34.492-2.784c0.014-0.06,0.051-0.195-0.032-0.331    c7.878,5.306,16.595,8.921,34.718,2.785C115.257,66.875,115.242,67.004,115.206,67.113z"
   id="path332" />
		<polygon
   fill="#D8A328"
   points="79.299,64.701 79.905,64.291 71.128,94.891 70.444,95.434 70.444,95.361   "
   id="polygon334" />
		
			<linearGradient
   id="SVGID_28_"
   gradientUnits="userSpaceOnUse"
   x1="403.5176"
   y1="1171.9229"
   x2="402.7417"
   y2="1171.7004"
   gradientTransform="matrix(1 0 0 1 -291.9199 -1089.6748)">
			<stop
   offset="0"
   style="stop-color:#B2802C"
   id="stop337" />
			<stop
   offset="1"
   style="stop-color:#F99E1C"
   id="stop339" />
		</linearGradient>
		<path
   opacity="0.66"
   fill="url(#SVGID_28_)"
   enable-background="new    "
   d="M106.497,97.105l8.679-30.032    c0.016,0,0.03-0.025,0.053-0.03c0.453-0.041,0.67,0.195,0.67,0.195l-8.649,29.99C107.249,97.229,106.889,96.943,106.497,97.105z"
   id="path341" />
		<path
   fill="#A85F27"
   d="M107.827,98.438c-17.83,7.621-29.262,2.932-37.139-2.369l0.083-0.076    c7.872,5.303,20.002,9.722,36.745,2.328C107.65,98.436,107.827,98.438,107.827,98.438z"
   id="path343" />
		
			<linearGradient
   id="SVGID_29_"
   gradientUnits="userSpaceOnUse"
   x1="399.4766"
   y1="1187.0342"
   x2="399.0901"
   y2="1187.9022"
   gradientTransform="matrix(1 0 0 1 -291.9199 -1089.6748)">
			<stop
   offset="0.0056"
   style="stop-color:#FFD107"
   id="stop346" />
			<stop
   offset="1"
   style="stop-color:#A7732A"
   id="stop348" />
		</linearGradient>
		<path
   opacity="0.66"
   fill="url(#SVGID_29_)"
   enable-background="new    "
   d="M107.244,97.221l0.736,0.627    c0,0-0.099,0.351-0.494,0.521l-0.75-0.616C107.131,97.585,107.244,97.221,107.244,97.221z"
   id="path350" />
		
			<linearGradient
   id="SVGID_30_"
   gradientUnits="userSpaceOnUse"
   x1="363.4219"
   y1="1187.8828"
   x2="398.8037"
   y2="1187.8828"
   gradientTransform="matrix(1 0 0 1 -291.9199 -1089.6748)">
			<stop
   offset="0"
   style="stop-color:#DD9927"
   id="stop353" />
			<stop
   offset="0.4"
   style="stop-color:#FCDA0D"
   id="stop355" />
			<stop
   offset="1"
   style="stop-color:#DD9927"
   id="stop357" />
		</linearGradient>
		<path
   fill="url(#SVGID_30_)"
   d="M106.512,97.064c-0.07,0.461,0.372,0.75,0.372,0.75c-18.893,6.838-26.989,2.754-35.382-2.305    c0.135-0.107,0.21-0.186,0.292-0.513c0.016,0.006,0.123-0.011,0.141,0C80.05,99.996,89.428,104.133,106.512,97.064z"
   id="path359" />
		<path
   fill="#C57E2A"
   d="M70.773,96.031l0.729-0.522c7.221,4.498,17.332,9.427,35.281,2.222l0.738,0.623    C90.843,105.748,78.647,101.332,70.773,96.031z"
   id="path361" />
		<path
   fill="#DD9927"
   d="M70.835,96.057l-0.084,0.059c0,0-0.473-0.264-0.308-0.754C70.483,95.842,70.835,96.057,70.835,96.057z"
   id="path363" />
		
			<linearGradient
   id="SVGID_31_"
   gradientUnits="userSpaceOnUse"
   x1="363.1768"
   y1="1185.4502"
   x2="362.6082"
   y2="1184.8188"
   gradientTransform="matrix(1 0 0 1 -291.9199 -1089.6748)">
			<stop
   offset="0"
   style="stop-color:#DD9927"
   id="stop366" />
			<stop
   offset="0.1"
   style="stop-color:#DD9927"
   id="stop368" />
			<stop
   offset="0.7"
   style="stop-color:#FCDA0D"
   id="stop370" />
			<stop
   offset="1"
   style="stop-color:#DD9927"
   id="stop372" />
		</linearGradient>
		<path
   fill="url(#SVGID_31_)"
   d="M70.444,95.361l0.684-0.562c-0.038,0.5,0.446,0.687,0.446,0.687l-0.751,0.576    C70.823,96.064,70.406,95.859,70.444,95.361z"
   id="path374" />
		
			<linearGradient
   id="SVGID_32_"
   gradientUnits="userSpaceOnUse"
   x1="363.1934"
   y1="1184.3896"
   x2="363.5942"
   y2="1185.1128"
   gradientTransform="matrix(1 0 0 1 -291.9199 -1089.6748)">
			<stop
   offset="0"
   style="stop-color:#DD9927"
   id="stop377" />
			<stop
   offset="0.4"
   style="stop-color:#FDBF16"
   id="stop379" />
			<stop
   offset="0.8"
   style="stop-color:#FDD40F"
   id="stop381" />
			<stop
   offset="1"
   style="stop-color:#DD9927"
   id="stop383" />
		</linearGradient>
		<path
   fill="url(#SVGID_32_)"
   d="M71.079,94.822c0.244-0.094,0.47,0.017,0.73,0.167c-0.087,0.321-0.148,0.436-0.281,0.528    C71.361,95.424,71.038,95.234,71.079,94.822z"
   id="path385" />
		<path
   fill="#DD9927"
   d="M80.024,64.033l-0.134,0.26l-0.609,0.439c0.044-0.207,0.543-0.568,0.699-0.674    C80.002,64.042,80.024,64.033,80.024,64.033z"
   id="path387" />
		
			<radialGradient
   id="SVGID_33_"
   cx="372.1514"
   cy="1153.5811"
   r="0.4367"
   gradientTransform="matrix(1 0 0 1 -291.9199 -1089.6748)"
   gradientUnits="userSpaceOnUse">
			<stop
   offset="0"
   style="stop-color:#FDEA71"
   id="stop390" />
			<stop
   offset="1"
   style="stop-color:#DD9927"
   id="stop392" />
		</radialGradient>
		<path
   fill="url(#SVGID_33_)"
   d="M80.705,64.323c-0.362-0.205-0.685-0.098-0.814-0.03c0.022-0.068,0.098-0.242,0.098-0.242    c0.292-0.183,0.423-0.183,0.692-0.053C80.757,64.134,80.728,64.249,80.705,64.323z"
   id="path394" />
		
			<linearGradient
   id="SVGID_34_"
   gradientUnits="userSpaceOnUse"
   x1="368.2256"
   y1="1169.3789"
   x2="367.4097"
   y2="1169.1453"
   gradientTransform="matrix(1 0 0 1 -291.9199 -1089.6748)">
			<stop
   offset="0.0056"
   style="stop-color:#FFEFBC"
   id="stop397" />
			<stop
   offset="1"
   style="stop-color:#FEBF10"
   id="stop399" />
		</linearGradient>
		<path
   fill="url(#SVGID_34_)"
   d="M71.875,95.041c-0.259-0.15-0.554-0.266-0.804-0.165l8.833-30.586    c0.135-0.064,0.448-0.174,0.809,0.038L71.875,95.041z"
   id="path401" />
		
			<linearGradient
   id="SVGID_35_"
   gradientUnits="userSpaceOnUse"
   x1="370.8994"
   y1="1157.2354"
   x2="408.615"
   y2="1157.2354"
   gradientTransform="matrix(1 0 0 1 -291.9199 -1089.6748)">
			<stop
   offset="0.0056"
   style="stop-color:#FAA85B"
   id="stop404" />
			<stop
   offset="0.2135"
   style="stop-color:#FCC316"
   id="stop406" />
			<stop
   offset="1"
   style="stop-color:#B42324"
   id="stop408" />
		</linearGradient>
		<path
   opacity="0.33"
   fill="url(#SVGID_35_)"
   enable-background="new    "
   d="M79.453,64.498    c2.695,2.338,14.404,11.91,37.164,2.956l-0.725-0.576c-0.063-0.067-0.201-0.142-0.494-0.094    C97.275,72.921,88.561,69.305,80.681,64c0,0.008,0,0.008,0,0.008c-0.265-0.135-0.397-0.135-0.687,0.053    C79.629,64.312,79.629,64.309,79.453,64.498z"
   id="path410" />
		
			<linearGradient
   id="SVGID_36_"
   gradientUnits="userSpaceOnUse"
   x1="371.208"
   y1="1157.7266"
   x2="408.6855"
   y2="1157.7266"
   gradientTransform="matrix(1 0 0 1 -291.9199 -1089.6748)">
			<stop
   offset="0.0056"
   style="stop-color:#FFF6D9"
   id="stop413" />
			<stop
   offset="0.525"
   style="stop-color:#FCDA0D"
   id="stop415" />
			<stop
   offset="1"
   style="stop-color:#F7BD16"
   id="stop417" />
		</linearGradient>
		<path
   opacity="0.33"
   fill="url(#SVGID_36_)"
   enable-background="new    "
   d="M116.617,67.453L116.617,67.453    c-22.76,8.955-34.471-0.617-37.164-2.956c-0.071,0.065-0.125,0.139-0.152,0.198v0.007l-0.009,0.022    c0,0.002-0.003,0.007-0.003,0.007h0.003l-0.004,0.014c2.351,2.059,14.112,12.309,37.478,3.041    C116.74,67.578,116.617,67.453,116.617,67.453z"
   id="path419" />
		
			<linearGradient
   id="SVGID_37_"
   gradientUnits="userSpaceOnUse"
   x1="398.8633"
   y1="1187.0908"
   x2="398.3403"
   y2="1186.6385"
   gradientTransform="matrix(1 0 0 1 -291.9199 -1089.6748)">
			<stop
   offset="0"
   style="stop-color:#EAB949"
   id="stop422" />
			<stop
   offset="0.0722"
   style="stop-color:#ECC159"
   id="stop424" />
			<stop
   offset="0.2779"
   style="stop-color:#F3D883"
   id="stop426" />
			<stop
   offset="0.4784"
   style="stop-color:#F7E9A4"
   id="stop428" />
			<stop
   offset="0.6698"
   style="stop-color:#FBF5BD"
   id="stop430" />
			<stop
   offset="0.8479"
   style="stop-color:#FCF8CC"
   id="stop432" />
			<stop
   offset="1"
   style="stop-color:#FDF9D1"
   id="stop434" />
		</linearGradient>
		<path
   fill="url(#SVGID_37_)"
   d="M106.785,97.732c0,0-0.335-0.207-0.271-0.668c0.459-0.127,0.742,0.164,0.742,0.164    S107.182,97.563,106.785,97.732z"
   id="path436" />
		
			<radialGradient
   id="SVGID_38_"
   cx="368.9414"
   cy="1145.1143"
   r="42.2601"
   gradientTransform="matrix(1 0 0 1 -291.9199 -1089.6748)"
   gradientUnits="userSpaceOnUse">
			<stop
   offset="0.0036"
   style="stop-color:#EFDA18"
   id="stop439" />
			<stop
   offset="0.1053"
   style="stop-color:#EFD51A"
   id="stop441" />
			<stop
   offset="0.216"
   style="stop-color:#ECC61B"
   id="stop443" />
			<stop
   offset="0.3308"
   style="stop-color:#EAB220"
   id="stop445" />
			<stop
   offset="0.4485"
   style="stop-color:#E89424"
   id="stop447" />
			<stop
   offset="0.5673"
   style="stop-color:#E36F25"
   id="stop449" />
			<stop
   offset="0.65"
   style="stop-color:#DF5026"
   id="stop451" />
			<stop
   offset="0.7851"
   style="stop-color:#CD2F27"
   id="stop453" />
			<stop
   offset="0.9224"
   style="stop-color:#BE2026"
   id="stop455" />
			<stop
   offset="1"
   style="stop-color:#B82025"
   id="stop457" />
		</radialGradient>
		<path
   fill="url(#SVGID_38_)"
   d="M77.524,55.51c-4.744-3.195-9.848-6.184-17.1-6.238c-4.782-0.038-10.479,1.324-17.71,4.309    l8.958-31.046c18.19-7.521,26.93-3.257,34.809,2.072L77.524,55.51z"
   id="path459" />
		<path
   fill="#BA2325"
   d="M77.514,55.499l8.964-30.892c0.099,0.063,0.141,0.114,0.188,0.175L77.708,55.72    C77.657,55.587,77.514,55.499,77.514,55.499z"
   id="path461" />
		<path
   fill="#BA2325"
   d="M43.574,54.485c2.871-1.178,5.521-2.048,7.985-2.65c0.6-0.148,1.131-0.272,1.765-0.394    c0.578-0.118,1.153-0.23,1.711-0.315c0.875-0.127,1.727-0.24,2.563-0.308c0.706-0.057,1.396-0.095,2.071-0.1    c0.653-0.007,1.296,0,1.921,0.033c0.552,0.031,1.095,0.076,1.631,0.138c0.453,0.051,0.894,0.11,1.334,0.184    c0.921,0.158,1.815,0.353,2.677,0.596c3.487,0.987,6.583,2.668,9.429,4.562c-0.023,0.013-0.091-0.02-0.117-0.033    c-0.028-0.014-0.041-0.014-0.068-0.029c-3.847-2.438-7.976-4.565-13.077-5.192c-5.215-0.636-11.305,0.263-19.501,3.509    c0,0-0.184,0.084-0.262,0.093C43.574,54.596,43.589,54.547,43.574,54.485z"
   id="path463" />
		<path
   fill="#BA2325"
   d="M77.206,55.951c0,0,0.117,0.084,0.255,0.054l-0.562,0.256c-0.153,0.038-0.335-0.052-0.335-0.052    L77.206,55.951z"
   id="path465" />
		<path
   fill="#B72225"
   d="M43.577,54.488c0,0,0.038,0.062,0.061,0.099c-0.049,0.007-0.063,0.023-0.197-0.04    c-0.021-0.007-0.043-0.028-0.068-0.048l-0.583-0.453l-0.055-0.044c0.078-0.003,0.136,0.031,0.176,0.027L43.577,54.488z"
   id="path467" />
		<path
   fill="#E63325"
   d="M77.524,55.506c0.061,0.038,0.136,0.063,0.19,0.19c-0.039,0.168-0.178,0.254-0.254,0.311    c-0.141,0.037-0.273-0.065-0.273-0.065C77.274,55.878,77.434,55.762,77.524,55.506z"
   id="path469" />
		<path
   fill="#EF3D23"
   d="M86.532,24.395l0.01,0.003c0.116,0.082,0.159,0.232,0.124,0.382l-0.008,0.013    c-0.047-0.054-0.082-0.112-0.18-0.188L86.532,24.395z"
   id="path471" />
		<path
   fill="#E13326"
   d="M42.747,54.019c-0.088-0.065-0.171-0.329-0.121-0.486l0.116-0.034c-0.047,0.223,0.091,0.484,0.215,0.556    C42.958,54.055,42.872,54.106,42.747,54.019z"
   id="path473" />
		<g
   id="g475">
			
				<linearGradient
   id="SVGID_39_"
   gradientUnits="userSpaceOnUse"
   x1="343.5107"
   y1="1112.1094"
   x2="343.6848"
   y2="1112.1094"
   gradientTransform="matrix(1 0 0 1 -291.9199 -1089.6748)">
				<stop
   offset="0"
   style="stop-color:#F47D39"
   id="stop478" />
				<stop
   offset="1"
   style="stop-color:#BD7050"
   id="stop480" />
			</linearGradient>
			<path
   id="SVGID_2_"
   fill="url(#SVGID_39_)"
   d="M51.676,22.541l-0.086-0.022c0.035-0.138,0.129-0.179,0.164-0.189l0.011-0.003     C51.765,22.325,51.723,22.39,51.676,22.541z" />
		</g>
		<path
   fill="#E63325"
   d="M77.224,55.96c-8.479-5.882-18.862-9.574-34.284-1.912l0.63,0.448c16.854-6.887,25.638-3.166,33.036,1.712    L77.224,55.96z"
   id="path483" />
		<path
   fill="#E63325"
   d="M77.206,55.951c-4.854-3.166-9.391-5.795-16.586-5.999c-5.25,0.106-9.285,0.778-17.664,4.103    c-0.125-0.068-0.282-0.245-0.242-0.472c7.26-3.091,13.021-4.429,17.802-4.379c7.248,0.071,12.265,3.104,17.008,6.295    C77.443,55.781,77.289,55.886,77.206,55.951z"
   id="path485" />
		<path
   fill="#E13326"
   d="M51.59,22.516l0.083,0.025l-8.938,31.027c-0.02-0.014-0.109-0.032-0.109-0.032L51.59,22.516z"
   id="path487" />
		
			<linearGradient
   id="SVGID_40_"
   gradientUnits="userSpaceOnUse"
   x1="343.5957"
   y1="1111.1113"
   x2="378.4521"
   y2="1111.1113"
   gradientTransform="matrix(1 0 0 1 -291.9199 -1089.6748)">
			<stop
   offset="0"
   style="stop-color:#EE352B"
   id="stop490" />
			<stop
   offset="0.236"
   style="stop-color:#F15C22"
   id="stop492" />
			<stop
   offset="0.2478"
   style="stop-color:#F15A22"
   id="stop494" />
			<stop
   offset="0.3274"
   style="stop-color:#E64F25"
   id="stop496" />
			<stop
   offset="0.4172"
   style="stop-color:#D74826"
   id="stop498" />
			<stop
   offset="0.5247"
   style="stop-color:#D04427"
   id="stop500" />
			<stop
   offset="0.6966"
   style="stop-color:#CD4327"
   id="stop502" />
			<stop
   offset="0.7958"
   style="stop-color:#CF4627"
   id="stop504" />
			<stop
   offset="0.8688"
   style="stop-color:#D74F27"
   id="stop506" />
			<stop
   offset="0.9334"
   style="stop-color:#E55D25"
   id="stop508" />
			<stop
   offset="0.9927"
   style="stop-color:#F37321"
   id="stop510" />
			<stop
   offset="1"
   style="stop-color:#F47522"
   id="stop512" />
		</linearGradient>
		<path
   opacity="0.66"
   fill="url(#SVGID_40_)"
   enable-background="new    "
   d="M86.48,24.607    c-7.884-5.335-16.701-9.462-34.805-2.066c0.037-0.158,0.077-0.211,0.077-0.211c18.192-7.522,26.902-3.27,34.779,2.065    L86.48,24.607z"
   id="path514" />
		<path
   opacity="0.33"
   fill="#F5841F"
   enable-background="new    "
   d="M85.439,25.63c-6.422-4.17-14.913-9.393-33.017-2    c0.04-0.155,0.087-0.236,0.087-0.236c18.189-7.521,26.763-1.791,32.995,2.011L85.439,25.63z"
   id="path516" />
		
			<linearGradient
   id="SVGID_41_"
   gradientUnits="userSpaceOnUse"
   x1="334.625"
   y1="1128.3438"
   x2="344.4189"
   y2="1128.3438"
   gradientTransform="matrix(1 0 0 1 -291.9199 -1089.6748)">
			<stop
   offset="0"
   style="stop-color:#F47D39"
   id="stop519" />
			<stop
   offset="1"
   style="stop-color:#BD7050"
   id="stop521" />
		</linearGradient>
		<path
   opacity="0.6"
   fill="url(#SVGID_41_)"
   enable-background="new    "
   d="M51.972,22.746c-0.051,0.02-0.226-0.005-0.226-0.005    l-9.041,31.312l0.668,0.449c0.023,0.021,0.047,0.043,0.068,0.048c0.114,0.05,0.137,0.05,0.174,0.042l8.857-31.097l0.027-0.093    L51.972,22.746z"
   id="path523" />
		
			<linearGradient
   id="SVGID_42_"
   gradientUnits="userSpaceOnUse"
   x1="379.6367"
   y1="1115.6006"
   x2="354.4468"
   y2="1109.9857"
   gradientTransform="matrix(1 0 0 1 -291.9199 -1089.6748)">
			<stop
   offset="0"
   style="stop-color:#F15922"
   id="stop526" />
			<stop
   offset="1"
   style="stop-color:#8C1B1B"
   id="stop528" />
		</linearGradient>
		<path
   opacity="0.5"
   fill="url(#SVGID_42_)"
   enable-background="new    "
   d="M85.486,25.429c0.002,0.005,0.005,0.006,0.008,0.012    c0-0.012,0.003-0.015,0.003-0.021L85.486,25.429z"
   id="path530" />
		
			<linearGradient
   id="SVGID_43_"
   gradientUnits="userSpaceOnUse"
   x1="361.0059"
   y1="1115.3662"
   x2="360.6098"
   y2="1104.5441"
   gradientTransform="matrix(1 0 0 1 -291.9199 -1089.6748)">
			<stop
   offset="0"
   style="stop-color:#F15922"
   id="stop533" />
			<stop
   offset="1"
   style="stop-color:#8C1B1B"
   id="stop535" />
		</linearGradient>
		<path
   opacity="0.5"
   fill="url(#SVGID_43_)"
   enable-background="new    "
   d="M85.705,24.718c-2.991-2.004-7.968-5.256-15.249-5.765    c-7.723-0.542-17.509,3.388-18.484,3.793l0.526,0.655l-0.028,0.093c0.028-0.006,0.054-0.021,0.08-0.032    c18.033-7.755,29.142-0.752,32.937,1.967l0.011-0.009l0.567-0.464C85.949,24.879,85.829,24.799,85.705,24.718z"
   id="path537" />
		<path
   opacity="0.5"
   fill="#FFF4C6"
   enable-background="new    "
   d="M51.972,22.746c0.977-0.405,10.761-4.335,18.484-3.793    c7.281,0.509,12.258,3.762,15.249,5.765c0.123,0.083,0.243,0.162,0.357,0.239l0.56-0.45c-0.024-0.037-0.04-0.081-0.081-0.107    c-7.705-5.22-16.218-9.4-33.603-2.548c-0.39,0.158-0.779,0.308-1.175,0.475l0,0L51.972,22.746z"
   id="path539" />
		
			<linearGradient
   id="SVGID_44_"
   gradientUnits="userSpaceOnUse"
   x1="368.4238"
   y1="1130.0146"
   x2="378.5947"
   y2="1130.0146"
   gradientTransform="matrix(1 0 0 1 -291.9199 -1089.6748)">
			<stop
   offset="0"
   style="stop-color:#F47D39"
   id="stop542" />
			<stop
   offset="1"
   style="stop-color:#F5895E"
   id="stop544" />
		</linearGradient>
		<path
   opacity="0.6"
   fill="url(#SVGID_44_)"
   enable-background="new    "
   d="M86.532,24.407l-0.052,0.201l-0.418,0.349    l-0.565,0.464c0,0.004-0.003,0.009-0.003,0.021c-1.876,6.44-7.746,26.546-8.99,30.739c0.014,0.006,0.024,0.009,0.04,0.02    c0.004,0.002,0.015,0.009,0.02,0.01l0,0c0,0,0.182,0.091,0.335,0.052l0.562-0.254c-0.001,0.003-0.007,0-0.016,0.003    c0.005-0.003,0.009,0,0.013-0.003c0.07-0.057,0.208-0.14,0.247-0.288l0,0l0.001-0.012c0-0.002,0.004-0.002,0.004-0.008l0,0    l8.59-29.668l0,0l0.214-0.73l0.006-0.03l0.144-0.486C86.691,24.68,86.673,24.47,86.532,24.407z"
   id="path546" />
		
			<linearGradient
   id="SVGID_45_"
   gradientUnits="userSpaceOnUse"
   x1="334.6484"
   y1="1142.2383"
   x2="369.4658"
   y2="1142.2383"
   gradientTransform="matrix(1 0 0 1 -291.9199 -1089.6748)">
			<stop
   offset="0"
   style="stop-color:#F99B25"
   id="stop549" />
			<stop
   offset="0.25"
   style="stop-color:#F99B25"
   id="stop551" />
			<stop
   offset="0.3365"
   style="stop-color:#FDB82F"
   id="stop553" />
			<stop
   offset="0.4292"
   style="stop-color:#FED240"
   id="stop555" />
			<stop
   offset="0.4851"
   style="stop-color:#FDDB45"
   id="stop557" />
			<stop
   offset="0.75"
   style="stop-color:#F5841F"
   id="stop559" />
			<stop
   offset="1"
   style="stop-color:#F15922"
   id="stop561" />
		</linearGradient>
		<path
   opacity="0.5"
   fill="url(#SVGID_45_)"
   enable-background="new    "
   d="M77.225,55.94c-4.852-3.169-9.392-5.799-16.582-6.004    c-5.254,0.107-9.288,0.777-17.666,4.102c-0.129-0.064-0.282-0.241-0.242-0.469c7.26-3.092,13.021-4.43,17.804-4.382    c7.245,0.078,12.265,3.105,17.007,6.298C77.464,55.762,77.309,55.875,77.225,55.94z"
   id="path563" />
		<path
   fill="none"
   d="M51.676,22.373c-0.034,0.029-0.067,0.073-0.086,0.144l-0.46,1.579l-8.504,29.44    c-0.05,0.155,0.033,0.421,0.121,0.483c0.009,0.006,0.014,0.006,0.023,0.012l0.019,0.017l-0.085,0.006l9.041-31.31    c0,0,0.177,0.025,0.227,0.005L51.676,22.373z"
   id="path565" />
		<path
   fill="#EF3D23"
   d="M86.532,24.395l0.01,0.006c0.116,0.079,0.159,0.229,0.124,0.379l-0.008,0.013    c-0.047-0.054-0.082-0.109-0.18-0.188L86.532,24.395z"
   id="path567" />
		<g
   id="g569">
			
				<linearGradient
   id="SVGID_46_"
   gradientUnits="userSpaceOnUse"
   x1="343.5117"
   y1="1112.1094"
   x2="343.6868"
   y2="1112.1094"
   gradientTransform="matrix(1 0 0 1 -291.9199 -1089.6748)">
				<stop
   offset="0"
   style="stop-color:#F47D39"
   id="stop572" />
				<stop
   offset="1"
   style="stop-color:#BD7050"
   id="stop574" />
			</linearGradient>
			<path
   id="SVGID_1_"
   fill="url(#SVGID_46_)"
   d="M51.676,22.541l-0.084-0.022c0.036-0.132,0.129-0.178,0.162-0.189l0.013-0.003     C51.767,22.325,51.723,22.39,51.676,22.541z" />
		</g>
		
			<linearGradient
   id="SVGID_47_"
   gradientUnits="userSpaceOnUse"
   x1="343.5947"
   y1="1111.1123"
   x2="378.4521"
   y2="1111.1123"
   gradientTransform="matrix(1 0 0 1 -291.9199 -1089.6748)">
			<stop
   offset="0"
   style="stop-color:#EE352B"
   id="stop578" />
			<stop
   offset="0.236"
   style="stop-color:#F15C22"
   id="stop580" />
			<stop
   offset="0.2478"
   style="stop-color:#F15A22"
   id="stop582" />
			<stop
   offset="0.3274"
   style="stop-color:#E64F25"
   id="stop584" />
			<stop
   offset="0.4172"
   style="stop-color:#D74826"
   id="stop586" />
			<stop
   offset="0.5247"
   style="stop-color:#D04427"
   id="stop588" />
			<stop
   offset="0.6966"
   style="stop-color:#CD4327"
   id="stop590" />
			<stop
   offset="0.7958"
   style="stop-color:#CF4627"
   id="stop592" />
			<stop
   offset="0.8688"
   style="stop-color:#D74F27"
   id="stop594" />
			<stop
   offset="0.9334"
   style="stop-color:#E55D25"
   id="stop596" />
			<stop
   offset="0.9927"
   style="stop-color:#F37321"
   id="stop598" />
			<stop
   offset="1"
   style="stop-color:#F47522"
   id="stop600" />
		</linearGradient>
		<path
   opacity="0.66"
   fill="url(#SVGID_47_)"
   enable-background="new    "
   d="M86.48,24.607c-7.88-5.335-16.701-9.459-34.806-2.065    c0.038-0.153,0.078-0.211,0.078-0.211c18.192-7.522,26.902-3.27,34.779,2.065L86.48,24.607z"
   id="path602" />
		
			<radialGradient
   id="SVGID_48_"
   cx="370.1045"
   cy="1149.8057"
   r="48.3608"
   gradientTransform="matrix(1 0 0 1 -291.9199 -1089.6748)"
   gradientUnits="userSpaceOnUse">
			<stop
   offset="0.005"
   style="stop-color:#D1E289"
   id="stop605" />
			<stop
   offset="0.1227"
   style="stop-color:#CEE185"
   id="stop607" />
			<stop
   offset="0.2473"
   style="stop-color:#C5DC77"
   id="stop609" />
			<stop
   offset="0.3751"
   style="stop-color:#B3D361"
   id="stop611" />
			<stop
   offset="0.5051"
   style="stop-color:#9CC442"
   id="stop613" />
			<stop
   offset="0.6356"
   style="stop-color:#7EB041"
   id="stop615" />
			<stop
   offset="0.6495"
   style="stop-color:#7BAF42"
   id="stop617" />
			<stop
   offset="0.7789"
   style="stop-color:#588F3F"
   id="stop619" />
			<stop
   offset="0.922"
   style="stop-color:#386F36"
   id="stop621" />
			<stop
   offset="1"
   style="stop-color:#2D6331"
   id="stop623" />
		</radialGradient>
		<path
   fill="url(#SVGID_48_)"
   d="M125.966,29.873c-18.167,7.507-26.893,3.285-34.757-2.012l-8.96,31.074    c7.856,5.329,17.351,9.697,34.767,1.906L125.966,29.873z"
   id="path625" />
		
			<linearGradient
   id="SVGID_49_"
   gradientUnits="userSpaceOnUse"
   x1="383.127"
   y1="1120.4297"
   x2="418.0537"
   y2="1120.4297"
   gradientTransform="matrix(1 0 0 1 -291.9199 -1089.6748)">
			<stop
   offset="0"
   style="stop-color:#D3E38B"
   id="stop628" />
			<stop
   offset="1"
   style="stop-color:#608339"
   id="stop630" />
		</linearGradient>
		<path
   fill="url(#SVGID_49_)"
   d="M125.928,29.896c-18.162,7.505-26.855,3.282-34.721-2.009c0.021-0.069,0.048-0.203,0-0.334    c7.865,5.295,16.773,9.559,34.927,2.05C125.984,29.688,125.973,29.792,125.928,29.896z"
   id="path632" />
		<polygon
   fill="#8CAC41"
   points="89.816,28.258 90.471,27.794 81.598,58.593 80.915,59.138 80.915,59.07   "
   id="polygon634" />
		
			<linearGradient
   id="SVGID_50_"
   gradientUnits="userSpaceOnUse"
   x1="378.7119"
   y1="1133.0752"
   x2="377.8821"
   y2="1132.8373"
   gradientTransform="matrix(1 0 0 1 -291.9199 -1089.6748)">
			<stop
   offset="0.2822"
   style="stop-color:#D3E38B"
   id="stop637" />
			<stop
   offset="0.4045"
   style="stop-color:#D3E38B"
   id="stop639" />
			<stop
   offset="1"
   style="stop-color:#608339"
   id="stop641" />
		</linearGradient>
		<path
   fill="url(#SVGID_50_)"
   d="M82.268,58.949c-0.271-0.159-0.476-0.473-0.722-0.375l8.89-30.764    c0.139-0.062,0.48-0.176,0.808,0.077L82.268,58.949z"
   id="path643" />
		<path
   fill="#608339"
   d="M90.549,27.597l-0.089,0.219l-0.647,0.467c0.059-0.211,0.557-0.56,0.701-0.67    C90.543,27.601,90.549,27.597,90.549,27.597z"
   id="path645" />
		
			<linearGradient
   id="SVGID_51_"
   gradientUnits="userSpaceOnUse"
   x1="383.1631"
   y1="1117.3564"
   x2="382.3662"
   y2="1117.3005"
   gradientTransform="matrix(1 0 0 1 -291.9199 -1089.6748)">
			<stop
   offset="0"
   style="stop-color:#7BAA41"
   id="stop648" />
			<stop
   offset="0.2"
   style="stop-color:#D3E38B"
   id="stop650" />
			<stop
   offset="0.525"
   style="stop-color:#D3E38B"
   id="stop652" />
			<stop
   offset="1"
   style="stop-color:#7BAA41"
   id="stop654" />
		</linearGradient>
		<path
   fill="url(#SVGID_51_)"
   d="M91.212,27.861c-0.337-0.204-0.646-0.101-0.78-0.043c0.02-0.068,0.08-0.205,0.08-0.205    c0.295-0.182,0.415-0.189,0.694-0.061C91.242,27.657,91.255,27.758,91.212,27.861z"
   id="path656" />
		
			<linearGradient
   id="SVGID_52_"
   gradientUnits="userSpaceOnUse"
   x1="409.5332"
   y1="1135.4863"
   x2="419.249"
   y2="1135.4863"
   gradientTransform="matrix(1 0 0 1 -291.9199 -1089.6748)">
			<stop
   offset="0.0056"
   style="stop-color:#7BAA41"
   id="stop659" />
			<stop
   offset="0.1685"
   style="stop-color:#1F4B23"
   id="stop661" />
			<stop
   offset="0.382"
   style="stop-color:#2B562A"
   id="stop663" />
			<stop
   offset="1"
   style="stop-color:#7BAA41"
   id="stop665" />
		</linearGradient>
		<polygon
   opacity="0.81"
   fill="url(#SVGID_52_)"
   enable-background="new    "
   points="117.613,60.982 126.598,30.047     127.329,30.628 118.298,61.576   "
   id="polygon667" />
		<path
   fill="#496F34"
   d="M118.475,61.804c0.021-0.181-0.164-0.324-0.164-0.324l9.006-30.883c0,0,0.146,0.127,0.182,0.217    L118.475,61.804z"
   id="path669" />
		<path
   fill="#1F341C"
   d="M118.174,62.091c-4.854,2.205-9.441,3.345-13.708,3.712c-7.366,0.829-13.323-0.766-18.187-3.157    c-1.896-0.872-3.604-1.854-5.123-2.876l0.085-0.062c1.54,1.029,3.209,2.042,5.038,2.938c4.943,2.267,11.115,3.768,18.187,3.158    c4.026-0.458,8.478-1.65,13.396-3.827C118,62.085,118.174,62.091,118.174,62.091z"
   id="path671" />
		
			<linearGradient
   id="SVGID_53_"
   gradientUnits="userSpaceOnUse"
   x1="409.5879"
   y1="1150.8281"
   x2="408.8037"
   y2="1150.7733"
   gradientTransform="matrix(1 0 0 1 -291.9199 -1089.6748)">
			<stop
   offset="0"
   style="stop-color:#7BAA41"
   id="stop674" />
			<stop
   offset="1"
   style="stop-color:#D3E38B"
   id="stop676" />
		</linearGradient>
		<path
   fill="url(#SVGID_53_)"
   d="M117.191,61.514c0,0-0.342-0.31-0.284-0.76c0.475-0.126,0.774,0.168,0.774,0.168    S117.587,61.343,117.191,61.514z"
   id="path678" />
		
			<linearGradient
   id="SVGID_54_"
   gradientUnits="userSpaceOnUse"
   x1="409.9395"
   y1="1150.8945"
   x2="409.441"
   y2="1151.4481"
   gradientTransform="matrix(1 0 0 1 -291.9199 -1089.6748)">
			<stop
   offset="0"
   style="stop-color:#608339"
   id="stop681" />
			<stop
   offset="1"
   style="stop-color:#2B562A"
   id="stop683" />
		</linearGradient>
		<path
   fill="url(#SVGID_54_)"
   d="M117.682,60.922l0.644,0.572c0,0-0.099,0.356-0.489,0.528l-0.672-0.572    C117.564,61.282,117.682,60.922,117.682,60.922z"
   id="path685" />
		
			<linearGradient
   id="SVGID_55_"
   gradientUnits="userSpaceOnUse"
   x1="373.835"
   y1="1151.8711"
   x2="409.21"
   y2="1151.8711"
   gradientTransform="matrix(1 0 0 1 -291.9199 -1089.6748)">
			<stop
   offset="0"
   style="stop-color:#7BAA41"
   id="stop688" />
			<stop
   offset="0.4"
   style="stop-color:#D3E38B"
   id="stop690" />
			<stop
   offset="1"
   style="stop-color:#7BAA41"
   id="stop692" />
		</linearGradient>
		<path
   fill="url(#SVGID_55_)"
   d="M117.018,60.737c-0.063,0.452,0.272,0.788,0.272,0.788c-18.155,7.507-27.509,3.097-35.375-2.235    c0.138-0.093,0.159-0.093,0.249-0.421C90.025,64.198,101.907,67.928,117.018,60.737z"
   id="path694" />
		<path
   fill="#2B562A"
   d="M81.242,59.74l0.678-0.452c7.864,5.064,17.154,9.439,35.297,2.147l0.65,0.572    C100.453,69.691,89.314,65.416,81.242,59.74z"
   id="path696" />
		<path
   fill="#608339"
   d="M118.475,61.804c-0.084,0.165-0.246,0.262-0.301,0.284c-0.013,0.008-0.02,0.008-0.02,0.008    s-0.121,0.024-0.293-0.09c0.361-0.189,0.463-0.585,0.463-0.585S118.527,61.602,118.475,61.804z"
   id="path698" />
		<path
   fill="#2B562A"
   d="M81.27,59.731l-0.08,0.065c0,0-0.438-0.243-0.272-0.726C80.957,59.553,81.27,59.731,81.27,59.731z"
   id="path700" />
		
			<linearGradient
   id="SVGID_56_"
   gradientUnits="userSpaceOnUse"
   x1="373.6191"
   y1="1149.1631"
   x2="373.0599"
   y2="1148.5419"
   gradientTransform="matrix(1 0 0 1 -291.9199 -1089.6748)">
			<stop
   offset="0"
   style="stop-color:#213A1E"
   id="stop703" />
			<stop
   offset="0.1"
   style="stop-color:#2B562A"
   id="stop705" />
			<stop
   offset="0.65"
   style="stop-color:#7BAA41"
   id="stop707" />
			<stop
   offset="1"
   style="stop-color:#D3E38B"
   id="stop709" />
		</linearGradient>
		<path
   fill="url(#SVGID_56_)"
   d="M80.915,59.07l0.655-0.516c-0.041,0.499,0.387,0.702,0.387,0.702l-0.663,0.512    C81.294,59.771,80.88,59.562,80.915,59.07z"
   id="path711" />
		
			<linearGradient
   id="SVGID_57_"
   gradientUnits="userSpaceOnUse"
   x1="373.6006"
   y1="1148.1592"
   x2="374.0077"
   y2="1148.8938"
   gradientTransform="matrix(1 0 0 1 -291.9199 -1089.6748)">
			<stop
   offset="0"
   style="stop-color:#608339"
   id="stop714" />
			<stop
   offset="0.4045"
   style="stop-color:#7BAA41"
   id="stop716" />
			<stop
   offset="0.8"
   style="stop-color:#608339"
   id="stop718" />
			<stop
   offset="1"
   style="stop-color:#608339"
   id="stop720" />
		</linearGradient>
		<path
   fill="url(#SVGID_57_)"
   d="M81.555,58.553c0.225-0.077,0.424,0.164,0.695,0.381c-0.09,0.32-0.165,0.263-0.303,0.359    C81.786,59.203,81.51,58.963,81.555,58.553z"
   id="path722" />
		
			<linearGradient
   id="SVGID_58_"
   gradientUnits="userSpaceOnUse"
   x1="418.8516"
   y1="1120.0195"
   x2="418.9672"
   y2="1119.6265"
   gradientTransform="matrix(1 0 0 1 -291.9199 -1089.6748)">
			<stop
   offset="0"
   style="stop-color:#5C8039"
   id="stop725" />
			<stop
   offset="1"
   style="stop-color:#D3E38B"
   id="stop727" />
		</linearGradient>
		<path
   opacity="0.72"
   fill="url(#SVGID_58_)"
   enable-background="new    "
   d="M127.389,30.308c0.01,0.115-0.076,0.307-0.076,0.307    l-0.696-0.563c0,0,0.101-0.229,0.049-0.403C126.9,29.749,127.352,30.24,127.389,30.308z"
   id="path729" />
		
			<linearGradient
   id="SVGID_59_"
   gradientUnits="userSpaceOnUse"
   x1="418.1357"
   y1="1124.9814"
   x2="382.5734"
   y2="1114.7841"
   gradientTransform="matrix(1 0 0 1 -291.9199 -1089.6748)">
			<stop
   offset="0"
   style="stop-color:#1F341C"
   id="stop732" />
			<stop
   offset="0.2277"
   style="stop-color:#2B562A"
   id="stop734" />
			<stop
   offset="1"
   style="stop-color:#7BAA41"
   id="stop736" />
		</linearGradient>
		<path
   opacity="0.33"
   fill="url(#SVGID_59_)"
   enable-background="new    "
   d="M127.375,30.28c-0.137-0.186-0.346-0.348-0.508-0.497    c-0.307-0.28-0.688-0.219-0.778-0.166l-0.004,0.01c-18.114,7.479-27.015,3.214-34.875-2.076c0.019,0.039,0.019,0.079,0.022,0.116    c-0.004-0.038-0.004-0.077-0.022-0.116c-0.278-0.127-0.401-0.121-0.694,0.061c-0.113,0.08-0.406,0.297-0.574,0.481    C92.961,30.64,105.811,40.707,127.375,30.28z M91.212,27.861L91.212,27.861l-0.006,0.006c0-0.006,0-0.006-0.002-0.007    C91.207,27.861,91.207,27.861,91.212,27.861c0.019-0.042,0.019-0.082,0.021-0.122C91.23,27.789,91.225,27.831,91.212,27.861z"
   id="path738" />
		
			<linearGradient
   id="SVGID_60_"
   gradientUnits="userSpaceOnUse"
   x1="414.1299"
   y1="1135.1963"
   x2="413.3061"
   y2="1134.96"
   gradientTransform="matrix(1 0 0 1 -291.9199 -1089.6748)">
			<stop
   offset="0"
   style="stop-color:#608339"
   id="stop741" />
			<stop
   offset="1"
   style="stop-color:#77C046"
   id="stop743" />
		</linearGradient>
		<path
   opacity="0.72"
   fill="url(#SVGID_60_)"
   enable-background="new    "
   d="M116.934,60.81l8.98-30.922    c0.49-0.09,0.725,0.189,0.725,0.189l-8.957,30.844C117.682,60.922,117.313,60.644,116.934,60.81z"
   id="path745" />
		
			<linearGradient
   id="SVGID_61_"
   gradientUnits="userSpaceOnUse"
   x1="417.8477"
   y1="1119.8682"
   x2="419.4463"
   y2="1119.8682"
   gradientTransform="matrix(1 0 0 1 -291.9199 -1089.6748)">
			<stop
   offset="0"
   style="stop-color:#D3E38B"
   id="stop748" />
			<stop
   offset="1"
   style="stop-color:#608339"
   id="stop750" />
		</linearGradient>
		<path
   opacity="0.6"
   fill="url(#SVGID_61_)"
   enable-background="new    "
   d="M125.928,29.896c0.027-0.119,0.043-0.171,0.16-0.279    c0.092-0.054,0.473-0.115,0.778,0.166c0.307,0.276,0.778,0.598,0.633,1.033c-0.037-0.09-0.175-0.202-0.175-0.202l-0.686-0.54    C126.639,30.075,126.417,29.81,125.928,29.896z"
   id="path752" />
		
			<linearGradient
   id="SVGID_62_"
   gradientUnits="userSpaceOnUse"
   x1="417.9854"
   y1="1125.3535"
   x2="382.5256"
   y2="1115.1858"
   gradientTransform="matrix(1 0 0 1 -291.9199 -1089.6748)">
			<stop
   offset="0"
   style="stop-color:#94C082"
   id="stop755" />
			<stop
   offset="0.2277"
   style="stop-color:#2B562A"
   id="stop757" />
			<stop
   offset="1"
   style="stop-color:#BDD85B"
   id="stop759" />
		</linearGradient>
		<path
   opacity="0.3"
   fill="url(#SVGID_62_)"
   enable-background="new    "
   d="M89.938,28.095c-0.045,0.057-0.09,0.105-0.112,0.155    l-0.005,0.008l-0.033,0.106c2.734,2.313,15.705,12.965,37.732,2.243c-0.016-0.12-0.065-0.229-0.143-0.329    C105.811,40.707,92.961,30.64,89.938,28.095z"
   id="path761" />
		
			<linearGradient
   id="SVGID_63_"
   gradientUnits="userSpaceOnUse"
   x1="418.8545"
   y1="1120.0234"
   x2="418.9705"
   y2="1119.629"
   gradientTransform="matrix(1 0 0 1 -291.9199 -1089.6748)">
			<stop
   offset="0"
   style="stop-color:#5C8039"
   id="stop764" />
			<stop
   offset="1"
   style="stop-color:#D3E38B"
   id="stop766" />
		</linearGradient>
		<path
   opacity="0.72"
   fill="url(#SVGID_63_)"
   enable-background="new    "
   d="M127.389,30.31c0.01,0.113-0.076,0.305-0.076,0.305    l-0.695-0.563c0,0,0.102-0.229,0.056-0.404C126.9,29.75,127.352,30.243,127.389,30.31z"
   id="path768" />
		
			<linearGradient
   id="SVGID_64_"
   gradientUnits="userSpaceOnUse"
   x1="417.8477"
   y1="1119.8682"
   x2="419.4482"
   y2="1119.8682"
   gradientTransform="matrix(1 0 0 1 -291.9199 -1089.6748)">
			<stop
   offset="0"
   style="stop-color:#D3E38B"
   id="stop771" />
			<stop
   offset="1"
   style="stop-color:#608339"
   id="stop773" />
		</linearGradient>
		<path
   opacity="0.6"
   fill="url(#SVGID_64_)"
   enable-background="new    "
   d="M125.928,29.896c0.027-0.119,0.043-0.171,0.162-0.279    c0.09-0.054,0.473-0.115,0.776,0.168c0.307,0.275,0.778,0.593,0.636,1.031c-0.041-0.091-0.178-0.202-0.178-0.202l-0.686-0.542    C126.641,30.075,126.417,29.81,125.928,29.896z"
   id="path775" />
	</g>
</g>
</svg>