<?xml version="1.0" encoding="UTF-8" standalone="no"?>
<!-- Created with Inkscape (http://www.inkscape.org/) -->

<svg
   xmlns:dc="http://purl.org/dc/elements/1.1/"
   xmlns:cc="http://creativecommons.org/ns#"
   xmlns:rdf="http://www.w3.org/1999/02/22-rdf-syntax-ns#"
   xmlns:svg="http://www.w3.org/2000/svg"
   xmlns="http://www.w3.org/2000/svg"
   xmlns:sodipodi="http://sodipodi.sourceforge.net/DTD/sodipodi-0.dtd"
   xmlns:inkscape="http://www.inkscape.org/namespaces/inkscape"
   id="svg2"
   inkscape:version="0.48.0 r9654"
   height="87.594627"
   width="459.40793"
   version="1.1"
   sodipodi:docname="Windows_8_Logo.svg">
  <defs
     id="defs19" />
  <sodipodi:namedview
     id="base"
     fit-margin-left="0"
     inkscape:zoom="2"
     borderopacity="1.0"
     inkscape:current-layer="g3763"
     inkscape:cx="243.44312"
     inkscape:cy="-25.868872"
     inkscape:window-maximized="1"
     showgrid="false"
     fit-margin-right="0"
     inkscape:document-units="px"
     bordercolor="#666666"
     inkscape:window-x="-8"
     inkscape:guide-bbox="true"
     inkscape:window-y="-8"
     fit-margin-bottom="0"
     inkscape:window-width="1366"
     inkscape:pageopacity="0.0"
     inkscape:pageshadow="2"
     pagecolor="#ffffff"
     showguides="true"
     inkscape:window-height="746"
     fit-margin-top="0" />
  <metadata
     id="metadata7">
    <rdf:RDF>
      <cc:Work
         rdf:about="">
        <dc:format>image/svg+xml</dc:format>
        <dc:type
           rdf:resource="http://purl.org/dc/dcmitype/StillImage" />
        <dc:title />
      </cc:Work>
    </rdf:RDF>
  </metadata>
  <g
     id="layer1"
     inkscape:label="Layer 1"
     inkscape:groupmode="layer"
     transform="translate(148.9622,-225.33682)">
    <g
       id="g3012"
       transform="translate(109.60155,-54.548234)"
       stroke-miterlimit="4"
       style="fill:#0dadea;stroke-miterlimit:4;stroke-dasharray:none">
      <g
         id="g3763">
        <path
           id="path13"
           d="m -258.56375,292.28688 35.68737,-4.86023 0.0156,34.42275 -35.66975,0.20313 z m 35.67037,33.52906 0.0277,34.45332 -35.66989,-4.9041 -0.002,-29.77972 z m 4.32608,-39.02494 47.31817,-6.90595 0,41.527 -47.31817,0.37565 z m 47.32922,39.34876 -0.0111,41.33992 -47.31817,-6.67838 -0.0663,-34.73858 z"
           inkscape:connector-curvature="0"
           style="fill:#00adef;fill-opacity:1;fill-rule:evenodd;stroke:none"
           sodipodi:nodetypes="cccccccccccccccccccc" />
        <path
           inkscape:connector-curvature="0"
           id="path3037"
           style="font-size:75px;font-style:normal;font-variant:normal;font-weight:bold;font-stretch:normal;line-height:125%;letter-spacing:-2.32999992px;word-spacing:0px;fill:#00adef;fill-opacity:1;stroke:none;font-family:Segoe WP;-inkscape-font-specification:Segoe WP Bold"
           d="m -75.266019,297.64345 -14.615774,52.35748 -8.680274,-0.0884 -11.404333,-41.29468 c 0.0924,-2.15723 0.26624,-0.60129 0.26624,-0.60129 l -11.51949,41.85177 -8.69084,0.0884 -15.08277,-52.29118 8.13437,-0.0221 11.5869,43.62031 -0.23543,-0.13944 12.17323,-43.48639 7.80331,0.0276 11.574662,44.35065 -0.205782,-0.62798 10.943848,-43.70058 z"
           sodipodi:nodetypes="ccccccccccccccccc" />
        <path
           inkscape:connector-curvature="0"
           id="path3039"
           style="font-size:75px;font-style:normal;font-variant:normal;font-weight:bold;font-stretch:normal;line-height:125%;letter-spacing:-2.32999992px;word-spacing:0px;fill:#00adef;fill-opacity:1;stroke:none;font-family:Segoe WP;-inkscape-font-specification:Segoe WP Bold"
           d="m -67.999323,303.85306 c -1.29548,5e-5 -2.388,-0.43025 -3.27758,-1.29089 -0.8896,-0.86055 -1.33439,-1.94316 -1.33439,-3.24784 0,-1.28626 0.44823,-2.37002 1.34469,-3.25126 0.89644,-0.88114 1.98554,-1.32174 3.26728,-1.3218 1.29699,6e-5 2.40172,0.44218 3.31421,1.32637 0.91246,0.8843 1.3687,1.96653 1.36872,3.24669 -2e-5,1.24059 -0.45397,2.30718 -1.36185,3.19977 -0.90791,0.89269 -2.01494,1.33901 -3.32108,1.33896 z m 3.236188,46.15891 -7.058508,-0.0552 -0.15468,-37.32644 7.257382,-0.0442 z"
           sodipodi:nodetypes="ccsccccccccccc" />
        <path
           inkscape:connector-curvature="0"
           id="path3041"
           style="font-size:75px;font-style:normal;font-variant:normal;font-weight:bold;font-stretch:normal;line-height:125%;letter-spacing:-2.32999992px;word-spacing:0px;fill:#00adef;fill-opacity:1;stroke:none;font-family:Segoe WP;-inkscape-font-specification:Segoe WP Bold"
           d="m -24.176213,350.05401 -7.18795,0 0,-20.82758 c 0,-7.34463 -2.349009,-11.52491 -7.92829,-11.47259 -2.67946,3e-5 -5.165266,1.09068 -6.95509,3.14897 -2.19689,2.52642 -2.603556,3.90845 -2.62343,8.32362 l -0.09375,20.82758 -7.28171,-0.0625 0.03125,-37.32617 7.15671,-0.0312 0.0625,8.47927 -1.03922,-0.96875 c 2.747088,-4.8104 6.448187,-8.46716 13.00461,-8.46716 4.28312,4e-5 7.43379,1.16412 9.70204,3.92973 2.26819,2.76569 3.08979,7.05342 3.08983,12.11321 z"
           sodipodi:nodetypes="ccscssccccccccsc" />
        <path
           inkscape:connector-curvature="0"
           id="path3043"
           style="font-size:75px;font-style:normal;font-variant:normal;font-weight:bold;font-stretch:normal;line-height:125%;letter-spacing:-2.32999992px;word-spacing:0px;fill:#00adef;fill-opacity:1;stroke:none;font-family:Segoe WP;-inkscape-font-specification:Segoe WP Bold"
           d="m 17.80273,350.66384 -7.50046,0 0,-6.24848 1.1467,0 c -2.72983,4.73939 -7.10376,7.10907 -13.1218,7.10907 -4.89961,0 -8.79632,-1.72271 -11.69014,-5.16815 -2.89383,-3.44542 -4.34075,-8.09477 -4.34074,-13.94806 -10e-6,-6.2515 1.59797,-11.28766 4.79393,-15.10849 3.19594,-3.82076 7.47946,-5.73116 12.85057,-5.7312 5.37412,4e-5 9.21017,1.9875 11.50818,5.96237 l -1.1467,0 0,-22.76458 7.50046,0 z m -7.50046,-17.35611 0,-5.42221 c -3e-5,-2.77555 -0.9106,-5.11892 -2.73171,-7.03011 -1.82116,-1.91113 -4.11264,-2.86671 -6.87446,-2.86674 -3.31423,3e-5 -5.9353,1.23332 -7.86324,3.69987 -1.92796,2.46661 -2.89193,5.94447 -2.89192,10.43358 -10e-6,4.08784 0.91895,7.27388 2.75688,9.55811 1.83791,2.28424 4.28885,3.42636 7.35283,3.42636 3.01969,0 5.48322,-1.10473 7.3906,-3.31421 1.90731,-2.20946 2.86099,-5.03768 2.86102,-8.48465 z"
           sodipodi:nodetypes="ccccssssccccccscccsssscs" />
        <path
           inkscape:connector-curvature="0"
           id="path3045"
           style="font-size:75px;font-style:normal;font-variant:normal;font-weight:bold;font-stretch:normal;line-height:125%;letter-spacing:-2.32999992px;word-spacing:0px;fill:#00adef;fill-opacity:1;stroke:none;font-family:Segoe WP;-inkscape-font-specification:Segoe WP Bold"
           d="m 42.241465,351.17087 c -5.68392,0 -10.21921,-1.78137 -13.60588,-5.34415 -3.3867,-3.56278 -5.08004,-8.25364 -5.08004,-14.07263 0,-6.31309 1.76239,-11.27035 5.28717,-14.87181 3.52477,-3.60139 8.27864,-5.4021 14.26163,-5.40214 5.72965,4e-5 10.20467,1.75491 13.42507,5.26459 3.22032,3.50975 4.83051,8.32264 4.83055,14.43868 -4e-5,6.00088 -1.73115,10.83233 -5.19333,14.49438 -3.46225,3.66206 -8.10397,5.49308 -13.92517,5.49308 z m 0.43258,-33.3132 c -3.52327,3e-5 -6.31639,1.19785 -8.37936,3.59347 -2.063,2.39567 -3.09449,5.75874 -3.09448,10.08923 -10e-6,4.16833 1.04025,7.41961 3.1208,9.75387 2.08052,2.33426 4.86487,3.50139 8.35304,3.50139 3.53849,0 6.26371,-1.14401 8.17566,-3.43204 1.9119,-2.28803 2.86786,-5.61017 2.86789,-9.96646 -3e-5,-4.39717 -0.9579,-7.75304 -2.87361,-10.06763 -1.91577,-2.31452 -4.63908,-3.4718 -8.16994,-3.47183 z"
           sodipodi:nodetypes="sssscccsscsssssccc" />
        <path
           inkscape:connector-curvature="0"
           id="path3047"
           style="font-size:75px;font-style:normal;font-variant:normal;font-weight:bold;font-stretch:normal;line-height:125%;letter-spacing:-2.32999992px;word-spacing:0px;fill:#00adef;fill-opacity:1;stroke:none;font-family:Segoe WP;-inkscape-font-specification:Segoe WP Bold"
           d="m 116.99806,312.51981 -10.98844,37.50321 -7.763967,0.0442 -7.885281,-29.02279 0.03544,0.0412 -8.798213,28.95949 -7.289017,0 -11.575299,-37.52531 7.776206,0 7.966939,30.4763 -0.205499,0.31014 8.903523,-30.78644 6.776069,0 8.580129,31.60782 -0.25257,-0.93394 7.29746,-30.67388 z"
           sodipodi:nodetypes="ccccccccccccccccc" />
        <path
           inkscape:connector-curvature="0"
           id="path3049"
           style="font-size:75px;font-style:normal;font-variant:normal;font-weight:bold;font-stretch:normal;line-height:125%;letter-spacing:-2.32999992px;word-spacing:0px;fill:#00adef;fill-opacity:1;stroke:none;font-family:Segoe WP;-inkscape-font-specification:Segoe WP Bold"
           d="m 119.66693,349.03191 0,-7.47986 c 3.49314,2.3697 6.87158,3.55454 10.13538,3.55454 4.12145,0 6.18218,-1.47934 6.1822,-4.43802 -2e-5,-0.84533 -0.16897,-1.55982 -0.50688,-2.14348 -0.33793,-0.58364 -0.8102,-1.11388 -1.41678,-1.59073 -0.60664,-0.47682 -1.37509,-0.93039 -2.30535,-1.3607 -0.9303,-0.43028 -1.86227,-0.84914 -2.79593,-1.25656 -1.4996,-0.66985 -2.81766,-1.34581 -3.9542,-2.0279 -1.13657,-0.68204 -2.09875,-1.46597 -2.88653,-2.35176 -0.78778,-0.88575 -1.38287,-1.89702 -1.78524,-3.03383 -0.40238,-1.13675 -0.60357,-2.46121 -0.60356,-3.97338 -1e-5,-1.85544 0.37557,-3.49347 1.12672,-4.9141 0.75114,-1.42056 1.75097,-2.60921 2.99949,-3.56598 1.24851,-0.95668 2.667,-1.67614 4.25547,-2.15835 1.58846,-0.48214 3.20577,-0.72323 4.85191,-0.72327 2.92721,4e-5 5.69974,0.64549 8.31758,1.93634 l 0,7.14111 c -3.04939,-1.77151 -6.05601,-2.65728 -9.01986,-2.65731 -0.8984,3e-5 -1.70315,0.11371 -2.41426,0.34103 -0.71111,0.22739 -1.31366,0.54019 -1.80763,0.93842 -0.49399,0.39828 -0.86956,0.86138 -1.12672,1.38931 -0.25718,0.52798 -0.38576,1.11773 -0.38575,1.76926 -1e-5,0.85451 0.13027,1.55413 0.39084,2.09884 0.26055,0.54477 0.65919,1.04373 1.19593,1.49689 0.53671,0.45321 1.20847,0.87206 2.01527,1.25656 0.80677,0.38455 1.75097,0.81637 2.83257,1.29547 1.54977,0.66836 2.90279,1.33364 4.05905,1.99585 1.1562,0.66225 2.16791,1.43549 3.03511,2.31972 0.86716,0.88426 1.53823,1.91309 2.01324,3.08647 0.47495,1.17341 0.71243,2.54594 0.71246,4.11758 -3e-5,1.93025 -0.38747,3.62359 -1.16234,5.08004 -0.77493,1.45645 -1.79579,2.65541 -3.0626,3.59687 -1.26686,0.94147 -2.70774,1.63575 -4.32265,2.08283 -1.61494,0.44708 -3.31537,0.67062 -5.10128,0.67062 -3.49721,0 -6.65244,-0.83084 -9.46566,-2.49252 z"
           sodipodi:nodetypes="ccscccccccccsccccccccsccccccccccsssc" />
        <path
           inkscape:connector-curvature="0"
           id="path3051"
           style="font-size:75px;font-style:normal;font-variant:normal;font-weight:bold;font-stretch:normal;line-height:125%;letter-spacing:-2.32999992px;word-spacing:0px;fill:#00adef;fill-opacity:1;stroke:none;font-family:Segoe WP;-inkscape-font-specification:Segoe WP Bold"
           d="m 165.84128,335.56908 c 0,-1.45567 0.22277,-2.89534 0.66833,-4.319 0.44556,-1.42362 1.08909,-2.76334 1.93062,-4.01916 0.84152,-1.25578 1.88636,-2.40057 3.13454,-3.43438 1.24816,-1.03375 2.50853,-1.67195 3.78113,-1.91459 -2.08894,-0.81632 -3.82577,-2.25064 -5.2105,-4.30298 -1.38474,-2.05227 -2.07711,-4.33804 -2.0771,-6.8573 -1e-5,-1.99428 0.38451,-3.83678 1.15356,-5.5275 0.76904,-1.69062 1.83448,-3.15394 3.19634,-4.38995 1.36183,-1.23591 2.98575,-2.20408 4.87175,-2.90451 1.88597,-0.70033 3.90394,-1.05052 6.05392,-1.05057 2.1652,5e-5 4.19157,0.35711 6.0791,1.07117 1.88749,0.71416 3.5114,1.68805 4.87175,2.92167 1.36029,1.23373 2.42116,2.70086 3.18261,4.4014 0.76137,1.70064 1.14208,3.52673 1.14212,5.47829 -4e-5,2.50858 -0.6947,4.79168 -2.08397,6.84929 -1.38935,2.05768 -3.101,3.49238 -5.13497,4.30412 1.25119,0.24875 2.48982,0.8858 3.7159,1.91116 1.22601,1.02542 2.26246,2.16945 3.10936,3.43209 0.84683,1.26268 1.49494,2.61194 1.94435,4.04777 0.44933,1.43587 0.67402,2.8702 0.67406,4.30298 -4e-5,2.33308 -0.42767,4.48152 -1.28288,6.44531 -0.8553,1.96382 -2.06074,3.64724 -3.61634,5.05028 -1.55566,1.40305 -3.40045,2.49138 -5.53436,3.265 -2.13397,0.77362 -4.48954,1.16043 -7.06673,1.16043 -2.56502,0 -4.90762,-0.38681 -7.02781,-1.16043 -2.12022,-0.77362 -3.96387,-1.86195 -5.53093,-3.265 -1.56709,-1.40304 -2.78283,-3.08189 -3.64724,-5.03654 -0.86441,-1.95464 -1.29661,-4.10766 -1.29661,-6.45905 z m 8.00171,-0.50354 c -10e-6,1.5442 0.22734,2.91597 0.68207,4.1153 0.4547,1.19935 1.09327,2.21558 1.91574,3.0487 0.82243,0.83314 1.81654,1.47286 2.98233,1.91918 1.16575,0.44632 2.48411,0.66948 3.95508,0.66948 1.40378,0 2.68743,-0.23041 3.85093,-0.69123 1.16346,-0.46081 2.16558,-1.10625 3.00636,-1.93634 0.84074,-0.83007 1.50335,-1.85279 1.98784,-3.06816 0.48444,-1.21535 0.72667,-2.56766 0.7267,-4.05693 -3e-5,-1.33818 -0.22967,-2.59512 -0.68893,-3.77083 -0.45932,-1.17567 -1.11125,-2.2083 -1.9558,-3.09791 -0.8446,-0.88957 -1.84748,-1.58651 -3.00865,-2.09084 -1.16122,-0.50428 -2.46737,-0.75643 -3.91845,-0.75645 -1.35653,2e-5 -2.61462,0.2373 -3.77427,0.71182 -1.15968,0.47457 -2.16409,1.1368 -3.01323,1.98669 -0.84916,0.84994 -1.5194,1.87113 -2.01072,3.06359 -0.49135,1.19249 -0.73701,2.51047 -0.737,3.95393 z m 1.83105,-23.87695 c -1e-5,1.14902 0.20064,2.19501 0.60196,3.13797 0.40129,0.94303 0.96015,1.7731 1.67656,2.49023 0.71639,0.7172 1.53235,1.27262 2.44789,1.66626 0.91551,0.39371 1.90809,0.59055 2.97776,0.59052 1.06046,3e-5 2.05762,-0.20406 2.99148,-0.61226 0.93381,-0.40814 1.74901,-0.96623 2.4456,-1.67427 0.69654,-0.70798 1.25463,-1.54225 1.67427,-2.50283 0.41959,-0.9605 0.6294,-1.99237 0.62943,-3.09562 -3e-5,-1.15658 -0.20183,-2.21363 -0.60539,-3.17116 -0.40363,-0.95745 -0.95828,-1.78905 -1.66397,-2.49481 -0.70575,-0.70568 -1.52705,-1.25804 -2.46392,-1.65711 -0.93691,-0.39897 -1.93941,-0.59848 -3.0075,-0.59852 -1.14443,4e-5 -2.18775,0.20604 -3.12996,0.61798 -0.94225,0.41203 -1.75325,0.96859 -2.43302,1.66969 -0.67979,0.70119 -1.2066,1.53508 -1.58043,2.50168 -0.37385,0.96669 -0.56077,2.01077 -0.56076,3.13225 z"
           sodipodi:nodetypes="ssscccsccccccccscccccccssssssccccsssccccccccccccccccscccccccccc" />
      </g>
    </g>
  </g>
</svg>
