<?xml version="1.0" encoding="UTF-8" standalone="no"?>
<!-- Created with Inkscape (http://www.inkscape.org/) -->

<svg
   xmlns:dc="http://purl.org/dc/elements/1.1/"
   xmlns:cc="http://creativecommons.org/ns#"
   xmlns:rdf="http://www.w3.org/1999/02/22-rdf-syntax-ns#"
   xmlns:svg="http://www.w3.org/2000/svg"
   xmlns="http://www.w3.org/2000/svg"
   xmlns:sodipodi="http://sodipodi.sourceforge.net/DTD/sodipodi-0.dtd"
   xmlns:inkscape="http://www.inkscape.org/namespaces/inkscape"
   version="1.1"
   width="320"
   height="44"
   id="svg2985"
   inkscape:version="0.48.2 r9819"
   sodipodi:docname="AJAX1.svg"
   inkscape:export-filename="C:\Users\Meshaal\Desktop\WindowsPhone7logo.png"
   inkscape:export-xdpi="90"
   inkscape:export-ydpi="90">
  <sodipodi:namedview
     pagecolor="#ffffff"
     bordercolor="#666666"
     borderopacity="1"
     objecttolerance="10"
     gridtolerance="10"
     guidetolerance="10"
     inkscape:pageopacity="0"
     inkscape:pageshadow="2"
     inkscape:window-width="1280"
     inkscape:window-height="1004"
     id="namedview6"
     showgrid="false"
     inkscape:zoom="4"
     inkscape:cx="69.551274"
     inkscape:cy="56.627533"
     inkscape:window-x="-8"
     inkscape:window-y="-8"
     inkscape:window-maximized="1"
     inkscape:current-layer="svg2985"
     fit-margin-top="0"
     fit-margin-left="0"
     fit-margin-right="0"
     fit-margin-bottom="0" />
  <metadata
     id="metadata2991">
    <rdf:RDF>
      <cc:Work
         rdf:about="">
        <dc:format>image/svg+xml</dc:format>
        <dc:type
           rdf:resource="http://purl.org/dc/dcmitype/StillImage" />
        <dc:title />
      </cc:Work>
    </rdf:RDF>
  </metadata>
  <defs
     id="defs2989" />
  <rect
     style="fill:#e51400;fill-opacity:1;fill-rule:nonzero;stroke:none"
     id="rect5762"
     width="44"
     height="44"
     x="0"
     y="0" />
  <path
     style="fill:#ffffff;stroke:none"
     d="m 18.5758,8.001957 c -0.841347,-0.017099 -1.750457,0.077987 -2.704636,0.2800894 -1.030812,0.2178713 -2.155771,0.5651634 -3.346049,1.0449421 -0.01044,0.00427 -0.04236,0.021577 -0.05345,0.064633 l -0.160354,0.5170861 -2.8543,9.6738084 c -0.00329,0.0099 -0.010692,0.01983 -0.010692,0.03232 0,0.047 0.018955,0.102068 0.042758,0.118498 0.00461,0.0036 0.017468,0.0085 0.021384,0.01076 l 0.010692,0.01076 0.1817336,0.140044 c 0.00584,0.0047 0.017468,0.0082 0.021384,0.01076 0.036198,0.01446 0.043991,0.01177 0.053449,0.01077 l 0.010692,0 c 0.026089,-0.0023 0.085195,-0.03166 0.085525,-0.03232 2.6091544,-1.009508 4.6926354,-1.37613 6.5638184,-1.152671 0.797975,0.09531 1.572072,0.308283 2.362547,0.635585 0.62938,0.261249 1.277778,0.604712 2.041839,1.077261 l 0.01069,0 0.01069,0 0.01069,0 0,0.01076 c 3.25e-4,0 0.05701,0.02359 0.106903,0.01076 0,-6.55e-4 0.192424,-0.0754 0.192424,-0.0754 l 0.01069,-0.01077 c 0.02511,-0.01807 0.06375,-0.04897 0.07483,-0.09695 l 1.881485,-6.34507 1.015574,-3.41492 0.06414,-0.226222 c 0,-3.32e-4 0.05345,-0.16159 0.05345,-0.16159 0.0013,-0.0054 -9.7e-4,-0.0153 0,-0.02155 0,-0.0042 0,-0.0062 0,-0.01077 0,-0.03812 -0.01439,-0.07823 -0.04276,-0.09695 -0.5984,-0.3956534 -1.073068,-0.6721681 -1.539398,-0.9156733 l -0.03206,-0.021546 C 21.312355,8.3681633 20.011644,8.0315305 18.575809,8.0019524 z m 7.076951,3.048649 c -0.03387,0.003 -0.05945,0.02413 -0.106902,0.05386 l 0,-0.01076 c -6.51e-4,0 -0.05345,0.04309 -0.05345,0.04309 -0.102397,0.07459 -0.164776,0.132929 -0.181734,0.172361 0,0.0014 -0.01069,0.03233 -0.01069,0.03233 0,0.0017 -2.982581,10.083169 -2.982581,10.083169 -0.0082,0.02398 -0.02138,0.05536 -0.02138,0.0754 0,0.110414 0.10462,0.161262 0.106903,0.16159 0.236751,0.155106 0.481382,0.303659 0.726938,0.441677 1.146254,0.696995 2.279235,1.15555 3.463643,1.411214 0.685796,0.149189 1.406347,0.230094 2.127361,0.236995 0.779387,0.0073 1.588348,-0.06881 2.415999,-0.226224 1.228431,-0.189941 2.4775,-0.565064 3.709518,-1.10958 0.02348,-0.01084 0.08115,-0.03721 0.106904,-0.08618 0,-0.002 3.036033,-10.180121 3.036033,-10.180121 0.0056,-0.01806 0.01069,-0.03711 0.01069,-0.05386 0,-0.08741 -0.07596,-0.162798 -0.149664,-0.226225 -0.04076,-0.03811 -0.100167,-0.08052 -0.138972,-0.09695 -0.0825,-0.0381 -0.166988,-0.02555 -0.192426,-0.01076 -0.74384,0.299373 -1.466859,0.546139 -2.148742,0.743311 -0.652207,0.187967 -1.291491,0.335606 -1.892176,0.430905 -0.571984,0.09069 -1.125441,0.14326 -1.656988,0.150816 -0.501549,0.007 -1.00208,-0.0299 -1.475256,-0.09695 -0.849175,-0.120276 -1.659338,-0.351089 -2.48014,-0.721765 -0.815911,-0.367722 -1.548741,-0.826142 -2.095291,-1.18499 -0.04696,-0.0207 -0.08372,-0.03533 -0.117593,-0.03232 z m -10.904064,9.296768 c -0.529265,0.01315 -1.095042,0.06597 -1.66768,0.16159 -0.600357,0.100224 -1.238011,0.249766 -1.892175,0.441677 -0.682209,0.199469 -1.401964,0.451756 -2.1487414,0.754082 l -0.010692,0 c -0.02544,0.01118 -0.034278,0.03736 -0.042758,0.06463 l -2.9825819,10.15858 c -0.016301,0.05389 0.019539,0.09969 0.053449,0.12927 l 0.1924245,0.150818 c 0,0 0.00809,0.0079 0.010692,0.01076 0.047934,0.03187 0.098353,0.02449 0.1175934,0.02155 1.1142956,-0.422271 2.1069639,-0.724676 3.0360331,-0.926445 0.9055903,-0.195856 1.7293073,-0.283702 2.5015213,-0.280088 0.646337,0.0043 1.245797,0.07291 1.849415,0.204679 0.545244,0.120602 1.080326,0.283111 1.624919,0.517087 0.763732,0.334858 1.464013,0.759417 1.988386,1.088033 0,0 3.27e-4,0.01076 0,0.01076 0.0163,0.0083 0.07096,0.02104 0.117593,0 0,0 0.131586,-0.07361 0.171044,-0.09695 l 0.01069,-0.01076 c 0.02675,-0.0184 0.06375,-0.03953 0.07483,-0.08618 l 0,-0.01076 c 0.0058,-0.01939 2.961204,-9.889259 2.961204,-9.889259 l 0.106902,-0.333951 c 0.0016,-0.0083 0,-0.02345 0,-0.03233 0,-0.03909 -0.01439,-0.06612 -0.04276,-0.08619 -9.69e-4,0 -0.01069,0 -0.01069,0 l 0,-0.01076 c -1.260063,-0.83337 -2.676671,-1.630273 -4.55405,-1.874436 -0.470893,-0.06212 -0.96367,-0.08757 -1.464566,-0.0754 z m 7.386969,3.005558 c -0.03457,0.0013 -0.06378,0.02167 -0.117593,0.05386 -0.01337,0.0092 -0.04639,0.03507 -0.08553,0.06463 -0.07957,0.06113 -0.13564,0.106195 -0.149663,0.140043 -3.26e-4,0.0023 0,0.01076 0,0.01076 l -2.98258,10.061626 c -0.05152,0.150835 0.09125,0.238898 0.106903,0.247771 0.763735,0.499823 1.489189,0.887517 2.223574,1.19576 0.430457,0.182053 0.876293,0.339992 1.314902,0.463222 0.475459,0.134731 0.964067,0.232624 1.453875,0.301633 0.525026,0.07327 1.059924,0.109041 1.603538,0.107727 0.57753,-0.0029 1.173249,-0.04187 1.774583,-0.129272 0.635576,-0.09233 1.293676,-0.231835 1.956318,-0.420133 0.696557,-0.197167 1.420879,-0.451098 2.148741,-0.754083 9.7e-4,0 0.01069,-0.01076 0.01069,-0.01076 0.02022,-0.01282 0.06073,-0.03754 0.08552,-0.08618 0,-9.66e-4 2.906772,-9.897077 2.90775,-9.900034 0,-6.55e-4 0,-0.01076 0,-0.01076 0.004,-0.01479 0.01069,-0.02961 0.01069,-0.04309 0,-0.0815 -0.0528,-0.128285 -0.05345,-0.129272 0,9.66e-4 -0.245874,-0.183134 -0.245874,-0.183134 l 0,-0.01076 c -0.01598,-0.01709 -0.05633,-0.03634 -0.160354,-0.02155 -0.7458,0.24679 -1.4711,0.443231 -2.148743,0.603267 -0.652858,0.153135 -1.285042,0.2721 -1.881485,0.344724 -1.125058,0.13966 -2.142664,0.13966 -3.110866,0 -0.852108,-0.12126 -1.653283,-0.347945 -2.458759,-0.700221 -0.650577,-0.284252 -1.322425,-0.655073 -2.09529,-1.163442 -0.04696,-0.02136 -0.07788,-0.03233 -0.106902,-0.03233 z"
     id="path3393"
     inkscape:connector-curvature="0" />
  <path
     style="font-size:41.2071228px;font-style:normal;font-variant:normal;font-weight:normal;font-stretch:normal;line-height:125%;letter-spacing:-2.22000098px;word-spacing:0px;fill:#000000;fill-opacity:1;stroke:none;font-family:Segoe WP;-inkscape-font-specification:Segoe WP"
     d="m 136.9375,5.5 0,12.78125 -0.0937,0 c -1.28774,-2.22667 -3.32596,-3.343729 -6.15625,-3.34375 -2.85714,2.1e-5 -5.15804,1.01021 -6.875,3.0625 -1.71696,2.052326 -2.5625,4.78041 -2.5625,8.1875 0,3.179076 0.76321,5.686858 2.3125,7.53125 1.54928,1.844397 3.62989,2.78125 6.21875,2.78125 3.19246,0 5.53332,-1.312818 7.0625,-3.96875 l 0.0937,0 0,3.5 3.28125,0 0,-30.53125 z m 101.9375,0 0,30.53125 3.3125,0 0,-11.6875 c -1e-5,-1.944988 0.55631,-3.540458 1.65625,-4.78125 1.09992,-1.240759 2.45283,-1.843732 4.0625,-1.84375 3.19247,1.8e-5 4.78123,2.145099 4.78125,6.4375 l 0,11.875 3.3125,0 0,-12.71875 c -2e-5,-5.593538 -2.32759,-8.374979 -6.96875,-8.375 -2.92422,2.1e-5 -5.16718,1.303992 -6.75,3.90625 l -0.0937,0 0,-13.34375 z M 95.46875,5.90625 C 94.87854,5.9062801 94.353323,6.0909092 93.9375,6.5 c -0.41583,0.4091498 -0.625003,0.9454941 -0.625,1.5625 -3e-6,0.6170618 0.20917,1.128863 0.625,1.53125 0.415823,0.4024398 0.94104,0.593776 1.53125,0.59375 0.603614,2.6e-5 1.10871,-0.2091464 1.53125,-0.625 0.422526,-0.4158007 0.624993,-0.9097657 0.625,-1.5 C 97.624993,7.4454941 97.422526,6.9091498 97,6.5 96.57746,6.0909092 96.072364,5.9062801 95.46875,5.90625 z m -40.78125,1.25 8.46875,28.875 3.90625,0 6,-21.15625 c 0.268256,-0.938943 0.419498,-1.882356 0.5,-2.875 l 0.09375,0 c 0.05364,1.059713 0.213869,2.038798 0.46875,2.9375 l 5.9375,21.09375 3.9375,0 8.15625,-28.875 -3.65625,0 -5.90625,22.21875 c -0.308545,1.153592 -0.477623,2.083737 -0.53125,2.78125 l -0.09375,0 C 81.861412,31.123393 81.714593,30.233342 81.5,29.46875 l -6.125,-22.3125 -3.21875,0 -6.40625,22.125 c -0.348769,1.220661 -0.557942,2.195324 -0.625,2.90625 l -0.09375,0 C 64.96417,31.18147 64.817351,30.206808 64.5625,29.28125 l -6.15625,-22.125 z m 163.625,0 0,28.875 3.375,0 0,-10.90625 3.8125,0 c 3.20588,1.1e-5 5.74034,-0.881194 7.625,-2.625 1.88462,-1.743779 2.84373,-3.982317 2.84375,-6.71875 -2e-5,-2.736393 -0.86567,-4.872629 -2.5625,-6.375 -1.69686,-1.5023178 -4.07109,-2.2499711 -7.15625,-2.25 z m 3.375,3.0625 3.96875,0 c 4.50702,2.6e-5 6.78123,1.909254 6.78125,5.71875 -2e-5,1.94502 -0.6164,3.464869 -1.84375,4.53125 -1.22738,1.066412 -3.00976,1.593764 -5.34375,1.59375 l -3.5625,0 z M 111.65625,14.9375 c -2.95104,2.1e-5 -5.19401,1.303994 -6.75,3.90625 l -0.0937,0 0,-3.4375 -3.28125,0 0,20.625 3.28125,0 0,-11.75 c -1e-5,-1.891331 0.54519,-3.477959 1.625,-4.71875 1.0798,-1.240758 2.44385,-1.843732 4.09375,-1.84375 3.19246,1.8e-5 4.81248,2.18962 4.8125,6.5625 l 0,11.75 3.28125,0 0,-12.625 c -2e-5,-2.749812 -0.58745,-4.825836 -1.78125,-6.28125 -1.19384,-1.455376 -2.934,-2.187479 -5.1875,-2.1875 z m 42.15625,0 c -3.21931,2.1e-5 -5.76492,0.96127 -7.65625,2.90625 -1.89134,1.945016 -2.84375,4.664255 -2.84375,8.125 0,3.179076 0.93243,5.731375 2.75,7.65625 1.81756,1.92488 4.23632,2.875 7.28125,2.875 3.12539,0 5.61093,-0.990215 7.46875,-2.96875 1.85778,-1.97853 2.78123,-4.619864 2.78125,-7.90625 -2e-5,-3.353435 -0.83885,-5.952389 -2.5625,-7.84375 -1.72369,-1.891325 -4.14701,-2.843729 -7.21875,-2.84375 z m 47.09375,0 c -1.00604,2.1e-5 -1.99184,0.120159 -2.9375,0.375 -0.94568,0.254883 -1.7935,0.622003 -2.53125,1.125 -0.73776,0.503036 -1.3386,1.130553 -1.78125,1.875 C 193.21359,19.056982 193,19.909223 193,20.875 c 0,0.791428 0.10901,1.503557 0.34375,2.09375 0.23474,0.590219 0.59972,1.099736 1.0625,1.5625 0.46277,0.462787 1.02794,0.881131 1.71875,1.25 0.6908,0.368889 1.49411,0.731587 2.40625,1.09375 0.65727,0.254871 1.27366,0.515267 1.84375,0.75 0.57007,0.23475 1.07746,0.486154 1.5,0.78125 0.42252,0.295111 0.75183,0.648964 1,1.03125 0.24814,0.382299 0.37499,0.82504 0.375,1.375 -1e-5,1.931589 -1.44639,2.906252 -4.34375,2.90625 -2.15962,2e-6 -4.14006,-0.672032 -5.9375,-2 l 0,3.5625 c 1.55599,0.818241 3.38062,1.21875 5.5,1.21875 1.07309,0 2.11454,-0.133552 3.09375,-0.375 0.97919,-0.241448 1.84257,-0.597439 2.59375,-1.09375 0.75116,-0.496309 1.36312,-1.123825 1.8125,-1.875 0.44935,-0.751169 0.65623,-1.636797 0.65625,-2.65625 -2e-5,-0.831649 -0.13128,-1.552622 -0.40625,-2.15625 -0.275,-0.603612 -0.67779,-1.130965 -1.1875,-1.59375 -0.50974,-0.462766 -1.11942,-0.881111 -1.84375,-1.25 -0.72435,-0.368868 -1.55663,-0.71373 -2.46875,-1.0625 -0.68411,-0.268264 -1.27596,-0.521953 -1.8125,-0.75 -0.53656,-0.228022 -0.99942,-0.499548 -1.375,-0.78125 -0.37559,-0.281676 -0.64926,-0.606564 -0.84375,-0.96875 -0.19451,-0.362158 -0.31251,-0.807183 -0.3125,-1.34375 -1e-5,-0.429226 0.11799,-0.800768 0.3125,-1.15625 0.19449,-0.355449 0.45703,-0.682621 0.8125,-0.9375 0.35546,-0.254844 0.78493,-0.452887 1.28125,-0.59375 0.4963,-0.140827 1.03921,-0.187482 1.65625,-0.1875 1.97181,1.8e-5 3.73423,0.476147 5.25,1.46875 l 0,-3.34375 c -1.40846,-0.617014 -2.99723,-0.906229 -4.78125,-0.90625 z m 68.3125,0 c -3.21932,2.1e-5 -5.76491,0.961269 -7.65625,2.90625 -1.89135,1.945018 -2.84375,4.664252 -2.84375,8.125 0,3.179078 0.93243,5.731374 2.75,7.65625 1.81756,1.924881 4.23631,2.875 7.28125,2.875 3.1254,0 5.61092,-0.990214 7.46875,-2.96875 1.85779,-1.978531 2.78123,-4.619861 2.78125,-7.90625 -2e-5,-3.353437 -0.83885,-5.952387 -2.5625,-7.84375 -1.72369,-1.891326 -4.147,-2.843729 -7.21875,-2.84375 z m 23.125,0 c -2.95105,2.1e-5 -5.22526,1.303992 -6.78125,3.90625 l -0.0625,0 0,-3.4375 -3.3125,0 0,20.625 3.3125,0 0,-11.75 c -10e-6,-1.891333 0.54518,-3.477958 1.625,-4.71875 1.0798,-1.240759 2.44384,-1.843732 4.09375,-1.84375 3.19247,1.8e-5 4.78123,2.189616 4.78125,6.5625 l 0,11.75 3.28125,0 0,-12.625 c -2e-5,-2.749814 -0.58744,-4.825835 -1.78125,-6.28125 -1.19385,-1.455377 -2.90275,-2.187479 -5.15625,-2.1875 z m 19.1875,0 c -2.69618,2.1e-5 -4.96369,1.012493 -6.78125,3.03125 -1.81757,2.018793 -2.71875,4.606615 -2.71875,7.8125 0,3.393699 0.83669,6.035029 2.5,7.90625 1.66331,1.871226 3.93295,2.8125 6.84375,2.8125 2.97785,0 5.37662,-0.654197 7.1875,-1.96875 l 0,-3.09375 c -1.94502,1.529177 -4.05443,2.281252 -6.375,2.28125 -2.06574,2e-6 -3.69459,-0.627513 -4.875,-1.875 -1.18042,-1.247478 -1.82135,-3.018732 -1.875,-5.3125 l 14.5625,0 0,-1.71875 c -2e-5,-3.098574 -0.74325,-5.537439 -2.21875,-7.28125 -1.47553,-1.743774 -3.55384,-2.593729 -6.25,-2.59375 z M 93.75,15.40625 l 0,20.625 3.3125,0 0,-20.625 z m 70.0625,0 6.21875,20.625 3.3125,0 4.59375,-14.8125 c 0.24143,-0.764571 0.39724,-1.392087 0.4375,-1.875 l 0.0625,0 c 0.0536,0.710947 0.18277,1.374136 0.34375,1.9375 l 4.21875,14.75 3.4375,0 6.1875,-20.625 -3.28125,0 -4.1875,15.53125 c -0.20123,0.710935 -0.31694,1.351866 -0.34375,1.875 l -0.15625,0 c -0.0671,-0.737755 -0.14713,-1.378685 -0.28125,-1.875 l -4.28125,-15.53125 -3,0 -4.75,15.46875 c -0.20122,0.670694 -0.33477,1.284797 -0.375,1.875 l -0.15625,0 c -0.0537,-0.764582 -0.14712,-1.374263 -0.28125,-1.84375 l -4.28125,-15.5 z m -32.71875,2.3125 c 1.69012,1.8e-5 3.08756,0.565182 4.1875,1.71875 1.09991,1.153602 1.65623,2.555454 1.65625,4.21875 l 0,3.03125 c -2e-5,2.02549 -0.57189,3.70329 -1.71875,5.03125 -1.14689,1.327968 -2.66233,2.000002 -4.5,2 -1.86452,2e-6 -3.33087,-0.687583 -4.4375,-2.0625 -1.10664,-1.374908 -1.65626,-3.250751 -1.65625,-5.625 -1e-5,-2.602263 0.56516,-4.649468 1.71875,-6.125 1.15358,-1.4755 2.73793,-2.187482 4.75,-2.1875 z m 22.5,0 c 2.13277,1.8e-5 3.75936,0.698733 4.90625,2.09375 1.14686,1.395049 1.71873,3.362065 1.71875,5.9375 -2e-5,2.548628 -0.57189,4.524635 -1.71875,5.90625 -1.14689,1.381624 -2.77348,2.062502 -4.90625,2.0625 -2.09256,2e-6 -3.78378,-0.685299 -5.03125,-2.09375 -1.24749,-1.408442 -1.87501,-3.339932 -1.875,-5.78125 -1e-5,-2.535194 0.64093,-4.526753 1.875,-5.96875 1.23406,-1.441965 2.91187,-2.156232 5.03125,-2.15625 z m 115.40625,0 c 2.13278,1.8e-5 3.75935,0.698732 4.90625,2.09375 1.14686,1.39505 1.71873,3.362063 1.71875,5.9375 -2e-5,2.54863 -0.57189,4.524634 -1.71875,5.90625 -1.1469,1.381625 -2.77347,2.062502 -4.90625,2.0625 -2.09256,2e-6 -3.78377,-0.685298 -5.03125,-2.09375 -1.24749,-1.408444 -1.87501,-3.33993 -1.875,-5.78125 -10e-6,-2.535196 0.64092,-4.526751 1.875,-5.96875 1.23406,-1.441966 2.91186,-2.156232 5.03125,-2.15625 z m 41.90625,0 c 0.18717,-0.0174 0.368,2e-6 0.5625,0 1.60964,1.8e-5 2.8758,0.502827 3.78125,1.5625 0.90542,1.059706 1.36157,2.564004 1.375,4.46875 l -11.125,0 c 0.25486,-1.797436 0.91348,-3.261639 2,-4.375 0.9507,-0.974162 2.09609,-1.534466 3.40625,-1.65625 z"
     id="text3124"
     inkscape:connector-curvature="0"
     sodipodi:nodetypes="ccccsssscccccccccsscsccscccccccscccccccccccccccccccccccccccccccccssccsccscsscccccccccsscsccsccccssssccccccssccccccccsccsssccccccccccsccccccccssssccccccccccsscsccscccssssccssccsccscccccsccccccccccccccccccccsscssssscccccsssscccccsssscsccscsscss" />
</svg>
