<?xml version="1.0" encoding="UTF-8" standalone="no"?>
<!-- Created with Inkscape (http://www.inkscape.org/) -->

<svg
   xmlns:dc="http://purl.org/dc/elements/1.1/"
   xmlns:cc="http://creativecommons.org/ns#"
   xmlns:rdf="http://www.w3.org/1999/02/22-rdf-syntax-ns#"
   xmlns:svg="http://www.w3.org/2000/svg"
   xmlns="http://www.w3.org/2000/svg"
   xmlns:xlink="http://www.w3.org/1999/xlink"
   xmlns:sodipodi="http://sodipodi.sourceforge.net/DTD/sodipodi-0.dtd"
   xmlns:inkscape="http://www.inkscape.org/namespaces/inkscape"
   width="76.595238"
   height="95.095154"
   id="svg2"
   sodipodi:version="0.32"
   inkscape:version="0.48.4 r9939"
   sodipodi:docname="wireless_2_alerta.svg"
   inkscape:output_extension="org.inkscape.output.svg.inkscape"
   version="1.0">
  <defs
     id="defs4">
    <inkscape:perspective
       sodipodi:type="inkscape:persp3d"
       inkscape:vp_x="0 : 24 : 1"
       inkscape:vp_y="0 : 1000 : 0"
       inkscape:vp_z="48 : 24 : 1"
       inkscape:persp3d-origin="24 : 16 : 1"
       id="perspective2451" />
    <linearGradient
       inkscape:collect="always"
       xlink:href="#linearGradient2555"
       id="linearGradient2026"
       gradientUnits="userSpaceOnUse"
       gradientTransform="matrix(-0.657176,0,0,0.657176,-16.96567,114.6286)"
       x1="-344.15295"
       y1="274.711"
       x2="-395.84943"
       y2="425.39993" />
    <linearGradient
       inkscape:collect="always"
       id="linearGradient2555">
      <stop
         style="stop-color:#ffffff;stop-opacity:1;"
         offset="0"
         id="stop2557" />
      <stop
         style="stop-color:#ffffff;stop-opacity:0;"
         offset="1"
         id="stop2559" />
    </linearGradient>
    <linearGradient
       y2="425.39993"
       x2="-395.84943"
       y1="274.711"
       x1="-344.15295"
       gradientTransform="matrix(-0.657176,0,0,0.657176,-16.96567,114.6286)"
       gradientUnits="userSpaceOnUse"
       id="linearGradient3937"
       xlink:href="#linearGradient2555"
       inkscape:collect="always" />
  </defs>
  <sodipodi:namedview
     id="base"
     pagecolor="#ffffff"
     bordercolor="#666666"
     borderopacity="1.0"
     gridtolerance="10000"
     guidetolerance="10000"
     objecttolerance="10000"
     inkscape:pageopacity="0.0"
     inkscape:pageshadow="2"
     inkscape:zoom="5.6"
     inkscape:cx="18.611072"
     inkscape:cy="47.136029"
     inkscape:document-units="px"
     inkscape:current-layer="layer1"
     showgrid="true"
     inkscape:object-bbox="true"
     inkscape:object-points="true"
     inkscape:object-nodes="true"
     inkscape:grid-points="true"
     inkscape:guide-points="true"
     inkscape:window-width="1148"
     inkscape:window-height="814"
     inkscape:window-x="0"
     inkscape:window-y="14"
     width="48px"
     height="48px"
     inkscape:window-maximized="0" />
  <g
     inkscape:label="Layer 1"
     inkscape:groupmode="layer"
     id="layer1"
     transform="translate(14.751118,23.303842)">
    <g
       id="g3228">
      <g
         style="stroke:#000000;stroke-width:2.93217063;stroke-miterlimit:4;stroke-dasharray:none;stroke-opacity:1"
         transform="matrix(0.7502974,0,0,0.7502974,-239.05757,-309.21301)"
         id="g5114">
        <path
           style="opacity:1;fill:none;fill-opacity:1;fill-rule:evenodd;stroke:#000000;stroke-width:2.93217063;stroke-linecap:round;stroke-linejoin:round;stroke-miterlimit:4;stroke-dasharray:none;stroke-dashoffset:5;stroke-opacity:1"
           d="M 335.96898,451.5699 C 326.75404,446.57609 320.49181,436.81905 320.49181,425.60827 C 320.49182,414.75498 326.36103,405.26419 335.09656,400.13879"
           id="path5112" />
        <path
           style="opacity:1;fill:none;fill-opacity:1;fill-rule:evenodd;stroke:#000000;stroke-width:2.93217063;stroke-linecap:round;stroke-linejoin:round;stroke-miterlimit:4;stroke-dasharray:none;stroke-dashoffset:5;stroke-opacity:1"
           d="M 365.4672,400.47806 C 373.89057,405.6761 379.50821,414.99014 379.50821,425.60827 L 379.50822,425.60828 C 379.50821,436.5839 373.50594,446.16614 364.60697,451.24941"
           id="path5107" />
      </g>
      <use
         height="1052.3622"
         width="744.09448"
         transform="matrix(1.32,0,0,1.32,-7.5348911,-3.2974101)"
         id="use5733"
         xlink:href="#g5114"
         y="0"
         x="0" />
      <use
         height="1052.3622"
         width="744.09448"
         transform="matrix(1.6479232,0,0,1.6479232,-15.256374,-6.6764354)"
         id="use5735"
         xlink:href="#g5114"
         y="0"
         x="0" />
      <path
         id="path5737"
         d="M 23.915518,9.767517 L 23.915518,69.791309"
         style="fill:none;fill-rule:evenodd;stroke:#000000;stroke-width:4;stroke-linecap:round;stroke-linejoin:miter;stroke-miterlimit:4;stroke-dasharray:none;stroke-opacity:1" />
      <path
         transform="matrix(0.7502974,0,0,0.7502974,-255.57027,-312.75697)"
         d="M 380,429.86218 A 7.5,7.5 0 1 1 365,429.86218 A 7.5,7.5 0 1 1 380,429.86218 z"
         sodipodi:ry="7.5"
         sodipodi:rx="7.5"
         sodipodi:cy="429.86218"
         sodipodi:cx="372.5"
         id="path5739"
         style="fill:#000000;fill-opacity:1;fill-rule:evenodd;stroke:none;stroke-width:2;stroke-linecap:round;stroke-linejoin:round;stroke-miterlimit:4;stroke-dasharray:none;stroke-dashoffset:5;stroke-opacity:1"
         sodipodi:type="arc" />
    </g>
    <g
       transform="matrix(0.21108456,0,0,0.21108456,-13.594708,-40.759106)"
       id="g2071">
      <rect
         inkscape:export-ydpi="7.7063322"
         inkscape:export-xdpi="7.7063322"
         inkscape:export-filename="C:\Documents and Settings\Molumen\Desktop\path3511111.png"
         transform="scale(-1,1)"
         ry="39.430557"
         rx="39.430557"
         y="318.34387"
         x="-318.76086"
         height="144.63728"
         width="145.8244"
         id="rect3417"
         style="fill:#f00a10;fill-opacity:1;fill-rule:evenodd;stroke:none" />
      <g
         inkscape:export-ydpi="7.7063322"
         inkscape:export-xdpi="7.7063322"
         inkscape:export-filename="C:\Documents and Settings\Molumen\Desktop\path3511111.png"
         transform="matrix(0.657176,0,0,0.657176,-102.644,-95.3871)"
         id="g3479">
        <path
           inkscape:connector-curvature="0"
           id="path3419"
           d="m 554.12665,739.60331 35.77776,-35.77776 c 3.74808,-3.74826 5.62215,-7.89395 5.62222,-12.43703 -0.22723,-4.08899 -2.10129,-7.89392 -5.62222,-11.41481 -3.18031,-3.18034 -6.92845,-4.99762 -11.24444,-5.45184 -4.42968,-0.34085 -8.63213,1.47644 -12.6074,5.45184 l -35.77776,35.77776 -35.77776,-35.77776 c -3.63453,-3.63467 -7.72341,-5.45195 -12.26667,-5.45184 -4.42957,0.34063 -8.29129,2.15791 -11.58517,5.45185 -2.83945,2.83938 -4.48636,6.53074 -4.94075,11.07406 -0.45425,4.77025 1.19267,9.0295 4.94075,12.77778 l 35.77775,35.77776 -35.77775,35.77775 c -3.18019,3.18005 -4.94067,7.32572 -5.28149,12.43705 0.34082,4.42939 2.1013,8.23433 5.28149,11.41479 2.95313,2.95287 6.70128,4.77014 11.24444,5.45186 4.42967,0.34051 8.63212,-1.47677 12.6074,-5.45186 l 35.77775,-35.77775 35.77777,35.77776 c 3.7481,3.74791 7.89378,5.39483 12.43703,4.94073 4.65673,-0.34096 8.46167,-1.98788 11.41481,-4.94073 2.72586,-2.72615 4.37277,-6.4175 4.94073,-11.07407 0.68142,-4.54342 -0.96549,-8.80267 -4.94073,-12.77778 l -35.77776,-35.77776"
           style="font-size:454.95709229px;font-style:normal;font-variant:normal;font-weight:normal;font-stretch:normal;line-height:100%;writing-mode:lr-tb;text-anchor:start;fill:#cb1e0e;fill-opacity:1;stroke:none;font-family:GOST type B" />
        <path
           inkscape:connector-curvature="0"
           style="font-size:454.95709229px;font-style:normal;font-variant:normal;font-weight:normal;font-stretch:normal;line-height:100%;writing-mode:lr-tb;text-anchor:start;fill:#ffffff;fill-opacity:1;stroke:none;font-family:GOST type B"
           d="m 552.27953,739.60331 32.98715,-32.98715 c 3.45573,-3.4559 5.18363,-7.27823 5.18369,-11.46696 -0.2095,-3.77006 -1.93739,-7.27821 -5.18369,-10.52447 -2.93225,-2.93228 -6.38804,-4.60782 -10.36739,-5.02661 -4.08417,-0.31426 -7.95884,1.36128 -11.62404,5.02661 l -32.98715,32.98715 -32.98715,-32.98715 c -3.35104,-3.35117 -7.121,-5.02671 -11.30989,-5.02661 -4.08407,0.31406 -7.64458,1.9896 -10.68154,5.02662 -2.61798,2.61791 -4.13643,6.02135 -4.55538,10.2103 -0.41882,4.39817 1.09964,8.32521 4.55538,11.78113 l 32.98714,32.98715 -32.98714,32.98714 c -2.93214,2.93201 -4.55531,6.75432 -4.86954,11.46697 0.31423,4.08391 1.9374,7.59207 4.86954,10.52446 2.72279,2.72255 6.17859,4.39807 10.36739,5.02662 4.08416,0.31395 7.95883,-1.36158 11.62404,-5.02662 l 32.98714,-32.98714 32.98716,32.98715 c 3.45575,3.45558 7.27807,4.97404 11.46696,4.55536 4.29351,-0.31437 7.80167,-1.83283 10.52447,-4.55536 2.51325,-2.51352 4.0317,-5.91695 4.55536,-10.21031 0.62827,-4.18904 -0.89018,-8.11608 -4.55536,-11.78113 l -32.98715,-32.98715"
           id="path3421" />
      </g>
      <path
         inkscape:connector-curvature="0"
         inkscape:export-ydpi="7.7063322"
         inkscape:export-xdpi="7.7063322"
         inkscape:export-filename="C:\Documents and Settings\Molumen\Desktop\path3511111.png"
         sodipodi:nodetypes="ccccsssc"
         id="path3423"
         d="m 280.23405,324.52719 -68.77064,0 c -18.20378,0 -32.8588,14.65502 -32.8588,32.85879 l 0,66.55294 c 0.58922,14.20959 2.85575,5.22659 7.16998,-10.50956 5.01405,-18.28861 21.34331,-34.27311 41.22946,-46.25257 15.17845,-9.14349 32.16783,-14.98217 63.09303,-15.53761 17.53858,-0.31499 15.99021,-22.57853 -9.86303,-27.11199 z"
         style="fill:url(#linearGradient3937);fill-opacity:1;fill-rule:evenodd;stroke:none" />
    </g>
  </g>
  <metadata
     id="metadata15">
    <rdf:RDF>
      <cc:Work>
        <dc:format>image/svg+xml</dc:format>
        <dc:type
           rdf:resource="http://purl.org/dc/dcmitype/StillImage" />
        <cc:license
           rdf:resource="http://creativecommons.org/licenses/publicdomain/" />
        <dc:publisher>
          <cc:Agent
             rdf:about="http://openclipart.org/">
            <dc:title>Open Clip Art Library</dc:title>
          </cc:Agent>
        </dc:publisher>
        <dc:title></dc:title>
        <dc:date>2008-03-08T19:15:09</dc:date>
        <dc:description>Wireless symobol for creating network schmatic</dc:description>
        <dc:source>http://openclipart.org/detail/17423/wireless/wifi-symbol-by-ispyisail-17423</dc:source>
        <dc:creator>
          <cc:Agent>
            <dc:title>ispyisail</dc:title>
          </cc:Agent>
        </dc:creator>
        <dc:subject>
          <rdf:Bag>
            <rdf:li>access point</rdf:li>
            <rdf:li>access point</rdf:li>
            <rdf:li>clip art</rdf:li>
            <rdf:li>clipart</rdf:li>
            <rdf:li>icon</rdf:li>
            <rdf:li>icon</rdf:li>
            <rdf:li>image</rdf:li>
            <rdf:li>media</rdf:li>
            <rdf:li>network</rdf:li>
            <rdf:li>network</rdf:li>
            <rdf:li>png</rdf:li>
            <rdf:li>public domain</rdf:li>
            <rdf:li>router</rdf:li>
            <rdf:li>router</rdf:li>
            <rdf:li>svg</rdf:li>
            <rdf:li>wifi</rdf:li>
            <rdf:li>wifi</rdf:li>
            <rdf:li>wireless</rdf:li>
            <rdf:li>wireless</rdf:li>
          </rdf:Bag>
        </dc:subject>
      </cc:Work>
      <cc:License
         rdf:about="http://creativecommons.org/licenses/publicdomain/">
        <cc:permits
           rdf:resource="http://creativecommons.org/ns#Reproduction" />
        <cc:permits
           rdf:resource="http://creativecommons.org/ns#Distribution" />
        <cc:permits
           rdf:resource="http://creativecommons.org/ns#DerivativeWorks" />
      </cc:License>
    </rdf:RDF>
  </metadata>
</svg>
