<?xml version="1.0" encoding="UTF-8" standalone="no"?>
<!-- Created with Inkscape (http://www.inkscape.org/) -->

<svg
   xmlns:dc="http://purl.org/dc/elements/1.1/"
   xmlns:cc="http://creativecommons.org/ns#"
   xmlns:rdf="http://www.w3.org/1999/02/22-rdf-syntax-ns#"
   xmlns:svg="http://www.w3.org/2000/svg"
   xmlns="http://www.w3.org/2000/svg"
   xmlns:xlink="http://www.w3.org/1999/xlink"
   xmlns:sodipodi="http://sodipodi.sourceforge.net/DTD/sodipodi-0.dtd"
   xmlns:inkscape="http://www.inkscape.org/namespaces/inkscape"
   width="103.21438"
   height="97.9375"
   id="svg7088"
   version="1.1"
   inkscape:version="0.48.4 r9939"
   sodipodi:docname="wireless_3_alerta.svg">
  <defs
     id="defs7090">
    <linearGradient
       id="SVGID_1_"
       gradientUnits="userSpaceOnUse"
       x1="306"
       y1="-333"
       x2="306"
       y2="-373"
       gradientTransform="matrix(1,0,0,-1,-285,-332)">
      <stop
         offset="0"
         style="stop-color:#5DF24F"
         id="stop7" />
      <stop
         offset="1"
         style="stop-color:#2A9C06"
         id="stop9" />
    </linearGradient>
    <linearGradient
       inkscape:collect="always"
       xlink:href="#linearGradient2555"
       id="linearGradient2026"
       gradientUnits="userSpaceOnUse"
       gradientTransform="matrix(-0.657176,0,0,0.657176,-16.96567,114.6286)"
       x1="-344.15295"
       y1="274.711"
       x2="-395.84943"
       y2="425.39993" />
    <linearGradient
       inkscape:collect="always"
       id="linearGradient2555">
      <stop
         style="stop-color:#ffffff;stop-opacity:1;"
         offset="0"
         id="stop2557" />
      <stop
         style="stop-color:#ffffff;stop-opacity:0;"
         offset="1"
         id="stop2559" />
    </linearGradient>
    <linearGradient
       y2="425.39993"
       x2="-395.84943"
       y1="274.711"
       x1="-344.15295"
       gradientTransform="matrix(-0.657176,0,0,0.657176,-16.96567,114.6286)"
       gradientUnits="userSpaceOnUse"
       id="linearGradient3959"
       xlink:href="#linearGradient2555"
       inkscape:collect="always" />
  </defs>
  <sodipodi:namedview
     id="base"
     pagecolor="#ffffff"
     bordercolor="#666666"
     borderopacity="1.0"
     inkscape:pageopacity="0.0"
     inkscape:pageshadow="2"
     inkscape:zoom="3.959798"
     inkscape:cx="73.066474"
     inkscape:cy="63.880315"
     inkscape:document-units="px"
     inkscape:current-layer="layer1"
     showgrid="false"
     fit-margin-top="0"
     fit-margin-left="0"
     fit-margin-right="0"
     fit-margin-bottom="0"
     inkscape:window-width="1600"
     inkscape:window-height="838"
     inkscape:window-x="-8"
     inkscape:window-y="-8"
     inkscape:window-maximized="1" />
  <g
     inkscape:label="Calque 1"
     inkscape:groupmode="layer"
     id="layer1"
     transform="translate(-465.53438,-494.40625)">
    <path
       inkscape:connector-curvature="0"
       id="path516"
       d="m 540.89197,551.91575 0,0 c 1.71375,-7.25585 0.01,-14.89745 -4.61915,-20.74217 -4.6289,-5.84963 -11.6748,-9.25783 -19.13085,-9.25783 -7.45608,0 -14.50198,3.4082 -19.13088,9.25783 -4.6289,5.84472 -6.32812,13.48632 -4.61912,20.74217"
       style="fill:none;stroke:#ba0000;stroke-width:5;stroke-linecap:butt;stroke-linejoin:round;stroke-miterlimit:10;stroke-opacity:1" />
    <path
       inkscape:connector-curvature="0"
       id="path518"
       d="m 565.89196,551.91575 0,0 c 1.6895,-13.9502 -2.68067,-27.9541 -12.00197,-38.4668 -9.32127,-10.5127 -22.6953,-16.5332 -36.74802,-16.5332 -14.04785,0 -27.42678,6.0205 -36.74805,16.5332 -9.31643,10.5127 -13.68653,24.5166 -12.00195,38.4668"
       style="fill:none;stroke:#ba0000;stroke-width:5;stroke-linecap:butt;stroke-linejoin:round;stroke-miterlimit:10;stroke-opacity:1" />
    <path
       inkscape:connector-curvature="0"
       id="path520"
       d="m 503.39197,591.91575 13.75,-46.25 16.25,46.25"
       style="fill:none;stroke:#000000;stroke-width:2.5;stroke-linecap:butt;stroke-linejoin:miter;stroke-miterlimit:10;stroke-opacity:1" />
    <path
       inkscape:connector-curvature="0"
       id="path522"
       d="m 523.39197,545.66575 c 0,8.33495 -12.5,8.33495 -12.5,0 0,-8.33495 12.5,-8.33495 12.5,0"
       style="fill:#ba0000;fill-opacity:1;fill-rule:evenodd;stroke:#ba0000;stroke-width:2.5;stroke-linecap:butt;stroke-linejoin:miter;stroke-miterlimit:10;stroke-opacity:1" />
    <path
       inkscape:connector-curvature="0"
       id="path524"
       d="m 513.39197,561.91575 10,2.5 -12.5,7.5 15,5 -20,10 25,0"
       style="fill:none;stroke:#000000;stroke-width:1.25;stroke-linecap:butt;stroke-linejoin:miter;stroke-miterlimit:10;stroke-opacity:1" />
    <g
       transform="matrix(0.32032469,0,0,0.32032469,461.87834,437.91048)"
       id="g2071">
      <rect
         inkscape:export-ydpi="7.7063322"
         inkscape:export-xdpi="7.7063322"
         inkscape:export-filename="C:\Documents and Settings\Molumen\Desktop\path3511111.png"
         transform="scale(-1,1)"
         ry="39.430557"
         rx="39.430557"
         y="318.34387"
         x="-318.76086"
         height="144.63728"
         width="145.8244"
         id="rect3417"
         style="fill:#f00a10;fill-opacity:1;fill-rule:evenodd;stroke:none" />
      <g
         inkscape:export-ydpi="7.7063322"
         inkscape:export-xdpi="7.7063322"
         inkscape:export-filename="C:\Documents and Settings\Molumen\Desktop\path3511111.png"
         transform="matrix(0.657176,0,0,0.657176,-102.644,-95.3871)"
         id="g3479">
        <path
           inkscape:connector-curvature="0"
           id="path3419"
           d="m 554.12665,739.60331 35.77776,-35.77776 c 3.74808,-3.74826 5.62215,-7.89395 5.62222,-12.43703 -0.22723,-4.08899 -2.10129,-7.89392 -5.62222,-11.41481 -3.18031,-3.18034 -6.92845,-4.99762 -11.24444,-5.45184 -4.42968,-0.34085 -8.63213,1.47644 -12.6074,5.45184 l -35.77776,35.77776 -35.77776,-35.77776 c -3.63453,-3.63467 -7.72341,-5.45195 -12.26667,-5.45184 -4.42957,0.34063 -8.29129,2.15791 -11.58517,5.45185 -2.83945,2.83938 -4.48636,6.53074 -4.94075,11.07406 -0.45425,4.77025 1.19267,9.0295 4.94075,12.77778 l 35.77775,35.77776 -35.77775,35.77775 c -3.18019,3.18005 -4.94067,7.32572 -5.28149,12.43705 0.34082,4.42939 2.1013,8.23433 5.28149,11.41479 2.95313,2.95287 6.70128,4.77014 11.24444,5.45186 4.42967,0.34051 8.63212,-1.47677 12.6074,-5.45186 l 35.77775,-35.77775 35.77777,35.77776 c 3.7481,3.74791 7.89378,5.39483 12.43703,4.94073 4.65673,-0.34096 8.46167,-1.98788 11.41481,-4.94073 2.72586,-2.72615 4.37277,-6.4175 4.94073,-11.07407 0.68142,-4.54342 -0.96549,-8.80267 -4.94073,-12.77778 l -35.77776,-35.77776"
           style="font-size:454.95709229px;font-style:normal;font-variant:normal;font-weight:normal;font-stretch:normal;line-height:100%;writing-mode:lr-tb;text-anchor:start;fill:#cb1e0e;fill-opacity:1;stroke:none;font-family:GOST type B" />
        <path
           inkscape:connector-curvature="0"
           style="font-size:454.95709229px;font-style:normal;font-variant:normal;font-weight:normal;font-stretch:normal;line-height:100%;writing-mode:lr-tb;text-anchor:start;fill:#ffffff;fill-opacity:1;stroke:none;font-family:GOST type B"
           d="m 552.27953,739.60331 32.98715,-32.98715 c 3.45573,-3.4559 5.18363,-7.27823 5.18369,-11.46696 -0.2095,-3.77006 -1.93739,-7.27821 -5.18369,-10.52447 -2.93225,-2.93228 -6.38804,-4.60782 -10.36739,-5.02661 -4.08417,-0.31426 -7.95884,1.36128 -11.62404,5.02661 l -32.98715,32.98715 -32.98715,-32.98715 c -3.35104,-3.35117 -7.121,-5.02671 -11.30989,-5.02661 -4.08407,0.31406 -7.64458,1.9896 -10.68154,5.02662 -2.61798,2.61791 -4.13643,6.02135 -4.55538,10.2103 -0.41882,4.39817 1.09964,8.32521 4.55538,11.78113 l 32.98714,32.98715 -32.98714,32.98714 c -2.93214,2.93201 -4.55531,6.75432 -4.86954,11.46697 0.31423,4.08391 1.9374,7.59207 4.86954,10.52446 2.72279,2.72255 6.17859,4.39807 10.36739,5.02662 4.08416,0.31395 7.95883,-1.36158 11.62404,-5.02662 l 32.98714,-32.98714 32.98716,32.98715 c 3.45575,3.45558 7.27807,4.97404 11.46696,4.55536 4.29351,-0.31437 7.80167,-1.83283 10.52447,-4.55536 2.51325,-2.51352 4.0317,-5.91695 4.55536,-10.21031 0.62827,-4.18904 -0.89018,-8.11608 -4.55536,-11.78113 l -32.98715,-32.98715"
           id="path3421" />
      </g>
      <path
         inkscape:connector-curvature="0"
         inkscape:export-ydpi="7.7063322"
         inkscape:export-xdpi="7.7063322"
         inkscape:export-filename="C:\Documents and Settings\Molumen\Desktop\path3511111.png"
         sodipodi:nodetypes="ccccsssc"
         id="path3423"
         d="m 280.23405,324.52719 -68.77064,0 c -18.20378,0 -32.8588,14.65502 -32.8588,32.85879 l 0,66.55294 c 0.58922,14.20959 2.85575,5.22659 7.16998,-10.50956 5.01405,-18.28861 21.34331,-34.27311 41.22946,-46.25257 15.17845,-9.14349 32.16783,-14.98217 63.09303,-15.53761 17.53858,-0.31499 15.99021,-22.57853 -9.86303,-27.11199 z"
         style="fill:url(#linearGradient3959);fill-opacity:1;fill-rule:evenodd;stroke:none" />
    </g>
  </g>
  <metadata
     id="metadata11">
    <rdf:RDF>
      <cc:Work>
        <dc:format>image/svg+xml</dc:format>
        <dc:type
           rdf:resource="http://purl.org/dc/dcmitype/StillImage" />
        <cc:license
           rdf:resource="http://creativecommons.org/licenses/publicdomain/" />
        <dc:publisher>
          <cc:Agent
             rdf:about="http://openclipart.org/">
            <dc:title>Open Clip Art Library</dc:title>
          </cc:Agent>
        </dc:publisher>
        <dc:title></dc:title>
        <dc:date>2012-08-02T14:25:28</dc:date>
        <dc:description />
        <dc:source>http://openclipart.org/detail/171418/wireless-by-cyberscooty-171418</dc:source>
        <dc:creator>
          <cc:Agent>
            <dc:title>cyberscooty</dc:title>
          </cc:Agent>
        </dc:creator>
        <dc:subject>
          <rdf:Bag>
            <rdf:li>clip art</rdf:li>
            <rdf:li>clipart</rdf:li>
            <rdf:li>computer</rdf:li>
            <rdf:li>informatique</rdf:li>
            <rdf:li>it</rdf:li>
            <rdf:li>network</rdf:li>
            <rdf:li>ordinateur</rdf:li>
            <rdf:li>réseau</rdf:li>
            <rdf:li>server</rdf:li>
            <rdf:li>serveur</rdf:li>
            <rdf:li>wireless</rdf:li>
          </rdf:Bag>
        </dc:subject>
      </cc:Work>
      <cc:License
         rdf:about="http://creativecommons.org/licenses/publicdomain/">
        <cc:permits
           rdf:resource="http://creativecommons.org/ns#Reproduction" />
        <cc:permits
           rdf:resource="http://creativecommons.org/ns#Distribution" />
        <cc:permits
           rdf:resource="http://creativecommons.org/ns#DerivativeWorks" />
      </cc:License>
    </rdf:RDF>
  </metadata>
</svg>
