<?xml version="1.0" encoding="UTF-8" standalone="no"?>
<!-- Created with Inkscape (http://www.inkscape.org/) -->

<svg
   xmlns:dc="http://purl.org/dc/elements/1.1/"
   xmlns:cc="http://creativecommons.org/ns#"
   xmlns:rdf="http://www.w3.org/1999/02/22-rdf-syntax-ns#"
   xmlns:svg="http://www.w3.org/2000/svg"
   xmlns="http://www.w3.org/2000/svg"
   xmlns:xlink="http://www.w3.org/1999/xlink"
   xmlns:sodipodi="http://sodipodi.sourceforge.net/DTD/sodipodi-0.dtd"
   xmlns:inkscape="http://www.inkscape.org/namespaces/inkscape"
   width="76.595238"
   height="95.095154"
   id="svg2"
   sodipodi:version="0.32"
   inkscape:version="0.48.4 r9939"
   sodipodi:docname="wireless_2.svg"
   inkscape:output_extension="org.inkscape.output.svg.inkscape"
   version="1.0">
  <defs
     id="defs4">
    <inkscape:perspective
       sodipodi:type="inkscape:persp3d"
       inkscape:vp_x="0 : 24 : 1"
       inkscape:vp_y="0 : 1000 : 0"
       inkscape:vp_z="48 : 24 : 1"
       inkscape:persp3d-origin="24 : 16 : 1"
       id="perspective2451" />
    <linearGradient
       id="SVGID_1_"
       gradientUnits="userSpaceOnUse"
       x1="306"
       y1="-333"
       x2="306"
       y2="-373"
       gradientTransform="matrix(1,0,0,-1,-285,-332)">
      <stop
         offset="0"
         style="stop-color:#5DF24F"
         id="stop7" />
      <stop
         offset="1"
         style="stop-color:#2A9C06"
         id="stop9" />
    </linearGradient>
  </defs>
  <sodipodi:namedview
     id="base"
     pagecolor="#ffffff"
     bordercolor="#666666"
     borderopacity="1.0"
     gridtolerance="10000"
     guidetolerance="10000"
     objecttolerance="10000"
     inkscape:pageopacity="0.0"
     inkscape:pageshadow="2"
     inkscape:zoom="5.6"
     inkscape:cx="18.611072"
     inkscape:cy="47.136029"
     inkscape:document-units="px"
     inkscape:current-layer="layer1"
     showgrid="true"
     inkscape:object-bbox="true"
     inkscape:object-points="true"
     inkscape:object-nodes="true"
     inkscape:grid-points="true"
     inkscape:guide-points="true"
     inkscape:window-width="1148"
     inkscape:window-height="814"
     inkscape:window-x="0"
     inkscape:window-y="14"
     width="48px"
     height="48px"
     inkscape:window-maximized="0" />
  <g
     inkscape:label="Layer 1"
     inkscape:groupmode="layer"
     id="layer1"
     transform="translate(14.751118,23.303842)">
    <g
       id="g3228">
      <g
         style="stroke:#000000;stroke-width:2.93217063;stroke-miterlimit:4;stroke-dasharray:none;stroke-opacity:1"
         transform="matrix(0.7502974,0,0,0.7502974,-239.05757,-309.21301)"
         id="g5114">
        <path
           style="opacity:1;fill:none;fill-opacity:1;fill-rule:evenodd;stroke:#000000;stroke-width:2.93217063;stroke-linecap:round;stroke-linejoin:round;stroke-miterlimit:4;stroke-dasharray:none;stroke-dashoffset:5;stroke-opacity:1"
           d="M 335.96898,451.5699 C 326.75404,446.57609 320.49181,436.81905 320.49181,425.60827 C 320.49182,414.75498 326.36103,405.26419 335.09656,400.13879"
           id="path5112" />
        <path
           style="opacity:1;fill:none;fill-opacity:1;fill-rule:evenodd;stroke:#000000;stroke-width:2.93217063;stroke-linecap:round;stroke-linejoin:round;stroke-miterlimit:4;stroke-dasharray:none;stroke-dashoffset:5;stroke-opacity:1"
           d="M 365.4672,400.47806 C 373.89057,405.6761 379.50821,414.99014 379.50821,425.60827 L 379.50822,425.60828 C 379.50821,436.5839 373.50594,446.16614 364.60697,451.24941"
           id="path5107" />
      </g>
      <use
         height="1052.3622"
         width="744.09448"
         transform="matrix(1.32,0,0,1.32,-7.5348911,-3.2974101)"
         id="use5733"
         xlink:href="#g5114"
         y="0"
         x="0" />
      <use
         height="1052.3622"
         width="744.09448"
         transform="matrix(1.6479232,0,0,1.6479232,-15.256374,-6.6764354)"
         id="use5735"
         xlink:href="#g5114"
         y="0"
         x="0" />
      <path
         id="path5737"
         d="M 23.915518,9.767517 L 23.915518,69.791309"
         style="fill:none;fill-rule:evenodd;stroke:#000000;stroke-width:4;stroke-linecap:round;stroke-linejoin:miter;stroke-miterlimit:4;stroke-dasharray:none;stroke-opacity:1" />
      <path
         transform="matrix(0.7502974,0,0,0.7502974,-255.57027,-312.75697)"
         d="m 380,429.86218 c 0,4.14214 -3.35786,7.5 -7.5,7.5 -4.14214,0 -7.5,-3.35786 -7.5,-7.5 0,-4.14213 3.35786,-7.5 7.5,-7.5 4.14214,0 7.5,3.35787 7.5,7.5 z"
         sodipodi:ry="7.5"
         sodipodi:rx="7.5"
         sodipodi:cy="429.86218"
         sodipodi:cx="372.5"
         id="path5739"
         style="fill:#000000;fill-opacity:1;fill-rule:evenodd;stroke:none;stroke-width:2;stroke-linecap:round;stroke-linejoin:round;stroke-miterlimit:4;stroke-dasharray:none;stroke-dashoffset:5;stroke-opacity:1"
         sodipodi:type="arc" />
    </g>
    <g
       transform="matrix(0.76785714,0,0,0.76785714,24.569801,22.123347)"
       id="Layer_2">
      <circle
         d="M 41,21 C 41,32.045695 32.045695,41 21,41 9.954305,41 1,32.045695 1,21 1,9.954305 9.954305,1 21,1 32.045695,1 41,9.954305 41,21 z"
         style="fill:#ffffff"
         sodipodi:ry="20"
         sodipodi:rx="20"
         sodipodi:cy="21"
         sodipodi:cx="21"
         cx="21"
         cy="21"
         r="20"
         id="circle4" />
      <linearGradient
         id="linearGradient4184"
         gradientUnits="userSpaceOnUse"
         x1="306"
         y1="-333"
         x2="306"
         y2="-373"
         gradientTransform="matrix(1,0,0,-1,-285,-332)">
        <stop
           offset="0"
           style="stop-color:#5DF24F"
           id="stop4186" />
        <stop
           offset="1"
           style="stop-color:#2A9C06"
           id="stop4188" />
      </linearGradient>
      <path
         style="fill:url(#SVGID_1_)"
         inkscape:connector-curvature="0"
         d="m 21,5 c 9.378,0 16,6.633 16,16 0,9.366 -6.622,16 -16,16 C 11.623,37 5,30.366 5,21 5,11.633 11.623,5 21,5 M 21,1 C 9.954,1 1,9.954 1,21 1,32.045 9.954,41 21,41 32.045,41 41,32.045 41,21 41,9.954 32.045,1 21,1 l 0,0 z"
         id="path11" />
      <path
         style="fill:#018700"
         inkscape:connector-curvature="0"
         d="m 12.593,22.904 c 0,0 0.845,-0.904 2.032,-1.904 1.187,-1 2.875,-2.563 2.875,-2.563 l 4.688,7.063 c 0,0 2.83,-6.455 6.563,-11.25 3.733,-4.795 5.625,-6.688 5.625,-6.688 0,0 0.281,3.031 0.345,5.406 0.063,2.375 -0.345,5.365 -0.345,5.365 0,0 -3.088,1.191 -6.125,5.083 -3.897,4.994 -5.688,8.708 -5.688,8.708 0,0 -1.563,-1.499 -4.313,-4.374 -2.75,-2.875 -5.657,-4.846 -5.657,-4.846 z"
         id="path13" />
    </g>
  </g>
  <metadata
     id="metadata15">
    <rdf:RDF>
      <cc:Work>
        <dc:format>image/svg+xml</dc:format>
        <dc:type
           rdf:resource="http://purl.org/dc/dcmitype/StillImage" />
        <cc:license
           rdf:resource="http://creativecommons.org/licenses/publicdomain/" />
        <dc:publisher>
          <cc:Agent
             rdf:about="http://openclipart.org/">
            <dc:title>Open Clip Art Library</dc:title>
          </cc:Agent>
        </dc:publisher>
        <dc:title></dc:title>
        <dc:date>2008-03-08T19:15:09</dc:date>
        <dc:description>Wireless symobol for creating network schmatic</dc:description>
        <dc:source>http://openclipart.org/detail/17423/wireless/wifi-symbol-by-ispyisail-17423</dc:source>
        <dc:creator>
          <cc:Agent>
            <dc:title>ispyisail</dc:title>
          </cc:Agent>
        </dc:creator>
        <dc:subject>
          <rdf:Bag>
            <rdf:li>access point</rdf:li>
            <rdf:li>access point</rdf:li>
            <rdf:li>clip art</rdf:li>
            <rdf:li>clipart</rdf:li>
            <rdf:li>icon</rdf:li>
            <rdf:li>icon</rdf:li>
            <rdf:li>image</rdf:li>
            <rdf:li>media</rdf:li>
            <rdf:li>network</rdf:li>
            <rdf:li>network</rdf:li>
            <rdf:li>png</rdf:li>
            <rdf:li>public domain</rdf:li>
            <rdf:li>router</rdf:li>
            <rdf:li>router</rdf:li>
            <rdf:li>svg</rdf:li>
            <rdf:li>wifi</rdf:li>
            <rdf:li>wifi</rdf:li>
            <rdf:li>wireless</rdf:li>
            <rdf:li>wireless</rdf:li>
          </rdf:Bag>
        </dc:subject>
      </cc:Work>
      <cc:License
         rdf:about="http://creativecommons.org/licenses/publicdomain/">
        <cc:permits
           rdf:resource="http://creativecommons.org/ns#Reproduction" />
        <cc:permits
           rdf:resource="http://creativecommons.org/ns#Distribution" />
        <cc:permits
           rdf:resource="http://creativecommons.org/ns#DerivativeWorks" />
      </cc:License>
    </rdf:RDF>
  </metadata>
</svg>
