<?xml version="1.0" encoding="UTF-8" standalone="no"?>
<!-- Created with Inkscape (http://www.inkscape.org/) -->

<svg
   xmlns:dc="http://purl.org/dc/elements/1.1/"
   xmlns:cc="http://creativecommons.org/ns#"
   xmlns:rdf="http://www.w3.org/1999/02/22-rdf-syntax-ns#"
   xmlns:svg="http://www.w3.org/2000/svg"
   xmlns="http://www.w3.org/2000/svg"
   xmlns:sodipodi="http://sodipodi.sourceforge.net/DTD/sodipodi-0.dtd"
   xmlns:inkscape="http://www.inkscape.org/namespaces/inkscape"
   width="1052.3622"
   height="744.09448"
   id="svg4474"
   version="1.1"
   inkscape:version="0.48.4 r9939"
   sodipodi:docname="Novo documento 67">
  <defs
     id="defs4476" />
  <sodipodi:namedview
     id="base"
     pagecolor="#ffffff"
     bordercolor="#666666"
     borderopacity="1.0"
     inkscape:pageopacity="0.0"
     inkscape:pageshadow="2"
     inkscape:zoom="0.35"
     inkscape:cx="-136.88833"
     inkscape:cy="520"
     inkscape:document-units="px"
     inkscape:current-layer="layer1"
     showgrid="false"
     inkscape:window-width="1600"
     inkscape:window-height="838"
     inkscape:window-x="-8"
     inkscape:window-y="-8"
     inkscape:window-maximized="1" />
  <metadata
     id="metadata4479">
    <rdf:RDF>
      <cc:Work
         rdf:about="">
        <dc:format>image/svg+xml</dc:format>
        <dc:type
           rdf:resource="http://purl.org/dc/dcmitype/StillImage" />
        <dc:title></dc:title>
      </cc:Work>
    </rdf:RDF>
  </metadata>
  <g
     inkscape:label="Camada 1"
     inkscape:groupmode="layer"
     id="layer1"
     transform="translate(0,-308.2677)">
    <path
       style="fill:#d40000;fill-opacity:1"
       d="m 15.714239,668.24789 0,-132.81429 506.924791,0 506.92477,0 0,132.81429 0,132.81429 -506.92477,0 -506.924791,0 0,-132.81429 z m 192.631441,82.15198 0,-10.10832 -59.79467,-0.53709 -59.794598,-0.5371 39.641088,-48.66478 c 21.80255,-26.76563 48.23586,-59.15812 58.74066,-71.98332 18.11778,-22.11997 19.10157,-23.81361 19.13971,-32.9501 l 0.0398,-9.63158 -74.01103,0 -74.011043,0 0,11.12077 0,11.12077 56.828973,0.53851 56.82888,0.53849 -43.73933,53.73402 c -24.05658,29.55372 -50.085791,61.48287 -57.84277,70.9537 -13.06377,15.95025 -14.10344,17.93082 -14.10344,26.86701 l 0,9.64735 76.03873,0 76.03872,0 0,-10.10833 z m 42.58168,7.83913 c 0,-1.24806 3.4217,-11.74028 7.60385,-23.31601 l 7.60385,-21.04679 41.7953,-0.003 41.79528,-0.003 8.04468,22.8116 8.04475,22.81162 13.52565,0.59957 c 7.43903,0.32997 13.52556,0.22585 13.52556,-0.23113 0,-0.84145 -28.93008,-76.41991 -50.59176,-132.16869 -6.50009,-16.72852 -13.5143,-35.24022 -15.58717,-41.13714 l -3.76893,-10.72165 -15.13938,0.58316 -15.13929,0.58315 -34.00947,88.20491 c -18.70518,48.5127 -34.53923,89.80173 -35.18676,91.75339 -1.04696,3.15583 0.40849,3.54846 13.15332,3.54846 9.21865,0 14.33052,-0.80945 14.33052,-2.26918 z m 24.33233,-68.1286 c 0,-2.84051 31.33742,-85.73503 32.41124,-85.73503 1.10741,0 32.5468,82.8736 32.50037,85.67028 -0.0141,0.83644 -14.62468,1.52078 -32.46844,1.52078 -17.84377,0 -32.44317,-0.65522 -32.44317,-1.45603 z m 243.422,66.49168 c 14.90024,-5.66163 24.00814,-13.45941 29.50197,-25.25822 5.2964,-11.3748 6.27956,-25.49805 2.67792,-38.46895 -2.71129,-9.76447 -16.26111,-24.71919 -25.38689,-28.01911 -3.79008,-1.37052 -6.85799,-2.99288 -6.81758,-3.60528 0.0404,-0.61239 3.9184,-2.93835 8.61772,-5.16883 21.95391,-10.42009 24.19224,-47.28818 4.0331,-66.42973 -11.86559,-11.26661 -24.23014,-13.66438 -70.46308,-13.66438 l -41.61847,0 0,92.26031 0,92.26031 44.58761,0 c 39.11017,0 45.85051,-0.47987 54.8677,-3.90612 z m -73.09523,-49.8279 0,-33.45704 25.85316,0.0113 c 30.2022,0.0132 38.12163,1.76808 46.24543,10.24751 5.65053,5.89787 5.96783,7.14723 5.96783,23.4977 0,16.86387 -0.15189,17.40438 -6.48195,23.06024 -9.06969,8.10377 -18.19645,10.07301 -46.74516,10.08601 l -24.83931,0.0112 0,-33.45704 z m 0,-82.08479 0,-28.96308 25.85316,0.98436 c 37.60394,1.43177 47.14401,7.08604 47.14401,27.94169 0,20.55622 -9.4366,26.1733 -46.75923,27.8332 l -26.23794,1.16692 0,-28.96309 z m 245.17337,132.27033 c 14.3489,-4.49375 29.20592,-18.20508 32.40763,-29.90855 7.14713,-26.12551 -1.88434,-50.38184 -22.6031,-60.70644 l -10.19221,-5.079 5.8554,-2.22623 c 13.98997,-5.31897 21.07059,-18.07677 21.07059,-37.96478 0,-19.01548 -6.76722,-29.97238 -23.62359,-38.24921 -11.79698,-5.79258 -12.09967,-5.82759 -55.9636,-6.47278 l -44.10246,-0.6487 0,92.40208 0,92.40209 42.9104,0 c 35.19882,0 44.94663,-0.63771 54.24094,-3.54848 z m -72.81894,-50.18139 0,-33.83315 29.90856,0.6929 c 33.18035,0.76871 39.18696,2.66509 46.23552,14.59734 5.34875,9.05474 5.10099,29.87671 -0.44405,37.31601 -8.62363,11.56958 -15.24559,13.60163 -46.80531,14.36297 l -28.89472,0.69706 0,-33.83313 z m 0.99701,-56.09238 c -0.62049,-1.617 -0.87055,-14.29518 -0.55566,-28.17376 l 0.57249,-25.23377 26.3601,0.18618 c 37.26387,0.2632 45.62323,5.24471 45.62323,27.18776 0,21.14357 -8.47988,26.27906 -46.07367,27.90263 -20.49246,0.885 -24.99419,0.56047 -25.92649,-1.86904 z m 173.38511,17.56194 0,-92.26031 -13.18004,0 -13.18004,0 0,92.26031 0,92.26031 13.18004,0 13.18004,0 0,-92.26031 z m 91.74798,54.80169 c 13.66462,-20.60222 25.30096,-37.47075 25.8586,-37.48558 0.55756,-0.0149 12.18452,16.84156 25.8376,37.45862 l 24.82382,37.48558 14.23012,0 14.23015,0 -7.02037,-10.64543 c -3.8612,-5.85498 -18.38996,-27.88979 -32.28612,-48.96623 l -25.26581,-38.32081 28.21005,-42.24499 c 15.51553,-23.23475 28.21002,-42.71707 28.21002,-43.29407 0,-0.577 -5.91641,-1.04909 -13.14759,-1.04909 l -13.14768,0 -20.56746,30.92241 c -11.31217,17.00733 -21.24963,31.67501 -22.08327,32.59483 -0.83365,0.91984 -11.19586,-12.99526 -23.02727,-30.92242 l -21.51155,-32.59482 -14.2865,0 -14.28649,0 6.6494,10.27922 c 3.65725,5.65356 16.58637,25.29947 28.73145,43.65759 l 22.08185,33.37838 -31.71349,47.5818 c -17.44239,26.16999 -31.71346,48.04121 -31.71346,48.60271 0,0.5615 5.92859,1.02092 13.1746,1.02092 l 13.17463,0 24.84477,-37.45862 z"
       id="path4493"
       inkscape:connector-curvature="0" />
  </g>
</svg>
